# https://github.com/mikedh/trimesh
mtllib material.mtl
usemtl Material_0
v 0.057017 0.044492 -0.032709
v 0.056916 -0.043965 -0.033586
v -0.056500 -0.043827 -0.034457
v -0.056399 0.044630 -0.033580
v 0.056500 0.043827 0.034457
v -0.056916 0.043965 0.033586
v -0.057017 -0.044492 0.032709
v 0.056399 -0.044630 0.033580
v 0.056399 -0.044630 0.033580
v -0.057017 -0.044492 0.032709
v -0.056500 -0.043827 -0.034457
v 0.056916 -0.043965 -0.033586
v 0.056500 0.043827 0.034457
v 0.057017 0.044492 -0.032709
v -0.056399 0.044630 -0.033580
v -0.056916 0.043965 0.033586
v -0.056916 0.043965 0.033586
v -0.056399 0.044630 -0.033580
v -0.056500 -0.043827 -0.034457
v -0.057017 -0.044492 0.032709
v 0.056500 0.043827 0.034457
v 0.056399 -0.044630 0.033580
v 0.056916 -0.043965 -0.033586
v 0.057017 0.044492 -0.032709
vt 0.00440500 0.58097700
vt 0.43661300 0.58097700
vt 0.43661300 0.99669500
vt 0.00440500 0.99669500
vt 0.00440500 0.25303000
vt 0.55849200 0.25303000
vt 0.55849200 0.57730400
vt 0.00440500 0.57730400
vt 0.00440500 0.00330500
vt 0.55849200 0.00330500
vt 0.55849200 0.24935700
vt 0.00440500 0.24935700
vt 0.44150800 0.58097700
vt 0.76945700 0.58097700
vt 0.76945700 0.99669500
vt 0.44150800 0.99669500
vt 0.56338700 0.25303000
vt 0.89133600 0.25303000
vt 0.89133600 0.57730400
vt 0.56338700 0.57730400
vt 0.56338700 0.00330500
vt 0.99559500 0.00330500
vt 0.99559500 0.24935700
vt 0.56338700 0.24935700
f 1/1 2/2 3/3
f 1/1 3/3 4/4
f 5/5 6/6 7/7
f 5/5 7/7 8/8
f 9/9 10/10 11/11
f 9/9 11/11 12/12
f 13/13 14/14 15/15
f 13/13 15/15 16/16
f 17/17 18/18 19/19
f 17/17 19/19 20/20
f 21/21 22/22 23/23
f 21/21 23/23 24/24

