mtllib panda_panda_rightfinger_geometry_panda_rightfinger.mtl
v 0.002354204137657955 -0.009420107824180393 0.04753583449318904
v -2.0026902105005043e-06 -0.012805236393980608 0.04499381202323962
v 0.003367424337390891 -0.009420167428901996 0.04579627763840622
v 0.0012096161076799589 -0.009421837553201307 0.048204728295509605
v -0.0009000741072070741 -0.009423445688590151 0.04836732522704741
v -0.0025687810286443616 -0.009414208148836145 0.047295636973251384
v -0.0034610623493329055 -0.009426008691619072 0.045455152623441464
v -0.010405360276026029 -0.01838727460052321 0.003964131692199542
v 0.010302780672431974 -0.019675274221733027 0.003999953538105913
v -0.010306770607739695 -0.019704125291177658 0.003999953538105913
v 0.010401601606762437 -0.01821221314898686 0.003997569348957583
v -0.010328351067517302 -0.017410893232230676 0.0063115435308219526
v 0.010206280743193871 -0.017441881726991983 0.005109733981924808
v -0.010402320438848053 -0.017414052282475626 0.004769510786505407
v 0.010337711381839447 -0.017410532027617765 0.006348379849210938
v -0.010349631119856146 -0.002563181247038946 0.0017999434485198931
v -0.010464310467511556 -0.008072027835689364 0.0017411724409544503
v -0.010366260817359191 -0.0025243192665775137 0.00013333218321015365
v -0.010338060665091662 -0.008028575993640905 0.003838424425282913
v -0.010353826095161753 -0.010463003293403947 0.003911768341982058
v -0.010379071048855085 -0.012792236604199033 0.018852075659015786
v -0.01050090176248331 -0.017035681509740913 0.017714403778445152
v -0.010374960712153257 -0.011576904675378513 0.017772755615755954
v -0.0104031513276767 -0.01144499465809374 0.004798954628416352
v -0.010333181428397757 -0.01621480170754355 0.01882751731869341
v -0.010464310467511556 -0.020754356909536087 0.0017411724409544503
v -0.010256230632446567 -0.020797806367395682 0.00392026261187027
v -0.010390521102225462 -0.026304154922163724 0.00016363323425231145
v -0.010349631119856146 -0.02626320409423372 0.0017999434485198931
v 0.010355350782122784 -0.010467569015078724 0.003908310969693335
v 0.006783962310787282 -0.00787026585306381 0.003922109464389295
v 0.010338780689270287 -0.008028575993640905 0.003838424425282913
v -0.006688237838052816 -0.007825800730748105 0.0039129303361682246
v -0.005033195506271224 -0.005965061723845634 0.0038749624220047133
v -0.004874587531161531 -0.0025882152301121312 0.0038749624220047133
v 0.0050018428640361805 -0.006138242050368202 0.0038460541285812123
v 0.004875361497548904 -0.002538207166710971 0.0038249543526421357
v 0.010350341607290684 -0.002563181247038946 0.0017999434485198931
v 0.004861891144548184 -0.0024824171472907297 0.0017614983985030721
v 0.010378300956769998 -0.002535226334583614 0.00015254220985201305
v -0.004861116284091053 -0.0024824171472907297 0.0017614983985030721
v 0.010389201455262318 -0.02627989341628251 0.0001333331890399506
v 0.004900753376705839 -0.026345522983144947 0.0017606034335015178
v 0.010350341607290684 -0.02626320409423372 0.0018000024572013141
v -0.004838049284328764 -0.02629783443748496 0.003838424425282913
v 0.004838824144785895 -0.026251702767153242 0.00388461838805545
v -0.004913091539369389 -0.026315122190938643 0.0017788435235689946
v -0.004740357262079691 -0.02308674927057612 0.003991549271358049
v 0.0047367213783962294 -0.023112739313383816 0.003989939645659283
v 0.010409050995987995 -0.011616954279917881 0.017718574917360154
v 0.010397790485406363 -0.01140661398575925 0.00475180758603177
v 0.010327870654033882 -0.016056200695925033 0.018873476140811196
v 0.01038271050881758 -0.012611935897633791 0.01879992509767979
v 0.010268500845808493 -0.02076317602414444 0.003931765430440031
v 0.010458520471757271 -0.02080257712931277 0.0017450473443677737
v 0.010465020954946095 -0.008072027835689364 0.0017411724409544503
v 0.010501560989918378 -0.017035742306556946 0.01771446576736301
v 0.01049864155413451 -0.01723231152583646 0.0047302908750153794
v 0.0070728654559495995 -0.021005946055232736 0.0018999595872450485
v 0.005206525234019902 -0.022541428056820766 0.0018999595872450485
v 0.005030691514901679 -0.02334865003311006 0.0037006182925094404
v 0.005556464733436945 -0.02213408938938708 0.003700201357432126
v 0.006974160750687706 -0.02102055636459202 0.00369895025417654
v 0.005151450536913041 -0.006138808891270645 0.0018999595872450485
v 0.006992816410262896 -0.007812927302976327 0.0018999595872450485
v -0.007104516717483891 -0.020991407271539374 0.0018999595872450485
v -0.0052058105742598245 -0.022541428056820766 0.0018999595872450485
v -0.0069633127042878695 -0.02102979748062932 0.003688817152272494
v -0.005555689276933309 -0.02213408938938708 0.003700201357432126
v -0.00503146637535881 -0.023340250535741788 0.0037030030777050575
v -0.00505119551469038 -0.005644863967300842 0.0018999595872450485
v -0.007155239679054202 -0.00784362254250735 0.0018999595872450485
v -0.005777955614875358 -0.006963201795759278 0.0018999595872450485
v 0.010198170934440236 -0.017334003141363036 0.01777042507086346
v -0.010193581376347998 -0.017350332450893347 0.01768090472881654
v -0.006566226522333429 -0.020818737161433728 0.003997450735547453
v 0.006602585359168044 -0.020795367342187693 0.003997152711903912
v -0.01029300193346298 -0.02316560870144552 0.004009013456869566
v -0.008802294391615784 -0.01565178027566102 0.035925550981755705
v 0.00880372609532196 -0.01566781036948888 0.035909400484464914
v -0.010388850979917092 -0.025220302664538004 0.019187646705359506
v 0.010400471502588037 -0.025253442889749175 0.01903661547538025
v 0.008746623648003438 -0.01441163847752054 0.03600435081729716
v -0.008748711002865648 -0.014412058094760623 0.0360046488409407
v -0.005330324689255746 -0.014301728562979368 0.05381007619269079
v -0.008656799439626772 -0.01441330860181985 0.04983235223815662
v -0.007801711718903777 -0.014238489145453205 0.052291285716286745
v 0.004800438451809376 -0.014331058854385684 0.053831643567726586
v 0.008537709347830769 -0.014414028626856814 0.05053366147613789
v 0.006546616592302956 -0.014290527643695766 0.053246215459110756
v 0.005532205640663685 -0.009412299605650423 0.05385763599782168
v -0.005467712216677143 -0.009490977838166149 0.05374730526079356
v -0.008394658186514248 -0.009504269691083577 0.0514611730437561
v -0.007084131330949781 -0.009504269691083577 0.05282146262557918
v -0.008779346601154592 -0.009461355483623977 0.050118030550287816
v -0.008745193136390272 -0.009413968537855302 0.03600452963148328
v -0.003062069116584163 -0.009426367512043121 0.04349093839358982
v -0.0019537800952727944 -0.009417784432132315 0.042155740018363766
v 0.007737815533515731 -0.00953347600466896 0.052245156424644855
v 0.00880241360091688 -0.009508501626317377 0.05020261204451397
v 0.00014447900934686425 -0.009433162450305843 0.041510578434825675
v 0.0031678673713078395 -0.009425056208167859 0.043772282249849345
v 0.008748948229374831 -0.009413789723690493 0.036004768050398116
v 0.0019433492814267983 -0.0094223728036013 0.04219358663690436
v 0.008962453279732748 -0.008020709362483766 0.03557930949687863
v -0.009015202203375204 -0.008043597575579249 0.03574209001098086
v -0.010192510876824146 -0.01739950276993238 0.019250837254546845
v 0.010188280138728209 -0.017392532593788142 0.01925345747842086
v -0.01036179046856805 -0.025304702950327603 0.006144412467571308
v 0.01038175087394375 -0.025261842387117445 0.006118543419264641
v 0.010293720765548594 -0.02316560870144552 0.004009013456869566
v 0.010479740919445564 -0.017677983181827357 0.019324207099302975
v -0.010479091228754586 -0.01767804278654896 0.019323607475732172
v -0.009055435342495475 -0.01546802011105395 0.035708060479266744
v -0.009049297255581986 -0.009711635709634228 0.03573463941989233
v -0.009055496139239035 -0.014104558528106097 0.0357282593297314
v -0.008945405157582851 -0.014109977789394225 0.04996038319542194
v 0.008973121320087927 -0.014113318037992846 0.04968118987777421
v 0.00904995290673802 -0.009715867644868028 0.03573582913027735
v 0.009056270999696166 -0.014108788079151032 0.03572706961934638
v 0.009056150598302058 -0.01546802011105395 0.035708060479266744
v 0.008197128374596354 -0.014114928557570556 0.05185301453028413
v -0.009823204038304362 -0.01750214210053244 0.011107995654703488
v -0.008970023070352414 -0.01753546352409728 0.009497952722836257
v -0.00982862806150428 -0.020413236703614272 0.01161445584244291
v -0.008382202006642612 -0.020413186635648128 0.008978080279042904
v -0.0052449100329266625 -0.020413186635648128 0.01571645208005006
v -0.005418896603924386 -0.017719162891888313 0.015752151736262578
v -0.0069870353552061925 -0.020413186635648128 0.015641642185048335
v -0.007580995697922495 -0.017713033142318677 0.015458541226834889
v -0.00790250377902788 -0.017712792339243402 0.008742344769096353
v -0.00893688288464742 -0.020413236703614272 0.014486270084240499
v -0.006165742279251214 -0.01771928210133152 0.008206795089558159
v -0.005999624118172405 -0.020413186635648128 0.008207809562040773
v -0.009010076203428028 -0.017712673129800197 0.01427407963422828
v -0.009712457405492144 -0.01771761316912664 0.012743368212082579
v -0.008163809374939714 -0.017413632665235542 0.015488882417936535
v -0.009805202241745688 -0.017413873468310817 0.013576339527402066
v -0.002160131246460249 -0.017714282457283473 0.011790167006391105
v -0.0019170640775697668 -0.01741542319107249 0.012879737870894182
v -0.0027611851386383345 -0.017712911548686608 0.013935880019348524
v -0.0034530753261593997 -0.0174133930542547 0.015198191348120978
v -0.003756344384196928 -0.017713142815006428 0.015033501098510937
v -0.0056591033456350436 -0.01741393307303242 0.016112283507117818
v -0.00744163942889348 -0.01741357186841951 0.008155774633878472
v -0.004799664485422003 -0.01741429189345647 0.008044373395922753
v -0.002533555276216674 -0.017414052282475626 0.009761228001635168
v -0.004240810387809039 -0.017708143170958382 0.008646856801611164
v -0.0029891723309400336 -0.017712673129800197 0.009725881205416603
v -0.003062367139836906 -0.020413186635648128 0.014486270084240499
v -0.0036170483158649664 -0.020413186635648128 0.008978080279042904
v -0.0021705622093178716 -0.020413236703614272 0.01161445584244291
v 0.002171337069775003 -0.020413236703614272 0.01161445584244291
v 0.0024719832251651427 -0.01753767247507988 0.010274064703251798
v 0.0036177632736482963 -0.020413186635648128 0.008978080279042904
v 0.00675505345922473 -0.020413186635648128 0.01571645208005006
v 0.006581008475669469 -0.017719162891888313 0.015752151736262578
v 0.005012929329038211 -0.020413186635648128 0.015641642185048335
v 0.00441890938167136 -0.017713033142318677 0.015458541226834889
v 0.004097461203239776 -0.017712792339243402 0.008742344769096353
v 0.0030630823956434884 -0.020413186635648128 0.014486270084240499
v 0.005834221212900178 -0.01771928210133152 0.008206795089558159
v 0.006000339373978988 -0.020413186635648128 0.008207809562040773
v 0.002989888182793122 -0.017712673129800197 0.01427407963422828
v 0.0021581051353764774 -0.017602762023164593 0.012481877498861193
v 0.002778768212526904 -0.017414761578662702 0.014643860218566814
v 0.00996714926937911 -0.01741393307303242 0.010863735476457083
v 0.009844423293899646 -0.017413632665235542 0.013441988084704525
v 0.009839832543714396 -0.017714282457283473 0.011790167006391105
v 0.009238719642932268 -0.017712911548686608 0.013935880019348524
v 0.008363068913816527 -0.017593702105480963 0.015050191614643821
v 0.005933940389314408 -0.01741506198645958 0.01617606175893022
v 0.00849610530174788 -0.017413692269957145 0.008740018992582158
v 0.004167318151705929 -0.01741488317229477 0.008277249070985883
v 0.006598711652928893 -0.01741327146062263 0.007966170799762955
v 0.0077591534023656065 -0.017708143170958382 0.008646856801611164
v 0.009010791459234611 -0.017712673129800197 0.009725881205416603
v 0.008937598140454002 -0.020413186635648128 0.014486270084240499
v 0.008382917262449194 -0.020413186635648128 0.008978080279042904
v 0.009829343317310862 -0.020413236703614272 0.01161445584244291
v -0.0008604880510743205 -0.0019130133908307736 0.04356503422394162
v -0.0017403961913671168 -0.00938857811854693 0.044413681582911375
v -0.0015255801367203838 -0.001912536404046147 0.045917575645516656
v -0.0012969970469248256 -0.009390783493246235 0.04621166537696316
v 0.00015645801673795255 -0.009388399304382122 0.046765927365032024
v 0.0008612160473749578 -0.0019131324512621753 0.04643505436340509
v -0.0001557250192346051 -0.009388399304382122 0.04323411353853171
v -0.0020864600473938675 -0.009431076285049744 0.04526877578933822
v -0.002153158098392574 -0.01088655325301917 0.04542046267133327
v -0.0014647841382189944 -0.009429228538680057 0.04655176519059413
v -0.0010701410763847249 -0.01088357420903346 0.04698103367837265
v 0.0007216020627381327 -0.009433578491262631 0.04298973415082789
v -0.0007234780446083352 -0.010894783472978087 0.042877610503560225
v -0.0006977050682169553 -0.009431611535449738 0.04301648952145045
v -1.1207401906670679e-05 -0.009430182214225702 0.04711717564712059
v -0.0018193121526468919 -0.009437573199704452 0.043879089155316235
v -0.0019671911416462183 -0.010889713495358552 0.044076972086249326
v -0.002886593323392484 -0.009435187818745907 0.043994784317928096
v -0.0029752251407349256 -0.009436798338323615 0.04570311306324608
v -0.003009378307475992 -0.010894183849478763 0.04527878461538291
v -0.002455234318361 -0.010896213986296555 0.04326862229226464
v -0.001791715199442913 -0.009433518886541028 0.04755121728157406
v 0.00035971503463607177 -0.010899674636432816 0.04796838839361395
v -0.001870930078045189 -0.010906704417298652 0.04741132736748495
v 0.0005209800360555918 -0.009434293747921865 0.04803043453201009
v -0.001784682148701437 -0.009434114933757056 0.04249655985711754
v -0.0009701550946534771 -0.010885014259107385 0.04216771818464498
v 1.4839901396398945e-05 -0.009437750821774827 0.04194252675120692
v 0.0010255571703034754 -0.010894783472978087 0.04215002273278607
v 0.0022630690740041005 8.376440585570934e-05 0.04726272562624784
v 0.004843115381602138 1.7061221751104975e-05 0.053717264477524604
v 0.00226897023243166 3.647644583446422e-05 0.05374623714405511
v 0.007075071424066401 1.8882123877131534e-05 0.0527693156405269
v 0.008674919253393532 6.999649049250014e-06 0.050318602846580227
v 0.008756996049291896 2.9777338459885088e-05 0.04727184753392935
v 0.008758902206016439 2.8757236245984915e-05 0.042727997866124225
v 0.0022702211850350474 3.43831466382486e-05 0.0362488494144584
v 0.00876259888644346 -1.0841513289729795e-05 0.036265901135247254
v 0.0022482270689826323 7.642199822506568e-05 0.04275214016544021
v -0.0022622942135469694 8.376440585570934e-05 0.04726272562624784
v -0.0022682542315669452 3.64761478108562e-05 0.05374623714405511
v -0.005691945508087294 -1.1034114538873069e-05 0.053604015492978926
v -0.007818163198501682 3.973115234434857e-05 0.05191786447511871
v -0.008709371933503605 1.0308513200807902e-05 0.04993952154037405
v -0.008757711305098479 2.8976036797074897e-05 0.04727196674338677
v -0.008758784188808353 3.0448438730634678e-05 0.04272394951295036
v -0.0022737381574406646 3.683744555614681e-05 0.03624962189174245
v -0.0022439951387936857 7.46945975135894e-05 0.04275565922862315
v -0.008771955624486572 -2.7542634046595092e-05 0.03626445870081251
v 0.008809328932473524 -0.001564623048003258 0.04500001091502528
v 0.008785963909458492 -0.009348166117300218 0.05057126967576364
v 0.008931338460053393 -0.009313653791397753 0.03609042004555187
v -0.008804024118574703 -0.001558900994729387 0.04500001091502528
v -0.008893072274401226 -0.00934208643569673 0.04989970081321865
v -0.00893068400099037 -0.00931442865277859 0.03609042004555187
v 3.6523404459872826e-07 -0.001558900994729387 0.053804106183063374
v 3.6521003393627585e-07 -0.0014886279220304838 0.04500001091502528
v 3.656140315219336e-07 -0.0015611661231620983 0.03619646162630214
v 0.004730045359511539 -0.009351383580172339 0.05389995535520454
v -0.00533980123264646 -0.009355199474449351 0.053819546191987956
v -0.0027071234225675466 -0.009383690531375501 0.04193907921369843
v -0.003944575274582744 -0.009400439458145893 0.04425382170051585
v 0.0074927218065065975 -0.009395015428480036 0.04425066026570516
v 0.007497489582503977 -0.009394835422220795 0.045753772314269796
v 0.002185642185906655 -0.009390841905873406 0.04837536948123388
v 0.0025462501727137573 -0.009436619524158807 0.04679852399906799
v -0.007258474337757784 -0.009387803257166094 0.05068923458644471
v -0.007860779331550884 -0.009355317491798125 0.052191502632050836
v 0.007498383652262205 -0.00939388174667515 0.03750692403911427
v 0.0007541320458331358 -0.009395073841107207 0.03750263249864728
v -0.00497215945003975 -0.009392750449059128 0.05243797533782689
v -0.0007557591037814849 -0.009394419381264008 0.03750168120717709
v -0.007492482791857899 -0.00939388174667515 0.037501800416634506
v -0.0074965353120486945 -0.009394835422220795 0.04424691232036399
v 0.0034452674149607924 -0.009386730372177243 0.04705685566166784
v 0.006868660519216772 -0.009352158441553175 0.05310292569129612
v 0.007365286467587292 -0.009393704124604774 0.05032683306752026
v 0.005344450395389247 -0.009385836301353201 0.05235577326437077
v -0.007491827736748369 -0.009394835422220795 0.045749423553263245
v -0.0007535540297344413 -0.009394717404872022 0.052497332110863715
v 0.003923535130962359 -0.009389947835049364 0.045733635452723
v -0.0007304751090420426 -0.009391914790862257 0.041080165536255965
v 0.0030384060703163886 -0.009433639288078666 0.04465287297502843
v 0.0007498090695404759 -0.009395073841107207 0.05249245405986623
v 0.003923356317010713 -0.009390366260195016 0.04426664386975557
v 0.0007340020652266267 -0.009389947835049364 0.0410768276714483
v 0.0020776393041708136 -0.0094343545447379 0.04267555047323926
v 0.002057075252696685 -0.009386730372177243 0.041555038794063734
v 0.0033756491831200856 -0.009390841905873406 0.04281472989896217
v -0.0007330490613701685 -0.009390366260195016 0.04892307494914483
v -0.0039226410612041305 -0.009390366260195016 0.04573345425434773
v -0.0020563601459017288 -0.009386730372177243 0.04844498780436511
v -0.0033748743226629544 -0.009390841905873406 0.047185368225141126
v 0.0007340020652266267 -0.009389947835049364 0.0489232609158984
v 0.007333219761638678 -0.0014421949498310612 0.03767280399910933
v 0.007331073398172424 -0.001441658805360244 0.04408037193997484
v 0.004115462105728691 -0.0014336118699202548 0.04404109003956696
v 0.0009136171033756498 -0.0014404668599399914 0.04092465918324529
v 0.0026753541438251697 -0.0014278899656581879 0.04171346816297026
v 0.0009163920723877508 -0.0014424938675098994 0.0376726251849232
v -0.007332861537688881 -0.0014430899147259276 0.03767191231236785
v -0.00091609807244892 -0.0014421949498310612 0.03767280399910933
v -0.0009094941006855802 -0.0014420758893996595 0.04092674773293922
v -0.003045201298502176 -0.0014197248638576213 0.04195659823556036
v -0.004073202408489769 -0.0014421359411566745 0.04408991346494646
v -0.0073319674679306526 -0.0014427318393608985 0.044079842649983915
v -0.00714051733036871 -0.001431168821393559 0.05044234226337855
v -0.0050904153747513255 -0.0014323008640686008 0.0522285243211461
v -0.007332205290486341 -0.0014435068497535392 0.04591989784574713
v -0.004114806454572657 -0.0014334338008144664 0.04595911775723716
v -0.0009131030877704817 -0.0014401089335867665 0.04907554861355883
v -0.0026752942411513683 -0.001426518908049519 0.04828697805274869
v -0.0009163440906440591 -0.0014430298629689127 0.05232829310024712
v 0.006608247204923651 -0.0014126317529750815 0.051169162325246945
v 0.0073099733518782375 -0.0014355198170587613 0.04958146878245615
v 0.004924833357504201 -0.0014373079587068458 0.05226356236486996
v 0.0009155620776288622 -0.0014435658584279261 0.05232704378513339
v 0.000959386098921431 -0.001433492809488853 0.04911519291071726
v 0.004075884319741201 -0.0014401089335867665 0.0459135129872079
v 0.0032873150910071344 -0.001426518908049519 0.04767572917565645
v 0.007332324499787438 -0.0014428508997923002 0.045920136264661966
v 0.000984775146857465 -0.010888163772596878 0.0430663810635684
v 0.0019996160715446297 -0.010896934011333518 0.04408603200501298
v 0.0023457402772800607 -0.010886734451372842 0.04317921043082397
v 0.0029992461129292438 -0.010897223690280507 0.04464483348922026
v 0.0008269391264781899 -0.0108915040211955 0.047019247462042085
v 0.0020512931545585964 -0.010869633856744993 0.04582446352251778
v 0.0023387672782240122 -0.010885014259107385 0.046955346424488544
v 0.002154886186223603 -0.009418438891975514 0.04456424312762841
v 0.0014484521659454388 -0.009429228538680057 0.04656767726897009
v 0.0017411111491504466 -0.00938857811854693 0.04558640223605703
v 0.0015262961375850982 -0.001912476501300936 0.04408246048966878
v 0.0012977121537197818 -0.009390783493246235 0.04378837075822228
usemtl PlasticWhite
f 3 2 1
f 1 2 4
f 2 5 4
f 2 6 5
f 6 2 7
f 10 9 8
f 9 11 8
f 14 13 12
f 13 15 12
f 18 17 16
f 17 20 19
f 23 22 21
f 24 22 23
f 14 22 24
f 22 25 21
f 20 8 14
f 20 14 24
f 17 26 20
f 20 26 8
f 26 27 8
f 17 28 26
f 18 28 17
f 28 29 26
f 32 31 30
f 31 20 30
f 33 20 31
f 33 19 20
f 36 35 34
f 37 35 36
f 36 33 31
f 36 34 33
f 40 39 38
f 39 41 37
f 37 41 35
f 41 18 16
f 39 40 18
f 41 39 18
f 44 43 42
f 46 45 43
f 43 45 47
f 47 29 28
f 43 28 42
f 47 28 43
f 45 46 48
f 46 49 48
f 40 42 18
f 42 28 18
f 51 23 50
f 51 24 23
f 52 21 25
f 53 21 52
f 55 11 54
f 56 55 42
f 40 56 42
f 40 38 56
f 42 55 44
f 56 32 30
f 58 51 57
f 51 50 57
f 50 53 57
f 57 53 52
f 30 51 58
f 30 58 11
f 56 30 55
f 30 11 55
f 55 59 44
f 44 59 60
f 44 60 43
f 60 62 61
f 59 63 60
f 60 63 62
f 43 61 46
f 60 61 43
f 59 55 63
f 55 54 63
f 38 39 64
f 56 38 65
f 38 64 65
f 64 31 65
f 64 36 31
f 56 65 32
f 65 31 32
f 64 37 36
f 39 37 64
f 66 26 29
f 47 67 29
f 67 66 29
f 67 68 66
f 67 69 68
f 67 70 69
f 66 68 27
f 26 66 27
f 47 45 70
f 67 47 70
f 71 41 16
f 73 71 72
f 71 16 72
f 72 16 17
f 73 34 71
f 73 33 34
f 72 33 73
f 71 34 35
f 41 71 35
f 17 19 72
f 72 19 33
f 30 24 51
f 30 20 24
f 11 14 8
f 13 14 11
f 25 75 74
f 25 74 52
f 23 21 53
f 23 53 50
f 76 27 68
f 69 76 68
f 69 48 76
f 70 48 69
f 48 70 45
f 8 27 10
f 22 12 75
f 22 14 12
f 22 75 25
f 61 49 46
f 62 49 61
f 62 77 49
f 63 77 62
f 63 54 77
f 9 54 11
f 11 58 13
f 13 58 15
f 74 15 57
f 15 58 57
f 57 52 74
f 48 78 76
f 78 27 76
f 81 80 79
f 81 82 80
f 80 83 79
f 79 83 84
f 87 86 85
f 85 86 88
f 88 86 89
f 89 84 83
f 86 84 89
f 90 88 89
f 88 91 85
f 85 91 92
f 94 6 93
f 92 6 94
f 92 5 6
f 6 7 95
f 91 5 92
f 7 96 95
f 7 97 96
f 91 4 5
f 91 1 4
f 97 98 96
f 99 1 91
f 99 100 1
f 98 101 96
f 1 100 3
f 3 103 102
f 102 103 104
f 100 103 3
f 104 103 101
f 101 103 96
f 103 105 96
f 96 105 106
f 106 105 107
f 107 105 108
f 107 74 75
f 107 108 74
f 74 108 15
f 75 12 107
f 109 82 81
f 109 110 82
f 111 77 54
f 49 77 111
f 82 110 15
f 112 82 15
f 110 111 9
f 15 110 9
f 81 12 109
f 113 12 81
f 109 10 78
f 12 10 109
f 81 114 113
f 116 115 113
f 117 95 115
f 116 117 115
f 120 119 118
f 118 119 100
f 82 112 121
f 120 112 119
f 10 12 9
f 9 12 15
f 110 49 111
f 49 109 48
f 110 109 49
f 109 78 48
f 87 85 92
f 87 92 94
f 87 94 93
f 117 87 93
f 117 93 95
f 122 118 100
f 122 100 99
f 90 122 99
f 90 99 91
f 88 90 91
f 119 105 103
f 112 108 105
f 119 103 100
f 112 15 108
f 115 95 96
f 111 54 9
f 115 96 106
f 113 106 107
f 121 80 82
f 107 12 113
f 120 83 121
f 121 83 80
f 27 78 10
f 118 89 83
f 120 118 83
f 89 118 122
f 90 89 122
f 86 87 117
f 116 84 86
f 117 116 86
f 114 81 79
f 116 114 84
f 114 79 84
f 102 2 3
f 2 102 104
f 7 2 97
f 2 98 97
f 2 101 98
f 2 104 101
f 125 124 123
f 126 124 125
f 129 128 127
f 129 130 128
f 126 131 124
f 132 130 129
f 134 133 126
f 126 133 131
f 132 135 130
f 132 136 135
f 125 136 132
f 125 123 136
f 135 137 130
f 135 138 137
f 141 140 139
f 136 138 135
f 143 142 141
f 141 142 140
f 136 123 138
f 128 142 143
f 128 144 142
f 130 144 128
f 130 137 144
f 146 142 145
f 147 142 146
f 145 142 144
f 140 142 147
f 123 137 138
f 123 144 137
f 124 144 123
f 145 144 124
f 149 147 148
f 148 147 146
f 139 147 149
f 139 140 147
f 131 145 124
f 133 145 131
f 133 146 145
f 148 146 133
f 150 141 139
f 150 143 141
f 151 148 134
f 134 148 133
f 127 143 150
f 127 128 143
f 151 149 148
f 152 149 151
f 152 139 149
f 150 139 152
f 129 127 150
f 132 129 150
f 125 132 150
f 125 150 151
f 126 125 151
f 150 152 151
f 134 126 151
f 155 154 153
f 158 157 156
f 158 159 157
f 155 160 154
f 161 159 158
f 163 162 155
f 155 162 160
f 161 164 159
f 161 165 164
f 153 165 161
f 153 154 165
f 164 166 159
f 169 168 167
f 170 168 169
f 165 166 164
f 170 171 168
f 157 172 171
f 159 172 157
f 159 166 172
f 167 168 173
f 173 168 172
f 168 171 172
f 174 166 154
f 175 166 174
f 173 172 175
f 175 172 166
f 154 166 165
f 176 173 175
f 177 173 176
f 177 167 173
f 169 167 177
f 160 174 154
f 162 174 160
f 162 175 174
f 176 175 162
f 178 170 169
f 178 171 170
f 179 176 163
f 163 176 162
f 156 171 178
f 156 157 171
f 179 177 176
f 180 177 179
f 180 169 177
f 178 169 180
f 153 161 155
f 158 156 179
f 156 178 179
f 178 180 179
f 163 158 179
f 161 158 163
f 155 161 163
f 93 6 95
f 114 116 113
f 115 106 113
f 119 112 105
f 121 112 120
usemtl RubberGray
f 183 182 181
f 183 184 182
f 183 185 184
f 186 185 183
f 181 182 187
f 190 189 188
f 190 191 189
f 194 193 192
f 195 191 190
f 196 193 194
f 196 197 193
f 188 197 196
f 188 189 197
f 200 199 198
f 201 200 198
f 204 203 202
f 203 205 202
f 201 198 206
f 207 201 206
f 207 206 208
f 209 207 208
f 204 202 199
f 200 204 199
f 212 211 210
f 211 213 210
f 210 213 214
f 210 214 215
f 218 217 216
f 219 216 217
f 222 221 220
f 223 222 220
f 224 223 220
f 225 224 220
f 228 227 226
f 229 226 227
f 215 214 230
f 214 231 230
f 230 231 232
f 230 232 216
f 216 232 218
f 224 225 233
f 224 233 234
f 233 226 235
f 226 229 235
f 234 233 235
f 212 210 236
f 210 237 236
f 219 238 237
f 217 238 219
f 236 220 221
f 237 220 236
f 228 237 238
f 227 228 238
f 229 227 235
f 235 227 238
f 238 217 232
f 217 218 232
f 235 238 232
f 240 239 236
f 222 240 221
f 239 212 236
f 242 241 198
f 241 206 198
f 244 243 231
f 205 246 245
f 248 247 240
f 250 232 249
f 247 251 240
f 249 232 243
f 243 232 231
f 250 235 232
f 252 235 250
f 254 235 253
f 234 235 254
f 234 247 248
f 246 255 245
f 258 257 256
f 234 259 247
f 251 260 240
f 257 231 256
f 206 241 208
f 246 261 255
f 241 262 208
f 263 261 246
f 260 264 240
f 234 254 259
f 263 265 261
f 262 266 208
f 208 268 267
f 266 268 208
f 263 269 265
f 264 239 240
f 260 270 264
f 254 271 259
f 267 269 263
f 273 202 272
f 268 269 267
f 235 252 253
f 265 244 261
f 273 199 202
f 257 244 231
f 272 202 270
f 271 199 273
f 264 258 239
f 202 205 270
f 262 250 266
f 270 274 264
f 252 250 262
f 254 242 271
f 242 199 271
f 270 205 274
f 265 243 244
f 242 198 199
f 239 258 256
f 274 205 245
f 256 231 213
f 214 213 231
f 256 211 239
f 213 211 256
f 248 240 222
f 222 223 248
f 234 248 223
f 224 234 223
f 276 275 243
f 243 275 249
f 277 276 265
f 265 276 243
f 268 266 278
f 268 278 279
f 269 268 279
f 269 279 277
f 265 269 277
f 278 266 280
f 266 250 280
f 280 249 275
f 250 249 280
f 278 280 279
f 279 280 275
f 277 279 276
f 279 275 276
f 253 252 281
f 281 252 282
f 283 282 262
f 262 282 252
f 241 242 284
f 242 285 284
f 262 241 283
f 241 284 283
f 254 286 242
f 286 285 242
f 286 254 281
f 254 253 281
f 281 282 284
f 286 281 284
f 284 282 283
f 286 284 285
f 288 247 287
f 288 251 247
f 287 247 289
f 247 259 289
f 259 271 289
f 289 271 290
f 272 270 291
f 272 291 292
f 273 272 292
f 273 292 290
f 271 273 290
f 260 293 270
f 293 291 270
f 288 293 251
f 251 293 260
f 287 289 290
f 287 290 292
f 287 292 288
f 292 291 288
f 288 291 293
f 295 257 294
f 294 258 296
f 294 257 258
f 264 297 258
f 297 296 258
f 264 274 297
f 297 274 298
f 255 261 299
f 255 299 300
f 245 255 300
f 245 300 298
f 274 245 298
f 299 261 301
f 261 244 301
f 295 301 257
f 257 301 244
f 298 300 296
f 297 298 296
f 300 299 295
f 299 301 295
f 300 295 294
f 296 300 294
f 197 201 193
f 200 201 197
f 201 207 193
f 200 197 189
f 207 209 193
f 193 209 302
f 204 200 189
f 302 209 303
f 303 209 304
f 204 189 191
f 303 304 305
f 191 306 203
f 204 191 203
f 307 303 305
f 307 305 308
f 306 307 203
f 203 307 308
f 305 263 246
f 308 305 246
f 209 208 267
f 308 246 205
f 304 209 267
f 203 308 205
f 305 304 267
f 305 267 263
f 192 303 309
f 195 306 191
f 192 302 303
f 310 306 195
f 192 193 302
f 310 307 306
f 309 307 310
f 309 303 307
f 312 311 186
f 312 313 311
f 312 187 313
f 181 187 312
f 186 311 185
f 188 196 182
f 192 309 313
f 194 192 187
f 190 184 195
f 185 311 310
f 190 182 184
f 188 182 190
f 184 185 195
f 196 194 182
f 194 187 182
f 311 309 310
f 185 310 195
f 313 309 311
f 187 192 313
f 181 312 186
f 183 181 186
f 228 233 237
f 226 233 228
f 233 225 220
f 237 233 220
f 215 230 210
f 237 210 230
f 219 237 230
f 216 219 230
f 221 240 236
f 211 212 239
