# https://github.com/mikedh/trimesh
v -0.00122245 0.02521516 0.00776303 0.43529412 0.89019608 0.96078431
v -0.00040720 0.02508897 0.00204129 0.43529412 0.89019608 0.96078431
v -0.00122245 0.02507888 0.00204129 0.43529412 0.89019608 0.96078431
v -0.00204276 0.02514955 0.00694564 0.43529412 0.89019608 0.96078431
v -0.00204276 0.02516469 0.00776303 0.43529412 0.89019608 0.96078431
v -0.00122245 0.02480631 0.01695231 0.43529412 0.89019608 0.96078431
v -0.00060468 0.02482650 0.01695231 0.43529412 0.89019608 0.96078431
v -0.00040720 0.02482650 0.01695231 0.43529412 0.89019608 0.96078431
v 0.00203855 0.02521012 0.00776303 0.43529412 0.89019608 0.96078431
v -0.00040720 0.02457413 -0.01566037 0.43529412 0.89019608 0.96078431
v -0.00204276 0.02481641 -0.00694684 0.43529412 0.89019608 0.96078431
v 0.00122330 0.02486184 -0.00531205 0.43529412 0.89019608 0.96078431
v 0.00040805 0.02456908 -0.01566037 0.43529412 0.89019608 0.96078431
v -0.00285801 0.02477098 -0.00694684 0.43529412 0.89019608 0.96078431
v -0.00545061 0.02449337 -0.00694684 0.43529412 0.89019608 0.96078431
v -0.00530883 0.02477098 0.00776303 0.43529412 0.89019608 0.96078431
v -0.00608357 0.02445803 0.01695231 0.43529412 0.89019608 0.96078431
v -0.00593166 0.02447318 0.01695231 0.43529412 0.89019608 0.96078431
v 0.00020550 0.02480631 0.01695231 0.43529412 0.89019608 0.96078431
v 0.00102582 0.02477098 0.01695231 0.43529412 0.89019608 0.96078431
v 0.00184107 0.02471041 0.01695231 0.43529412 0.89019608 0.96078431
v 0.00203855 0.02469527 0.01695231 0.43529412 0.89019608 0.96078431
v 0.00285886 0.02460441 0.01695231 0.43529412 0.89019608 0.96078431
v 0.00285886 0.02511421 0.00776303 0.43529412 0.89019608 0.96078431
v 0.00203855 0.02479622 -0.00612944 0.43529412 0.89019608 0.96078431
v -0.00122245 0.02455394 -0.01566037 0.43529412 0.89019608 0.96078431
v -0.00204276 0.02479117 -0.00776423 0.43529412 0.89019608 0.96078431
v 0.00092961 0.02453879 -0.01566037 0.43529412 0.89019608 0.96078431
v -0.00191111 0.02453375 -0.01566037 0.43529412 0.89019608 0.96078431
v -0.00364794 0.02440756 -0.01566037 0.43529412 0.89019608 0.96078431
v -0.00612914 0.02438737 -0.00694684 0.43529412 0.89019608 0.96078431
v -0.00612914 0.02467003 0.00776303 0.43529412 0.89019608 0.96078431
v -0.00395683 0.02437222 -0.01566037 0.43529412 0.89019608 0.96078431
v -0.00677222 0.02455898 0.00776303 0.43529412 0.89019608 0.96078431
v -0.00718238 0.02448327 0.00776303 0.43529412 0.89019608 0.96078431
v -0.00694439 0.02428137 0.01695231 0.43529412 0.89019608 0.96078431
v 0.00530968 0.02431670 0.01695231 0.43529412 0.89019608 0.96078431
v 0.00449443 0.02435203 -0.00939901 0.43529412 0.89019608 0.96078431
v 0.00285886 0.02468517 -0.00612944 0.43529412 0.89019608 0.96078431
v 0.00612999 0.02416023 0.01695231 0.43529412 0.89019608 0.96078431
v 0.00776049 0.02407442 0.00776303 0.43529412 0.89019608 0.96078431
v 0.00694524 0.02424604 0.00694564 0.43529412 0.89019608 0.96078431
v 0.00736553 0.02370595 -0.01230140 0.43529412 0.89019608 0.96078431
v 0.00203855 0.02473060 -0.00776423 0.43529412 0.89019608 0.96078431
v 0.00530968 0.02400880 -0.01430337 0.43529412 0.89019608 0.96078431
v 0.00530968 0.02393814 -0.01512076 0.43529412 0.89019608 0.96078431
v 0.00530968 0.02388261 -0.01566037 0.43529412 0.89019608 0.96078431
v -0.00449358 0.02427127 -0.01566037 0.43529412 0.89019608 0.96078431
v -0.00612914 0.02434194 -0.00776423 0.43529412 0.89019608 0.96078431
v -0.00694439 0.02419556 -0.00694684 0.43529412 0.89019608 0.96078431
v -0.00776470 0.02435203 0.00694564 0.43529412 0.89019608 0.96078431
v -0.00776470 0.02403404 0.01695231 0.43529412 0.89019608 0.96078431
v 0.00612999 0.02391290 -0.01348598 0.43529412 0.89019608 0.96078431
v 0.00919857 0.02328195 0.01695231 0.43529412 0.89019608 0.96078431
v 0.01069235 0.02292358 0.01571664 0.43529412 0.89019608 0.96078431
v 0.00853523 0.02384223 0.00776303 0.43529412 0.89019608 0.96078431
v 0.00854030 0.02383718 0.00694564 0.43529412 0.89019608 0.96078431
v 0.00776049 0.02406937 0.00694564 0.43529412 0.89019608 0.96078431
v 0.00823648 0.02291348 -0.01566037 0.43529412 0.89019608 0.96078431
v 0.00807444 0.02298415 -0.01566037 0.43529412 0.89019608 0.96078431
v 0.00776049 0.02311034 -0.01566037 0.43529412 0.89019608 0.96078431
v 0.00748705 0.02321634 -0.01566037 0.43529412 0.89019608 0.96078431
v 0.00694524 0.02340814 -0.01566037 0.43529412 0.89019608 0.96078431
v 0.00675789 0.02347376 -0.01566037 0.43529412 0.89019608 0.96078431
v 0.00588187 0.02375642 -0.01566037 0.43529412 0.89019608 0.96078431
v 0.00597808 0.02379176 -0.01512076 0.43529412 0.89019608 0.96078431
v 0.00618063 0.02382204 -0.01430018 0.43529412 0.89019608 0.96078431
v 0.00894539 0.02368071 0.00694564 0.43529412 0.89019608 0.96078431
v 0.00922389 0.02298920 -0.00939901 0.43529412 0.89019608 0.96078431
v 0.00963405 0.02279234 -0.00939901 0.43529412 0.89019608 0.96078431
v 0.01266718 0.02089951 -0.01430337 0.43529412 0.89019608 0.96078431
v 0.00565907 0.02380690 -0.01566037 0.43529412 0.89019608 0.96078431
v -0.00776470 0.02342834 -0.01566037 0.43529412 0.89019608 0.96078431
v -0.00803814 0.02334253 -0.01566037 0.43529412 0.89019608 0.96078431
v -0.00857995 0.02317091 -0.01566037 0.43529412 0.89019608 0.96078431
v -0.00776470 0.02395328 -0.00612944 0.43529412 0.89019608 0.96078431
v -0.00857995 0.02409461 0.00694564 0.43529412 0.89019608 0.96078431
v -0.00842804 0.02379681 0.01695231 0.43529412 0.89019608 0.96078431
v 0.00939605 0.02322138 0.01695231 0.43529412 0.89019608 0.96078431
v 0.01049993 0.02283273 0.01695231 0.43529412 0.89019608 0.96078431
v 0.01103162 0.02258539 0.01695231 0.43529412 0.89019608 0.96078431
v 0.01183674 0.02217654 0.01695231 0.43529412 0.89019608 0.96078431
v 0.01214562 0.02200493 0.01695231 0.43529412 0.89019608 0.96078431
v 0.01254565 0.02177779 0.01695231 0.43529412 0.89019608 0.96078431
v 0.01266718 0.02170712 0.01695231 0.43529412 0.89019608 0.96078431
v 0.01309759 0.02144970 0.01695231 0.43529412 0.89019608 0.96078431
v 0.01230260 0.02209073 0.00672214 0.43529412 0.89019608 0.96078431
v 0.01230260 0.02209073 0.00630386 0.43529412 0.89019608 0.96078431
v 0.00894032 0.02368071 0.00776303 0.43529412 0.89019608 0.96078431
v 0.00991761 0.02305986 0.01695231 0.43529412 0.89019608 0.96078431
v 0.01008978 0.02299424 0.01695231 0.43529412 0.89019608 0.96078431
v 0.00864663 0.02271158 -0.01566037 0.43529412 0.89019608 0.96078431
v 0.00988723 0.02291853 -0.00285988 0.43529412 0.89019608 0.96078431
v 0.01103162 0.02240368 -0.00285988 0.43529412 0.89019608 0.96078431
v 0.01029232 0.02273682 -0.00285988 0.43529412 0.89019608 0.96078431
v 0.01156330 0.02214121 -0.00285988 0.43529412 0.89019608 0.96078431
v 0.01472809 0.02044524 -0.00103032 0.43529412 0.89019608 0.96078431
v 0.01324950 0.02056638 -0.01430337 0.43529412 0.89019608 0.96078431
v 0.01266718 0.02077837 -0.01512076 0.43529412 0.89019608 0.96078431
v 0.01199371 0.02112161 -0.01512076 0.43529412 0.89019608 0.96078431
v 0.00914794 0.02246425 -0.01566037 0.43529412 0.89019608 0.96078431
v -0.00876731 0.02310529 -0.01566037 0.43529412 0.89019608 0.96078431
v -0.00946103 0.02285796 -0.01566037 0.43529412 0.89019608 0.96078431
v -0.00959775 0.02280749 -0.01566037 0.43529412 0.89019608 0.96078431
v -0.01021552 0.02349395 0.00694564 0.43529412 0.89019608 0.96078431
v -0.00883820 0.02364538 0.01695231 0.43529412 0.89019608 0.96078431
v 0.01472303 0.02044019 0.01695231 0.43529412 0.89019608 0.96078431
v 0.01513825 0.02018781 0.01675435 0.43529412 0.89019608 0.96078431
v 0.01333052 0.02142951 0.00612825 0.43529412 0.89019608 0.96078431
v 0.01372042 0.02117208 0.00204129 0.43529412 0.89019608 0.96078431
v 0.01367485 0.02116199 0.00122389 0.43529412 0.89019608 0.96078431
v 0.01473316 0.02045028 -0.00040770 0.43529412 0.89019608 0.96078431
v 0.01613073 0.01945087 0.00285868 0.43529412 0.89019608 0.96078431
v 0.01652569 0.01894107 -0.00204248 0.43529412 0.89019608 0.96078431
v 0.01685483 0.01856755 -0.00367727 0.43529412 0.89019608 0.96078431
v 0.01682445 0.01853222 -0.00449466 0.43529412 0.89019608 0.96078431
v 0.01470277 0.02042505 -0.00157312 0.43529412 0.89019608 0.96078431
v 0.01723461 0.01722490 -0.01348598 0.43529412 0.89019608 0.96078431
v 0.01356851 0.02013734 -0.01512076 0.43529412 0.89019608 0.96078431
v 0.01315836 0.02049571 -0.01512076 0.43529412 0.89019608 0.96078431
v 0.01709789 0.01793661 -0.00939901 0.43529412 0.89019608 0.96078431
v 0.01801441 0.01720471 -0.00922340 0.43529412 0.89019608 0.96078431
v 0.01309253 0.02044524 -0.01558374 0.43529412 0.89019608 0.96078431
v 0.01268744 0.02064714 -0.01566037 0.43529412 0.89019608 0.96078431
v 0.01150760 0.02128313 -0.01566037 0.43529412 0.89019608 0.96078431
v -0.00982055 0.02271158 -0.01566037 0.43529412 0.89019608 0.96078431
v -0.01021552 0.02253997 -0.01566037 0.43529412 0.89019608 0.96078431
v -0.01266633 0.02173236 -0.00694684 0.43529412 0.89019608 0.96078431
v -0.01097000 0.02311539 0.00694564 0.43529412 0.89019608 0.96078431
v -0.01098519 0.02310024 0.00776303 0.43529412 0.89019608 0.96078431
v -0.01021552 0.02346367 0.00776303 0.43529412 0.89019608 0.96078431
v -0.00939520 0.02340310 0.01695231 0.43529412 0.89019608 0.96078431
v 0.01511293 0.02019791 0.01695231 0.43529412 0.89019608 0.96078431
v 0.01573576 0.01977896 0.01695231 0.43529412 0.89019608 0.96078431
v 0.01475341 0.02046038 0.00531086 0.43529412 0.89019608 0.96078431
v 0.01655607 0.01904202 0.00285868 0.43529412 0.89019608 0.96078431
v 0.01734601 0.01815870 -0.00367727 0.43529412 0.89019608 0.96078431
v 0.01516357 0.02016257 0.00531086 0.43529412 0.89019608 0.96078431
v 0.01583704 0.01970325 0.01695231 0.43529412 0.89019608 0.96078431
v 0.01614592 0.01943068 0.01695231 0.43529412 0.89019608 0.96078431
v 0.01869800 0.01706338 0.01103260 0.43529412 0.89019608 0.96078431
v 0.01869800 0.01706338 0.01021521 0.43529412 0.89019608 0.96078431
v 0.01717891 0.01717948 -0.01397450 0.43529412 0.89019608 0.96078431
v 0.01797390 0.01715424 -0.00976940 0.43529412 0.89019608 0.96078431
v 0.01797390 0.01633654 -0.01459393 0.43529412 0.89019608 0.96078431
v 0.01699661 0.01701291 -0.01566037 0.43529412 0.89019608 0.96078431
v 0.01905752 0.01662929 0.00531086 0.43529412 0.89019608 0.96078431
v 0.01957908 0.01548350 -0.00612944 0.43529412 0.89019608 0.96078431
v 0.02048041 0.01394905 -0.00924256 0.43529412 0.89019608 0.96078431
v 0.01318368 0.02034428 -0.01566037 0.43529412 0.89019608 0.96078431
v 0.01299126 0.02048057 -0.01566037 0.43529412 0.89019608 0.96078431
v 0.01658646 0.01737128 -0.01566037 0.43529412 0.89019608 0.96078431
v -0.01042313 0.02243397 -0.01566037 0.43529412 0.89019608 0.96078431
v -0.01401833 0.02050076 -0.01566037 0.43529412 0.89019608 0.96078431
v -0.01327903 0.02139418 -0.00694684 0.43529412 0.89019608 0.96078431
v -0.01348158 0.02174245 0.00694564 0.43529412 0.89019608 0.96078431
v -0.01085860 0.02220683 -0.01566037 0.43529412 0.89019608 0.96078431
v -0.01299040 0.02201502 0.00776303 0.43529412 0.89019608 0.96078431
v -0.01376514 0.02134370 0.01695231 0.43529412 0.89019608 0.96078431
v -0.01285368 0.02181817 0.01695231 0.43529412 0.89019608 0.96078431
v -0.01263595 0.02191912 0.01695231 0.43529412 0.89019608 0.96078431
v -0.01058516 0.02286806 0.01695231 0.43529412 0.89019608 0.96078431
v 0.01865243 0.01703814 0.00531086 0.43529412 0.89019608 0.96078431
v 0.01667760 0.01893097 0.01695231 0.43529412 0.89019608 0.96078431
v 0.01909297 0.01665453 0.01103260 0.43529412 0.89019608 0.96078431
v 0.01739664 0.01821422 0.01695231 0.43529412 0.89019608 0.96078431
v 0.02040446 0.01304049 -0.01452049 0.43529412 0.89019608 0.96078431
v 0.01894612 0.01490808 -0.01512076 0.43529412 0.89019608 0.96078431
v 0.01888536 0.01482227 -0.01566037 0.43529412 0.89019608 0.96078431
v 0.01790807 0.01625073 -0.01512076 0.43529412 0.89019608 0.96078431
v 0.01755868 0.01646777 -0.01566037 0.43529412 0.89019608 0.96078431
v 0.01742196 0.01660406 -0.01566037 0.43529412 0.89019608 0.96078431
v 0.01950313 0.01620025 0.01103260 0.43529412 0.89019608 0.96078431
v 0.01946262 0.01612959 0.00531086 0.43529412 0.89019608 0.96078431
v 0.02048548 0.01477685 0.00449346 0.43529412 0.89019608 0.96078431
v 0.02086525 0.01348467 -0.00858162 0.43529412 0.89019608 0.96078431
v 0.02066271 0.01256602 -0.01512076 0.43529412 0.89019608 0.96078431
v 0.02116907 0.01294459 -0.00939901 0.43529412 0.89019608 0.96078431
v -0.01428670 0.02034933 -0.01566037 0.43529412 0.89019608 0.96078431
v -0.01442342 0.02026857 -0.01566037 0.43529412 0.89019608 0.96078431
v -0.01430189 0.02094999 -0.00204248 0.43529412 0.89019608 0.96078431
v -0.01382591 0.02121246 -0.00285988 0.43529412 0.89019608 0.96078431
v -0.01409935 0.02138913 0.00694564 0.43529412 0.89019608 0.96078431
v -0.01390186 0.02125789 0.01695231 0.43529412 0.89019608 0.96078431
v 0.01977657 0.01568036 0.01695231 0.43529412 0.89019608 0.96078431
v 0.01780174 0.01778518 0.01695231 0.43529412 0.89019608 0.96078431
v 0.02061207 0.01249535 -0.01566037 0.43529412 0.89019608 0.96078431
v 0.01877902 0.01495856 -0.01566037 0.43529412 0.89019608 0.96078431
v 0.01783212 0.01614473 -0.01566037 0.43529412 0.89019608 0.96078431
v 0.02018672 0.01518065 0.01695231 0.43529412 0.89019608 0.96078431
v 0.01979682 0.01579140 0.01103260 0.43529412 0.89019608 0.96078431
v 0.02049054 0.01479199 0.01021521 0.43529412 0.89019608 0.96078431
v 0.02212611 0.01233888 0.01185000 0.43529412 0.89019608 0.96078431
v 0.02212104 0.01233383 0.01103260 0.43529412 0.89019608 0.96078431
v 0.02119945 0.01299506 -0.00858162 0.43529412 0.89019608 0.96078431
v 0.02126528 0.01147575 -0.01562205 0.43529412 0.89019608 0.96078431
v 0.02139694 0.01253574 -0.00939901 0.43529412 0.89019608 0.96078431
v -0.01505131 0.01985972 -0.01566037 0.43529412 0.89019608 0.96078431
v -0.01489434 0.02056638 -0.00204248 0.43529412 0.89019608 0.96078431
v -0.01450950 0.02110142 0.00694564 0.43529412 0.89019608 0.96078431
v -0.01645901 0.01969820 0.00858043 0.43529412 0.89019608 0.96078431
v -0.01686917 0.01936506 0.00858043 0.43529412 0.89019608 0.96078431
v -0.01405377 0.02113170 0.01695231 0.43529412 0.89019608 0.96078431
v 0.02122984 0.01151613 -0.01566037 0.43529412 0.89019608 0.96078431
v 0.02040446 0.01487275 0.01695231 0.43529412 0.89019608 0.96078431
v 0.02020698 0.01520084 0.01103260 0.43529412 0.89019608 0.96078431
v 0.02162987 0.01266697 0.01695231 0.43529412 0.89019608 0.96078431
v 0.02201470 0.01208146 0.01593696 0.43529412 0.89019608 0.96078431
v 0.02233372 0.01184927 0.01185000 0.43529412 0.89019608 0.96078431
v 0.02341228 0.00939616 0.01103260 0.43529412 0.89019608 0.96078431
v 0.02309327 0.01014320 0.01103260 0.43529412 0.89019608 0.96078431
v 0.02234384 0.01184927 0.01103260 0.43529412 0.89019608 0.96078431
v 0.02217168 0.01162718 -0.00040770 0.43529412 0.89019608 0.96078431
v 0.02147289 0.01262659 -0.00612944 0.43529412 0.89019608 0.96078431
v 0.02305782 0.01010787 0.00531086 0.43529412 0.89019608 0.96078431
v 0.02142226 0.01258621 -0.00858162 0.43529412 0.89019608 0.96078431
v 0.02228814 0.00822513 -0.01566037 0.43529412 0.89019608 0.96078431
v 0.02126528 0.01141013 -0.01566037 0.43529412 0.89019608 0.96078431
v 0.02256158 0.01021386 -0.00858162 0.43529412 0.89019608 0.96078431
v 0.02344772 0.00776076 -0.00939901 0.43529412 0.89019608 0.96078431
v 0.02226789 0.01096090 -0.00776423 0.43529412 0.89019608 0.96078431
v 0.02263247 0.01021386 -0.00776423 0.43529412 0.89019608 0.96078431
v -0.01546147 0.01955687 -0.01566037 0.43529412 0.89019608 0.96078431
v -0.01573491 0.01977896 -0.00612944 0.43529412 0.89019608 0.96078431
v -0.01576023 0.01978905 -0.00531205 0.43529412 0.89019608 0.96078431
v -0.01644382 0.01969820 0.00776303 0.43529412 0.89019608 0.96078431
v -0.01548173 0.02039981 0.00694564 0.43529412 0.89019608 0.96078431
v -0.01507663 0.02069257 0.00694564 0.43529412 0.89019608 0.96078431
v -0.01735022 0.01895621 0.00858043 0.43529412 0.89019608 0.96078431
v -0.01732490 0.01892592 0.00939782 0.43529412 0.89019608 0.96078431
v -0.01797811 0.01797699 -0.00568563 0.43529412 0.89019608 0.96078431
v -0.01688942 0.01873412 0.01695231 0.43529412 0.89019608 0.96078431
v 0.02197420 0.01201079 0.01695231 0.43529412 0.89019608 0.96078431
v 0.02343253 0.00856837 0.01695231 0.43529412 0.89019608 0.96078431
v 0.02430854 0.00612536 0.01695231 0.43529412 0.89019608 0.96078431
v 0.02436424 0.00593355 0.01695231 0.43529412 0.89019608 0.96078431
v 0.02412119 0.00694306 0.01103260 0.43529412 0.89019608 0.96078431
v 0.02375660 0.00828570 0.00204129 0.43529412 0.89019608 0.96078431
v 0.02375154 0.00827561 0.00122389 0.43529412 0.89019608 0.96078431
v 0.02310339 0.01012301 0.01021521 0.43529412 0.89019608 0.96078431
v 0.02242486 0.00776076 -0.01566037 0.43529412 0.89019608 0.96078431
v 0.02370597 0.00737210 -0.00825275 0.43529412 0.89019608 0.96078431
v 0.02353380 0.00694306 -0.01021641 0.43529412 0.89019608 0.96078431
v -0.01617038 0.01947106 -0.00531205 0.43529412 0.89019608 0.96078431
v -0.01768948 0.01774985 -0.01566037 0.43529412 0.89019608 0.96078431
v -0.01705653 0.01871393 -0.00612944 0.43529412 0.89019608 0.96078431
v -0.01776037 0.01857765 0.00858043 0.43529412 0.89019608 0.96078431
v -0.01773506 0.01856755 0.00939782 0.43529412 0.89019608 0.96078431
v -0.01816040 0.01814356 0.00531086 0.43529412 0.89019608 0.96078431
v -0.01699070 0.01864831 0.01695231 0.43529412 0.89019608 0.96078431
v -0.01817560 0.01734100 -0.01566037 0.43529412 0.89019608 0.96078431
v -0.01844903 0.01707348 -0.01566037 0.43529412 0.89019608 0.96078431
v -0.01878830 0.01715424 -0.00612944 0.43529412 0.89019608 0.96078431
v -0.01886425 0.01721986 -0.00204248 0.43529412 0.89019608 0.96078431
v 0.02448071 0.00548432 0.01695231 0.43529412 0.89019608 0.96078431
v 0.02432374 0.00612536 0.01103260 0.43529412 0.89019608 0.96078431
v 0.02431867 0.00612536 0.00776303 0.43529412 0.89019608 0.96078431
v 0.02389839 0.00776076 0.00204129 0.43529412 0.89019608 0.96078431
v 0.02457692 0.00511080 0.01695231 0.43529412 0.89019608 0.96078431
v 0.02293123 0.00669573 -0.01430337 0.43529412 0.89019608 0.96078431
v 0.02249575 0.00748819 -0.01566037 0.43529412 0.89019608 0.96078431
v 0.02439969 0.00449500 -0.00531205 0.43529412 0.89019608 0.96078431
v 0.02450603 0.00389939 -0.00531205 0.43529412 0.89019608 0.96078431
v 0.02412119 0.00367730 -0.01021641 0.43529412 0.89019608 0.96078431
v 0.02398953 0.00449500 -0.01021641 0.43529412 0.89019608 0.96078431
v 0.02367052 0.00627173 -0.01021641 0.43529412 0.89019608 0.96078431
v 0.02307301 0.00612536 -0.01430337 0.43529412 0.89019608 0.96078431
v -0.01856550 0.01770947 0.00531086 0.43529412 0.89019608 0.96078431
v -0.01813002 0.01816879 0.00858043 0.43529412 0.89019608 0.96078431
v -0.01811989 0.01815870 0.00939782 0.43529412 0.89019608 0.96078431
v -0.02061122 0.01491313 0.01695231 0.43529412 0.89019608 0.96078431
v -0.01827180 0.01746719 0.01593696 0.43529412 0.89019608 0.96078431
v -0.01787684 0.01787604 0.01593696 0.43529412 0.89019608 0.96078431
v -0.01742111 0.01823946 0.01695231 0.43529412 0.89019608 0.96078431
v -0.01858575 0.01693719 -0.01566037 0.43529412 0.89019608 0.96078431
v -0.01895540 0.01652834 -0.01566037 0.43529412 0.89019608 0.96078431
v -0.01962380 0.01636177 -0.00255016 0.43529412 0.89019608 0.96078431
v -0.01927441 0.01677567 -0.00204248 0.43529412 0.89019608 0.96078431
v 0.02429842 0.00612536 0.00531086 0.43529412 0.89019608 0.96078431
v 0.02471364 0.00452528 0.01695231 0.43529412 0.89019608 0.96078431
v 0.02455160 0.00508051 0.01041956 0.43529412 0.89019608 0.96078431
v 0.02262741 0.00692287 -0.01566037 0.43529412 0.89019608 0.96078431
v 0.02438956 0.00531270 0.00204129 0.43529412 0.89019608 0.96078431
v 0.02453135 0.00341482 -0.00584847 0.43529412 0.89019608 0.96078431
v 0.02447058 0.00368234 -0.00612625 0.43529412 0.89019608 0.96078431
v 0.02479972 0.00367730 0.01021521 0.43529412 0.89019608 0.96078431
v 0.02479972 0.00204189 0.00040969 0.43529412 0.89019608 0.96078431
v 0.02471364 0.00204189 -0.00449466 0.43529412 0.89019608 0.96078431
v 0.02467819 0.00122419 -0.00776423 0.43529412 0.89019608 0.96078431
v 0.02338190 0.00285959 -0.01566037 0.43529412 0.89019608 0.96078431
v 0.02326037 0.00367730 -0.01566037 0.43529412 0.89019608 0.96078431
v 0.02321986 0.00531270 -0.01430337 0.43529412 0.89019608 0.96078431
v 0.02436931 0.00122419 -0.01021641 0.43529412 0.89019608 0.96078431
v 0.02303250 0.00539346 -0.01520058 0.43529412 0.89019608 0.96078431
v 0.02278944 0.00612536 -0.01566037 0.43529412 0.89019608 0.96078431
v -0.02046943 0.01557436 0.00449346 0.43529412 0.89019608 0.96078431
v -0.01968963 0.01642739 0.00776303 0.43529412 0.89019608 0.96078431
v -0.01967444 0.01641730 0.00858043 0.43529412 0.89019608 0.96078431
v -0.02061628 0.01491818 0.01675435 0.43529412 0.89019608 0.96078431
v -0.02092010 0.01454970 0.01695231 0.43529412 0.89019608 0.96078431
v -0.02022132 0.01532198 0.01695231 0.43529412 0.89019608 0.96078431
v -0.01772999 0.01793156 0.01695231 0.43529412 0.89019608 0.96078431
v -0.01922884 0.01619520 -0.01566037 0.43529412 0.89019608 0.96078431
v -0.02046437 0.01556426 0.00389958 0.43529412 0.89019608 0.96078431
v -0.01963393 0.01636682 -0.00204248 0.43529412 0.89019608 0.96078431
v -0.02132519 0.01398438 -0.00694684 0.43529412 0.89019608 0.96078431
v 0.02475921 0.00428300 0.01695231 0.43529412 0.89019608 0.96078431
v 0.02483010 0.00367730 0.01695231 0.43529412 0.89019608 0.96078431
v 0.02597955 -0.00857814 0.00531086 0.43529412 0.89019608 0.96078431
v 0.02439969 0.00040649 -0.01021641 0.43529412 0.89019608 0.96078431
v 0.02346798 0.00040649 -0.01566037 0.43529412 0.89019608 0.96078431
v -0.02170497 0.01348467 -0.00694684 0.43529412 0.89019608 0.96078431
v -0.02203411 0.01300516 -0.00694684 0.43529412 0.89019608 0.96078431
v -0.02207968 0.01310106 0.00040969 0.43529412 0.89019608 0.96078431
v -0.02076819 0.01512008 0.00449346 0.43529412 0.89019608 0.96078431
v -0.02208474 0.01309601 0.00910726 0.43529412 0.89019608 0.96078431
v -0.02173535 0.01348467 0.01675435 0.43529412 0.89019608 0.96078431
v -0.02043905 0.01553902 0.00826113 0.43529412 0.89019608 0.96078431
v -0.02102137 0.01442856 0.01695231 0.43529412 0.89019608 0.96078431
v -0.02147204 0.01334334 -0.01566037 0.43529412 0.89019608 0.96078431
v 0.02500733 0.00122419 0.01695231 0.43529412 0.89019608 0.96078431
v 0.02586309 -0.00939584 0.00531086 0.43529412 0.89019608 0.96078431
v 0.02454147 -0.00820462 -0.00747687 0.43529412 0.89019608 0.96078431
v 0.02464781 -0.00776044 -0.00694684 0.43529412 0.89019608 0.96078431
v 0.02484529 -0.00122387 0.01695231 0.43529412 0.89019608 0.96078431
v 0.02455666 -0.00500448 0.01695231 0.43529412 0.89019608 0.96078431
v 0.02420221 -0.00694274 -0.01103380 0.43529412 0.89019608 0.96078431
v 0.02407562 -0.00694274 -0.01185119 0.43529412 0.89019608 0.96078431
v 0.02392371 -0.00694274 -0.01266858 0.43529412 0.89019608 0.96078431
v 0.02324518 -0.00776044 -0.01566037 0.43529412 0.89019608 0.96078431
v -0.02187713 0.01275783 -0.01566037 0.43529412 0.89019608 0.96078431
v -0.02195815 0.01262154 -0.01566037 0.43529412 0.89019608 0.96078431
v -0.02211512 0.01234898 -0.01566037 0.43529412 0.89019608 0.96078431
v -0.02332028 0.01021386 -0.01566037 0.43529412 0.89019608 0.96078431
v -0.02297595 0.01160699 -0.00204248 0.43529412 0.89019608 0.96078431
v -0.02272783 0.01201584 -0.00204248 0.43529412 0.89019608 0.96078431
v -0.02208474 0.01309601 0.00876881 0.43529412 0.89019608 0.96078431
v -0.02455075 0.00903779 0.00876242 0.43529412 0.89019608 0.96078431
v -0.02203917 0.01303039 0.01675435 0.43529412 0.89019608 0.96078431
v -0.02455075 0.00903779 0.00907852 0.43529412 0.89019608 0.96078431
v -0.02203411 0.01302535 0.01695231 0.43529412 0.89019608 0.96078431
v -0.02172016 0.01348467 0.01695231 0.43529412 0.89019608 0.96078431
v -0.02134545 0.01401971 0.01695231 0.43529412 0.89019608 0.96078431
v -0.02135051 0.01402476 0.01675435 0.43529412 0.89019608 0.96078431
v 0.02554408 -0.01021354 0.00601650 0.43529412 0.89019608 0.96078431
v 0.02543774 -0.01076877 0.00589516 0.43529412 0.89019608 0.96078431
v 0.02543774 -0.01076877 0.00547050 0.43529412 0.89019608 0.96078431
v 0.02557446 -0.01028421 0.00524380 0.43529412 0.89019608 0.96078431
v 0.02304263 -0.00875985 -0.01566037 0.43529412 0.89019608 0.96078431
v 0.02309327 -0.00857814 -0.01566037 0.43529412 0.89019608 0.96078431
v 0.02277425 -0.00953213 -0.01566037 0.43529412 0.89019608 0.96078431
v 0.02282996 -0.00939079 -0.01566037 0.43529412 0.89019608 0.96078431
v 0.02293123 -0.00912327 -0.01566037 0.43529412 0.89019608 0.96078431
v 0.02412119 -0.00694274 0.01695231 0.43529412 0.89019608 0.96078431
v -0.02363422 0.00963340 -0.01566037 0.43529412 0.89019608 0.96078431
v -0.02370511 0.00949711 -0.01566037 0.43529412 0.89019608 0.96078431
v -0.02418110 0.00857846 -0.01512076 0.43529412 0.89019608 0.96078431
v -0.02445454 0.00800304 -0.01512076 0.43529412 0.89019608 0.96078431
v -0.02460645 0.00759419 -0.01512076 0.43529412 0.89019608 0.96078431
v -0.02481912 0.00694306 -0.01566037 0.43529412 0.89019608 0.96078431
v -0.02506218 0.00612536 -0.01512076 0.43529412 0.89019608 0.96078431
v -0.02491533 0.00776076 0.00858043 0.43529412 0.89019608 0.96078431
v -0.02227716 0.01261650 0.01695231 0.43529412 0.89019608 0.96078431
v -0.02209487 0.01292440 0.01695231 0.43529412 0.89019608 0.96078431
v -0.02484950 0.00776076 0.00939782 0.43529412 0.89019608 0.96078431
v -0.02391273 0.00859865 0.01695231 0.43529412 0.89019608 0.96078431
v -0.02376082 0.00910341 0.01695231 0.43529412 0.89019608 0.96078431
v 0.02476427 -0.01175809 0.00612825 0.43529412 0.89019608 0.96078431
v 0.02405536 -0.00713959 0.01695231 0.43529412 0.89019608 0.96078431
v 0.02388320 -0.00764434 0.01695231 0.43529412 0.89019608 0.96078431
v 0.02325024 -0.01184895 0.01266739 0.43529412 0.89019608 0.96078431
v 0.02296667 -0.01237389 0.01266739 0.43529412 0.89019608 0.96078431
v 0.02371103 -0.01308559 0.00737030 0.43529412 0.89019608 0.96078431
v 0.02445033 -0.01216190 0.00531086 0.43529412 0.89019608 0.96078431
v 0.02208053 -0.01227799 -0.01233013 0.43529412 0.89019608 0.96078431
v 0.02135136 -0.01245465 -0.01566037 0.43529412 0.89019608 0.96078431
v -0.02433301 0.00815952 -0.01566037 0.43529412 0.89019608 0.96078431
v -0.02442415 0.00796266 -0.01566037 0.43529412 0.89019608 0.96078431
v -0.02460138 0.00755886 -0.01566037 0.43529412 0.89019608 0.96078431
v -0.02474317 0.00716515 -0.01566037 0.43529412 0.89019608 0.96078431
v -0.02505205 0.00612536 -0.01566037 0.43529412 0.89019608 0.96078431
v -0.02558374 0.00367730 -0.00694684 0.43529412 0.89019608 0.96078431
v -0.02507230 0.00694306 0.00858043 0.43529412 0.89019608 0.96078431
v -0.02504192 0.00694306 0.00939782 0.43529412 0.89019608 0.96078431
v -0.02432288 0.00692791 0.01695231 0.43529412 0.89019608 0.96078431
v 0.02189824 -0.01181866 0.01695231 0.43529412 0.89019608 0.96078431
v 0.02290085 -0.01228304 0.01309843 0.43529412 0.89019608 0.96078431
v 0.02027280 -0.01446357 0.01695231 0.43529412 0.89019608 0.96078431
v 0.01992341 -0.01681573 0.01188831 0.43529412 0.89019608 0.96078431
v 0.02135643 -0.01486233 0.01185000 0.43529412 0.89019608 0.96078431
v 0.02371103 -0.01308559 0.00731602 0.43529412 0.89019608 0.96078431
v 0.01967529 -0.01722458 0.01163926 0.43529412 0.89019608 0.96078431
v 0.01970061 -0.01723972 0.01103260 0.43529412 0.89019608 0.96078431
v 0.02404017 -0.01261113 0.00531086 0.43529412 0.89019608 0.96078431
v 0.02041965 -0.01550842 -0.00531205 0.43529412 0.89019608 0.96078431
v 0.02046522 -0.01393358 -0.01566037 0.43529412 0.89019608 0.96078431
v 0.02075892 -0.01348435 -0.01566037 0.43529412 0.89019608 0.96078431
v 0.02113363 -0.01286350 -0.01566037 0.43529412 0.89019608 0.96078431
v -0.02516852 0.00531270 -0.01566037 0.43529412 0.89019608 0.96078431
v -0.02570526 0.00285959 -0.00694684 0.43529412 0.89019608 0.96078431
v -0.02570526 0.00285959 -0.00612944 0.43529412 0.89019608 0.96078431
v -0.02518371 0.00612536 0.00858043 0.43529412 0.89019608 0.96078431
v -0.02546221 0.00367730 0.01021521 0.43529412 0.89019608 0.96078431
v -0.02536093 0.00503004 0.00449346 0.43529412 0.89019608 0.96078431
v -0.02537106 0.00415177 0.01075801 0.43529412 0.89019608 0.96078431
v -0.02446973 0.00612536 0.01695231 0.43529412 0.89019608 0.96078431
v -0.02443935 0.00630707 0.01695231 0.43529412 0.89019608 0.96078431
v 0.02179697 -0.01200542 0.01695231 0.43529412 0.89019608 0.96078431
v 0.02150328 -0.01252027 0.01695231 0.43529412 0.89019608 0.96078431
v 0.02033357 -0.01436767 0.01695231 0.43529412 0.89019608 0.96078431
v 0.01882460 -0.01638669 0.01695231 0.43529412 0.89019608 0.96078431
v 0.01720422 -0.01882465 -0.00584527 0.43529412 0.89019608 0.96078431
v 0.01831823 -0.01689144 0.01695231 0.43529412 0.89019608 0.96078431
v 0.01650038 -0.01862780 0.01695231 0.43529412 0.89019608 0.96078431
v 0.01636366 -0.01964235 0.01395733 0.43529412 0.89019608 0.96078431
v 0.01552815 -0.02042977 0.01389348 0.43529412 0.89019608 0.96078431
v 0.01470784 -0.02124747 0.01307609 0.43529412 0.89019608 0.96078431
v 0.01470784 -0.02124747 0.01307289 0.43529412 0.89019608 0.96078431
v 0.01465720 -0.02121719 0.00204129 0.43529412 0.89019608 0.96078431
v 0.01555347 -0.02045501 -0.00204248 0.43529412 0.89019608 0.96078431
v 0.01952845 -0.01622517 -0.00776423 0.43529412 0.89019608 0.96078431
v 0.02023230 -0.01420615 -0.01566037 0.43529412 0.89019608 0.96078431
v -0.02551791 0.00040649 -0.01566037 0.43529412 0.89019608 0.96078431
v -0.02567488 -0.00041121 -0.00858162 0.43529412 0.89019608 0.96078431
v -0.02575084 0.00040649 0.00531086 0.43529412 0.89019608 0.96078431
v -0.02554323 0.00285959 0.01021521 0.43529412 0.89019608 0.96078431
v -0.02540144 0.00360663 0.01103260 0.43529412 0.89019608 0.96078431
v -0.02494065 0.00285959 0.01695231 0.43529412 0.89019608 0.96078431
v -0.02492040 0.00305645 0.01695231 0.43529412 0.89019608 0.96078431
v -0.02484950 0.00367730 0.01695231 0.43529412 0.89019608 0.96078431
v -0.02490520 0.00449500 0.01511956 0.43529412 0.89019608 0.96078431
v -0.02481912 0.00387415 0.01695231 0.43529412 0.89019608 0.96078431
v 0.01554334 -0.02044491 -0.00249907 0.43529412 0.89019608 0.96078431
v 0.01577121 -0.01984426 -0.00858162 0.43529412 0.89019608 0.96078431
v 0.01568006 -0.01893065 -0.01566037 0.43529412 0.89019608 0.96078431
v 0.01617124 -0.01891551 0.01695231 0.43529412 0.89019608 0.96078431
v 0.01410526 -0.02060644 0.01695231 0.43529412 0.89019608 0.96078431
v 0.01110251 -0.02267088 0.01695231 0.43529412 0.89019608 0.96078431
v 0.01323431 -0.02214594 0.01348478 0.43529412 0.89019608 0.96078431
v 0.01366979 -0.02194908 0.01266739 0.43529412 0.89019608 0.96078431
v 0.01436857 -0.02147966 0.01274721 0.43529412 0.89019608 0.96078431
v 0.01065184 -0.02372077 -0.00009479 0.43529412 0.89019608 0.96078431
v 0.01154305 -0.02295354 -0.00612944 0.43529412 0.89019608 0.96078431
v 0.01398373 -0.02131814 -0.00776423 0.43529412 0.89019608 0.96078431
v 0.01851065 -0.01605860 -0.01566037 0.43529412 0.89019608 0.96078431
v 0.01891068 -0.01564975 -0.01566037 0.43529412 0.89019608 0.96078431
v 0.01945249 -0.01506928 -0.01566037 0.43529412 0.89019608 0.96078431
v 0.01756881 -0.01701763 -0.01566037 0.43529412 0.89019608 0.96078431
v -0.02551791 -0.00041121 -0.01566037 0.43529412 0.89019608 0.96078431
v -0.02572552 -0.00041121 0.00531086 0.43529412 0.89019608 0.96078431
v -0.02552803 -0.00285927 -0.01348598 0.43529412 0.89019608 0.96078431
v -0.02564450 0.00040649 0.00939782 0.43529412 0.89019608 0.96078431
v -0.02562931 0.00122419 0.00939782 0.43529412 0.89019608 0.96078431
v -0.02564956 0.00122419 0.00858043 0.43529412 0.89019608 0.96078431
v -0.02560399 0.00204189 0.00939782 0.43529412 0.89019608 0.96078431
v -0.02517358 -0.00122387 0.01695231 0.43529412 0.89019608 0.96078431
v -0.02502673 0.00204189 0.01675435 0.43529412 0.89019608 0.96078431
v -0.02499635 0.00223875 0.01695231 0.43529412 0.89019608 0.96078431
v 0.01394322 -0.02128281 -0.00828468 0.43529412 0.89019608 0.96078431
v 0.01264693 -0.02093453 -0.01566037 0.43529412 0.89019608 0.96078431
v 0.01082401 -0.02285259 0.01695231 0.43529412 0.89019608 0.96078431
v 0.01103162 -0.02342801 0.01103260 0.43529412 0.89019608 0.96078431
v 0.01056576 -0.02301411 0.01695231 0.43529412 0.89019608 0.96078431
v 0.00972519 -0.02352392 0.01695231 0.43529412 0.89019608 0.96078431
v 0.00991255 -0.02377629 0.01405312 0.43529412 0.89019608 0.96078431
v 0.01065184 -0.02372077 0.00006805 0.43529412 0.89019608 0.96078431
v 0.01151773 -0.02293840 -0.00694684 0.43529412 0.89019608 0.96078431
v 0.00886943 -0.02447790 0.00285868 0.43529412 0.89019608 0.96078431
v 0.00939605 -0.02416495 -0.00449466 0.43529412 0.89019608 0.96078431
v 0.00939605 -0.02413972 -0.00531205 0.43529412 0.89019608 0.96078431
v 0.01001889 -0.02383182 -0.00531205 0.43529412 0.89019608 0.96078431
v 0.01148228 -0.02291316 -0.00759181 0.43529412 0.89019608 0.96078431
v -0.02533562 -0.00327822 -0.01553584 0.43529412 0.89019608 0.96078431
v -0.02543689 -0.00367697 -0.01430337 0.43529412 0.89019608 0.96078431
v -0.02548246 -0.00285927 -0.01430337 0.43529412 0.89019608 0.96078431
v -0.02531030 -0.00339936 -0.01566037 0.43529412 0.89019608 0.96078431
v -0.02559893 -0.00204157 0.00449346 0.43529412 0.89019608 0.96078431
v -0.02551284 -0.00285927 0.00612825 0.43529412 0.89019608 0.96078431
v -0.02560399 -0.00041121 0.00939782 0.43529412 0.89019608 0.96078431
v -0.02546727 -0.00367697 -0.01348598 0.43529412 0.89019608 0.96078431
v -0.02557361 -0.00041121 0.01021521 0.43529412 0.89019608 0.96078431
v -0.02515332 -0.00204157 0.01695231 0.43529412 0.89019608 0.96078431
v -0.02515839 -0.00183967 0.01695231 0.43529412 0.89019608 0.96078431
v -0.02500648 0.00204189 0.01695231 0.43529412 0.89019608 0.96078431
v 0.01142658 -0.02287783 -0.00813780 0.43529412 0.89019608 0.96078431
v 0.01245451 -0.02140395 -0.01348598 0.43529412 0.89019608 0.96078431
v 0.01217601 -0.02121214 -0.01566037 0.43529412 0.89019608 0.96078431
v 0.00833269 -0.02458895 0.00776303 0.43529412 0.89019608 0.96078431
v 0.00919351 -0.02377125 0.01695231 0.43529412 0.89019608 0.96078431
v 0.00875803 -0.02392772 0.01695231 0.43529412 0.89019608 0.96078431
v 0.00796304 -0.02421038 0.01695231 0.43529412 0.89019608 0.96078431
v 0.00628696 -0.02524008 0.01103260 0.43529412 0.89019608 0.96078431
v 0.00776049 -0.02483123 0.00531086 0.43529412 0.89019608 0.96078431
v 0.00694524 -0.02511389 0.00531086 0.43529412 0.89019608 0.96078431
v 0.00627177 -0.02526532 -0.00040770 0.43529412 0.89019608 0.96078431
v 0.00858080 -0.02441733 -0.00449466 0.43529412 0.89019608 0.96078431
v 0.00491471 -0.02452333 -0.01558693 0.43529412 0.89019608 0.96078431
v 0.00741110 -0.02373591 -0.01566037 0.43529412 0.89019608 0.96078431
v -0.02529004 -0.00367193 -0.01566037 0.43529412 0.89019608 0.96078431
v -0.02533562 -0.00409087 -0.01472803 0.43529412 0.89019608 0.96078431
v -0.02535587 -0.00415144 -0.01430337 0.43529412 0.89019608 0.96078431
v -0.02552297 -0.00285927 0.00285868 0.43529412 0.89019608 0.96078431
v -0.02551791 -0.00285927 0.00531086 0.43529412 0.89019608 0.96078431
v -0.02551284 -0.00122387 0.01021521 0.43529412 0.89019608 0.96078431
v -0.02541664 -0.00367697 0.00612825 0.43529412 0.89019608 0.96078431
v -0.02537106 -0.00260185 0.01086976 0.43529412 0.89019608 0.96078431
v -0.02504192 -0.00612503 -0.00694684 0.43529412 0.89019608 0.96078431
v -0.02534574 -0.00413125 0.00560461 0.43529412 0.89019608 0.96078431
v -0.02498622 -0.00531238 0.01021521 0.43529412 0.89019608 0.96078431
v -0.02477355 -0.00449468 0.01695231 0.43529412 0.89019608 0.96078431
v 0.01091009 -0.02225698 -0.01348598 0.43529412 0.89019608 0.96078431
v 0.00709715 -0.02450314 0.01695231 0.43529412 0.89019608 0.96078431
v 0.00285886 -0.02592655 0.01511956 0.43529412 0.89019608 0.96078431
v 0.00587681 -0.02536122 0.01103260 0.43529412 0.89019608 0.96078431
v 0.00591732 -0.02536627 0.01046107 0.43529412 0.89019608 0.96078431
v 0.00367411 -0.02601235 0.00776303 0.43529412 0.89019608 0.96078431
v 0.00449443 -0.02578017 0.00285868 0.43529412 0.89019608 0.96078431
v 0.00586668 -0.02537132 -0.00040770 0.43529412 0.89019608 0.96078431
v 0.00580592 -0.02535113 -0.00089302 0.43529412 0.89019608 0.96078431
v 0.00481850 -0.02453847 -0.01566037 0.43529412 0.89019608 0.96078431
v 0.00489952 -0.02451828 -0.01566037 0.43529412 0.89019608 0.96078431
v -0.02521409 -0.00421201 -0.01566037 0.43529412 0.89019608 0.96078431
v -0.02516852 -0.00446944 -0.01566037 0.43529412 0.89019608 0.96078431
v -0.02506218 -0.00503476 -0.01566037 0.43529412 0.89019608 0.96078431
v -0.02489508 -0.00585247 -0.01566037 0.43529412 0.89019608 0.96078431
v -0.02472291 -0.00667017 -0.01566037 0.43529412 0.89019608 0.96078431
v -0.02466215 -0.00694274 -0.01566037 0.43529412 0.89019608 0.96078431
v -0.02451530 -0.00759892 -0.01566037 0.43529412 0.89019608 0.96078431
v -0.02534068 -0.00411611 0.00612825 0.43529412 0.89019608 0.96078431
v -0.02533562 -0.00408583 0.00654014 0.43529412 0.89019608 0.96078431
v -0.02482418 -0.00694274 -0.00694684 0.43529412 0.89019608 0.96078431
v -0.02475836 -0.00694274 0.00285868 0.43529412 0.89019608 0.96078431
v -0.02496090 -0.00612503 0.00285868 0.43529412 0.89019608 0.96078431
v -0.02426718 -0.00857814 -0.01512076 0.43529412 0.89019608 0.96078431
v -0.02484444 -0.00612503 0.01021521 0.43529412 0.89019608 0.96078431
v -0.02423174 -0.00776044 0.01695231 0.43529412 0.89019608 0.96078431
v 0.00678827 -0.02459400 0.01695231 0.43529412 0.89019608 0.96078431
v 0.00392223 -0.02529560 0.01695231 0.43529412 0.89019608 0.96078431
v 0.00351208 -0.02538141 0.01695231 0.43529412 0.89019608 0.96078431
v 0.00196766 -0.02608807 0.01504294 0.43529412 0.89019608 0.96078431
v 0.00186132 -0.02623445 0.01103260 0.43529412 0.89019608 0.96078431
v 0.00612999 -0.02476056 0.01695231 0.43529412 0.89019608 0.96078431
v 0.00304622 -0.02611835 0.00776303 0.43529412 0.89019608 0.96078431
v 0.00367411 -0.02599721 0.00694564 0.43529412 0.89019608 0.96078431
v 0.00367411 -0.02590636 0.00285868 0.43529412 0.89019608 0.96078431
v 0.00367411 -0.02577512 0.00040969 0.43529412 0.89019608 0.96078431
v 0.00475268 -0.02454857 -0.01566037 0.43529412 0.89019608 0.96078431
v -0.02422667 -0.00857814 -0.01566037 0.43529412 0.89019608 0.96078431
v -0.02402919 -0.00939584 -0.01512076 0.43529412 0.89019608 0.96078431
v -0.02405957 -0.00939584 -0.01430337 0.43529412 0.89019608 0.96078431
v -0.02422667 -0.00857814 0.01021521 0.43529412 0.89019608 0.96078431
v -0.02444441 -0.00786644 0.01021521 0.43529412 0.89019608 0.96078431
v -0.02454568 -0.00745758 0.01021521 0.43529412 0.89019608 0.96078431
v -0.02466215 -0.00694274 0.01021521 0.43529412 0.89019608 0.96078431
v -0.02454062 -0.00743739 0.01071331 0.43529412 0.89019608 0.96078431
v -0.02398362 -0.00862861 0.01695231 0.43529412 0.89019608 0.96078431
v 0.00285886 -0.02546217 0.01695231 0.43529412 0.89019608 0.96078431
v 0.00164359 -0.02615369 0.01471726 0.43529412 0.89019608 0.96078431
v 0.00122330 -0.02588616 0.01593696 0.43529412 0.89019608 0.96078431
v -0.00204276 -0.02589626 0.01675435 0.43529412 0.89019608 0.96078431
v -0.00285801 -0.02595178 0.01675435 0.43529412 0.89019608 0.96078431
v -0.00243773 -0.02615369 0.01556977 0.43529412 0.89019608 0.96078431
v 0.00122330 -0.02633540 0.01103260 0.43529412 0.89019608 0.96078431
v 0.00263606 -0.02617892 0.00776303 0.43529412 0.89019608 0.96078431
v 0.00259555 -0.02617388 0.00719469 0.43529412 0.89019608 0.96078431
v 0.00196766 -0.02621930 0.00531086 0.43529412 0.89019608 0.96078431
v 0.00285886 -0.02586093 0.00040969 0.43529412 0.89019608 0.96078431
v 0.00285886 -0.02480599 -0.01566037 0.43529412 0.89019608 0.96078431
v -0.02396843 -0.00939584 -0.01566037 0.43529412 0.89019608 0.96078431
v -0.02384184 -0.00973403 -0.01566037 0.43529412 0.89019608 0.96078431
v -0.02380132 -0.00997631 -0.01512076 0.43529412 0.89019608 0.96078431
v -0.02383171 -0.01002174 -0.01430337 0.43529412 0.89019608 0.96078431
v -0.02386715 -0.00947660 0.01028226 0.43529412 0.89019608 0.96078431
v -0.02389754 -0.00936556 0.01103260 0.43529412 0.89019608 0.96078431
v -0.02421148 -0.00857814 0.01103260 0.43529412 0.89019608 0.96078431
v -0.02376588 -0.00924946 0.01695231 0.43529412 0.89019608 0.96078431
v -0.00267066 -0.02585588 0.01695231 0.43529412 0.89019608 0.96078431
v -0.00285295 -0.02586093 0.01695231 0.43529412 0.89019608 0.96078431
v -0.00367326 -0.02571455 0.01695231 0.43529412 0.89019608 0.96078431
v -0.00449358 -0.02556312 0.01695231 0.43529412 0.89019608 0.96078431
v -0.00367326 -0.02580036 0.01675435 0.43529412 0.89019608 0.96078431
v -0.00280738 -0.02610826 0.01587949 0.43529412 0.89019608 0.96078431
v -0.00249849 -0.02615369 0.01556977 0.43529412 0.89019608 0.96078431
v 0.00122330 -0.02626978 0.00531086 0.43529412 0.89019608 0.96078431
v 0.00203855 -0.02624454 0.00776303 0.43529412 0.89019608 0.96078431
v -0.00285801 -0.02632026 0.01021521 0.43529412 0.89019608 0.96078431
v -0.00040720 -0.02635054 0.00531086 0.43529412 0.89019608 0.96078431
v 0.00040805 -0.02497761 -0.01566037 0.43529412 0.89019608 0.96078431
v 0.00203855 -0.02487161 -0.01566037 0.43529412 0.89019608 0.96078431
v 0.00231705 -0.02485142 -0.01566037 0.43529412 0.89019608 0.96078431
v -0.02376588 -0.00992583 -0.01566037 0.43529412 0.89019608 0.96078431
v -0.02283416 -0.01207609 -0.01566037 0.43529412 0.89019608 0.96078431
v -0.02285948 -0.01213666 -0.01512076 0.43529412 0.89019608 0.96078431
v -0.02281897 -0.01207104 -0.00367727 0.43529412 0.89019608 0.96078431
v -0.02371524 -0.00982993 0.01005556 0.43529412 0.89019608 0.96078431
v -0.02307722 -0.01106153 0.01695231 0.43529412 0.89019608 0.96078431
v -0.02314811 -0.01089496 0.01695231 0.43529412 0.89019608 0.96078431
v -0.02341142 -0.01022364 0.01695231 0.43529412 0.89019608 0.96078431
v -0.00522274 -0.02541674 0.01695231 0.43529412 0.89019608 0.96078431
v -0.00694439 -0.02503818 0.01695231 0.43529412 0.89019608 0.96078431
v -0.00415431 -0.02617388 0.01072289 0.43529412 0.89019608 0.96078431
v -0.00367326 -0.02625464 0.01021521 0.43529412 0.89019608 0.96078431
v -0.00694439 -0.02553789 0.01103260 0.43529412 0.89019608 0.96078431
v -0.00612914 -0.02571960 0.01103260 0.43529412 0.89019608 0.96078431
v -0.00449358 -0.02484637 -0.01430337 0.43529412 0.89019608 0.96078431
v -0.00094901 -0.02494228 -0.01566037 0.43529412 0.89019608 0.96078431
v -0.00040720 -0.02496751 -0.01566037 0.43529412 0.89019608 0.96078431
v -0.00013376 -0.02497256 -0.01566037 0.43529412 0.89019608 0.96078431
v -0.02258605 -0.01248999 -0.01566037 0.43529412 0.89019608 0.96078431
v -0.02250503 -0.01266665 -0.01512076 0.43529412 0.89019608 0.96078431
v -0.02129988 -0.01478662 -0.00101116 0.43529412 0.89019608 0.96078431
v -0.02129988 -0.01479166 -0.00040770 0.43529412 0.89019608 0.96078431
v -0.02219614 -0.01327740 -0.00367727 0.43529412 0.89019608 0.96078431
v -0.02254047 -0.01266665 -0.00367727 0.43529412 0.89019608 0.96078431
v -0.02216576 -0.01319664 0.01021521 0.43529412 0.89019608 0.96078431
v -0.02149229 -0.01392854 0.01695231 0.43529412 0.89019608 0.96078431
v -0.00780521 -0.02478580 0.01695231 0.43529412 0.89019608 0.96078431
v -0.00414925 -0.02617388 0.01021521 0.43529412 0.89019608 0.96078431
v -0.00740518 -0.02536627 0.01103260 0.43529412 0.89019608 0.96078431
v -0.00741531 -0.02537132 0.01021521 0.43529412 0.89019608 0.96078431
v -0.00694439 -0.02550760 0.01021521 0.43529412 0.89019608 0.96078431
v -0.00844830 -0.02459400 0.01695231 0.43529412 0.89019608 0.96078431
v -0.00905087 -0.02374096 -0.01405113 0.43529412 0.89019608 0.96078431
v -0.00517211 -0.02462933 -0.01512076 0.43529412 0.89019608 0.96078431
v -0.00489360 -0.02465961 -0.01566037 0.43529412 0.89019608 0.96078431
v -0.00449358 -0.02479085 -0.01512076 0.43529412 0.89019608 0.96078431
v -0.00367326 -0.02479590 -0.01566037 0.43529412 0.89019608 0.96078431
v -0.02246452 -0.01266665 -0.01566037 0.43529412 0.89019608 0.96078431
v -0.02111758 -0.01453424 -0.01512076 0.43529412 0.89019608 0.96078431
v -0.02054539 -0.01565479 -0.00776423 0.43529412 0.89019608 0.96078431
v -0.02092516 -0.01511975 -0.00776423 0.43529412 0.89019608 0.96078431
v -0.01870222 -0.01787571 -0.00612944 0.43529412 0.89019608 0.96078431
v -0.02053020 -0.01562956 0.01103260 0.43529412 0.89019608 0.96078431
v -0.02138089 -0.01410015 0.01695231 0.43529412 0.89019608 0.96078431
v -0.00878756 -0.02445771 0.01695231 0.43529412 0.89019608 0.96078431
v -0.00941039 -0.02418514 0.01695231 0.43529412 0.89019608 0.96078431
v -0.00981549 -0.02396810 0.01695231 0.43529412 0.89019608 0.96078431
v -0.00908632 -0.02376115 -0.01348598 0.43529412 0.89019608 0.96078431
v -0.01266633 -0.02235793 -0.00858162 0.43529412 0.89019608 0.96078431
v -0.01150675 -0.02290307 -0.00905098 0.43529412 0.89019608 0.96078431
v -0.00939520 -0.02343811 -0.01566037 0.43529412 0.89019608 0.96078431
v -0.00916227 -0.02351887 -0.01566037 0.43529412 0.89019608 0.96078431
v -0.00871667 -0.02365515 -0.01566037 0.43529412 0.89019608 0.96078431
v -0.00694439 -0.02413972 -0.01566037 0.43529412 0.89019608 0.96078431
v -0.00512147 -0.02460409 -0.01566037 0.43529412 0.89019608 0.96078431
v -0.01391705 -0.02126262 -0.01566037 0.43529412 0.89019608 0.96078431
v -0.00449358 -0.02475047 -0.01566037 0.43529412 0.89019608 0.96078431
v -0.02110239 -0.01449386 -0.01566037 0.43529412 0.89019608 0.96078431
v -0.02083402 -0.01484214 -0.01566037 0.43529412 0.89019608 0.96078431
v -0.01964406 -0.01638164 -0.01566037 0.43529412 0.89019608 0.96078431
v -0.01868703 -0.01787067 -0.00694684 0.43529412 0.89019608 0.96078431
v -0.01659067 -0.01983416 -0.00858162 0.43529412 0.89019608 0.96078431
v -0.01819079 -0.01815838 0.01021521 0.43529412 0.89019608 0.96078431
v -0.01860094 -0.01776972 0.01021521 0.43529412 0.89019608 0.96078431
v -0.01857562 -0.01776467 0.01103260 0.43529412 0.89019608 0.96078431
v -0.02102644 -0.01450900 0.01695231 0.43529412 0.89019608 0.96078431
v -0.00997752 -0.02385705 0.01695231 0.43529412 0.89019608 0.96078431
v -0.01533488 -0.02029853 0.01593696 0.43529412 0.89019608 0.96078431
v -0.01418036 -0.02144433 0.01021521 0.43529412 0.89019608 0.96078431
v -0.01421581 -0.02144937 -0.00367727 0.43529412 0.89019608 0.96078431
v -0.01462090 -0.02118690 -0.00531205 0.43529412 0.89019608 0.96078431
v -0.01461584 -0.02118186 -0.00612944 0.43529412 0.89019608 0.96078431
v -0.01309674 -0.02208032 -0.00905737 0.43529412 0.89019608 0.96078431
v -0.01449431 -0.02112633 -0.01266858 0.43529412 0.89019608 0.96078431
v -0.01481332 -0.02076291 -0.01566037 0.43529412 0.89019608 0.96078431
v -0.01728945 -0.01894075 -0.01566037 0.43529412 0.89019608 0.96078431
v -0.01714767 -0.01908208 -0.01566037 0.43529412 0.89019608 0.96078431
v -0.01685398 -0.01934960 -0.01566037 0.43529412 0.89019608 0.96078431
v -0.01658560 -0.01957169 -0.01566037 0.43529412 0.89019608 0.96078431
v -0.01644382 -0.01968778 -0.01566037 0.43529412 0.89019608 0.96078431
v -0.01593746 -0.02004111 -0.01566037 0.43529412 0.89019608 0.96078431
v -0.01462090 -0.02118690 -0.00367727 0.43529412 0.89019608 0.96078431
v -0.01458546 -0.02114652 0.01021521 0.43529412 0.89019608 0.96078431
v -0.01641344 -0.01966759 0.01021521 0.43529412 0.89019608 0.96078431
v -0.01578555 -0.01988968 0.01593696 0.43529412 0.89019608 0.96078431
v -0.01572478 -0.01981902 0.01675435 0.43529412 0.89019608 0.96078431
v -0.01570959 -0.01979883 0.01695231 0.43529412 0.89019608 0.96078431
v -0.01481332 -0.02049539 0.01695231 0.43529412 0.89019608 0.96078431
v -0.01522348 -0.02020768 0.01695231 0.43529412 0.89019608 0.96078431
v -0.01559313 -0.01989978 0.01695231 0.43529412 0.89019608 0.96078431
v -0.01544122 -0.02037930 -0.01566037 0.43529412 0.89019608 0.96078431
f 1 2 3
f 1 3 4
f 1 4 5
f 1 5 6
f 1 6 7
f 1 7 8
f 1 8 9
f 1 9 2
f 2 10 11
f 2 11 3
f 2 9 12
f 2 12 13
f 2 13 10
f 3 11 14
f 3 14 4
f 4 14 15
f 4 15 5
f 5 15 16
f 5 16 17
f 5 17 18
f 5 18 6
f 6 18 17
f 6 17 36
f 6 36 52
f 6 52 78
f 6 78 106
f 6 106 132
f 6 132 162
f 6 162 161
f 6 161 160
f 6 160 159
f 6 159 184
f 6 184 203
f 6 203 232
f 6 232 250
f 6 250 274
f 6 274 302
f 6 302 301
f 6 301 271
f 6 271 300
f 6 300 319
f 6 319 343
f 6 343 342
f 6 342 341
f 6 341 364
f 6 364 363
f 6 363 367
f 6 367 366
f 6 366 385
f 6 385 407
f 6 407 406
f 6 406 432
f 6 432 430
f 6 430 429
f 6 429 428
f 6 428 458
f 6 458 484
f 6 484 456
f 6 456 483
f 6 483 482
f 6 482 510
f 6 510 536
f 6 536 556
f 6 556 576
f 6 576 598
f 6 598 597
f 6 597 596
f 6 596 616
f 6 616 634
f 6 634 656
f 6 656 677
f 6 677 680
f 6 680 679
f 6 679 678
f 6 678 657
f 6 657 637
f 6 637 636
f 6 636 635
f 6 635 622
f 6 622 617
f 6 617 600
f 6 600 599
f 6 599 580
f 6 580 579
f 6 579 578
f 6 578 577
f 6 577 557
f 6 557 539
f 6 539 538
f 6 538 542
f 6 542 537
f 6 537 512
f 6 512 491
f 6 491 490
f 6 490 489
f 6 489 464
f 6 464 463
f 6 463 461
f 6 461 438
f 6 438 437
f 6 437 436
f 6 436 414
f 6 414 413
f 6 413 411
f 6 411 388
f 6 388 410
f 6 410 409
f 6 409 408
f 6 408 386
f 6 386 370
f 6 370 369
f 6 369 354
f 6 354 326
f 6 326 325
f 6 325 321
f 6 321 308
f 6 308 307
f 6 307 280
f 6 280 259
f 6 259 255
f 6 255 236
f 6 236 235
f 6 235 234
f 6 234 233
f 6 233 207
f 6 207 205
f 6 205 190
f 6 190 185
f 6 185 186
f 6 186 166
f 6 166 164
f 6 164 140
f 6 140 139
f 6 139 134
f 6 134 133
f 6 133 107
f 6 107 86
f 6 86 85
f 6 85 84
f 6 84 83
f 6 83 82
f 6 82 81
f 6 81 80
f 6 80 91
f 6 91 90
f 6 90 79
f 6 79 54
f 6 54 40
f 6 40 37
f 6 37 23
f 6 23 22
f 6 22 21
f 6 21 20
f 6 20 19
f 6 19 8
f 6 8 7
f 8 19 9
f 9 20 21
f 9 21 22
f 9 22 23
f 9 23 24
f 9 24 25
f 9 25 12
f 9 19 20
f 10 26 27
f 10 27 11
f 10 13 28
f 10 28 47
f 10 47 72
f 10 72 65
f 10 65 64
f 10 64 63
f 10 63 62
f 10 62 61
f 10 61 60
f 10 60 59
f 10 59 92
f 10 92 101
f 10 101 125
f 10 125 124
f 10 124 151
f 10 151 150
f 10 150 152
f 10 152 146
f 10 146 172
f 10 172 171
f 10 171 189
f 10 189 188
f 10 188 169
f 10 169 187
f 10 187 204
f 10 204 218
f 10 218 217
f 10 217 241
f 10 241 261
f 10 261 282
f 10 282 295
f 10 295 291
f 10 291 290
f 10 290 311
f 10 311 330
f 10 330 350
f 10 350 349
f 10 349 353
f 10 353 352
f 10 352 351
f 10 351 376
f 10 376 398
f 10 398 397
f 10 397 396
f 10 396 422
f 10 422 447
f 10 447 446
f 10 446 445
f 10 445 448
f 10 448 435
f 10 435 460
f 10 460 487
f 10 487 498
f 10 498 521
f 10 521 520
f 10 520 547
f 10 547 568
f 10 568 590
f 10 590 589
f 10 589 588
f 10 588 608
f 10 608 607
f 10 607 606
f 10 606 627
f 10 627 647
f 10 647 625
f 10 625 645
f 10 645 644
f 10 644 643
f 10 643 642
f 10 642 641
f 10 641 646
f 10 646 665
f 10 665 681
f 10 681 671
f 10 671 670
f 10 670 669
f 10 669 668
f 10 668 667
f 10 667 666
f 10 666 650
f 10 650 649
f 10 649 648
f 10 648 628
f 10 628 609
f 10 609 592
f 10 592 591
f 10 591 570
f 10 570 569
f 10 569 548
f 10 548 528
f 10 528 527
f 10 527 526
f 10 526 525
f 10 525 524
f 10 524 523
f 10 523 522
f 10 522 499
f 10 499 476
f 10 476 449
f 10 449 423
f 10 423 399
f 10 399 381
f 10 381 360
f 10 360 380
f 10 380 379
f 10 379 378
f 10 378 377
f 10 377 356
f 10 356 355
f 10 355 334
f 10 334 333
f 10 333 332
f 10 332 331
f 10 331 320
f 10 320 303
f 10 303 276
f 10 276 275
f 10 275 252
f 10 252 251
f 10 251 245
f 10 245 223
f 10 223 198
f 10 198 180
f 10 180 179
f 10 179 154
f 10 154 157
f 10 157 153
f 10 153 127
f 10 127 126
f 10 126 104
f 10 104 103
f 10 103 102
f 10 102 75
f 10 75 74
f 10 74 73
f 10 73 48
f 10 48 33
f 10 33 30
f 10 30 29
f 10 29 26
f 11 27 14
f 12 25 13
f 13 25 28
f 14 27 29
f 14 29 30
f 14 30 15
f 15 31 32
f 15 32 16
f 15 30 33
f 15 33 31
f 16 32 17
f 17 32 34
f 17 34 35
f 17 35 36
f 23 37 24
f 24 38 39
f 24 39 25
f 24 37 40
f 24 40 41
f 24 41 42
f 24 42 43
f 24 43 38
f 25 39 38
f 25 38 44
f 25 44 28
f 26 29 27
f 28 44 38
f 28 38 45
f 28 45 46
f 28 46 47
f 31 33 48
f 31 48 49
f 31 49 50
f 31 50 51
f 31 51 35
f 31 35 34
f 31 34 32
f 35 51 36
f 36 51 52
f 38 43 53
f 38 53 45
f 40 54 55
f 40 55 41
f 41 56 57
f 41 57 58
f 41 58 42
f 41 55 56
f 42 58 43
f 43 59 60
f 43 60 61
f 43 61 62
f 43 62 63
f 43 63 64
f 43 64 65
f 43 65 66
f 43 66 67
f 43 67 53
f 43 58 57
f 43 57 68
f 43 68 69
f 43 69 70
f 43 70 71
f 43 71 59
f 45 53 46
f 46 53 66
f 46 66 72
f 46 72 47
f 48 73 50
f 48 50 49
f 50 73 74
f 50 74 75
f 50 75 76
f 50 76 77
f 50 77 51
f 51 77 52
f 52 77 78
f 53 67 66
f 54 79 55
f 55 80 81
f 55 81 82
f 55 82 83
f 55 83 84
f 55 84 85
f 55 85 86
f 55 86 87
f 55 87 88
f 55 88 68
f 55 68 89
f 55 89 56
f 55 79 90
f 55 90 91
f 55 91 80
f 56 89 68
f 56 68 57
f 59 71 92
f 65 72 66
f 68 93 69
f 68 88 94
f 68 94 95
f 68 95 93
f 69 93 95
f 69 95 94
f 69 94 70
f 70 94 96
f 70 96 71
f 71 96 97
f 71 97 98
f 71 98 99
f 71 99 100
f 71 100 101
f 71 101 92
f 75 102 76
f 76 102 103
f 76 103 104
f 76 104 105
f 76 105 77
f 77 105 78
f 78 105 106
f 86 107 108
f 86 108 87
f 87 109 88
f 87 108 109
f 88 109 110
f 88 110 96
f 88 96 94
f 96 110 111
f 96 111 97
f 97 112 113
f 97 113 114
f 97 114 115
f 97 115 116
f 97 116 117
f 97 117 98
f 97 111 110
f 97 110 112
f 98 118 119
f 98 119 120
f 98 120 99
f 98 117 121
f 98 121 122
f 98 122 118
f 99 120 123
f 99 123 124
f 99 124 125
f 99 125 100
f 100 125 101
f 104 126 105
f 105 127 128
f 105 128 129
f 105 129 130
f 105 130 131
f 105 131 106
f 105 126 127
f 106 131 132
f 107 133 108
f 108 133 134
f 108 134 110
f 108 110 109
f 110 134 135
f 110 135 112
f 112 135 113
f 113 136 137
f 113 137 114
f 113 135 138
f 113 138 134
f 113 134 139
f 113 139 140
f 113 140 141
f 113 141 142
f 113 142 136
f 114 137 115
f 115 137 122
f 115 122 116
f 116 121 117
f 116 122 121
f 118 143 119
f 118 122 144
f 118 144 145
f 118 145 143
f 119 123 120
f 119 143 146
f 119 146 123
f 122 147 148
f 122 148 149
f 122 149 145
f 122 145 144
f 122 137 147
f 123 150 151
f 123 151 124
f 123 146 152
f 123 152 150
f 127 153 128
f 128 154 155
f 128 155 156
f 128 156 129
f 128 153 157
f 128 157 154
f 129 156 158
f 129 158 130
f 130 158 159
f 130 159 160
f 130 160 131
f 131 160 161
f 131 161 162
f 131 162 132
f 134 138 135
f 136 142 163
f 136 163 137
f 137 163 147
f 140 164 141
f 141 165 142
f 141 164 166
f 141 166 165
f 142 165 147
f 142 147 163
f 143 145 146
f 145 149 167
f 145 167 168
f 145 168 169
f 145 169 170
f 145 170 171
f 145 171 172
f 145 172 146
f 147 165 173
f 147 173 174
f 147 174 148
f 148 174 175
f 148 175 176
f 148 176 149
f 149 177 167
f 149 176 178
f 149 178 177
f 154 179 155
f 155 179 180
f 155 180 181
f 155 181 182
f 155 182 183
f 155 183 156
f 156 183 158
f 158 183 159
f 159 183 184
f 165 185 173
f 165 166 186
f 165 186 185
f 167 177 168
f 168 177 187
f 168 187 169
f 169 188 170
f 170 188 189
f 170 189 171
f 173 185 190
f 173 190 191
f 173 191 175
f 173 175 174
f 175 191 192
f 175 192 193
f 175 193 194
f 175 194 195
f 175 195 176
f 176 195 178
f 177 178 196
f 177 196 187
f 178 195 197
f 178 197 196
f 180 198 199
f 180 199 181
f 181 183 182
f 181 199 183
f 183 199 200
f 183 200 201
f 183 201 184
f 184 201 202
f 184 202 203
f 187 196 204
f 190 205 191
f 191 205 206
f 191 206 192
f 192 206 205
f 192 205 193
f 193 207 208
f 193 208 209
f 193 209 210
f 193 210 211
f 193 211 212
f 193 212 194
f 193 205 207
f 194 213 214
f 194 214 195
f 194 212 215
f 194 215 213
f 195 214 216
f 195 216 197
f 196 217 218
f 196 218 204
f 196 197 219
f 196 219 220
f 196 220 217
f 197 216 221
f 197 221 222
f 197 222 219
f 198 223 224
f 198 224 199
f 199 224 225
f 199 225 226
f 199 226 227
f 199 227 228
f 199 228 200
f 200 228 201
f 201 228 227
f 201 227 226
f 201 226 202
f 202 229 230
f 202 230 203
f 202 226 231
f 202 231 229
f 203 230 232
f 207 233 208
f 208 233 234
f 208 234 210
f 208 210 209
f 210 234 235
f 210 235 236
f 210 236 237
f 210 237 238
f 210 238 239
f 210 239 215
f 210 215 240
f 210 240 211
f 211 240 212
f 212 240 215
f 213 222 221
f 213 221 216
f 213 216 214
f 213 215 222
f 215 239 222
f 217 220 241
f 219 222 242
f 219 242 220
f 220 242 243
f 220 243 241
f 222 239 242
f 223 244 224
f 223 245 246
f 223 246 244
f 224 244 225
f 225 244 226
f 226 244 231
f 229 247 248
f 229 248 230
f 229 231 249
f 229 249 247
f 230 248 250
f 230 250 232
f 231 251 252
f 231 252 253
f 231 253 254
f 231 254 249
f 231 244 246
f 231 246 245
f 231 245 251
f 236 255 237
f 237 256 257
f 237 257 258
f 237 258 238
f 237 255 259
f 237 259 256
f 238 258 239
f 239 258 242
f 241 260 261
f 241 243 260
f 242 258 262
f 242 262 263
f 242 263 264
f 242 264 265
f 242 265 266
f 242 266 243
f 243 266 267
f 243 267 260
f 247 249 268
f 247 268 269
f 247 269 270
f 247 270 248
f 248 270 271
f 248 271 272
f 248 272 273
f 248 273 274
f 248 274 250
f 249 254 268
f 252 275 253
f 253 276 277
f 253 277 278
f 253 278 254
f 253 275 276
f 254 278 268
f 256 259 257
f 257 279 258
f 257 259 280
f 257 280 281
f 257 281 279
f 258 279 262
f 260 267 261
f 261 267 282
f 262 283 263
f 262 279 283
f 263 284 285
f 263 285 264
f 263 283 286
f 263 286 287
f 263 287 288
f 263 288 289
f 263 289 284
f 264 290 291
f 264 291 292
f 264 292 265
f 264 285 289
f 264 289 293
f 264 293 290
f 265 292 266
f 266 292 267
f 267 292 291
f 267 291 294
f 267 294 295
f 267 295 282
f 268 278 296
f 268 296 297
f 268 297 269
f 269 297 270
f 270 297 298
f 270 298 299
f 270 299 271
f 271 299 300
f 271 301 272
f 272 301 302
f 272 302 273
f 273 302 274
f 276 303 277
f 277 304 305
f 277 305 278
f 277 303 306
f 277 306 304
f 278 305 296
f 279 281 286
f 279 286 283
f 280 307 281
f 281 307 286
f 284 289 285
f 286 307 308
f 286 308 309
f 286 309 287
f 287 309 288
f 288 309 289
f 289 309 310
f 289 310 293
f 290 293 310
f 290 310 311
f 291 295 294
f 296 305 304
f 296 304 312
f 296 312 313
f 296 313 314
f 296 314 315
f 296 315 316
f 296 316 317
f 296 317 318
f 296 318 297
f 297 318 298
f 298 318 299
f 299 318 300
f 300 318 319
f 303 320 306
f 304 306 312
f 306 320 312
f 308 321 309
f 309 322 323
f 309 323 324
f 309 324 310
f 309 321 325
f 309 325 326
f 309 326 322
f 310 324 327
f 310 327 328
f 310 328 311
f 311 328 329
f 311 329 330
f 312 320 331
f 312 331 313
f 313 331 332
f 313 332 333
f 313 333 334
f 313 334 335
f 313 335 336
f 313 336 314
f 314 337 315
f 314 336 335
f 314 335 338
f 314 338 337
f 315 337 316
f 316 339 317
f 316 337 338
f 316 338 340
f 316 340 339
f 317 339 341
f 317 341 342
f 317 342 343
f 317 343 344
f 317 344 318
f 318 344 319
f 319 344 343
f 322 326 345
f 322 345 346
f 322 346 347
f 322 347 348
f 322 348 323
f 323 349 350
f 323 350 328
f 323 328 327
f 323 327 324
f 323 348 347
f 323 347 351
f 323 351 352
f 323 352 353
f 323 353 349
f 326 354 345
f 328 350 330
f 328 330 329
f 334 355 335
f 335 355 356
f 335 356 338
f 338 356 357
f 338 357 358
f 338 358 359
f 338 359 360
f 338 360 361
f 338 361 362
f 338 362 340
f 339 363 364
f 339 364 341
f 339 340 363
f 340 362 365
f 340 365 366
f 340 366 367
f 340 367 363
f 345 354 346
f 346 368 347
f 346 354 369
f 346 369 370
f 346 370 371
f 346 371 372
f 346 372 373
f 346 373 368
f 347 368 374
f 347 374 375
f 347 375 351
f 351 375 376
f 356 377 358
f 356 358 357
f 358 377 378
f 358 378 379
f 358 379 359
f 359 379 380
f 359 380 360
f 360 381 361
f 361 381 382
f 361 382 383
f 361 383 362
f 362 383 384
f 362 384 365
f 365 385 366
f 365 384 385
f 368 373 374
f 370 386 371
f 371 386 387
f 371 387 372
f 372 387 388
f 372 388 389
f 372 389 390
f 372 390 373
f 373 391 374
f 373 390 389
f 373 389 392
f 373 392 393
f 373 393 391
f 374 391 394
f 374 394 395
f 374 395 396
f 374 396 375
f 375 396 397
f 375 397 398
f 375 398 376
f 381 399 400
f 381 400 382
f 382 400 401
f 382 401 383
f 383 402 403
f 383 403 384
f 383 401 404
f 383 404 402
f 384 403 405
f 384 405 406
f 384 406 407
f 384 407 385
f 386 408 387
f 387 408 409
f 387 409 410
f 387 410 388
f 388 411 389
f 389 411 392
f 391 393 412
f 391 412 394
f 392 411 413
f 392 413 414
f 392 414 415
f 392 415 416
f 392 416 417
f 392 417 393
f 393 417 418
f 393 418 419
f 393 419 420
f 393 420 412
f 394 412 395
f 395 421 396
f 395 412 421
f 396 421 422
f 399 423 400
f 400 423 424
f 400 424 425
f 400 425 401
f 401 425 426
f 401 426 403
f 401 403 404
f 402 404 403
f 403 426 405
f 405 426 427
f 405 427 428
f 405 428 429
f 405 429 430
f 405 430 431
f 405 431 406
f 406 431 432
f 412 420 433
f 412 433 434
f 412 434 435
f 412 435 421
f 414 436 416
f 414 416 415
f 416 436 437
f 416 437 417
f 417 437 438
f 417 438 439
f 417 439 440
f 417 440 441
f 417 441 418
f 418 441 419
f 419 441 440
f 419 440 442
f 419 442 443
f 419 443 444
f 419 444 420
f 420 444 433
f 421 445 446
f 421 446 447
f 421 447 422
f 421 435 448
f 421 448 445
f 423 449 424
f 424 450 425
f 424 449 451
f 424 451 450
f 425 450 452
f 425 452 453
f 425 453 454
f 425 454 455
f 425 455 426
f 426 455 453
f 426 453 456
f 426 456 457
f 426 457 458
f 426 458 428
f 426 428 427
f 430 432 431
f 433 444 434
f 434 444 459
f 434 459 435
f 435 459 460
f 438 461 439
f 439 462 440
f 439 461 463
f 439 463 464
f 439 464 465
f 439 465 462
f 440 462 466
f 440 466 442
f 442 467 443
f 442 466 468
f 442 468 469
f 442 469 470
f 442 470 471
f 442 471 467
f 443 467 444
f 444 467 472
f 444 472 459
f 449 473 474
f 449 474 475
f 449 475 451
f 449 476 473
f 450 477 478
f 450 478 479
f 450 479 452
f 450 451 480
f 450 480 477
f 451 475 474
f 451 474 480
f 452 479 481
f 452 481 482
f 452 482 483
f 452 483 456
f 452 456 453
f 453 455 454
f 456 484 457
f 457 484 458
f 459 472 485
f 459 485 486
f 459 486 460
f 460 486 487
f 462 465 488
f 462 488 468
f 462 468 466
f 464 489 465
f 465 489 490
f 465 490 491
f 465 491 492
f 465 492 488
f 467 471 472
f 468 488 493
f 468 493 494
f 468 494 495
f 468 495 469
f 469 495 470
f 470 495 496
f 470 496 497
f 470 497 498
f 470 498 485
f 470 485 472
f 470 472 471
f 473 476 499
f 473 499 474
f 474 499 500
f 474 500 501
f 474 501 480
f 477 480 502
f 477 502 503
f 477 503 478
f 478 504 479
f 478 503 505
f 478 505 506
f 478 506 504
f 479 504 481
f 480 507 508
f 480 508 505
f 480 505 503
f 480 503 502
f 480 501 507
f 481 504 482
f 482 504 506
f 482 506 509
f 482 509 510
f 485 511 487
f 485 487 486
f 485 498 511
f 487 511 498
f 488 492 493
f 491 512 492
f 492 512 513
f 492 513 514
f 492 514 515
f 492 515 494
f 492 494 493
f 494 515 516
f 494 516 517
f 494 517 495
f 495 517 518
f 495 518 496
f 496 518 497
f 497 519 520
f 497 520 521
f 497 521 498
f 497 518 519
f 499 522 500
f 500 522 523
f 500 523 524
f 500 524 525
f 500 525 501
f 501 525 526
f 501 526 527
f 501 527 528
f 501 528 507
f 505 508 529
f 505 529 530
f 505 530 509
f 505 509 506
f 507 531 532
f 507 532 533
f 507 533 508
f 507 528 534
f 507 534 531
f 508 533 535
f 508 535 529
f 509 530 535
f 509 535 536
f 509 536 510
f 512 537 513
f 513 538 539
f 513 539 540
f 513 540 541
f 513 541 516
f 513 516 514
f 513 537 542
f 513 542 538
f 514 516 515
f 516 541 543
f 516 543 544
f 516 544 517
f 517 544 543
f 517 543 545
f 517 545 546
f 517 546 518
f 518 546 519
f 519 546 520
f 520 546 547
f 528 548 549
f 528 549 534
f 529 535 530
f 531 534 550
f 531 550 551
f 531 551 552
f 531 552 532
f 532 552 553
f 532 553 533
f 533 553 554
f 533 554 535
f 534 549 550
f 535 554 555
f 535 555 536
f 536 555 552
f 536 552 556
f 539 557 540
f 540 558 541
f 540 557 559
f 540 559 560
f 540 560 561
f 540 561 562
f 540 562 558
f 541 558 563
f 541 563 543
f 543 563 564
f 543 564 565
f 543 565 545
f 545 565 566
f 545 566 546
f 546 566 567
f 546 567 568
f 546 568 547
f 548 569 549
f 549 569 570
f 549 570 571
f 549 571 572
f 549 572 550
f 550 572 551
f 551 572 573
f 551 573 574
f 551 574 575
f 551 575 552
f 552 555 553
f 552 575 556
f 553 555 554
f 556 575 576
f 557 577 560
f 557 560 559
f 558 562 563
f 560 577 561
f 561 577 578
f 561 578 579
f 561 579 580
f 561 580 581
f 561 581 582
f 561 582 562
f 562 582 583
f 562 583 563
f 563 584 585
f 563 585 564
f 563 583 586
f 563 586 587
f 563 587 584
f 564 585 566
f 564 566 565
f 566 584 567
f 566 585 584
f 567 584 588
f 567 588 589
f 567 589 590
f 567 590 568
f 570 591 571
f 571 591 592
f 571 592 593
f 571 593 572
f 572 593 594
f 572 594 595
f 572 595 573
f 573 595 596
f 573 596 597
f 573 597 574
f 574 597 575
f 575 597 598
f 575 598 576
f 580 599 581
f 581 599 600
f 581 600 582
f 582 601 602
f 582 602 583
f 582 600 603
f 582 603 604
f 582 604 601
f 583 602 586
f 584 587 588
f 586 602 587
f 587 602 605
f 587 605 606
f 587 606 607
f 587 607 608
f 587 608 588
f 592 609 593
f 593 609 610
f 593 610 611
f 593 611 612
f 593 612 613
f 593 613 614
f 593 614 594
f 594 614 615
f 594 615 595
f 595 615 596
f 596 615 616
f 600 617 603
f 601 618 602
f 601 604 603
f 601 603 618
f 602 618 605
f 603 619 620
f 603 620 621
f 603 621 618
f 603 617 622
f 603 622 619
f 605 618 621
f 605 621 623
f 605 623 624
f 605 624 625
f 605 625 626
f 605 626 606
f 606 626 627
f 609 628 610
f 610 628 629
f 610 629 630
f 610 630 631
f 610 631 611
f 611 631 630
f 611 630 612
f 612 632 633
f 612 633 615
f 612 615 613
f 612 630 632
f 613 615 614
f 615 633 634
f 615 634 616
f 619 622 635
f 619 635 636
f 619 636 637
f 619 637 620
f 620 638 621
f 620 637 639
f 620 639 640
f 620 640 638
f 621 638 623
f 623 641 642
f 623 642 643
f 623 643 644
f 623 644 645
f 623 645 624
f 623 638 640
f 623 640 646
f 623 646 641
f 624 645 625
f 625 647 626
f 626 647 627
f 628 648 629
f 629 648 649
f 629 649 650
f 629 650 630
f 630 650 651
f 630 651 632
f 632 652 653
f 632 653 654
f 632 654 633
f 632 651 652
f 633 654 655
f 633 655 656
f 633 656 634
f 637 657 658
f 637 658 659
f 637 659 660
f 637 660 639
f 639 660 661
f 639 661 662
f 639 662 663
f 639 663 664
f 639 664 646
f 639 646 640
f 646 664 665
f 650 666 651
f 651 666 667
f 651 667 652
f 652 667 668
f 652 668 669
f 652 669 670
f 652 670 671
f 652 671 664
f 652 664 662
f 652 662 661
f 652 661 672
f 652 672 659
f 652 659 673
f 652 673 674
f 652 674 653
f 653 655 654
f 653 674 658
f 653 658 655
f 655 658 675
f 655 675 656
f 656 675 676
f 656 676 677
f 657 678 658
f 658 674 673
f 658 673 659
f 658 678 679
f 658 679 680
f 658 680 677
f 658 677 676
f 658 676 675
f 659 672 660
f 660 672 661
f 662 664 663
f 664 671 681
f 664 681 665

