# https://github.com/mikedh/trimesh
v -0.02612512 -0.00449434 -0.02550645 0.54509804 0.71372549 0.60000000
v -0.02608620 -0.00367780 -0.02550645 0.54509804 0.71372549 0.60000000
v -0.02601809 -0.00531576 -0.02550645 0.54509804 0.71372549 0.60000000
v -0.02528830 -0.00367291 -0.01566356 0.54509804 0.71372549 0.60000000
v -0.02531263 -0.00340399 -0.01566356 0.54509804 0.71372549 0.60000000
v -0.02552183 -0.00040677 -0.01566356 0.54509804 0.71372549 0.60000000
v -0.02552183 -0.00013785 -0.01566356 0.54509804 0.71372549 0.60000000
v -0.02551697 0.00040487 -0.01566356 0.54509804 0.71372549 0.60000000
v -0.02516667 0.00530897 -0.01566356 0.54509804 0.71372549 0.60000000
v -0.02516180 0.00530897 -0.01593818 0.54509804 0.71372549 0.60000000
v -0.02504504 0.00612551 -0.01593818 0.54509804 0.71372549 0.60000000
v -0.02462176 0.00612551 -0.02550645 0.54509804 0.71372549 0.60000000
v -0.02489421 -0.00585360 -0.01566356 0.54509804 0.71372549 0.60000000
v -0.02505963 -0.00503217 -0.01566356 0.54509804 0.71372549 0.60000000
v -0.02517154 -0.00446989 -0.01566356 0.54509804 0.71372549 0.60000000
v -0.02521046 -0.00421564 -0.01566356 0.54509804 0.71372549 0.60000000
v -0.02584780 -0.00612741 -0.02550645 0.54509804 0.71372549 0.60000000
v -0.02472393 -0.00667013 -0.01566356 0.54509804 0.71372549 0.60000000
v -0.02512775 0.00558278 -0.01566356 0.54509804 0.71372549 0.60000000
v -0.02504990 0.00612551 -0.01566356 0.54509804 0.71372549 0.60000000
v -0.02481637 0.00694693 -0.01593818 0.54509804 0.71372549 0.60000000
v -0.02444661 0.00706917 -0.02492831 0.54509804 0.71372549 0.60000000
v -0.02453905 0.00662912 -0.02550645 0.54509804 0.71372549 0.60000000
v -0.02459744 0.00628197 -0.02550645 0.54509804 0.71372549 0.60000000
v -0.02537588 -0.00832765 -0.02550645 0.54509804 0.71372549 0.60000000
v -0.02466555 -0.00694394 -0.01566356 0.54509804 0.71372549 0.60000000
v -0.02497206 0.00640420 -0.01566356 0.54509804 0.71372549 0.60000000
v -0.02481637 0.00694693 -0.01566356 0.54509804 0.71372549 0.60000000
v -0.02474339 0.00716207 -0.01566356 0.54509804 0.71372549 0.60000000
v -0.02460230 0.00755811 -0.01566356 0.54509804 0.71372549 0.60000000
v -0.02396495 0.00858000 -0.02411120 0.54509804 0.71372549 0.60000000
v -0.02422768 0.00776347 -0.02492831 0.54509804 0.71372549 0.60000000
v -0.02436390 0.00724030 -0.02550645 0.54509804 0.71372549 0.60000000
v -0.02442715 0.00703494 -0.02550645 0.54509804 0.71372549 0.60000000
v -0.02451473 -0.00759912 -0.01566356 0.54509804 0.71372549 0.60000000
v -0.02454878 -0.00746222 -0.01566356 0.54509804 0.71372549 0.60000000
v -0.02523478 -0.00874325 -0.02550645 0.54509804 0.71372549 0.60000000
v -0.02396982 -0.00939843 -0.01566356 0.54509804 0.71372549 0.60000000
v -0.02422768 -0.00858190 -0.01566356 0.54509804 0.71372549 0.60000000
v -0.02442228 0.00796393 -0.01566356 0.54509804 0.71372549 0.60000000
v -0.02376548 0.00914229 -0.02329409 0.54509804 0.71372549 0.60000000
v -0.02375574 0.00911295 -0.02411120 0.54509804 0.71372549 0.60000000
v -0.02372655 0.00904939 -0.02475197 0.54509804 0.71372549 0.60000000
v -0.02406226 0.00804216 -0.02550645 0.54509804 0.71372549 0.60000000
v -0.02417416 0.00776347 -0.02550645 0.54509804 0.71372549 0.60000000
v -0.02376548 -0.00992649 -0.01566356 0.54509804 0.71372549 0.60000000
v -0.02384332 -0.00973092 -0.01566356 0.54509804 0.71372549 0.60000000
v -0.02374115 -0.01236143 -0.02550645 0.54509804 0.71372549 0.60000000
v -0.02370710 0.00949921 -0.01566356 0.54509804 0.71372549 0.60000000
v -0.02364385 0.00961167 -0.01757336 0.54509804 0.71372549 0.60000000
v -0.02358546 0.00954811 -0.02329409 0.54509804 0.71372549 0.60000000
v -0.02356600 0.00952366 -0.02411120 0.54509804 0.71372549 0.60000000
v -0.02356114 0.00935253 -0.02498612 0.54509804 0.71372549 0.60000000
v -0.02369736 0.00897604 -0.02529736 0.54509804 0.71372549 0.60000000
v -0.02384819 0.00855555 -0.02550645 0.54509804 0.71372549 0.60000000
v -0.02356600 -0.01277703 -0.02550645 0.54509804 0.71372549 0.60000000
v -0.02283622 -0.01207784 -0.01566356 0.54509804 0.71372549 0.60000000
v -0.02363412 0.00963612 -0.01566356 0.54509804 0.71372549 0.60000000
v -0.02335193 0.01021307 -0.01757336 0.54509804 0.71372549 0.60000000
v -0.02323030 0.01021307 -0.02329409 0.54509804 0.71372549 0.60000000
v -0.02320111 0.01021307 -0.02411120 0.54509804 0.71372549 0.60000000
v -0.02290919 0.01066779 -0.02475776 0.54509804 0.71372549 0.60000000
v -0.02308434 0.01029130 -0.02498901 0.54509804 0.71372549 0.60000000
v -0.02348329 0.00938187 -0.02550645 0.54509804 0.71372549 0.60000000
v -0.02333247 0.00968012 -0.02550645 0.54509804 0.71372549 0.60000000
v -0.02368277 0.00895160 -0.02550645 0.54509804 0.71372549 0.60000000
v -0.02322543 -0.01346155 -0.02550645 0.54509804 0.71372549 0.60000000
v -0.02293839 -0.01396027 -0.02550645 0.54509804 0.71372549 0.60000000
v -0.02258322 -0.01248855 -0.01566356 0.54509804 0.71372549 0.60000000
v -0.02331787 0.01021307 -0.01566356 0.54509804 0.71372549 0.60000000
v -0.02332760 0.01021307 -0.01593818 0.54509804 0.71372549 0.60000000
v -0.02196047 0.01262356 -0.01566356 0.54509804 0.71372549 0.60000000
v -0.02190695 0.01278002 -0.02002565 0.54509804 0.71372549 0.60000000
v -0.02190209 0.01277024 -0.02084180 0.54509804 0.71372549 0.60000000
v -0.02292865 0.01070201 -0.02411120 0.54509804 0.71372549 0.60000000
v -0.02269026 0.01110784 -0.02411120 0.54509804 0.71372549 0.60000000
v -0.02228157 0.01180214 -0.02411120 0.54509804 0.71372549 0.60000000
v -0.02225238 0.01174346 -0.02492831 0.54509804 0.71372549 0.60000000
v -0.02270485 0.01097582 -0.02498901 0.54509804 0.71372549 0.60000000
v -0.02288000 0.01061400 -0.02530217 0.54509804 0.71372549 0.60000000
v -0.02307461 0.01018373 -0.02550645 0.54509804 0.71372549 0.60000000
v -0.02110419 -0.01449322 -0.01566356 0.54509804 0.71372549 0.60000000
v -0.02246646 -0.01266457 -0.01566356 0.54509804 0.71372549 0.60000000
v -0.02218913 -0.01485015 -0.02550645 0.54509804 0.71372549 0.60000000
v -0.01964461 -0.01638054 -0.01566356 0.54509804 0.71372549 0.60000000
v -0.02187776 0.01276046 -0.01566356 0.54509804 0.71372549 0.60000000
v -0.02188262 0.01276046 -0.01593818 0.54509804 0.71372549 0.60000000
v -0.02149827 0.01338631 -0.02002565 0.54509804 0.71372549 0.60000000
v -0.02149340 0.01338142 -0.02084180 0.54509804 0.71372549 0.60000000
v -0.02139124 0.01327874 -0.02329409 0.54509804 0.71372549 0.60000000
v -0.02203345 0.01220796 -0.02411120 0.54509804 0.71372549 0.60000000
v -0.02199939 0.01214929 -0.02492831 0.54509804 0.71372549 0.60000000
v -0.02203345 0.01195860 -0.02550645 0.54509804 0.71372549 0.60000000
v -0.02286054 0.01058467 -0.02550645 0.54509804 0.71372549 0.60000000
v -0.02141070 -0.01570580 -0.02550645 0.54509804 0.71372549 0.60000000
v -0.01728983 -0.01894260 -0.01566356 0.54509804 0.71372549 0.60000000
v -0.02146908 0.01334231 -0.01566356 0.54509804 0.71372549 0.60000000
v -0.02147394 0.01335209 -0.01593818 0.54509804 0.71372549 0.60000000
v -0.02017006 0.01515140 -0.01675625 0.54509804 0.71372549 0.60000000
v -0.01976138 0.01570879 -0.01675625 0.54509804 0.71372549 0.60000000
v -0.01975651 0.01568923 -0.01757336 0.54509804 0.71372549 0.60000000
v -0.01964947 0.01557189 -0.02247602 0.54509804 0.71372549 0.60000000
v -0.02036953 0.01462823 -0.02329409 0.54509804 0.71372549 0.60000000
v -0.02068577 0.01422240 -0.02329409 0.54509804 0.71372549 0.60000000
v -0.02111878 0.01372857 -0.02247602 0.54509804 0.71372549 0.60000000
v -0.02109445 0.01368946 -0.02329409 0.54509804 0.71372549 0.60000000
v -0.02135718 0.01322985 -0.02411120 0.54509804 0.71372549 0.60000000
v -0.02173180 0.01266757 -0.02411120 0.54509804 0.71372549 0.60000000
v -0.02166369 0.01266757 -0.02492831 0.54509804 0.71372549 0.60000000
v -0.02129393 0.01313695 -0.02550645 0.54509804 0.71372549 0.60000000
v -0.02159071 0.01266757 -0.02550645 0.54509804 0.71372549 0.60000000
v -0.02100688 -0.01610673 -0.02550645 0.54509804 0.71372549 0.60000000
v -0.01881752 -0.01799894 -0.02200483 0.54509804 0.71372549 0.60000000
v -0.01714874 -0.01907951 -0.01566356 0.54509804 0.71372549 0.60000000
v -0.01922620 0.01619284 -0.01566356 0.54509804 0.71372549 0.60000000
v -0.01939162 0.01605105 -0.01593818 0.54509804 0.71372549 0.60000000
v -0.01898294 0.01655466 -0.01593818 0.54509804 0.71372549 0.60000000
v -0.01941108 0.01611950 -0.01675625 0.54509804 0.71372549 0.60000000
v -0.01893915 0.01651555 -0.02084180 0.54509804 0.71372549 0.60000000
v -0.01858398 0.01692626 -0.02084180 0.54509804 0.71372549 0.60000000
v -0.01963001 0.01554744 -0.02303971 0.54509804 0.71372549 0.60000000
v -0.02034521 0.01459400 -0.02411120 0.54509804 0.71372549 0.60000000
v -0.02029169 0.01452066 -0.02550645 0.54509804 0.71372549 0.60000000
v -0.02037926 0.01440331 -0.02550645 0.54509804 0.71372549 0.60000000
v -0.02102634 0.01358678 -0.02492831 0.54509804 0.71372549 0.60000000
v -0.02108959 0.01343032 -0.02550645 0.54509804 0.71372549 0.60000000
v -0.02060307 -0.01646855 -0.02550645 0.54509804 0.71372549 0.60000000
v -0.01713414 -0.01959779 -0.02247602 0.54509804 0.71372549 0.60000000
v -0.01757201 -0.01919685 -0.02247602 0.54509804 0.71372549 0.60000000
v -0.01798556 -0.01880081 -0.02204915 0.54509804 0.71372549 0.60000000
v -0.01685682 -0.01935331 -0.01566356 0.54509804 0.71372549 0.60000000
v -0.01895861 0.01652533 -0.01566356 0.54509804 0.71372549 0.60000000
v -0.01858398 0.01693604 -0.01566356 0.54509804 0.71372549 0.60000000
v -0.01860831 0.01696048 -0.01593818 0.54509804 0.71372549 0.60000000
v -0.01900240 0.01655466 -0.01675625 0.54509804 0.71372549 0.60000000
v -0.01962515 0.01530786 -0.02550645 0.54509804 0.71372549 0.60000000
v -0.01817530 0.01736142 -0.02084180 0.54509804 0.71372549 0.60000000
v -0.01988301 0.01501938 -0.02550645 0.54509804 0.71372549 0.60000000
v -0.01697845 -0.01946577 -0.02550645 0.54509804 0.71372549 0.60000000
v -0.01707576 -0.01955378 -0.02411120 0.54509804 0.71372549 0.60000000
v -0.01711468 -0.01958801 -0.02329409 0.54509804 0.71372549 0.60000000
v -0.01469665 -0.02124552 -0.02550645 0.54509804 0.71372549 0.60000000
v -0.01511993 -0.02086904 -0.02165891 0.54509804 0.71372549 0.60000000
v -0.01545563 -0.02038498 -0.01593818 0.54509804 0.71372549 0.60000000
v -0.01593729 -0.02003783 -0.01566356 0.54509804 0.71372549 0.60000000
v -0.01644814 -0.01968580 -0.01566356 0.54509804 0.71372549 0.60000000
v -0.01844776 0.01707294 -0.01566356 0.54509804 0.71372549 0.60000000
v -0.01860345 0.01696537 -0.01675625 0.54509804 0.71372549 0.60000000
v -0.01819963 0.01736631 -0.01593818 0.54509804 0.71372549 0.60000000
v -0.01951325 0.01542520 -0.02550645 0.54509804 0.71372549 0.60000000
v -0.01812665 0.01732230 -0.02165891 0.54509804 0.71372549 0.60000000
v -0.01773257 0.01776724 -0.02084180 0.54509804 0.71372549 0.60000000
v -0.01732388 0.01812906 -0.02165891 0.54509804 0.71372549 0.60000000
v -0.01773257 0.01772813 -0.02165891 0.54509804 0.71372549 0.60000000
v -0.01181156 -0.02271724 -0.02550645 0.54509804 0.71372549 0.60000000
v -0.01260946 -0.02234076 -0.02411120 0.54509804 0.71372549 0.60000000
v -0.01453610 -0.02121130 -0.02165891 0.54509804 0.71372549 0.60000000
v -0.01481341 -0.02076636 -0.01566356 0.54509804 0.71372549 0.60000000
v -0.01544103 -0.02037520 -0.01566356 0.54509804 0.71372549 0.60000000
v -0.01817530 0.01734186 -0.01566356 0.54509804 0.71372549 0.60000000
v -0.01771311 0.01777213 -0.01593818 0.54509804 0.71372549 0.60000000
v -0.01772770 0.01777213 -0.01675625 0.54509804 0.71372549 0.60000000
v -0.01727037 0.01808505 -0.02247602 0.54509804 0.71372549 0.60000000
v -0.01705630 0.01787970 -0.02550645 0.54509804 0.71372549 0.60000000
v -0.01684709 0.01853488 -0.02165891 0.54509804 0.71372549 0.60000000
v -0.01185048 -0.02272213 -0.02411120 0.54509804 0.71372549 0.60000000
v -0.00908215 -0.02372935 -0.02550645 0.54509804 0.71372549 0.60000000
v -0.00747662 -0.02458500 -0.02231125 0.54509804 0.71372549 0.60000000
v -0.01236619 -0.02214029 -0.01757336 0.54509804 0.71372549 0.60000000
v -0.01391821 -0.02126019 -0.01566356 0.54509804 0.71372549 0.60000000
v -0.01768878 0.01774768 -0.01566356 0.54509804 0.71372549 0.60000000
v -0.01546049 0.01955677 -0.01566356 0.54509804 0.71372549 0.60000000
v -0.01552861 0.01961545 -0.02042264 0.54509804 0.71372549 0.60000000
v -0.01679357 0.01849088 -0.02247602 0.54509804 0.71372549 0.60000000
v -0.01617082 0.01865223 -0.02550645 0.54509804 0.71372549 0.60000000
v -0.01664761 0.01824152 -0.02550645 0.54509804 0.71372549 0.60000000
v -0.01693466 0.01799216 -0.02550645 0.54509804 0.71372549 0.60000000
v -0.01643841 0.01887225 -0.02165891 0.54509804 0.71372549 0.60000000
v -0.01185048 -0.02238476 -0.01757336 0.54509804 0.71372549 0.60000000
v -0.00746689 -0.02458500 -0.02165891 0.54509804 0.71372549 0.60000000
v -0.00939839 -0.02344088 -0.01566356 0.54509804 0.71372549 0.60000000
v -0.00695117 -0.02441876 -0.02550645 0.54509804 0.71372549 0.60000000
v -0.00425582 -0.02489304 -0.02550645 0.54509804 0.71372549 0.60000000
v -0.00343846 -0.02501038 -0.02550645 0.54509804 0.71372549 0.60000000
v -0.00694630 -0.02468768 -0.02165891 0.54509804 0.71372549 0.60000000
v -0.01185048 -0.02233587 -0.01675625 0.54509804 0.71372549 0.60000000
v -0.01532427 0.01965945 -0.01566356 0.54509804 0.71372549 0.60000000
v -0.01552861 0.01961545 -0.02047082 0.54509804 0.71372549 0.60000000
v -0.01505181 0.01985992 -0.01566356 0.54509804 0.71372549 0.60000000
v -0.01451664 0.02030485 -0.02002565 0.54509804 0.71372549 0.60000000
v -0.01638489 0.01882825 -0.02247602 0.54509804 0.71372549 0.60000000
v -0.01576214 0.01898471 -0.02550645 0.54509804 0.71372549 0.60000000
v -0.01551401 0.01960567 -0.02101524 0.54509804 0.71372549 0.60000000
v -0.01593729 0.01924874 -0.02165891 0.54509804 0.71372549 0.60000000
v -0.01593729 0.01916562 -0.02247602 0.54509804 0.71372549 0.60000000
v -0.00449422 -0.02474636 -0.01566356 0.54509804 0.71372549 0.60000000
v -0.00489317 -0.02465835 -0.01566356 0.54509804 0.71372549 0.60000000
v -0.00512184 -0.02460456 -0.01566356 0.54509804 0.71372549 0.60000000
v -0.00694630 -0.02434053 -0.01757336 0.54509804 0.71372549 0.60000000
v -0.00871239 -0.02365601 -0.01566356 0.54509804 0.71372549 0.60000000
v -0.00915999 -0.02351911 -0.01566356 0.54509804 0.71372549 0.60000000
v -0.00204213 -0.02510328 -0.02550645 0.54509804 0.71372549 0.60000000
v -0.00204213 -0.02517663 -0.02492831 0.54509804 0.71372549 0.60000000
v -0.00285949 -0.02510817 -0.02492831 0.54509804 0.71372549 0.60000000
v -0.00285949 -0.02515218 -0.02411120 0.54509804 0.71372549 0.60000000
v -0.00367686 -0.02504461 -0.01920758 0.54509804 0.71372549 0.60000000
v -0.00449422 -0.02495171 -0.01920758 0.54509804 0.71372549 0.60000000
v -0.00449422 -0.02491749 -0.01839047 0.54509804 0.71372549 0.60000000
v -0.01450690 0.02030485 -0.02084180 0.54509804 0.71372549 0.60000000
v -0.01519291 0.01984036 -0.02078206 0.54509804 0.71372549 0.60000000
v -0.01442420 0.02027063 -0.01566356 0.54509804 0.71372549 0.60000000
v -0.01408849 0.02056889 -0.01920758 0.54509804 0.71372549 0.60000000
v -0.01410795 0.02056889 -0.02002565 0.54509804 0.71372549 0.60000000
v -0.01543130 0.01954210 -0.02247602 0.54509804 0.71372549 0.60000000
v -0.01502262 0.01984525 -0.02247602 0.54509804 0.71372549 0.60000000
v -0.01485234 0.01971812 -0.02492831 0.54509804 0.71372549 0.60000000
v -0.01509073 0.01947854 -0.02550645 0.54509804 0.71372549 0.60000000
v -0.01548482 0.01958122 -0.02165891 0.54509804 0.71372549 0.60000000
v -0.01507614 0.01987459 -0.02165891 0.54509804 0.71372549 0.60000000
v -0.00367686 -0.02479525 -0.01566356 0.54509804 0.71372549 0.60000000
v -0.00367686 -0.02501038 -0.01839047 0.54509804 0.71372549 0.60000000
v -0.00694630 -0.02414007 -0.01566356 0.54509804 0.71372549 0.60000000
v 0.00203981 -0.02532331 -0.02550645 0.54509804 0.71372549 0.60000000
v -0.00204213 -0.02520596 -0.02411120 0.54509804 0.71372549 0.60000000
v -0.00204213 -0.02509351 -0.01839047 0.54509804 0.71372549 0.60000000
v -0.00285949 -0.02505439 -0.01839047 0.54509804 0.71372549 0.60000000
v -0.01447285 0.02028530 -0.02165891 0.54509804 0.71372549 0.60000000
v -0.01409822 0.02055422 -0.02084180 0.54509804 0.71372549 0.60000000
v -0.01428797 0.02034886 -0.01566356 0.54509804 0.71372549 0.60000000
v -0.01348520 0.02094048 -0.01920758 0.54509804 0.71372549 0.60000000
v -0.01348520 0.02093559 -0.02002565 0.54509804 0.71372549 0.60000000
v -0.01443879 0.02025596 -0.02247602 0.54509804 0.71372549 0.60000000
v -0.01479882 0.01967412 -0.02550645 0.54509804 0.71372549 0.60000000
v -0.01438041 0.02021196 -0.02329409 0.54509804 0.71372549 0.60000000
v -0.01392307 0.02044665 -0.02382020 0.54509804 0.71372549 0.60000000
v -0.01430256 0.02006527 -0.02492831 0.54509804 0.71372549 0.60000000
v -0.00122963 -0.02495171 -0.01593818 0.54509804 0.71372549 0.60000000
v -0.00122963 -0.02492727 -0.01566356 0.54509804 0.71372549 0.60000000
v 0.00285718 -0.02534776 -0.02550645 0.54509804 0.71372549 0.60000000
v 0.00040509 -0.02499083 -0.01593818 0.54509804 0.71372549 0.60000000
v -0.00013495 -0.02497616 -0.01566356 0.54509804 0.71372549 0.60000000
v -0.00041227 -0.02498594 -0.01593818 0.54509804 0.71372549 0.60000000
v -0.00041227 -0.02496638 -0.01566356 0.54509804 0.71372549 0.60000000
v -0.01406417 0.02053466 -0.02165891 0.54509804 0.71372549 0.60000000
v -0.01403011 0.02051021 -0.02247602 0.54509804 0.71372549 0.60000000
v -0.01401551 0.02050043 -0.01566356 0.54509804 0.71372549 0.60000000
v -0.01299868 0.02121429 -0.01920758 0.54509804 0.71372549 0.60000000
v -0.01348520 0.02089159 -0.02084180 0.54509804 0.71372549 0.60000000
v -0.01298408 0.02120451 -0.02002565 0.54509804 0.71372549 0.60000000
v -0.01397173 0.02047599 -0.02329409 0.54509804 0.71372549 0.60000000
v -0.01446312 0.01987948 -0.02550645 0.54509804 0.71372549 0.60000000
v -0.01179209 0.02144409 -0.02550645 0.54509804 0.71372549 0.60000000
v -0.01208401 0.02128274 -0.02550645 0.54509804 0.71372549 0.60000000
v -0.01233700 0.02114095 -0.02550645 0.54509804 0.71372549 0.60000000
v -0.01386956 0.02023640 -0.02550645 0.54509804 0.71372549 0.60000000
v -0.01430256 0.01997726 -0.02550645 0.54509804 0.71372549 0.60000000
v -0.00095232 -0.02494193 -0.01566356 0.54509804 0.71372549 0.60000000
v 0.00367454 -0.02517663 -0.02550645 0.54509804 0.71372549 0.60000000
v 0.00490058 -0.02452144 -0.01566356 0.54509804 0.71372549 0.60000000
v 0.00481787 -0.02453611 -0.01566356 0.54509804 0.71372549 0.60000000
v 0.00474976 -0.02454589 -0.01566356 0.54509804 0.71372549 0.60000000
v 0.00285718 -0.02482948 -0.01593818 0.54509804 0.71372549 0.60000000
v 0.00203981 -0.02489793 -0.01593818 0.54509804 0.71372549 0.60000000
v 0.00040509 -0.02497616 -0.01566356 0.54509804 0.71372549 0.60000000
v -0.01348520 0.02084269 -0.02165891 0.54509804 0.71372549 0.60000000
v -0.01348520 0.02078891 -0.02247602 0.54509804 0.71372549 0.60000000
v -0.01085797 0.02220684 -0.01566356 0.54509804 0.71372549 0.60000000
v -0.01087256 0.02221662 -0.01593818 0.54509804 0.71372549 0.60000000
v -0.01021575 0.02258822 -0.01675625 0.54509804 0.71372549 0.60000000
v -0.01021575 0.02259311 -0.01757336 0.54509804 0.71372549 0.60000000
v -0.00971463 0.02284247 -0.01757336 0.54509804 0.71372549 0.60000000
v -0.00970490 0.02283269 -0.01839047 0.54509804 0.71372549 0.60000000
v -0.01103311 0.02182547 -0.02550645 0.54509804 0.71372549 0.60000000
v -0.00967571 0.02282291 -0.01920758 0.54509804 0.71372549 0.60000000
v -0.01021575 0.02252955 -0.02002565 0.54509804 0.71372549 0.60000000
v 0.00370373 -0.02516685 -0.02550645 0.54509804 0.71372549 0.60000000
v 0.00750836 -0.02376358 -0.01839047 0.54509804 0.71372549 0.60000000
v 0.00741105 -0.02373424 -0.01566356 0.54509804 0.71372549 0.60000000
v 0.00285718 -0.02480503 -0.01566356 0.54509804 0.71372549 0.60000000
v 0.00203981 -0.02487348 -0.01566356 0.54509804 0.71372549 0.60000000
v -0.01021575 0.02253933 -0.01566356 0.54509804 0.71372549 0.60000000
v -0.01021575 0.02255888 -0.01593818 0.54509804 0.71372549 0.60000000
v -0.00968544 0.02283758 -0.01675625 0.54509804 0.71372549 0.60000000
v -0.00930595 0.02301849 -0.01757336 0.54509804 0.71372549 0.60000000
v -0.00929622 0.02302827 -0.01839047 0.54509804 0.71372549 0.60000000
v -0.01068282 0.02197704 -0.02550645 0.54509804 0.71372549 0.60000000
v -0.00961733 0.02280824 -0.02002565 0.54509804 0.71372549 0.60000000
v -0.00926703 0.02300871 -0.01920758 0.54509804 0.71372549 0.60000000
v 0.00617528 -0.02432587 -0.02550645 0.54509804 0.71372549 0.60000000
v 0.00693912 -0.02400316 -0.02550645 0.54509804 0.71372549 0.60000000
v 0.00791704 -0.02358756 -0.01839047 0.54509804 0.71372549 0.60000000
v 0.00965880 -0.02281992 -0.01839047 0.54509804 0.71372549 0.60000000
v 0.01021344 -0.02253144 -0.01839047 0.54509804 0.71372549 0.60000000
v 0.01217413 -0.02121619 -0.01566356 0.54509804 0.71372549 0.60000000
v -0.00959787 0.02280824 -0.01566356 0.54509804 0.71372549 0.60000000
v -0.00962219 0.02281802 -0.01593818 0.54509804 0.71372549 0.60000000
v -0.00927676 0.02298915 -0.01675625 0.54509804 0.71372549 0.60000000
v -0.00858103 0.02328252 -0.01757336 0.54509804 0.71372549 0.60000000
v -0.00858103 0.02330208 -0.01839047 0.54509804 0.71372549 0.60000000
v -0.01054659 0.02203571 -0.02550645 0.54509804 0.71372549 0.60000000
v -0.00858103 0.02325807 -0.01920758 0.54509804 0.71372549 0.60000000
v -0.00920865 0.02296471 -0.02002565 0.54509804 0.71372549 0.60000000
v 0.00853492 -0.02319152 -0.02550645 0.54509804 0.71372549 0.60000000
v 0.00911875 -0.02297149 -0.02329409 0.54509804 0.71372549 0.60000000
v 0.01021344 -0.02253144 -0.01920758 0.54509804 0.71372549 0.60000000
v 0.01077294 -0.02218918 -0.01839047 0.54509804 0.71372549 0.60000000
v 0.01264606 -0.02093260 -0.01566356 0.54509804 0.71372549 0.60000000
v 0.01230549 -0.02113796 -0.01566356 0.54509804 0.71372549 0.60000000
v 0.01484029 -0.01971024 -0.02165891 0.54509804 0.71372549 0.60000000
v -0.00877077 0.02310650 -0.01566356 0.54509804 0.71372549 0.60000000
v -0.00921351 0.02296471 -0.01593818 0.54509804 0.71372549 0.60000000
v -0.00858103 0.02323851 -0.01675625 0.54509804 0.71372549 0.60000000
v -0.00776367 0.02344876 -0.01593818 0.54509804 0.71372549 0.60000000
v -0.00776367 0.02348787 -0.01675625 0.54509804 0.71372549 0.60000000
v -0.00776367 0.02352210 -0.01757336 0.54509804 0.71372549 0.60000000
v -0.00776367 0.02353677 -0.01839047 0.54509804 0.71372549 0.60000000
v -0.01042496 0.02207972 -0.02550645 0.54509804 0.71372549 0.60000000
v -0.00776367 0.02348787 -0.01920758 0.54509804 0.71372549 0.60000000
v -0.00519481 0.02380080 -0.02550645 0.54509804 0.71372549 0.60000000
v -0.00818208 0.02288647 -0.02550645 0.54509804 0.71372549 0.60000000
v 0.01119135 -0.02176380 -0.02550645 0.54509804 0.71372549 0.60000000
v 0.01068536 -0.02210606 -0.02388476 0.54509804 0.71372549 0.60000000
v 0.01225684 -0.02125041 -0.02370650 0.54509804 0.71372549 0.60000000
v 0.01227144 -0.02125530 -0.02329409 0.54509804 0.71372549 0.60000000
v 0.01569171 -0.01894260 -0.01593818 0.54509804 0.71372549 0.60000000
v 0.01567711 -0.01892793 -0.01566356 0.54509804 0.71372549 0.60000000
v 0.01511761 -0.01925064 -0.02550645 0.54509804 0.71372549 0.60000000
v 0.01527330 -0.01914796 -0.02550645 0.54509804 0.71372549 0.60000000
v 0.01565279 -0.01889371 -0.02550645 0.54509804 0.71372549 0.60000000
v 0.01665503 -0.01819452 -0.02411120 0.54509804 0.71372549 0.60000000
v 0.01706371 -0.01787182 -0.02411120 0.54509804 0.71372549 0.60000000
v -0.00858103 0.02317006 -0.01566356 0.54509804 0.71372549 0.60000000
v -0.00858103 0.02318962 -0.01593818 0.54509804 0.71372549 0.60000000
v -0.00803612 0.02334119 -0.01566356 0.54509804 0.71372549 0.60000000
v -0.00776367 0.02342431 -0.01566356 0.54509804 0.71372549 0.60000000
v -0.00449422 0.02427507 -0.01566356 0.54509804 0.71372549 0.60000000
v -0.00449422 0.02428974 -0.01593818 0.54509804 0.71372549 0.60000000
v -0.00449422 0.02432886 -0.01675625 0.54509804 0.71372549 0.60000000
v -0.00724795 0.02367367 -0.01839047 0.54509804 0.71372549 0.60000000
v -0.00683927 0.02378124 -0.01839047 0.54509804 0.71372549 0.60000000
v -0.00676629 0.02376168 -0.01920758 0.54509804 0.71372549 0.60000000
v -0.00449422 0.02398660 -0.02550645 0.54509804 0.71372549 0.60000000
v 0.01172166 -0.02143621 -0.02550645 0.54509804 0.71372549 0.60000000
v 0.01859140 -0.01615563 -0.01757336 0.54509804 0.71372549 0.60000000
v 0.01856707 -0.01612629 -0.01675625 0.54509804 0.71372549 0.60000000
v 0.01773025 -0.01690371 -0.01593818 0.54509804 0.71372549 0.60000000
v 0.01756970 -0.01702106 -0.01566356 0.54509804 0.71372549 0.60000000
v 0.01622689 -0.01844877 -0.02550645 0.54509804 0.71372549 0.60000000
v 0.01702965 -0.01785715 -0.02492831 0.54509804 0.71372549 0.60000000
v 0.01859626 -0.01608718 -0.02411120 0.54509804 0.71372549 0.60000000
v 0.01899035 -0.01574491 -0.01757336 0.54509804 0.71372549 0.60000000
v -0.00395904 0.02437286 -0.01566356 0.54509804 0.71372549 0.60000000
v -0.00363307 0.02445598 -0.01599696 0.54509804 0.71372549 0.60000000
v -0.00374497 0.02448532 -0.01675625 0.54509804 0.71372549 0.60000000
v -0.00449422 0.02432397 -0.01757336 0.54509804 0.71372549 0.60000000
v -0.00612894 0.02395726 -0.01839047 0.54509804 0.71372549 0.60000000
v -0.00612894 0.02392792 -0.01920758 0.54509804 0.71372549 0.60000000
v -0.00449422 0.02401593 -0.02492831 0.54509804 0.71372549 0.60000000
v -0.00391525 0.02407949 -0.02550645 0.54509804 0.71372549 0.60000000
v 0.01896602 -0.01571558 -0.01675625 0.54509804 0.71372549 0.60000000
v 0.01853788 -0.01608229 -0.01593818 0.54509804 0.71372549 0.60000000
v 0.01864978 -0.01592093 -0.01566356 0.54509804 0.71372549 0.60000000
v 0.01657232 -0.01815540 -0.02550645 0.54509804 0.71372549 0.60000000
v 0.01698100 -0.01780825 -0.02550645 0.54509804 0.71372549 0.60000000
v 0.01735076 -0.01739754 -0.02550645 0.54509804 0.71372549 0.60000000
v 0.01883953 -0.01558356 -0.02550645 0.54509804 0.71372549 0.60000000
v 0.02139865 -0.01242988 -0.02550645 0.54509804 0.71372549 0.60000000
v 0.02191923 -0.01176003 -0.02550645 0.54509804 0.71372549 0.60000000
v 0.02046452 -0.01393094 -0.01593818 0.54509804 0.71372549 0.60000000
v 0.02046452 -0.01393583 -0.01566356 0.54509804 0.71372549 0.60000000
v 0.02023099 -0.01420474 -0.01566356 0.54509804 0.71372549 0.60000000
v -0.00364766 0.02440709 -0.01566356 0.54509804 0.71372549 0.60000000
v -0.00333142 0.02452443 -0.01630723 0.54509804 0.71372549 0.60000000
v -0.00333629 0.02452443 -0.01675625 0.54509804 0.71372549 0.60000000
v -0.00329737 0.02451954 -0.01721202 0.54509804 0.71372549 0.60000000
v -0.00309789 0.02418706 -0.02550645 0.54509804 0.71372549 0.60000000
v -0.00367686 0.02411372 -0.02550645 0.54509804 0.71372549 0.60000000
v -0.00531158 0.02412839 -0.01839047 0.54509804 0.71372549 0.60000000
v 0.01970554 -0.01481592 -0.01593818 0.54509804 0.71372549 0.60000000
v 0.01934065 -0.01522175 -0.01593818 0.54509804 0.71372549 0.60000000
v 0.01893197 -0.01567157 -0.01593818 0.54509804 0.71372549 0.60000000
v 0.01945255 -0.01507017 -0.01566356 0.54509804 0.71372549 0.60000000
v 0.02210897 -0.01150089 -0.02550645 0.54509804 0.71372549 0.60000000
v 0.02211384 -0.01150578 -0.02509115 0.54509804 0.71372549 0.60000000
v 0.02075644 -0.01348600 -0.01566356 0.54509804 0.71372549 0.60000000
v -0.00285949 0.02446576 -0.01566356 0.54509804 0.71372549 0.60000000
v -0.00191077 0.02453421 -0.01566356 0.54509804 0.71372549 0.60000000
v -0.00122963 0.02455377 -0.01566356 0.54509804 0.71372549 0.60000000
v -0.00041227 0.02457333 -0.01566356 0.54509804 0.71372549 0.60000000
v -0.00041227 0.02460266 -0.01920758 0.54509804 0.71372549 0.60000000
v -0.00204213 0.02427996 -0.02550645 0.54509804 0.71372549 0.60000000
v -0.00228053 0.02426529 -0.02550645 0.54509804 0.71372549 0.60000000
v 0.02219168 -0.01120263 -0.02550645 0.54509804 0.71372549 0.60000000
v 0.02295066 -0.00995094 -0.02229101 0.54509804 0.71372549 0.60000000
v 0.02295066 -0.00994605 -0.02165891 0.54509804 0.71372549 0.60000000
v 0.02271713 -0.01035676 -0.02165891 0.54509804 0.71372549 0.60000000
v 0.02235710 -0.01100217 -0.02247602 0.54509804 0.71372549 0.60000000
v 0.02113592 -0.01286504 -0.01566356 0.54509804 0.71372549 0.60000000
v 0.00040509 0.02456844 -0.01566356 0.54509804 0.71372549 0.60000000
v 0.00040509 0.02459288 -0.01920758 0.54509804 0.71372549 0.60000000
v -0.00122963 0.02429952 -0.02550645 0.54509804 0.71372549 0.60000000
v 0.02223061 -0.01105106 -0.02550645 0.54509804 0.71372549 0.60000000
v 0.02311121 -0.00858190 -0.02002565 0.54509804 0.71372549 0.60000000
v 0.02312095 -0.00858190 -0.01920758 0.54509804 0.71372549 0.60000000
v 0.02324258 -0.00776048 -0.01566356 0.54509804 0.71372549 0.60000000
v 0.02351990 -0.00039210 -0.02550645 0.54509804 0.71372549 0.60000000
v 0.02309662 -0.00858190 -0.01566356 0.54509804 0.71372549 0.60000000
v 0.02304310 -0.00876281 -0.01566356 0.54509804 0.71372549 0.60000000
v 0.02293120 -0.00911974 -0.01566356 0.54509804 0.71372549 0.60000000
v 0.02282903 -0.00939354 -0.01566356 0.54509804 0.71372549 0.60000000
v 0.02277065 -0.00953045 -0.01566356 0.54509804 0.71372549 0.60000000
v 0.02243981 -0.01021497 -0.01566356 0.54509804 0.71372549 0.60000000
v 0.02134999 -0.01245433 -0.01566356 0.54509804 0.71372549 0.60000000
v 0.00073593 0.02455377 -0.01566356 0.54509804 0.71372549 0.60000000
v 0.00093054 0.02453910 -0.01566356 0.54509804 0.71372549 0.60000000
v 0.00088675 0.02453910 -0.01839047 0.54509804 0.71372549 0.60000000
v 0.00089648 0.02453421 -0.01920758 0.54509804 0.71372549 0.60000000
v 0.00086242 0.02452443 -0.01966046 0.54509804 0.71372549 0.60000000
v -0.00041227 0.02424574 -0.02550645 0.54509804 0.71372549 0.60000000
v 0.02322312 -0.00776048 -0.01675625 0.54509804 0.71372549 0.60000000
v 0.02355395 0.00024841 -0.02550645 0.54509804 0.71372549 0.60000000
v 0.02345665 -0.00285638 -0.01839047 0.54509804 0.71372549 0.60000000
v 0.02346638 0.00040487 -0.01566356 0.54509804 0.71372549 0.60000000
v 0.00530926 0.02388392 -0.01566356 0.54509804 0.71372549 0.60000000
v 0.00429243 0.02376657 -0.02550645 0.54509804 0.71372549 0.60000000
v 0.00367454 0.02383502 -0.02550645 0.54509804 0.71372549 0.60000000
v 0.02355882 0.00040487 -0.02550645 0.54509804 0.71372549 0.60000000
v 0.02351503 -0.00040677 -0.02165891 0.54509804 0.71372549 0.60000000
v 0.02357828 0.00285937 -0.02492831 0.54509804 0.71372549 0.60000000
v 0.02356855 0.00285937 -0.02411120 0.54509804 0.71372549 0.60000000
v 0.02343719 0.00285937 -0.01675625 0.54509804 0.71372549 0.60000000
v 0.02339827 0.00285937 -0.01593818 0.54509804 0.71372549 0.60000000
v 0.02338367 0.00285937 -0.01566356 0.54509804 0.71372549 0.60000000
v 0.00588336 0.02375679 -0.01566356 0.54509804 0.71372549 0.60000000
v 0.00612662 0.02318962 -0.02550645 0.54509804 0.71372549 0.60000000
v 0.02348097 0.00285937 -0.02550645 0.54509804 0.71372549 0.60000000
v 0.02342746 0.00367590 -0.02492831 0.54509804 0.71372549 0.60000000
v 0.02326204 0.00367590 -0.01566356 0.54509804 0.71372549 0.60000000
v 0.00675911 0.02347321 -0.01566356 0.54509804 0.71372549 0.60000000
v 0.00659369 0.02303805 -0.02550645 0.54509804 0.71372549 0.60000000
v 0.02330583 0.00367590 -0.02550645 0.54509804 0.71372549 0.60000000
v 0.02290688 0.00552900 -0.02550645 0.54509804 0.71372549 0.60000000
v 0.02288255 0.00571968 -0.02534361 0.54509804 0.71372549 0.60000000
v 0.02219168 0.00842354 -0.02247602 0.54509804 0.71372549 0.60000000
v 0.02242522 0.00776347 -0.01566356 0.54509804 0.71372549 0.60000000
v 0.02249333 0.00748477 -0.01566356 0.54509804 0.71372549 0.60000000
v 0.02262469 0.00692248 -0.01566356 0.54509804 0.71372549 0.60000000
v 0.02279011 0.00612551 -0.01566356 0.54509804 0.71372549 0.60000000
v 0.00748890 0.02321896 -0.01566356 0.54509804 0.71372549 0.60000000
v 0.00678830 0.02297449 -0.02550645 0.54509804 0.71372549 0.60000000
v 0.02281930 0.00588593 -0.02550645 0.54509804 0.71372549 0.60000000
v 0.02224520 0.00776347 -0.02550645 0.54509804 0.71372549 0.60000000
v 0.02228899 0.00822796 -0.01566356 0.54509804 0.71372549 0.60000000
v 0.02209438 0.00823774 -0.02550645 0.54509804 0.71372549 0.60000000
v 0.02107754 0.01102961 -0.02492831 0.54509804 0.71372549 0.60000000
v 0.02122837 0.01151855 -0.01566356 0.54509804 0.71372549 0.60000000
v 0.02126729 0.01141098 -0.01566356 0.54509804 0.71372549 0.60000000
v 0.00776135 0.02311139 -0.01566356 0.54509804 0.71372549 0.60000000
v 0.00776135 0.02310161 -0.01593818 0.54509804 0.71372549 0.60000000
v 0.00820409 0.02289625 -0.01675625 0.54509804 0.71372549 0.60000000
v 0.00776135 0.02306738 -0.01675625 0.54509804 0.71372549 0.60000000
v 0.01002369 0.02182058 -0.02550645 0.54509804 0.71372549 0.60000000
v 0.02101916 0.01102961 -0.02550645 0.54509804 0.71372549 0.60000000
v 0.02069805 0.01176791 -0.02492831 0.54509804 0.71372549 0.60000000
v 0.01932119 0.01430064 -0.02084180 0.54509804 0.71372549 0.60000000
v 0.01894656 0.01490204 -0.02084180 0.54509804 0.71372549 0.60000000
v 0.02103862 0.01182169 -0.01566356 0.54509804 0.71372549 0.60000000
v 0.00807759 0.02298426 -0.01566356 0.54509804 0.71372549 0.60000000
v 0.00817976 0.02288647 -0.01720720 0.54509804 0.71372549 0.60000000
v 0.00823328 0.02291092 -0.01593818 0.54509804 0.71372549 0.60000000
v 0.01021344 0.02174235 -0.02550645 0.54509804 0.71372549 0.60000000
v 0.02065913 0.01172390 -0.02550645 0.54509804 0.71372549 0.60000000
v 0.01899035 0.01418818 -0.02550645 0.54509804 0.71372549 0.60000000
v 0.02061048 0.01249155 -0.01566356 0.54509804 0.71372549 0.60000000
v 0.01890764 0.01430552 -0.02550645 0.54509804 0.71372549 0.60000000
v 0.01870330 0.01459400 -0.02550645 0.54509804 0.71372549 0.60000000
v 0.01841625 0.01493626 -0.02550645 0.54509804 0.71372549 0.60000000
v 0.01860113 0.01531275 -0.02084180 0.54509804 0.71372549 0.60000000
v 0.01783242 0.01614884 -0.01566356 0.54509804 0.71372549 0.60000000
v 0.01894656 0.01488248 -0.02002565 0.54509804 0.71372549 0.60000000
v 0.00823814 0.02291581 -0.01566356 0.54509804 0.71372549 0.60000000
v 0.01070483 0.02151254 -0.02550645 0.54509804 0.71372549 0.60000000
v 0.01888818 0.01482380 -0.01566356 0.54509804 0.71372549 0.60000000
v 0.01829462 0.01507805 -0.02550645 0.54509804 0.71372549 0.60000000
v 0.01794432 0.01548388 -0.02550645 0.54509804 0.71372549 0.60000000
v 0.01728751 0.01623685 -0.02550645 0.54509804 0.71372549 0.60000000
v 0.01706371 0.01648132 -0.02550645 0.54509804 0.71372549 0.60000000
v 0.01819245 0.01573813 -0.02084180 0.54509804 0.71372549 0.60000000
v 0.01755996 0.01647154 -0.01566356 0.54509804 0.71372549 0.60000000
v 0.00864683 0.02271534 -0.01566356 0.54509804 0.71372549 0.60000000
v 0.00864196 0.02271534 -0.01593818 0.54509804 0.71372549 0.60000000
v 0.01150759 0.02128274 -0.01566356 0.54509804 0.71372549 0.60000000
v 0.01089457 0.02141476 -0.02550645 0.54509804 0.71372549 0.60000000
v 0.00939607 0.02233886 -0.01593818 0.54509804 0.71372549 0.60000000
v 0.01624148 0.01726852 -0.02550645 0.54509804 0.71372549 0.60000000
v 0.01479650 0.01887714 -0.02411120 0.54509804 0.71372549 0.60000000
v 0.01485975 0.01893581 -0.02329409 0.54509804 0.71372549 0.60000000
v 0.01526843 0.01852510 -0.02329409 0.54509804 0.71372549 0.60000000
v 0.01607120 0.01770368 -0.02329409 0.54509804 0.71372549 0.60000000
v 0.01737509 0.01656933 -0.02084180 0.54509804 0.71372549 0.60000000
v 0.01696640 0.01697515 -0.02084180 0.54509804 0.71372549 0.60000000
v 0.01742374 0.01660356 -0.01566356 0.54509804 0.71372549 0.60000000
v 0.01000423 0.02203571 -0.01566356 0.54509804 0.71372549 0.60000000
v 0.01268498 0.02064712 -0.01566356 0.54509804 0.71372549 0.60000000
v 0.01101620 0.02134141 -0.02550645 0.54509804 0.71372549 0.60000000
v 0.01299149 0.02048088 -0.01566356 0.54509804 0.71372549 0.60000000
v 0.01596903 0.01752766 -0.02550645 0.54509804 0.71372549 0.60000000
v 0.01510301 0.01834419 -0.02550645 0.54509804 0.71372549 0.60000000
v 0.01464568 0.01874513 -0.02550645 0.54509804 0.71372549 0.60000000
v 0.01387697 0.01960078 -0.02442725 0.54509804 0.71372549 0.60000000
v 0.01423700 0.01934653 -0.02413722 0.54509804 0.71372549 0.60000000
v 0.01392562 0.01963500 -0.02388283 0.54509804 0.71372549 0.60000000
v 0.01432457 0.01934653 -0.02329409 0.54509804 0.71372549 0.60000000
v 0.01318124 0.02034397 -0.01566356 0.54509804 0.71372549 0.60000000
v 0.01486462 0.01893581 -0.02247602 0.54509804 0.71372549 0.60000000
v 0.01699560 0.01701427 -0.01566356 0.54509804 0.71372549 0.60000000
v 0.01130325 0.02115562 -0.02550645 0.54509804 0.71372549 0.60000000
v 0.01410077 0.01919007 -0.02550645 0.54509804 0.71372549 0.60000000
v 0.01380399 0.01954699 -0.02492831 0.54509804 0.71372549 0.60000000
v 0.01342937 0.01970345 -0.02550645 0.54509804 0.71372549 0.60000000
v 0.01242713 0.02039775 -0.02550645 0.54509804 0.71372549 0.60000000
v 0.01672314 0.01725385 -0.01566356 0.54509804 0.71372549 0.60000000
f 1 2 12
f 1 12 24
f 1 24 23
f 1 23 34
f 1 34 33
f 1 33 45
f 1 45 44
f 1 44 55
f 1 55 66
f 1 66 64
f 1 64 65
f 1 65 81
f 1 81 94
f 1 94 93
f 1 93 111
f 1 111 110
f 1 110 126
f 1 126 124
f 1 124 123
f 1 123 138
f 1 138 136
f 1 136 150
f 1 150 164
f 1 164 177
f 1 177 176
f 1 176 175
f 1 175 192
f 1 192 217
f 1 217 233
f 1 233 251
f 1 251 256
f 1 256 255
f 1 255 254
f 1 254 253
f 1 253 252
f 1 252 273
f 1 273 286
f 1 286 300
f 1 300 317
f 1 317 320
f 1 320 319
f 1 319 342
f 1 342 359
f 1 359 377
f 1 377 376
f 1 376 392
f 1 392 391
f 1 391 401
f 1 401 419
f 1 419 426
f 1 426 425
f 1 425 435
f 1 435 440
f 1 440 450
f 1 450 462
f 1 462 471
f 1 471 482
f 1 482 493
f 1 493 505
f 1 505 517
f 1 517 521
f 1 521 520
f 1 520 518
f 1 518 509
f 1 509 508
f 1 508 507
f 1 507 495
f 1 495 487
f 1 487 486
f 1 486 485
f 1 485 484
f 1 484 477
f 1 477 476
f 1 476 475
f 1 475 473
f 1 473 472
f 1 472 463
f 1 463 454
f 1 454 452
f 1 452 451
f 1 451 442
f 1 442 441
f 1 441 436
f 1 436 427
f 1 427 421
f 1 421 406
f 1 406 402
f 1 402 393
f 1 393 383
f 1 383 368
f 1 368 367
f 1 367 366
f 1 366 365
f 1 365 364
f 1 364 363
f 1 363 348
f 1 348 329
f 1 329 328
f 1 328 327
f 1 327 343
f 1 343 321
f 1 321 303
f 1 303 290
f 1 290 289
f 1 289 276
f 1 276 258
f 1 258 239
f 1 239 223
f 1 223 202
f 1 202 184
f 1 184 183
f 1 183 182
f 1 182 167
f 1 167 155
f 1 155 142
f 1 142 139
f 1 139 127
f 1 127 112
f 1 112 95
f 1 95 84
f 1 84 68
f 1 68 67
f 1 67 56
f 1 56 48
f 1 48 37
f 1 37 25
f 1 25 17
f 1 17 3
f 1 3 4
f 1 4 5
f 1 5 6
f 1 6 7
f 1 7 8
f 1 8 2
f 2 8 9
f 2 9 10
f 2 10 11
f 2 11 12
f 3 13 14
f 3 14 15
f 3 15 16
f 3 16 4
f 3 17 18
f 3 18 13
f 4 16 15
f 4 15 14
f 4 14 13
f 4 13 18
f 4 18 26
f 4 26 36
f 4 36 35
f 4 35 39
f 4 39 38
f 4 38 47
f 4 47 46
f 4 46 57
f 4 57 69
f 4 69 83
f 4 83 82
f 4 82 85
f 4 85 96
f 4 96 114
f 4 114 131
f 4 131 146
f 4 146 145
f 4 145 159
f 4 159 158
f 4 158 170
f 4 170 181
f 4 181 201
f 4 201 200
f 4 200 222
f 4 222 198
f 4 198 197
f 4 197 196
f 4 196 220
f 4 220 238
f 4 238 257
f 4 257 243
f 4 243 241
f 4 241 264
f 4 264 280
f 4 280 279
f 4 279 261
f 4 261 260
f 4 260 259
f 4 259 278
f 4 278 294
f 4 294 308
f 4 308 307
f 4 307 326
f 4 326 347
f 4 347 362
f 4 362 382
f 4 382 371
f 4 371 370
f 4 370 385
f 4 385 398
f 4 398 413
f 4 413 412
f 4 412 411
f 4 411 410
f 4 410 409
f 4 409 408
f 4 408 407
f 4 407 405
f 4 405 423
f 4 423 433
f 4 433 438
f 4 438 448
f 4 448 447
f 4 447 446
f 4 446 445
f 4 445 453
f 4 453 457
f 4 457 456
f 4 456 467
f 4 467 474
f 4 474 483
f 4 483 479
f 4 479 489
f 4 489 502
f 4 502 516
f 4 516 522
f 4 522 514
f 4 514 506
f 4 506 504
f 4 504 492
f 4 492 503
f 4 503 490
f 4 490 481
f 4 481 468
f 4 468 458
f 4 458 449
f 4 449 439
f 4 439 434
f 4 434 424
f 4 424 415
f 4 415 414
f 4 414 399
f 4 399 389
f 4 389 388
f 4 388 387
f 4 387 386
f 4 386 372
f 4 372 352
f 4 352 336
f 4 336 335
f 4 335 334
f 4 334 332
f 4 332 310
f 4 310 295
f 4 295 281
f 4 281 267
f 4 267 246
f 4 246 229
f 4 229 211
f 4 211 189
f 4 189 187
f 4 187 172
f 4 172 171
f 4 171 160
f 4 160 147
f 4 147 133
f 4 133 132
f 4 132 115
f 4 115 97
f 4 97 86
f 4 86 72
f 4 72 70
f 4 70 58
f 4 58 49
f 4 49 40
f 4 40 30
f 4 30 29
f 4 29 28
f 4 28 27
f 4 27 20
f 4 20 19
f 4 19 9
f 4 9 8
f 4 8 7
f 4 7 6
f 4 6 5
f 9 19 10
f 10 19 11
f 11 19 20
f 11 20 21
f 11 21 22
f 11 22 23
f 11 23 24
f 11 24 12
f 17 25 26
f 17 26 18
f 20 27 21
f 21 27 28
f 21 28 29
f 21 29 30
f 21 30 31
f 21 31 32
f 21 32 22
f 22 32 33
f 22 33 34
f 22 34 23
f 25 35 36
f 25 36 26
f 25 37 38
f 25 38 39
f 25 39 35
f 30 40 51
f 30 51 41
f 30 41 42
f 30 42 31
f 31 42 32
f 32 42 43
f 32 43 44
f 32 44 45
f 32 45 33
f 37 46 47
f 37 47 38
f 37 48 46
f 40 49 50
f 40 50 51
f 41 51 42
f 42 51 52
f 42 52 43
f 43 52 53
f 43 53 54
f 43 54 44
f 44 54 55
f 46 48 56
f 46 56 57
f 49 58 59
f 49 59 50
f 50 59 51
f 51 59 60
f 51 60 61
f 51 61 52
f 52 61 62
f 52 62 63
f 52 63 53
f 53 64 54
f 53 63 65
f 53 65 64
f 54 64 66
f 54 66 55
f 56 67 57
f 57 67 68
f 57 68 69
f 58 70 71
f 58 71 59
f 59 71 72
f 59 72 73
f 59 73 74
f 59 74 60
f 60 74 61
f 61 74 75
f 61 75 62
f 62 75 76
f 62 76 77
f 62 77 78
f 62 78 79
f 62 79 80
f 62 80 63
f 63 80 65
f 65 80 81
f 68 82 83
f 68 83 69
f 68 84 85
f 68 85 82
f 70 72 71
f 72 86 87
f 72 87 73
f 73 87 88
f 73 88 89
f 73 89 74
f 74 89 90
f 74 90 91
f 74 91 77
f 74 77 76
f 74 76 75
f 77 91 78
f 78 80 79
f 78 91 92
f 78 92 93
f 78 93 80
f 80 94 81
f 80 93 94
f 84 95 85
f 85 95 96
f 86 97 98
f 86 98 87
f 87 98 88
f 88 98 99
f 88 99 100
f 88 100 89
f 89 100 101
f 89 101 102
f 89 102 103
f 89 103 104
f 89 104 105
f 89 105 106
f 89 106 90
f 90 107 108
f 90 108 91
f 90 106 107
f 91 108 109
f 91 109 92
f 92 109 110
f 92 110 111
f 92 111 93
f 95 112 113
f 95 113 96
f 96 113 114
f 97 115 116
f 97 116 100
f 97 100 98
f 98 100 99
f 100 116 117
f 100 117 118
f 100 118 101
f 101 118 119
f 101 119 102
f 102 119 120
f 102 120 121
f 102 121 122
f 102 122 103
f 103 122 104
f 104 106 105
f 104 122 106
f 106 122 123
f 106 123 124
f 106 124 125
f 106 125 126
f 106 126 107
f 107 126 110
f 107 110 109
f 107 109 108
f 112 127 128
f 112 128 129
f 112 129 130
f 112 130 113
f 113 130 114
f 114 130 131
f 115 132 116
f 116 132 117
f 117 132 133
f 117 133 134
f 117 134 118
f 118 134 135
f 118 135 137
f 118 137 120
f 118 120 119
f 120 136 121
f 120 137 136
f 121 136 138
f 121 138 122
f 122 138 123
f 124 126 125
f 127 139 140
f 127 140 141
f 127 141 128
f 128 141 142
f 128 142 143
f 128 143 144
f 128 144 145
f 128 145 146
f 128 146 131
f 128 131 130
f 128 130 129
f 133 147 134
f 134 148 135
f 134 147 149
f 134 149 148
f 135 148 137
f 136 137 151
f 136 151 150
f 137 149 152
f 137 152 153
f 137 153 154
f 137 154 151
f 137 148 149
f 139 142 140
f 140 142 141
f 142 155 156
f 142 156 157
f 142 157 143
f 143 157 158
f 143 158 144
f 144 159 145
f 144 158 159
f 147 160 149
f 149 160 171
f 149 171 161
f 149 161 162
f 149 162 153
f 149 153 152
f 150 151 154
f 150 154 163
f 150 163 164
f 153 163 154
f 153 162 165
f 153 165 174
f 153 174 163
f 155 166 156
f 155 167 168
f 155 168 166
f 156 166 169
f 156 169 170
f 156 170 157
f 157 170 158
f 161 171 172
f 161 172 173
f 161 173 162
f 162 173 165
f 163 174 175
f 163 175 176
f 163 176 177
f 163 177 164
f 165 173 178
f 165 178 191
f 165 191 174
f 166 179 169
f 166 168 180
f 166 180 181
f 166 181 179
f 167 182 168
f 168 182 183
f 168 183 184
f 168 184 185
f 168 185 180
f 169 179 181
f 169 181 186
f 169 186 170
f 170 186 181
f 172 187 173
f 173 188 178
f 173 187 189
f 173 189 190
f 173 190 188
f 174 191 175
f 175 191 192
f 178 188 193
f 178 193 194
f 178 194 195
f 178 195 191
f 180 185 196
f 180 196 197
f 180 197 198
f 180 198 199
f 180 199 200
f 180 200 201
f 180 201 181
f 184 202 203
f 184 203 204
f 184 204 205
f 184 205 185
f 185 205 206
f 185 206 207
f 185 207 208
f 185 208 196
f 188 190 209
f 188 209 210
f 188 210 193
f 189 211 212
f 189 212 190
f 190 212 213
f 190 213 209
f 191 195 192
f 192 195 214
f 192 214 215
f 192 215 216
f 192 216 217
f 193 218 194
f 193 210 219
f 193 219 218
f 194 218 215
f 194 215 214
f 194 214 195
f 196 208 221
f 196 221 220
f 198 222 199
f 199 222 200
f 202 223 203
f 203 223 224
f 203 224 205
f 203 205 204
f 205 224 206
f 206 224 225
f 206 225 226
f 206 226 221
f 206 221 208
f 206 208 207
f 209 227 219
f 209 219 210
f 209 213 228
f 209 228 244
f 209 244 227
f 211 229 230
f 211 230 212
f 212 230 213
f 213 230 231
f 213 231 228
f 215 219 232
f 215 232 216
f 215 218 219
f 216 233 217
f 216 232 234
f 216 234 235
f 216 235 236
f 216 236 233
f 219 227 232
f 220 221 237
f 220 237 238
f 221 226 237
f 223 239 224
f 224 239 225
f 225 239 240
f 225 240 241
f 225 241 242
f 225 242 243
f 225 243 237
f 225 237 226
f 227 244 245
f 227 245 232
f 228 231 244
f 229 246 247
f 229 247 230
f 230 247 231
f 231 248 245
f 231 245 244
f 231 247 249
f 231 249 248
f 232 245 250
f 232 250 234
f 233 236 251
f 234 250 235
f 235 250 252
f 235 252 253
f 235 253 254
f 235 254 236
f 236 254 255
f 236 255 256
f 236 256 251
f 237 243 257
f 237 257 238
f 239 258 259
f 239 259 260
f 239 260 261
f 239 261 262
f 239 262 263
f 239 263 240
f 240 263 264
f 240 264 241
f 241 243 242
f 245 248 249
f 245 249 265
f 245 265 266
f 245 266 252
f 245 252 250
f 246 267 268
f 246 268 247
f 247 268 269
f 247 269 270
f 247 270 271
f 247 271 272
f 247 272 249
f 249 273 252
f 249 252 266
f 249 266 265
f 249 272 274
f 249 274 275
f 249 275 273
f 258 276 277
f 258 277 278
f 258 278 259
f 261 279 262
f 262 279 280
f 262 280 263
f 263 280 264
f 267 281 282
f 267 282 268
f 268 282 269
f 269 282 283
f 269 283 271
f 269 271 270
f 271 283 284
f 271 284 285
f 271 285 272
f 272 285 274
f 273 275 287
f 273 287 286
f 274 285 288
f 274 288 287
f 274 287 275
f 276 289 277
f 277 289 290
f 277 290 291
f 277 291 278
f 278 291 292
f 278 292 293
f 278 293 294
f 281 295 296
f 281 296 282
f 282 296 283
f 283 296 297
f 283 297 284
f 284 297 298
f 284 298 299
f 284 299 285
f 285 299 288
f 286 287 300
f 287 288 300
f 288 299 301
f 288 301 302
f 288 302 300
f 290 303 304
f 290 304 305
f 290 305 292
f 290 292 291
f 292 305 293
f 293 306 307
f 293 307 308
f 293 308 294
f 293 305 309
f 293 309 306
f 295 310 296
f 296 310 311
f 296 311 297
f 297 312 298
f 297 311 312
f 298 312 313
f 298 313 314
f 298 314 315
f 298 315 299
f 299 315 316
f 299 316 301
f 300 302 317
f 301 316 318
f 301 318 319
f 301 319 320
f 301 320 317
f 301 317 302
f 303 321 322
f 303 322 304
f 304 322 305
f 305 322 323
f 305 323 324
f 305 324 309
f 306 309 307
f 307 309 325
f 307 325 326
f 309 324 323
f 309 323 327
f 309 327 328
f 309 328 329
f 309 329 330
f 309 330 331
f 309 331 325
f 310 332 333
f 310 333 312
f 310 312 311
f 312 333 313
f 313 333 332
f 313 332 334
f 313 334 335
f 313 335 336
f 313 336 337
f 313 337 338
f 313 338 314
f 314 338 315
f 315 339 316
f 315 338 340
f 315 340 339
f 316 339 341
f 316 341 318
f 318 341 319
f 319 341 342
f 321 343 323
f 321 323 322
f 323 343 327
f 325 331 344
f 325 344 345
f 325 345 346
f 325 346 326
f 326 346 347
f 329 348 330
f 330 348 349
f 330 349 331
f 331 349 350
f 331 350 351
f 331 351 344
f 336 352 353
f 336 353 354
f 336 354 337
f 337 354 338
f 338 354 355
f 338 355 356
f 338 356 340
f 339 340 341
f 340 356 357
f 340 357 341
f 341 357 342
f 342 358 359
f 342 357 358
f 344 351 360
f 344 360 345
f 345 360 361
f 345 361 346
f 346 361 347
f 347 361 362
f 348 363 349
f 349 364 365
f 349 365 350
f 349 363 364
f 350 365 366
f 350 366 367
f 350 367 368
f 350 368 369
f 350 369 351
f 351 369 370
f 351 370 371
f 351 371 360
f 352 372 353
f 353 372 373
f 353 373 354
f 354 373 374
f 354 374 375
f 354 375 376
f 354 376 377
f 354 377 359
f 354 359 358
f 354 358 355
f 355 358 378
f 355 378 356
f 356 378 357
f 357 378 358
f 360 371 379
f 360 379 380
f 360 380 381
f 360 381 361
f 361 381 362
f 362 381 382
f 368 383 384
f 368 384 369
f 369 384 370
f 370 384 385
f 371 382 380
f 371 380 379
f 372 386 373
f 373 386 387
f 373 387 388
f 373 388 389
f 373 389 390
f 373 390 374
f 374 390 375
f 375 390 391
f 375 391 392
f 375 392 376
f 380 382 381
f 383 393 394
f 383 394 384
f 384 394 395
f 384 395 396
f 384 396 397
f 384 397 398
f 384 398 385
f 389 399 390
f 390 399 400
f 390 400 401
f 390 401 391
f 393 402 394
f 394 403 404
f 394 404 405
f 394 405 395
f 394 402 406
f 394 406 403
f 395 405 407
f 395 407 408
f 395 408 409
f 395 409 410
f 395 410 411
f 395 411 412
f 395 412 413
f 395 413 398
f 395 398 396
f 396 398 397
f 399 414 400
f 400 414 415
f 400 415 416
f 400 416 417
f 400 417 418
f 400 418 419
f 400 419 401
f 403 420 405
f 403 405 404
f 403 406 420
f 405 420 406
f 405 406 421
f 405 421 422
f 405 422 423
f 415 424 416
f 416 424 417
f 417 424 425
f 417 425 418
f 418 425 426
f 418 426 419
f 421 427 422
f 422 427 428
f 422 428 423
f 423 428 429
f 423 429 430
f 423 430 431
f 423 431 432
f 423 432 433
f 424 434 425
f 425 434 435
f 427 436 429
f 427 429 428
f 429 436 437
f 429 437 430
f 430 437 438
f 430 438 431
f 431 438 432
f 432 438 433
f 434 439 435
f 435 439 440
f 436 441 437
f 437 441 442
f 437 442 443
f 437 443 444
f 437 444 445
f 437 445 446
f 437 446 447
f 437 447 448
f 437 448 438
f 439 449 450
f 439 450 440
f 442 451 443
f 443 451 452
f 443 452 444
f 444 453 445
f 444 452 454
f 444 454 455
f 444 455 456
f 444 456 457
f 444 457 453
f 449 458 459
f 449 459 460
f 449 460 461
f 449 461 450
f 450 461 462
f 454 463 455
f 455 463 464
f 455 464 456
f 456 464 465
f 456 465 466
f 456 466 467
f 458 468 460
f 458 460 459
f 460 469 461
f 460 468 470
f 460 470 471
f 460 471 462
f 460 462 469
f 461 469 462
f 463 472 464
f 464 472 473
f 464 473 466
f 464 466 465
f 466 474 467
f 466 473 475
f 466 475 476
f 466 476 477
f 466 477 478
f 466 478 479
f 466 479 480
f 466 480 474
f 468 481 470
f 470 481 471
f 471 481 482
f 474 480 483
f 477 484 478
f 478 484 485
f 478 485 486
f 478 486 487
f 478 487 488
f 478 488 489
f 478 489 479
f 479 483 480
f 481 490 491
f 481 491 482
f 482 492 493
f 482 491 494
f 482 494 492
f 487 495 496
f 487 496 497
f 487 497 498
f 487 498 499
f 487 499 488
f 488 499 498
f 488 498 500
f 488 500 489
f 489 500 501
f 489 501 502
f 490 503 494
f 490 494 491
f 492 504 493
f 492 494 503
f 493 504 506
f 493 506 505
f 495 507 496
f 496 507 508
f 496 508 509
f 496 509 510
f 496 510 511
f 496 511 497
f 497 511 512
f 497 512 513
f 497 513 514
f 497 514 515
f 497 515 516
f 497 516 501
f 497 501 500
f 497 500 498
f 501 516 502
f 505 506 512
f 505 512 517
f 506 514 512
f 509 518 510
f 510 512 511
f 510 518 519
f 510 519 520
f 510 520 521
f 510 521 517
f 510 517 512
f 512 514 513
f 514 522 515
f 515 522 516
f 518 520 519

