# https://github.com/mikedh/trimesh
v -0.02616649 -0.00256984 0.02609813 0.56470588 0.92549020 0.07058824
v -0.02576374 -0.00285970 0.02247790 0.56470588 0.92549020 0.07058824
v -0.02571211 -0.00367656 0.02247790 0.56470588 0.92549020 0.07058824
v -0.02613551 -0.00311266 0.02631800 0.56470588 0.92549020 0.07058824
v -0.02616133 -0.00331820 0.02686385 0.56470588 0.92549020 0.07058824
v -0.02616133 -0.00331820 0.02709522 0.56470588 0.92549020 0.07058824
v -0.02616649 -0.00242228 0.02636658 0.56470588 0.92549020 0.07058824
v -0.02616649 -0.00242228 0.02609813 0.56470588 0.92549020 0.07058824
v -0.02565531 0.00040778 0.02084291 0.56470588 0.92549020 0.07058824
v -0.02517511 -0.00122596 0.01695551 0.56470588 0.92549020 0.07058824
v -0.02567080 -0.00285970 0.02165976 0.56470588 0.92549020 0.07058824
v -0.02533518 -0.00490450 0.02043129 0.56470588 0.92549020 0.07058824
v -0.02553139 -0.00449343 0.02165976 0.56470588 0.92549020 0.07058824
v -0.02561401 -0.00449343 0.02247790 0.56470588 0.92549020 0.07058824
v -0.02514929 -0.00204283 0.01695551 0.56470588 0.92549020 0.07058824
v -0.02541779 -0.00524179 0.02165976 0.56470588 0.92549020 0.07058824
v -0.02591349 -0.00449343 0.02738029 0.56470588 0.92549020 0.07058824
v -0.02610970 -0.00362386 0.02737262 0.56470588 0.92549020 0.07058824
v -0.02608904 -0.00367656 0.02819715 0.56470588 0.92549020 0.07058824
v -0.02605806 -0.00367656 0.02983213 0.56470588 0.92549020 0.07058824
v -0.02616133 -0.00306523 0.02709522 0.56470588 0.92549020 0.07058824
v -0.02615101 -0.00251714 0.02691115 0.56470588 0.92549020 0.07058824
v -0.02565015 0.00449213 0.02329475 0.56470588 0.92549020 0.07058824
v -0.02560368 0.00530900 0.02247790 0.56470588 0.92549020 0.07058824
v -0.02573793 0.00367526 0.02247790 0.56470588 0.92549020 0.07058824
v -0.02576891 0.00285839 0.02247790 0.56470588 0.92549020 0.07058824
v -0.02572760 0.00204152 0.02165976 0.56470588 0.92549020 0.07058824
v -0.02573276 0.00122465 0.02165976 0.56470588 0.92549020 0.07058824
v -0.02515962 -0.00184256 0.01695551 0.56470588 0.92549020 0.07058824
v -0.02499439 0.00224179 0.01695551 0.56470588 0.92549020 0.07058824
v -0.02525256 -0.00523125 0.02010531 0.56470588 0.92549020 0.07058824
v -0.02536099 -0.00507315 0.02084291 0.56470588 0.92549020 0.07058824
v -0.02530420 -0.00547895 0.02084291 0.56470588 0.92549020 0.07058824
v -0.02502537 -0.00285970 0.01695551 0.56470588 0.92549020 0.07058824
v -0.02509766 -0.00612717 0.02002606 0.56470588 0.92549020 0.07058824
v -0.02531969 -0.00564759 0.02165976 0.56470588 0.92549020 0.07058824
v -0.02514413 -0.00612717 0.02084291 0.56470588 0.92549020 0.07058824
v -0.02449870 -0.00810347 0.01920792 0.56470588 0.92549020 0.07058824
v -0.02406496 -0.00939465 0.01839107 0.56470588 0.92549020 0.07058824
v -0.02593414 -0.00449343 0.02819715 0.56470588 0.92549020 0.07058824
v -0.02587734 -0.00449343 0.03001365 0.56470588 0.92549020 0.07058824
v -0.02604257 -0.00367656 0.03001365 0.56470588 0.92549020 0.07058824
v -0.02555721 0.00530900 0.02329475 0.56470588 0.92549020 0.07058824
v -0.02548492 0.00612587 0.02247790 0.56470588 0.92549020 0.07058824
v -0.02537648 0.00667923 0.02185791 0.56470588 0.92549020 0.07058824
v -0.02542812 0.00615749 0.02161502 0.56470588 0.92549020 0.07058824
v -0.02552623 0.00530900 0.02165976 0.56470588 0.92549020 0.07058824
v -0.02557786 0.00449213 0.02165976 0.56470588 0.92549020 0.07058824
v -0.02494276 0.00285839 0.01695551 0.56470588 0.92549020 0.07058824
v -0.02477236 -0.00449343 0.01695551 0.56470588 0.92549020 0.07058824
v -0.02423536 -0.00776091 0.01695551 0.56470588 0.92549020 0.07058824
v -0.02456582 -0.00759754 0.01861861 0.56470588 0.92549020 0.07058824
v -0.02429732 -0.00857778 0.01839107 0.56470588 0.92549020 0.07058824
v -0.02461229 -0.00769767 0.01920792 0.56470588 0.92549020 0.07058824
v -0.02487046 -0.00694404 0.02002606 0.56470588 0.92549020 0.07058824
v -0.02378614 -0.01001126 0.01777364 0.56470588 0.92549020 0.07058824
v -0.02381712 -0.01009031 0.01839107 0.56470588 0.92549020 0.07058824
v -0.02418373 -0.00939465 0.03001365 0.56470588 0.92549020 0.07058824
v -0.02423536 -0.00924709 0.03001365 0.56470588 0.92549020 0.07058824
v -0.02537648 0.00186761 0.03001365 0.56470588 0.92549020 0.07058824
v -0.02532485 0.00218381 0.03001365 0.56470588 0.92549020 0.07058824
v -0.02476720 0.00549345 0.03001365 0.56470588 0.92549020 0.07058824
v -0.02540230 0.00612060 0.02323211 0.56470588 0.92549020 0.07058824
v -0.02537132 0.00665815 0.02247790 0.56470588 0.92549020 0.07058824
v -0.02503570 0.00775961 0.02165976 0.56470588 0.92549020 0.07058824
v -0.02391523 0.00859756 0.01695551 0.56470588 0.92549020 0.07058824
v -0.02432314 0.00693220 0.01695551 0.56470588 0.92549020 0.07058824
v -0.02531969 0.00644735 0.02131334 0.56470588 0.92549020 0.07058824
v -0.02525773 0.00706395 0.02247790 0.56470588 0.92549020 0.07058824
v -0.02480850 0.00858175 0.02247790 0.56470588 0.92549020 0.07058824
v -0.02479818 0.00858175 0.02165976 0.56470588 0.92549020 0.07058824
v -0.02444190 0.00630505 0.01695551 0.56470588 0.92549020 0.07058824
v -0.02481883 0.00387552 0.01695551 0.56470588 0.92549020 0.07058824
v -0.02484981 0.00367526 0.01695551 0.56470588 0.92549020 0.07058824
v -0.02492210 0.00305866 0.01695551 0.56470588 0.92549020 0.07058824
v -0.02398235 -0.00863048 0.01695551 0.56470588 0.92549020 0.07058824
v -0.02389457 -0.00943681 0.01752948 0.56470588 0.92549020 0.07058824
v -0.02413725 -0.00857778 0.01757294 0.56470588 0.92549020 0.07058824
v -0.02376548 -0.00925236 0.01695551 0.56470588 0.92549020 0.07058824
v -0.02340920 -0.01022206 0.01695551 0.56470588 0.92549020 0.07058824
v -0.02315103 -0.01089664 0.01695551 0.56470588 0.92549020 0.07058824
v -0.02328012 -0.01103366 0.01757294 0.56470588 0.92549020 0.07058824
v -0.02342470 -0.01103366 0.01839107 0.56470588 0.92549020 0.07058824
v -0.02364672 -0.01050138 0.01839107 0.56470588 0.92549020 0.07058824
v -0.02387392 -0.01019571 0.03001365 0.56470588 0.92549020 0.07058824
v -0.02394620 -0.01001653 0.03001365 0.56470588 0.92549020 0.07058824
v -0.02459164 0.00627343 0.03001365 0.56470588 0.92549020 0.07058824
v -0.02451935 0.00654221 0.03001365 0.56470588 0.92549020 0.07058824
v -0.02376032 0.00910349 0.01695551 0.56470588 0.92549020 0.07058824
v -0.02456582 0.00915619 0.02307488 0.56470588 0.92549020 0.07058824
v -0.02460196 0.00923524 0.02247790 0.56470588 0.92549020 0.07058824
v -0.02459680 0.00916146 0.02165976 0.56470588 0.92549020 0.07058824
v -0.02456066 0.00906133 0.02118934 0.56470588 0.92549020 0.07058824
v -0.02307874 -0.01106001 0.01695551 0.56470588 0.92549020 0.07058824
v -0.02298064 -0.01161864 0.01757294 0.56470588 0.92549020 0.07058824
v -0.02306325 -0.01178729 0.01839107 0.56470588 0.92549020 0.07058824
v -0.02349698 -0.01103366 0.02983213 0.56470588 0.92549020 0.07058824
v -0.02369320 -0.01060678 0.02983213 0.56470588 0.92549020 0.07058824
v -0.02271730 -0.01271483 0.02983213 0.56470588 0.92549020 0.07058824
v -0.02369320 -0.01060151 0.03001365 0.56470588 0.92549020 0.07058824
v -0.02447804 0.00667923 0.03001365 0.56470588 0.92549020 0.07058824
v -0.02227324 0.01261866 0.01695551 0.56470588 0.92549020 0.07058824
v -0.02415274 0.01021549 0.02329475 0.56470588 0.92549020 0.07058824
v -0.02445739 0.00964631 0.02247790 0.56470588 0.92549020 0.07058824
v -0.02403398 0.00792298 0.03001365 0.56470588 0.92549020 0.07058824
v -0.02288770 0.01308770 0.02287162 0.56470588 0.92549020 0.07058824
v -0.02149356 -0.01392696 0.01695551 0.56470588 0.92549020 0.07058824
v -0.02284639 -0.01219309 0.01839107 0.56470588 0.92549020 0.07058824
v -0.02231971 -0.01348427 0.02983213 0.56470588 0.92549020 0.07058824
v -0.02349698 -0.01103366 0.03001365 0.56470588 0.92549020 0.07058824
v -0.02240749 -0.01331035 0.03001365 0.56470588 0.92549020 0.07058824
v -0.02271214 -0.01271483 0.03001365 0.56470588 0.92549020 0.07058824
v -0.02209768 0.01292433 0.01695551 0.56470588 0.92549020 0.07058824
v -0.02279992 0.01117465 0.03001365 0.56470588 0.92549020 0.07058824
v -0.02250043 0.01184922 0.03001365 0.56470588 0.92549020 0.07058824
v -0.02288770 0.01308770 0.02290613 0.56470588 0.92549020 0.07058824
v -0.02220612 0.01402052 0.02329475 0.56470588 0.92549020 0.07058824
v -0.02220095 0.01400998 0.02264280 0.56470588 0.92549020 0.07058824
v -0.02163297 0.01360945 0.01695551 0.56470588 0.92549020 0.07058824
v -0.02172075 0.01348296 0.01695551 0.56470588 0.92549020 0.07058824
v -0.02203056 0.01302446 0.01695551 0.56470588 0.92549020 0.07058824
v -0.02138512 -0.01410087 0.01695551 0.56470588 0.92549020 0.07058824
v -0.02254174 -0.01266740 0.01839107 0.56470588 0.92549020 0.07058824
v -0.02207187 -0.01390061 0.02932719 0.56470588 0.92549020 0.07058824
v -0.02207703 -0.01391115 0.02983213 0.56470588 0.92549020 0.07058824
v -0.02207703 -0.01391115 0.03001365 0.56470588 0.92549020 0.07058824
v -0.02230939 -0.01350008 0.03001365 0.56470588 0.92549020 0.07058824
v -0.02134898 0.01409430 0.03001365 0.56470588 0.92549020 0.07058824
v -0.02112695 0.01450010 0.03001365 0.56470588 0.92549020 0.07058824
v -0.02068289 0.01516413 0.03001365 0.56470588 0.92549020 0.07058824
v -0.02045570 0.01638153 0.02458075 0.56470588 0.92549020 0.07058824
v -0.02045570 0.01638153 0.02434170 0.56470588 0.92549020 0.07058824
v -0.02101852 0.01442632 0.01695551 0.56470588 0.92549020 0.07058824
v -0.02134382 0.01401525 0.01695551 0.56470588 0.92549020 0.07058824
v -0.02092041 0.01454753 0.01695551 0.56470588 0.92549020 0.07058824
v -0.02143159 -0.01414303 0.01757294 0.56470588 0.92549020 0.07058824
v -0.02189114 -0.01364237 0.01839107 0.56470588 0.92549020 0.07058824
v -0.02216997 -0.01323130 0.01839107 0.56470588 0.92549020 0.07058824
v -0.02102368 -0.01450667 0.01695551 0.56470588 0.92549020 0.07058824
v -0.01988772 -0.01664634 0.02165976 0.56470588 0.92549020 0.07058824
v -0.02022334 -0.01611406 0.02084291 0.56470588 0.92549020 0.07058824
v -0.02109597 -0.01528138 0.02656344 0.56470588 0.92549020 0.07058824
v -0.02110630 -0.01530773 0.02738029 0.56470588 0.92549020 0.07058824
v -0.02138512 -0.01491247 0.02819715 0.56470588 0.92549020 0.07058824
v -0.02179820 -0.01432222 0.02983213 0.56470588 0.92549020 0.07058824
v -0.02139029 -0.01490720 0.02983213 0.56470588 0.92549020 0.07058824
v -0.02138512 -0.01490193 0.03001365 0.56470588 0.92549020 0.07058824
v -0.02048152 0.01542237 0.03001365 0.56470588 0.92549020 0.07058824
v -0.01884470 0.01802581 0.02411032 0.56470588 0.92549020 0.07058824
v -0.01884986 0.01803108 0.02355936 0.56470588 0.92549020 0.07058824
v -0.01710461 0.01955415 0.03001365 0.56470588 0.92549020 0.07058824
v -0.01799273 0.01881106 0.02789035 0.56470588 0.92549020 0.07058824
v -0.01963471 0.01718259 0.02365140 0.56470588 0.92549020 0.07058824
v -0.02061061 0.01491117 0.01695551 0.56470588 0.92549020 0.07058824
v -0.02148323 -0.01417992 0.01839107 0.56470588 0.92549020 0.07058824
v -0.02029563 -0.01615622 0.02165976 0.56470588 0.92549020 0.07058824
v -0.02055897 -0.01570826 0.02084291 0.56470588 0.92549020 0.07058824
v -0.02031629 -0.01618257 0.02247790 0.56470588 0.92549020 0.07058824
v -0.02062093 -0.01579258 0.02329475 0.56470588 0.92549020 0.07058824
v -0.02108048 -0.01526030 0.02574531 0.56470588 0.92549020 0.07058824
v -0.01941784 -0.01695728 0.02084291 0.56470588 0.92549020 0.07058824
v -0.01950046 -0.01705214 0.02165976 0.56470588 0.92549020 0.07058824
v -0.01580858 -0.01969775 0.01695551 0.56470588 0.92549020 0.07058824
v -0.01954693 -0.01709430 0.02247790 0.56470588 0.92549020 0.07058824
v -0.01958307 -0.01712592 0.02329475 0.56470588 0.92549020 0.07058824
v -0.01990837 -0.01668850 0.02247790 0.56470588 0.92549020 0.07058824
v -0.02067257 -0.01585055 0.02574531 0.56470588 0.92549020 0.07058824
v -0.02110630 -0.01532354 0.02819715 0.56470588 0.92549020 0.07058824
v -0.02068806 -0.01586636 0.02656344 0.56470588 0.92549020 0.07058824
v -0.02069839 -0.01587163 0.02738029 0.56470588 0.92549020 0.07058824
v -0.02139029 -0.01491247 0.02901528 0.56470588 0.92549020 0.07058824
v -0.02110114 -0.01532354 0.02901528 0.56470588 0.92549020 0.07058824
v -0.02109597 -0.01531827 0.02983213 0.56470588 0.92549020 0.07058824
v -0.02109081 -0.01530773 0.03001365 0.56470588 0.92549020 0.07058824
v -0.01843679 0.01843688 0.02411032 0.56470588 0.92549020 0.07058824
v -0.01772939 0.01793095 0.01695551 0.56470588 0.92549020 0.07058824
v -0.02031629 0.01522210 0.01695551 0.56470588 0.92549020 0.07058824
v -0.01802371 0.01883741 0.02411032 0.56470588 0.92549020 0.07058824
v -0.01801338 0.01882687 0.02344048 0.56470588 0.92549020 0.07058824
v -0.01797724 0.01879525 0.02289591 0.56470588 0.92549020 0.07058824
v -0.01669670 0.01992306 0.03001365 0.56470588 0.92549020 0.07058824
v -0.01711494 0.01955942 0.02983213 0.56470588 0.92549020 0.07058824
v -0.01714076 0.01959104 0.02901528 0.56470588 0.92549020 0.07058824
v -0.01715625 0.01960685 0.02840551 0.56470588 0.92549020 0.07058824
v -0.01716141 0.01961739 0.02786095 0.56470588 0.92549020 0.07058824
v -0.02032661 -0.01620365 0.02329475 0.56470588 0.92549020 0.07058824
v -0.02064159 -0.01580839 0.02411032 0.56470588 0.92549020 0.07058824
v -0.01991870 -0.01672012 0.02329475 0.56470588 0.92549020 0.07058824
v -0.01570531 -0.01979788 0.01695551 0.56470588 0.92549020 0.07058824
v -0.01909255 -0.01744213 0.02165976 0.56470588 0.92549020 0.07058824
v -0.01800305 -0.01881763 0.02360538 0.56470588 0.92549020 0.07058824
v -0.01960373 -0.01714700 0.02411032 0.56470588 0.92549020 0.07058824
v -0.01879823 -0.01797968 0.02368081 0.56470588 0.92549020 0.07058824
v -0.02069839 -0.01587163 0.02819715 0.56470588 0.92549020 0.07058824
v -0.02036276 -0.01625635 0.02574531 0.56470588 0.92549020 0.07058824
v -0.02037308 -0.01627216 0.02656344 0.56470588 0.92549020 0.07058824
v -0.02038341 -0.01628270 0.02738029 0.56470588 0.92549020 0.07058824
v -0.02069322 -0.01587163 0.02901528 0.56470588 0.92549020 0.07058824
v -0.02037825 -0.01628270 0.02901528 0.56470588 0.92549020 0.07058824
v -0.02068806 -0.01585055 0.02983213 0.56470588 0.92549020 0.07058824
v -0.02077584 -0.01572407 0.03001365 0.56470588 0.92549020 0.07058824
v -0.01741958 0.01824189 0.01695551 0.56470588 0.92549020 0.07058824
v -0.01756932 0.01924848 0.02411032 0.56470588 0.92549020 0.07058824
v -0.01714592 0.01959631 0.02329475 0.56470588 0.92549020 0.07058824
v -0.01669153 0.01992306 0.02247790 0.56470588 0.92549020 0.07058824
v -0.01709945 0.01955415 0.02247790 0.56470588 0.92549020 0.07058824
v -0.01753318 0.01914835 0.02247790 0.56470588 0.92549020 0.07058824
v -0.01633009 0.02023926 0.03001365 0.56470588 0.92549020 0.07058824
v -0.01670702 0.01992833 0.02983213 0.56470588 0.92549020 0.07058824
v -0.01673284 0.01995468 0.02901528 0.56470588 0.92549020 0.07058824
v -0.01683095 0.01990198 0.02815880 0.56470588 0.92549020 0.07058824
v -0.01716141 0.01961739 0.02738029 0.56470588 0.92549020 0.07058824
v -0.01675350 0.01997576 0.02738029 0.56470588 0.92549020 0.07058824
v -0.01559172 -0.01989801 0.01695551 0.56470588 0.92549020 0.07058824
v -0.01521995 -0.02020895 0.01695551 0.56470588 0.92549020 0.07058824
v -0.01397039 -0.02129459 0.01862501 0.56470588 0.92549020 0.07058824
v -0.01334044 -0.02228537 0.02411032 0.56470588 0.92549020 0.07058824
v -0.01800305 -0.01881763 0.02386361 0.56470588 0.92549020 0.07058824
v -0.01963471 -0.01718390 0.02656344 0.56470588 0.92549020 0.07058824
v -0.01962438 -0.01717336 0.02574531 0.56470588 0.92549020 0.07058824
v -0.01996517 -0.01675175 0.02574531 0.56470588 0.92549020 0.07058824
v -0.02038341 -0.01628270 0.02819715 0.56470588 0.92549020 0.07058824
v -0.01998582 -0.01675175 0.02656344 0.56470588 0.92549020 0.07058824
v -0.02034727 -0.01626162 0.02983213 0.56470588 0.92549020 0.07058824
v -0.01962955 -0.01717863 0.02738029 0.56470588 0.92549020 0.07058824
v -0.01961922 -0.01716809 0.02784688 0.56470588 0.92549020 0.07058824
v -0.02068289 -0.01584001 0.03001365 0.56470588 0.92549020 0.07058824
v -0.01702200 0.01949091 0.02165976 0.56470588 0.92549020 0.07058824
v -0.01699101 0.01864769 0.01695551 0.56470588 0.92549020 0.07058824
v -0.01716141 0.01961212 0.02411032 0.56470588 0.92549020 0.07058824
v -0.01673800 0.01995995 0.02329475 0.56470588 0.92549020 0.07058824
v -0.01625780 0.02037102 0.02329475 0.56470588 0.92549020 0.07058824
v -0.01620617 0.02032886 0.02247790 0.56470588 0.92549020 0.07058824
v -0.01549361 0.02039737 0.01920792 0.56470588 0.92549020 0.07058824
v -0.01623198 0.02033413 0.02983213 0.56470588 0.92549020 0.07058824
v -0.01626297 0.02036048 0.02901528 0.56470588 0.92549020 0.07058824
v -0.01581374 0.02066614 0.03001365 0.56470588 0.92549020 0.07058824
v -0.01582407 0.02067142 0.02983213 0.56470588 0.92549020 0.07058824
v -0.01628362 0.02037629 0.02819715 0.56470588 0.92549020 0.07058824
v -0.01628362 0.02038156 0.02738029 0.56470588 0.92549020 0.07058824
v -0.01481203 -0.02049353 0.01695551 0.56470588 0.92549020 0.07058824
v -0.01007713 -0.02398236 0.01757294 0.56470588 0.92549020 0.07058824
v -0.01277763 -0.02269117 0.02411032 0.56470588 0.92549020 0.07058824
v -0.01276730 -0.02265956 0.02492846 0.56470588 0.92549020 0.07058824
v -0.01865881 -0.01787955 0.02901528 0.56470588 0.92549020 0.07058824
v -0.02033694 -0.01624581 0.03001365 0.56470588 0.92549020 0.07058824
v -0.01955209 -0.01710484 0.02901528 0.56470588 0.92549020 0.07058824
v -0.01993935 -0.01664634 0.02983213 0.56470588 0.92549020 0.07058824
v -0.01914418 -0.01746848 0.02901528 0.56470588 0.92549020 0.07058824
v -0.01405300 0.02112991 0.01695551 0.56470588 0.92549020 0.07058824
v -0.01392392 0.02127221 0.01706928 0.56470588 0.92549020 0.07058824
v -0.01584989 0.02063452 0.02329475 0.56470588 0.92549020 0.07058824
v -0.01579309 0.02059763 0.02247790 0.56470588 0.92549020 0.07058824
v -0.01587571 0.02070830 0.02738029 0.56470588 0.92549020 0.07058824
v -0.01531805 0.02111410 0.02738029 0.56470588 0.92549020 0.07058824
v -0.01487916 0.02135653 0.02574531 0.56470588 0.92549020 0.07058824
v -0.01399104 0.02131437 0.01757294 0.56470588 0.92549020 0.07058824
v -0.01585505 0.02070303 0.02901528 0.56470588 0.92549020 0.07058824
v -0.01541616 0.02098235 0.03001365 0.56470588 0.92549020 0.07058824
v -0.01530772 0.02108248 0.02983213 0.56470588 0.92549020 0.07058824
v -0.01587571 0.02071358 0.02819715 0.56470588 0.92549020 0.07058824
v -0.00997903 -0.02385587 0.01695551 0.56470588 0.92549020 0.07058824
v -0.00944203 -0.02440397 0.01752436 0.56470588 0.92549020 0.07058824
v -0.01236971 -0.02294941 0.02411032 0.56470588 0.92549020 0.07058824
v -0.01235939 -0.02294941 0.02492846 0.56470588 0.92549020 0.07058824
v -0.01086714 -0.02387695 0.02329475 0.56470588 0.92549020 0.07058824
v -0.01294286 -0.02196917 0.02983213 0.56470588 0.92549020 0.07058824
v -0.01859169 -0.01782685 0.02983213 0.56470588 0.92549020 0.07058824
v -0.01908738 -0.01742105 0.02983213 0.56470588 0.92549020 0.07058824
v -0.01992903 -0.01663053 0.03001365 0.56470588 0.92549020 0.07058824
v -0.01949530 -0.01705214 0.02983213 0.56470588 0.92549020 0.07058824
v -0.01947981 -0.01704160 0.03001365 0.56470588 0.92549020 0.07058824
v -0.01390326 0.02125640 0.01695551 0.56470588 0.92549020 0.07058824
v -0.01376901 0.02134072 0.01695551 0.56470588 0.92549020 0.07058824
v -0.01521995 0.02106667 0.02411032 0.56470588 0.92549020 0.07058824
v -0.01516831 0.02104032 0.02329475 0.56470588 0.92549020 0.07058824
v -0.01485334 0.02133545 0.02492846 0.56470588 0.92549020 0.07058824
v -0.01532322 0.02111938 0.02819715 0.56470588 0.92549020 0.07058824
v -0.01491530 0.02136707 0.02819715 0.56470588 0.92549020 0.07058824
v -0.01489465 0.02136180 0.02656344 0.56470588 0.92549020 0.07058824
v -0.01430085 0.02170963 0.02656344 0.56470588 0.92549020 0.07058824
v -0.01377934 0.02200475 0.02656344 0.56470588 0.92549020 0.07058824
v -0.01430085 0.02168328 0.02574531 0.56470588 0.92549020 0.07058824
v -0.01481203 0.02130910 0.02411032 0.56470588 0.92549020 0.07058824
v -0.01430085 0.02154098 0.02329475 0.56470588 0.92549020 0.07058824
v -0.01362443 0.02192043 0.02329475 0.56470588 0.92549020 0.07058824
v -0.01321652 0.02214178 0.02329475 0.56470588 0.92549020 0.07058824
v -0.01348502 0.02157261 0.01757294 0.56470588 0.92549020 0.07058824
v -0.01284991 0.02182030 0.01695551 0.56470588 0.92549020 0.07058824
v -0.01532322 0.02110883 0.02901528 0.56470588 0.92549020 0.07058824
v -0.01520962 0.02114573 0.03001365 0.56470588 0.92549020 0.07058824
v -0.01489465 0.02137761 0.03001365 0.56470588 0.92549020 0.07058824
v -0.00981380 -0.02396655 0.01695551 0.56470588 0.92549020 0.07058824
v -0.00940588 -0.02418789 0.01695551 0.56470588 0.92549020 0.07058824
v -0.00894633 -0.02449883 0.01722012 0.56470588 0.92549020 0.07058824
v -0.00919418 -0.02457788 0.01776469 0.56470588 0.92549020 0.07058824
v -0.01130604 -0.02361872 0.02411032 0.56470588 0.92549020 0.07058824
v -0.01184820 -0.02324981 0.02492846 0.56470588 0.92549020 0.07058824
v -0.01145061 -0.02288617 0.03001365 0.56470588 0.92549020 0.07058824
v -0.01253494 -0.02224321 0.02983213 0.56470588 0.92549020 0.07058824
v -0.01021655 -0.02417208 0.02329475 0.56470588 0.92549020 0.07058824
v -0.01089296 -0.02384534 0.02411032 0.56470588 0.92549020 0.07058824
v -0.01291704 -0.02194809 0.03001365 0.56470588 0.92549020 0.07058824
v -0.01857620 -0.01781104 0.03001365 0.56470588 0.92549020 0.07058824
v -0.01907189 -0.01740524 0.03001365 0.56470588 0.92549020 0.07058824
v -0.01430085 0.02164639 0.02492846 0.56470588 0.92549020 0.07058824
v -0.01489981 0.02137761 0.02983213 0.56470588 0.92549020 0.07058824
v -0.01491530 0.02137234 0.02901528 0.56470588 0.92549020 0.07058824
v -0.01430085 0.02174652 0.02983213 0.56470588 0.92549020 0.07058824
v -0.01430085 0.02172017 0.02738029 0.56470588 0.92549020 0.07058824
v -0.01270017 0.02266879 0.02901528 0.56470588 0.92549020 0.07058824
v -0.01229226 0.02290068 0.02901528 0.56470588 0.92549020 0.07058824
v -0.01374836 0.02198894 0.02574531 0.56470588 0.92549020 0.07058824
v -0.01227161 0.02289014 0.02819715 0.56470588 0.92549020 0.07058824
v -0.01225612 0.02288486 0.02778808 0.56470588 0.92549020 0.07058824
v -0.01367090 0.02194678 0.02411032 0.56470588 0.92549020 0.07058824
v -0.01058832 0.02286906 0.01695551 0.56470588 0.92549020 0.07058824
v -0.00567270 0.02613126 0.03001365 0.56470588 0.92549020 0.07058824
v -0.01442993 0.02166747 0.03001365 0.56470588 0.92549020 0.07058824
v -0.00878627 -0.02445667 0.01695551 0.56470588 0.92549020 0.07058824
v -0.00845064 -0.02459369 0.01695551 0.56470588 0.92549020 0.07058824
v -0.00919418 -0.02457788 0.01821338 0.56470588 0.92549020 0.07058824
v -0.00694291 -0.02504165 0.01695551 0.56470588 0.92549020 0.07058824
v -0.00776390 -0.02490463 0.01757294 0.56470588 0.92549020 0.07058824
v -0.00204278 -0.02678079 0.02492846 0.56470588 0.92549020 0.07058824
v -0.00676219 -0.02544745 0.02247790 0.56470588 0.92549020 0.07058824
v -0.01121309 -0.02359237 0.02492846 0.56470588 0.92549020 0.07058824
v -0.01234906 -0.02232754 0.03001365 0.56470588 0.92549020 0.07058824
v -0.00857973 -0.02418262 0.03001365 0.56470588 0.92549020 0.07058824
v -0.01250912 -0.02222213 0.03001365 0.56470588 0.92549020 0.07058824
v -0.00776390 -0.02506800 0.02411032 0.56470588 0.92549020 0.07058824
v -0.00797560 -0.02444613 0.03001365 0.56470588 0.92549020 0.07058824
v -0.01430085 0.02174652 0.03001365 0.56470588 0.92549020 0.07058824
v -0.01373803 0.02207854 0.03001365 0.56470588 0.92549020 0.07058824
v -0.01382581 0.02202584 0.02983213 0.56470588 0.92549020 0.07058824
v -0.01341790 0.02226299 0.02983213 0.56470588 0.92549020 0.07058824
v -0.01261756 0.02272676 0.03001365 0.56470588 0.92549020 0.07058824
v -0.01229742 0.02290594 0.02983213 0.56470588 0.92549020 0.07058824
v -0.00939555 0.02340134 0.01695551 0.56470588 0.92549020 0.07058824
v -0.00939555 0.02345404 0.01757294 0.56470588 0.92549020 0.07058824
v -0.00545067 0.02621559 0.03001365 0.56470588 0.92549020 0.07058824
v -0.00666924 0.02457658 0.01780943 0.56470588 0.92549020 0.07058824
v -0.00883790 0.02364376 0.01695551 0.56470588 0.92549020 0.07058824
v -0.00889986 0.02367011 0.01757294 0.56470588 0.92549020 0.07058824
v -0.01229742 0.02290594 0.03001365 0.56470588 0.92549020 0.07058824
v -0.00522347 -0.02541583 0.01695551 0.56470588 0.92549020 0.07058824
v -0.00204278 -0.02670174 0.02411032 0.56470588 0.92549020 0.07058824
v -0.00122179 -0.02678079 0.02411032 0.56470588 0.92549020 0.07058824
v -0.00122179 -0.02680187 0.02492846 0.56470588 0.92549020 0.07058824
v -0.00122179 -0.02684930 0.02738029 0.56470588 0.92549020 0.07058824
v -0.00122179 -0.02684403 0.02819715 0.56470588 0.92549020 0.07058824
v -0.00204278 -0.02670701 0.02738029 0.56470588 0.92549020 0.07058824
v -0.00449026 -0.02556339 0.01695551 0.56470588 0.92549020 0.07058824
v -0.00367443 -0.02571623 0.01695551 0.56470588 0.92549020 0.07058824
v -0.00756769 -0.02459369 0.03001365 0.56470588 0.92549020 0.07058824
v -0.00204278 -0.02663323 0.02819715 0.56470588 0.92549020 0.07058824
v -0.00531125 0.02626302 0.03001365 0.56470588 0.92549020 0.07058824
v -0.00612708 0.02478211 0.01839107 0.56470588 0.92549020 0.07058824
v -0.00420627 0.02534602 0.01958887 0.56470588 0.92549020 0.07058824
v -0.00608577 0.02461347 0.01755121 0.56470588 0.92549020 0.07058824
v -0.00608577 0.02445536 0.01695551 0.56470588 0.92549020 0.07058824
v -0.00694291 0.02428145 0.01695551 0.56470588 0.92549020 0.07058824
v -0.00776390 0.02403375 0.01695551 0.56470588 0.92549020 0.07058824
v -0.00842999 0.02379660 0.01695551 0.56470588 0.92549020 0.07058824
v -0.00873979 0.02368066 0.01695551 0.56470588 0.92549020 0.07058824
v -0.00245586 0.02697448 0.02858320 0.56470588 0.92549020 0.07058824
v -0.00122179 -0.02669647 0.02329475 0.56470588 0.92549020 0.07058824
v -0.00285344 -0.02585852 0.01695551 0.56470588 0.92549020 0.07058824
v 0.00122570 -0.02674917 0.02901528 0.56470588 0.92549020 0.07058824
v 0.00040471 -0.02681768 0.02901528 0.56470588 0.92549020 0.07058824
v -0.00040596 -0.02656472 0.02247790 0.56470588 0.92549020 0.07058824
v 0.00040471 -0.02649094 0.02247790 0.56470588 0.92549020 0.07058824
v -0.00040596 -0.02684930 0.02901528 0.56470588 0.92549020 0.07058824
v -0.00040596 -0.02686511 0.02983213 0.56470588 0.92549020 0.07058824
v -0.00122179 -0.02681242 0.02901528 0.56470588 0.92549020 0.07058824
v -0.00122179 -0.02673863 0.02983213 0.56470588 0.92549020 0.07058824
v -0.00104106 -0.02675444 0.03001365 0.56470588 0.92549020 0.07058824
v -0.00467615 0.02645274 0.03001365 0.56470588 0.92549020 0.07058824
v -0.00531125 0.02507724 0.01920792 0.56470588 0.92549020 0.07058824
v -0.00433019 0.02540399 0.02002606 0.56470588 0.92549020 0.07058824
v -0.00367443 0.02548831 0.02002606 0.56470588 0.92549020 0.07058824
v -0.00122179 0.02480319 0.01695551 0.56470588 0.92549020 0.07058824
v -0.00578113 0.02452915 0.01710635 0.56470588 0.92549020 0.07058824
v -0.00593087 0.02447117 0.01695551 0.56470588 0.92549020 0.07058824
v -0.00449026 0.02650544 0.03001365 0.56470588 0.92549020 0.07058824
v -0.00385515 0.02666355 0.03001365 0.56470588 0.92549020 0.07058824
v -0.00245586 0.02697448 0.02864840 0.56470588 0.92549020 0.07058824
v -0.00244036 0.02697448 0.02858320 0.56470588 0.92549020 0.07058824
v -0.00204278 0.02679003 0.02738029 0.56470588 0.92549020 0.07058824
v -0.00204278 0.02603640 0.02247790 0.56470588 0.92549020 0.07058824
v -0.00285861 0.02571492 0.02084291 0.56470588 0.92549020 0.07058824
v -0.00367443 0.02562533 0.02084291 0.56470588 0.92549020 0.07058824
v -0.00267272 -0.02585325 0.01695551 0.56470588 0.92549020 0.07058824
v 0.00204152 -0.02662796 0.02901528 0.56470588 0.92549020 0.07058824
v 0.00122570 -0.02674391 0.03001365 0.56470588 0.92549020 0.07058824
v 0.00040471 -0.02682295 0.03001365 0.56470588 0.92549020 0.07058824
v 0.00040471 -0.02682295 0.02983213 0.56470588 0.92549020 0.07058824
v 0.00122570 -0.02636972 0.02247790 0.56470588 0.92549020 0.07058824
v -0.00040596 -0.02644350 0.02165976 0.56470588 0.92549020 0.07058824
v 0.00040471 -0.02639080 0.02165976 0.56470588 0.92549020 0.07058824
v 0.00204152 -0.02586379 0.01920792 0.56470588 0.92549020 0.07058824
v -0.00022524 -0.02685458 0.03001365 0.56470588 0.92549020 0.07058824
v -0.00040596 -0.02684930 0.03001365 0.56470588 0.92549020 0.07058824
v -0.00060733 0.02482954 0.01695551 0.56470588 0.92549020 0.07058824
v -0.00303933 0.02682165 0.03001365 0.56470588 0.92549020 0.07058824
v -0.00244036 0.02697448 0.02864840 0.56470588 0.92549020 0.07058824
v -0.00285861 0.02684273 0.03001365 0.56470588 0.92549020 0.07058824
v 0.00694682 0.02498765 0.02738029 0.56470588 0.92549020 0.07058824
v 0.00694682 0.02496657 0.02329475 0.56470588 0.92549020 0.07058824
v 0.00428763 0.02537763 0.02269266 0.56470588 0.92549020 0.07058824
v -0.00122179 0.02648963 0.02574531 0.56470588 0.92549020 0.07058824
v -0.00122179 0.02637896 0.02492846 0.56470588 0.92549020 0.07058824
v -0.00122179 0.02617343 0.02354019 0.56470588 0.92549020 0.07058824
v -0.00122179 0.02611018 0.02313240 0.56470588 0.92549020 0.07058824
v -0.00204278 0.02589411 0.02165976 0.56470588 0.92549020 0.07058824
v 0.00040471 -0.02626432 0.02084291 0.56470588 0.92549020 0.07058824
v -0.00204278 -0.02581109 0.01695551 0.56470588 0.92549020 0.07058824
v 0.00204152 -0.02661742 0.02983213 0.56470588 0.92549020 0.07058824
v 0.00285735 -0.02643297 0.02819715 0.56470588 0.92549020 0.07058824
v 0.00285735 -0.02647513 0.02901528 0.56470588 0.92549020 0.07058824
v 0.00204152 -0.02660688 0.03001365 0.56470588 0.92549020 0.07058824
v 0.00351311 -0.02537894 0.01695551 0.56470588 0.92549020 0.07058824
v 0.00247526 -0.02615892 0.02284222 0.56470588 0.92549020 0.07058824
v 0.00122570 -0.02594811 0.01920792 0.56470588 0.92549020 0.07058824
v 0.00285735 -0.02546326 0.01695551 0.56470588 0.92549020 0.07058824
v 0.00020849 0.02480846 0.01695551 0.56470588 0.92549020 0.07058824
v -0.00222350 0.02680057 0.03001365 0.56470588 0.92549020 0.07058824
v -0.00204278 0.02679530 0.02983213 0.56470588 0.92549020 0.07058824
v 0.00694682 0.02495603 0.02819715 0.56470588 0.92549020 0.07058824
v 0.00783494 0.02467671 0.02819331 0.56470588 0.92549020 0.07058824
v 0.00837710 0.02459766 0.02329475 0.56470588 0.92549020 0.07058824
v 0.00776265 0.02478738 0.02329475 0.56470588 0.92549020 0.07058824
v 0.00784010 0.02467671 0.02240120 0.56470588 0.92549020 0.07058824
v 0.00694682 0.02487171 0.02247790 0.56470588 0.92549020 0.07058824
v 0.00531000 0.02431307 0.01695551 0.56470588 0.92549020 0.07058824
v 0.00266630 0.02538291 0.02107045 0.56470588 0.92549020 0.07058824
v -0.00079838 0.02615761 0.02367697 0.56470588 0.92549020 0.07058824
v -0.00122179 0.02598897 0.02247790 0.56470588 0.92549020 0.07058824
v 0.00204152 0.02469779 0.01695551 0.56470588 0.92549020 0.07058824
v 0.00184015 0.02471360 0.01695551 0.56470588 0.92549020 0.07058824
v 0.00102432 0.02477157 0.01695551 0.56470588 0.92549020 0.07058824
v 0.00367318 -0.02591649 0.02329475 0.56470588 0.92549020 0.07058824
v 0.00449417 -0.02566880 0.02247790 0.56470588 0.92549020 0.07058824
v 0.00449417 -0.02572150 0.02329475 0.56470588 0.92549020 0.07058824
v 0.00354409 -0.02625905 0.02819715 0.56470588 0.92549020 0.07058824
v 0.00359057 -0.02626959 0.02901528 0.56470588 0.92549020 0.07058824
v 0.00285735 -0.02642770 0.02983213 0.56470588 0.92549020 0.07058824
v 0.00285735 -0.02641189 0.03001365 0.56470588 0.92549020 0.07058824
v 0.00392103 -0.02529462 0.01695551 0.56470588 0.92549020 0.07058824
v 0.00405011 -0.02533151 0.01757294 0.56470588 0.92549020 0.07058824
v -0.00204278 0.02676368 0.03001365 0.56470588 0.92549020 0.07058824
v 0.00594511 0.02492967 0.03001365 0.56470588 0.92549020 0.07058824
v 0.00694682 0.02486643 0.02901528 0.56470588 0.92549020 0.07058824
v 0.00784010 0.02463982 0.02906002 0.56470588 0.92549020 0.07058824
v 0.00816023 0.02451334 0.02936298 0.56470588 0.92549020 0.07058824
v 0.00818605 0.02452387 0.02881842 0.56470588 0.92549020 0.07058824
v 0.01073164 0.02374390 0.02381886 0.56470588 0.92549020 0.07058824
v 0.01073164 0.02374390 0.02329475 0.56470588 0.92549020 0.07058824
v 0.00830997 0.02458712 0.02262235 0.56470588 0.92549020 0.07058824
v 0.00612583 0.02416024 0.01695551 0.56470588 0.92549020 0.07058824
v 0.00592962 0.02419713 0.01695551 0.56470588 0.92549020 0.07058824
v 0.00285735 0.02460293 0.01695551 0.56470588 0.92549020 0.07058824
v 0.00584184 -0.02536840 0.02329475 0.56470588 0.92549020 0.07058824
v 0.00531000 -0.02551070 0.02329475 0.56470588 0.92549020 0.07058824
v 0.00612583 -0.02476234 0.01695551 0.56470588 0.92549020 0.07058824
v 0.00678675 -0.02459369 0.01695551 0.56470588 0.92549020 0.07058824
v 0.00776265 -0.02487828 0.02411032 0.56470588 0.92549020 0.07058824
v 0.00399848 -0.02611676 0.02901528 0.56470588 0.92549020 0.07058824
v 0.00449417 -0.02589014 0.02983213 0.56470588 0.92549020 0.07058824
v 0.00393135 -0.02610095 0.02983213 0.56470588 0.92549020 0.07058824
v 0.00352344 -0.02623797 0.02983213 0.56470588 0.92549020 0.07058824
v 0.00851135 -0.02464112 0.02411032 0.56470588 0.92549020 0.07058824
v 0.00891926 -0.02449356 0.02411032 0.56470588 0.92549020 0.07058824
v 0.00349246 -0.02622743 0.03001365 0.56470588 0.92549020 0.07058824
v 0.00612583 0.02488751 0.03001365 0.56470588 0.92549020 0.07058824
v 0.00681773 0.02471887 0.03001365 0.56470588 0.92549020 0.07058824
v 0.00698296 0.02467144 0.03001365 0.56470588 0.92549020 0.07058824
v 0.00781944 0.02441320 0.03001365 0.56470588 0.92549020 0.07058824
v 0.00838743 0.02419713 0.03001365 0.56470588 0.92549020 0.07058824
v 0.00857847 0.02412335 0.03001365 0.56470588 0.92549020 0.07058824
v 0.01332370 0.02190989 0.03001365 0.56470588 0.92549020 0.07058824
v 0.01344762 0.02185192 0.03001365 0.56470588 0.92549020 0.07058824
v 0.01325658 0.02218394 0.02901528 0.56470588 0.92549020 0.07058824
v 0.01113955 0.02354890 0.02329475 0.56470588 0.92549020 0.07058824
v 0.01330821 0.02222083 0.02819715 0.56470588 0.92549020 0.07058824
v 0.01097432 0.02355944 0.02249451 0.56470588 0.92549020 0.07058824
v 0.01066452 0.02371227 0.02277702 0.56470588 0.92549020 0.07058824
v 0.01103112 0.02342242 0.02165976 0.56470588 0.92549020 0.07058824
v 0.01009137 0.02299554 0.01695551 0.56470588 0.92549020 0.07058824
v 0.00991581 0.02305878 0.01695551 0.56470588 0.92549020 0.07058824
v 0.00919809 0.02328539 0.01695551 0.56470588 0.92549020 0.07058824
v 0.00776265 -0.02482558 0.02329475 0.56470588 0.92549020 0.07058824
v 0.00709656 -0.02450410 0.01695551 0.56470588 0.92549020 0.07058824
v 0.00847004 -0.02461477 0.02329475 0.56470588 0.92549020 0.07058824
v 0.00814991 -0.02450937 0.03001365 0.56470588 0.92549020 0.07058824
v 0.00449417 -0.02587960 0.03001365 0.56470588 0.92549020 0.07058824
v 0.00405528 -0.02604298 0.03001365 0.56470588 0.92549020 0.07058824
v 0.00390037 -0.02609568 0.03001365 0.56470588 0.92549020 0.07058824
v 0.00888312 -0.02448302 0.02329475 0.56470588 0.92549020 0.07058824
v 0.00939430 -0.02429330 0.02329475 0.56470588 0.92549020 0.07058824
v 0.00939430 -0.02431438 0.02411032 0.56470588 0.92549020 0.07058824
v 0.01407757 0.02151990 0.03001365 0.56470588 0.92549020 0.07058824
v 0.01422731 0.02144085 0.03001365 0.56470588 0.92549020 0.07058824
v 0.01464038 0.02120370 0.03001365 0.56470588 0.92549020 0.07058824
v 0.01465588 0.02121424 0.02983213 0.56470588 0.92549020 0.07058824
v 0.01219806 0.02284798 0.02165976 0.56470588 0.92549020 0.07058824
v 0.01179015 0.02307986 0.02165976 0.56470588 0.92549020 0.07058824
v 0.01468686 0.02123005 0.02901528 0.56470588 0.92549020 0.07058824
v 0.01572471 0.02058709 0.02329475 0.56470588 0.92549020 0.07058824
v 0.01170237 0.02300081 0.02084291 0.56470588 0.92549020 0.07058824
v 0.01049928 0.02283217 0.01695551 0.56470588 0.92549020 0.07058824
v 0.00733408 -0.02442505 0.01695551 0.56470588 0.92549020 0.07058824
v 0.01021529 -0.02400344 0.02411032 0.56470588 0.92549020 0.07058824
v 0.00856298 -0.02435126 0.03001365 0.56470588 0.92549020 0.07058824
v 0.01066452 -0.02371885 0.02192566 0.56470588 0.92549020 0.07058824
v 0.01021529 -0.02392966 0.02247790 0.56470588 0.92549020 0.07058824
v 0.00971444 -0.02366615 0.01757294 0.56470588 0.92549020 0.07058824
v 0.01071099 -0.02373993 0.02247790 0.56470588 0.92549020 0.07058824
v 0.01021529 -0.02397709 0.02329475 0.56470588 0.92549020 0.07058824
v 0.01512059 0.02087168 0.03001365 0.56470588 0.92549020 0.07058824
v 0.01512059 0.02088749 0.02983213 0.56470588 0.92549020 0.07058824
v 0.01266794 0.02254231 0.02165976 0.56470588 0.92549020 0.07058824
v 0.01266794 0.02249488 0.02084291 0.56470588 0.92549020 0.07058824
v 0.01211029 0.02281108 0.02084291 0.56470588 0.92549020 0.07058824
v 0.01563177 0.02051331 0.02983213 0.56470588 0.92549020 0.07058824
v 0.01603968 0.02018656 0.02983213 0.56470588 0.92549020 0.07058824
v 0.01656119 0.01978603 0.02901528 0.56470588 0.92549020 0.07058824
v 0.01613779 0.02025507 0.02329475 0.56470588 0.92549020 0.07058824
v 0.01609648 0.02024453 0.02247790 0.56470588 0.92549020 0.07058824
v 0.01568857 0.02053966 0.02247790 0.56470588 0.92549020 0.07058824
v 0.01318429 0.02215759 0.02084291 0.56470588 0.92549020 0.07058824
v 0.01103112 0.02258447 0.01695551 0.56470588 0.92549020 0.07058824
v 0.00796402 -0.02420897 0.01695551 0.56470588 0.92549020 0.07058824
v 0.01002941 -0.02378736 0.03001365 0.56470588 0.92549020 0.07058824
v 0.01075229 -0.02376101 0.02329475 0.56470588 0.92549020 0.07058824
v 0.01077811 -0.02377155 0.02411032 0.56470588 0.92549020 0.07058824
v 0.01043732 -0.02362926 0.03001365 0.56470588 0.92549020 0.07058824
v 0.01014300 -0.02358710 0.01842814 0.56470588 0.92549020 0.07058824
v 0.01103112 -0.02332886 0.01920792 0.56470588 0.92549020 0.07058824
v 0.01173852 -0.02301793 0.01920792 0.56470588 0.92549020 0.07058824
v 0.01111890 -0.02355548 0.02247790 0.56470588 0.92549020 0.07058824
v 0.01103112 -0.02324981 0.01839107 0.56470588 0.92549020 0.07058824
v 0.00875920 -0.02392966 0.01695551 0.56470588 0.92549020 0.07058824
v 0.00919293 -0.02377155 0.01695551 0.56470588 0.92549020 0.07058824
v 0.01562661 0.02050804 0.03001365 0.56470588 0.92549020 0.07058824
v 0.01309651 0.02144612 0.01695551 0.56470588 0.92549020 0.07058824
v 0.01266794 0.02170963 0.01695551 0.56470588 0.92549020 0.07058824
v 0.01254918 0.02177814 0.01695551 0.56470588 0.92549020 0.07058824
v 0.01511026 0.02019710 0.01695551 0.56470588 0.92549020 0.07058824
v 0.01481078 0.02038683 0.01695551 0.56470588 0.92549020 0.07058824
v 0.01214643 0.02200475 0.01695551 0.56470588 0.92549020 0.07058824
v 0.01183662 0.02217340 0.01695551 0.56470588 0.92549020 0.07058824
v 0.01173852 0.02222610 0.01695551 0.56470588 0.92549020 0.07058824
v 0.01603452 0.02018656 0.03001365 0.56470588 0.92549020 0.07058824
v 0.01654054 0.01978076 0.02983213 0.56470588 0.92549020 0.07058824
v 0.01697944 0.01945402 0.02819715 0.56470588 0.92549020 0.07058824
v 0.01660767 0.01983873 0.02411032 0.56470588 0.92549020 0.07058824
v 0.01701558 0.01948564 0.02411032 0.56470588 0.92549020 0.07058824
v 0.01660767 0.01984400 0.02329475 0.56470588 0.92549020 0.07058824
v 0.01659734 0.01983346 0.02247790 0.56470588 0.92549020 0.07058824
v 0.01653021 0.01978076 0.02165976 0.56470588 0.92549020 0.07058824
v 0.01583831 0.01970171 0.01695551 0.56470588 0.92549020 0.07058824
v 0.01574020 0.01978076 0.01695551 0.56470588 0.92549020 0.07058824
v 0.01116537 -0.02357129 0.02329475 0.56470588 0.92549020 0.07058824
v 0.01119119 -0.02358710 0.02411032 0.56470588 0.92549020 0.07058824
v 0.01113955 -0.02357129 0.02492846 0.56470588 0.92549020 0.07058824
v 0.01184695 -0.02325508 0.02492846 0.56470588 0.92549020 0.07058824
v 0.01103112 -0.02334994 0.03001365 0.56470588 0.92549020 0.07058824
v 0.01164041 -0.02297576 0.01839107 0.56470588 0.92549020 0.07058824
v 0.01215159 -0.02282820 0.01920792 0.56470588 0.92549020 0.07058824
v 0.01184695 -0.02319184 0.02247790 0.56470588 0.92549020 0.07058824
v 0.01184695 -0.02323400 0.02329475 0.56470588 0.92549020 0.07058824
v 0.01152165 -0.02292833 0.01788869 0.56470588 0.92549020 0.07058824
v 0.00972476 -0.02352386 0.01695551 0.56470588 0.92549020 0.07058824
v 0.01653538 0.01977549 0.03001365 0.56470588 0.92549020 0.07058824
v 0.01694845 0.01941185 0.02983213 0.56470588 0.92549020 0.07058824
v 0.01743382 0.01905875 0.02738029 0.56470588 0.92549020 0.07058824
v 0.01746996 0.01907984 0.02411032 0.56470588 0.92549020 0.07058824
v 0.01701558 0.01948564 0.02329475 0.56470588 0.92549020 0.07058824
v 0.01700525 0.01946983 0.02247790 0.56470588 0.92549020 0.07058824
v 0.01614812 0.01942766 0.01695551 0.56470588 0.92549020 0.07058824
v 0.01184695 -0.02327089 0.02411032 0.56470588 0.92549020 0.07058824
v 0.01240977 -0.02297576 0.02492846 0.56470588 0.92549020 0.07058824
v 0.01167655 -0.02301266 0.03001365 0.56470588 0.92549020 0.07058824
v 0.01204832 -0.02270699 0.01839107 0.56470588 0.92549020 0.07058824
v 0.01275572 -0.02271225 0.02247790 0.56470588 0.92549020 0.07058824
v 0.01234780 -0.02292833 0.02247790 0.56470588 0.92549020 0.07058824
v 0.01319461 -0.02215362 0.01941757 0.56470588 0.92549020 0.07058824
v 0.01328756 -0.02220633 0.02002606 0.56470588 0.92549020 0.07058824
v 0.01339599 -0.02226957 0.02165976 0.56470588 0.92549020 0.07058824
v 0.01238911 -0.02295468 0.02329475 0.56470588 0.92549020 0.07058824
v 0.01242009 -0.02297576 0.02411032 0.56470588 0.92549020 0.07058824
v 0.01073680 -0.02295995 0.01704627 0.56470588 0.92549020 0.07058824
v 0.01101563 -0.02272807 0.01695551 0.56470588 0.92549020 0.07058824
v 0.01110341 -0.02267009 0.01695551 0.56470588 0.92549020 0.07058824
v 0.01410338 -0.02060421 0.01695551 0.56470588 0.92549020 0.07058824
v 0.01056641 -0.02301266 0.01695551 0.56470588 0.92549020 0.07058824
v 0.01694329 0.01940658 0.03001365 0.56470588 0.92549020 0.07058824
v 0.01745447 0.01891119 0.03001365 0.56470588 0.92549020 0.07058824
v 0.01736669 0.01900605 0.02983213 0.56470588 0.92549020 0.07058824
v 0.01831677 0.01829459 0.02411032 0.56470588 0.92549020 0.07058824
v 0.01872469 0.01790460 0.02411032 0.56470588 0.92549020 0.07058824
v 0.01787788 0.01870039 0.02329475 0.56470588 0.92549020 0.07058824
v 0.01746996 0.01907457 0.02329475 0.56470588 0.92549020 0.07058824
v 0.01744415 0.01905875 0.02247790 0.56470588 0.92549020 0.07058824
v 0.01704140 0.01868458 0.01757294 0.56470588 0.92549020 0.07058824
v 0.01657668 0.01902187 0.01695551 0.56470588 0.92549020 0.07058824
v 0.01282801 -0.02273861 0.02411032 0.56470588 0.92549020 0.07058824
v 0.01282284 -0.02272807 0.02492846 0.56470588 0.92549020 0.07058824
v 0.01266794 -0.02244875 0.03001365 0.56470588 0.92549020 0.07058824
v 0.01208447 -0.02278604 0.03001365 0.56470588 0.92549020 0.07058824
v 0.01199153 -0.02283874 0.03001365 0.56470588 0.92549020 0.07058824
v 0.01279703 -0.02273334 0.02329475 0.56470588 0.92549020 0.07058824
v 0.01342697 -0.02230119 0.02247790 0.56470588 0.92549020 0.07058824
v 0.01369547 -0.02185323 0.02002606 0.56470588 0.92549020 0.07058824
v 0.01617393 -0.01891777 0.01695551 0.56470588 0.92549020 0.07058824
v 0.01375743 -0.02196390 0.02084291 0.56470588 0.92549020 0.07058824
v 0.01380390 -0.02200606 0.02165976 0.56470588 0.92549020 0.07058824
v 0.01069550 -0.02293360 0.01695551 0.56470588 0.92549020 0.07058824
v 0.01776945 0.01857390 0.03001365 0.56470588 0.92549020 0.07058824
v 0.01971607 0.01647112 0.03001365 0.56470588 0.92549020 0.07058824
v 0.01909129 0.01749880 0.02411032 0.56470588 0.92549020 0.07058824
v 0.01988647 0.01665031 0.02329475 0.56470588 0.92549020 0.07058824
v 0.01951470 0.01705611 0.02329475 0.56470588 0.92549020 0.07058824
v 0.01910678 0.01747772 0.02329475 0.56470588 0.92549020 0.07058824
v 0.01870920 0.01788352 0.02329475 0.56470588 0.92549020 0.07058824
v 0.01829612 0.01829459 0.02329475 0.56470588 0.92549020 0.07058824
v 0.01785206 0.01867404 0.02247790 0.56470588 0.92549020 0.07058824
v 0.01667479 0.01892700 0.01695551 0.56470588 0.92549020 0.07058824
v 0.01745964 0.01827878 0.01757294 0.56470588 0.92549020 0.07058824
v 0.01348377 -0.02233808 0.02411032 0.56470588 0.92549020 0.07058824
v 0.01390717 -0.02207457 0.02465745 0.56470588 0.92549020 0.07058824
v 0.01355606 -0.02227484 0.02492973 0.56470588 0.92549020 0.07058824
v 0.01387619 -0.02205349 0.02520202 0.56470588 0.92549020 0.07058824
v 0.01316363 -0.02213254 0.03001365 0.56470588 0.92549020 0.07058824
v 0.01389168 -0.02206930 0.02368848 0.56470588 0.92549020 0.07058824
v 0.01649923 -0.01862791 0.01695551 0.56470588 0.92549020 0.07058824
v 0.01424796 -0.02159499 0.02165976 0.56470588 0.92549020 0.07058824
v 0.01831677 -0.01688877 0.01695551 0.56470588 0.92549020 0.07058824
v 0.01841488 -0.01679391 0.01695551 0.56470588 0.92549020 0.07058824
v 0.01717565 -0.01881236 0.02199213 0.56470588 0.92549020 0.07058824
v 0.01556981 -0.02047245 0.02270416 0.56470588 0.92549020 0.07058824
v 0.01472300 -0.02125770 0.02278342 0.56470588 0.92549020 0.07058824
v 0.02190538 0.01369377 0.03001365 0.56470588 0.92549020 0.07058824
v 0.02191571 0.01369904 0.02983213 0.56470588 0.92549020 0.07058824
v 0.02132191 0.01479522 0.02492846 0.56470588 0.92549020 0.07058824
v 0.02029438 0.01616019 0.02329475 0.56470588 0.92549020 0.07058824
v 0.02026856 0.01611803 0.02247790 0.56470588 0.92549020 0.07058824
v 0.01986065 0.01659761 0.02247790 0.56470588 0.92549020 0.07058824
v 0.01698460 0.01862133 0.01695551 0.56470588 0.92549020 0.07058824
v 0.01749578 0.01810486 0.01695551 0.56470588 0.92549020 0.07058824
v 0.01729441 0.01831040 0.01695551 0.56470588 0.92549020 0.07058824
v 0.01786755 0.01784663 0.01757294 0.56470588 0.92549020 0.07058824
v 0.01780043 0.01778339 0.01695551 0.56470588 0.92549020 0.07058824
v 0.01390201 -0.02207457 0.02411032 0.56470588 0.92549020 0.07058824
v 0.01473333 -0.02127351 0.02492846 0.56470588 0.92549020 0.07058824
v 0.01470751 -0.02124716 0.02612242 0.56470588 0.92549020 0.07058824
v 0.01469718 -0.02123662 0.02656344 0.56470588 0.92549020 0.07058824
v 0.01559046 -0.02049353 0.02329475 0.56470588 0.92549020 0.07058824
v 0.01558530 -0.02049353 0.02411032 0.56470588 0.92549020 0.07058824
v 0.01465588 -0.02119973 0.02738029 0.56470588 0.92549020 0.07058824
v 0.01424796 -0.02153175 0.02738029 0.56470588 0.92549020 0.07058824
v 0.01357671 -0.02180053 0.03001365 0.56470588 0.92549020 0.07058824
v 0.01514124 -0.02090461 0.02329475 0.56470588 0.92549020 0.07058824
v 0.01882279 -0.01638284 0.01695551 0.56470588 0.92549020 0.07058824
v 0.01720146 -0.01884398 0.02247790 0.56470588 0.92549020 0.07058824
v 0.01880214 -0.01716809 0.02200875 0.56470588 0.92549020 0.07058824
v 0.01724277 -0.01889142 0.02329475 0.56470588 0.92549020 0.07058824
v 0.02220486 0.01328270 0.03001365 0.56470588 0.92549020 0.07058824
v 0.02165754 0.01429983 0.02492846 0.56470588 0.92549020 0.07058824
v 0.02165237 0.01429983 0.02411032 0.56470588 0.92549020 0.07058824
v 0.02131675 0.01478995 0.02411032 0.56470588 0.92549020 0.07058824
v 0.02129093 0.01476887 0.02329475 0.56470588 0.92549020 0.07058824
v 0.02018595 0.01517994 0.01695551 0.56470588 0.92549020 0.07058824
v 0.01977803 0.01568061 0.01695551 0.56470588 0.92549020 0.07058824
v 0.02195702 0.01374647 0.02247790 0.56470588 0.92549020 0.07058824
v 0.02220486 0.01326689 0.02165976 0.56470588 0.92549020 0.07058824
v 0.01722212 -0.01887034 0.02411032 0.56470588 0.92549020 0.07058824
v 0.01405691 -0.02138945 0.03001365 0.56470588 0.92549020 0.07058824
v 0.01503797 -0.02078866 0.02738029 0.56470588 0.92549020 0.07058824
v 0.01499150 -0.02072015 0.02819715 0.56470588 0.92549020 0.07058824
v 0.01486758 -0.02061475 0.02983213 0.56470588 0.92549020 0.07058824
v 0.01437705 -0.02110487 0.03001365 0.56470588 0.92549020 0.07058824
v 0.02027373 -0.01446451 0.01695551 0.56470588 0.92549020 0.07058824
v 0.02129609 -0.01397439 0.02105128 0.56470588 0.92549020 0.07058824
v 0.02100694 -0.01439073 0.02165976 0.56470588 0.92549020 0.07058824
v 0.02061452 -0.01491247 0.02247790 0.56470588 0.92549020 0.07058824
v 0.02060935 -0.01492828 0.02329475 0.56470588 0.92549020 0.07058824
v 0.01880214 -0.01716809 0.02221967 0.56470588 0.92549020 0.07058824
v 0.02230297 0.01313513 0.03001365 0.56470588 0.92549020 0.07058824
v 0.02199316 0.01376228 0.02492846 0.56470588 0.92549020 0.07058824
v 0.02199316 0.01376755 0.02411032 0.56470588 0.92549020 0.07058824
v 0.02223584 0.01334067 0.02247790 0.56470588 0.92549020 0.07058824
v 0.02161623 0.01429983 0.02329475 0.56470588 0.92549020 0.07058824
v 0.02040798 0.01486901 0.01695551 0.56470588 0.92549020 0.07058824
v 0.02256114 0.01266609 0.02165976 0.56470588 0.92549020 0.07058824
v 0.02279350 0.01205476 0.02084291 0.56470588 0.92549020 0.07058824
v 0.02236493 0.01274515 0.02076238 0.56470588 0.92549020 0.07058824
v 0.01878665 -0.01715227 0.02276424 0.56470588 0.92549020 0.07058824
v 0.02057321 -0.01488612 0.02411032 0.56470588 0.92549020 0.07058824
v 0.02013948 -0.01453302 0.03001365 0.56470588 0.92549020 0.07058824
v 0.01875050 -0.01613514 0.03001365 0.56470588 0.92549020 0.07058824
v 0.01485209 -0.02059894 0.03001365 0.56470588 0.92549020 0.07058824
v 0.01714983 -0.01796914 0.03001365 0.56470588 0.92549020 0.07058824
v 0.02150263 -0.01251984 0.01695551 0.56470588 0.92549020 0.07058824
v 0.02195185 -0.01290455 0.02084291 0.56470588 0.92549020 0.07058824
v 0.02294840 -0.01152378 0.02264536 0.56470588 0.92549020 0.07058824
v 0.02329952 -0.01103366 0.02329475 0.56470588 0.92549020 0.07058824
v 0.02296906 -0.01154486 0.02329475 0.56470588 0.92549020 0.07058824
v 0.02130126 -0.01397966 0.02165976 0.56470588 0.92549020 0.07058824
v 0.02319109 0.01164369 0.03001365 0.56470588 0.92549020 0.07058824
v 0.02223068 0.01336175 0.02411032 0.56470588 0.92549020 0.07058824
v 0.02382103 0.01057912 0.03001365 0.56470588 0.92549020 0.07058824
v 0.02223584 0.01335121 0.02329475 0.56470588 0.92549020 0.07058824
v 0.02261278 0.01266609 0.02247790 0.56470588 0.92549020 0.07058824
v 0.02171434 0.01250799 0.01695551 0.56470588 0.92549020 0.07058824
v 0.02282964 0.01213381 0.02165976 0.56470588 0.92549020 0.07058824
v 0.02300004 0.01172801 0.02165976 0.56470588 0.92549020 0.07058824
v 0.02296389 0.01164369 0.02084291 0.56470588 0.92549020 0.07058824
v 0.02292259 0.01154883 0.02031624 0.56470588 0.92549020 0.07058824
v 0.02197767 0.01201260 0.01695551 0.56470588 0.92549020 0.07058824
v 0.02152329 -0.01255146 0.03001365 0.56470588 0.92549020 0.07058824
v 0.02023242 -0.01440654 0.03001365 0.56470588 0.92549020 0.07058824
v 0.02179695 -0.01200336 0.01695551 0.56470588 0.92549020 0.07058824
v 0.02219454 -0.01249348 0.02084291 0.56470588 0.92549020 0.07058824
v 0.02316010 -0.01110744 0.02241398 0.56470588 0.92549020 0.07058824
v 0.02358867 -0.01035381 0.02247790 0.56470588 0.92549020 0.07058824
v 0.02362482 -0.01044868 0.02329475 0.56470588 0.92549020 0.07058824
v 0.02409469 0.01008900 0.03001365 0.56470588 0.92549020 0.07058824
v 0.02285030 0.01218124 0.02247790 0.56470588 0.92549020 0.07058824
v 0.02455940 0.00925105 0.03001365 0.56470588 0.92549020 0.07058824
v 0.02460588 0.00915619 0.03001365 0.56470588 0.92549020 0.07058824
v 0.02484340 0.00858175 0.03001365 0.56470588 0.92549020 0.07058824
v 0.02450260 0.00812325 0.02229893 0.56470588 0.92549020 0.07058824
v 0.02446646 0.00801257 0.02165976 0.56470588 0.92549020 0.07058824
v 0.02369710 0.00897174 0.01884360 0.56470588 0.92549020 0.07058824
v 0.02306716 0.00943024 0.01695551 0.56470588 0.92549020 0.07058824
v 0.02293291 -0.00989531 0.03001365 0.56470588 0.92549020 0.07058824
v 0.02189506 -0.01181891 0.01695551 0.56470588 0.92549020 0.07058824
v 0.02341312 -0.01021152 0.02084291 0.56470588 0.92549020 0.07058824
v 0.02452326 -0.00818252 0.02205477 0.56470588 0.92549020 0.07058824
v 0.02452842 -0.00819833 0.02247790 0.56470588 0.92549020 0.07058824
v 0.02379005 -0.01003761 0.02329475 0.56470588 0.92549020 0.07058824
v 0.02630466 -0.00347103 0.02819715 0.56470588 0.92549020 0.07058824
v 0.02625818 -0.00341306 0.02901528 0.56470588 0.92549020 0.07058824
v 0.02619106 -0.00331820 0.02983213 0.56470588 0.92549020 0.07058824
v 0.02617557 -0.00329712 0.03001365 0.56470588 0.92549020 0.07058824
v 0.02521516 0.00759096 0.03001365 0.56470588 0.92549020 0.07058824
v 0.02477110 0.00775961 0.02411032 0.56470588 0.92549020 0.07058824
v 0.02505510 0.00694274 0.02411032 0.56470588 0.92549020 0.07058824
v 0.02496732 0.00694274 0.02329475 0.56470588 0.92549020 0.07058824
v 0.02459038 0.00760150 0.02165976 0.56470588 0.92549020 0.07058824
v 0.02452326 0.00736435 0.02040316 0.56470588 0.92549020 0.07058824
v 0.02448712 0.00725894 0.01985859 0.56470588 0.92549020 0.07058824
v 0.02436319 0.00768582 0.02008870 0.56470588 0.92549020 0.07058824
v 0.02419796 0.00775961 0.01920792 0.56470588 0.92549020 0.07058824
v 0.02452842 0.00655802 0.01875667 0.56470588 0.92549020 0.07058824
v 0.02431156 0.00612587 0.01695551 0.56470588 0.92549020 0.07058824
v 0.02342860 0.00856594 0.01695551 0.56470588 0.92549020 0.07058824
v 0.02388299 -0.00764497 0.01695551 0.56470588 0.92549020 0.07058824
v 0.02412051 -0.00694404 0.01695551 0.56470588 0.92549020 0.07058824
v 0.02636662 -0.00285970 0.02574531 0.56470588 0.92549020 0.07058824
v 0.02647505 -0.00285970 0.02656344 0.56470588 0.92549020 0.07058824
v 0.02652152 -0.00285970 0.02738029 0.56470588 0.92549020 0.07058824
v 0.02630982 -0.00346576 0.02738029 0.56470588 0.92549020 0.07058824
v 0.02452842 -0.00819306 0.02295727 0.56470588 0.92549020 0.07058824
v 0.02650087 -0.00285970 0.02819715 0.56470588 0.92549020 0.07058824
v 0.02642341 -0.00285970 0.02901528 0.56470588 0.92549020 0.07058824
v 0.02633048 -0.00285970 0.02983213 0.56470588 0.92549020 0.07058824
v 0.02630466 -0.00285970 0.03001365 0.56470588 0.92549020 0.07058824
v 0.02531843 0.00731165 0.03001365 0.56470588 0.92549020 0.07058824
v 0.02540105 0.00706395 0.03001365 0.56470588 0.92549020 0.07058824
v 0.02544752 0.00687950 0.02983213 0.56470588 0.92549020 0.07058824
v 0.02550432 0.00671085 0.03001365 0.56470588 0.92549020 0.07058824
v 0.02527713 0.00629451 0.02492846 0.56470588 0.92549020 0.07058824
v 0.02526163 0.00609425 0.02408476 0.56470588 0.92549020 0.07058824
v 0.02534941 0.00412849 0.01951472 0.56470588 0.92549020 0.07058824
v 0.02523065 0.00443943 0.01922838 0.56470588 0.92549020 0.07058824
v 0.02497765 0.00530900 0.01920792 0.56470588 0.92549020 0.07058824
v 0.02456457 0.00668977 0.01920792 0.56470588 0.92549020 0.07058824
v 0.02483823 0.00530900 0.01839107 0.56470588 0.92549020 0.07058824
v 0.02436319 0.00593614 0.01695551 0.56470588 0.92549020 0.07058824
v 0.02507059 0.00449213 0.01839107 0.56470588 0.92549020 0.07058824
v 0.02455940 -0.00500464 0.01695551 0.56470588 0.92549020 0.07058824
v 0.02614975 -0.00161595 0.02207522 0.56470588 0.92549020 0.07058824
v 0.02620138 -0.00175297 0.02261979 0.56470588 0.92549020 0.07058824
v 0.02648538 -0.00204283 0.02574531 0.56470588 0.92549020 0.07058824
v 0.02656283 -0.00204283 0.02656344 0.56470588 0.92549020 0.07058824
v 0.02658348 -0.00204283 0.02738029 0.56470588 0.92549020 0.07058824
v 0.02656283 -0.00204283 0.02819715 0.56470588 0.92549020 0.07058824
v 0.02651636 -0.00204283 0.02901528 0.56470588 0.92549020 0.07058824
v 0.02644923 -0.00204283 0.03001365 0.56470588 0.92549020 0.07058824
v 0.02544752 0.00691112 0.03001365 0.56470588 0.92549020 0.07058824
v 0.02565406 0.00612587 0.03001365 0.56470588 0.92549020 0.07058824
v 0.02564373 0.00612587 0.02983213 0.56470588 0.92549020 0.07058824
v 0.02537523 0.00588344 0.02492846 0.56470588 0.92549020 0.07058824
v 0.02535458 0.00579385 0.02434042 0.56470588 0.92549020 0.07058824
v 0.02550432 0.00367526 0.02002606 0.56470588 0.92549020 0.07058824
v 0.02541654 0.00371215 0.01922838 0.56470588 0.92549020 0.07058824
v 0.02531327 0.00400728 0.01897016 0.56470588 0.92549020 0.07058824
v 0.02448195 0.00548818 0.01695551 0.56470588 0.92549020 0.07058824
v 0.02538556 0.00345918 0.01864929 0.56470588 0.92549020 0.07058824
v 0.02487954 0.00449213 0.01757294 0.56470588 0.92549020 0.07058824
v 0.02484340 -0.00122596 0.01695551 0.56470588 0.92549020 0.07058824
v 0.02585027 0.00122465 0.02002606 0.56470588 0.92549020 0.07058824
v 0.02617041 -0.00106785 0.02200875 0.56470588 0.92549020 0.07058824
v 0.02622204 -0.00129447 0.02239992 0.56470588 0.92549020 0.07058824
v 0.02632531 -0.00122596 0.02329475 0.56470588 0.92549020 0.07058824
v 0.02638727 -0.00122596 0.02411032 0.56470588 0.92549020 0.07058824
v 0.02644923 -0.00122596 0.02492846 0.56470588 0.92549020 0.07058824
v 0.02650603 -0.00122596 0.02574531 0.56470588 0.92549020 0.07058824
v 0.02653701 -0.00122596 0.02656344 0.56470588 0.92549020 0.07058824
v 0.02654734 -0.00122596 0.02738029 0.56470588 0.92549020 0.07058824
v 0.02654734 -0.00122596 0.02819715 0.56470588 0.92549020 0.07058824
v 0.02650087 -0.00040382 0.03001365 0.56470588 0.92549020 0.07058824
v 0.02653701 -0.00122596 0.02901528 0.56470588 0.92549020 0.07058824
v 0.02651636 -0.00122596 0.02983213 0.56470588 0.92549020 0.07058824
v 0.02651120 -0.00122596 0.03001365 0.56470588 0.92549020 0.07058824
v 0.02569020 0.00594668 0.03001365 0.56470588 0.92549020 0.07058824
v 0.02576249 0.00285839 0.02084291 0.56470588 0.92549020 0.07058824
v 0.02550432 0.00530900 0.02492846 0.56470588 0.92549020 0.07058824
v 0.02568504 0.00285839 0.02002606 0.56470588 0.92549020 0.07058824
v 0.02456973 0.00513508 0.01695551 0.56470588 0.92549020 0.07058824
v 0.02540105 0.00285839 0.01857515 0.56470588 0.92549020 0.07058824
v 0.02527713 0.00285839 0.01816609 0.56470588 0.92549020 0.07058824
v 0.02482790 0.00367526 0.01695551 0.56470588 0.92549020 0.07058824
v 0.02502412 0.00367526 0.01757294 0.56470588 0.92549020 0.07058824
v 0.02475562 0.00428659 0.01695551 0.56470588 0.92549020 0.07058824
v 0.02471431 0.00452375 0.01695551 0.56470588 0.92549020 0.07058824
v 0.02578831 0.00204152 0.02002606 0.56470588 0.92549020 0.07058824
v 0.02500346 0.00122465 0.01695551 0.56470588 0.92549020 0.07058824
v 0.02601550 0.00122465 0.02084291 0.56470588 0.92549020 0.07058824
v 0.02617557 -0.00040382 0.02199213 0.56470588 0.92549020 0.07058824
v 0.02623753 -0.00040382 0.02247790 0.56470588 0.92549020 0.07058824
v 0.02630982 -0.00040382 0.02329475 0.56470588 0.92549020 0.07058824
v 0.02636662 -0.00040382 0.02411032 0.56470588 0.92549020 0.07058824
v 0.02641825 -0.00040382 0.02492846 0.56470588 0.92549020 0.07058824
v 0.02644407 -0.00040382 0.02574531 0.56470588 0.92549020 0.07058824
v 0.02650087 -0.00040382 0.02983213 0.56470588 0.92549020 0.07058824
v 0.02641825 0.00040778 0.03001365 0.56470588 0.92549020 0.07058824
v 0.02582962 0.00512981 0.03001365 0.56470588 0.92549020 0.07058824
v 0.02591740 0.00204152 0.02084291 0.56470588 0.92549020 0.07058824
v 0.02606198 0.00350135 0.03001365 0.56470588 0.92549020 0.07058824
v 0.02612910 0.00300595 0.03001365 0.56470588 0.92549020 0.07058824
v 0.02617041 0.00266340 0.03001365 0.56470588 0.92549020 0.07058824
f 1 2 3
f 1 3 4
f 1 4 5
f 1 5 6
f 1 6 7
f 1 7 8
f 1 8 9
f 1 9 2
f 2 10 11
f 2 11 3
f 2 9 10
f 3 12 13
f 3 13 14
f 3 14 4
f 3 11 15
f 3 15 12
f 4 14 5
f 5 14 16
f 5 16 17
f 5 17 18
f 5 18 6
f 6 18 19
f 6 19 20
f 6 20 21
f 6 21 7
f 7 21 22
f 7 22 23
f 7 23 24
f 7 24 25
f 7 25 8
f 8 25 26
f 8 26 27
f 8 27 28
f 8 28 9
f 9 28 27
f 9 27 10
f 10 29 11
f 10 27 30
f 10 30 49
f 10 49 75
f 10 75 74
f 10 74 73
f 10 73 72
f 10 72 67
f 10 67 66
f 10 66 89
f 10 89 102
f 10 102 113
f 10 113 121
f 10 121 120
f 10 120 119
f 10 119 134
f 10 134 133
f 10 133 135
f 10 135 154
f 10 154 177
f 10 177 176
f 10 176 202
f 10 202 229
f 10 229 250
f 10 250 273
f 10 273 274
f 10 274 289
f 10 289 317
f 10 317 339
f 10 339 343
f 10 343 365
f 10 365 364
f 10 364 363
f 10 363 362
f 10 362 361
f 10 361 384
f 10 384 382
f 10 382 404
f 10 404 426
f 10 426 441
f 10 441 440
f 10 440 439
f 10 439 462
f 10 462 435
f 10 435 461
f 10 461 460
f 10 460 491
f 10 491 490
f 10 490 489
f 10 489 511
f 10 511 532
f 10 532 553
f 10 553 552
f 10 552 551
f 10 551 548
f 10 548 547
f 10 547 546
f 10 546 550
f 10 550 549
f 10 549 563
f 10 563 562
f 10 562 581
f 10 581 607
f 10 607 629
f 10 629 650
f 10 650 652
f 10 652 651
f 10 651 654
f 10 654 675
f 10 675 674
f 10 674 695
f 10 695 716
f 10 716 721
f 10 721 737
f 10 737 759
f 10 759 758
f 10 758 782
f 10 782 801
f 10 801 823
f 10 823 829
f 10 829 828
f 10 828 826
f 10 826 831
f 10 831 804
f 10 804 784
f 10 784 761
f 10 761 760
f 10 760 739
f 10 739 724
f 10 724 705
f 10 705 684
f 10 684 665
f 10 665 640
f 10 640 639
f 10 639 637
f 10 637 616
f 10 616 596
f 10 596 595
f 10 595 594
f 10 594 619
f 10 619 597
f 10 597 574
f 10 574 544
f 10 544 543
f 10 543 533
f 10 533 512
f 10 512 493
f 10 493 466
f 10 466 465
f 10 465 449
f 10 449 422
f 10 422 425
f 10 425 417
f 10 417 393
f 10 393 368
f 10 368 354
f 10 354 353
f 10 353 346
f 10 346 323
f 10 323 321
f 10 321 320
f 10 320 294
f 10 294 293
f 10 293 262
f 10 262 241
f 10 241 215
f 10 215 214
f 10 214 189
f 10 189 163
f 10 163 139
f 10 139 122
f 10 122 107
f 10 107 94
f 10 94 81
f 10 81 80
f 10 80 79
f 10 79 76
f 10 76 51
f 10 51 50
f 10 50 34
f 10 34 15
f 10 15 29
f 11 29 15
f 12 31 32
f 12 32 13
f 12 15 31
f 13 32 33
f 13 33 14
f 14 33 16
f 15 34 31
f 16 33 35
f 16 35 36
f 16 36 17
f 17 36 37
f 17 37 38
f 17 38 39
f 17 39 40
f 17 40 18
f 18 40 19
f 19 40 20
f 20 40 41
f 20 41 42
f 20 42 43
f 20 43 23
f 20 23 22
f 20 22 21
f 23 43 24
f 24 43 44
f 24 44 45
f 24 45 46
f 24 46 47
f 24 47 25
f 25 47 48
f 25 48 27
f 25 27 26
f 27 48 30
f 30 48 47
f 30 47 49
f 31 33 32
f 31 34 50
f 31 50 35
f 31 35 33
f 35 51 52
f 35 52 53
f 35 53 54
f 35 54 55
f 35 55 37
f 35 37 36
f 35 50 51
f 37 55 38
f 38 55 54
f 38 54 53
f 38 53 39
f 39 53 56
f 39 56 57
f 39 57 40
f 40 57 58
f 40 58 59
f 40 59 41
f 41 59 58
f 41 58 86
f 41 86 85
f 41 85 100
f 41 100 110
f 41 110 112
f 41 112 111
f 41 111 127
f 41 127 126
f 41 126 147
f 41 147 174
f 41 174 201
f 41 201 227
f 41 227 246
f 41 246 270
f 41 270 272
f 41 272 305
f 41 305 304
f 41 304 303
f 41 303 330
f 41 330 328
f 41 328 299
f 41 299 329
f 41 329 332
f 41 332 355
f 41 355 377
f 41 377 403
f 41 403 402
f 41 402 396
f 41 396 395
f 41 395 421
f 41 421 448
f 41 448 474
f 41 474 498
f 41 498 497
f 41 497 496
f 41 496 495
f 41 495 514
f 41 514 534
f 41 534 537
f 41 537 568
f 41 568 584
f 41 584 612
f 41 612 611
f 41 611 610
f 41 610 635
f 41 635 663
f 41 663 679
f 41 679 683
f 41 683 703
f 41 703 704
f 41 704 702
f 41 702 701
f 41 701 723
f 41 723 722
f 41 722 738
f 41 738 747
f 41 747 770
f 41 770 792
f 41 792 818
f 41 818 815
f 41 815 840
f 41 840 845
f 41 845 844
f 41 844 843
f 41 843 841
f 41 841 819
f 41 819 794
f 41 794 774
f 41 774 793
f 41 793 772
f 41 772 771
f 41 771 748
f 41 748 733
f 41 733 732
f 41 732 731
f 41 731 729
f 41 729 713
f 41 713 711
f 41 711 690
f 41 690 669
f 41 669 644
f 41 644 621
f 41 621 620
f 41 620 599
f 41 599 598
f 41 598 575
f 41 575 554
f 41 554 545
f 41 545 520
f 41 520 504
f 41 504 503
f 41 503 502
f 41 502 482
f 41 482 481
f 41 481 480
f 41 480 479
f 41 479 478
f 41 478 477
f 41 477 476
f 41 476 475
f 41 475 452
f 41 452 451
f 41 451 427
f 41 427 407
f 41 407 405
f 41 405 386
f 41 386 385
f 41 385 378
f 41 378 357
f 41 357 341
f 41 341 318
f 41 318 345
f 41 345 337
f 41 337 334
f 41 334 333
f 41 333 319
f 41 319 292
f 41 292 291
f 41 291 259
f 41 259 237
f 41 237 208
f 41 208 181
f 41 181 151
f 41 151 148
f 41 148 130
f 41 130 129
f 41 129 128
f 41 128 115
f 41 115 114
f 41 114 105
f 41 105 101
f 41 101 88
f 41 88 87
f 41 87 62
f 41 62 61
f 41 61 60
f 41 60 42
f 42 60 43
f 43 60 61
f 43 61 62
f 43 62 63
f 43 63 44
f 44 63 64
f 44 64 45
f 45 65 66
f 45 66 67
f 45 67 68
f 45 68 46
f 45 64 69
f 45 69 70
f 45 70 71
f 45 71 65
f 46 68 72
f 46 72 73
f 46 73 74
f 46 74 75
f 46 75 47
f 47 75 49
f 51 76 77
f 51 77 78
f 51 78 53
f 51 53 52
f 53 78 56
f 56 78 77
f 56 77 76
f 56 76 79
f 56 79 80
f 56 80 81
f 56 81 82
f 56 82 83
f 56 83 84
f 56 84 57
f 57 85 86
f 57 86 58
f 57 84 85
f 62 87 64
f 62 64 63
f 64 87 88
f 64 88 69
f 65 71 66
f 66 71 89
f 67 72 68
f 69 88 70
f 70 90 91
f 70 91 71
f 70 88 90
f 71 91 92
f 71 92 93
f 71 93 89
f 81 94 82
f 82 94 95
f 82 95 96
f 82 96 83
f 83 97 98
f 83 98 85
f 83 85 84
f 83 96 99
f 83 99 97
f 85 98 100
f 88 101 90
f 89 93 102
f 90 103 104
f 90 104 91
f 90 101 105
f 90 105 103
f 91 104 92
f 92 104 106
f 92 106 102
f 92 102 93
f 94 107 95
f 95 108 96
f 95 107 108
f 96 108 109
f 96 109 99
f 97 110 98
f 97 99 110
f 98 110 100
f 99 109 111
f 99 111 112
f 99 112 110
f 102 106 113
f 103 105 114
f 103 114 115
f 103 115 116
f 103 116 104
f 104 116 106
f 106 116 117
f 106 117 118
f 106 118 119
f 106 119 120
f 106 120 121
f 106 121 113
f 107 122 108
f 108 122 123
f 108 123 124
f 108 124 125
f 108 125 109
f 109 125 126
f 109 126 127
f 109 127 111
f 115 128 116
f 116 128 129
f 116 129 130
f 116 130 131
f 116 131 117
f 117 131 132
f 117 132 118
f 118 133 134
f 118 134 119
f 118 132 135
f 118 135 133
f 122 136 137
f 122 137 138
f 122 138 123
f 122 139 140
f 122 140 141
f 122 141 136
f 123 138 142
f 123 142 143
f 123 143 124
f 124 143 144
f 124 144 125
f 125 145 126
f 125 144 168
f 125 168 145
f 126 145 146
f 126 146 147
f 130 148 131
f 131 149 150
f 131 150 132
f 131 148 151
f 131 151 152
f 131 152 149
f 132 150 153
f 132 153 154
f 132 154 135
f 136 155 137
f 136 141 156
f 136 156 157
f 136 157 155
f 137 155 157
f 137 157 156
f 137 156 158
f 137 158 159
f 137 159 160
f 137 160 138
f 138 160 142
f 139 161 162
f 139 162 140
f 139 163 161
f 140 162 164
f 140 164 165
f 140 165 166
f 140 166 156
f 140 156 141
f 142 160 167
f 142 167 143
f 143 168 144
f 143 167 169
f 143 169 170
f 143 170 168
f 145 168 171
f 145 171 146
f 146 171 168
f 146 168 172
f 146 172 173
f 146 173 147
f 147 173 174
f 149 152 175
f 149 175 150
f 150 176 177
f 150 177 154
f 150 154 153
f 150 175 178
f 150 178 179
f 150 179 180
f 150 180 176
f 151 181 209
f 151 209 182
f 151 182 152
f 152 182 183
f 152 183 184
f 152 184 185
f 152 185 178
f 152 178 175
f 156 166 158
f 158 186 169
f 158 169 167
f 158 167 187
f 158 187 159
f 158 166 188
f 158 188 186
f 159 187 160
f 160 187 167
f 161 163 162
f 162 163 189
f 162 189 190
f 162 190 191
f 162 191 164
f 164 191 165
f 165 192 166
f 165 191 193
f 165 193 192
f 166 192 188
f 168 170 194
f 168 194 198
f 168 198 172
f 169 186 195
f 169 195 196
f 169 196 197
f 169 197 170
f 170 197 222
f 170 222 194
f 172 198 173
f 173 198 199
f 173 199 200
f 173 200 201
f 173 201 174
f 176 180 202
f 178 185 203
f 178 203 179
f 179 203 204
f 179 204 205
f 179 205 206
f 179 206 180
f 180 206 207
f 180 207 202
f 181 208 209
f 182 209 183
f 183 209 210
f 183 210 184
f 184 210 211
f 184 211 185
f 185 212 203
f 185 211 213
f 185 213 212
f 186 188 195
f 188 192 195
f 189 214 191
f 189 191 190
f 191 214 215
f 191 215 216
f 191 216 217
f 191 217 218
f 191 218 219
f 191 219 220
f 191 220 192
f 191 192 193
f 192 220 221
f 192 221 196
f 192 196 195
f 194 222 199
f 194 199 198
f 196 221 223
f 196 223 197
f 197 223 219
f 197 219 222
f 199 224 200
f 199 222 219
f 199 219 225
f 199 225 226
f 199 226 224
f 200 224 227
f 200 227 201
f 202 207 228
f 202 228 229
f 203 212 230
f 203 230 231
f 203 231 204
f 204 231 205
f 205 231 232
f 205 232 233
f 205 233 234
f 205 234 228
f 205 228 206
f 206 228 207
f 208 235 236
f 208 236 209
f 208 237 238
f 208 238 235
f 209 236 210
f 210 236 239
f 210 239 211
f 211 239 213
f 212 213 230
f 213 239 240
f 213 240 230
f 215 241 242
f 215 242 216
f 216 243 217
f 216 242 243
f 217 243 244
f 217 244 218
f 218 244 245
f 218 245 226
f 218 226 225
f 218 225 219
f 219 223 220
f 220 223 221
f 224 246 227
f 224 226 247
f 224 247 248
f 224 248 270
f 224 270 246
f 226 245 249
f 226 249 247
f 228 234 229
f 229 234 251
f 229 251 250
f 230 240 232
f 230 232 231
f 232 252 253
f 232 253 233
f 232 240 254
f 232 254 255
f 232 255 256
f 232 256 252
f 233 253 257
f 233 257 234
f 234 257 251
f 235 238 258
f 235 258 236
f 236 258 239
f 237 259 260
f 237 260 238
f 238 260 258
f 239 258 261
f 239 261 240
f 240 261 254
f 241 262 242
f 242 262 263
f 242 263 243
f 243 264 265
f 243 265 244
f 243 263 266
f 243 266 264
f 244 265 267
f 244 267 245
f 245 268 269
f 245 269 249
f 245 267 268
f 247 249 269
f 247 269 271
f 247 271 248
f 248 271 272
f 248 272 270
f 250 251 273
f 251 257 274
f 251 274 273
f 252 275 276
f 252 276 257
f 252 257 253
f 252 256 277
f 252 277 275
f 254 261 278
f 254 278 255
f 255 278 279
f 255 279 280
f 255 280 256
f 256 280 281
f 256 281 282
f 256 282 283
f 256 283 277
f 257 284 285
f 257 285 286
f 257 286 287
f 257 287 288
f 257 288 289
f 257 289 274
f 257 276 284
f 258 260 290
f 258 290 261
f 259 291 260
f 260 291 292
f 260 292 290
f 261 290 278
f 262 293 263
f 263 293 294
f 263 294 295
f 263 295 296
f 263 296 266
f 264 297 265
f 264 266 297
f 265 297 298
f 265 298 299
f 265 299 300
f 265 300 267
f 266 296 301
f 266 301 302
f 266 302 297
f 267 300 330
f 267 330 303
f 267 303 304
f 267 304 268
f 268 304 305
f 268 305 269
f 269 305 272
f 269 272 271
f 275 277 284
f 275 284 276
f 277 283 306
f 277 306 284
f 278 290 307
f 278 307 308
f 278 308 279
f 279 308 309
f 279 309 280
f 280 309 310
f 280 310 281
f 281 310 311
f 281 311 312
f 281 312 282
f 282 313 283
f 282 312 314
f 282 314 315
f 282 315 313
f 283 313 306
f 284 306 316
f 284 316 286
f 284 286 285
f 286 316 287
f 287 317 289
f 287 289 288
f 287 316 315
f 287 315 318
f 287 318 317
f 290 292 307
f 292 319 307
f 294 320 295
f 295 320 321
f 295 321 296
f 296 322 301
f 296 321 323
f 296 323 324
f 296 324 325
f 296 325 326
f 296 326 322
f 297 302 298
f 298 302 327
f 298 327 299
f 299 328 300
f 299 327 302
f 299 302 329
f 300 328 330
f 301 322 326
f 301 326 331
f 301 331 302
f 302 331 332
f 302 332 329
f 306 313 316
f 307 319 308
f 308 319 333
f 308 333 309
f 309 333 334
f 309 334 335
f 309 335 310
f 310 335 336
f 310 336 311
f 311 337 312
f 311 336 337
f 312 337 338
f 312 338 318
f 312 318 314
f 313 315 316
f 314 318 315
f 317 318 340
f 317 340 339
f 318 341 342
f 318 342 343
f 318 343 344
f 318 344 340
f 318 338 345
f 323 346 325
f 323 325 324
f 325 347 348
f 325 348 349
f 325 349 350
f 325 350 351
f 325 351 352
f 325 352 326
f 325 346 353
f 325 353 354
f 325 354 347
f 326 352 331
f 331 355 332
f 331 352 356
f 331 356 355
f 334 336 335
f 334 337 336
f 337 345 338
f 339 340 344
f 339 344 343
f 341 357 342
f 342 358 359
f 342 359 360
f 342 360 361
f 342 361 362
f 342 362 363
f 342 363 364
f 342 364 365
f 342 365 343
f 342 357 366
f 342 366 358
f 347 367 348
f 347 354 368
f 347 368 367
f 348 369 370
f 348 370 349
f 348 367 371
f 348 371 372
f 348 372 369
f 349 370 373
f 349 373 374
f 349 374 350
f 350 374 351
f 351 374 375
f 351 375 352
f 352 375 376
f 352 376 356
f 355 356 376
f 355 376 377
f 357 378 366
f 358 366 379
f 358 379 380
f 358 380 359
f 359 380 381
f 359 381 382
f 359 382 383
f 359 383 360
f 360 383 361
f 361 383 384
f 366 378 385
f 366 385 386
f 366 386 387
f 366 387 406
f 366 406 388
f 366 388 389
f 366 389 390
f 366 390 391
f 366 391 392
f 366 392 380
f 366 380 379
f 367 368 371
f 368 393 371
f 369 394 395
f 369 395 396
f 369 396 397
f 369 397 370
f 369 372 398
f 369 398 394
f 370 397 374
f 370 374 373
f 371 399 400
f 371 400 372
f 371 393 399
f 372 400 401
f 372 401 398
f 374 402 403
f 374 403 377
f 374 377 375
f 374 397 396
f 374 396 402
f 375 377 376
f 380 392 381
f 381 392 391
f 381 391 404
f 381 404 382
f 382 384 383
f 386 405 387
f 387 405 407
f 387 407 406
f 388 408 409
f 388 409 410
f 388 410 389
f 388 406 408
f 389 411 412
f 389 412 413
f 389 413 390
f 389 410 411
f 390 413 414
f 390 414 415
f 390 415 391
f 391 415 404
f 393 416 399
f 393 417 416
f 394 418 395
f 394 398 419
f 394 419 420
f 394 420 418
f 395 418 421
f 398 401 422
f 398 422 423
f 398 423 419
f 399 416 400
f 400 416 424
f 400 424 425
f 400 425 401
f 401 425 422
f 404 415 426
f 406 407 427
f 406 427 428
f 406 428 429
f 406 429 408
f 408 429 430
f 408 430 431
f 408 431 432
f 408 432 409
f 409 432 433
f 409 433 434
f 409 434 410
f 410 434 435
f 410 435 436
f 410 436 411
f 411 436 412
f 412 436 437
f 412 437 413
f 413 437 414
f 414 438 415
f 414 437 436
f 414 436 439
f 414 439 438
f 415 438 440
f 415 440 441
f 415 441 426
f 416 417 424
f 417 425 424
f 418 420 447
f 418 447 421
f 419 423 442
f 419 442 443
f 419 443 444
f 419 444 445
f 419 445 420
f 420 445 446
f 420 446 447
f 421 447 448
f 422 449 450
f 422 450 423
f 423 450 443
f 423 443 442
f 427 451 428
f 428 451 452
f 428 452 453
f 428 453 429
f 429 453 454
f 429 454 430
f 430 454 455
f 430 455 456
f 430 456 457
f 430 457 431
f 431 458 459
f 431 459 432
f 431 457 458
f 432 459 433
f 433 459 460
f 433 460 434
f 434 460 461
f 434 461 435
f 435 462 436
f 436 462 439
f 438 439 440
f 443 463 464
f 443 464 444
f 443 450 465
f 443 465 466
f 443 466 463
f 444 464 445
f 445 464 463
f 445 463 467
f 445 467 446
f 446 468 469
f 446 469 470
f 446 470 471
f 446 471 447
f 446 467 472
f 446 472 473
f 446 473 468
f 447 471 448
f 448 471 474
f 449 465 450
f 452 475 453
f 453 475 455
f 453 455 454
f 455 457 456
f 455 475 476
f 455 476 477
f 455 477 478
f 455 478 479
f 455 479 480
f 455 480 481
f 455 481 482
f 455 482 483
f 455 483 457
f 457 484 458
f 457 483 485
f 457 485 484
f 458 484 486
f 458 486 487
f 458 487 459
f 459 487 486
f 459 486 488
f 459 488 489
f 459 489 490
f 459 490 491
f 459 491 460
f 463 466 492
f 463 492 467
f 466 493 492
f 467 492 494
f 467 494 472
f 468 473 495
f 468 495 469
f 469 496 470
f 469 495 496
f 470 496 497
f 470 497 498
f 470 498 471
f 471 498 474
f 472 494 499
f 472 499 473
f 473 499 500
f 473 500 501
f 473 501 495
f 482 502 483
f 483 502 503
f 483 503 504
f 483 504 505
f 483 505 485
f 484 485 506
f 484 506 507
f 484 507 486
f 485 505 508
f 485 508 509
f 485 509 506
f 486 507 488
f 488 507 510
f 488 510 511
f 488 511 489
f 492 493 494
f 493 512 499
f 493 499 494
f 495 501 513
f 495 513 514
f 499 515 516
f 499 516 500
f 499 512 517
f 499 517 515
f 500 516 518
f 500 518 519
f 500 519 513
f 500 513 501
f 504 520 505
f 505 520 521
f 505 521 508
f 506 509 522
f 506 522 523
f 506 523 507
f 507 523 524
f 507 524 510
f 508 521 525
f 508 525 509
f 509 525 526
f 509 526 527
f 509 527 528
f 509 528 529
f 509 529 530
f 509 530 531
f 509 531 522
f 510 524 511
f 511 524 532
f 512 533 517
f 513 534 514
f 513 519 535
f 513 535 536
f 513 536 537
f 513 537 534
f 515 518 516
f 515 517 538
f 515 538 539
f 515 539 540
f 515 540 541
f 515 541 518
f 517 542 539
f 517 539 538
f 517 533 543
f 517 543 544
f 517 544 542
f 518 535 519
f 518 541 535
f 520 545 521
f 521 545 525
f 522 531 523
f 523 546 547
f 523 547 548
f 523 548 524
f 523 531 549
f 523 549 550
f 523 550 546
f 524 548 551
f 524 551 552
f 524 552 553
f 524 553 532
f 525 545 554
f 525 554 526
f 526 554 527
f 527 554 555
f 527 555 556
f 527 556 528
f 528 556 557
f 528 557 558
f 528 558 559
f 528 559 560
f 528 560 529
f 529 560 561
f 529 561 562
f 529 562 563
f 529 563 531
f 529 531 530
f 531 563 549
f 535 541 564
f 535 564 565
f 535 565 536
f 536 565 566
f 536 566 537
f 537 566 567
f 537 567 568
f 539 542 540
f 540 569 570
f 540 570 541
f 540 542 569
f 541 570 571
f 541 571 572
f 541 572 564
f 542 544 573
f 542 573 569
f 544 574 573
f 554 575 555
f 555 575 598
f 555 598 576
f 555 576 556
f 556 576 577
f 556 577 578
f 556 578 558
f 556 558 557
f 558 578 579
f 558 579 559
f 559 579 560
f 560 579 580
f 560 580 561
f 561 580 581
f 561 581 562
f 564 572 582
f 564 582 565
f 565 582 567
f 565 567 566
f 567 582 583
f 567 583 568
f 568 583 584
f 569 573 585
f 569 585 570
f 570 586 587
f 570 587 571
f 570 585 588
f 570 588 589
f 570 589 590
f 570 590 586
f 571 587 591
f 571 591 572
f 572 591 592
f 572 592 582
f 573 574 593
f 573 593 594
f 573 594 595
f 573 595 596
f 573 596 585
f 574 597 593
f 576 598 599
f 576 599 600
f 576 600 577
f 577 601 578
f 577 600 599
f 577 599 602
f 577 602 601
f 578 601 603
f 578 603 604
f 578 604 579
f 579 604 580
f 580 604 603
f 580 603 605
f 580 605 581
f 581 605 606
f 581 606 607
f 582 592 583
f 583 592 608
f 583 608 609
f 583 609 610
f 583 610 611
f 583 611 612
f 583 612 584
f 585 596 588
f 586 613 591
f 586 591 587
f 586 590 614
f 586 614 613
f 588 615 589
f 588 596 616
f 588 616 615
f 589 615 617
f 589 617 618
f 589 618 590
f 590 618 614
f 591 613 592
f 592 613 608
f 593 619 594
f 593 597 619
f 599 620 602
f 601 602 603
f 602 621 622
f 602 622 623
f 602 623 624
f 602 624 625
f 602 625 626
f 602 626 627
f 602 627 603
f 602 620 621
f 603 627 628
f 603 628 605
f 605 628 606
f 606 629 607
f 606 628 630
f 606 630 629
f 608 613 631
f 608 631 632
f 608 632 609
f 609 632 633
f 609 633 610
f 610 633 634
f 610 634 635
f 613 614 636
f 613 636 631
f 614 618 636
f 615 616 637
f 615 637 617
f 617 638 618
f 617 637 639
f 617 639 640
f 617 640 641
f 617 641 642
f 617 642 638
f 618 638 642
f 618 642 643
f 618 643 636
f 621 644 645
f 621 645 646
f 621 646 647
f 621 647 623
f 621 623 622
f 623 647 648
f 623 648 649
f 623 649 624
f 624 649 628
f 624 628 625
f 625 628 626
f 626 628 627
f 628 649 630
f 629 630 650
f 630 651 652
f 630 652 650
f 630 649 653
f 630 653 654
f 630 654 651
f 631 636 655
f 631 655 632
f 632 656 657
f 632 657 658
f 632 658 634
f 632 634 633
f 632 655 659
f 632 659 660
f 632 660 656
f 634 658 661
f 634 661 662
f 634 662 635
f 635 662 663
f 636 643 664
f 636 664 659
f 636 659 655
f 640 665 641
f 641 666 642
f 641 665 667
f 641 667 666
f 642 666 668
f 642 668 659
f 642 659 643
f 643 659 664
f 644 669 645
f 645 669 646
f 646 670 671
f 646 671 672
f 646 672 647
f 646 669 670
f 647 672 673
f 647 673 648
f 648 674 675
f 648 675 649
f 648 673 676
f 648 676 677
f 648 677 674
f 649 675 653
f 653 675 654
f 656 660 657
f 657 660 658
f 658 660 678
f 658 678 661
f 659 668 660
f 660 668 678
f 661 679 663
f 661 663 662
f 661 678 680
f 661 680 681
f 661 681 682
f 661 682 683
f 661 683 679
f 665 684 685
f 665 685 667
f 666 667 668
f 667 685 686
f 667 686 687
f 667 687 688
f 667 688 689
f 667 689 668
f 668 689 678
f 669 690 670
f 670 690 691
f 670 691 692
f 670 692 671
f 671 692 693
f 671 693 694
f 671 694 672
f 672 694 673
f 673 694 676
f 674 677 695
f 676 694 693
f 676 693 677
f 677 693 696
f 677 696 697
f 677 697 698
f 677 698 695
f 678 682 681
f 678 681 680
f 678 689 699
f 678 699 700
f 678 700 701
f 678 701 702
f 678 702 682
f 682 703 683
f 682 702 704
f 682 704 703
f 684 705 706
f 684 706 685
f 685 706 707
f 685 707 708
f 685 708 709
f 685 709 710
f 685 710 686
f 686 688 687
f 686 710 688
f 688 710 709
f 688 709 700
f 688 700 699
f 688 699 689
f 690 711 691
f 691 712 692
f 691 711 713
f 691 713 712
f 692 712 714
f 692 714 693
f 693 714 715
f 693 715 696
f 695 698 697
f 695 697 716
f 696 715 717
f 696 717 697
f 697 717 718
f 697 718 719
f 697 719 720
f 697 720 721
f 697 721 716
f 700 709 722
f 700 722 723
f 700 723 701
f 705 724 725
f 705 725 706
f 706 725 707
f 707 725 726
f 707 726 708
f 708 726 727
f 708 727 728
f 708 728 722
f 708 722 709
f 712 713 714
f 713 729 714
f 714 729 715
f 715 730 717
f 715 729 731
f 715 731 732
f 715 732 730
f 717 730 732
f 717 732 718
f 718 732 733
f 718 733 734
f 718 734 719
f 719 734 735
f 719 735 736
f 719 736 720
f 720 736 721
f 721 736 737
f 722 728 738
f 724 739 740
f 724 740 725
f 725 727 726
f 725 740 727
f 727 740 741
f 727 741 728
f 728 741 742
f 728 742 743
f 728 743 744
f 728 744 745
f 728 745 746
f 728 746 747
f 728 747 738
f 733 748 749
f 733 749 734
f 734 749 750
f 734 750 751
f 734 751 735
f 735 751 752
f 735 752 753
f 735 753 754
f 735 754 755
f 735 755 736
f 736 755 754
f 736 754 756
f 736 756 757
f 736 757 758
f 736 758 759
f 736 759 737
f 739 760 740
f 740 760 741
f 741 760 761
f 741 761 762
f 741 762 763
f 741 763 764
f 741 764 765
f 741 765 742
f 742 766 743
f 742 765 744
f 742 744 766
f 743 766 744
f 744 765 764
f 744 764 767
f 744 767 745
f 745 767 768
f 745 768 769
f 745 769 746
f 746 769 747
f 747 769 770
f 748 771 749
f 749 771 750
f 750 771 772
f 750 772 773
f 750 773 774
f 750 774 775
f 750 775 776
f 750 776 777
f 750 777 751
f 751 753 752
f 751 777 778
f 751 778 753
f 753 778 779
f 753 779 754
f 754 780 757
f 754 757 756
f 754 779 780
f 757 780 779
f 757 779 781
f 757 781 758
f 758 781 783
f 758 783 782
f 761 784 785
f 761 785 786
f 761 786 762
f 762 786 763
f 763 786 787
f 763 787 788
f 763 788 764
f 764 788 789
f 764 789 790
f 764 790 767
f 767 790 791
f 767 791 792
f 767 792 768
f 768 792 769
f 769 792 770
f 772 793 773
f 773 793 774
f 774 794 795
f 774 795 775
f 775 795 796
f 775 796 797
f 775 797 776
f 776 797 798
f 776 798 777
f 777 798 799
f 777 799 800
f 777 800 778
f 778 800 779
f 779 800 781
f 781 800 783
f 782 783 801
f 783 800 802
f 783 802 803
f 783 803 801
f 784 804 805
f 784 805 785
f 785 806 807
f 785 807 786
f 785 805 806
f 786 807 808
f 786 808 787
f 787 808 788
f 788 808 809
f 788 809 810
f 788 810 811
f 788 811 812
f 788 812 789
f 789 812 813
f 789 813 814
f 789 814 815
f 789 815 816
f 789 816 817
f 789 817 790
f 790 817 818
f 790 818 791
f 791 818 792
f 794 819 795
f 795 819 820
f 795 820 821
f 795 821 796
f 796 821 797
f 797 821 820
f 797 820 798
f 798 820 822
f 798 822 799
f 799 822 802
f 799 802 800
f 801 803 823
f 802 824 825
f 802 825 826
f 802 826 827
f 802 827 828
f 802 828 829
f 802 829 803
f 802 822 830
f 802 830 805
f 802 805 824
f 803 829 823
f 804 831 805
f 805 831 824
f 805 830 832
f 805 832 806
f 806 832 833
f 806 833 807
f 807 833 834
f 807 834 808
f 808 834 835
f 808 835 809
f 809 835 810
f 810 835 836
f 810 836 811
f 811 836 837
f 811 837 812
f 812 837 838
f 812 838 839
f 812 839 813
f 813 839 815
f 813 815 814
f 815 839 840
f 815 818 817
f 815 817 816
f 819 841 842
f 819 842 820
f 820 842 822
f 822 842 830
f 824 831 825
f 825 831 826
f 826 828 827
f 830 842 832
f 832 842 837
f 832 837 836
f 832 836 835
f 832 835 834
f 832 834 833
f 837 842 843
f 837 843 844
f 837 844 838
f 838 840 839
f 838 844 845
f 838 845 840
f 841 843 842

