mtllib panda_panda_leftfinger_geometry_panda_leftfinger.mtl
v -0.0008604881536524776 0.0019130107682710906 0.043564977097098764
v -0.0017403963988384858 0.009388565247697949 0.04441362334323698
v -0.0015255803185836865 0.0019125337821403676 0.045917515433785513
v -0.0012969972015389039 0.009390770619373894 0.04621160477959206
v 0.00015645803538919935 0.009388386433778277 0.04676586604085701
v 0.0008612161500398988 0.0019131298285392717 0.04643499347310394
v -0.00015572503779847182 0.009388386433778277 0.04323405684562526
v -0.002086460296119258 0.00943106335593981 0.04526871642837853
v -0.002153158355068991 0.010886538328588538 0.04542040311146652
v -0.0014647843128348503 0.009429215612103208 0.046551704147250045
v -0.0010701412039554675 0.010883559288686815 0.04698097207212866
v 0.0007216021487597918 0.00943356555872241 0.0429896777783762
v -0.0007234781308536287 0.010894768537264605 0.04287755427813632
v -0.000697705151389871 0.009431598605606027 0.04301643311391444
v -1.1207403242696939e-05 0.009430169286341454 0.04711711386235359
v -0.0018193123695257754 0.009437560261687865 0.043879031616653054
v -0.001967191376153649 0.010889698566595527 0.0440769142881022
v -0.002886593667501183 0.009435174883999451 0.04399472662755381
v -0.002975225495409359 0.00943678540136929 0.04570305313273979
v -0.0030093786662218 0.010894168914587308 0.04527872524129864
v -0.0024552346110477043 0.010896199048621975 0.043268565554106846
v -0.001791715413031984 0.00943350595408252 0.04755115492764814
v 0.0003597150775174404 0.010899659694014012 0.04796832549265142
v -0.001870930301077408 0.010906689465242687 0.04741126519699671
v 0.0005209800981612444 0.009434280814401095 0.04803037154968644
v -0.0017846823614521027 0.009434102000481424 0.04249650413136546
v -0.000970155210304963 0.010884999336786568 0.04216766289010308
v 1.483990316545284e-05 0.009437737883514739 0.041942471751958615
v 0.0010255572925594026 0.010894768537264605 0.04214996746144823
v 0.0022630693437829252 -8.376429102266387e-05 0.04726266365062111
v 0.004843115958946414 -1.7061198361790228e-05 0.05371719403805908
v 0.0022689705029139574 -3.6476395828721086e-05 0.05374616666659772
v 0.00707507226748054 -1.88820979915329e-05 0.052769246444106986
v 0.008674920287524372 -6.999639453395912e-06 0.05031853686378075
v 0.00875699709320705 -2.9777297637981965e-05 0.04727178554634106
v 0.008758903250158824 -2.8757196822545047e-05 0.04272794183688741
v 0.0022702214556664705 -3.438309950221987e-05 0.03624880188133095
v 0.008762599931026524 1.0841498427044675e-05 0.03626585357975988
v 0.0022482273369921527 -7.642189345776379e-05 0.0427520841045456
v -0.0022622944832334235 -8.376429102266387e-05 0.04726266365062111
v -0.0022682545019638892 -3.647609780552163e-05 0.05374616666659772
v -0.0056919461866199944 1.1034099412149929e-05 0.05360394520201684
v -0.007818164130499253 -3.9731097876711906e-05 0.05191779639520697
v -0.008709372971741522 -1.0308499068815286e-05 0.049939456054664016
v -0.008757712349098898 -2.8975997073680255e-05 0.047271904755642156
v -0.00875878523293667 -3.0448396988716816e-05 0.042723893489022155
v -0.002273738428491343 -3.683739505550734e-05 0.03624957435760206
v -0.0022439954062987203 -7.469449511438984e-05 0.042755603163113984
v -0.008771956670185046 2.7542596288259493e-05 0.0362644111472166
v 0.008809329982627243 0.0015646209030536489 0.04499995190649705
v 0.008785964956826884 0.009348153301852251 0.05057120336164208
v 0.008931339524751782 0.009313641023262906 0.0360903727201729
v -0.008804025168096039 0.0015588988576241696 0.04499995190649705
v -0.008893073334537928 0.00934207362858343 0.04989963537972554
v -0.008930685065610742 0.009314415883581482 0.0360903727201729
v 3.652340881380141e-07 0.0015588988576241696 0.053804035629722295
v 3.6521007747269943e-07 0.0014886258812629753 0.04499995190649705
v 3.656140751065174e-07 0.0015611639829516048 0.03619641416187082
v 0.004730045923376819 0.009351370760313536 0.05389988467617641
v -0.005339801869200296 0.00935518664935932 0.05381947561840039
v -0.0027071237452817687 0.009383677667226935 0.04193902421897089
v -0.003944575744812705 0.00940042657103614 0.04425376367046577
v 0.007492722699708536 0.009395002548806113 0.04425060223980067
v 0.007497490476274278 0.009394822542793644 0.045753712317334015
v 0.0021856424464554765 0.009390829031920987 0.04837530604659692
v 0.0025462504762503954 0.009436606587449619 0.046798462632149
v -0.007258475203035252 0.009387790387379373 0.05068916811763572
v -0.007860780268628693 0.009355304666546303 0.052191434193317295
v 0.007498384546139087 0.009393868868555397 0.03750687485627318
v 0.0007541321357326707 0.009395060961353206 0.037502583321433684
v -0.004972160042767276 0.009392737572490277 0.05243790657589362
v -0.0007557591938749801 0.009394406502407209 0.03750163203121093
v -0.007492483685031344 0.009393868868555397 0.03750175124051203
v -0.007496536205705237 0.009394822542793644 0.04424685429937418
v 0.0034452678256686247 0.009386717503861346 0.04705679395599846
v 0.006868661338024816 0.009352145620632111 0.053102856057413245
v 0.007365287345597756 0.009393691246728524 0.0503267670739285
v 0.005344451032497306 0.00938582343426299 0.0523557046102291
v -0.0074918286298437265 0.009394822542793644 0.04574936356202999
v -0.0007535541195650712 0.009394704525606661 0.052497263271095884
v 0.003923535598684139 0.00938993496232263 0.04573357548219269
v -0.0007304751961214512 0.009391901915439014 0.04108011166782219
v 0.003038406432522575 0.009433626355455098 0.04465281442170229
v 0.0007498091589246719 0.009395060961353206 0.05249238522649499
v 0.003923356784711177 0.009390353386894661 0.04426658582289177
v 0.0007340021527264812 0.00938993496232263 0.04107677380739147
v 0.00207763955184469 0.009434341611133783 0.04267549451277673
v 0.0020570754979191354 0.009386717503861346 0.04155498430292851
v 0.003375649585528779 0.009390829031920987 0.04281467375599362
v -0.0007330491487564161 0.009390353386894661 0.04892301079630152
v -0.00392264152881933 0.009390353386894661 0.04573339428405502
v -0.002056360391038932 0.009386717503861346 0.04844492427843763
v -0.0033748747249792775 0.009390829031920987 0.04718530635095318
v 0.0007340021527264812 0.00938993496232263 0.04892319676281123
v 0.007333220635826493 0.001442192972718748 0.037672754598749796
v 0.007331074272104373 0.0014416568289829337 0.044080314137369486
v 0.004115462596329947 0.001433609904574529 0.04404103228847197
v 0.0009136172122872827 0.0014404648851967252 0.04092460551872704
v 0.0026753544627521986 0.0014278880081566494 0.04171341346408656
v 0.0009163921816301857 0.0014424918899877983 0.03767257578479815
v -0.007332862411833992 0.0014430879363867024 0.03767186291317759
v -0.0009160981816563076 0.001442192972718748 0.037672754598749796
v -0.0009094942091057131 0.0014420739124505668 0.040926694065682265
v -0.003045201661518417 0.001419722917549662 0.04195654321786012
v -0.0040732028940532765 0.0014421339641252564 0.0440898556498293
v -0.0073319683419691825 0.0014427298615125607 0.044079784848072616
v -0.007140518181584607 0.0014311668593970208 0.05044227611831954
v -0.005090415981576055 0.0014322989005201394 0.05222845583386601
v -0.007332206164553222 0.0014435048708427358 0.045919837630970885
v -0.004114806945095753 0.0014334318357128563 0.04595905749103183
v -0.0009131031966208393 0.0014401069593341833 0.04907548426077676
v -0.0026752945600712567 0.0014265169524275703 0.04828691473401944
v -0.0009163441998807743 0.0014430278847120128 0.052328224482140195
v 0.006608247992688013 0.0014126298163911035 0.05116909522710856
v 0.007309974223294865 0.001435517849097421 0.04958140376626081
v 0.004924833944590017 0.0014373059882941332 0.05226349383164447
v 0.0009155621867723542 0.0014435638794362273 0.0523269751686647
v 0.0009593862132891527 0.0014334908443063479 0.04911512850594961
v 0.004075884805624417 0.0014401069593341833 0.04591345278080413
v 0.0032873154828855847 0.0014265169524275703 0.04767566665845804
v 0.00733232537386853 0.0014428489217807418 0.04592007604957308
v 0.000984775264251797 0.010888148845958377 0.0430663245906096
v 0.001999616309917413 0.010896919072671853 0.044085974194985576
v 0.00234574055691406 0.010886719526693804 0.043179153809911976
v 0.0029992464704672 0.010897208751221719 0.0446447749464363
v 0.000826939225057004 0.010891489089977835 0.04701918580568835
v 0.002051293399091767 0.010869618955509246 0.045824403432884596
v 0.002338767557026765 0.010884999336786568 0.04695528485192826
v 0.002154886443106024 0.009418425980190246 0.04456418469052262
v 0.0014484523386143722 0.009429215612103208 0.046567616204760486
v 0.0017411113567070455 0.009388565247697949 0.045586342458593686
v 0.001526296319533755 0.0019124738794772777 0.04408240268432471
v 0.0012977123084191074 0.009390770619373894 0.04378831333851816
v 0.002354204418300924 0.009420094910107178 0.04753577215943457
v -2.0026904492397534e-06 0.012805218839217604 0.04499375302284
v 0.003367424738819107 0.009420154514747068 0.04579621758573319
v 0.0012096162518774186 0.009421824636756797 0.04820466508463448
v -0.0009000742145042564 0.00942343276994104 0.04836726180295889
v -0.0025687813348668873 0.009414195242850825 0.047295574954468
v -0.0034610627619236405 0.009425995769456328 0.04545509301808578
v -0.010405361516441489 0.018387249393315944 0.003964126494032428
v 0.010302781900618995 0.019675247248800598 0.003999948292965601
v -0.010306771836402351 0.01970409827869315 0.003999948292965601
v 0.01040160284672983 0.018212188181772216 0.003997564106943659
v -0.010328352298752551 0.01741086936354954 0.006311535254492969
v 0.010206281959877205 0.017441857815828563 0.005109727281529057
v -0.010402321678901136 0.017414028409463732 0.004769504532244438
v 0.01033771261419053 0.017410508159431803 0.006348371524578479
v -0.010349632353628173 0.0025631777331608773 0.0017999410882534924
v -0.010464311714954426 0.008072016769705788 0.00174117015775449
v -0.010366262053113633 0.00252431580597553 0.00013333200837162057
v -0.010338061897484383 0.00802856498722568 0.0038384193919557773
v -0.01035382732943386 0.010462988949620087 0.003911763212479021
v -0.010379072286136626 0.012792219067257506 0.018852050938283144
v -0.010500903014288203 0.017035658155439413 0.017714380549541997
v -0.010374961948944808 0.011576888804541642 0.017772732310336017
v -0.010403152567828833 0.011444978968092975 0.004798948335545663
v -0.010333182660208828 0.0162147794785903 0.01882749263016413
v -0.010464311714954426 0.020754328457283772 0.00174117015775449
v -0.010256231855084392 0.020797777855578285 0.003920257471228695
v -0.010390522340871955 0.02630411886166539 0.0001636330196800008
v -0.010349632353628173 0.026263168089875083 0.0017999410882534924
v 0.01035535201657665 0.010467554665035692 0.003908305844723952
v 0.006783963119498514 0.007870255063676753 0.003922104321325942
v 0.010338781921748844 0.00802856498722568 0.0038384193919557773
v -0.006688238635352803 0.007825790002318507 0.003912925205141465
v -0.005033196106274813 0.005965053546312504 0.003874957340765291
v -0.004874588112257579 0.0025882116819148492 0.003874957340765291
v 0.005001843460302244 0.00613823363542129 0.0038460490852492446
v 0.004875362078737216 0.0025382036870699952 0.0038249493369783105
v 0.010350342841147409 0.0025631777331608773 0.0017999410882534924
v 0.004861891724130705 0.002482413744132572 0.0017614960886496774
v 0.010378302193959736 0.002535222859029076 0.0001525420098233661
v -0.0048611168635812035 0.002482413744132572 0.0017614960886496774
v 0.010389202693751496 0.026279857389044398 0.00013333301420009858
v 0.004900753960921099 0.02634548686593493 0.001760601124821691
v 0.010350342841147409 0.026263168089875083 0.0018000000968575354
v -0.004838049861069114 0.02629779838565141 0.0038384193919557773
v 0.004838824721618616 0.02625166677856183 0.003884613294154156
v -0.004913092125055472 0.026315086115405225 0.001778841190970932
v -0.0047403578271742455 0.023086717620835383 0.0039915440372382555
v 0.004736721943057353 0.023112707628013197 0.003989934413650192
v 0.010409052236843424 0.011616938354176806 0.017718551682987388
v 0.010397791724919433 0.011406598348374743 0.004751801354985013
v 0.01032787188521186 0.01605617868439871 0.018873451392016096
v 0.010382711746532977 0.01261191860786741 0.018799900445332196
v 0.01026850206990904 0.020763147559801957 0.003931760274714807
v 0.010458521718509918 0.020802548610955113 0.0017450450560866514
v 0.010465022202473662 0.008072016769705788 0.00174117015775449
v 0.010501562241801855 0.0170357189521721 0.017714442538378568
v 0.010498642805669964 0.017232287901973883 0.0047302846721834916
v 0.007072866299100766 0.021005917258075595 0.0018999570958274541
v 0.005206525854686003 0.022541397154663623 0.0018999570958274541
v 0.005030692114606769 0.023348618024328246 0.0037006134398875293
v 0.005556465395819081 0.022134059045652566 0.003700196505356942
v 0.006974161582072356 0.02102052754740553 0.003698945403741928
v 0.005151451151013728 0.006138800475546648 0.0018999570958274541
v 0.006992817243871474 0.007812916592194977 0.0018999570958274541
v -0.007104517564408181 0.020991378494313526 0.0018999570958274541
v -0.0052058111948407315 0.022541397154663623 0.0018999570958274541
v -0.006963313534379332 0.02102976865077414 0.0036888123151254215
v -0.005555689939223002 0.022134059045652566 0.003700196505356942
v -0.005031466975156271 0.02334021853847489 0.0037029982219559765
v -0.0050511961168397375 0.005644856228728426 0.0018999570958274541
v -0.007155240532025139 0.00784361178964574 0.0018999570958274541
v -0.005777956303661261 0.0069631922498709 0.0018999570958274541
v 0.010198172150156804 0.017333979378090912 0.01777040176849957
v -0.010193582591517448 0.01735030866523529 0.017680881543840704
v -0.006566227305088535 0.0208187086209222 0.003997445493689068
v 0.006602586146257462 0.02079533883371397 0.003997147470436325
v -0.010293003160484282 0.02316557694359599 0.004009008199848981
v -0.00880229544093092 0.015651758818556686 0.03592550387256959
v 0.008803727144807769 0.01566778889040881 0.035909353396456956
v -0.01038885221836449 0.025220268089898183 0.01918762154459245
v 0.01040047274242071 0.02525340826967725 0.019036590512660486
v 0.008746624690682105 0.014411618720532838 0.036004303604780796
v -0.008748712045793148 0.014412038337197666 0.03600460162803354
v -0.00533032532467989 0.01430170895666772 0.05381000563152124
v -0.008656800471597562 0.014413288842542567 0.04983228689297772
v -0.007801712648940178 0.014238469625836794 0.05229121714670761
v 0.004800439024066167 0.014331039207864993 0.053831572978275725
v 0.008537710365604915 0.014414008866592443 0.050533595211331966
v 0.0065466173727203765 0.014290508052739515 0.05324614563733196
v 0.005532206300153912 0.009412286702281534 0.05385756537428694
v -0.005467712868479155 0.009490964826936874 0.05374723478193555
v -0.008394659187235368 0.009504256661632435 0.051461105562703974
v -0.007084132175443945 0.009504256661632435 0.0528213933607789
v -0.008779347647734139 0.009461342513004138 0.05011796483049886
v -0.00874519417889841 0.009413955632198465 0.03600448241873244
v -0.003062069481611204 0.009426354589388468 0.04349088136390885
v -0.001953780328181504 0.00941777152124425 0.04215568473952885
v 0.007737816455935115 0.009533462935178736 0.05224508791555508
v 0.008802414650246228 0.009508488591064655 0.05020254621381327
v 0.00014447902657010228 0.009433149518335975 0.04151052400199134
v 0.0031678677489470138 0.00942504328731088 0.043772224851242096
v 0.00874894927233061 0.009413776818278794 0.036004720837334636
v 0.0019433495130920582 0.009422359886423013 0.042193531308441154
v 0.00896245434814031 0.008020698366852944 0.035579262841719084
v -0.009015203278070927 0.00804358654857086 0.035742043142367175
v -0.010192512091865983 0.01739947891686648 0.019250812010917998
v 0.010188281353265704 0.0173925087502777 0.019253432231356112
v -0.010361791703789584 0.025304668259983003 0.00614440441040134
v 0.010381752111544748 0.025261807755530608 0.006118535396016763
v 0.01029372199265559 0.02316557694359599 0.004009008199848981
v 0.010479742168727888 0.017677958946991264 0.01932418175946423
v -0.010479092477959459 0.017678018551631154 0.01932358213667971
v -0.009055436421987362 0.01546799890586735 0.035708013655276
v -0.009049298334342155 0.009711622395903967 0.035734592561048606
v -0.009055497218738169 0.01410453919209584 0.03572821247925389
v -0.00894540622395812 0.014109958445954677 0.04996031768235601
v 0.00897312238976722 0.014113298689974135 0.049681124730814555
v 0.00904995398557635 0.009715854325336186 0.035735782269873555
v 0.00905627207928767 0.014108768737342464 0.03572702277042894
v 0.00905615167787921 0.01546799890586735 0.035708013655276
v 0.008197129351770088 0.014114909207343974 0.051852946535410144
v -0.009823205209321399 0.017502118106757766 0.011107981088785352
v -0.008970024139662365 0.0175354394846421 0.009497940268167913
v -0.00982862923316791 0.020413208719005364 0.011614440612403371
v -0.00838220300587884 0.020413158651107856 0.008978068506083459
v -0.0052449106581685875 0.020413158651107856 0.015716431471061585
v -0.005418897249907124 0.017719138600598747 0.015752131080461133
v -0.006987036188125615 0.020413158651107856 0.0156416216741581
v -0.0075809966016475005 0.01771300885943242 0.015458520956044998
v -0.007902504721079631 0.017712768056687263 0.008742333305256955
v -0.008936883950006755 0.020413208719005364 0.014486251088390058
v -0.006165743014264884 0.017719257809878527 0.008206784327985219
v -0.005999624833383249 0.020413158651107856 0.008207798799137555
v -0.009010077277512685 0.017712648847407482 0.01427406091662324
v -0.009712458563307155 0.017717588879961596 0.012743351501699902
v -0.008163810348141514 0.017413608792798903 0.015488862107360231
v -0.009805203410616744 0.01741384959554406 0.013576321724743847
v -0.00216013150396793 0.017714258172684523 0.011790151545941464
v -0.0019170643061015866 0.01741539931618121 0.01287972098168993
v -0.0027611854677972144 0.017712887265967044 0.013935861745224746
v -0.0034530757377980075 0.017413369182146542 0.015198171418727964
v -0.003756344831988021 0.017713118531969815 0.015033481385076297
v -0.005659104020252653 0.01741390920018395 0.016112262379075475
v -0.007441640316005925 0.017413547996066214 0.00815576393920867
v -0.00479966505758653 0.01741426802011609 0.008044362847333432
v -0.002533555578239963 0.017414028409463732 0.009761215201733871
v -0.0042408108933529726 0.01770811889477581 0.008646845462985166
v -0.0029891726872771016 0.017712648847407482 0.00972586845186557
v -0.003062367504899474 0.020413158651107856 0.014486251088390058
v -0.003617048747050676 0.020413158651107856 0.008978068506083459
v -0.00217056246806902 0.020413208719005364 0.011614440612403371
v 0.002171337328618522 0.020413208719005364 0.011614440612403371
v 0.002471983519848472 0.01753764843259644 0.010274051230867574
v 0.0036177637049192354 0.020413158651107856 0.008978068506083459
v 0.006755054264489759 0.020413158651107856 0.015716431471061585
v 0.006581009260186722 0.017719138600598747 0.015752131080461133
v 0.005012929926625884 0.020413158651107856 0.0156416216741581
v 0.0044189099084463454 0.01771300885943242 0.015458520956044998
v 0.004097461691695157 0.017712768056687263 0.008742333305256955
v 0.003063082760791322 0.020413158651107856 0.014486251088390058
v 0.005834221908393462 0.017719257809878527 0.008206784327985219
v 0.006000340089275097 0.020413158651107856 0.008207798799137555
v 0.0029898885392155255 0.017712648847407482 0.01427406091662324
v 0.002158105392642627 0.017602737891449564 0.012481861131371367
v 0.0027787685437818494 0.017414737704678426 0.01464384101606838
v 0.009967150457555753 0.01741390920018395 0.010863721230837392
v 0.009844424467446215 0.017413608792798903 0.013441970458221392
v 0.009839833716713705 0.017714258172684523 0.011790151545941464
v 0.009238720744273343 0.017712887265967044 0.013935861745224746
v 0.008363069910771914 0.01759367798618622 0.015050171879322902
v 0.005933941096695143 0.017415038112063474 0.016176040547255435
v 0.008496106314562438 0.017413668397438794 0.00874000753179255
v 0.004167318648488907 0.017414859298143803 0.008277238217026616
v 0.006598712439556529 0.017413247588681166 0.007966160353720723
v 0.007759154327328662 0.01770811889477581 0.008646845462985166
v 0.009010792533404532 0.017712648847407482 0.00972586845186557
v 0.008937599205898603 0.020413158651107856 0.014486251088390058
v 0.008382918261770688 0.020413158651107856 0.008978068506083459
v 0.009829344489059758 0.020413208719005364 0.011614440612403371
usemtl RubberGray
f 1 2 3
f 2 4 3
f 4 5 3
f 3 5 6
f 7 2 1
f 8 9 10
f 9 11 10
f 12 13 14
f 10 11 15
f 14 13 16
f 13 17 16
f 16 17 8
f 17 9 8
f 18 19 20
f 18 20 21
f 22 23 24
f 22 25 23
f 26 18 21
f 26 21 27
f 28 26 27
f 28 27 29
f 19 22 24
f 19 24 20
f 30 31 32
f 30 33 31
f 34 33 30
f 35 34 30
f 36 37 38
f 37 36 39
f 40 41 42
f 40 42 43
f 40 43 44
f 40 44 45
f 46 47 48
f 47 46 49
f 50 34 35
f 50 51 34
f 52 51 50
f 36 52 50
f 38 52 36
f 53 45 44
f 54 53 44
f 55 46 53
f 55 49 46
f 55 53 54
f 56 30 32
f 56 57 30
f 57 58 39
f 39 58 37
f 41 40 56
f 56 40 57
f 58 57 48
f 58 48 47
f 55 47 49
f 58 47 55
f 52 37 58
f 52 38 37
f 52 58 55
f 56 59 60
f 41 60 42
f 56 32 59
f 18 61 62
f 18 26 61
f 51 63 64
f 65 66 25
f 60 67 68
f 69 52 70
f 60 71 67
f 63 52 69
f 51 52 63
f 52 55 70
f 70 55 72
f 73 55 74
f 74 55 54
f 68 67 54
f 65 75 66
f 76 77 78
f 67 79 54
f 60 80 71
f 76 51 77
f 28 61 26
f 75 81 66
f 28 82 61
f 66 81 83
f 60 84 80
f 79 74 54
f 81 85 83
f 28 86 82
f 87 88 28
f 28 88 86
f 85 89 83
f 60 59 84
f 84 90 80
f 79 91 74
f 83 89 87
f 92 22 93
f 87 89 88
f 73 72 55
f 81 64 85
f 22 19 93
f 51 64 77
f 90 22 92
f 93 19 91
f 59 78 84
f 90 25 22
f 86 70 82
f 84 94 90
f 82 70 72
f 91 62 74
f 91 19 62
f 94 25 90
f 64 63 85
f 19 18 62
f 76 78 59
f 65 25 94
f 33 51 76
f 51 33 34
f 59 31 76
f 76 31 33
f 42 60 68
f 68 43 42
f 43 68 54
f 43 54 44
f 63 95 96
f 69 95 63
f 85 96 97
f 63 96 85
f 98 86 88
f 99 98 88
f 99 88 89
f 97 99 89
f 97 89 85
f 100 86 98
f 100 70 86
f 95 69 100
f 100 69 70
f 99 100 98
f 95 100 99
f 96 99 97
f 96 95 99
f 101 72 73
f 102 72 101
f 82 102 103
f 72 102 82
f 104 62 61
f 104 105 62
f 103 61 82
f 103 104 61
f 62 106 74
f 62 105 106
f 101 74 106
f 101 73 74
f 104 102 101
f 104 101 106
f 103 102 104
f 105 104 106
f 107 67 108
f 67 71 108
f 109 67 107
f 109 79 67
f 109 91 79
f 110 91 109
f 111 90 92
f 112 111 92
f 112 92 93
f 110 112 93
f 110 93 91
f 90 113 80
f 90 111 113
f 71 113 108
f 80 113 71
f 110 109 107
f 112 110 107
f 108 112 107
f 108 111 112
f 113 111 108
f 114 77 115
f 116 78 114
f 78 77 114
f 78 117 84
f 78 116 117
f 117 94 84
f 118 94 117
f 119 81 75
f 120 119 75
f 120 75 65
f 118 120 65
f 118 65 94
f 121 81 119
f 121 64 81
f 77 121 115
f 64 121 77
f 116 120 118
f 116 118 117
f 115 119 120
f 115 121 119
f 114 115 120
f 114 120 116
f 13 21 17
f 17 21 20
f 13 27 21
f 9 17 20
f 13 29 27
f 122 29 13
f 9 20 24
f 123 29 122
f 124 29 123
f 11 9 24
f 125 124 123
f 23 126 11
f 23 11 24
f 125 123 127
f 128 125 127
f 23 127 126
f 128 127 23
f 66 83 125
f 66 125 128
f 87 28 29
f 25 66 128
f 87 29 124
f 25 128 23
f 87 124 125
f 83 87 125
f 129 123 12
f 11 126 15
f 123 122 12
f 15 126 130
f 122 13 12
f 126 127 130
f 130 127 129
f 127 123 129
f 6 131 132
f 131 133 132
f 133 7 132
f 132 7 1
f 5 131 6
f 2 16 8
f 133 129 12
f 7 12 14
f 15 4 10
f 130 131 5
f 4 2 10
f 10 2 8
f 15 5 4
f 2 14 16
f 2 7 14
f 130 129 131
f 15 130 5
f 131 129 133
f 133 12 7
f 6 132 1
f 6 1 3
f 57 53 48
f 48 53 46
f 40 45 53
f 40 53 57
f 30 50 35
f 50 30 57
f 50 57 39
f 50 39 36
f 56 60 41
f 59 32 31
usemtl PlasticWhite
f 134 135 136
f 137 135 134
f 137 138 135
f 138 139 135
f 140 135 139
f 141 142 143
f 141 144 142
f 145 146 147
f 145 148 146
f 149 150 151
f 152 153 150
f 154 155 156
f 156 155 157
f 157 155 147
f 154 158 155
f 147 141 153
f 157 147 153
f 153 159 150
f 141 159 153
f 141 160 159
f 159 161 150
f 150 161 151
f 159 162 161
f 163 164 165
f 163 153 164
f 164 153 166
f 153 152 166
f 167 168 169
f 169 168 170
f 164 166 169
f 166 167 169
f 171 172 173
f 170 174 172
f 168 174 170
f 149 151 174
f 151 173 172
f 151 172 174
f 175 176 177
f 176 178 179
f 180 178 176
f 161 162 180
f 175 161 176
f 176 161 180
f 181 179 178
f 181 182 179
f 151 175 173
f 151 161 175
f 183 156 184
f 156 157 184
f 158 154 185
f 185 154 186
f 187 144 188
f 175 188 189
f 175 189 173
f 189 171 173
f 177 188 175
f 163 165 189
f 190 184 191
f 190 183 184
f 190 186 183
f 185 186 190
f 191 184 163
f 144 191 163
f 188 163 189
f 188 144 163
f 177 192 188
f 193 192 177
f 176 193 177
f 194 195 193
f 193 196 192
f 195 196 193
f 179 194 176
f 176 194 193
f 196 188 192
f 196 187 188
f 197 172 171
f 198 171 189
f 198 197 171
f 198 164 197
f 164 169 197
f 165 198 189
f 165 164 198
f 169 170 197
f 197 170 172
f 162 159 199
f 162 200 180
f 162 199 200
f 199 201 200
f 201 202 200
f 202 203 200
f 160 201 199
f 160 199 159
f 203 178 180
f 203 180 200
f 149 174 204
f 205 204 206
f 205 149 204
f 150 149 205
f 204 167 206
f 167 166 206
f 206 166 205
f 168 167 204
f 168 204 174
f 205 152 150
f 166 152 205
f 184 157 163
f 157 153 163
f 141 147 144
f 144 147 146
f 207 208 158
f 185 207 158
f 186 154 156
f 183 186 156
f 201 160 209
f 201 209 202
f 209 181 202
f 202 181 203
f 178 203 181
f 143 160 141
f 208 145 155
f 145 147 155
f 158 208 155
f 179 182 194
f 194 182 195
f 182 210 195
f 195 210 196
f 210 187 196
f 144 187 142
f 146 191 144
f 148 191 146
f 190 148 207
f 190 191 148
f 207 185 190
f 209 211 181
f 209 160 211
f 212 213 214
f 213 215 214
f 212 216 213
f 217 216 212
f 218 219 220
f 221 219 218
f 222 219 221
f 216 217 222
f 222 217 219
f 222 221 223
f 218 224 221
f 225 224 218
f 226 139 227
f 227 139 225
f 139 138 225
f 228 140 139
f 225 138 224
f 228 229 140
f 229 230 140
f 138 137 224
f 137 134 224
f 229 231 230
f 224 134 232
f 134 233 232
f 229 234 231
f 136 233 134
f 235 236 136
f 237 236 235
f 136 236 233
f 234 236 237
f 229 236 234
f 229 238 236
f 239 238 229
f 240 238 239
f 241 238 240
f 208 207 240
f 207 241 240
f 148 241 207
f 240 145 208
f 214 215 242
f 215 243 242
f 187 210 244
f 244 210 182
f 148 243 215
f 148 215 245
f 142 244 243
f 142 243 148
f 242 145 214
f 214 145 246
f 211 143 242
f 242 143 145
f 246 247 214
f 246 248 249
f 248 228 250
f 248 250 249
f 251 252 253
f 233 252 251
f 254 245 215
f 252 245 253
f 142 145 143
f 148 145 142
f 244 182 243
f 181 242 182
f 182 242 243
f 181 211 242
f 225 218 220
f 227 225 220
f 226 227 220
f 226 220 250
f 228 226 250
f 233 251 255
f 232 233 255
f 232 255 223
f 224 232 223
f 224 223 221
f 236 238 252
f 238 241 245
f 233 236 252
f 241 148 245
f 229 228 248
f 142 187 244
f 239 229 248
f 240 239 246
f 215 213 254
f 246 145 240
f 254 216 253
f 213 216 254
f 143 211 160
f 216 222 251
f 216 251 253
f 255 251 222
f 255 222 223
f 250 220 219
f 219 217 249
f 219 249 250
f 212 214 247
f 217 247 249
f 217 212 247
f 136 135 235
f 237 235 135
f 230 135 140
f 230 231 135
f 231 234 135
f 234 237 135
f 256 257 258
f 258 257 259
f 260 261 262
f 261 263 262
f 257 264 259
f 262 263 265
f 259 266 267
f 264 266 259
f 263 268 265
f 268 269 265
f 265 269 258
f 269 256 258
f 263 270 268
f 270 271 268
f 272 273 274
f 268 271 269
f 274 275 276
f 273 275 274
f 271 256 269
f 276 275 261
f 275 277 261
f 261 277 263
f 277 270 263
f 278 275 279
f 279 275 280
f 277 275 278
f 280 275 273
f 271 270 256
f 270 277 256
f 256 277 257
f 257 277 278
f 281 280 282
f 279 280 281
f 282 280 272
f 280 273 272
f 257 278 264
f 264 278 266
f 278 279 266
f 266 279 281
f 272 274 283
f 274 276 283
f 267 281 284
f 266 281 267
f 283 276 260
f 276 261 260
f 281 282 284
f 284 282 285
f 282 272 285
f 285 272 283
f 283 260 262
f 283 262 265
f 283 265 258
f 284 283 258
f 284 258 259
f 284 285 283
f 284 259 267
f 286 287 288
f 289 290 291
f 290 292 291
f 287 293 288
f 291 292 294
f 288 295 296
f 293 295 288
f 292 297 294
f 297 298 294
f 294 298 286
f 298 287 286
f 292 299 297
f 300 301 302
f 302 301 303
f 297 299 298
f 301 304 303
f 304 305 290
f 290 305 292
f 305 299 292
f 306 301 300
f 305 301 306
f 305 304 301
f 287 299 307
f 307 299 308
f 308 305 306
f 299 305 308
f 298 299 287
f 308 306 309
f 309 306 310
f 306 300 310
f 310 300 302
f 287 307 293
f 293 307 295
f 307 308 295
f 295 308 309
f 302 303 311
f 303 304 311
f 296 309 312
f 295 309 296
f 311 304 289
f 304 290 289
f 309 310 312
f 312 310 313
f 310 302 313
f 313 302 311
f 288 294 286
f 312 289 291
f 312 311 289
f 312 313 311
f 312 291 296
f 296 291 294
f 296 294 288
f 228 139 226
f 246 249 247
f 246 239 248
f 238 245 252
f 253 245 254
