# https://github.com/mikedh/trimesh
v 0.00180354 0.02925917 -0.00059890 0.43529412 0.89019608 0.96078431
v 0.00300582 0.02918328 -0.00059890 0.43529412 0.89019608 0.96078431
v 0.00301168 0.02918328 -0.00060472 0.43529412 0.89019608 0.96078431
v 0.00378583 0.02896727 -0.01474074 0.43529412 0.89019608 0.96078431
v 0.00134608 0.02894976 -0.02905131 0.43529412 0.89019608 0.96078431
v 0.00006756 0.02894976 -0.03030811 0.43529412 0.89019608 0.96078431
v 0.00003824 0.02894976 -0.03031684 0.43529412 0.89019608 0.96078431
v -0.00092945 0.02894976 -0.03031684 0.43529412 0.89019608 0.96078431
v 0.00059539 0.02925333 -0.00059890 0.43529412 0.89019608 0.96078431
v 0.00427261 0.02906068 -0.00059890 0.43529412 0.89019608 0.96078431
v 0.00542211 0.02855278 -0.02954589 0.43529412 0.89019608 0.96078431
v 0.00421983 0.02868121 -0.03031684 0.43529412 0.89019608 0.96078431
v 0.00378583 0.02871624 -0.03031684 0.43529412 0.89019608 0.96078431
v 0.00258355 0.02880381 -0.03031684 0.43529412 0.89019608 0.96078431
v 0.00179181 0.02885051 -0.03031684 0.43529412 0.89019608 0.96078431
v -0.00122269 0.02894392 -0.03031684 0.43529412 0.89019608 0.96078431
v -0.00134585 0.02896727 -0.02667155 0.43529412 0.89019608 0.96078431
v -0.00060689 0.02920079 -0.00059890 0.43529412 0.89019608 0.96078431
v 0.00535759 0.02889138 -0.00059890 0.43529412 0.89019608 0.96078431
v 0.00663025 0.02830175 -0.02954589 0.43529412 0.89019608 0.96078431
v 0.00542211 0.02853526 -0.03031684 0.43529412 0.89019608 0.96078431
v 0.00663025 0.02863451 -0.00060472 0.43529412 0.89019608 0.96078431
v 0.00663025 0.02859364 -0.00422382 0.43529412 0.89019608 0.96078431
v -0.00542187 0.02834261 -0.03031684 0.43529412 0.89019608 0.96078431
v -0.00904044 0.02866370 -0.01387088 0.43529412 0.89019608 0.96078431
v -0.00904044 0.02869873 -0.01266645 0.43529412 0.89019608 0.96078431
v -0.00904044 0.02871040 -0.01145911 0.43529412 0.89019608 0.96078431
v -0.00180917 0.02911906 -0.00059890 0.43529412 0.89019608 0.96078431
v -0.00904044 0.02870456 -0.01025178 0.43529412 0.89019608 0.96078431
v 0.00662439 0.02863451 -0.00059890 0.43529412 0.89019608 0.96078431
v 0.00663025 0.02828423 -0.03031684 0.43529412 0.89019608 0.96078431
v 0.00783840 0.02831342 -0.00422382 0.43529412 0.89019608 0.96078431
v 0.00783840 0.02806823 -0.02472236 0.43529412 0.89019608 0.96078431
v 0.00924008 0.02765373 -0.03031684 0.43529412 0.89019608 0.96078431
v 0.00783840 0.02833677 -0.00060472 0.43529412 0.89019608 0.96078431
v 0.00783840 0.02832510 -0.00301648 0.43529412 0.89019608 0.96078431
v -0.00663002 0.02816747 -0.03031684 0.43529412 0.89019608 0.96078431
v -0.01024859 0.02854694 -0.01266645 0.43529412 0.89019608 0.96078431
v -0.01024859 0.02858781 -0.01145911 0.43529412 0.89019608 0.96078431
v -0.00288242 0.02900230 -0.00059890 0.43529412 0.89019608 0.96078431
v -0.01024859 0.02854694 -0.00663558 0.43529412 0.89019608 0.96078431
v -0.01024859 0.02858197 -0.01025178 0.43529412 0.89019608 0.96078431
v -0.01024859 0.02856445 -0.00784001 0.43529412 0.89019608 0.96078431
v 0.00783253 0.02833677 -0.00059890 0.43529412 0.89019608 0.96078431
v 0.01024882 0.02739686 -0.03031684 0.43529412 0.89019608 0.96078431
v 0.00989107 0.02749027 -0.03031684 0.43529412 0.89019608 0.96078431
v 0.00915211 0.02796314 -0.00059890 0.43529412 0.89019608 0.96078431
v 0.00904068 0.02799233 -0.00301648 0.43529412 0.89019608 0.96078431
v -0.00708161 0.02807990 -0.03031684 0.43529412 0.89019608 0.96078431
v -0.01024859 0.02847688 -0.01387088 0.43529412 0.89019608 0.96078431
v -0.01145673 0.02820834 -0.01266645 0.43529412 0.89019608 0.96078431
v -0.01145673 0.02827256 -0.01145911 0.43529412 0.89019608 0.96078431
v -0.01145673 0.02826088 -0.00663558 0.43529412 0.89019608 0.96078431
v -0.00349236 0.02892641 -0.00059890 0.43529412 0.89019608 0.96078431
v -0.01145673 0.02817915 -0.00542825 0.43529412 0.89019608 0.96078431
v -0.01024859 0.02845353 -0.00542825 0.43529412 0.89019608 0.96078431
v 0.00973859 0.02777633 -0.00301648 0.43529412 0.89019608 0.96078431
v 0.01145697 0.02711080 -0.01869149 0.43529412 0.89019608 0.96078431
v 0.01145697 0.02699988 -0.02954589 0.43529412 0.89019608 0.96078431
v 0.01145697 0.02697069 -0.03031684 0.43529412 0.89019608 0.96078431
v 0.01027228 0.02761286 -0.00059890 0.43529412 0.89019608 0.96078431
v -0.00786749 0.02791644 -0.03031684 0.43529412 0.89019608 0.96078431
v -0.00817246 0.02785222 -0.03031684 0.43529412 0.89019608 0.96078431
v -0.00852434 0.02776465 -0.03031684 0.43529412 0.89019608 0.96078431
v -0.00954481 0.02744940 -0.03031684 0.43529412 0.89019608 0.96078431
v -0.01024859 0.02721004 -0.03031684 0.43529412 0.89019608 0.96078431
v -0.01140981 0.02676636 -0.03031684 0.43529412 0.89019608 0.96078431
v -0.01179689 0.02660290 -0.03031684 0.43529412 0.89019608 0.96078431
v -0.01201389 0.02650949 -0.03031684 0.43529412 0.89019608 0.96078431
v -0.01223088 0.02785222 -0.01266645 0.43529412 0.89019608 0.96078431
v -0.01228367 0.02789309 -0.01145911 0.43529412 0.89019608 0.96078431
v -0.01226607 0.02788725 -0.00663558 0.43529412 0.89019608 0.96078431
v -0.01223088 0.02785806 -0.00542825 0.43529412 0.89019608 0.96078431
v -0.00422546 0.02882133 -0.00059890 0.43529412 0.89019608 0.96078431
v -0.01214878 0.02780552 -0.00456711 0.43529412 0.89019608 0.96078431
v -0.01152711 0.02797482 -0.00418891 0.43529412 0.89019608 0.96078431
v -0.01024859 0.02830758 -0.00422382 0.43529412 0.89019608 0.96078431
v 0.01145697 0.02711664 -0.01748707 0.43529412 0.89019608 0.96078431
v 0.01250676 0.02673717 -0.01748707 0.43529412 0.89019608 0.96078431
v 0.01248917 0.02673717 -0.01869149 0.43529412 0.89019608 0.96078431
v 0.01227804 0.02664960 -0.02954589 0.43529412 0.89019608 0.96078431
v 0.01223112 0.02662041 -0.03031684 0.43529412 0.89019608 0.96078431
v 0.01145110 0.02718669 -0.00059890 0.43529412 0.89019608 0.96078431
v -0.01224848 0.02639273 -0.03031684 0.43529412 0.89019608 0.96078431
v -0.01265901 0.02618256 -0.03031684 0.43529412 0.89019608 0.96078431
v -0.01369708 0.02559876 -0.03031684 0.43529412 0.89019608 0.96078431
v -0.01407829 0.02535357 -0.03031684 0.43529412 0.89019608 0.96078431
v -0.01429529 0.02520762 -0.03031684 0.43529412 0.89019608 0.96078431
v -0.01458266 0.02500913 -0.03031684 0.43529412 0.89019608 0.96078431
v -0.01931554 0.02172235 -0.03031684 0.43529412 0.89019608 0.96078431
v -0.01288774 0.02742021 -0.01145911 0.43529412 0.89019608 0.96078431
v -0.01287015 0.02739102 -0.00663558 0.43529412 0.89019608 0.96078431
v -0.01801942 0.02285492 -0.00059890 0.43529412 0.89019608 0.96078431
v -0.01741535 0.02331612 -0.00059890 0.43529412 0.89019608 0.96078431
v -0.00542774 0.02860532 -0.00059890 0.43529412 0.89019608 0.96078431
v -0.01658255 0.02391743 -0.00059890 0.43529412 0.89019608 0.96078431
v -0.01197870 0.02769460 -0.00376416 0.43529412 0.89019608 0.96078431
v -0.01116936 0.02787557 -0.00322595 0.43529412 0.89019608 0.96078431
v -0.00663588 0.02833094 -0.00059890 0.43529412 0.89019608 0.96078431
v 0.01247744 0.02674301 -0.00059890 0.43529412 0.89019608 0.96078431
v 0.01311084 0.02645111 -0.01748707 0.43529412 0.89019608 0.96078431
v 0.01309324 0.02644527 -0.01869149 0.43529412 0.89019608 0.96078431
v 0.01465327 0.02542362 -0.02954589 0.43529412 0.89019608 0.96078431
v 0.01350964 0.02596656 -0.03031684 0.43529412 0.89019608 0.96078431
v -0.01965570 0.02142461 -0.03031684 0.43529412 0.89019608 0.96078431
v -0.02070549 0.02070070 -0.02472236 0.43529412 0.89019608 0.96078431
v -0.01998413 0.02130201 -0.02472236 0.43529412 0.89019608 0.96078431
v -0.02069963 0.02068903 -0.00542825 0.43529412 0.89019608 0.96078431
v -0.01999585 0.02129034 -0.00542825 0.43529412 0.89019608 0.96078431
v -0.01885809 0.02214268 -0.00059890 0.43529412 0.89019608 0.96078431
v -0.01597261 0.02430273 -0.00059890 0.43529412 0.89019608 0.96078431
v -0.01507530 0.02483399 -0.00060472 0.43529412 0.89019608 0.96078431
v -0.01374400 0.02561628 -0.00059890 0.43529412 0.89019608 0.96078431
v -0.01256518 0.02627597 -0.00059890 0.43529412 0.89019608 0.96078431
v -0.01156230 0.02677220 -0.00059890 0.43529412 0.89019608 0.96078431
v -0.01083507 0.02773546 -0.00242300 0.43529412 0.89019608 0.96078431
v -0.00868856 0.02781136 -0.00059890 0.43529412 0.89019608 0.96078431
v -0.00783816 0.02803320 -0.00059890 0.43529412 0.89019608 0.96078431
v 0.01308738 0.02643359 -0.00059890 0.43529412 0.89019608 0.96078431
v 0.01386739 0.02601326 -0.00060472 0.43529412 0.89019608 0.96078431
v 0.01540983 0.02517843 -0.00059890 0.43529412 0.89019608 0.96078431
v 0.01540983 0.02517843 -0.00060472 0.43529412 0.89019608 0.96078431
v 0.01627782 0.02469388 -0.00059890 0.43529412 0.89019608 0.96078431
v 0.01639511 0.02441366 -0.02947315 0.43529412 0.89019608 0.96078431
v 0.01525148 0.02508502 -0.02954589 0.43529412 0.89019608 0.96078431
v 0.01521043 0.02506751 -0.03031684 0.43529412 0.89019608 0.96078431
v 0.01460635 0.02540027 -0.03031684 0.43529412 0.89019608 0.96078431
v -0.01987856 0.02122612 -0.03031684 0.43529412 0.89019608 0.96078431
v -0.02058233 0.02058394 -0.03031684 0.43529412 0.89019608 0.96078431
v -0.02104565 0.02006437 -0.03031684 0.43529412 0.89019608 0.96078431
v -0.02130370 0.02002350 -0.02472236 0.43529412 0.89019608 0.96078431
v -0.02184326 0.01945722 -0.00663558 0.43529412 0.89019608 0.96078431
v -0.02130370 0.02006437 -0.00663558 0.43529412 0.89019608 0.96078431
v -0.02067030 0.02066568 -0.00422382 0.43529412 0.89019608 0.96078431
v -0.01982578 0.02128450 -0.00059890 0.43529412 0.89019608 0.96078431
v -0.02130370 0.02005853 -0.00542825 0.43529412 0.89019608 0.96078431
v -0.02177288 0.01936965 -0.00059890 0.43529412 0.89019608 0.96078431
v -0.01025445 0.02730345 -0.00059890 0.43529412 0.89019608 0.96078431
v -0.00929263 0.02763038 -0.00059890 0.43529412 0.89019608 0.96078431
v 0.01480576 0.02550536 -0.00059890 0.43529412 0.89019608 0.96078431
v 0.01704611 0.02423268 -0.00059890 0.43529412 0.89019608 0.96078431
v 0.01688189 0.02412176 -0.02902222 0.43529412 0.89019608 0.96078431
v 0.01686430 0.02410424 -0.03031684 0.43529412 0.89019608 0.96078431
v 0.01589074 0.02468220 -0.03031684 0.43529412 0.89019608 0.96078431
v -0.02123332 0.01984252 -0.03031684 0.43529412 0.89019608 0.96078431
v -0.02179634 0.01941635 -0.02472236 0.43529412 0.89019608 0.96078431
v -0.02183740 0.01945722 -0.00542825 0.43529412 0.89019608 0.96078431
v -0.02397804 0.01667250 -0.00060472 0.43529412 0.89019608 0.96078431
v -0.02397804 0.01667250 -0.00059890 0.43529412 0.89019608 0.96078431
v -0.02118641 0.01997096 -0.00059890 0.43529412 0.89019608 0.96078431
v -0.02058233 0.02057811 -0.00059890 0.43529412 0.89019608 0.96078431
v -0.02182567 0.01943386 -0.00422382 0.43529412 0.89019608 0.96078431
v -0.02337397 0.01742560 -0.00059890 0.43529412 0.89019608 0.96078431
v 0.01764431 0.02377148 -0.00059890 0.43529412 0.89019608 0.96078431
v 0.01902254 0.02270897 -0.00904735 0.43529412 0.89019608 0.96078431
v 0.01838914 0.02313514 -0.02592969 0.43529412 0.89019608 0.96078431
v 0.01838914 0.02312930 -0.02713412 0.43529412 0.89019608 0.96078431
v 0.01719859 0.02387656 -0.03031684 0.43529412 0.89019608 0.96078431
v -0.02209545 0.01874498 -0.03031684 0.43529412 0.89019608 0.96078431
v -0.02320975 0.01728549 -0.02834146 0.43529412 0.89019608 0.96078431
v -0.02381383 0.01644482 -0.02834146 0.43529412 0.89019608 0.96078431
v -0.02423023 0.01584351 -0.02834146 0.43529412 0.89019608 0.96078431
v -0.02474046 0.01507290 -0.02713412 0.43529412 0.89019608 0.96078431
v -0.02522724 0.01429645 -0.02713412 0.43529412 0.89019608 0.96078431
v -0.02499851 0.01503787 -0.00059890 0.43529412 0.89019608 0.96078431
v 0.01840087 0.02316433 -0.00059890 0.43529412 0.89019608 0.96078431
v 0.01839500 0.02317017 -0.00060472 0.43529412 0.89019608 0.96078431
v 0.01899321 0.02266810 -0.02713412 0.43529412 0.89019608 0.96078431
v 0.01975563 0.02210766 -0.00904735 0.43529412 0.89019608 0.96078431
v 0.01896975 0.02266810 -0.02834146 0.43529412 0.89019608 0.96078431
v 0.01837154 0.02311179 -0.02834146 0.43529412 0.89019608 0.96078431
v 0.01744491 0.02370726 -0.03031684 0.43529412 0.89019608 0.96078431
v -0.02289306 0.01761825 -0.03031684 0.43529412 0.89019608 0.96078431
v -0.02315697 0.01723295 -0.03031684 0.43529412 0.89019608 0.96078431
v -0.02375518 0.01634558 -0.03031684 0.43529412 0.89019608 0.96078431
v -0.02415985 0.01573843 -0.03031684 0.43529412 0.89019608 0.96078431
v -0.02443549 0.01532393 -0.03031684 0.43529412 0.89019608 0.96078431
v -0.02495746 0.01451245 -0.03031684 0.43529412 0.89019608 0.96078431
v -0.02471700 0.01507290 -0.02834146 0.43529412 0.89019608 0.96078431
v -0.02533281 0.01448326 -0.00059890 0.43529412 0.89019608 0.96078431
v -0.02552048 0.01359005 -0.03031684 0.43529412 0.89019608 0.96078431
v -0.02554980 0.01368930 -0.02713412 0.43529412 0.89019608 0.96078431
v -0.02560845 0.01397536 -0.00059890 0.43529412 0.89019608 0.96078431
v 0.01899908 0.02266226 -0.00059890 0.43529412 0.89019608 0.96078431
v 0.01968526 0.02206679 -0.02834146 0.43529412 0.89019608 0.96078431
v 0.01969112 0.02204344 -0.02954589 0.43529412 0.89019608 0.96078431
v 0.01969698 0.02206095 -0.00059890 0.43529412 0.89019608 0.96078431
v 0.02030106 0.02153553 -0.00059890 0.43529412 0.89019608 0.96078431
v 0.02035970 0.02157640 -0.00904735 0.43529412 0.89019608 0.96078431
v 0.01894629 0.02265059 -0.02954589 0.43529412 0.89019608 0.96078431
v 0.01833049 0.02308844 -0.03031684 0.43529412 0.89019608 0.96078431
v 0.01968526 0.02203176 -0.03031684 0.43529412 0.89019608 0.96078431
v -0.02582545 0.01299458 -0.03031684 0.43529412 0.89019608 0.96078431
v -0.02607763 0.01266182 -0.02713412 0.43529412 0.89019608 0.96078431
v -0.02625358 0.01272020 -0.00060472 0.43529412 0.89019608 0.96078431
v -0.02625358 0.01272020 -0.00059890 0.43529412 0.89019608 0.96078431
v 0.02029519 0.02151802 -0.02954589 0.43529412 0.89019608 0.96078431
v 0.02028933 0.02151802 -0.03031684 0.43529412 0.89019608 0.96078431
v 0.02095205 0.02092839 -0.00059890 0.43529412 0.89019608 0.96078431
v 0.02163236 0.02042632 -0.00904735 0.43529412 0.89019608 0.96078431
v 0.02102829 0.02097509 -0.00904735 0.43529412 0.89019608 0.96078431
v 0.01892870 0.02263307 -0.03031684 0.43529412 0.89019608 0.96078431
v 0.01854749 0.02292497 -0.03031684 0.43529412 0.89019608 0.96078431
v 0.01941548 0.02224777 -0.03031684 0.43529412 0.89019608 0.96078431
v -0.02599552 0.01266182 -0.03031684 0.43529412 0.89019608 0.96078431
v -0.02645298 0.01189704 -0.02713412 0.43529412 0.89019608 0.96078431
v -0.02655854 0.01211888 -0.00060472 0.43529412 0.89019608 0.96078431
v -0.02655854 0.01211888 -0.00059890 0.43529412 0.89019608 0.96078431
v 0.02071746 0.02113271 -0.03031684 0.43529412 0.89019608 0.96078431
v 0.02155025 0.02032707 -0.00059890 0.43529412 0.89019608 0.96078431
v 0.02218952 0.01982501 -0.00904735 0.43529412 0.89019608 0.96078431
v 0.02212500 0.01974328 -0.03031684 0.43529412 0.89019608 0.96078431
v 0.02191974 0.01995928 -0.03031684 0.43529412 0.89019608 0.96078431
v 0.02155025 0.02034459 -0.03031684 0.43529412 0.89019608 0.96078431
v 0.02116905 0.02071238 -0.03031684 0.43529412 0.89019608 0.96078431
v 0.02095205 0.02091671 -0.03031684 0.43529412 0.89019608 0.96078431
v -0.02668757 0.01117897 -0.03031684 0.43529412 0.89019608 0.96078431
v -0.02674035 0.01128989 -0.02713412 0.43529412 0.89019608 0.96078431
v -0.02685179 0.01145336 -0.00060472 0.43529412 0.89019608 0.96078431
v -0.02685179 0.01145336 -0.00059890 0.43529412 0.89019608 0.96078431
v 0.02208981 0.01973160 -0.00059890 0.43529412 0.89019608 0.96078431
v 0.02279359 0.01914780 -0.00904735 0.43529412 0.89019608 0.96078431
v 0.02275254 0.01911861 -0.02231059 0.43529412 0.89019608 0.96078431
v 0.02324518 0.01844725 -0.00059890 0.43529412 0.89019608 0.96078431
v 0.02272908 0.01908359 -0.03031684 0.43529412 0.89019608 0.96078431
v -0.02708051 0.01025073 -0.03031684 0.43529412 0.89019608 0.96078431
v -0.02718021 0.01025073 -0.02713412 0.43529412 0.89019608 0.96078431
v -0.02732097 0.01025073 -0.00180915 0.43529412 0.89019608 0.96078431
v -0.02732683 0.01025073 -0.00060472 0.43529412 0.89019608 0.96078431
v -0.02732683 0.01025073 -0.00059890 0.43529412 0.89019608 0.96078431
v 0.02384338 0.01775253 -0.00059890 0.43529412 0.89019608 0.96078431
v 0.02431843 0.01715122 -0.00060472 0.43529412 0.89019608 0.96078431
v 0.02434189 0.01716873 -0.01507821 0.43529412 0.89019608 0.96078431
v 0.02386685 0.01777004 -0.02110326 0.43529412 0.89019608 0.96078431
v 0.02386685 0.01776420 -0.02351793 0.43529412 0.89019608 0.96078431
v 0.02326277 0.01851730 -0.02231059 0.43529412 0.89019608 0.96078431
v 0.02305750 0.01869828 -0.03031684 0.43529412 0.89019608 0.96078431
v -0.02763180 0.00879124 -0.03031684 0.43529412 0.89019608 0.96078431
v -0.02779601 0.00859275 -0.02811163 0.43529412 0.89019608 0.96078431
v -0.02786053 0.00876789 -0.00301648 0.43529412 0.89019608 0.96078431
v -0.02764353 0.00936920 -0.00180915 0.43529412 0.89019608 0.96078431
v -0.02764353 0.00935168 -0.00059890 0.43529412 0.89019608 0.96078431
v 0.02431843 0.01714538 -0.00059890 0.43529412 0.89019608 0.96078431
v 0.02441227 0.01701111 -0.00059890 0.43529412 0.89019608 0.96078431
v 0.02494596 0.01621714 -0.00059890 0.43529412 0.89019608 0.96078431
v 0.02533890 0.01569756 -0.01343158 0.43529412 0.89019608 0.96078431
v 0.02433016 0.01716289 -0.02231059 0.43529412 0.89019608 0.96078431
v 0.02535650 0.01572675 -0.03031684 0.43529412 0.89019608 0.96078431
v 0.02524507 0.01589021 -0.03031684 0.43529412 0.89019608 0.96078431
v 0.02495183 0.01629303 -0.03031684 0.43529412 0.89019608 0.96078431
v 0.02384338 0.01774669 -0.03031684 0.43529412 0.89019608 0.96078431
v 0.02432430 0.01714538 -0.03031684 0.43529412 0.89019608 0.96078431
v 0.02345631 0.01821957 -0.03031684 0.43529412 0.89019608 0.96078431
v 0.02323931 0.01848227 -0.03031684 0.43529412 0.89019608 0.96078431
v -0.02774909 0.00847599 -0.03031684 0.43529412 0.89019608 0.96078431
v -0.02784880 0.00814322 -0.03031684 0.43529412 0.89019608 0.96078431
v -0.02825933 0.00663119 -0.03031684 0.43529412 0.89019608 0.96078431
v -0.02831212 0.00663119 -0.02713412 0.43529412 0.89019608 0.96078431
v -0.02881649 0.00550446 -0.00422382 0.43529412 0.89019608 0.96078431
v -0.02850565 0.00663119 -0.00422382 0.43529412 0.89019608 0.96078431
v -0.02784880 0.00876789 -0.00180915 0.43529412 0.89019608 0.96078431
v -0.02814203 0.00783381 -0.00301648 0.43529412 0.89019608 0.96078431
v -0.02783707 0.00875037 -0.00059890 0.43529412 0.89019608 0.96078431
v 0.02495769 0.01619963 -0.00059890 0.43529412 0.89019608 0.96078431
v 0.02533890 0.01569172 -0.01266645 0.43529412 0.89019608 0.96078431
v 0.02572012 0.01507290 -0.01025178 0.43529412 0.89019608 0.96078431
v 0.02545620 0.01556329 -0.03031684 0.43529412 0.89019608 0.96078431
v -0.02854084 0.00542273 -0.03031684 0.43529412 0.89019608 0.96078431
v -0.02860535 0.00542273 -0.02713412 0.43529412 0.89019608 0.96078431
v -0.02895724 0.00489147 -0.00499768 0.43529412 0.89019608 0.96078431
v -0.02896310 0.00489731 -0.00422382 0.43529412 0.89019608 0.96078431
v -0.02873438 0.00542273 -0.00059890 0.43529412 0.89019608 0.96078431
v -0.02843528 0.00663119 -0.00059890 0.43529412 0.89019608 0.96078431
v -0.02810685 0.00783381 -0.00059890 0.43529412 0.89019608 0.96078431
v 0.02563801 0.01512544 -0.00059890 0.43529412 0.89019608 0.96078431
v 0.02574358 0.01507290 -0.02472236 0.43529412 0.89019608 0.96078431
v 0.02631832 0.01406293 -0.00904735 0.43529412 0.89019608 0.96078431
v 0.02631832 0.01404541 -0.02472236 0.43529412 0.89019608 0.96078431
v 0.02593711 0.01469343 -0.03031684 0.43529412 0.89019608 0.96078431
v -0.02875197 0.00422011 -0.03031684 0.43529412 0.89019608 0.96078431
v -0.02894551 0.00363047 -0.02775379 0.43529412 0.89019608 0.96078431
v -0.02895138 0.00485645 -0.00347324 0.43529412 0.89019608 0.96078431
v -0.02923288 0.00180902 -0.01387088 0.43529412 0.89019608 0.96078431
v -0.02903348 0.00422011 -0.00422382 0.43529412 0.89019608 0.96078431
v -0.02915078 0.00301165 -0.00059890 0.43529412 0.89019608 0.96078431
v -0.02901589 0.00399243 -0.00059890 0.43529412 0.89019608 0.96078431
v -0.02890446 0.00459374 -0.00060472 0.43529412 0.89019608 0.96078431
v -0.02890446 0.00458790 -0.00059890 0.43529412 0.89019608 0.96078431
v 0.02634178 0.01392282 -0.00059890 0.43529412 0.89019608 0.96078431
v 0.02642975 0.01375935 -0.00059890 0.43529412 0.89019608 0.96078431
v 0.02662329 0.01346162 -0.00904735 0.43529412 0.89019608 0.96078431
v 0.02662329 0.01343827 -0.03031684 0.43529412 0.89019608 0.96078431
v 0.02650600 0.01365427 -0.03031684 0.43529412 0.89019608 0.96078431
v -0.02884581 0.00356042 -0.03031684 0.43529412 0.89019608 0.96078431
v -0.02889859 0.00318679 -0.03031684 0.43529412 0.89019608 0.96078431
v -0.02892205 0.00297078 -0.03031684 0.43529412 0.89019608 0.96078431
v -0.02896310 0.00257964 -0.03031684 0.43529412 0.89019608 0.96078431
v -0.02903935 0.00180902 -0.03031684 0.43529412 0.89019608 0.96078431
v -0.02907454 0.00180902 -0.02834146 0.43529412 0.89019608 0.96078431
v -0.02910972 0.00180902 -0.02592969 0.43529412 0.89019608 0.96078431
v -0.02912732 0.00060056 -0.03031684 0.43529412 0.89019608 0.96078431
v -0.02930326 0.00060056 -0.01025178 0.43529412 0.89019608 0.96078431
v -0.02940296 -0.00060206 -0.00301648 0.43529412 0.89019608 0.96078431
v -0.02924462 0.00180902 -0.00060472 0.43529412 0.89019608 0.96078431
v -0.02915078 0.00301165 -0.00060472 0.43529412 0.89019608 0.96078431
v -0.02924462 0.00180902 -0.00059890 0.43529412 0.89019608 0.96078431
v 0.02681683 0.01299458 -0.00059890 0.43529412 0.89019608 0.96078431
v 0.02695172 0.01269684 -0.00059890 0.43529412 0.89019608 0.96078431
v 0.02777279 0.01093378 -0.01627973 0.43529412 0.89019608 0.96078431
v 0.02700450 0.01266182 -0.02110326 0.43529412 0.89019608 0.96078431
v 0.02700450 0.01266182 -0.03031684 0.43529412 0.89019608 0.96078431
v 0.02675818 0.01316388 -0.03031684 0.43529412 0.89019608 0.96078431
v -0.02915078 -0.00017005 -0.03031684 0.43529412 0.89019608 0.96078431
v -0.02940883 -0.00180468 -0.00301648 0.43529412 0.89019608 0.96078431
v -0.02935604 -0.00060206 -0.00059890 0.43529412 0.89019608 0.96078431
v -0.02930913 0.00060056 -0.00059890 0.43529412 0.89019608 0.96078431
v -0.02916251 -0.00060206 -0.03031684 0.43529412 0.89019608 0.96078431
v 0.02753233 0.01139498 -0.00059890 0.43529412 0.89019608 0.96078431
v 0.02797219 0.01031495 -0.00059890 0.43529412 0.89019608 0.96078431
v 0.02801911 0.01025073 -0.00784001 0.43529412 0.89019608 0.96078431
v 0.02803084 0.01025073 -0.01627973 0.43529412 0.89019608 0.96078431
v 0.02777279 0.01093378 -0.01748707 0.43529412 0.89019608 0.96078431
v 0.02719218 0.01223564 -0.03031684 0.43529412 0.89019608 0.96078431
v -0.02930913 -0.00301314 -0.00301648 0.43529412 0.89019608 0.96078431
v -0.02934432 -0.00180468 -0.00059890 0.43529412 0.89019608 0.96078431
v -0.02914491 -0.00137267 -0.03031684 0.43529412 0.89019608 0.96078431
v -0.02913318 -0.00180468 -0.03031684 0.43529412 0.89019608 0.96078431
v -0.02908626 -0.00257529 -0.03031684 0.43529412 0.89019608 0.96078431
v 0.02843551 0.00903643 -0.00059890 0.43529412 0.89019608 0.96078431
v 0.02843551 0.00904227 -0.00060472 0.43529412 0.89019608 0.96078431
v 0.02847070 0.00904227 -0.00904735 0.43529412 0.89019608 0.96078431
v 0.02803084 0.01025073 -0.01748707 0.43529412 0.89019608 0.96078431
v 0.02776693 0.01092210 -0.02592969 0.43529412 0.89019608 0.96078431
v 0.02751474 0.01150006 -0.03031684 0.43529412 0.89019608 0.96078431
v -0.02914491 -0.00421576 -0.00301648 0.43529412 0.89019608 0.96078431
v -0.02901002 -0.00515568 -0.00059890 0.43529412 0.89019608 0.96078431
v -0.02912145 -0.00421576 -0.00059890 0.43529412 0.89019608 0.96078431
v -0.02923875 -0.00301314 -0.00059890 0.43529412 0.89019608 0.96078431
v -0.02897484 -0.00391803 -0.03031684 0.43529412 0.89019608 0.96078431
v -0.02893378 -0.00471783 -0.02713412 0.43529412 0.89019608 0.96078431
v -0.02896310 -0.00493383 -0.01748707 0.43529412 0.89019608 0.96078431
v 0.02880499 0.00785133 -0.00059890 0.43529412 0.89019608 0.96078431
v 0.02881085 0.00795641 -0.00904735 0.43529412 0.89019608 0.96078431
v 0.02842964 0.00904227 -0.03031684 0.43529412 0.89019608 0.96078431
v 0.02815987 0.00981288 -0.03031684 0.43529412 0.89019608 0.96078431
v 0.02879913 0.00790387 -0.02592969 0.43529412 0.89019608 0.96078431
v 0.02800151 0.01025073 -0.03031684 0.43529412 0.89019608 0.96078431
v 0.02775519 0.01089875 -0.03031684 0.43529412 0.89019608 0.96078431
v 0.02784317 0.01067107 -0.03031684 0.43529412 0.89019608 0.96078431
v -0.02783120 -0.01122133 -0.00904735 0.43529412 0.89019608 0.96078431
v -0.02871678 -0.00663268 -0.00059890 0.43529412 0.89019608 0.96078431
v -0.02886340 -0.00554098 -0.01748707 0.43529412 0.89019608 0.96078431
v -0.02818896 -0.00904377 -0.02351793 0.43529412 0.89019608 0.96078431
v -0.02891032 -0.00446096 -0.03031684 0.43529412 0.89019608 0.96078431
v -0.02877543 -0.00542422 -0.03031684 0.43529412 0.89019608 0.96078431
v -0.02881062 -0.00542422 -0.02713412 0.43529412 0.89019608 0.96078431
v 0.02882258 0.00778711 -0.00059890 0.43529412 0.89019608 0.96078431
v 0.02897507 0.00735510 -0.00904735 0.43529412 0.89019608 0.96078431
v 0.02982546 0.00422011 -0.02592969 0.43529412 0.89019608 0.96078431
v 0.02896920 0.00731423 -0.02472236 0.43529412 0.89019608 0.96078431
v 0.02855867 0.00863361 -0.03031684 0.43529412 0.89019608 0.96078431
v 0.02878739 0.00789803 -0.02954589 0.43529412 0.89019608 0.96078431
v 0.02896334 0.00729672 -0.02954589 0.43529412 0.89019608 0.96078431
v -0.02767872 -0.01182264 -0.00904735 0.43529412 0.89019608 0.96078431
v -0.02782534 -0.01120382 -0.00784001 0.43529412 0.89019608 0.96078431
v -0.02844700 -0.00783531 -0.00059890 0.43529412 0.89019608 0.96078431
v -0.02855844 -0.00663268 -0.03031684 0.43529412 0.89019608 0.96078431
v -0.02815963 -0.00904377 -0.02472236 0.43529412 0.89019608 0.96078431
v -0.02790158 -0.01014131 -0.02351793 0.43529412 0.89019608 0.96078431
v 0.02909823 0.00677130 -0.00059890 0.43529412 0.89019608 0.96078431
v 0.02912169 0.00668373 -0.00059890 0.43529412 0.89019608 0.96078431
v 0.02940906 0.00542273 -0.00059890 0.43529412 0.89019608 0.96078431
v 0.02968471 0.00422011 -0.00422382 0.43529412 0.89019608 0.96078431
v 0.02993103 0.00301165 -0.00542825 0.43529412 0.89019608 0.96078431
v 0.03017148 0.00250374 -0.02954589 0.43529412 0.89019608 0.96078431
v 0.02981373 0.00422011 -0.02713412 0.43529412 0.89019608 0.96078431
v 0.02893401 0.00738429 -0.03031684 0.43529412 0.89019608 0.96078431
v -0.02742067 -0.01266331 -0.00904735 0.43529412 0.89019608 0.96078431
v -0.02741480 -0.01266331 -0.00784001 0.43529412 0.89019608 0.96078431
v -0.02766699 -0.01180513 -0.00784001 0.43529412 0.89019608 0.96078431
v -0.02812444 -0.00904377 -0.00059890 0.43529412 0.89019608 0.96078431
v -0.02774909 -0.00965092 -0.03031684 0.43529412 0.89019608 0.96078431
v -0.02801887 -0.00904377 -0.02834146 0.43529412 0.89019608 0.96078431
v -0.02807166 -0.00904377 -0.02713412 0.43529412 0.89019608 0.96078431
v -0.02783120 -0.00989611 -0.02713412 0.43529412 0.89019608 0.96078431
v -0.02767872 -0.01067840 -0.02472236 0.43529412 0.89019608 0.96078431
v -0.02770218 -0.01074262 -0.02351793 0.43529412 0.89019608 0.96078431
v 0.02961433 0.00421427 -0.00059890 0.43529412 0.89019608 0.96078431
v 0.02961433 0.00422011 -0.00060472 0.43529412 0.89019608 0.96078431
v 0.02991930 0.00301165 -0.00422382 0.43529412 0.89019608 0.96078431
v 0.03009524 0.00173897 -0.00421800 0.43529412 0.89019608 0.96078431
v 0.03010697 0.00173897 -0.00547480 0.43529412 0.89019608 0.96078431
v 0.03028878 0.00180902 -0.02954589 0.43529412 0.89019608 0.96078431
v 0.03015976 0.00245704 -0.03030520 0.43529412 0.89019608 0.96078431
v 0.03004246 0.00298246 -0.03031684 0.43529412 0.89019608 0.96078431
v 0.03003659 0.00310505 -0.02954589 0.43529412 0.89019608 0.96078431
v 0.02976095 0.00422011 -0.02954589 0.43529412 0.89019608 0.96078431
v 0.02898680 0.00718580 -0.03031684 0.43529412 0.89019608 0.96078431
v -0.02695149 -0.01386593 -0.00904735 0.43529412 0.89019608 0.96078431
v -0.02693976 -0.01386593 -0.00784001 0.43529412 0.89019608 0.96078431
v -0.02732683 -0.01266331 -0.00663558 0.43529412 0.89019608 0.96078431
v -0.02784880 -0.00996033 -0.00059890 0.43529412 0.89019608 0.96078431
v -0.02773737 -0.00969178 -0.03031684 0.43529412 0.89019608 0.96078431
v -0.02776669 -0.00972681 -0.02954589 0.43529412 0.89019608 0.96078431
v -0.02780188 -0.00980854 -0.02834146 0.43529412 0.89019608 0.96078431
v -0.02725645 -0.01104619 -0.03031684 0.43529412 0.89019608 0.96078431
v -0.02709811 -0.01145485 -0.03031684 0.43529412 0.89019608 0.96078431
v -0.02684592 -0.01209703 -0.03031684 0.43529412 0.89019608 0.96078431
v -0.02669930 -0.01245898 -0.03031684 0.43529412 0.89019608 0.96078431
v 0.02977268 0.00300581 -0.00059890 0.43529412 0.89019608 0.96078431
v 0.02977268 0.00301165 -0.00060472 0.43529412 0.89019608 0.96078431
v 0.03015976 0.00129528 -0.00461657 0.43529412 0.89019608 0.96078431
v 0.02989584 0.00180902 -0.00060472 0.43529412 0.89019608 0.96078431
v 0.03043540 0.00060056 -0.02954589 0.43529412 0.89019608 0.96078431
v 0.03041194 0.00060056 -0.03031684 0.43529412 0.89019608 0.96078431
v 0.03024773 0.00184989 -0.03031684 0.43529412 0.89019608 0.96078431
v 0.03015976 0.00243952 -0.03031684 0.43529412 0.89019608 0.96078431
v 0.03015389 0.00246871 -0.03031684 0.43529412 0.89019608 0.96078431
v 0.02983719 0.00381729 -0.03031684 0.43529412 0.89019608 0.96078431
v 0.02973749 0.00422011 -0.03031684 0.43529412 0.89019608 0.96078431
v -0.02660546 -0.01459568 -0.00904735 0.43529412 0.89019608 0.96078431
v -0.02644125 -0.01306029 -0.03031684 0.43529412 0.89019608 0.96078431
v -0.02658201 -0.01455481 -0.01025178 0.43529412 0.89019608 0.96078431
v -0.02659373 -0.01457233 -0.00784001 0.43529412 0.89019608 0.96078431
v -0.02656441 -0.01452562 -0.00694978 0.43529412 0.89019608 0.96078431
v -0.02679314 -0.01397102 -0.00658322 0.43529412 0.89019608 0.96078431
v -0.02762593 -0.01056164 -0.00059890 0.43529412 0.89019608 0.96078431
v -0.02726818 -0.01145485 -0.00059890 0.43529412 0.89019608 0.96078431
v 0.02989584 0.00179735 -0.00059890 0.43529412 0.89019608 0.96078431
v 0.03017735 0.00060640 -0.00421800 0.43529412 0.89019608 0.96078431
v 0.03049405 -0.00060206 -0.02954589 0.43529412 0.89019608 0.96078431
v 0.03014216 0.00100922 -0.00381362 0.43529412 0.89019608 0.96078431
v 0.03015976 0.00020942 -0.00356342 0.43529412 0.89019608 0.96078431
v 0.03042954 0.00016272 -0.03031684 0.43529412 0.89019608 0.96078431
v -0.02618906 -0.01516196 -0.01025178 0.43529412 0.89019608 0.96078431
v -0.02620079 -0.01519699 -0.00904735 0.43529412 0.89019608 0.96078431
v -0.02602485 -0.01386593 -0.03031684 0.43529412 0.89019608 0.96078431
v -0.02569642 -0.01446724 -0.03031684 0.43529412 0.89019608 0.96078431
v -0.02538559 -0.01502185 -0.03031684 0.43529412 0.89019608 0.96078431
v -0.02516859 -0.01540716 -0.03031684 0.43529412 0.89019608 0.96078431
v -0.02461730 -0.01627702 -0.03031684 0.43529412 0.89019608 0.96078431
v -0.02618320 -0.01517364 -0.00784001 0.43529412 0.89019608 0.96078431
v -0.02384902 -0.01770148 -0.00059890 0.43529412 0.89019608 0.96078431
v -0.02427128 -0.01709433 -0.00059890 0.43529412 0.89019608 0.96078431
v -0.02480497 -0.01627702 -0.00059890 0.43529412 0.89019608 0.96078431
v -0.02526243 -0.01557062 -0.00059890 0.43529412 0.89019608 0.96078431
v -0.02560258 -0.01496347 -0.00059890 0.43529412 0.89019608 0.96078431
v -0.02651749 -0.01444389 -0.00614683 0.43529412 0.89019608 0.96078431
v -0.02678140 -0.01258742 -0.00059890 0.43529412 0.89019608 0.96078431
v -0.02649990 -0.01319457 -0.00059890 0.43529412 0.89019608 0.96078431
v 0.02993689 0.00059473 -0.00059890 0.43529412 0.89019608 0.96078431
v 0.03017735 -0.00063125 -0.00419182 0.43529412 0.89019608 0.96078431
v 0.03047059 -0.00180468 -0.02954589 0.43529412 0.89019608 0.96078431
v 0.03045299 -0.00103407 -0.03031684 0.43529412 0.89019608 0.96078431
v 0.03045886 -0.00060206 -0.03031684 0.43529412 0.89019608 0.96078431
v 0.03015976 -0.00025178 -0.00356342 0.43529412 0.89019608 0.96078431
v -0.02558499 -0.01602014 -0.01025178 0.43529412 0.89019608 0.96078431
v -0.02432993 -0.01671486 -0.03031684 0.43529412 0.89019608 0.96078431
v -0.02416571 -0.01695422 -0.03031684 0.43529412 0.89019608 0.96078431
v -0.02374931 -0.01755553 -0.03031684 0.43529412 0.89019608 0.96078431
v -0.02560258 -0.01603182 -0.00904735 0.43529412 0.89019608 0.96078431
v -0.02557913 -0.01600263 -0.00784001 0.43529412 0.89019608 0.96078431
v -0.02324494 -0.01851296 -0.00059890 0.43529412 0.89019608 0.96078431
v -0.02617147 -0.01386593 -0.00059890 0.43529412 0.89019608 0.96078431
v 0.02991930 -0.00060790 -0.00059890 0.43529412 0.89019608 0.96078431
v 0.03014216 -0.00105158 -0.00376707 0.43529412 0.89019608 0.96078431
v 0.03015976 -0.00126175 -0.00457293 0.43529412 0.89019608 0.96078431
v 0.03031810 -0.00301314 -0.02834146 0.43529412 0.89019608 0.96078431
v 0.03033570 -0.00301314 -0.02954589 0.43529412 0.89019608 0.96078431
v 0.03038262 -0.00224253 -0.03031684 0.43529412 0.89019608 0.96078431
v 0.03042954 -0.00180468 -0.03031684 0.43529412 0.89019608 0.96078431
v -0.02511581 -0.01662146 -0.01025178 0.43529412 0.89019608 0.96078431
v -0.02336224 -0.01808679 -0.03031684 0.43529412 0.89019608 0.96078431
v -0.02314524 -0.01838452 -0.03031684 0.43529412 0.89019608 0.96078431
v -0.02297516 -0.01860637 -0.03031684 0.43529412 0.89019608 0.96078431
v -0.02511581 -0.01663313 -0.00904735 0.43529412 0.89019608 0.96078431
v -0.02276403 -0.01911427 -0.00059890 0.43529412 0.89019608 0.96078431
v 0.02985479 -0.00181052 -0.00059890 0.43529412 0.89019608 0.96078431
v 0.03003073 -0.00180468 -0.00301648 0.43529412 0.89019608 0.96078431
v 0.02992516 -0.00301314 -0.00301648 0.43529412 0.89019608 0.96078431
v 0.03019494 -0.00380127 -0.02834146 0.43529412 0.89019608 0.96078431
v 0.03018908 -0.00379543 -0.02954589 0.43529412 0.89019608 0.96078431
v 0.03017148 -0.00373705 -0.03031684 0.43529412 0.89019608 0.96078431
v 0.03028292 -0.00306568 -0.03031684 0.43529412 0.89019608 0.96078431
v -0.02401323 -0.01795835 -0.01145911 0.43529412 0.89019608 0.96078431
v -0.02267020 -0.01899167 -0.03031684 0.43529412 0.89019608 0.96078431
v -0.02291652 -0.01929525 -0.01082781 0.43529412 0.89019608 0.96078431
v -0.02291652 -0.01929525 -0.01095290 0.43529412 0.89019608 0.96078431
v -0.02215996 -0.01980315 -0.00060472 0.43529412 0.89019608 0.96078431
v -0.02215996 -0.01979731 -0.00059890 0.43529412 0.89019608 0.96078431
v 0.02974336 -0.00301898 -0.00059890 0.43529412 0.89019608 0.96078431
v 0.02962606 -0.00422160 -0.00059890 0.43529412 0.89019608 0.96078431
v 0.02942666 -0.00543006 -0.00059890 0.43529412 0.89019608 0.96078431
v 0.02915688 -0.00672025 -0.00059890 0.43529412 0.89019608 0.96078431
v 0.02889296 -0.00794039 -0.00059890 0.43529412 0.89019608 0.96078431
v 0.02933869 -0.00783531 -0.02954589 0.43529412 0.89019608 0.96078431
v 0.02972576 -0.00585623 -0.03031684 0.43529412 0.89019608 0.96078431
v -0.02228312 -0.01946455 -0.03031684 0.43529412 0.89019608 0.96078431
v -0.02156761 -0.02033441 -0.03031684 0.43529412 0.89019608 0.96078431
v -0.02290478 -0.01928941 -0.01175586 0.43529412 0.89019608 0.96078431
v -0.02172010 -0.02051538 -0.01025178 0.43529412 0.89019608 0.96078431
v -0.02171424 -0.02050955 -0.00955647 0.43529412 0.89019608 0.96078431
v -0.02043571 -0.02164211 -0.00059890 0.43529412 0.89019608 0.96078431
v -0.02102219 -0.02103496 -0.00059890 0.43529412 0.89019608 0.96078431
v -0.02162040 -0.02040446 -0.00059890 0.43529412 0.89019608 0.96078431
v -0.02096354 -0.02099994 -0.03031684 0.43529412 0.89019608 0.96078431
v -0.02075828 -0.02121594 -0.03031684 0.43529412 0.89019608 0.96078431
v -0.02038879 -0.02160125 -0.03031684 0.43529412 0.89019608 0.96078431
v -0.02172010 -0.02051538 -0.01145911 0.43529412 0.89019608 0.96078431
v 0.02859972 -0.00904377 -0.00059890 0.43529412 0.89019608 0.96078431
v 0.02929177 -0.00783531 -0.03031684 0.43529412 0.89019608 0.96078431
v 0.02946771 -0.00706470 -0.03031684 0.43529412 0.89019608 0.96078431
v 0.02956155 -0.00663268 -0.03031684 0.43529412 0.89019608 0.96078431
v 0.02906891 -0.00883944 -0.02954589 0.43529412 0.89019608 0.96078431
v 0.02904545 -0.00878690 -0.03031684 0.43529412 0.89019608 0.96078431
v -0.02110430 -0.02111670 -0.01025178 0.43529412 0.89019608 0.96078431
v -0.02050023 -0.02170633 -0.01025178 0.43529412 0.89019608 0.96078431
v -0.01983164 -0.02219672 -0.00059890 0.43529412 0.89019608 0.96078431
v -0.02000759 -0.02194569 -0.03031684 0.43529412 0.89019608 0.96078431
v -0.01918065 -0.02281555 -0.02231059 0.43529412 0.89019608 0.96078431
v 0.02822438 -0.01025223 -0.00059890 0.43529412 0.89019608 0.96078431
v 0.02886950 -0.00944075 -0.02954589 0.43529412 0.89019608 0.96078431
v 0.02886364 -0.00938821 -0.03031684 0.43529412 0.89019608 0.96078431
v 0.02893401 -0.00917220 -0.03031684 0.43529412 0.89019608 0.96078431
v -0.01989615 -0.02222007 -0.01025178 0.43529412 0.89019608 0.96078431
v -0.01916306 -0.02279803 -0.00059890 0.43529412 0.89019608 0.96078431
v -0.01850034 -0.02328258 -0.03031684 0.43529412 0.89019608 0.96078431
v -0.01918065 -0.02282138 -0.01025178 0.43529412 0.89019608 0.96078431
v -0.01825402 -0.02349859 -0.03031684 0.43529412 0.89019608 0.96078431
v -0.01779070 -0.02388389 -0.03031684 0.43529412 0.89019608 0.96078431
v -0.01779656 -0.02388389 -0.02834146 0.43529412 0.89019608 0.96078431
v -0.01718662 -0.02438596 -0.01748707 0.43529412 0.89019608 0.96078431
v 0.02787835 -0.01116879 -0.00059890 0.43529412 0.89019608 0.96078431
v 0.02852348 -0.01024639 -0.03031684 0.43529412 0.89019608 0.96078431
v -0.01855898 -0.02328842 -0.00059890 0.43529412 0.89019608 0.96078431
v -0.01779656 -0.02389557 -0.00059890 0.43529412 0.89019608 0.96078431
v -0.01718662 -0.02434510 -0.03031684 0.43529412 0.89019608 0.96078431
v -0.01638901 -0.02497560 -0.01869149 0.43529412 0.89019608 0.96078431
v -0.01719835 -0.02434510 -0.00059890 0.43529412 0.89019608 0.96078431
v 0.02759685 -0.01177010 -0.00059890 0.43529412 0.89019608 0.96078431
v 0.02685202 -0.01386593 -0.02592969 0.43529412 0.89019608 0.96078431
v 0.02797219 -0.01142566 -0.03031684 0.43529412 0.89019608 0.96078431
v -0.01634210 -0.02494641 -0.03031684 0.43529412 0.89019608 0.96078431
v -0.01578494 -0.02539593 -0.01869149 0.43529412 0.89019608 0.96078431
v -0.01595502 -0.02522079 -0.03031684 0.43529412 0.89019608 0.96078431
v -0.01620134 -0.02501646 -0.00059890 0.43529412 0.89019608 0.96078431
v 0.02715112 -0.01266331 -0.00059890 0.43529412 0.89019608 0.96078431
v 0.02646494 -0.01431546 -0.00784001 0.43529412 0.89019608 0.96078431
v 0.02653532 -0.01447892 -0.02529839 0.43529412 0.89019608 0.96078431
v 0.02653532 -0.01447892 -0.02592969 0.43529412 0.89019608 0.96078431
v 0.02653532 -0.01447308 -0.02656391 0.43529412 0.89019608 0.96078431
v 0.02720390 -0.01301943 -0.03031684 0.43529412 0.89019608 0.96078431
v -0.01573802 -0.02536674 -0.03031684 0.43529412 0.89019608 0.96078431
v -0.01474101 -0.02599140 -0.03031684 0.43529412 0.89019608 0.96078431
v -0.01353873 -0.02669196 -0.02954589 0.43529412 0.89019608 0.96078431
v -0.01407243 -0.02630665 -0.00059890 0.43529412 0.89019608 0.96078431
v -0.01517500 -0.02566448 -0.00059890 0.43529412 0.89019608 0.96078431
v 0.02669367 -0.01354484 -0.00059890 0.43529412 0.89019608 0.96078431
v 0.02641216 -0.01421621 -0.00301648 0.43529412 0.89019608 0.96078431
v 0.02593125 -0.01507439 -0.00301648 0.43529412 0.89019608 0.96078431
v 0.02603095 -0.01507439 -0.00784001 0.43529412 0.89019608 0.96078431
v 0.02519229 -0.01664481 -0.01507821 0.43529412 0.89019608 0.96078431
v 0.02556763 -0.01602014 -0.03031684 0.43529412 0.89019608 0.96078431
v 0.02681096 -0.01377253 -0.03031684 0.43529412 0.89019608 0.96078431
v 0.02611892 -0.01507439 -0.03031684 0.43529412 0.89019608 0.96078431
v -0.01413694 -0.02634168 -0.03031684 0.43529412 0.89019608 0.96078431
v -0.01353287 -0.02668028 -0.03031684 0.43529412 0.89019608 0.96078431
v -0.01321617 -0.02683791 -0.03031684 0.43529412 0.89019608 0.96078431
v -0.01265901 -0.02711229 -0.03031684 0.43529412 0.89019608 0.96078431
v -0.01265901 -0.02712397 -0.02954589 0.43529412 0.89019608 0.96078431
v -0.01265901 -0.02712397 -0.02834146 0.43529412 0.89019608 0.96078431
v -0.01265901 -0.02704808 -0.00059890 0.43529412 0.89019608 0.96078431
v -0.01346835 -0.02664526 -0.00059890 0.43529412 0.89019608 0.96078431
v 0.02539755 -0.01579246 -0.00059890 0.43529412 0.89019608 0.96078431
v 0.02544447 -0.01586252 -0.00180915 0.43529412 0.89019608 0.96078431
v 0.02589606 -0.01507439 -0.00180915 0.43529412 0.89019608 0.96078431
v 0.02465859 -0.01748548 -0.01507821 0.43529412 0.89019608 0.96078431
v 0.02418354 -0.01819771 -0.02954589 0.43529412 0.89019608 0.96078431
v 0.02417768 -0.01818603 -0.03031684 0.43529412 0.89019608 0.96078431
v -0.01169719 -0.02756766 -0.03031684 0.43529412 0.89019608 0.96078431
v -0.01131011 -0.02774863 -0.03031684 0.43529412 0.89019608 0.96078431
v -0.01108139 -0.02785372 -0.01266645 0.43529412 0.89019608 0.96078431
v -0.01162095 -0.02753847 -0.00059890 0.43529412 0.89019608 0.96078431
v 0.02502221 -0.01639961 -0.00059890 0.43529412 0.89019608 0.96078431
v 0.02504567 -0.01646383 -0.00180915 0.43529412 0.89019608 0.96078431
v 0.02411903 -0.01809263 -0.00722325 0.43529412 0.89019608 0.96078431
v 0.02418941 -0.01818019 -0.01507821 0.43529412 0.89019608 0.96078431
v 0.02419527 -0.01819187 -0.01627973 0.43529412 0.89019608 0.96078431
v 0.02376128 -0.01880486 -0.02954589 0.43529412 0.89019608 0.96078431
v 0.02376128 -0.01879318 -0.03031684 0.43529412 0.89019608 0.96078431
v 0.02391376 -0.01857134 -0.03031684 0.43529412 0.89019608 0.96078431
v -0.01109312 -0.02784788 -0.03031684 0.43529412 0.89019608 0.96078431
v -0.01024859 -0.02822151 -0.01145911 0.43529412 0.89019608 0.96078431
v -0.01101687 -0.02781285 -0.00060472 0.43529412 0.89019608 0.96078431
v -0.01101687 -0.02780701 -0.00059890 0.43529412 0.89019608 0.96078431
v 0.02441813 -0.01729866 -0.00059890 0.43529412 0.89019608 0.96078431
v 0.02444746 -0.01733369 -0.00180915 0.43529412 0.89019608 0.96078431
v 0.02296367 -0.01935947 -0.00090146 0.43529412 0.89019608 0.96078431
v 0.02297540 -0.01937698 -0.00180915 0.43529412 0.89019608 0.96078431
v 0.02373782 -0.01879318 -0.01627973 0.43529412 0.89019608 0.96078431
v 0.02313375 -0.01954044 -0.01627973 0.43529412 0.89019608 0.96078431
v 0.02315721 -0.01954628 -0.02954589 0.43529412 0.89019608 0.96078431
v 0.02315721 -0.01954628 -0.03031684 0.43529412 0.89019608 0.96078431
v -0.01024859 -0.02818064 -0.03031684 0.43529412 0.89019608 0.96078431
v -0.00904044 -0.02869438 -0.01145911 0.43529412 0.89019608 0.96078431
v -0.00904044 -0.02866519 -0.00301648 0.43529412 0.89019608 0.96078431
v -0.01024859 -0.02812810 -0.00059890 0.43529412 0.89019608 0.96078431
v 0.02397828 -0.01790581 -0.00059890 0.43529412 0.89019608 0.96078431
v 0.02259419 -0.01973893 -0.00059890 0.43529412 0.89019608 0.96078431
v 0.02187868 -0.02059128 -0.00059890 0.43529412 0.89019608 0.96078431
v 0.02187282 -0.02069636 -0.00180915 0.43529412 0.89019608 0.96078431
v 0.02247689 -0.01997829 -0.00180915 0.43529412 0.89019608 0.96078431
v 0.02325691 -0.01889243 -0.00059890 0.43529412 0.89019608 0.96078431
v 0.02136258 -0.02131519 -0.00301648 0.43529412 0.89019608 0.96078431
v 0.02200771 -0.02081896 -0.01989883 0.43529412 0.89019608 0.96078431
v 0.02199012 -0.02081896 -0.03031684 0.43529412 0.89019608 0.96078431
v -0.00904044 -0.02860681 -0.03031684 0.43529412 0.89019608 0.96078431
v -0.00873547 -0.02871190 -0.03031684 0.43529412 0.89019608 0.96078431
v -0.00837186 -0.02892207 -0.01145911 0.43529412 0.89019608 0.96078431
v -0.00834840 -0.02892207 -0.00301648 0.43529412 0.89019608 0.96078431
v -0.00904044 -0.02857763 -0.00059890 0.43529412 0.89019608 0.96078431
v 0.02183177 -0.02064382 -0.00059890 0.43529412 0.89019608 0.96078431
v 0.02133326 -0.02129767 -0.00180915 0.43529412 0.89019608 0.96078431
v 0.02076437 -0.02196904 -0.00301648 0.43529412 0.89019608 0.96078431
v 0.02142123 -0.02142027 -0.03031684 0.43529412 0.89019608 0.96078431
v 0.02163236 -0.02120426 -0.03031684 0.43529412 0.89019608 0.96078431
v 0.02081716 -0.02203326 -0.02110326 0.43529412 0.89019608 0.96078431
v -0.00821351 -0.02888120 -0.03031684 0.43529412 0.89019608 0.96078431
v -0.00776779 -0.02910304 -0.01145911 0.43529412 0.89019608 0.96078431
v -0.00663002 -0.02941829 -0.01145911 0.43529412 0.89019608 0.96078431
v -0.00542187 -0.02969852 -0.01145911 0.43529412 0.89019608 0.96078431
v -0.00774433 -0.02905050 -0.00301648 0.43529412 0.89019608 0.96078431
v -0.00663002 -0.02922564 -0.00059890 0.43529412 0.89019608 0.96078431
v -0.00753319 -0.02902131 -0.00059890 0.43529412 0.89019608 0.96078431
v -0.00813727 -0.02886369 -0.00059890 0.43529412 0.89019608 0.96078431
v 0.02126875 -0.02125097 -0.00059890 0.43529412 0.89019608 0.96078431
v 0.02072919 -0.02192817 -0.00180915 0.43529412 0.89019608 0.96078431
v 0.02013098 -0.02257035 -0.00301648 0.43529412 0.89019608 0.96078431
v 0.02018963 -0.02263457 -0.02110326 0.43529412 0.89019608 0.96078431
v 0.02081716 -0.02200991 -0.03031684 0.43529412 0.89019608 0.96078431
v 0.02018376 -0.02261705 -0.03031684 0.43529412 0.89019608 0.96078431
v -0.00782643 -0.02898628 -0.03031684 0.43529412 0.89019608 0.96078431
v -0.00760944 -0.02904466 -0.03031684 0.43529412 0.89019608 0.96078431
v -0.00663002 -0.02929570 -0.03031684 0.43529412 0.89019608 0.96078431
v -0.00542187 -0.02956424 -0.03031684 0.43529412 0.89019608 0.96078431
v -0.00421959 -0.02993204 -0.01145911 0.43529412 0.89019608 0.96078431
v -0.00542187 -0.02947667 -0.00059890 0.43529412 0.89019608 0.96078431
v 0.02067054 -0.02186979 -0.00059890 0.43529412 0.89019608 0.96078431
v 0.02008406 -0.02252949 -0.00180915 0.43529412 0.89019608 0.96078431
v 0.01947999 -0.02307242 -0.00180915 0.43529412 0.89019608 0.96078431
v 0.01952691 -0.02310744 -0.00301648 0.43529412 0.89019608 0.96078431
v 0.01884073 -0.02374962 -0.01387088 0.43529412 0.89019608 0.96078431
v 0.01958555 -0.02314831 -0.02110326 0.43529412 0.89019608 0.96078431
v 0.01958555 -0.02317166 -0.03031684 0.43529412 0.89019608 0.96078431
v 0.01996676 -0.02282138 -0.03031684 0.43529412 0.89019608 0.96078431
v -0.00498788 -0.02964597 -0.03031684 0.43529412 0.89019608 0.96078431
v -0.00421959 -0.02968100 -0.00059890 0.43529412 0.89019608 0.96078431
v -0.00421959 -0.02978609 -0.03031684 0.43529412 0.89019608 0.96078431
v -0.00328709 -0.03008966 -0.01266645 0.43529412 0.89019608 0.96078431
v -0.00268888 -0.03018891 -0.01266645 0.43529412 0.89019608 0.96078431
v -0.00265956 -0.03018307 -0.01174131 0.43529412 0.89019608 0.96078431
v 0.02000195 -0.02247111 -0.00059890 0.43529412 0.89019608 0.96078431
v 0.01940375 -0.02300236 -0.00059890 0.43529412 0.89019608 0.96078431
v 0.01865306 -0.02363870 -0.00059890 0.43529412 0.89019608 0.96078431
v 0.01873516 -0.02367373 -0.00180915 0.43529412 0.89019608 0.96078431
v 0.01878208 -0.02371459 -0.00301648 0.43529412 0.89019608 0.96078431
v 0.01823665 -0.02422250 -0.01387088 0.43529412 0.89019608 0.96078431
v 0.01885245 -0.02377881 -0.03031684 0.43529412 0.89019608 0.96078431
v -0.00301145 -0.02985614 -0.00059890 0.43529412 0.89019608 0.96078431
v -0.00378560 -0.02985030 -0.03031684 0.43529412 0.89019608 0.96078431
v -0.00301145 -0.02995539 -0.03031684 0.43529412 0.89019608 0.96078431
v -0.00180330 -0.03029399 -0.01266645 0.43529412 0.89019608 0.96078431
v -0.00180330 -0.03000793 -0.00059890 0.43529412 0.89019608 0.96078431
v 0.01757393 -0.02449104 -0.00059890 0.43529412 0.89019608 0.96078431
v 0.01813109 -0.02415244 -0.00180915 0.43529412 0.89019608 0.96078431
v 0.01817801 -0.02418747 -0.00301648 0.43529412 0.89019608 0.96078431
v 0.01824838 -0.02424001 -0.02834146 0.43529412 0.89019608 0.96078431
v 0.01748596 -0.02468370 -0.00301648 0.43529412 0.89019608 0.96078431
v 0.01684670 -0.02529668 -0.03031684 0.43529412 0.89019608 0.96078431
v 0.01708129 -0.02512154 -0.03031684 0.43529412 0.89019608 0.96078431
v 0.01775574 -0.02461364 -0.03031684 0.43529412 0.89019608 0.96078431
v -0.00257745 -0.03000209 -0.03031684 0.43529412 0.89019608 0.96078431
v -0.00180330 -0.03007215 -0.03031684 0.43529412 0.89019608 0.96078431
v -0.00060102 -0.03038156 -0.01266645 0.43529412 0.89019608 0.96078431
v -0.00069486 -0.03008966 -0.00059890 0.43529412 0.89019608 0.96078431
v 0.01748596 -0.02463699 -0.00180915 0.43529412 0.89019608 0.96078431
v 0.01664730 -0.02516241 -0.00059890 0.43529412 0.89019608 0.96078431
v 0.01670595 -0.02520912 -0.00180915 0.43529412 0.89019608 0.96078431
v 0.01671768 -0.02521495 -0.00301648 0.43529412 0.89019608 0.96078431
v 0.01662970 -0.02544263 -0.03031684 0.43529412 0.89019608 0.96078431
v -0.00080043 -0.03013636 -0.03031684 0.43529412 0.89019608 0.96078431
v -0.00002627 -0.03016555 -0.03031684 0.43529412 0.89019608 0.96078431
v 0.00057193 -0.03017139 -0.03031684 0.43529412 0.89019608 0.96078431
v 0.00108217 -0.03017139 -0.03031684 0.43529412 0.89019608 0.96078431
v 0.00184459 -0.03016555 -0.03031684 0.43529412 0.89019608 0.96078431
v 0.00215542 -0.03015972 -0.03031684 0.43529412 0.89019608 0.96078431
v 0.00060126 -0.03035821 -0.01266645 0.43529412 0.89019608 0.96078431
v 0.00060126 -0.03033485 -0.01145911 0.43529412 0.89019608 0.96078431
v 0.00065991 -0.03010134 -0.00059890 0.43529412 0.89019608 0.96078431
v 0.00061299 -0.03010134 -0.00059890 0.43529412 0.89019608 0.96078431
v 0.01604323 -0.02555356 -0.00059890 0.43529412 0.89019608 0.96078431
v 0.01610187 -0.02558858 -0.00180915 0.43529412 0.89019608 0.96078431
v 0.01611360 -0.02561193 -0.00301648 0.43529412 0.89019608 0.96078431
v 0.01624263 -0.02568783 -0.03031684 0.43529412 0.89019608 0.96078431
v 0.00243107 -0.03014804 -0.03031684 0.43529412 0.89019608 0.96078431
v 0.00542211 -0.02987366 -0.02713412 0.43529412 0.89019608 0.96078431
v 0.00191497 -0.03021810 -0.01264027 0.43529412 0.89019608 0.96078431
v 0.00190910 -0.03021226 -0.01150275 0.43529412 0.89019608 0.96078431
v 0.00301168 -0.02995539 -0.00059890 0.43529412 0.89019608 0.96078431
v 0.00180354 -0.03005463 -0.00059890 0.43529412 0.89019608 0.96078431
v 0.00269498 -0.03012469 -0.03031684 0.43529412 0.89019608 0.96078431
v 0.01507554 -0.02611984 -0.00059890 0.43529412 0.89019608 0.96078431
v 0.01497584 -0.02625411 -0.00175678 0.43529412 0.89019608 0.96078431
v 0.01450665 -0.02655185 -0.00212044 0.43529412 0.89019608 0.96078431
v 0.01512832 -0.02621325 -0.00301648 0.43529412 0.89019608 0.96078431
v 0.01458876 -0.02661023 -0.01869149 0.43529412 0.89019608 0.96078431
v 0.01518697 -0.02628914 -0.03031684 0.43529412 0.89019608 0.96078431
v 0.00299409 -0.03009550 -0.03031684 0.43529412 0.89019608 0.96078431
v 0.00346914 -0.03004296 -0.03031684 0.43529412 0.89019608 0.96078431
v 0.00421983 -0.02995539 -0.03031684 0.43529412 0.89019608 0.96078431
v 0.00465382 -0.02989701 -0.03031684 0.43529412 0.89019608 0.96078431
v 0.00542211 -0.02978025 -0.03031684 0.43529412 0.89019608 0.96078431
v 0.00663025 -0.02965181 -0.02713412 0.43529412 0.89019608 0.96078431
v 0.00663025 -0.02965181 -0.02592969 0.43529412 0.89019608 0.96078431
v 0.00421983 -0.02978609 -0.00059890 0.43529412 0.89019608 0.96078431
v 0.00421983 -0.02987366 -0.00904735 0.43529412 0.89019608 0.96078431
v 0.00301168 -0.03006047 -0.01025178 0.43529412 0.89019608 0.96078431
v 0.01439522 -0.02649347 -0.00059890 0.43529412 0.89019608 0.96078431
v 0.01440109 -0.02649347 -0.00060472 0.43529412 0.89019608 0.96078431
v 0.01445387 -0.02652266 -0.00131749 0.43529412 0.89019608 0.96078431
v 0.01397882 -0.02678537 -0.00175678 0.43529412 0.89019608 0.96078431
v 0.01386739 -0.02689045 -0.00301648 0.43529412 0.89019608 0.96078431
v 0.01452425 -0.02656352 -0.00301648 0.43529412 0.89019608 0.96078431
v 0.01386739 -0.02697218 -0.02834146 0.43529412 0.89019608 0.96078431
v 0.01216074 -0.02778950 -0.01869149 0.43529412 0.89019608 0.96078431
v 0.01496997 -0.02640006 -0.03031684 0.43529412 0.89019608 0.96078431
v 0.00586197 -0.02968684 -0.03031684 0.43529412 0.89019608 0.96078431
v 0.00663025 -0.02952338 -0.03031684 0.43529412 0.89019608 0.96078431
v 0.00706425 -0.02942413 -0.03031684 0.43529412 0.89019608 0.96078431
v 0.00874157 -0.02902715 -0.03031684 0.43529412 0.89019608 0.96078431
v 0.00783840 -0.02932488 -0.02713412 0.43529412 0.89019608 0.96078431
v 0.00783840 -0.02934240 -0.02592969 0.43529412 0.89019608 0.96078431
v 0.00846593 -0.02895125 -0.00104693 0.43529412 0.89019608 0.96078431
v 0.00663025 -0.02934824 -0.00059890 0.43529412 0.89019608 0.96078431
v 0.00542211 -0.02957592 -0.00059890 0.43529412 0.89019608 0.96078431
v 0.01379702 -0.02678537 -0.00059890 0.43529412 0.89019608 0.96078431
v 0.01265925 -0.02740419 -0.00180915 0.43529412 0.89019608 0.96078431
v 0.01204931 -0.02773112 -0.00266447 0.43529412 0.89019608 0.96078431
v 0.01254195 -0.02751511 -0.00304558 0.43529412 0.89019608 0.96078431
v 0.01217247 -0.02778950 -0.03031684 0.43529412 0.89019608 0.96078431
v 0.01277654 -0.02749760 -0.03031684 0.43529412 0.89019608 0.96078431
v 0.01317535 -0.02729911 -0.03031684 0.43529412 0.89019608 0.96078431
v 0.01206104 -0.02773696 -0.00346742 0.43529412 0.89019608 0.96078431
v 0.01145697 -0.02809891 -0.01869149 0.43529412 0.89019608 0.96078431
v 0.00934565 -0.02885785 -0.03031684 0.43529412 0.89019608 0.96078431
v 0.00873571 -0.02905050 -0.02713412 0.43529412 0.89019608 0.96078431
v 0.01024882 -0.02853092 -0.01869149 0.43529412 0.89019608 0.96078431
v 0.01024882 -0.02842584 -0.00301648 0.43529412 0.89019608 0.96078431
v 0.00897030 -0.02879363 -0.00059890 0.43529412 0.89019608 0.96078431
v 0.00793223 -0.02905634 -0.00059890 0.43529412 0.89019608 0.96078431
v 0.01265925 -0.02730495 -0.00059890 0.43529412 0.89019608 0.96078431
v 0.01198480 -0.02770777 -0.00180915 0.43529412 0.89019608 0.96078431
v 0.01024882 -0.02835578 -0.00059890 0.43529412 0.89019608 0.96078431
v 0.01156840 -0.02792961 -0.00304558 0.43529412 0.89019608 0.96078431
v 0.01170915 -0.02798799 -0.03031684 0.43529412 0.89019608 0.96078431
v 0.01145697 -0.02809307 -0.03031684 0.43529412 0.89019608 0.96078431
v 0.01024882 -0.02855427 -0.03031684 0.43529412 0.89019608 0.96078431
v 0.01024882 -0.02839665 -0.00180915 0.43529412 0.89019608 0.96078431
v 0.01127516 -0.02792377 -0.00059890 0.43529412 0.89019608 0.96078431
f 1 2 3
f 1 3 4
f 1 4 5
f 1 5 6
f 1 6 7
f 1 7 8
f 1 8 9
f 1 9 18
f 1 18 28
f 1 28 40
f 1 40 54
f 1 54 74
f 1 74 95
f 1 95 99
f 1 99 118
f 1 118 117
f 1 117 139
f 1 139 138
f 1 138 115
f 1 115 114
f 1 114 113
f 1 113 111
f 1 111 96
f 1 96 94
f 1 94 93
f 1 93 110
f 1 110 135
f 1 135 151
f 1 151 150
f 1 150 137
f 1 137 153
f 1 153 149
f 1 149 165
f 1 165 180
f 1 180 183
f 1 183 196
f 1 196 208
f 1 208 220
f 1 220 230
f 1 230 242
f 1 242 263
f 1 263 274
f 1 274 273
f 1 273 272
f 1 272 288
f 1 288 286
f 1 286 285
f 1 285 306
f 1 306 316
f 1 316 315
f 1 315 325
f 1 325 338
f 1 338 337
f 1 337 336
f 1 336 351
f 1 351 366
f 1 366 381
f 1 381 402
f 1 402 427
f 1 427 428
f 1 428 449
f 1 449 450
f 1 450 464
f 1 464 447
f 1 447 446
f 1 446 445
f 1 445 444
f 1 444 443
f 1 443 463
f 1 463 477
f 1 477 490
f 1 490 505
f 1 505 504
f 1 504 503
f 1 503 518
f 1 518 526
f 1 526 535
f 1 535 536
f 1 536 539
f 1 539 546
f 1 546 557
f 1 557 556
f 1 556 573
f 1 573 572
f 1 572 583
f 1 583 595
f 1 595 607
f 1 607 621
f 1 621 635
f 1 635 634
f 1 634 633
f 1 633 647
f 1 647 657
f 1 657 669
f 1 669 673
f 1 673 685
f 1 685 700
f 1 700 699
f 1 699 710
f 1 710 709
f 1 709 725
f 1 725 745
f 1 745 744
f 1 744 760
f 1 760 759
f 1 759 763
f 1 763 769
f 1 769 761
f 1 761 746
f 1 746 728
f 1 728 712
f 1 712 701
f 1 701 687
f 1 687 674
f 1 674 664
f 1 664 663
f 1 663 662
f 1 662 648
f 1 648 636
f 1 636 622
f 1 622 610
f 1 610 609
f 1 609 613
f 1 613 608
f 1 608 596
f 1 596 584
f 1 584 574
f 1 574 558
f 1 558 547
f 1 547 540
f 1 540 533
f 1 533 521
f 1 521 510
f 1 510 495
f 1 495 494
f 1 494 493
f 1 493 492
f 1 492 491
f 1 491 478
f 1 478 465
f 1 465 451
f 1 451 429
f 1 429 410
f 1 410 388
f 1 388 372
f 1 372 371
f 1 371 370
f 1 370 357
f 1 357 342
f 1 342 329
f 1 329 319
f 1 319 318
f 1 318 308
f 1 308 307
f 1 307 290
f 1 290 289
f 1 289 275
f 1 275 264
f 1 264 245
f 1 245 244
f 1 244 243
f 1 243 231
f 1 231 224
f 1 224 221
f 1 221 210
f 1 210 199
f 1 199 188
f 1 188 187
f 1 187 184
f 1 184 166
f 1 166 154
f 1 154 141
f 1 141 123
f 1 123 121
f 1 121 140
f 1 140 119
f 1 119 100
f 1 100 83
f 1 83 61
f 1 61 47
f 1 47 44
f 1 44 30
f 1 30 19
f 1 19 10
f 1 10 2
f 2 10 3
f 3 10 4
f 4 10 11
f 4 11 12
f 4 12 5
f 5 12 13
f 5 13 14
f 5 14 15
f 5 15 6
f 6 15 7
f 7 15 14
f 7 14 13
f 7 13 12
f 7 12 21
f 7 21 31
f 7 31 34
f 7 34 46
f 7 46 45
f 7 45 60
f 7 60 82
f 7 82 104
f 7 104 127
f 7 127 126
f 7 126 144
f 7 144 143
f 7 143 158
f 7 158 172
f 7 172 191
f 7 191 203
f 7 203 202
f 7 202 204
f 7 204 192
f 7 192 198
f 7 198 209
f 7 209 216
f 7 216 215
f 7 215 214
f 7 214 213
f 7 213 212
f 7 212 225
f 7 225 237
f 7 237 254
f 7 254 253
f 7 253 251
f 7 251 252
f 7 252 250
f 7 250 249
f 7 249 248
f 7 248 267
f 7 267 279
f 7 279 293
f 7 293 292
f 7 292 312
f 7 312 311
f 7 311 323
f 7 323 334
f 7 334 348
f 7 348 349
f 7 349 347
f 7 347 345
f 7 345 344
f 7 344 361
f 7 361 377
f 7 377 398
f 7 398 420
f 7 420 419
f 7 419 395
f 7 395 418
f 7 418 417
f 7 417 416
f 7 416 415
f 7 415 434
f 7 434 455
f 7 455 454
f 7 454 471
f 7 471 470
f 7 470 484
f 7 484 483
f 7 483 497
f 7 497 513
f 7 513 512
f 7 512 511
f 7 511 515
f 7 515 524
f 7 524 523
f 7 523 534
f 7 534 542
f 7 542 552
f 7 552 564
f 7 564 565
f 7 565 563
f 7 563 579
f 7 579 591
f 7 591 590
f 7 590 603
f 7 603 616
f 7 616 626
f 7 626 625
f 7 625 640
f 7 640 641
f 7 641 655
f 7 655 654
f 7 654 668
f 7 668 681
f 7 681 680
f 7 680 679
f 7 679 690
f 7 690 704
f 7 704 717
f 7 717 736
f 7 736 752
f 7 752 751
f 7 751 750
f 7 750 765
f 7 765 766
f 7 766 767
f 7 767 755
f 7 755 740
f 7 740 739
f 7 739 738
f 7 738 737
f 7 737 722
f 7 722 721
f 7 721 720
f 7 720 719
f 7 719 718
f 7 718 711
f 7 711 705
f 7 705 696
f 7 696 695
f 7 695 694
f 7 694 693
f 7 693 692
f 7 692 691
f 7 691 683
f 7 683 682
f 7 682 671
f 7 671 670
f 7 670 658
f 7 658 656
f 7 656 645
f 7 645 644
f 7 644 643
f 7 643 642
f 7 642 628
f 7 628 618
f 7 618 617
f 7 617 604
f 7 604 592
f 7 592 581
f 7 581 580
f 7 580 569
f 7 569 568
f 7 568 567
f 7 567 566
f 7 566 554
f 7 554 553
f 7 553 545
f 7 545 543
f 7 543 537
f 7 537 530
f 7 530 529
f 7 529 527
f 7 527 519
f 7 519 508
f 7 508 507
f 7 507 506
f 7 506 499
f 7 499 498
f 7 498 486
f 7 486 475
f 7 475 474
f 7 474 473
f 7 473 460
f 7 460 459
f 7 459 458
f 7 458 441
f 7 441 440
f 7 440 439
f 7 439 438
f 7 438 437
f 7 437 422
f 7 422 409
f 7 409 408
f 7 408 407
f 7 407 406
f 7 406 403
f 7 403 382
f 7 382 367
f 7 367 355
f 7 355 354
f 7 354 339
f 7 339 328
f 7 328 327
f 7 327 326
f 7 326 317
f 7 317 313
f 7 313 301
f 7 301 298
f 7 298 297
f 7 297 296
f 7 296 295
f 7 295 294
f 7 294 280
f 7 280 268
f 7 268 257
f 7 257 256
f 7 256 255
f 7 255 238
f 7 238 226
f 7 226 217
f 7 217 205
f 7 205 193
f 7 193 181
f 7 181 178
f 7 178 177
f 7 177 176
f 7 176 175
f 7 175 174
f 7 174 173
f 7 173 159
f 7 159 145
f 7 145 130
f 7 130 129
f 7 129 128
f 7 128 105
f 7 105 90
f 7 90 89
f 7 89 88
f 7 88 87
f 7 87 86
f 7 86 85
f 7 85 84
f 7 84 69
f 7 69 68
f 7 68 67
f 7 67 66
f 7 66 65
f 7 65 64
f 7 64 63
f 7 63 62
f 7 62 49
f 7 49 37
f 7 37 24
f 7 24 16
f 7 16 8
f 8 16 9
f 9 16 17
f 9 17 18
f 10 19 11
f 11 20 31
f 11 31 21
f 11 21 12
f 11 19 22
f 11 22 23
f 11 23 20
f 16 24 25
f 16 25 26
f 16 26 27
f 16 27 17
f 17 27 18
f 18 27 29
f 18 29 28
f 19 30 22
f 20 23 32
f 20 32 33
f 20 33 34
f 20 34 31
f 22 35 36
f 22 36 32
f 22 32 23
f 22 30 44
f 22 44 35
f 24 37 25
f 25 37 38
f 25 38 39
f 25 39 26
f 26 39 27
f 27 39 42
f 27 42 29
f 28 29 41
f 28 41 40
f 29 42 43
f 29 43 41
f 32 34 33
f 32 36 45
f 32 45 46
f 32 46 34
f 35 44 47
f 35 47 48
f 35 48 36
f 36 48 45
f 37 49 50
f 37 50 38
f 38 50 51
f 38 51 52
f 38 52 39
f 39 52 53
f 39 53 42
f 40 41 54
f 41 43 53
f 41 53 55
f 41 55 56
f 41 56 54
f 42 53 43
f 45 48 57
f 45 57 58
f 45 58 59
f 45 59 60
f 47 61 57
f 47 57 48
f 49 62 50
f 50 62 63
f 50 63 64
f 50 64 51
f 51 64 65
f 51 65 66
f 51 66 67
f 51 67 68
f 51 68 69
f 51 69 70
f 51 70 71
f 51 71 52
f 52 71 53
f 53 71 72
f 53 72 73
f 53 73 55
f 54 56 74
f 55 73 75
f 55 75 76
f 55 76 77
f 55 77 56
f 56 77 74
f 57 61 58
f 58 61 78
f 58 78 79
f 58 79 80
f 58 80 59
f 59 80 81
f 59 81 60
f 60 81 82
f 61 83 79
f 61 79 78
f 69 84 70
f 70 84 85
f 70 85 86
f 70 86 87
f 70 87 88
f 70 88 89
f 70 89 90
f 70 90 71
f 71 90 91
f 71 91 72
f 72 91 92
f 72 92 73
f 73 92 93
f 73 93 94
f 73 94 75
f 74 77 95
f 75 94 96
f 75 96 97
f 75 97 76
f 76 98 77
f 76 97 98
f 77 98 99
f 77 99 95
f 79 100 101
f 79 101 80
f 79 83 100
f 80 101 102
f 80 102 81
f 81 102 103
f 81 103 104
f 81 104 82
f 90 105 106
f 90 106 107
f 90 107 91
f 91 107 106
f 91 106 108
f 91 108 92
f 92 108 109
f 92 109 110
f 92 110 93
f 96 111 97
f 97 111 112
f 97 112 113
f 97 113 114
f 97 114 115
f 97 115 98
f 98 115 116
f 98 116 117
f 98 117 118
f 98 118 99
f 100 119 101
f 101 119 120
f 101 120 121
f 101 121 122
f 101 122 123
f 101 123 124
f 101 124 125
f 101 125 103
f 101 103 102
f 103 125 126
f 103 126 127
f 103 127 104
f 105 128 106
f 106 129 130
f 106 130 131
f 106 131 132
f 106 132 133
f 106 133 108
f 106 128 129
f 108 134 135
f 108 135 110
f 108 110 109
f 108 133 136
f 108 136 137
f 108 137 134
f 111 113 112
f 115 138 116
f 116 138 139
f 116 139 117
f 119 140 120
f 120 140 121
f 121 123 122
f 123 141 124
f 124 141 142
f 124 142 143
f 124 143 144
f 124 144 125
f 125 144 126
f 130 145 131
f 131 145 146
f 131 146 132
f 132 147 136
f 132 136 133
f 132 146 148
f 132 148 149
f 132 149 147
f 134 137 150
f 134 150 151
f 134 151 135
f 136 147 152
f 136 152 137
f 137 152 153
f 141 154 155
f 141 155 156
f 141 156 157
f 141 157 142
f 142 157 158
f 142 158 143
f 145 159 146
f 146 159 160
f 146 160 161
f 146 161 148
f 147 149 153
f 147 153 152
f 148 162 163
f 148 163 164
f 148 164 165
f 148 165 149
f 148 161 162
f 154 166 167
f 154 167 155
f 155 168 156
f 155 167 169
f 155 169 168
f 156 168 157
f 157 168 170
f 157 170 171
f 157 171 172
f 157 172 158
f 159 173 161
f 159 161 160
f 161 173 162
f 162 173 174
f 162 174 175
f 162 175 176
f 162 176 177
f 162 177 178
f 162 178 179
f 162 179 163
f 163 179 164
f 164 180 165
f 164 179 181
f 164 181 182
f 164 182 183
f 164 183 180
f 166 184 167
f 167 184 169
f 168 169 185
f 168 185 186
f 168 186 170
f 169 187 188
f 169 188 189
f 169 189 185
f 169 184 187
f 170 190 191
f 170 191 171
f 170 186 192
f 170 192 190
f 171 191 172
f 178 181 179
f 181 193 194
f 181 194 182
f 182 194 195
f 182 195 183
f 183 195 196
f 185 189 197
f 185 197 198
f 185 198 186
f 186 198 192
f 188 199 200
f 188 200 201
f 188 201 189
f 189 201 197
f 190 202 203
f 190 203 191
f 190 192 204
f 190 204 202
f 193 205 194
f 194 205 206
f 194 206 207
f 194 207 195
f 195 207 208
f 195 208 196
f 197 201 209
f 197 209 198
f 199 210 200
f 200 210 211
f 200 211 212
f 200 212 213
f 200 213 214
f 200 214 215
f 200 215 216
f 200 216 209
f 200 209 201
f 205 217 218
f 205 218 206
f 206 218 207
f 207 218 219
f 207 219 220
f 207 220 208
f 210 221 211
f 211 222 223
f 211 223 212
f 211 221 224
f 211 224 222
f 212 223 225
f 217 226 218
f 218 226 227
f 218 227 219
f 219 227 228
f 219 228 229
f 219 229 230
f 219 230 220
f 222 224 231
f 222 231 232
f 222 232 233
f 222 233 234
f 222 234 235
f 222 235 236
f 222 236 223
f 223 236 237
f 223 237 225
f 226 238 239
f 226 239 227
f 227 239 228
f 228 239 240
f 228 240 229
f 229 240 230
f 230 240 241
f 230 241 242
f 231 243 232
f 232 243 244
f 232 244 245
f 232 245 246
f 232 246 233
f 233 247 235
f 233 235 234
f 233 246 248
f 233 248 249
f 233 249 250
f 233 250 247
f 235 251 236
f 235 247 252
f 235 252 251
f 236 251 253
f 236 253 254
f 236 254 237
f 238 255 239
f 239 256 257
f 239 257 258
f 239 258 259
f 239 259 260
f 239 260 240
f 239 255 256
f 240 261 242
f 240 242 241
f 240 260 262
f 240 262 261
f 242 261 263
f 245 264 246
f 246 264 265
f 246 265 266
f 246 266 248
f 247 250 252
f 248 266 267
f 257 268 269
f 257 269 258
f 258 269 259
f 259 269 270
f 259 270 271
f 259 271 272
f 259 272 273
f 259 273 274
f 259 274 260
f 260 274 262
f 261 262 263
f 262 274 263
f 264 275 266
f 264 266 265
f 266 276 267
f 266 275 277
f 266 277 276
f 267 276 278
f 267 278 279
f 268 280 281
f 268 281 269
f 269 281 270
f 270 281 271
f 271 282 272
f 271 281 283
f 271 283 284
f 271 284 285
f 271 285 286
f 271 286 282
f 272 282 287
f 272 287 288
f 275 289 277
f 276 277 278
f 277 289 290
f 277 290 291
f 277 291 292
f 277 292 278
f 278 292 293
f 278 293 279
f 280 294 281
f 281 294 295
f 281 295 296
f 281 296 297
f 281 297 298
f 281 298 299
f 281 299 300
f 281 300 283
f 282 286 287
f 283 300 301
f 283 301 302
f 283 302 303
f 283 303 304
f 283 304 305
f 283 305 284
f 284 305 285
f 285 305 304
f 285 304 306
f 286 288 287
f 290 307 291
f 291 307 308
f 291 308 309
f 291 309 310
f 291 310 311
f 291 311 312
f 291 312 292
f 298 301 299
f 299 301 300
f 301 313 302
f 302 313 303
f 303 314 315
f 303 315 316
f 303 316 306
f 303 306 304
f 303 313 317
f 303 317 314
f 308 318 309
f 309 318 319
f 309 319 320
f 309 320 321
f 309 321 332
f 309 332 322
f 309 322 311
f 309 311 310
f 311 322 323
f 314 324 325
f 314 325 315
f 314 317 326
f 314 326 327
f 314 327 328
f 314 328 324
f 319 329 330
f 319 330 331
f 319 331 320
f 320 331 321
f 321 331 332
f 322 332 333
f 322 333 334
f 322 334 323
f 324 335 336
f 324 336 337
f 324 337 338
f 324 338 325
f 324 328 339
f 324 339 340
f 324 340 341
f 324 341 335
f 329 342 330
f 330 342 343
f 330 343 331
f 331 344 345
f 331 345 332
f 331 343 346
f 331 346 344
f 332 345 347
f 332 347 333
f 333 348 334
f 333 347 349
f 333 349 348
f 335 341 336
f 336 350 351
f 336 341 352
f 336 352 353
f 336 353 350
f 339 354 340
f 340 354 355
f 340 355 356
f 340 356 352
f 340 352 341
f 342 357 343
f 343 357 358
f 343 358 359
f 343 359 360
f 343 360 346
f 344 346 361
f 346 362 361
f 346 360 363
f 346 363 362
f 350 353 364
f 350 364 365
f 350 365 351
f 351 365 366
f 352 356 353
f 353 367 368
f 353 368 369
f 353 369 364
f 353 356 367
f 355 367 356
f 357 370 358
f 358 370 371
f 358 371 359
f 359 371 372
f 359 372 373
f 359 373 374
f 359 374 375
f 359 375 376
f 359 376 377
f 359 377 363
f 359 363 360
f 361 362 377
f 362 363 377
f 364 378 379
f 364 379 380
f 364 380 365
f 364 369 378
f 365 380 366
f 366 380 381
f 367 382 383
f 367 383 384
f 367 384 368
f 368 384 369
f 369 384 385
f 369 385 386
f 369 386 387
f 369 387 378
f 372 388 389
f 372 389 390
f 372 390 373
f 373 390 374
f 374 390 391
f 374 391 392
f 374 392 393
f 374 393 375
f 375 393 394
f 375 394 395
f 375 395 396
f 375 396 376
f 376 396 397
f 376 397 398
f 376 398 377
f 378 399 379
f 378 387 399
f 379 399 400
f 379 400 401
f 379 401 402
f 379 402 381
f 379 381 380
f 382 403 404
f 382 404 383
f 383 405 385
f 383 385 384
f 383 404 405
f 385 405 386
f 386 406 407
f 386 407 408
f 386 408 409
f 386 409 387
f 386 405 406
f 387 409 399
f 388 410 411
f 388 411 389
f 389 411 391
f 389 391 390
f 391 412 392
f 391 411 413
f 391 413 412
f 392 412 393
f 393 414 415
f 393 415 416
f 393 416 394
f 393 412 414
f 394 416 417
f 394 417 418
f 394 418 395
f 395 419 396
f 396 419 397
f 397 419 420
f 397 420 398
f 399 421 400
f 399 409 422
f 399 422 423
f 399 423 421
f 400 421 424
f 400 424 425
f 400 425 426
f 400 426 401
f 401 427 402
f 401 426 428
f 401 428 427
f 403 406 404
f 404 406 405
f 410 429 413
f 410 413 411
f 412 430 431
f 412 431 414
f 412 413 432
f 412 432 430
f 413 429 433
f 413 433 432
f 414 431 415
f 415 431 434
f 421 423 435
f 421 435 436
f 421 436 424
f 422 437 423
f 423 437 438
f 423 438 439
f 423 439 440
f 423 440 441
f 423 441 435
f 424 436 442
f 424 442 425
f 425 442 443
f 425 443 444
f 425 444 445
f 425 445 446
f 425 446 447
f 425 447 448
f 425 448 426
f 426 449 428
f 426 448 450
f 426 450 449
f 429 451 433
f 430 432 433
f 430 433 452
f 430 452 431
f 431 453 454
f 431 454 455
f 431 455 434
f 431 452 453
f 433 456 452
f 433 451 456
f 435 457 436
f 435 441 458
f 435 458 459
f 435 459 460
f 435 460 457
f 436 457 461
f 436 461 442
f 442 461 462
f 442 462 443
f 443 462 463
f 447 464 448
f 448 464 450
f 451 465 456
f 452 456 466
f 452 466 467
f 452 467 453
f 453 468 469
f 453 469 470
f 453 470 471
f 453 471 454
f 453 467 468
f 456 465 466
f 457 472 461
f 457 460 473
f 457 473 474
f 457 474 475
f 457 475 472
f 461 472 476
f 461 476 462
f 462 476 477
f 462 477 463
f 465 478 466
f 466 478 479
f 466 479 480
f 466 480 467
f 467 480 468
f 468 481 469
f 468 480 481
f 469 481 482
f 469 482 483
f 469 483 484
f 469 484 470
f 472 485 476
f 472 475 486
f 472 486 485
f 476 487 477
f 476 485 488
f 476 488 487
f 477 487 489
f 477 489 490
f 478 480 479
f 478 491 480
f 480 491 492
f 480 492 493
f 480 493 481
f 481 493 494
f 481 494 495
f 481 495 496
f 481 496 482
f 482 496 497
f 482 497 483
f 485 486 498
f 485 498 499
f 485 499 500
f 485 500 488
f 487 488 509
f 487 509 501
f 487 501 502
f 487 502 503
f 487 503 504
f 487 504 505
f 487 505 489
f 488 500 499
f 488 499 506
f 488 506 507
f 488 507 508
f 488 508 509
f 489 505 490
f 495 510 496
f 496 511 512
f 496 512 513
f 496 513 497
f 496 510 514
f 496 514 515
f 496 515 511
f 501 509 516
f 501 516 503
f 501 503 502
f 503 517 518
f 503 516 517
f 508 519 520
f 508 520 517
f 508 517 509
f 509 517 516
f 510 521 514
f 514 521 522
f 514 522 523
f 514 523 524
f 514 524 515
f 517 520 525
f 517 525 526
f 517 526 518
f 519 527 520
f 520 528 525
f 520 527 529
f 520 529 530
f 520 530 531
f 520 531 532
f 520 532 528
f 521 533 522
f 522 534 523
f 522 533 534
f 525 528 526
f 526 528 535
f 528 532 536
f 528 536 535
f 530 537 532
f 530 532 531
f 532 537 538
f 532 538 539
f 532 539 536
f 533 540 541
f 533 541 534
f 534 541 542
f 537 543 538
f 538 544 539
f 538 543 545
f 538 545 544
f 539 544 546
f 540 547 548
f 540 548 541
f 541 548 549
f 541 549 550
f 541 550 551
f 541 551 552
f 541 552 542
f 544 545 553
f 544 553 554
f 544 554 555
f 544 555 556
f 544 556 557
f 544 557 546
f 547 558 559
f 547 559 548
f 548 559 560
f 548 560 561
f 548 561 549
f 549 561 562
f 549 562 550
f 550 562 563
f 550 563 551
f 551 564 552
f 551 563 565
f 551 565 564
f 554 566 555
f 555 567 568
f 555 568 569
f 555 569 570
f 555 570 571
f 555 571 572
f 555 572 573
f 555 573 556
f 555 566 567
f 558 574 575
f 558 575 576
f 558 576 559
f 559 576 560
f 560 576 575
f 560 575 561
f 561 575 562
f 562 575 577
f 562 577 563
f 563 577 578
f 563 578 579
f 569 580 570
f 570 580 581
f 570 581 571
f 571 581 582
f 571 582 572
f 572 582 583
f 574 584 575
f 575 584 585
f 575 585 586
f 575 586 577
f 577 586 587
f 577 587 588
f 577 588 578
f 578 588 589
f 578 589 590
f 578 590 591
f 578 591 579
f 581 592 582
f 582 592 593
f 582 593 594
f 582 594 583
f 583 594 595
f 584 596 585
f 585 596 597
f 585 597 586
f 586 597 598
f 586 598 599
f 586 599 600
f 586 600 587
f 587 600 588
f 588 600 589
f 589 600 601
f 589 601 602
f 589 602 603
f 589 603 590
f 592 604 593
f 593 604 605
f 593 605 606
f 593 606 594
f 594 606 607
f 594 607 595
f 596 608 598
f 596 598 597
f 598 609 610
f 598 610 611
f 598 611 612
f 598 612 599
f 598 608 613
f 598 613 609
f 599 612 601
f 599 601 600
f 601 612 611
f 601 611 614
f 601 614 615
f 601 615 602
f 602 615 603
f 603 615 616
f 604 617 605
f 605 617 618
f 605 618 619
f 605 619 620
f 605 620 606
f 606 620 621
f 606 621 607
f 610 622 611
f 611 622 623
f 611 623 614
f 614 623 624
f 614 624 615
f 615 625 626
f 615 626 616
f 615 624 627
f 615 627 625
f 618 628 619
f 619 628 629
f 619 629 620
f 620 629 630
f 620 630 631
f 620 631 632
f 620 632 633
f 620 633 634
f 620 634 635
f 620 635 621
f 622 636 623
f 623 636 637
f 623 637 624
f 624 637 638
f 624 638 639
f 624 639 627
f 625 627 640
f 627 639 641
f 627 641 640
f 628 642 630
f 628 630 629
f 630 642 643
f 630 643 644
f 630 644 631
f 631 645 646
f 631 646 647
f 631 647 632
f 631 644 645
f 632 647 633
f 636 648 637
f 637 648 649
f 637 649 638
f 638 649 650
f 638 650 651
f 638 651 639
f 639 651 652
f 639 652 653
f 639 653 654
f 639 654 655
f 639 655 641
f 645 656 646
f 646 657 647
f 646 656 658
f 646 658 659
f 646 659 660
f 646 660 661
f 646 661 657
f 648 662 649
f 649 662 650
f 650 662 663
f 650 663 664
f 650 664 665
f 650 665 666
f 650 666 651
f 651 666 652
f 652 666 676
f 652 676 667
f 652 667 668
f 652 668 654
f 652 654 653
f 657 661 669
f 658 670 660
f 658 660 659
f 660 670 671
f 660 671 672
f 660 672 661
f 661 672 673
f 661 673 669
f 664 674 675
f 664 675 665
f 665 675 666
f 666 675 676
f 667 677 668
f 667 676 678
f 667 678 679
f 667 679 680
f 667 680 677
f 668 677 681
f 671 682 672
f 672 682 683
f 672 683 684
f 672 684 685
f 672 685 673
f 674 686 675
f 674 687 688
f 674 688 686
f 675 686 676
f 676 686 688
f 676 688 678
f 677 680 681
f 678 688 689
f 678 689 679
f 679 689 690
f 683 691 684
f 684 692 693
f 684 693 694
f 684 694 695
f 684 695 696
f 684 696 697
f 684 697 698
f 684 698 699
f 684 699 700
f 684 700 685
f 684 691 692
f 687 701 688
f 688 701 702
f 688 702 703
f 688 703 689
f 689 703 690
f 690 703 704
f 696 705 697
f 697 706 707
f 697 707 708
f 697 708 709
f 697 709 710
f 697 710 698
f 697 705 711
f 697 711 706
f 698 710 699
f 701 712 713
f 701 713 702
f 702 713 714
f 702 714 715
f 702 715 703
f 703 715 704
f 704 715 716
f 704 716 717
f 706 711 718
f 706 718 719
f 706 719 720
f 706 720 721
f 706 721 722
f 706 722 723
f 706 723 724
f 706 724 725
f 706 725 726
f 706 726 727
f 706 727 708
f 706 708 707
f 708 727 709
f 709 727 725
f 712 728 729
f 712 729 730
f 712 730 714
f 712 714 713
f 714 730 731
f 714 731 732
f 714 732 733
f 714 733 715
f 715 733 716
f 716 734 717
f 716 733 732
f 716 732 735
f 716 735 734
f 717 734 736
f 722 737 723
f 723 738 739
f 723 739 740
f 723 740 741
f 723 741 742
f 723 742 724
f 723 737 738
f 724 742 743
f 724 743 744
f 724 744 745
f 724 745 725
f 725 727 726
f 728 746 729
f 729 746 730
f 730 746 731
f 731 746 747
f 731 747 748
f 731 748 732
f 732 748 749
f 732 749 735
f 734 735 750
f 734 750 751
f 734 751 752
f 734 752 736
f 735 753 754
f 735 754 750
f 735 749 753
f 740 755 742
f 740 742 741
f 742 755 756
f 742 756 757
f 742 757 758
f 742 758 743
f 743 759 760
f 743 760 744
f 743 758 759
f 746 761 747
f 747 761 762
f 747 762 748
f 748 762 763
f 748 763 764
f 748 764 753
f 748 753 749
f 750 754 765
f 753 764 754
f 754 766 765
f 754 764 758
f 754 758 757
f 754 757 767
f 754 767 766
f 755 767 757
f 755 757 756
f 758 764 768
f 758 768 759
f 759 768 763
f 761 769 762
f 762 769 763
f 763 768 764

