# https://github.com/mikedh/trimesh
v 0.02472274 0.00082570 -0.06040372 0.38039216 0.78823529 0.52549020
v 0.02538286 0.00082570 -0.06035582 0.38039216 0.78823529 0.52549020
v 0.02365291 0.00082570 -0.06036780 0.38039216 0.78823529 0.52549020
v 0.02472274 0.00181186 -0.06047556 0.38039216 0.78823529 0.52549020
v 0.02556780 0.00082570 -0.06033787 0.38039216 0.78823529 0.52549020
v 0.02472274 0.00301716 -0.06055639 0.38039216 0.78823529 0.52549020
v 0.00225046 0.02110554 -0.06075395 0.38039216 0.78823529 0.52549020
v 0.00225046 0.02231083 -0.06090063 0.38039216 0.78823529 0.52549020
v 0.02305539 0.00082570 -0.06028099 0.38039216 0.78823529 0.52549020
v 0.02606004 0.00082570 -0.06028698 0.38039216 0.78823529 0.52549020
v 0.02472274 0.00422246 -0.06060129 0.38039216 0.78823529 0.52549020
v 0.02582104 0.00301716 -0.06041570 0.38039216 0.78823529 0.52549020
v 0.02571576 0.00181186 -0.06037678 0.38039216 0.78823529 0.52549020
v 0.00225046 0.00862609 -0.05785032 0.38039216 0.78823529 0.52549020
v 0.00225046 0.02307784 -0.06087369 0.38039216 0.78823529 0.52549020
v 0.00301585 0.02231083 -0.06089165 0.38039216 0.78823529 0.52549020
v 0.02472274 0.00542776 -0.06061924 0.38039216 0.78823529 0.52549020
v 0.00225046 0.00082570 -0.05467429 0.38039216 0.78823529 0.52549020
v 0.00225046 0.00663602 -0.05714687 0.38039216 0.78823529 0.52549020
v 0.00225046 0.00743560 -0.05748213 0.38039216 0.78823529 0.52549020
v 0.00225046 0.00789462 -0.05764677 0.38039216 0.78823529 0.52549020
v 0.00225046 0.00851948 -0.05782338 0.38039216 0.78823529 0.52549020
v 0.02617101 0.00082570 -0.06026303 0.38039216 0.78823529 0.52549020
v 0.02586656 0.00422246 -0.06043066 0.38039216 0.78823529 0.52549020
v 0.02642424 0.00301716 -0.06027800 0.38039216 0.78823529 0.52549020
v 0.02631896 0.00181186 -0.06026303 0.38039216 0.78823529 0.52549020
v 0.00225046 0.02351613 -0.06084974 0.38039216 0.78823529 0.52549020
v 0.00301585 0.02351613 -0.06082879 0.38039216 0.78823529 0.52549020
v 0.00422226 0.02351613 -0.06079287 0.38039216 0.78823529 0.52549020
v 0.00422226 0.02231083 -0.06085273 0.38039216 0.78823529 0.52549020
v 0.02351633 0.00784132 -0.06062823 0.38039216 0.78823529 0.52549020
v 0.02351633 0.00663602 -0.06063421 0.38039216 0.78823529 0.52549020
v 0.02472274 0.00663602 -0.06060728 0.38039216 0.78823529 0.52549020
v 0.02585233 0.00542776 -0.06043665 0.38039216 0.78823529 0.52549020
v 0.00225046 0.00082570 -0.03031974 0.38039216 0.78823529 0.52549020
v 0.02698477 0.00082570 -0.06005948 0.38039216 0.78823529 0.52549020
v 0.02646977 0.00422246 -0.06028698 0.38039216 0.78823529 0.52549020
v 0.00225046 0.02428314 -0.06072402 0.38039216 0.78823529 0.52549020
v 0.00422226 0.02472144 -0.06058931 0.38039216 0.78823529 0.52549020
v 0.00542868 0.02351613 -0.06071204 0.38039216 0.78823529 0.52549020
v 0.01507713 0.01989728 -0.06046958 0.38039216 0.78823529 0.52549020
v 0.01387072 0.01989728 -0.06053543 0.38039216 0.78823529 0.52549020
v 0.02351633 0.00904662 -0.06055340 0.38039216 0.78823529 0.52549020
v 0.01507713 0.01869197 -0.06053244 0.38039216 0.78823529 0.52549020
v 0.02472274 0.00784132 -0.06052346 0.38039216 0.78823529 0.52549020
v 0.02571007 0.00663602 -0.06041270 0.38039216 0.78823529 0.52549020
v 0.02645554 0.00542776 -0.06028099 0.38039216 0.78823529 0.52549020
v 0.03038207 0.00082570 -0.03031974 0.38039216 0.78823529 0.52549020
v 0.00225046 0.02882597 -0.03031974 0.38039216 0.78823529 0.52549020
v 0.02713557 0.00082570 -0.06000260 0.38039216 0.78823529 0.52549020
v 0.02713557 0.00422246 -0.05998464 0.38039216 0.78823529 0.52549020
v 0.00225046 0.02472144 -0.06064619 0.38039216 0.78823529 0.52549020
v 0.00550835 0.02482509 -0.06046659 0.38039216 0.78823529 0.52549020
v 0.00225046 0.02563948 -0.06040672 0.38039216 0.78823529 0.52549020
v 0.00422226 0.02552102 -0.06037978 0.38039216 0.78823529 0.52549020
v 0.00515837 0.02543218 -0.06034385 0.38039216 0.78823529 0.52549020
v 0.01507713 0.02068205 -0.06035283 0.38039216 0.78823529 0.52549020
v 0.01628355 0.01869197 -0.06045162 0.38039216 0.78823529 0.52549020
v 0.01574009 0.02053694 -0.06031392 0.38039216 0.78823529 0.52549020
v 0.01619819 0.01982916 -0.06036181 0.38039216 0.78823529 0.52549020
v 0.02301271 0.01219165 -0.06031991 0.38039216 0.78823529 0.52549020
v 0.02432440 0.00999427 -0.06035582 0.38039216 0.78823529 0.52549020
v 0.02472559 0.00897258 -0.06039773 0.38039216 0.78823529 0.52549020
v 0.02536294 0.00852244 -0.06031392 0.38039216 0.78823529 0.52549020
v 0.02548813 0.00784132 -0.06035582 0.38039216 0.78823529 0.52549020
v 0.02631327 0.00663602 -0.06022711 0.38039216 0.78823529 0.52549020
v 0.02713557 0.00663602 -0.05983497 0.38039216 0.78823529 0.52549020
v 0.02713557 0.00542776 -0.05995171 0.38039216 0.78823529 0.52549020
v 0.03030525 0.00143576 -0.03031974 0.38039216 0.78823529 0.52549020
v 0.03131533 0.00082570 -0.03923418 0.38039216 0.78823529 0.52549020
v 0.03126127 0.00181186 -0.03919826 0.38039216 0.78823529 0.52549020
v 0.03116169 0.00301716 -0.03919826 0.38039216 0.78823529 0.52549020
v 0.03103649 0.00422246 -0.03919826 0.38039216 0.78823529 0.52549020
v 0.00225046 0.03079828 -0.04040461 0.38039216 0.78823529 0.52549020
v 0.00258905 0.02880820 -0.03031974 0.38039216 0.78823529 0.52549020
v 0.02813143 0.00082570 -0.05951467 0.38039216 0.78823529 0.52549020
v 0.02836475 0.00082570 -0.05938895 0.38039216 0.78823529 0.52549020
v 0.00596360 0.02529595 -0.06029296 0.38039216 0.78823529 0.52549020
v 0.01330735 0.02173040 -0.06030793 0.38039216 0.78823529 0.52549020
v 0.00225046 0.02602446 -0.06027500 0.38039216 0.78823529 0.52549020
v 0.00225046 0.02624361 -0.06018819 0.38039216 0.78823529 0.52549020
v 0.00422226 0.02612219 -0.06011934 0.38039216 0.78823529 0.52549020
v 0.00550835 0.02587343 -0.06010139 0.38039216 0.78823529 0.52549020
v 0.01266431 0.02246483 -0.06018221 0.38039216 0.78823529 0.52549020
v 0.01377398 0.02220422 -0.06008342 0.38039216 0.78823529 0.52549020
v 0.01619819 0.02100485 -0.06006247 0.38039216 0.78823529 0.52549020
v 0.01654247 0.02018453 -0.06023908 0.38039216 0.78823529 0.52549020
v 0.01696073 0.01938199 -0.06031691 0.38039216 0.78823529 0.52549020
v 0.02153599 0.01427353 -0.06027800 0.38039216 0.78823529 0.52549020
v 0.02266274 0.01299419 -0.06026303 0.38039216 0.78823529 0.52549020
v 0.02345658 0.01262106 -0.06016125 0.38039216 0.78823529 0.52549020
v 0.02384354 0.01146018 -0.06025405 0.38039216 0.78823529 0.52549020
v 0.02512962 0.00932795 -0.06024806 0.38039216 0.78823529 0.52549020
v 0.02472274 0.01146018 -0.06000260 0.38039216 0.78823529 0.52549020
v 0.02582957 0.00897258 -0.06005648 0.38039216 0.78823529 0.52549020
v 0.02609134 0.00784132 -0.06014030 0.38039216 0.78823529 0.52549020
v 0.02713557 0.00784132 -0.05965836 0.38039216 0.78823529 0.52549020
v 0.02790665 0.00784132 -0.05921533 0.38039216 0.78823529 0.52549020
v 0.02802900 0.00663602 -0.05930513 0.38039216 0.78823529 0.52549020
v 0.02812289 0.00542776 -0.05937099 0.38039216 0.78823529 0.52549020
v 0.02815704 0.00422246 -0.05939493 0.38039216 0.78823529 0.52549020
v 0.03025119 0.00185332 -0.03031974 0.38039216 0.78823529 0.52549020
v 0.03130395 0.00082570 -0.04035073 0.38039216 0.78823529 0.52549020
v 0.03100235 0.00422246 -0.05004944 0.38039216 0.78823529 0.52549020
v 0.03089707 0.00542776 -0.05004944 0.38039216 0.78823529 0.52549020
v 0.03089707 0.00542776 -0.04884309 0.38039216 0.78823529 0.52549020
v 0.03083732 0.00542776 -0.03919826 0.38039216 0.78823529 0.52549020
v 0.03016298 0.00244264 -0.03031974 0.38039216 0.78823529 0.52549020
v 0.00225046 0.03088120 -0.04084165 0.38039216 0.78823529 0.52549020
v 0.00378693 0.02871640 -0.03031974 0.38039216 0.78823529 0.52549020
v 0.00422226 0.02868086 -0.03031974 0.38039216 0.78823529 0.52549020
v 0.02887975 0.00082570 -0.05904470 0.38039216 0.78823529 0.52549020
v 0.01266431 0.02451414 -0.05933207 0.38039216 0.78823529 0.52549020
v 0.01266431 0.02351613 -0.05981701 0.38039216 0.78823529 0.52549020
v 0.00225046 0.02713499 -0.05967931 0.38039216 0.78823529 0.52549020
v 0.00301585 0.02713499 -0.05962243 0.38039216 0.78823529 0.52549020
v 0.00422511 0.02723568 -0.05944882 0.38039216 0.78823529 0.52549020
v 0.00542868 0.02701062 -0.05945780 0.38039216 0.78823529 0.52549020
v 0.00663509 0.02592970 -0.05984395 0.38039216 0.78823529 0.52549020
v 0.01507713 0.02231083 -0.05978708 0.38039216 0.78823529 0.52549020
v 0.01748711 0.02110554 -0.05969428 0.38039216 0.78823529 0.52549020
v 0.01741314 0.01982916 -0.06011037 0.38039216 0.78823529 0.52549020
v 0.02110351 0.01628138 -0.05999661 0.38039216 0.78823529 0.52549020
v 0.02112342 0.01510865 -0.06022412 0.38039216 0.78823529 0.52549020
v 0.02228146 0.01387078 -0.06019718 0.38039216 0.78823529 0.52549020
v 0.02230992 0.01507608 -0.05996069 0.38039216 0.78823529 0.52549020
v 0.02351633 0.01387078 -0.05988286 0.38039216 0.78823529 0.52549020
v 0.02472274 0.01266548 -0.05975414 0.38039216 0.78823529 0.52549020
v 0.02592916 0.01025192 -0.05976612 0.38039216 0.78823529 0.52549020
v 0.02719532 0.00902589 -0.05939194 0.38039216 0.78823529 0.52549020
v 0.02780422 0.00860832 -0.05914049 0.38039216 0.78823529 0.52549020
v 0.02863221 0.00663602 -0.05877230 0.38039216 0.78823529 0.52549020
v 0.02872610 0.00542776 -0.05889204 0.38039216 0.78823529 0.52549020
v 0.02876024 0.00422246 -0.05894592 0.38039216 0.78823529 0.52549020
v 0.03077188 0.00082570 -0.05366850 0.38039216 0.78823529 0.52549020
v 0.03088854 0.00181186 -0.05366850 0.38039216 0.78823529 0.52549020
v 0.03098528 0.00301716 -0.05246215 0.38039216 0.78823529 0.52549020
v 0.03098528 0.00422246 -0.05125580 0.38039216 0.78823529 0.52549020
v 0.03095398 0.00422246 -0.05246215 0.38039216 0.78823529 0.52549020
v 0.03082310 0.00542776 -0.05246215 0.38039216 0.78823529 0.52549020
v 0.03060401 0.00663602 -0.05125580 0.38039216 0.78823529 0.52549020
v 0.03063815 0.00663602 -0.05004944 0.38039216 0.78823529 0.52549020
v 0.03060116 0.00663602 -0.03919826 0.38039216 0.78823529 0.52549020
v 0.03015729 0.00247225 -0.03031974 0.38039216 0.78823529 0.52549020
v 0.00225046 0.03102630 -0.04161096 0.38039216 0.78823529 0.52549020
v 0.00542868 0.02853871 -0.03031974 0.38039216 0.78823529 0.52549020
v 0.02936630 0.00422246 -0.05834125 0.38039216 0.78823529 0.52549020
v 0.02934069 0.00082570 -0.05852983 0.38039216 0.78823529 0.52549020
v 0.01365732 0.02433053 -0.05921832 0.38039216 0.78823529 0.52549020
v 0.01398453 0.02363163 -0.05946977 0.38039216 0.78823529 0.52549020
v 0.00225046 0.02783981 -0.05918839 0.38039216 0.78823529 0.52549020
v 0.00301585 0.02781020 -0.05916145 0.38039216 0.78823529 0.52549020
v 0.00382392 0.02776874 -0.05912253 0.38039216 0.78823529 0.52549020
v 0.00462630 0.02770655 -0.05906566 0.38039216 0.78823529 0.52549020
v 0.00542868 0.02761475 -0.05897885 0.38039216 0.78823529 0.52549020
v 0.00663509 0.02681812 -0.05931411 0.38039216 0.78823529 0.52549020
v 0.01630915 0.02237303 -0.05943086 0.38039216 0.78823529 0.52549020
v 0.01869353 0.01989728 -0.05970924 0.38039216 0.78823529 0.52549020
v 0.01748711 0.02198508 -0.05927220 0.38039216 0.78823529 0.52549020
v 0.01819275 0.02177482 -0.05914648 0.38039216 0.78823529 0.52549020
v 0.01863378 0.02106407 -0.05929914 0.38039216 0.78823529 0.52549020
v 0.02230992 0.01628138 -0.05962543 0.38039216 0.78823529 0.52549020
v 0.02361023 0.01516196 -0.05945780 0.38039216 0.78823529 0.52549020
v 0.02475120 0.01385893 -0.05937698 0.38039216 0.78823529 0.52549020
v 0.02565885 0.01266548 -0.05929615 0.38039216 0.78823529 0.52549020
v 0.02601167 0.01150756 -0.05943086 0.38039216 0.78823529 0.52549020
v 0.02685957 0.01025192 -0.05929914 0.38039216 0.78823529 0.52549020
v 0.02666609 0.01113738 -0.05918240 0.38039216 0.78823529 0.52549020
v 0.02763635 0.00941087 -0.05901776 0.38039216 0.78823529 0.52549020
v 0.02830499 0.00893112 -0.05845500 0.38039216 0.78823529 0.52549020
v 0.02850986 0.00784132 -0.05860467 0.38039216 0.78823529 0.52549020
v 0.02915574 0.00663602 -0.05816763 0.38039216 0.78823529 0.52549020
v 0.02928378 0.00542776 -0.05828737 0.38039216 0.78823529 0.52549020
v 0.03066660 0.00082570 -0.05487485 0.38039216 0.78823529 0.52549020
v 0.03077757 0.00181186 -0.05487485 0.38039216 0.78823529 0.52549020
v 0.03093406 0.00301716 -0.05366850 0.38039216 0.78823529 0.52549020
v 0.03089992 0.00422246 -0.05366850 0.38039216 0.78823529 0.52549020
v 0.03056702 0.00663602 -0.05246215 0.38039216 0.78823529 0.52549020
v 0.03076904 0.00542776 -0.05366850 0.38039216 0.78823529 0.52549020
v 0.03027680 0.00755702 -0.05246215 0.38039216 0.78823529 0.52549020
v 0.02924395 0.01146018 -0.04040461 0.38039216 0.78823529 0.52549020
v 0.02965652 0.01025192 -0.03919826 0.38039216 0.78823529 0.52549020
v 0.03017152 0.00852541 -0.04003043 0.38039216 0.78823529 0.52549020
v 0.03017152 0.00852541 -0.03944971 0.38039216 0.78823529 0.52549020
v 0.03030240 0.00795385 -0.03910846 0.38039216 0.78823529 0.52549020
v 0.03029956 0.00757775 -0.05125580 0.38039216 0.78823529 0.52549020
v 0.03014591 0.00843360 -0.03864447 0.38039216 0.78823529 0.52549020
v 0.03004063 0.00298754 -0.03031974 0.38039216 0.78823529 0.52549020
v 0.00301585 0.03089008 -0.04161096 0.38039216 0.78823529 0.52549020
v 0.00225046 0.03105000 -0.04204800 0.38039216 0.78823529 0.52549020
v 0.00663509 0.02828403 -0.03031974 0.38039216 0.78823529 0.52549020
v 0.00422226 0.03065613 -0.04161096 0.38039216 0.78823529 0.52549020
v 0.02996950 0.00422246 -0.05757792 0.38039216 0.78823529 0.52549020
v 0.02998657 0.00301716 -0.05759888 0.38039216 0.78823529 0.52549020
v 0.03000649 0.00082570 -0.05755397 0.38039216 0.78823529 0.52549020
v 0.01445970 0.02411138 -0.05908961 0.38039216 0.78823529 0.52549020
v 0.01507713 0.02332068 -0.05931711 0.38039216 0.78823529 0.52549020
v 0.01266431 0.02511826 -0.05893395 0.38039216 0.78823529 0.52549020
v 0.01398453 0.02472736 -0.05877829 0.38039216 0.78823529 0.52549020
v 0.00225046 0.02819518 -0.05873638 0.38039216 0.78823529 0.52549020
v 0.00301585 0.02832845 -0.05849092 0.38039216 0.78823529 0.52549020
v 0.00422511 0.02815669 -0.05859569 0.38039216 0.78823529 0.52549020
v 0.00542868 0.02815669 -0.05837717 0.38039216 0.78823529 0.52549020
v 0.00663509 0.02796716 -0.05817661 0.38039216 0.78823529 0.52549020
v 0.00663509 0.02742225 -0.05877829 0.38039216 0.78823529 0.52549020
v 0.01944469 0.02063467 -0.05916444 0.38039216 0.78823529 0.52549020
v 0.01986864 0.01985581 -0.05929017 0.38039216 0.78823529 0.52549020
v 0.02180630 0.01821815 -0.05915546 0.38039216 0.78823529 0.52549020
v 0.01592504 0.02306304 -0.05918839 0.38039216 0.78823529 0.52549020
v 0.01507713 0.02392185 -0.05893694 0.38039216 0.78823529 0.52549020
v 0.01595918 0.02430387 -0.05808381 0.38039216 0.78823529 0.52549020
v 0.01857402 0.02222199 -0.05841309 0.38039216 0.78823529 0.52549020
v 0.01951582 0.02186662 -0.05808381 0.38039216 0.78823529 0.52549020
v 0.01899798 0.02144018 -0.05888904 0.38039216 0.78823529 0.52549020
v 0.02225017 0.01738599 -0.05926023 0.38039216 0.78823529 0.52549020
v 0.02320335 0.01628138 -0.05924227 0.38039216 0.78823529 0.52549020
v 0.02436708 0.01481547 -0.05923329 0.38039216 0.78823529 0.52549020
v 0.02543123 0.01345025 -0.05916743 0.38039216 0.78823529 0.52549020
v 0.02646977 0.01194289 -0.05905069 0.38039216 0.78823529 0.52549020
v 0.02746278 0.01025192 -0.05885612 0.38039216 0.78823529 0.52549020
v 0.02802331 0.01025192 -0.05825444 0.38039216 0.78823529 0.52549020
v 0.02894519 0.00845137 -0.05789223 0.38039216 0.78823529 0.52549020
v 0.02902201 0.00784132 -0.05800000 0.38039216 0.78823529 0.52549020
v 0.02993251 0.00552548 -0.05727259 0.38039216 0.78823529 0.52549020
v 0.03046458 0.00082570 -0.05608121 0.38039216 0.78823529 0.52549020
v 0.03082310 0.00301716 -0.05487485 0.38039216 0.78823529 0.52549020
v 0.03054141 0.00181186 -0.05608121 0.38039216 0.78823529 0.52549020
v 0.03059547 0.00301716 -0.05608121 0.38039216 0.78823529 0.52549020
v 0.03077757 0.00422246 -0.05487485 0.38039216 0.78823529 0.52549020
v 0.03050727 0.00663602 -0.05366850 0.38039216 0.78823529 0.52549020
v 0.03024550 0.00750371 -0.05366850 0.38039216 0.78823529 0.52549020
v 0.03064384 0.00542776 -0.05487485 0.38039216 0.78823529 0.52549020
v 0.03002356 0.00810784 -0.05366850 0.38039216 0.78823529 0.52549020
v 0.02876309 0.01278986 -0.04040461 0.38039216 0.78823529 0.52549020
v 0.02898787 0.01218573 -0.04040461 0.38039216 0.78823529 0.52549020
v 0.02925533 0.01146018 -0.03919826 0.38039216 0.78823529 0.52549020
v 0.02895373 0.01208800 -0.03857263 0.38039216 0.78823529 0.52549020
v 0.03002072 0.00897554 -0.03910846 0.38039216 0.78823529 0.52549020
v 0.02842734 0.00904662 -0.03031974 0.38039216 0.78823529 0.52549020
v 0.02855823 0.00863498 -0.03031974 0.38039216 0.78823529 0.52549020
v 0.02893381 0.00739118 -0.03031974 0.38039216 0.78823529 0.52549020
v 0.02896226 0.00729641 -0.03031974 0.38039216 0.78823529 0.52549020
v 0.02973618 0.00422246 -0.03031974 0.38039216 0.78823529 0.52549020
v 0.02983577 0.00382266 -0.03031974 0.38039216 0.78823529 0.52549020
v 0.00422226 0.03072128 -0.04281732 0.38039216 0.78823529 0.52549020
v 0.00301585 0.03094931 -0.04281732 0.38039216 0.78823529 0.52549020
v 0.00225046 0.03107961 -0.04281732 0.38039216 0.78823529 0.52549020
v 0.00924424 0.02765621 -0.03031974 0.38039216 0.78823529 0.52549020
v 0.00605180 0.03015565 -0.04098234 0.38039216 0.78823529 0.52549020
v 0.00542868 0.03036591 -0.04161096 0.38039216 0.78823529 0.52549020
v 0.00542868 0.03044883 -0.04281732 0.38039216 0.78823529 0.52549020
v 0.03023981 0.00518788 -0.05686249 0.38039216 0.78823529 0.52549020
v 0.03029671 0.00422246 -0.05697625 0.38039216 0.78823529 0.52549020
v 0.03029387 0.00301716 -0.05699720 0.38039216 0.78823529 0.52549020
v 0.03026826 0.00181186 -0.05697625 0.38039216 0.78823529 0.52549020
v 0.03024550 0.00082570 -0.05694930 0.38039216 0.78823529 0.52549020
v 0.01266431 0.02573720 -0.05833227 0.38039216 0.78823529 0.52549020
v 0.01387072 0.02549733 -0.05809878 0.38039216 0.78823529 0.52549020
v 0.01450807 0.02534333 -0.05791618 0.38039216 0.78823529 0.52549020
v 0.01497755 0.02471255 -0.05826042 0.38039216 0.78823529 0.52549020
v 0.00225046 0.02838176 -0.05849092 0.38039216 0.78823529 0.52549020
v 0.00422226 0.02884374 -0.05766174 0.38039216 0.78823529 0.52549020
v 0.00553680 0.02879339 -0.05729654 0.38039216 0.78823529 0.52549020
v 0.00663509 0.02847948 -0.05728756 0.38039216 0.78823529 0.52549020
v 0.00745169 0.02781316 -0.05799700 0.38039216 0.78823529 0.52549020
v 0.01188185 0.02646868 -0.05779944 0.38039216 0.78823529 0.52549020
v 0.02024991 0.02023192 -0.05892796 0.38039216 0.78823529 0.52549020
v 0.02142503 0.01902069 -0.05891299 0.38039216 0.78823529 0.52549020
v 0.02261152 0.01772063 -0.05887408 0.38039216 0.78823529 0.52549020
v 0.02407401 0.01562098 -0.05906865 0.38039216 0.78823529 0.52549020
v 0.02294158 0.01691512 -0.05911355 0.38039216 0.78823529 0.52549020
v 0.01531329 0.02510642 -0.05758092 0.38039216 0.78823529 0.52549020
v 0.01676156 0.02403438 -0.05776052 0.38039216 0.78823529 0.52549020
v 0.01815007 0.02295643 -0.05794013 0.38039216 0.78823529 0.52549020
v 0.02072508 0.02074128 -0.05812273 0.38039216 0.78823529 0.52549020
v 0.01988287 0.02109073 -0.05850589 0.38039216 0.78823529 0.52549020
v 0.01576285 0.02537887 -0.05677568 0.38039216 0.78823529 0.52549020
v 0.02031820 0.02154383 -0.05758690 0.38039216 0.78823529 0.52549020
v 0.02517230 0.01425576 -0.05899681 0.38039216 0.78823529 0.52549020
v 0.02626206 0.01266548 -0.05888007 0.38039216 0.78823529 0.52549020
v 0.02691364 0.01266548 -0.05827838 0.38039216 0.78823529 0.52549020
v 0.02717541 0.01154606 -0.05855079 0.38039216 0.78823529 0.52549020
v 0.02785259 0.01114923 -0.05805088 0.38039216 0.78823529 0.52549020
v 0.02880577 0.00925392 -0.05753601 0.38039216 0.78823529 0.52549020
v 0.02896226 0.00970109 -0.05673377 0.38039216 0.78823529 0.52549020
v 0.02904762 0.00893112 -0.05719476 0.38039216 0.78823529 0.52549020
v 0.03014022 0.00599339 -0.05665295 0.38039216 0.78823529 0.52549020
v 0.03056702 0.00422246 -0.05608121 0.38039216 0.78823529 0.52549020
v 0.03034224 0.00672782 -0.05494071 0.38039216 0.78823529 0.52549020
v 0.03019997 0.00739414 -0.05458150 0.38039216 0.78823529 0.52549020
v 0.03036785 0.00552548 -0.05618298 0.38039216 0.78823529 0.52549020
v 0.03025973 0.00638726 -0.05584772 0.38039216 0.78823529 0.52549020
v 0.02955124 0.00904662 -0.05487485 0.38039216 0.78823529 0.52549020
v 0.02833629 0.01387078 -0.04040461 0.38039216 0.78823529 0.52549020
v 0.02875171 0.01278689 -0.03919826 0.38039216 0.78823529 0.52549020
v 0.02898787 0.01218276 -0.03919826 0.38039216 0.78823529 0.52549020
v 0.02700753 0.01266548 -0.03031974 0.38039216 0.78823529 0.52549020
v 0.02719532 0.01223903 -0.03031974 0.38039216 0.78823529 0.52549020
v 0.02751684 0.01150460 -0.03031974 0.38039216 0.78823529 0.52549020
v 0.02767049 0.01111961 -0.03031974 0.38039216 0.78823529 0.52549020
v 0.02775585 0.01090343 -0.03031974 0.38039216 0.78823529 0.52549020
v 0.02784405 0.01067540 -0.03031974 0.38039216 0.78823529 0.52549020
v 0.02800624 0.01025192 -0.03031974 0.38039216 0.78823529 0.52549020
v 0.02816273 0.00981955 -0.03031974 0.38039216 0.78823529 0.52549020
v 0.02829646 0.01387078 -0.03919826 0.38039216 0.78823529 0.52549020
v 0.00637901 0.03022968 -0.04402367 0.38039216 0.78823529 0.52549020
v 0.00542868 0.03043995 -0.04402367 0.38039216 0.78823529 0.52549020
v 0.00422226 0.03068278 -0.04402367 0.38039216 0.78823529 0.52549020
v 0.00225046 0.03105592 -0.04325436 0.38039216 0.78823529 0.52549020
v 0.00301585 0.03088712 -0.04402367 0.38039216 0.78823529 0.52549020
v 0.00989582 0.02749037 -0.03031974 0.38039216 0.78823529 0.52549020
v 0.00784150 0.02961667 -0.04040461 0.38039216 0.78823529 0.52549020
v 0.00784150 0.02976178 -0.04161096 0.38039216 0.78823529 0.52549020
v 0.00676597 0.03003127 -0.04161096 0.38039216 0.78823529 0.52549020
v 0.00616277 0.03018230 -0.04161096 0.38039216 0.78823529 0.52549020
v 0.00633633 0.03022672 -0.04281732 0.38039216 0.78823529 0.52549020
v 0.00698222 0.03009346 -0.04402367 0.38039216 0.78823529 0.52549020
v 0.01266431 0.02634133 -0.05758690 0.38039216 0.78823529 0.52549020
v 0.01336710 0.02657825 -0.05677269 0.38039216 0.78823529 0.52549020
v 0.01381097 0.02609850 -0.05721871 0.38039216 0.78823529 0.52549020
v 0.01497755 0.02552102 -0.05722170 0.38039216 0.78823529 0.52549020
v 0.00225046 0.02869271 -0.05805987 0.38039216 0.78823529 0.52549020
v 0.00225046 0.02888520 -0.05778746 0.38039216 0.78823529 0.52549020
v 0.00301585 0.02916949 -0.05713789 0.38039216 0.78823529 0.52549020
v 0.00422226 0.02909842 -0.05705707 0.38039216 0.78823529 0.52549020
v 0.00520390 0.02901846 -0.05689841 0.38039216 0.78823529 0.52549020
v 0.00600912 0.02893850 -0.05666792 0.38039216 0.78823529 0.52549020
v 0.00974502 0.02776874 -0.05673677 0.38039216 0.78823529 0.52549020
v 0.01266431 0.02669967 -0.05698223 0.38039216 0.78823529 0.52549020
v 0.02194003 0.01951821 -0.05810776 0.38039216 0.78823529 0.52549020
v 0.02227578 0.01866828 -0.05849092 0.38039216 0.78823529 0.52549020
v 0.02380655 0.01628138 -0.05886510 0.38039216 0.78823529 0.52549020
v 0.02310376 0.01831884 -0.05806885 0.38039216 0.78823529 0.52549020
v 0.02422481 0.01702469 -0.05800898 0.38039216 0.78823529 0.52549020
v 0.02153030 0.02032076 -0.05767671 0.38039216 0.78823529 0.52549020
v 0.01588805 0.02545883 -0.05608121 0.38039216 0.78823529 0.52549020
v 0.01649125 0.02504423 -0.05608121 0.38039216 0.78823529 0.52549020
v 0.01729079 0.02444306 -0.05608121 0.38039216 0.78823529 0.52549020
v 0.02055436 0.02174816 -0.05678466 0.38039216 0.78823529 0.52549020
v 0.01990848 0.02202950 -0.05722470 0.38039216 0.78823529 0.52549020
v 0.01421216 0.02640352 -0.05608121 0.38039216 0.78823529 0.52549020
v 0.01442556 0.02650717 -0.05530890 0.38039216 0.78823529 0.52549020
v 0.02183475 0.02063171 -0.05687447 0.38039216 0.78823529 0.52549020
v 0.02561333 0.01485693 -0.05819457 0.38039216 0.78823529 0.52549020
v 0.02669170 0.01349467 -0.05805088 0.38039216 0.78823529 0.52549020
v 0.02768472 0.01195177 -0.05774256 0.38039216 0.78823529 0.52549020
v 0.02860944 0.01016307 -0.05719476 0.38039216 0.78823529 0.52549020
v 0.02801477 0.01151348 -0.05732049 0.38039216 0.78823529 0.52549020
v 0.02781275 0.01220053 -0.05694032 0.38039216 0.78823529 0.52549020
v 0.02879154 0.01047698 -0.05608121 0.38039216 0.78823529 0.52549020
v 0.02904193 0.00987285 -0.05608121 0.38039216 0.78823529 0.52549020
v 0.02934353 0.00904662 -0.05608121 0.38039216 0.78823529 0.52549020
v 0.02974757 0.00784132 -0.05608121 0.38039216 0.78823529 0.52549020
v 0.03006340 0.00672782 -0.05618298 0.38039216 0.78823529 0.52549020
v 0.03013453 0.00718980 -0.05538374 0.38039216 0.78823529 0.52549020
v 0.02999796 0.00781466 -0.05494071 0.38039216 0.78823529 0.52549020
v 0.02912729 0.01003573 -0.05487485 0.38039216 0.78823529 0.52549020
v 0.02791234 0.01480955 -0.04040461 0.38039216 0.78823529 0.52549020
v 0.02662626 0.01344433 -0.03031974 0.38039216 0.78823529 0.52549020
v 0.02788673 0.01473847 -0.03919826 0.38039216 0.78823529 0.52549020
v 0.00686271 0.03007273 -0.04523002 0.38039216 0.78823529 0.52549020
v 0.00784150 0.02960778 -0.05004944 0.38039216 0.78823529 0.52549020
v 0.00784150 0.02953671 -0.05125580 0.38039216 0.78823529 0.52549020
v 0.00663509 0.02977362 -0.05125580 0.38039216 0.78823529 0.52549020
v 0.00225046 0.03099077 -0.04402367 0.38039216 0.78823529 0.52549020
v 0.01025433 0.02739856 -0.03031974 0.38039216 0.78823529 0.52549020
v 0.00904792 0.02928795 -0.04040461 0.38039216 0.78823529 0.52549020
v 0.00904792 0.02943010 -0.04161096 0.38039216 0.78823529 0.52549020
v 0.00784150 0.02983877 -0.04281732 0.38039216 0.78823529 0.52549020
v 0.00693954 0.03007569 -0.04281732 0.38039216 0.78823529 0.52549020
v 0.00784150 0.02986839 -0.04402367 0.38039216 0.78823529 0.52549020
v 0.00784150 0.02983877 -0.04523002 0.38039216 0.78823529 0.52549020
v 0.01266431 0.02706688 -0.05608121 0.38039216 0.78823529 0.52549020
v 0.01360895 0.02669078 -0.05608121 0.38039216 0.78823529 0.52549020
v 0.01054740 0.02763252 -0.05644042 0.38039216 0.78823529 0.52549020
v 0.01103963 0.02780132 -0.05563818 0.38039216 0.78823529 0.52549020
v 0.00225046 0.02918430 -0.05718578 0.38039216 0.78823529 0.52549020
v 0.00301585 0.02952190 -0.05608121 0.38039216 0.78823529 0.52549020
v 0.00422226 0.02940937 -0.05608121 0.38039216 0.78823529 0.52549020
v 0.00553680 0.02916949 -0.05619196 0.38039216 0.78823529 0.52549020
v 0.00663509 0.02904511 -0.05581180 0.38039216 0.78823529 0.52549020
v 0.00730089 0.02896219 -0.05553341 0.38039216 0.78823529 0.52549020
v 0.00663509 0.02885262 -0.05641348 0.38039216 0.78823529 0.52549020
v 0.02274241 0.01912138 -0.05756296 0.38039216 0.78823529 0.52549020
v 0.02393459 0.01786278 -0.05728756 0.38039216 0.78823529 0.52549020
v 0.02440407 0.01725865 -0.05728756 0.38039216 0.78823529 0.52549020
v 0.02531172 0.01565948 -0.05784733 0.38039216 0.78823529 0.52549020
v 0.01498893 0.02621695 -0.05489282 0.38039216 0.78823529 0.52549020
v 0.01601893 0.02555359 -0.05487485 0.38039216 0.78823529 0.52549020
v 0.01662214 0.02514492 -0.05487485 0.38039216 0.78823529 0.52549020
v 0.01937071 0.02297123 -0.05566811 0.38039216 0.78823529 0.52549020
v 0.02068240 0.02185181 -0.05608121 0.38039216 0.78823529 0.52549020
v 0.02128561 0.02136022 -0.05608121 0.38039216 0.78823529 0.52549020
v 0.01256472 0.02746371 -0.05478804 0.38039216 0.78823529 0.52549020
v 0.01396177 0.02680628 -0.05489282 0.38039216 0.78823529 0.52549020
v 0.01452799 0.02656640 -0.05450367 0.38039216 0.78823529 0.52549020
v 0.02195141 0.02075905 -0.05608121 0.38039216 0.78823529 0.52549020
v 0.02255462 0.02005127 -0.05608121 0.38039216 0.78823529 0.52549020
v 0.02294442 0.01933460 -0.05676071 0.38039216 0.78823529 0.52549020
v 0.02326594 0.01870974 -0.05721272 0.38039216 0.78823529 0.52549020
v 0.02641855 0.01430018 -0.05752703 0.38039216 0.78823529 0.52549020
v 0.02678844 0.01388558 -0.05718878 0.38039216 0.78823529 0.52549020
v 0.02747416 0.01262698 -0.05732049 0.38039216 0.78823529 0.52549020
v 0.02654375 0.01448971 -0.05672180 0.38039216 0.78823529 0.52549020
v 0.02756237 0.01293793 -0.05608121 0.38039216 0.78823529 0.52549020
v 0.02788104 0.01233676 -0.05608121 0.38039216 0.78823529 0.52549020
v 0.02833060 0.01146018 -0.05608121 0.38039216 0.78823529 0.52549020
v 0.02883707 0.01063690 -0.05487485 0.38039216 0.78823529 0.52549020
v 0.02760220 0.01541368 -0.04040461 0.38039216 0.78823529 0.52549020
v 0.02650960 0.01366052 -0.03031974 0.38039216 0.78823529 0.52549020
v 0.02714980 0.01628138 -0.04040461 0.38039216 0.78823529 0.52549020
v 0.02668032 0.01713427 -0.04040461 0.38039216 0.78823529 0.52549020
v 0.02662911 0.01703950 -0.03947366 0.38039216 0.78823529 0.52549020
v 0.02754245 0.01534260 -0.03919826 0.38039216 0.78823529 0.52549020
v 0.02545684 0.01556767 -0.03031974 0.38039216 0.78823529 0.52549020
v 0.02593769 0.01469997 -0.03031974 0.38039216 0.78823529 0.52549020
v 0.00904792 0.02931756 -0.05004944 0.38039216 0.78823529 0.52549020
v 0.00904792 0.02923761 -0.05125580 0.38039216 0.78823529 0.52549020
v 0.00784150 0.02940048 -0.05246215 0.38039216 0.78823529 0.52549020
v 0.00663509 0.02964628 -0.05246215 0.38039216 0.78823529 0.52549020
v 0.00542868 0.02980028 -0.05246215 0.38039216 0.78823529 0.52549020
v 0.00542868 0.02992466 -0.05125580 0.38039216 0.78823529 0.52549020
v 0.00225046 0.03094339 -0.04446071 0.38039216 0.78823529 0.52549020
v 0.00422226 0.02965221 -0.05487485 0.38039216 0.78823529 0.52549020
v 0.01145790 0.02696916 -0.03031974 0.38039216 0.78823529 0.52549020
v 0.01266431 0.02811227 -0.04040461 0.38039216 0.78823529 0.52549020
v 0.01145790 0.02852686 -0.04040461 0.38039216 0.78823529 0.52549020
v 0.01053032 0.02883485 -0.04040461 0.38039216 0.78823529 0.52549020
v 0.00992712 0.02903031 -0.04040461 0.38039216 0.78823529 0.52549020
v 0.01013767 0.02909842 -0.04161096 0.38039216 0.78823529 0.52549020
v 0.00904792 0.02949525 -0.04281732 0.38039216 0.78823529 0.52549020
v 0.00904792 0.02951302 -0.04402367 0.38039216 0.78823529 0.52549020
v 0.00904792 0.02949525 -0.04523002 0.38039216 0.78823529 0.52549020
v 0.01184201 0.02765917 -0.05512929 0.38039216 0.78823529 0.52549020
v 0.00775899 0.02866605 -0.05599440 0.38039216 0.78823529 0.52549020
v 0.01025433 0.02823664 -0.05487485 0.38039216 0.78823529 0.52549020
v 0.01144936 0.02787535 -0.05478804 0.38039216 0.78823529 0.52549020
v 0.00225046 0.02954263 -0.05608121 0.38039216 0.78823529 0.52549020
v 0.00301585 0.02972328 -0.05487485 0.38039216 0.78823529 0.52549020
v 0.00542868 0.02950413 -0.05487485 0.38039216 0.78823529 0.52549020
v 0.00663509 0.02927018 -0.05487485 0.38039216 0.78823529 0.52549020
v 0.00757973 0.02903919 -0.05487485 0.38039216 0.78823529 0.52549020
v 0.00843333 0.02894146 -0.05425522 0.38039216 0.78823529 0.52549020
v 0.00818294 0.02886447 -0.05487485 0.38039216 0.78823529 0.52549020
v 0.02408540 0.01804935 -0.05637157 0.38039216 0.78823529 0.52549020
v 0.01813584 0.02536406 -0.04484986 0.38039216 0.78823529 0.52549020
v 0.01945607 0.02303638 -0.05487485 0.38039216 0.78823529 0.52549020
v 0.02005928 0.02256256 -0.05487485 0.38039216 0.78823529 0.52549020
v 0.02081044 0.02195843 -0.05487485 0.38039216 0.78823529 0.52549020
v 0.02141365 0.02145202 -0.05487485 0.38039216 0.78823529 0.52549020
v 0.01209240 0.02775097 -0.05432706 0.38039216 0.78823529 0.52549020
v 0.01279519 0.02754071 -0.05366850 0.38039216 0.78823529 0.52549020
v 0.01387072 0.02700173 -0.05366850 0.38039216 0.78823529 0.52549020
v 0.01663067 0.02640056 -0.04402367 0.38039216 0.78823529 0.52549020
v 0.01748711 0.02587047 -0.04402367 0.38039216 0.78823529 0.52549020
v 0.02264566 0.02017861 -0.05487485 0.38039216 0.78823529 0.52549020
v 0.02308669 0.02186070 -0.04161096 0.38039216 0.78823529 0.52549020
v 0.02368990 0.02127137 -0.04161096 0.38039216 0.78823529 0.52549020
v 0.02419636 0.02059025 -0.04255090 0.38039216 0.78823529 0.52549020
v 0.02312652 0.01957448 -0.05487485 0.38039216 0.78823529 0.52549020
v 0.02700753 0.01387078 -0.05608121 0.38039216 0.78823529 0.52549020
v 0.02514954 0.01661898 -0.05608121 0.38039216 0.78823529 0.52549020
v 0.02520929 0.01911842 -0.04281732 0.38039216 0.78823529 0.52549020
v 0.02528896 0.01923688 -0.04161096 0.38039216 0.78823529 0.52549020
v 0.02568162 0.01863571 -0.04161096 0.38039216 0.78823529 0.52549020
v 0.02628482 0.01768213 -0.04161096 0.38039216 0.78823529 0.52549020
v 0.02664333 0.01708096 -0.04161096 0.38039216 0.78823529 0.52549020
v 0.02631043 0.01773543 -0.04040461 0.38039216 0.78823529 0.52549020
v 0.02527474 0.01921318 -0.03919826 0.38039216 0.78823529 0.52549020
v 0.02563324 0.01861202 -0.03919826 0.38039216 0.78823529 0.52549020
v 0.02536010 0.01573055 -0.03031974 0.38039216 0.78823529 0.52549020
v 0.00992996 0.02905104 -0.05004944 0.38039216 0.78823529 0.52549020
v 0.00980761 0.02900662 -0.05125580 0.38039216 0.78823529 0.52549020
v 0.00970234 0.02896516 -0.05197422 0.38039216 0.78823529 0.52549020
v 0.00906783 0.02907769 -0.05241126 0.38039216 0.78823529 0.52549020
v 0.00663509 0.02948340 -0.05366850 0.38039216 0.78823529 0.52549020
v 0.00795532 0.02915765 -0.05377926 0.38039216 0.78823529 0.52549020
v 0.00542868 0.02966997 -0.05366850 0.38039216 0.78823529 0.52549020
v 0.00225046 0.02972032 -0.05487485 0.38039216 0.78823529 0.52549020
v 0.01223467 0.02662563 -0.03031974 0.38039216 0.78823529 0.52549020
v 0.01331873 0.02775986 -0.03974307 0.38039216 0.78823529 0.52549020
v 0.01343539 0.02781612 -0.04040461 0.38039216 0.78823529 0.52549020
v 0.01266431 0.02823368 -0.04161096 0.38039216 0.78823529 0.52549020
v 0.01145790 0.02867197 -0.04161096 0.38039216 0.78823529 0.52549020
v 0.01074088 0.02890889 -0.04161096 0.38039216 0.78823529 0.52549020
v 0.01080916 0.02892962 -0.04260179 0.38039216 0.78823529 0.52549020
v 0.01034538 0.02908953 -0.04292807 0.38039216 0.78823529 0.52549020
v 0.01085753 0.02894442 -0.04340702 0.38039216 0.78823529 0.52549020
v 0.01085753 0.02894442 -0.04343097 0.38039216 0.78823529 0.52549020
v 0.01004947 0.02909250 -0.04763674 0.38039216 0.78823529 0.52549020
v 0.01000110 0.02907177 -0.04884309 0.38039216 0.78823529 0.52549020
v 0.01025433 0.02849725 -0.05366850 0.38039216 0.78823529 0.52549020
v 0.00867802 0.02901254 -0.05345297 0.38039216 0.78823529 0.52549020
v 0.00906783 0.02884077 -0.05377926 0.38039216 0.78823529 0.52549020
v 0.01817853 0.02539960 -0.04402367 0.38039216 0.78823529 0.52549020
v 0.02183191 0.02300381 -0.04040461 0.38039216 0.78823529 0.52549020
v 0.02243511 0.02255071 -0.04040461 0.38039216 0.78823529 0.52549020
v 0.01145790 0.02822776 -0.05246215 0.38039216 0.78823529 0.52549020
v 0.01219199 0.02779243 -0.05366850 0.38039216 0.78823529 0.52549020
v 0.01231718 0.02785758 -0.05246215 0.38039216 0.78823529 0.52549020
v 0.01292039 0.02757032 -0.05246215 0.38039216 0.78823529 0.52549020
v 0.01602747 0.02671151 -0.04402367 0.38039216 0.78823529 0.52549020
v 0.01670750 0.02643610 -0.04281732 0.38039216 0.78823529 0.52549020
v 0.01748711 0.02594746 -0.04281732 0.38039216 0.78823529 0.52549020
v 0.01823828 0.02544106 -0.04281732 0.38039216 0.78823529 0.52549020
v 0.02316636 0.02194658 -0.04040461 0.38039216 0.78823529 0.52549020
v 0.02425896 0.02067021 -0.04161096 0.38039216 0.78823529 0.52549020
v 0.02482233 0.01989728 -0.04161096 0.38039216 0.78823529 0.52549020
v 0.02487070 0.01989728 -0.04040461 0.38039216 0.78823529 0.52549020
v 0.02531172 0.01927241 -0.04040461 0.38039216 0.78823529 0.52549020
v 0.02570722 0.01866828 -0.04040461 0.38039216 0.78823529 0.52549020
v 0.02481095 0.01989728 -0.03919826 0.38039216 0.78823529 0.52549020
v 0.02419636 0.02060209 -0.03845888 0.38039216 0.78823529 0.52549020
v 0.02524913 0.01589343 -0.03031974 0.38039216 0.78823529 0.52549020
v 0.01053317 0.02881708 -0.05004944 0.38039216 0.78823529 0.52549020
v 0.01060430 0.02884966 -0.04884309 0.38039216 0.78823529 0.52549020
v 0.01041082 0.02876674 -0.05125580 0.38039216 0.78823529 0.52549020
v 0.00948325 0.02889408 -0.05277945 0.38039216 0.78823529 0.52549020
v 0.01387072 0.02578459 -0.03031974 0.38039216 0.78823529 0.52549020
v 0.01654816 0.02636503 -0.04040461 0.38039216 0.78823529 0.52549020
v 0.01594780 0.02665821 -0.04040461 0.38039216 0.78823529 0.52549020
v 0.01609291 0.02673224 -0.04161096 0.38039216 0.78823529 0.52549020
v 0.01507713 0.02718830 -0.04161096 0.38039216 0.78823529 0.52549020
v 0.01354920 0.02786647 -0.04161096 0.38039216 0.78823529 0.52549020
v 0.01266431 0.02823072 -0.04281732 0.38039216 0.78823529 0.52549020
v 0.02110351 0.02353094 -0.04040461 0.38039216 0.78823529 0.52549020
v 0.02183191 0.02300381 -0.03919826 0.38039216 0.78823529 0.52549020
v 0.02243511 0.02255367 -0.03919826 0.38039216 0.78823529 0.52549020
v 0.01145790 0.02833141 -0.05125580 0.38039216 0.78823529 0.52549020
v 0.01145790 0.02842025 -0.05004944 0.38039216 0.78823529 0.52549020
v 0.01239400 0.02790793 -0.05125580 0.38039216 0.78823529 0.52549020
v 0.01507713 0.02715276 -0.04402367 0.38039216 0.78823529 0.52549020
v 0.01610429 0.02674705 -0.04281732 0.38039216 0.78823529 0.52549020
v 0.01669612 0.02643314 -0.04161096 0.38039216 0.78823529 0.52549020
v 0.01748711 0.02596819 -0.04161096 0.38039216 0.78823529 0.52549020
v 0.01828380 0.02546179 -0.04161096 0.38039216 0.78823529 0.52549020
v 0.01888701 0.02504127 -0.04161096 0.38039216 0.78823529 0.52549020
v 0.02038933 0.02404327 -0.04040461 0.38039216 0.78823529 0.52549020
v 0.02315498 0.02194954 -0.03919826 0.38039216 0.78823529 0.52549020
v 0.02376956 0.02130691 -0.04040461 0.38039216 0.78823529 0.52549020
v 0.02428172 0.02070574 -0.04040461 0.38039216 0.78823529 0.52549020
v 0.02425896 0.02067909 -0.03919826 0.38039216 0.78823529 0.52549020
v 0.02305824 0.02185181 -0.03838105 0.38039216 0.78823529 0.52549020
v 0.02273103 0.01908584 -0.03031974 0.38039216 0.78823529 0.52549020
v 0.02305824 0.01870086 -0.03031974 0.38039216 0.78823529 0.52549020
v 0.02324318 0.01848171 -0.03031974 0.38039216 0.78823529 0.52549020
v 0.02384639 0.01775024 -0.03031974 0.38039216 0.78823529 0.52549020
v 0.02432440 0.01714907 -0.03031974 0.38039216 0.78823529 0.52549020
v 0.02495606 0.01629322 -0.03031974 0.38039216 0.78823529 0.52549020
v 0.02375818 0.02128026 -0.03919826 0.38039216 0.78823529 0.52549020
v 0.01145790 0.02848244 -0.04884309 0.38039216 0.78823529 0.52549020
v 0.01354920 0.02786054 -0.04281732 0.38039216 0.78823529 0.52549020
v 0.01507713 0.02720903 -0.04281732 0.38039216 0.78823529 0.52549020
v 0.01461335 0.02539960 -0.03031974 0.38039216 0.78823529 0.52549020
v 0.01748711 0.02584085 -0.04040461 0.38039216 0.78823529 0.52549020
v 0.01521655 0.02506792 -0.03031974 0.38039216 0.78823529 0.52549020
v 0.02110351 0.02348948 -0.03919826 0.38039216 0.78823529 0.52549020
v 0.02174939 0.02294162 -0.03854569 0.38039216 0.78823529 0.52549020
v 0.01821551 0.02540552 -0.04040461 0.38039216 0.78823529 0.52549020
v 0.01978613 0.02442825 -0.04040461 0.38039216 0.78823529 0.52549020
v 0.01941908 0.02225161 -0.03031974 0.38039216 0.78823529 0.52549020
v 0.01968654 0.02203246 -0.03031974 0.38039216 0.78823529 0.52549020
v 0.02028975 0.02152310 -0.03031974 0.38039216 0.78823529 0.52549020
v 0.02071654 0.02113515 -0.03031974 0.38039216 0.78823529 0.52549020
v 0.02094986 0.02091897 -0.03031974 0.38039216 0.78823529 0.52549020
v 0.02116895 0.02071167 -0.03031974 0.38039216 0.78823529 0.52549020
v 0.02155306 0.02034741 -0.03031974 0.38039216 0.78823529 0.52549020
v 0.02192296 0.01996243 -0.03031974 0.38039216 0.78823529 0.52549020
v 0.02212782 0.01974328 -0.03031974 0.38039216 0.78823529 0.52549020
v 0.01812162 0.02534629 -0.03974007 0.38039216 0.78823529 0.52549020
v 0.02028406 0.02400181 -0.03919826 0.38039216 0.78823529 0.52549020
v 0.01589658 0.02468294 -0.03031974 0.38039216 0.78823529 0.52549020
v 0.01686399 0.02410842 -0.03031974 0.38039216 0.78823529 0.52549020
v 0.01744728 0.02370863 -0.03031974 0.38039216 0.78823529 0.52549020
v 0.01832933 0.02308969 -0.03031974 0.38039216 0.78823529 0.52549020
v 0.01854842 0.02292977 -0.03031974 0.38039216 0.78823529 0.52549020
v 0.01893253 0.02263659 -0.03031974 0.38039216 0.78823529 0.52549020
f 1 2 5
f 1 5 10
f 1 10 23
f 1 23 36
f 1 36 50
f 1 50 76
f 1 76 77
f 1 77 112
f 1 112 148
f 1 148 195
f 1 195 256
f 1 256 225
f 1 225 174
f 1 174 135
f 1 135 103
f 1 103 70
f 1 70 48
f 1 48 35
f 1 35 18
f 1 18 9
f 1 9 3
f 1 3 4
f 1 4 2
f 2 4 6
f 2 6 5
f 3 7 8
f 3 8 6
f 3 6 4
f 3 9 7
f 5 6 10
f 6 8 11
f 6 11 12
f 6 12 13
f 6 13 10
f 7 9 14
f 7 14 22
f 7 22 21
f 7 21 20
f 7 20 19
f 7 19 18
f 7 18 35
f 7 35 49
f 7 49 74
f 7 74 109
f 7 109 145
f 7 145 190
f 7 190 247
f 7 247 309
f 7 309 365
f 7 365 423
f 7 423 479
f 7 479 438
f 7 438 377
f 7 377 323
f 7 323 322
f 7 322 261
f 7 261 200
f 7 200 151
f 7 151 115
f 7 115 81
f 7 81 80
f 7 80 54
f 7 54 52
f 7 52 38
f 7 38 27
f 7 27 15
f 7 15 8
f 8 15 16
f 8 16 17
f 8 17 11
f 9 18 19
f 9 19 20
f 9 20 21
f 9 21 22
f 9 22 14
f 10 13 12
f 10 12 23
f 11 17 24
f 11 24 12
f 12 24 25
f 12 25 26
f 12 26 23
f 15 27 28
f 15 28 16
f 16 28 29
f 16 29 30
f 16 30 31
f 16 31 32
f 16 32 17
f 17 33 34
f 17 34 24
f 17 32 31
f 17 31 33
f 23 26 36
f 24 34 37
f 24 37 25
f 25 37 36
f 25 36 26
f 27 38 28
f 28 38 29
f 29 38 39
f 29 39 40
f 29 40 41
f 29 41 42
f 29 42 30
f 30 42 31
f 31 43 33
f 31 42 44
f 31 44 41
f 31 41 43
f 33 43 45
f 33 45 46
f 33 46 34
f 34 46 47
f 34 47 37
f 35 48 69
f 35 69 102
f 35 102 108
f 35 108 144
f 35 144 188
f 35 188 244
f 35 244 243
f 35 243 242
f 35 242 241
f 35 241 240
f 35 240 239
f 35 239 304
f 35 304 303
f 35 303 302
f 35 302 301
f 35 301 300
f 35 300 299
f 35 299 298
f 35 298 297
f 35 297 359
f 35 359 410
f 35 410 416
f 35 416 415
f 35 415 471
f 35 471 514
f 35 514 549
f 35 549 548
f 35 548 547
f 35 547 546
f 35 546 545
f 35 545 544
f 35 544 569
f 35 569 568
f 35 568 567
f 35 567 566
f 35 566 565
f 35 565 564
f 35 564 563
f 35 563 562
f 35 562 561
f 35 561 577
f 35 577 576
f 35 576 575
f 35 575 574
f 35 574 573
f 35 573 572
f 35 572 556
f 35 556 554
f 35 554 519
f 35 519 480
f 35 480 425
f 35 425 366
f 35 366 311
f 35 311 248
f 35 248 191
f 35 191 146
f 35 146 111
f 35 111 110
f 35 110 75
f 35 75 49
f 36 37 50
f 37 47 51
f 37 51 50
f 38 52 39
f 39 53 40
f 39 52 54
f 39 54 55
f 39 55 56
f 39 56 53
f 40 53 57
f 40 57 41
f 41 58 43
f 41 44 42
f 41 57 59
f 41 59 60
f 41 60 58
f 43 58 60
f 43 60 61
f 43 61 45
f 45 61 62
f 45 62 63
f 45 63 64
f 45 64 65
f 45 65 46
f 46 65 66
f 46 66 47
f 47 66 67
f 47 67 68
f 47 68 51
f 48 70 71
f 48 71 72
f 48 72 73
f 48 73 69
f 49 75 74
f 50 51 76
f 51 68 77
f 51 77 76
f 53 56 78
f 53 78 79
f 53 79 59
f 53 59 57
f 54 80 55
f 55 80 81
f 55 81 82
f 55 82 56
f 56 82 83
f 56 83 78
f 59 79 84
f 59 84 85
f 59 85 86
f 59 86 87
f 59 87 88
f 59 88 60
f 60 88 61
f 61 88 89
f 61 89 90
f 61 90 91
f 61 91 92
f 61 92 62
f 62 92 64
f 62 64 63
f 64 92 93
f 64 93 94
f 64 94 95
f 64 95 96
f 64 96 66
f 64 66 65
f 66 96 97
f 66 97 67
f 67 97 98
f 67 98 99
f 67 99 100
f 67 100 68
f 68 100 101
f 68 101 77
f 69 73 102
f 70 103 71
f 71 103 104
f 71 104 72
f 72 104 105
f 72 105 73
f 73 105 106
f 73 106 107
f 73 107 108
f 73 108 102
f 74 75 110
f 74 110 111
f 74 111 109
f 77 101 100
f 77 100 112
f 78 83 113
f 78 113 114
f 78 114 84
f 78 84 79
f 81 115 82
f 82 115 116
f 82 116 117
f 82 117 118
f 82 118 83
f 83 119 113
f 83 118 119
f 84 114 85
f 85 114 86
f 86 114 120
f 86 120 121
f 86 121 87
f 87 121 122
f 87 122 88
f 88 122 123
f 88 123 124
f 88 124 89
f 89 124 125
f 89 125 90
f 90 125 91
f 91 125 126
f 91 126 127
f 91 127 128
f 91 128 94
f 91 94 92
f 92 94 93
f 94 128 129
f 94 129 95
f 95 129 97
f 95 97 96
f 97 129 130
f 97 130 131
f 97 131 98
f 98 131 132
f 98 132 133
f 98 133 99
f 99 133 100
f 100 133 134
f 100 134 112
f 103 135 136
f 103 136 137
f 103 137 138
f 103 138 104
f 104 138 105
f 105 138 139
f 105 139 140
f 105 140 178
f 105 178 141
f 105 141 142
f 105 142 106
f 106 142 143
f 106 143 107
f 107 143 144
f 107 144 108
f 109 111 145
f 111 146 145
f 112 134 147
f 112 147 148
f 113 149 114
f 113 119 149
f 114 149 150
f 114 150 120
f 115 151 152
f 115 152 116
f 116 152 153
f 116 153 117
f 117 153 118
f 118 153 154
f 118 154 155
f 118 155 156
f 118 156 119
f 119 156 149
f 120 150 157
f 120 157 121
f 121 158 122
f 121 157 159
f 121 159 160
f 121 160 161
f 121 161 158
f 122 158 123
f 123 158 162
f 123 162 126
f 123 126 124
f 124 126 125
f 126 162 127
f 127 162 163
f 127 163 128
f 128 163 164
f 128 164 165
f 128 165 166
f 128 166 129
f 129 166 167
f 129 167 130
f 130 167 131
f 131 167 168
f 131 168 169
f 131 169 170
f 131 170 171
f 131 171 132
f 132 171 172
f 132 172 173
f 132 173 133
f 133 173 147
f 133 147 134
f 135 174 136
f 136 174 175
f 136 175 226
f 136 226 176
f 136 176 137
f 137 176 139
f 137 139 138
f 139 176 177
f 139 177 179
f 139 179 140
f 140 179 178
f 141 178 180
f 141 180 142
f 142 181 182
f 142 182 183
f 142 183 184
f 142 184 185
f 142 185 143
f 142 180 186
f 142 186 181
f 143 185 187
f 143 187 144
f 144 187 188
f 145 189 190
f 145 146 189
f 146 191 192
f 146 192 189
f 147 173 193
f 147 193 148
f 148 193 194
f 148 194 195
f 149 196 197
f 149 197 150
f 149 156 198
f 149 198 199
f 149 199 196
f 150 197 157
f 151 200 152
f 152 200 201
f 152 201 202
f 152 202 153
f 153 202 154
f 154 202 203
f 154 203 155
f 155 203 204
f 155 204 205
f 155 205 156
f 156 205 198
f 157 197 159
f 158 161 206
f 158 206 207
f 158 207 208
f 158 208 162
f 159 197 209
f 159 209 196
f 159 196 160
f 160 206 161
f 160 196 210
f 160 210 211
f 160 211 212
f 160 212 213
f 160 213 214
f 160 214 206
f 162 208 215
f 162 215 216
f 162 216 163
f 163 216 217
f 163 217 164
f 164 217 218
f 164 218 165
f 165 218 219
f 165 219 168
f 165 168 166
f 166 168 167
f 168 219 220
f 168 220 169
f 169 220 221
f 169 221 170
f 170 221 222
f 170 222 171
f 171 222 223
f 171 223 172
f 172 223 224
f 172 224 193
f 172 193 173
f 174 225 175
f 175 225 227
f 175 227 228
f 175 228 226
f 176 226 177
f 177 226 229
f 177 229 179
f 178 179 230
f 178 230 231
f 178 231 180
f 179 229 232
f 179 232 230
f 180 231 233
f 180 233 234
f 180 234 235
f 180 235 181
f 180 181 186
f 181 235 236
f 181 236 182
f 182 184 183
f 182 236 237
f 182 237 187
f 182 187 238
f 182 238 184
f 184 238 187
f 184 187 185
f 187 237 239
f 187 239 240
f 187 240 241
f 187 241 242
f 187 242 243
f 187 243 244
f 187 244 188
f 189 192 245
f 189 245 246
f 189 246 190
f 190 246 247
f 191 248 249
f 191 249 192
f 192 249 250
f 192 250 251
f 192 251 245
f 193 224 252
f 193 252 253
f 193 253 194
f 194 253 254
f 194 254 195
f 195 254 255
f 195 255 256
f 196 209 197
f 196 199 210
f 198 205 257
f 198 257 258
f 198 258 199
f 199 258 259
f 199 259 260
f 199 260 210
f 200 261 201
f 201 261 262
f 201 262 202
f 202 262 203
f 203 262 263
f 203 263 204
f 204 257 205
f 204 263 264
f 204 264 265
f 204 265 266
f 204 266 257
f 206 208 207
f 206 214 267
f 206 267 208
f 208 267 268
f 208 268 269
f 208 269 270
f 208 270 271
f 208 271 216
f 208 216 215
f 210 260 211
f 211 260 259
f 211 259 272
f 211 272 273
f 211 273 274
f 211 274 212
f 212 274 213
f 213 275 276
f 213 276 214
f 213 274 277
f 213 277 278
f 213 278 275
f 214 276 267
f 216 271 270
f 216 270 217
f 217 270 279
f 217 279 218
f 218 279 280
f 218 280 219
f 219 280 281
f 219 281 282
f 219 282 220
f 220 282 283
f 220 283 221
f 221 283 222
f 222 284 285
f 222 285 286
f 222 286 287
f 222 287 252
f 222 252 223
f 222 283 284
f 223 252 224
f 225 256 227
f 226 228 288
f 226 288 229
f 227 256 228
f 228 256 255
f 228 255 254
f 228 254 253
f 228 253 288
f 229 288 232
f 230 232 289
f 230 289 290
f 230 290 231
f 231 290 233
f 232 288 291
f 232 291 292
f 232 292 289
f 233 290 293
f 233 293 294
f 233 294 234
f 234 294 295
f 234 295 296
f 234 296 235
f 235 296 236
f 236 296 237
f 237 297 298
f 237 298 299
f 237 299 300
f 237 300 301
f 237 301 302
f 237 302 303
f 237 303 304
f 237 304 239
f 237 296 295
f 237 295 305
f 237 305 297
f 245 251 317
f 245 317 306
f 245 306 307
f 245 307 308
f 245 308 246
f 246 308 247
f 247 308 310
f 247 310 309
f 248 311 312
f 248 312 249
f 249 312 313
f 249 313 314
f 249 314 315
f 249 315 250
f 250 315 316
f 250 316 251
f 251 316 317
f 252 287 291
f 252 291 288
f 252 288 253
f 257 266 258
f 258 266 318
f 258 318 319
f 258 319 320
f 258 320 259
f 259 320 321
f 259 321 277
f 259 277 272
f 261 322 262
f 262 323 324
f 262 324 325
f 262 325 326
f 262 326 263
f 262 322 323
f 263 326 327
f 263 327 264
f 264 327 328
f 264 328 329
f 264 329 265
f 265 329 318
f 265 318 266
f 267 276 275
f 267 275 330
f 267 330 268
f 268 330 331
f 268 331 269
f 269 332 270
f 269 331 333
f 269 333 332
f 270 332 334
f 270 334 279
f 272 277 273
f 273 277 274
f 275 278 335
f 275 335 330
f 277 336 337
f 277 337 338
f 277 338 339
f 277 339 340
f 277 340 278
f 277 321 319
f 277 319 341
f 277 341 342
f 277 342 336
f 278 340 339
f 278 339 343
f 278 343 335
f 279 334 344
f 279 344 345
f 279 345 280
f 280 345 281
f 281 345 283
f 281 283 282
f 283 345 346
f 283 346 284
f 284 346 347
f 284 347 285
f 285 347 348
f 285 348 349
f 285 349 350
f 285 350 351
f 285 351 352
f 285 352 353
f 285 353 354
f 285 354 287
f 285 287 286
f 287 354 292
f 287 292 291
f 289 292 355
f 289 355 290
f 290 355 356
f 290 356 293
f 292 354 353
f 292 353 355
f 293 357 294
f 293 356 351
f 293 351 350
f 293 350 357
f 294 358 305
f 294 305 295
f 294 357 358
f 297 305 360
f 297 360 359
f 305 358 360
f 306 317 361
f 306 361 307
f 307 361 362
f 307 362 308
f 308 362 363
f 308 363 364
f 308 364 310
f 309 310 365
f 310 364 365
f 311 366 312
f 312 367 313
f 312 366 367
f 313 368 369
f 313 369 370
f 313 370 314
f 313 367 368
f 314 370 316
f 314 316 315
f 316 370 317
f 317 370 371
f 317 371 372
f 317 372 361
f 318 329 319
f 319 373 374
f 319 374 341
f 319 321 320
f 319 329 328
f 319 328 375
f 319 375 376
f 319 376 373
f 323 377 324
f 324 377 378
f 324 378 325
f 325 378 379
f 325 379 326
f 326 379 380
f 326 380 327
f 327 380 381
f 327 381 382
f 327 382 383
f 327 383 328
f 328 383 376
f 328 376 375
f 330 335 333
f 330 333 331
f 332 333 334
f 333 335 384
f 333 384 334
f 334 345 344
f 334 384 385
f 334 385 386
f 334 386 387
f 334 387 345
f 335 343 384
f 336 342 388
f 336 388 389
f 336 389 390
f 336 390 337
f 337 390 391
f 337 391 338
f 338 392 339
f 338 391 392
f 339 392 393
f 339 393 343
f 341 374 342
f 342 394 395
f 342 395 396
f 342 396 388
f 342 374 394
f 343 393 397
f 343 397 398
f 343 398 399
f 343 399 385
f 343 385 400
f 343 400 384
f 345 387 401
f 345 401 402
f 345 402 403
f 345 403 346
f 346 403 349
f 346 349 348
f 346 348 347
f 349 402 404
f 349 404 405
f 349 405 406
f 349 406 407
f 349 407 350
f 349 403 402
f 350 407 357
f 351 356 352
f 352 356 355
f 352 355 353
f 357 407 408
f 357 408 358
f 358 409 360
f 358 408 407
f 358 407 406
f 358 406 409
f 359 360 410
f 360 409 411
f 360 411 412
f 360 412 413
f 360 413 414
f 360 414 415
f 360 415 416
f 360 416 410
f 361 372 362
f 362 372 417
f 362 417 363
f 363 418 419
f 363 419 420
f 363 420 364
f 363 417 418
f 364 420 421
f 364 421 422
f 364 422 365
f 365 422 421
f 365 421 424
f 365 424 423
f 366 425 426
f 366 426 427
f 366 427 428
f 366 428 429
f 366 429 367
f 367 429 368
f 368 430 431
f 368 431 369
f 368 429 430
f 369 431 371
f 369 371 370
f 371 431 432
f 371 432 433
f 371 433 372
f 372 433 417
f 373 376 434
f 373 434 374
f 374 434 394
f 376 435 382
f 376 382 436
f 376 436 437
f 376 437 434
f 376 383 435
f 377 438 378
f 378 438 439
f 378 439 424
f 378 424 379
f 379 424 440
f 379 440 380
f 380 440 441
f 380 441 381
f 381 441 382
f 382 435 383
f 382 441 442
f 382 442 443
f 382 443 444
f 382 444 436
f 384 400 385
f 385 399 445
f 385 445 386
f 386 401 387
f 386 445 404
f 386 404 401
f 388 396 389
f 389 396 446
f 389 446 390
f 390 447 391
f 390 446 447
f 391 447 448
f 391 448 392
f 392 448 449
f 392 449 393
f 393 449 450
f 393 450 397
f 394 451 452
f 394 452 395
f 394 434 451
f 395 452 453
f 395 453 396
f 396 453 454
f 396 454 455
f 396 455 446
f 397 456 398
f 397 450 457
f 397 457 458
f 397 458 459
f 397 459 456
f 398 445 399
f 398 456 460
f 398 460 445
f 401 404 402
f 404 461 405
f 404 445 462
f 404 462 463
f 404 463 464
f 404 464 465
f 404 465 466
f 404 466 461
f 405 461 467
f 405 467 406
f 406 467 409
f 409 467 411
f 411 467 412
f 412 468 469
f 412 469 413
f 412 467 466
f 412 466 468
f 413 469 470
f 413 470 471
f 413 471 415
f 413 415 414
f 417 472 418
f 417 433 472
f 418 473 474
f 418 474 475
f 418 475 419
f 418 472 473
f 419 476 420
f 419 475 477
f 419 477 476
f 420 476 478
f 420 478 421
f 421 478 424
f 423 439 479
f 423 424 439
f 424 478 440
f 425 480 481
f 425 481 426
f 426 481 482
f 426 482 483
f 426 483 484
f 426 484 427
f 427 484 428
f 428 484 485
f 428 485 429
f 429 485 430
f 430 485 431
f 431 485 486
f 431 486 487
f 431 487 488
f 431 488 432
f 432 488 489
f 432 489 433
f 433 490 491
f 433 491 472
f 433 489 490
f 434 437 451
f 436 444 443
f 436 443 492
f 436 492 437
f 437 492 451
f 438 479 439
f 440 478 476
f 440 476 441
f 441 476 477
f 441 477 442
f 442 477 443
f 443 477 493
f 443 493 494
f 443 494 492
f 445 460 459
f 445 459 462
f 446 455 495
f 446 495 496
f 446 496 497
f 446 497 448
f 446 448 447
f 448 497 449
f 449 497 457
f 449 457 450
f 451 492 474
f 451 474 498
f 451 498 499
f 451 499 452
f 452 499 498
f 452 498 500
f 452 500 501
f 452 501 502
f 452 502 453
f 453 502 454
f 454 502 533
f 454 533 503
f 454 503 455
f 455 503 504
f 455 504 505
f 455 505 495
f 456 459 460
f 457 497 506
f 457 506 458
f 458 506 507
f 458 507 459
f 459 507 508
f 459 508 462
f 461 466 467
f 462 508 463
f 463 508 464
f 464 508 509
f 464 509 510
f 464 510 511
f 464 511 465
f 465 511 468
f 465 468 466
f 468 511 469
f 469 511 510
f 469 510 512
f 469 512 513
f 469 513 471
f 469 471 470
f 471 513 514
f 472 515 473
f 472 491 516
f 472 516 515
f 473 517 498
f 473 498 474
f 473 515 517
f 474 492 518
f 474 518 475
f 475 518 493
f 475 493 477
f 480 519 520
f 480 520 521
f 480 521 481
f 481 521 482
f 482 521 522
f 482 522 523
f 482 523 524
f 482 524 483
f 483 524 525
f 483 525 489
f 483 489 488
f 483 488 484
f 484 488 486
f 484 486 485
f 486 488 487
f 489 525 516
f 489 516 491
f 489 491 490
f 492 494 518
f 493 518 494
f 495 505 496
f 496 526 527
f 496 527 528
f 496 528 497
f 496 505 526
f 497 528 506
f 498 517 529
f 498 529 500
f 500 529 530
f 500 530 531
f 500 531 502
f 500 502 501
f 502 532 533
f 502 531 532
f 503 533 534
f 503 534 535
f 503 535 504
f 504 535 536
f 504 536 505
f 505 536 537
f 505 537 538
f 505 538 526
f 506 528 539
f 506 539 540
f 506 540 507
f 507 540 541
f 507 541 508
f 508 541 509
f 509 541 542
f 509 542 512
f 509 512 510
f 512 542 513
f 513 543 544
f 513 544 545
f 513 545 546
f 513 546 547
f 513 547 548
f 513 548 549
f 513 549 514
f 513 542 550
f 513 550 543
f 515 530 529
f 515 529 517
f 515 516 530
f 516 551 530
f 516 525 552
f 516 552 553
f 516 553 532
f 516 532 551
f 519 554 520
f 520 555 534
f 520 534 522
f 520 522 521
f 520 554 556
f 520 556 555
f 522 534 533
f 522 533 553
f 522 553 523
f 523 553 524
f 524 553 552
f 524 552 525
f 526 538 527
f 527 538 557
f 527 557 558
f 527 558 528
f 528 558 543
f 528 543 539
f 530 551 532
f 530 532 531
f 532 553 533
f 534 555 535
f 535 555 559
f 535 559 560
f 535 560 536
f 536 560 538
f 536 538 537
f 538 560 557
f 539 550 540
f 539 543 550
f 540 550 541
f 541 550 542
f 543 558 561
f 543 561 562
f 543 562 563
f 543 563 564
f 543 564 565
f 543 565 566
f 543 566 567
f 543 567 568
f 543 568 569
f 543 569 544
f 555 556 570
f 555 570 571
f 555 571 559
f 556 572 570
f 557 560 571
f 557 571 558
f 558 573 574
f 558 574 575
f 558 575 576
f 558 576 577
f 558 577 561
f 558 571 573
f 559 571 560
f 570 572 571
f 571 572 573

