# https://github.com/mikedh/trimesh
v -0.00060512 0.03145312 -0.04161028 0.08627451 0.01960784 0.83137255
v -0.00060512 0.03141896 -0.04281548 0.08627451 0.01960784 0.83137255
v -0.00180939 0.03142207 -0.04161028 0.08627451 0.01960784 0.83137255
v -0.00180939 0.03138170 -0.04090275 0.08627451 0.01960784 0.83137255
v -0.00060512 0.03139723 -0.04086677 0.08627451 0.01960784 0.83137255
v 0.00011876 0.03138480 -0.04092673 0.08627451 0.01960784 0.83137255
v 0.00027670 0.03140344 -0.04161028 0.08627451 0.01960784 0.83137255
v 0.00022076 0.03138791 -0.04281548 0.08627451 0.01960784 0.83137255
v -0.00060512 0.03136307 -0.04346905 0.08627451 0.01960784 0.83137255
v -0.00124345 0.03135996 -0.04345106 0.08627451 0.01960784 0.83137255
v -0.00171068 0.03139101 -0.04275552 0.08627451 0.01960784 0.83137255
v 0.00004637 0.03136307 -0.04345406 0.08627451 0.01960784 0.83137255
v -0.00251023 0.03137238 -0.04231181 0.08627451 0.01960784 0.83137255
v -0.00253985 0.03137238 -0.04161028 0.08627451 0.01960784 0.83137255
v -0.00248391 0.03136307 -0.04097470 0.08627451 0.01960784 0.83137255
v -0.00122700 0.02894711 -0.03031974 0.08627451 0.01960784 0.83137255
v 0.00003321 0.02895021 -0.03031974 0.08627451 0.01960784 0.83137255
v -0.00093086 0.02895021 -0.03031974 0.08627451 0.01960784 0.83137255
v 0.00087883 0.03129165 -0.04161028 0.08627451 0.01960784 0.83137255
v 0.00224762 0.02882600 -0.03031974 0.08627451 0.01960784 0.83137255
v 0.00224762 0.03079789 -0.04040507 0.08627451 0.01960784 0.83137255
v 0.00224762 0.03102769 -0.04161028 0.08627451 0.01960784 0.83137255
v 0.00224762 0.03107737 -0.04281548 0.08627451 0.01960784 0.83137255
v 0.00180671 0.03115191 -0.04281548 0.08627451 0.01960784 0.83137255
v 0.00082618 0.03130096 -0.04281548 0.08627451 0.01960784 0.83137255
v 0.00180671 0.02955265 -0.05608171 0.08627451 0.01960784 0.83137255
v -0.00180939 0.02946570 -0.05608171 0.08627451 0.01960784 0.83137255
v -0.00301695 0.02935080 -0.05608171 0.08627451 0.01960784 0.83137255
v -0.00060512 0.02951539 -0.05608171 0.08627451 0.01960784 0.83137255
v 0.00224762 0.03105564 -0.04325619 0.08627451 0.01960784 0.83137255
v 0.00224762 0.03099043 -0.04402368 0.08627451 0.01960784 0.83137255
v 0.00224762 0.03094384 -0.04446139 0.08627451 0.01960784 0.83137255
v 0.00224762 0.02972034 -0.05487351 0.08627451 0.01960784 0.83137255
v -0.00422122 0.02919864 -0.05608171 0.08627451 0.01960784 0.83137255
v -0.00499445 0.02897816 -0.05681922 0.08627451 0.01960784 0.83137255
v -0.00540904 0.02901543 -0.05599177 0.08627451 0.01960784 0.83137255
v -0.00580059 0.02889742 -0.05633355 0.08627451 0.01960784 0.83137255
v -0.00295443 0.03122954 -0.04275552 0.08627451 0.01960784 0.83137255
v -0.00422122 0.03097490 -0.04281548 0.08627451 0.01960784 0.83137255
v -0.00422122 0.03112085 -0.04161028 0.08627451 0.01960784 0.83137255
v -0.00314198 0.03129165 -0.04161028 0.08627451 0.01960784 0.83137255
v -0.00422122 0.03099043 -0.04040507 0.08627451 0.01960784 0.83137255
v -0.00663634 0.02817077 -0.03031974 0.08627451 0.01960784 0.83137255
v 0.00224762 0.03104943 -0.04204799 0.08627451 0.01960784 0.83137255
v 0.00224762 -0.00027108 -0.03031974 0.08627451 0.01960784 0.83137255
v 0.00224762 0.02954023 -0.05608171 0.08627451 0.01960784 0.83137255
v 0.00180671 0.02918932 -0.05721196 0.08627451 0.01960784 0.83137255
v 0.00060244 0.02918001 -0.05723894 0.08627451 0.01960784 0.83137255
v -0.00180939 0.02916448 -0.05721796 0.08627451 0.01960784 0.83137255
v -0.00301695 0.02911480 -0.05720597 0.08627451 0.01960784 0.83137255
v -0.00422122 0.02903716 -0.05702909 0.08627451 0.01960784 0.83137255
v -0.00422122 0.02886016 -0.05763469 0.08627451 0.01960784 0.83137255
v -0.00540904 0.02874216 -0.05724794 0.08627451 0.01960784 0.83137255
v -0.00904817 0.02794408 -0.05712802 0.08627451 0.01960784 0.83137255
v -0.00988721 0.02782297 -0.05687918 0.08627451 0.01960784 0.83137255
v -0.00784061 0.02850615 -0.05608171 0.08627451 0.01960784 0.83137255
v -0.00606711 0.02895021 -0.05553008 0.08627451 0.01960784 0.83137255
v -0.00653434 0.02879495 -0.05599177 0.08627451 0.01960784 0.83137255
v -0.00904817 0.02821114 -0.05608171 0.08627451 0.01960784 0.83137255
v -0.00542878 0.03081342 -0.04161028 0.08627451 0.01960784 0.83137255
v -0.00542878 0.03074200 -0.04040507 0.08627451 0.01960784 0.83137255
v -0.00708712 0.02808382 -0.03031974 0.08627451 0.01960784 0.83137255
v 0.00224762 -0.00027108 -0.05443880 0.08627451 0.01960784 0.83137255
v -0.02915224 -0.00027108 -0.03031974 0.08627451 0.01960784 0.83137255
v 0.00224762 0.02918312 -0.05718498 0.08627451 0.01960784 0.83137255
v 0.00180671 0.02890053 -0.05781457 0.08627451 0.01960784 0.83137255
v 0.00060244 0.02892226 -0.05784155 0.08627451 0.01960784 0.83137255
v -0.00301695 0.02890984 -0.05780857 0.08627451 0.01960784 0.83137255
v -0.00422122 0.02825772 -0.05841117 0.08627451 0.01960784 0.83137255
v -0.00542878 0.02812109 -0.05831523 0.08627451 0.01960784 0.83137255
v -0.00843287 0.02773603 -0.05788352 0.08627451 0.01960784 0.83137255
v -0.00904817 0.02765529 -0.05773062 0.08627451 0.01960784 0.83137255
v -0.01027547 0.02746275 -0.05728392 0.08627451 0.01960784 0.83137255
v -0.01266427 0.02670816 -0.05699611 0.08627451 0.01960784 0.83137255
v -0.01334208 0.02656841 -0.05675926 0.08627451 0.01960784 0.83137255
v -0.01072954 0.02769255 -0.05608171 0.08627451 0.01960784 0.83137255
v -0.01012741 0.02789440 -0.05608171 0.08627451 0.01960784 0.83137255
v -0.00723847 0.03014888 -0.04221588 0.08627451 0.01960784 0.83137255
v -0.00674821 0.03033520 -0.04171521 0.08627451 0.01960784 0.83137255
v -0.00650143 0.03036004 -0.04040507 0.08627451 0.01960784 0.83137255
v -0.01025244 0.02721433 -0.03031974 0.08627451 0.01960784 0.83137255
v -0.00955159 0.02745033 -0.03031974 0.08627451 0.01960784 0.83137255
v -0.00853158 0.02776397 -0.03031974 0.08627451 0.01960784 0.83137255
v -0.00817623 0.02785403 -0.03031974 0.08627451 0.01960784 0.83137255
v -0.00787351 0.02791924 -0.03031974 0.08627451 0.01960784 0.83137255
v 0.00224762 0.00743639 -0.05748179 0.08627451 0.01960784 0.83137255
v -0.01146000 -0.00027108 -0.05863003 0.08627451 0.01960784 0.83137255
v -0.02912591 0.00060463 -0.03031974 0.08627451 0.01960784 0.83137255
v -0.03088954 0.00422236 -0.04040507 0.08627451 0.01960784 0.83137255
v -0.03088954 0.00301748 -0.04040507 0.08627451 0.01960784 0.83137255
v -0.03087638 0.00180950 -0.04040507 0.08627451 0.01960784 0.83137255
v -0.03083361 -0.00027108 -0.04040507 0.08627451 0.01960784 0.83137255
v 0.00224762 0.02888500 -0.05778758 0.08627451 0.01960784 0.83137255
v 0.00224762 0.02869247 -0.05806040 0.08627451 0.01960784 0.83137255
v 0.00224762 0.02838194 -0.05849212 0.08627451 0.01960784 0.83137255
v 0.00180671 0.02841299 -0.05849212 0.08627451 0.01960784 0.83137255
v 0.00060244 0.02845336 -0.05849212 0.08627451 0.01960784 0.83137255
v 0.00060244 0.02787266 -0.05922363 0.08627451 0.01960784 0.83137255
v -0.00060512 0.02784782 -0.05920864 0.08627451 0.01960784 0.83137255
v -0.00422122 0.02763976 -0.05901377 0.08627451 0.01960784 0.83137255
v -0.00542878 0.02754970 -0.05891784 0.08627451 0.01960784 0.83137255
v -0.00851842 0.02655910 -0.05912470 0.08627451 0.01960784 0.83137255
v -0.00897249 0.02696279 -0.05854308 0.08627451 0.01960784 0.83137255
v -0.01025244 0.02683547 -0.05818332 0.08627451 0.01960784 0.83137255
v -0.01387183 0.02553433 -0.05811437 0.08627451 0.01960784 0.83137255
v -0.01194368 0.02648768 -0.05782956 0.08627451 0.01960784 0.83137255
v -0.01266427 0.02636346 -0.05759871 0.08627451 0.01960784 0.83137255
v -0.01458255 0.02538528 -0.05795247 0.08627451 0.01960784 0.83137255
v -0.01342434 0.02661499 -0.05608171 0.08627451 0.01960784 0.83137255
v -0.01266427 0.02694416 -0.05608171 0.08627451 0.01960784 0.83137255
v -0.01146000 0.02741928 -0.05608171 0.08627451 0.01960784 0.83137255
v -0.01481945 0.02553433 -0.05728691 0.08627451 0.01960784 0.83137255
v -0.01542159 0.02517101 -0.05728691 0.08627451 0.01960784 0.83137255
v -0.01502016 0.02567718 -0.05608171 0.08627451 0.01960784 0.83137255
v -0.01402648 0.02628272 -0.05608171 0.08627451 0.01960784 0.83137255
v -0.00904817 0.02937565 -0.04161028 0.08627451 0.01960784 0.83137255
v -0.00772216 0.02994392 -0.04171521 0.08627451 0.01960784 0.83137255
v -0.00723847 0.03014888 -0.04218590 0.08627451 0.01960784 0.83137255
v -0.00722202 0.03014267 -0.04138243 0.08627451 0.01960784 0.83137255
v -0.00976547 0.02899990 -0.04062393 0.08627451 0.01960784 0.83137255
v -0.00916333 0.02922348 -0.04029415 0.08627451 0.01960784 0.83137255
v -0.01180220 0.02660568 -0.03031974 0.08627451 0.01960784 0.83137255
v -0.01141723 0.02676405 -0.03031974 0.08627451 0.01960784 0.83137255
v 0.00224762 0.00789598 -0.05764668 0.08627451 0.01960784 0.83137255
v -0.01257214 -0.00027108 -0.05895081 0.08627451 0.01960784 0.83137255
v -0.02903708 0.00180950 -0.03031974 0.08627451 0.01960784 0.83137255
v -0.03083032 0.00543033 -0.04040507 0.08627451 0.01960784 0.83137255
v -0.03109026 0.00422236 -0.04161028 0.08627451 0.01960784 0.83137255
v -0.03108368 0.00301748 -0.04161028 0.08627451 0.01960784 0.83137255
v -0.03095206 -0.00027108 -0.04127750 0.08627451 0.01960784 0.83137255
v 0.00224762 0.02819562 -0.05873496 0.08627451 0.01960784 0.83137255
v 0.00180671 0.02785403 -0.05920265 0.08627451 0.01960784 0.83137255
v 0.00060244 0.02713359 -0.05975428 0.08627451 0.01960784 0.83137255
v -0.00060512 0.02713359 -0.05973030 0.08627451 0.01960784 0.83137255
v -0.00180939 0.02713359 -0.05961637 0.08627451 0.01960784 0.83137255
v -0.00542878 0.02694416 -0.05940052 0.08627451 0.01960784 0.83137255
v -0.00663634 0.02679510 -0.05930458 0.08627451 0.01960784 0.83137255
v -0.00784061 0.02664294 -0.05919365 0.08627451 0.01960784 0.83137255
v -0.00784061 0.02592871 -0.05961937 0.08627451 0.01960784 0.83137255
v -0.00897249 0.02595977 -0.05937353 0.08627451 0.01960784 0.83137255
v -0.01153239 0.02482321 -0.05946947 0.08627451 0.01960784 0.83137255
v -0.01198317 0.02529522 -0.05907073 0.08627451 0.01960784 0.83137255
v -0.01266427 0.02576103 -0.05834821 0.08627451 0.01960784 0.83137255
v -0.01266427 0.02513064 -0.05895381 0.08627451 0.01960784 0.83137255
v -0.01391131 0.02470521 -0.05875894 0.08627451 0.01960784 0.83137255
v -0.01502016 0.02473937 -0.05826727 0.08627451 0.01960784 0.83137255
v -0.01603688 0.02434809 -0.05810837 0.08627451 0.01960784 0.83137255
v -0.01683973 0.02408724 -0.05779958 0.08627451 0.01960784 0.83137255
v -0.01283537 0.02751244 -0.04281548 0.08627451 0.01960784 0.83137255
v -0.01223323 0.02782608 -0.04281548 0.08627451 0.01960784 0.83137255
v -0.01146000 0.02821114 -0.04281548 0.08627451 0.01960784 0.83137255
v -0.01034786 0.02872663 -0.04281548 0.08627451 0.01960784 0.83137255
v -0.01387183 0.02694416 -0.04281548 0.08627451 0.01960784 0.83137255
v -0.01562559 0.02529212 -0.05608171 0.08627451 0.01960784 0.83137255
v -0.01637579 0.02452820 -0.05735287 0.08627451 0.01960784 0.83137255
v -0.01699109 0.02420214 -0.05699311 0.08627451 0.01960784 0.83137255
v -0.01616850 0.02563681 -0.04161028 0.08627451 0.01960784 0.83137255
v -0.01518139 0.02624235 -0.04161028 0.08627451 0.01960784 0.83137255
v -0.01457926 0.02659326 -0.04161028 0.08627451 0.01960784 0.83137255
v -0.00982140 0.02902474 -0.04161028 0.08627451 0.01960784 0.83137255
v -0.00964372 0.02894090 -0.03982046 0.08627451 0.01960784 0.83137255
v -0.01042683 0.02873905 -0.04161028 0.08627451 0.01960784 0.83137255
v -0.01146000 0.02824219 -0.04161028 0.08627451 0.01960784 0.83137255
v -0.01220362 0.02780745 -0.04040507 0.08627451 0.01960784 0.83137255
v -0.01211478 0.02776087 -0.03972153 0.08627451 0.01960784 0.83137255
v -0.01201936 0.02651252 -0.03031974 0.08627451 0.01960784 0.83137255
v 0.00224762 0.00852015 -0.05782356 0.08627451 0.01960784 0.83137255
v -0.01317427 -0.00027108 -0.05912170 0.08627451 0.01960784 0.83137255
v -0.02901075 0.00208588 -0.03031974 0.08627451 0.01960784 0.83137255
v -0.03066909 0.00663521 -0.04040507 0.08627451 0.01960784 0.83137255
v -0.03100800 0.00543033 -0.04161028 0.08627451 0.01960784 0.83137255
v -0.02892520 0.00297090 -0.03031974 0.08627451 0.01960784 0.83137255
v -0.02889888 0.00318828 -0.03031974 0.08627451 0.01960784 0.83137255
v -0.03113961 0.00422236 -0.04281548 0.08627451 0.01960784 0.83137255
v -0.03132387 0.00060463 -0.04522889 0.08627451 0.01960784 0.83137255
v -0.03130742 -0.00027108 -0.04489611 0.08627451 0.01960784 0.83137255
v -0.03125148 -0.00027108 -0.04402368 0.08627451 0.01960784 0.83137255
v -0.03121858 -0.00027108 -0.04369090 0.08627451 0.01960784 0.83137255
v -0.03109355 -0.00027108 -0.04248570 0.08627451 0.01960784 0.83137255
v -0.03099484 -0.00027108 -0.04161028 0.08627451 0.01960784 0.83137255
v 0.00224762 0.02783850 -0.05918766 0.08627451 0.01960784 0.83137255
v 0.00180671 0.02713359 -0.05971231 0.08627451 0.01960784 0.83137255
v 0.00060244 0.02634793 -0.06022797 0.08627451 0.01960784 0.83137255
v -0.00060512 0.02633551 -0.06022197 0.08627451 0.01960784 0.83137255
v -0.00180939 0.02622683 -0.06017401 0.08627451 0.01960784 0.83137255
v -0.00542878 0.02592871 -0.05996414 0.08627451 0.01960784 0.83137255
v -0.00663634 0.02592871 -0.05979626 0.08627451 0.01960784 0.83137255
v -0.01025244 0.02472384 -0.05977527 0.08627451 0.01960784 0.83137255
v -0.01266427 0.02351586 -0.05984722 0.08627451 0.01960784 0.83137255
v -0.01266427 0.02452820 -0.05935255 0.08627451 0.01960784 0.83137255
v -0.01353950 0.02429220 -0.05920564 0.08627451 0.01960784 0.83137255
v -0.01507281 0.02377982 -0.05891784 0.08627451 0.01960784 0.83137255
v -0.01629682 0.02352828 -0.05854308 0.08627451 0.01960784 0.83137255
v -0.01750767 0.02230167 -0.05876194 0.08627451 0.01960784 0.83137255
v -0.01748464 0.02321464 -0.05812936 0.08627451 0.01960784 0.83137255
v -0.01811968 0.02294758 -0.05792249 0.08627451 0.01960784 0.83137255
v -0.01742870 0.02372081 -0.05735287 0.08627451 0.01960784 0.83137255
v -0.01387183 0.02698764 -0.04161028 0.08627451 0.01960784 0.83137255
v -0.01286827 0.02753107 -0.04161028 0.08627451 0.01960784 0.83137255
v -0.01226614 0.02784161 -0.04161028 0.08627451 0.01960784 0.83137255
v -0.01628037 0.02481079 -0.05608171 0.08627451 0.01960784 0.83137255
v -0.01825787 0.02424251 -0.04161028 0.08627451 0.01960784 0.83137255
v -0.01748464 0.02477042 -0.04161028 0.08627451 0.01960784 0.83137255
v -0.01677063 0.02525175 -0.04161028 0.08627451 0.01960784 0.83137255
v -0.01764258 0.02373013 -0.05608171 0.08627451 0.01960784 0.83137255
v -0.01704044 0.02424251 -0.05608171 0.08627451 0.01960784 0.83137255
v -0.01821510 0.02304385 -0.05728691 0.08627451 0.01960784 0.83137255
v -0.02280514 0.01920254 -0.05608171 0.08627451 0.01960784 0.83137255
v -0.01617179 0.02563992 -0.04040507 0.08627451 0.01960784 0.83137255
v -0.01516494 0.02624235 -0.04040507 0.08627451 0.01960784 0.83137255
v -0.01456280 0.02658394 -0.04040507 0.08627451 0.01960784 0.83137255
v -0.01280576 0.02750933 -0.04040507 0.08627451 0.01960784 0.83137255
v -0.01452332 0.02655910 -0.03966756 0.08627451 0.01960784 0.83137255
v -0.01225627 0.02639452 -0.03031974 0.08627451 0.01960784 0.83137255
v 0.00224762 0.00862573 -0.05785054 0.08627451 0.01960784 0.83137255
v -0.01387183 -0.00027108 -0.05926261 0.08627451 0.01960784 0.83137255
v 0.00224762 0.02110301 -0.06075262 0.08627451 0.01960784 0.83137255
v -0.03031702 0.00785561 -0.04052200 0.08627451 0.01960784 0.83137255
v -0.03082374 0.00663521 -0.04161028 0.08627451 0.01960784 0.83137255
v -0.02884623 0.00356713 -0.03031974 0.08627451 0.01960784 0.83137255
v -0.02875410 0.00422236 -0.03031974 0.08627451 0.01960784 0.83137255
v -0.02854023 0.00543033 -0.03031974 0.08627451 0.01960784 0.83137255
v -0.02826384 0.00663521 -0.03031974 0.08627451 0.01960784 0.83137255
v -0.02813881 0.00708859 -0.03031974 0.08627451 0.01960784 0.83137255
v -0.02784597 0.00814751 -0.03031974 0.08627451 0.01960784 0.83137255
v -0.02775055 0.00847978 -0.03031974 0.08627451 0.01960784 0.83137255
v -0.03101129 0.00543033 -0.04281548 0.08627451 0.01960784 0.83137255
v -0.03121529 0.00301748 -0.04643109 0.08627451 0.01960784 0.83137255
v -0.03132387 0.00180950 -0.04643109 0.08627451 0.01960784 0.83137255
v -0.03129426 0.00180950 -0.04522889 0.08627451 0.01960784 0.83137255
v -0.03135349 0.00070090 -0.04633515 0.08627451 0.01960784 0.83137255
v -0.03135349 -0.00027108 -0.04610131 0.08627451 0.01960784 0.83137255
v -0.03132716 -0.00027108 -0.04522889 0.08627451 0.01960784 0.83137255
v 0.00224762 0.02713359 -0.05967933 0.08627451 0.01960784 0.83137255
v 0.00180671 0.02627341 -0.06020698 0.08627451 0.01960784 0.83137255
v 0.00060244 0.02574550 -0.06045282 0.08627451 0.01960784 0.83137255
v -0.00060512 0.02573308 -0.06046181 0.08627451 0.01960784 0.83137255
v -0.00180939 0.02562439 -0.06041685 0.08627451 0.01960784 0.83137255
v -0.00481019 0.02532007 -0.06029992 0.08627451 0.01960784 0.83137255
v -0.00904817 0.02472384 -0.05994915 0.08627451 0.01960784 0.83137255
v -0.01136787 0.02340717 -0.06012304 0.08627451 0.01960784 0.83137255
v -0.01417125 0.02150360 -0.06026694 0.08627451 0.01960784 0.83137255
v -0.01507281 0.02231099 -0.05968233 0.08627451 0.01960784 0.83137255
v -0.01620798 0.02230167 -0.05930458 0.08627451 0.01960784 0.83137255
v -0.01656005 0.02269605 -0.05898079 0.08627451 0.01960784 0.83137255
v -0.01792555 0.02158123 -0.05902577 0.08627451 0.01960784 0.83137255
v -0.02294334 0.01690769 -0.05910971 0.08627451 0.01960784 0.83137255
v -0.02303876 0.01820883 -0.05800644 0.08627451 0.01960784 0.83137255
v -0.02321644 0.01840757 -0.05728691 0.08627451 0.01960784 0.83137255
v -0.01387183 0.02695658 -0.04040507 0.08627451 0.01960784 0.83137255
v -0.01824471 0.02423630 -0.04040507 0.08627451 0.01960784 0.83137255
v -0.01748464 0.02476732 -0.04040507 0.08627451 0.01960784 0.83137255
v -0.01677392 0.02525485 -0.04040507 0.08627451 0.01960784 0.83137255
v -0.01886001 0.02378603 -0.04161028 0.08627451 0.01960784 0.83137255
v -0.02023867 0.02269916 -0.04161028 0.08627451 0.01960784 0.83137255
v -0.02088358 0.02203772 -0.04281548 0.08627451 0.01960784 0.83137255
v -0.01963324 0.02318359 -0.04161028 0.08627451 0.01960784 0.83137255
v -0.02337766 0.01860010 -0.05608171 0.08627451 0.01960784 0.83137255
v -0.02342702 0.01864047 -0.05487351 0.08627451 0.01960784 0.83137255
v -0.02285121 0.01924291 -0.05487351 0.08627451 0.01960784 0.83137255
v -0.02148900 0.02148497 -0.04281548 0.08627451 0.01960784 0.83137255
v -0.01606979 0.02557470 -0.03919987 0.08627451 0.01960784 0.83137255
v -0.01370073 0.02559955 -0.03031974 0.08627451 0.01960784 0.83137255
v -0.01266427 0.02618335 -0.03031974 0.08627451 0.01960784 0.83137255
v -0.01507281 -0.00027108 -0.05948446 0.08627451 0.01960784 0.83137255
v 0.00224762 0.02187313 -0.06084856 0.08627451 0.01960784 0.83137255
v -0.01540514 -0.00027108 -0.05954442 0.08627451 0.01960784 0.83137255
v -0.01969576 -0.00027108 -0.06029093 0.08627451 0.01960784 0.83137255
v -0.02013337 -0.00027108 -0.06036588 0.08627451 0.01960784 0.83137255
v -0.02039331 -0.00027108 -0.06040785 0.08627451 0.01960784 0.83137255
v -0.02110403 -0.00027108 -0.06051878 0.08627451 0.01960784 0.83137255
v -0.02231159 -0.00027108 -0.06067168 0.08627451 0.01960784 0.83137255
v -0.03008341 0.00826862 -0.04020121 0.08627451 0.01960784 0.83137255
v -0.03014921 0.00844562 -0.04100468 0.08627451 0.01960784 0.83137255
v -0.03037296 0.00794877 -0.04150235 0.08627451 0.01960784 0.83137255
v -0.02763538 0.00879342 -0.03031974 0.08627451 0.01960784 0.83137255
v -0.02707931 0.01025293 -0.03031974 0.08627451 0.01960784 0.83137255
v -0.03076451 0.00663521 -0.04281548 0.08627451 0.01960784 0.83137255
v -0.03038283 0.00773761 -0.04281548 0.08627451 0.01960784 0.83137255
v -0.03094548 0.00422236 -0.04763929 0.08627451 0.01960784 0.83137255
v -0.03101787 0.00422236 -0.04643109 0.08627451 0.01960784 0.83137255
v -0.03116265 0.00301748 -0.04763929 0.08627451 0.01960784 0.83137255
v -0.03129097 0.00180950 -0.04763929 0.08627451 0.01960784 0.83137255
v -0.03134361 0.00070090 -0.04775322 0.08627451 0.01960784 0.83137255
v -0.03136336 0.00036552 -0.04742943 0.08627451 0.01960784 0.83137255
v -0.03136336 0.00036552 -0.04667093 0.08627451 0.01960784 0.83137255
v -0.03136665 -0.00027108 -0.04664095 0.08627451 0.01960784 0.83137255
v 0.00224762 0.02624235 -0.06018899 0.08627451 0.01960784 0.83137255
v 0.00224762 0.02602498 -0.06027594 0.08627451 0.01960784 0.83137255
v 0.00060244 0.02472384 -0.06073464 0.08627451 0.01960784 0.83137255
v -0.00060512 0.02472384 -0.06074963 0.08627451 0.01960784 0.83137255
v 0.00224762 0.02563992 -0.06040485 0.08627451 0.01960784 0.83137255
v -0.00180939 0.02472384 -0.06068367 0.08627451 0.01960784 0.83137255
v -0.00301695 0.02472384 -0.06059673 0.08627451 0.01960784 0.83137255
v -0.00433309 0.02484184 -0.06046181 0.08627451 0.01960784 0.83137255
v -0.01090393 0.02292895 -0.06030592 0.08627451 0.01960784 0.83137255
v -0.01170678 0.02275505 -0.06026994 0.08627451 0.01960784 0.83137255
v -0.01025244 0.02362455 -0.06018600 0.08627451 0.01960784 0.83137255
v -0.01266427 0.02251905 -0.06019199 0.08627451 0.01960784 0.83137255
v -0.01380931 0.02110301 -0.06036588 0.08627451 0.01960784 0.83137255
v -0.01469771 0.02069931 -0.06033290 0.08627451 0.01960784 0.83137255
v -0.01550385 0.02031736 -0.06027594 0.08627451 0.01960784 0.83137255
v -0.01508926 0.02110301 -0.06016801 0.08627451 0.01960784 0.83137255
v -0.01336512 0.02174271 -0.06031191 0.08627451 0.01960784 0.83137255
v -0.01628037 0.02110301 -0.05979626 0.08627451 0.01960784 0.83137255
v -0.01712270 0.02189177 -0.05917866 0.08627451 0.01960784 0.83137255
v -0.01750767 0.02114959 -0.05935854 0.08627451 0.01960784 0.83137255
v -0.01833026 0.02077695 -0.05921464 0.08627451 0.01960784 0.83137255
v -0.02370670 0.01628041 -0.05874095 0.08627451 0.01960784 0.83137255
v -0.02414103 0.01692011 -0.05793149 0.08627451 0.01960784 0.83137255
v -0.02339083 0.01731759 -0.05837220 0.08627451 0.01960784 0.83137255
v -0.01869220 0.01869326 -0.05982923 0.08627451 0.01960784 0.83137255
v -0.02110403 0.01628041 -0.05977227 0.08627451 0.01960784 0.83137255
v -0.02689177 0.00663521 -0.06042884 0.08627451 0.01960784 0.83137255
v -0.02773739 0.00602656 -0.06029992 0.08627451 0.01960784 0.83137255
v -0.02381857 0.01768713 -0.05728691 0.08627451 0.01960784 0.83137255
v -0.02398309 0.01789208 -0.05608171 0.08627451 0.01960784 0.83137255
v -0.01817232 0.02418351 -0.03955364 0.08627451 0.01960784 0.83137255
v -0.01884685 0.02377360 -0.04040507 0.08627451 0.01960784 0.83137255
v -0.01667521 0.02518343 -0.03919987 0.08627451 0.01960784 0.83137255
v -0.02022221 0.02266500 -0.04040507 0.08627451 0.01960784 0.83137255
v -0.01962008 0.02317117 -0.04040507 0.08627451 0.01960784 0.83137255
v -0.02092635 0.02209672 -0.04161028 0.08627451 0.01960784 0.83137255
v -0.02403245 0.01796350 -0.05487351 0.08627451 0.01960784 0.83137255
v -0.02208456 0.02092290 -0.04161028 0.08627451 0.01960784 0.83137255
v -0.02153178 0.02152533 -0.04161028 0.08627451 0.01960784 0.83137255
v -0.01408570 0.02535423 -0.03031974 0.08627451 0.01960784 0.83137255
v 0.00224762 0.02231099 -0.06089952 0.08627451 0.01960784 0.83137255
v -0.02264392 -0.00027108 -0.06069266 0.08627451 0.01960784 0.83137255
v -0.02982676 0.00892695 -0.04052200 0.08627451 0.01960784 0.83137255
v -0.02668776 0.01118454 -0.03031974 0.08627451 0.01960784 0.83137255
v -0.02650679 0.01157271 -0.03031974 0.08627451 0.01960784 0.83137255
v -0.02599350 0.01266579 -0.03031974 0.08627451 0.01960784 0.83137255
v -0.03014921 0.00844562 -0.04102567 0.08627451 0.01960784 0.83137255
v -0.02919172 0.01007282 -0.04040507 0.08627451 0.01960784 0.83137255
v -0.02987612 0.00892695 -0.04150235 0.08627451 0.01960784 0.83137255
v -0.03013934 0.00842078 -0.04182913 0.08627451 0.01960784 0.83137255
v -0.03074477 0.00543033 -0.04643109 0.08627451 0.01960784 0.83137255
v -0.03029070 0.00640231 -0.04763929 0.08627451 0.01960784 0.83137255
v -0.03062632 0.00543033 -0.04763929 0.08627451 0.01960784 0.83137255
v -0.02899759 0.00738360 -0.05582088 0.08627451 0.01960784 0.83137255
v -0.03009986 0.00834004 -0.04281548 0.08627451 0.01960784 0.83137255
v -0.02656602 0.01333654 -0.05608171 0.08627451 0.01960784 0.83137255
v -0.02686544 0.01266579 -0.05608171 0.08627451 0.01960784 0.83137255
v -0.02736887 0.01145781 -0.05608171 0.08627451 0.01960784 0.83137255
v -0.03104748 0.00301748 -0.04884450 0.08627451 0.01960784 0.83137255
v -0.03079412 0.00422236 -0.04884450 0.08627451 0.01960784 0.83137255
v -0.03119555 0.00180950 -0.04884450 0.08627451 0.01960784 0.83137255
v -0.03134691 -0.00027108 -0.04794209 0.08627451 0.01960784 0.83137255
v -0.03135349 -0.00027108 -0.04780718 0.08627451 0.01960784 0.83137255
v -0.03126136 0.00060463 -0.04884450 0.08627451 0.01960784 0.83137255
v -0.03136665 -0.00027108 -0.04741144 0.08627451 0.01960784 0.83137255
v 0.00060244 0.02351586 -0.06090552 0.08627451 0.01960784 0.83137255
v 0.00224762 0.02532628 -0.06048880 0.08627451 0.01960784 0.83137255
v 0.00224762 0.02472384 -0.06064769 0.08627451 0.01960784 0.83137255
v 0.00224762 0.02428288 -0.06072265 0.08627451 0.01960784 0.83137255
v 0.00224762 0.02351586 -0.06085155 0.08627451 0.01960784 0.83137255
v -0.00060512 0.02351586 -0.06091752 0.08627451 0.01960784 0.83137255
v -0.00180939 0.02351586 -0.06089053 0.08627451 0.01960784 0.83137255
v -0.00301695 0.02351586 -0.06083057 0.08627451 0.01960784 0.83137255
v -0.00422122 0.02351586 -0.06073763 0.08627451 0.01960784 0.83137255
v -0.01136787 0.02233583 -0.06037787 0.08627451 0.01960784 0.83137255
v -0.01266427 0.02191661 -0.06034189 0.08627451 0.01960784 0.83137255
v -0.01387183 0.01989813 -0.06049779 0.08627451 0.01960784 0.83137255
v -0.01266427 0.02110301 -0.06045881 0.08627451 0.01960784 0.83137255
v -0.01508926 0.01990745 -0.06038087 0.08627451 0.01960784 0.83137255
v -0.02592769 0.00543033 -0.06082457 0.08627451 0.01960784 0.83137255
v -0.02055454 0.01454763 -0.06031491 0.08627451 0.01960784 0.83137255
v -0.02016628 0.01535191 -0.06023097 0.08627451 0.01960784 0.83137255
v -0.02431542 0.01628041 -0.05813835 0.08627451 0.01960784 0.83137255
v -0.02538149 0.01457868 -0.05796447 0.08627451 0.01960784 0.83137255
v -0.02551311 0.01482090 -0.05728691 0.08627451 0.01960784 0.83137255
v -0.02518407 0.01542333 -0.05728691 0.08627451 0.01960784 0.83137255
v -0.02471026 0.01628041 -0.05728691 0.08627451 0.01960784 0.83137255
v -0.02424632 0.01708159 -0.05728691 0.08627451 0.01960784 0.83137255
v -0.02725370 0.00554523 -0.06051578 0.08627451 0.01960784 0.83137255
v -0.02779332 0.00522228 -0.06034490 0.08627451 0.01960784 0.83137255
v -0.02895811 0.00489311 -0.05911870 0.08627451 0.01960784 0.83137255
v -0.02884294 0.00569739 -0.05879192 0.08627451 0.01960784 0.83137255
v -0.02675028 0.01145781 -0.05818632 0.08627451 0.01960784 0.83137255
v -0.02658247 0.01217204 -0.05796447 0.08627451 0.01960784 0.83137255
v -0.02437793 0.01728965 -0.05608171 0.08627451 0.01960784 0.83137255
v -0.01931737 0.02172408 -0.03031974 0.08627451 0.01960784 0.83137255
v -0.01430287 0.02520827 -0.03031974 0.08627451 0.01960784 0.83137255
v -0.02058415 0.02058442 -0.03031974 0.08627451 0.01960784 0.83137255
v -0.01988002 0.02122412 -0.03031974 0.08627451 0.01960784 0.83137255
v -0.01965627 0.02142596 -0.03031974 0.08627451 0.01960784 0.83137255
v -0.02086712 0.02206256 -0.04040507 0.08627451 0.01960784 0.83137255
v -0.02377580 0.01880195 -0.04161028 0.08627451 0.01960784 0.83137255
v -0.02317366 0.01962486 -0.04161028 0.08627451 0.01960784 0.83137255
v -0.02268669 0.02022730 -0.04161028 0.08627451 0.01960784 0.83137255
v -0.02442400 0.01735796 -0.05487351 0.08627451 0.01960784 0.83137255
v -0.02421671 0.01823056 -0.04040507 0.08627451 0.01960784 0.83137255
v -0.02266366 0.02023041 -0.04040507 0.08627451 0.01960784 0.83137255
v -0.02146926 0.02146633 -0.04040507 0.08627451 0.01960784 0.83137255
v -0.02205823 0.02086079 -0.04040507 0.08627451 0.01960784 0.83137255
v 0.00060244 0.02231099 -0.06092051 0.08627451 0.01960784 0.83137255
v 0.00224762 0.02307801 -0.06087254 0.08627451 0.01960784 0.83137255
v -0.02351586 -0.00027108 -0.06074063 0.08627451 0.01960784 0.83137255
v -0.02351586 0.00301748 -0.06087854 0.08627451 0.01960784 0.83137255
v -0.02472342 0.00301748 -0.06091152 0.08627451 0.01960784 0.83137255
v -0.02472342 0.00422236 -0.06094749 0.08627451 0.01960784 0.83137255
v -0.02582898 0.01299806 -0.03031974 0.08627451 0.01960784 0.83137255
v -0.02551969 0.01359429 -0.03031974 0.08627451 0.01960784 0.83137255
v -0.02826055 0.01145781 -0.03919987 0.08627451 0.01960784 0.83137255
v -0.02883636 0.01067526 -0.04040507 0.08627451 0.01960784 0.83137255
v -0.02921475 0.01006351 -0.04161028 0.08627451 0.01960784 0.83137255
v -0.02783939 0.01223104 -0.03919987 0.08627451 0.01960784 0.83137255
v -0.02748732 0.01283658 -0.03919987 0.08627451 0.01960784 0.83137255
v -0.02502613 0.01637046 -0.05487351 0.08627451 0.01960784 0.83137255
v -0.02537491 0.01576492 -0.05487351 0.08627451 0.01960784 0.83137255
v -0.02535517 0.01573076 -0.05570396 0.08627451 0.01960784 0.83137255
v -0.02625672 0.01393898 -0.05608171 0.08627451 0.01960784 0.83137255
v -0.02913908 0.00673768 -0.05616566 0.08627451 0.01960784 0.83137255
v -0.02893508 0.00720659 -0.05662735 0.08627451 0.01960784 0.83137255
v -0.02790848 0.01008214 -0.05608171 0.08627451 0.01960784 0.83137255
v -0.02783281 0.00989582 -0.05704108 0.08627451 0.01960784 0.83137255
v -0.02653311 0.01326822 -0.05668431 0.08627451 0.01960784 0.83137255
v -0.03088297 0.00301748 -0.05004970 0.08627451 0.01960784 0.83137255
v -0.03105077 0.00180950 -0.05004970 0.08627451 0.01960784 0.83137255
v -0.03015580 0.00364476 -0.05429489 0.08627451 0.01960784 0.83137255
v -0.03112645 0.00060463 -0.05004970 0.08627451 0.01960784 0.83137255
v -0.03127123 -0.00027108 -0.04884450 0.08627451 0.01960784 0.83137255
v -0.03113961 -0.00027108 -0.05004970 0.08627451 0.01960784 0.83137255
v -0.00060512 0.02231099 -0.06092351 0.08627451 0.01960784 0.83137255
v -0.01025244 0.01989813 -0.06071664 0.08627451 0.01960784 0.83137255
v -0.01146000 0.01989813 -0.06065969 0.08627451 0.01960784 0.83137255
v -0.02472342 0.00543033 -0.06088454 0.08627451 0.01960784 0.83137255
v -0.01025244 0.02110301 -0.06062671 0.08627451 0.01960784 0.83137255
v -0.01146000 0.02110301 -0.06054876 0.08627451 0.01960784 0.83137255
v -0.01266427 0.01989813 -0.06058173 0.08627451 0.01960784 0.83137255
v -0.02592769 0.00422236 -0.06088753 0.08627451 0.01960784 0.83137255
v -0.02638176 0.01297632 -0.05748778 0.08627451 0.01960784 0.83137255
v -0.02610866 0.01375266 -0.05716699 0.08627451 0.01960784 0.83137255
v -0.02530252 0.01563450 -0.05650743 0.08627451 0.01960784 0.83137255
v -0.02713525 0.00422236 -0.06060272 0.08627451 0.01960784 0.83137255
v -0.02779332 0.00422236 -0.06034189 0.08627451 0.01960784 0.83137255
v -0.02839546 0.00422236 -0.05973030 0.08627451 0.01960784 0.83137255
v -0.02896469 0.00422236 -0.05912770 0.08627451 0.01960784 0.83137255
v -0.02929372 0.00060463 -0.05849212 0.08627451 0.01960784 0.83137255
v -0.02978727 -0.00027108 -0.05728691 0.08627451 0.01960784 0.83137255
v -0.02976753 0.00060463 -0.05728691 0.08627451 0.01960784 0.83137255
v -0.03017554 0.00149586 -0.05557804 0.08627451 0.01960784 0.83137255
v -0.03013934 0.00230015 -0.05542814 0.08627451 0.01960784 0.83137255
v -0.03020844 0.00301748 -0.05455272 0.08627451 0.01960784 0.83137255
v -0.02896798 0.00610419 -0.05798845 0.08627451 0.01960784 0.83137255
v -0.02772422 0.00961634 -0.05784754 0.08627451 0.01960784 0.83137255
v -0.02714512 0.01145781 -0.05728691 0.08627451 0.01960784 0.83137255
v -0.02667460 0.01260989 -0.05716699 0.08627451 0.01960784 0.83137255
v -0.02503600 0.01619035 -0.05609670 0.08627451 0.01960784 0.83137255
v -0.02104480 0.02006272 -0.03031974 0.08627451 0.01960784 0.83137255
v -0.02378238 0.01883300 -0.04040507 0.08627451 0.01960784 0.83137255
v -0.02318024 0.01962797 -0.04040507 0.08627451 0.01960784 0.83137255
v -0.02418051 0.01817777 -0.03948768 0.08627451 0.01960784 0.83137255
v -0.02653311 0.01447931 -0.03985044 0.08627451 0.01960784 0.83137255
v -0.02653311 0.01447931 -0.03976650 0.08627451 0.01960784 0.83137255
v -0.02650350 0.01443273 -0.03896003 0.08627451 0.01960784 0.83137255
v -0.02123564 0.01984224 -0.03031974 0.08627451 0.01960784 0.83137255
v -0.02384819 -0.00027108 -0.06074063 0.08627451 0.01960784 0.83137255
v -0.02472342 -0.00027108 -0.06072564 0.08627451 0.01960784 0.83137255
v -0.02777687 0.01213788 -0.03851632 0.08627451 0.01960784 0.83137255
v -0.02515446 0.01419672 -0.03031974 0.08627451 0.01960784 0.83137255
v -0.02681609 0.01396693 -0.03929881 0.08627451 0.01960784 0.83137255
v -0.02560524 0.01517180 -0.05609670 0.08627451 0.01960784 0.83137255
v -0.02904037 0.00636504 -0.05728691 0.08627451 0.01960784 0.83137255
v -0.02759590 0.01028088 -0.05737985 0.08627451 0.01960784 0.83137255
v -0.03035651 0.00301748 -0.05366831 0.08627451 0.01960784 0.83137255
v -0.03069541 0.00180950 -0.05246310 0.08627451 0.01960784 0.83137255
v -0.03079084 0.00060463 -0.05246310 0.08627451 0.01960784 0.83137255
v -0.03096522 0.00060463 -0.05125490 0.08627451 0.01960784 0.83137255
v -0.03102445 -0.00027108 -0.05092512 0.08627451 0.01960784 0.83137255
v -0.02592769 -0.00027108 -0.06058773 0.08627451 0.01960784 0.83137255
v -0.02677002 -0.00027108 -0.06038986 0.08627451 0.01960784 0.83137255
v -0.02505575 -0.00027108 -0.06068966 0.08627451 0.01960784 0.83137255
v -0.02737216 -0.00027108 -0.06015901 0.08627451 0.01960784 0.83137255
v -0.02775384 0.00353918 -0.06031191 0.08627451 0.01960784 0.83137255
v -0.02833952 -0.00027108 -0.05958040 0.08627451 0.01960784 0.83137255
v -0.02896469 -0.00027108 -0.05911870 0.08627451 0.01960784 0.83137255
v -0.02930030 -0.00027108 -0.05849212 0.08627451 0.01960784 0.83137255
v -0.03005380 -0.00027108 -0.05629457 0.08627451 0.01960784 0.83137255
v -0.03004393 0.00060463 -0.05626459 0.08627451 0.01960784 0.83137255
v -0.03019528 0.00060463 -0.05566199 0.08627451 0.01960784 0.83137255
v -0.03037296 0.00060463 -0.05487351 0.08627451 0.01960784 0.83137255
v -0.03027425 0.00186229 -0.05496645 0.08627451 0.01960784 0.83137255
v -0.03051773 0.00180950 -0.05366831 0.08627451 0.01960784 0.83137255
v -0.02515446 0.01659715 -0.03919987 0.08627451 0.01960784 0.83137255
v -0.02450297 0.01759086 -0.03913092 0.08627451 0.01960784 0.83137255
v -0.02443716 0.01532707 -0.03031974 0.08627451 0.01960784 0.83137255
v -0.02390412 0.01612825 -0.03031974 0.08627451 0.01960784 0.83137255
v -0.02375935 0.01634562 -0.03031974 0.08627451 0.01960784 0.83137255
v -0.02289398 0.01761881 -0.03031974 0.08627451 0.01960784 0.83137255
v -0.02209443 0.01874605 -0.03031974 0.08627451 0.01960784 0.83137255
v -0.02164694 0.01932054 -0.03031974 0.08627451 0.01960784 0.83137255
v -0.02495704 0.01451657 -0.03031974 0.08627451 0.01960784 0.83137255
v -0.03060328 0.00060463 -0.05366831 0.08627451 0.01960784 0.83137255
v -0.03080399 -0.00027108 -0.05246310 0.08627451 0.01960784 0.83137255
v -0.03085335 -0.00027108 -0.05213032 0.08627451 0.01960784 0.83137255
v -0.03097838 -0.00027108 -0.05125490 0.08627451 0.01960784 0.83137255
v -0.03009657 -0.00027108 -0.05612668 0.08627451 0.01960784 0.83137255
v -0.03020186 -0.00027108 -0.05569197 0.08627451 0.01960784 0.83137255
v -0.03025122 -0.00027108 -0.05547311 0.08627451 0.01960784 0.83137255
v -0.03038283 -0.00027108 -0.05487351 0.08627451 0.01960784 0.83137255
v -0.03061645 -0.00027108 -0.05366831 0.08627451 0.01960784 0.83137255
f 1 2 3
f 1 3 4
f 1 4 5
f 1 5 6
f 1 6 7
f 1 7 8
f 1 8 2
f 2 9 10
f 2 10 11
f 2 11 3
f 2 8 12
f 2 12 9
f 3 11 13
f 3 13 14
f 3 14 15
f 3 15 4
f 4 15 16
f 4 16 5
f 5 17 6
f 5 16 18
f 5 18 17
f 6 19 7
f 6 17 20
f 6 20 21
f 6 21 22
f 6 22 19
f 7 19 23
f 7 23 24
f 7 24 25
f 7 25 8
f 8 25 12
f 9 12 26
f 9 26 10
f 10 27 28
f 10 28 13
f 10 13 11
f 10 26 29
f 10 29 27
f 12 25 30
f 12 30 31
f 12 31 32
f 12 32 33
f 12 33 26
f 13 28 34
f 13 34 35
f 13 35 36
f 13 36 37
f 13 37 38
f 13 38 39
f 13 39 40
f 13 40 41
f 13 41 14
f 14 41 15
f 15 41 40
f 15 40 42
f 15 42 16
f 16 42 43
f 16 43 62
f 16 62 85
f 16 85 84
f 16 84 83
f 16 83 82
f 16 82 81
f 16 81 123
f 16 123 122
f 16 122 166
f 16 166 214
f 16 214 264
f 16 264 263
f 16 263 327
f 16 327 384
f 16 384 383
f 16 383 387
f 16 387 386
f 16 386 385
f 16 385 451
f 16 451 458
f 16 458 493
f 16 493 492
f 16 492 491
f 16 491 490
f 16 490 489
f 16 489 488
f 16 488 494
f 16 494 462
f 16 462 404
f 16 404 403
f 16 403 333
f 16 333 332
f 16 332 331
f 16 331 277
f 16 277 276
f 16 276 226
f 16 226 225
f 16 225 224
f 16 224 223
f 16 223 222
f 16 222 221
f 16 221 220
f 16 220 173
f 16 173 172
f 16 172 169
f 16 169 126
f 16 126 88
f 16 88 64
f 16 64 45
f 16 45 20
f 16 20 17
f 16 17 18
f 19 22 44
f 19 44 23
f 20 45 63
f 20 63 86
f 20 86 124
f 20 124 167
f 20 167 215
f 20 215 217
f 20 217 266
f 20 266 328
f 20 328 398
f 20 398 357
f 20 357 356
f 20 356 355
f 20 355 354
f 20 354 292
f 20 292 289
f 20 289 288
f 20 288 234
f 20 234 181
f 20 181 131
f 20 131 95
f 20 95 94
f 20 94 93
f 20 93 65
f 20 65 46
f 20 46 33
f 20 33 32
f 20 32 31
f 20 31 30
f 20 30 23
f 20 23 44
f 20 44 22
f 20 22 21
f 23 30 24
f 24 30 25
f 26 33 46
f 26 46 47
f 26 47 48
f 26 48 49
f 26 49 29
f 27 29 49
f 27 49 50
f 27 50 28
f 28 50 51
f 28 51 35
f 28 35 34
f 35 51 52
f 35 52 53
f 35 53 54
f 35 54 55
f 35 55 56
f 35 56 37
f 35 37 36
f 37 57 39
f 37 39 38
f 37 56 58
f 37 58 57
f 39 57 58
f 39 58 56
f 39 56 40
f 40 56 59
f 40 59 60
f 40 60 61
f 40 61 42
f 42 61 62
f 42 62 43
f 45 64 92
f 45 92 130
f 45 130 180
f 45 180 179
f 45 179 178
f 45 178 177
f 45 177 176
f 45 176 233
f 45 233 232
f 45 232 287
f 45 287 352
f 45 352 350
f 45 350 349
f 45 349 423
f 45 423 424
f 45 424 471
f 45 471 498
f 45 498 497
f 45 497 496
f 45 496 503
f 45 503 502
f 45 502 501
f 45 501 500
f 45 500 499
f 45 499 480
f 45 480 441
f 45 441 479
f 45 479 478
f 45 478 477
f 45 477 475
f 45 475 473
f 45 473 472
f 45 472 474
f 45 474 460
f 45 460 459
f 45 459 399
f 45 399 329
f 45 329 272
f 45 272 271
f 45 271 270
f 45 270 269
f 45 269 268
f 45 268 267
f 45 267 265
f 45 265 216
f 45 216 168
f 45 168 125
f 45 125 87
f 45 87 63
f 46 65 47
f 47 66 67
f 47 67 48
f 47 65 66
f 48 67 68
f 48 68 49
f 49 68 50
f 50 68 52
f 50 52 51
f 52 69 70
f 52 70 71
f 52 71 54
f 52 54 53
f 52 68 69
f 54 71 72
f 54 72 55
f 55 59 56
f 55 72 73
f 55 73 74
f 55 74 75
f 55 75 76
f 55 76 77
f 55 77 59
f 59 77 60
f 60 77 76
f 60 76 78
f 60 78 79
f 60 79 80
f 60 80 61
f 61 80 81
f 61 81 82
f 61 82 83
f 61 83 84
f 61 84 85
f 61 85 62
f 63 87 86
f 64 88 89
f 64 89 90
f 64 90 91
f 64 91 92
f 65 93 66
f 66 93 94
f 66 94 95
f 66 95 96
f 66 96 67
f 67 96 97
f 67 97 68
f 68 97 98
f 68 98 99
f 68 99 69
f 69 100 101
f 69 101 70
f 69 99 100
f 70 101 102
f 70 102 71
f 71 102 103
f 71 103 104
f 71 104 72
f 72 104 105
f 72 105 106
f 72 106 107
f 72 107 73
f 73 107 74
f 74 107 108
f 74 108 75
f 75 109 110
f 75 110 111
f 75 111 76
f 75 108 112
f 75 112 113
f 75 113 114
f 75 114 115
f 75 115 109
f 76 111 78
f 78 111 110
f 78 110 109
f 78 109 116
f 78 116 117
f 78 117 118
f 78 118 79
f 79 118 119
f 79 119 80
f 80 119 120
f 80 120 121
f 80 121 122
f 80 122 123
f 80 123 81
f 86 87 125
f 86 125 124
f 88 126 127
f 88 127 89
f 89 127 128
f 89 128 90
f 90 128 129
f 90 129 91
f 91 129 92
f 92 129 130
f 95 131 96
f 96 132 97
f 96 131 132
f 97 132 98
f 98 133 134
f 98 134 99
f 98 132 133
f 99 134 135
f 99 135 100
f 100 135 136
f 100 136 101
f 101 136 137
f 101 137 138
f 101 138 102
f 102 138 139
f 102 139 140
f 102 140 141
f 102 141 142
f 102 142 143
f 102 143 104
f 102 104 103
f 104 143 105
f 105 108 106
f 105 143 142
f 105 142 144
f 105 144 108
f 106 108 107
f 108 144 145
f 108 145 146
f 108 146 147
f 108 147 148
f 108 148 113
f 108 113 112
f 109 149 150
f 109 150 151
f 109 151 152
f 109 152 116
f 109 115 153
f 109 153 149
f 113 154 114
f 113 148 155
f 113 155 156
f 113 156 154
f 114 154 157
f 114 157 158
f 114 158 115
f 115 158 159
f 115 159 153
f 116 152 160
f 116 160 120
f 116 120 119
f 116 119 117
f 117 119 118
f 120 161 121
f 120 160 162
f 120 162 163
f 120 163 164
f 120 164 165
f 120 165 166
f 120 166 161
f 121 161 166
f 121 166 122
f 124 125 168
f 124 168 167
f 126 169 127
f 127 170 171
f 127 171 128
f 127 169 172
f 127 172 173
f 127 173 170
f 128 171 174
f 128 174 175
f 128 175 176
f 128 176 177
f 128 177 129
f 129 177 178
f 129 178 179
f 129 179 180
f 129 180 130
f 131 181 132
f 132 181 182
f 132 182 133
f 133 183 184
f 133 184 134
f 133 182 183
f 134 184 136
f 134 136 135
f 136 184 185
f 136 185 186
f 136 186 187
f 136 187 139
f 136 139 137
f 137 139 138
f 139 187 188
f 139 188 141
f 139 141 140
f 141 189 190
f 141 190 142
f 141 188 189
f 142 190 144
f 144 190 191
f 144 191 145
f 145 191 146
f 146 192 147
f 146 191 192
f 147 192 193
f 147 193 194
f 147 194 195
f 147 195 148
f 148 195 196
f 148 196 197
f 148 197 156
f 148 156 155
f 149 153 198
f 149 198 199
f 149 199 150
f 150 200 151
f 150 199 200
f 151 200 163
f 151 163 162
f 151 162 160
f 151 160 152
f 153 159 198
f 154 156 201
f 154 201 202
f 154 202 203
f 154 203 204
f 154 204 157
f 156 205 206
f 156 206 201
f 156 197 207
f 156 207 208
f 156 208 205
f 157 204 253
f 157 253 209
f 157 209 158
f 158 209 210
f 158 210 159
f 159 211 198
f 159 210 211
f 163 200 212
f 163 212 164
f 164 212 165
f 165 212 213
f 165 213 166
f 166 213 214
f 167 168 215
f 168 216 217
f 168 217 215
f 170 218 219
f 170 219 171
f 170 173 220
f 170 220 221
f 170 221 222
f 170 222 223
f 170 223 224
f 170 224 225
f 170 225 226
f 170 226 218
f 171 219 227
f 171 227 174
f 174 228 229
f 174 229 230
f 174 230 175
f 174 227 228
f 175 230 231
f 175 231 232
f 175 232 233
f 175 233 176
f 181 234 182
f 182 234 235
f 182 235 183
f 183 236 237
f 183 237 184
f 183 235 236
f 184 237 238
f 184 238 185
f 185 238 239
f 185 239 186
f 186 239 187
f 187 240 188
f 187 239 240
f 188 240 241
f 188 241 189
f 189 191 190
f 189 241 242
f 189 242 243
f 189 243 191
f 191 243 244
f 191 244 245
f 191 245 192
f 192 245 193
f 193 245 194
f 194 246 195
f 194 245 246
f 195 246 196
f 196 207 197
f 196 246 247
f 196 247 248
f 196 248 249
f 196 249 208
f 196 208 207
f 198 211 199
f 199 212 200
f 199 211 250
f 199 250 212
f 201 206 202
f 202 251 252
f 202 252 253
f 202 253 203
f 202 206 254
f 202 254 251
f 203 253 204
f 205 255 206
f 205 208 256
f 205 256 255
f 206 255 257
f 206 257 254
f 208 249 258
f 208 258 259
f 208 259 260
f 208 260 261
f 208 261 256
f 209 253 262
f 209 262 213
f 209 213 210
f 210 213 211
f 211 213 250
f 212 250 213
f 213 262 263
f 213 263 264
f 213 264 214
f 216 265 217
f 217 265 267
f 217 267 268
f 217 268 269
f 217 269 270
f 217 270 271
f 217 271 272
f 217 272 266
f 218 273 274
f 218 274 275
f 218 275 219
f 218 226 276
f 218 276 277
f 218 277 273
f 219 278 227
f 219 275 279
f 219 279 278
f 227 278 280
f 227 280 281
f 227 281 282
f 227 282 228
f 228 282 283
f 228 283 229
f 229 283 284
f 229 284 285
f 229 285 286
f 229 286 231
f 229 231 230
f 231 286 287
f 231 287 232
f 234 288 235
f 235 288 289
f 235 289 236
f 236 290 291
f 236 291 237
f 236 289 292
f 236 292 290
f 237 291 293
f 237 293 238
f 238 293 239
f 239 293 294
f 239 294 295
f 239 295 296
f 239 296 297
f 239 297 298
f 239 298 241
f 239 241 240
f 241 297 299
f 241 299 242
f 241 298 297
f 242 300 301
f 242 301 302
f 242 302 303
f 242 303 243
f 242 299 297
f 242 297 304
f 242 304 300
f 243 303 305
f 243 305 306
f 243 306 244
f 244 306 245
f 245 306 246
f 246 306 307
f 246 307 308
f 246 308 247
f 247 309 310
f 247 310 311
f 247 311 248
f 247 308 307
f 247 307 305
f 247 305 303
f 247 303 312
f 247 312 313
f 247 313 314
f 247 314 315
f 247 315 309
f 248 311 310
f 248 310 316
f 248 316 249
f 249 316 317
f 249 317 258
f 251 318 252
f 251 254 319
f 251 319 318
f 252 318 320
f 252 320 253
f 253 320 262
f 254 257 322
f 254 322 319
f 255 321 322
f 255 322 257
f 255 256 323
f 255 323 321
f 256 261 323
f 258 317 324
f 258 324 259
f 259 324 325
f 259 325 326
f 259 326 260
f 260 326 261
f 261 326 323
f 262 327 263
f 262 320 327
f 266 272 328
f 272 329 328
f 273 330 274
f 273 277 331
f 273 331 332
f 273 332 333
f 273 333 330
f 274 334 275
f 274 330 335
f 274 335 336
f 274 336 334
f 275 334 337
f 275 337 279
f 278 338 280
f 278 279 339
f 278 339 340
f 278 340 338
f 279 341 339
f 279 337 342
f 279 342 343
f 279 343 344
f 279 344 345
f 279 345 341
f 280 346 282
f 280 282 281
f 280 338 340
f 280 340 347
f 280 347 346
f 282 348 283
f 282 346 348
f 283 348 284
f 284 349 350
f 284 350 285
f 284 348 351
f 284 351 349
f 285 350 352
f 285 352 287
f 285 287 286
f 290 353 291
f 290 292 354
f 290 354 355
f 290 355 356
f 290 356 357
f 290 357 353
f 291 353 358
f 291 358 359
f 291 359 360
f 291 360 293
f 293 360 294
f 294 360 361
f 294 361 296
f 294 296 295
f 296 362 297
f 296 361 362
f 297 362 363
f 297 363 304
f 300 364 301
f 300 304 365
f 300 365 364
f 301 364 366
f 301 366 367
f 301 367 302
f 302 367 368
f 302 368 369
f 302 369 313
f 302 313 312
f 302 312 303
f 304 363 365
f 305 307 306
f 309 370 310
f 309 315 370
f 310 370 371
f 310 371 372
f 310 372 373
f 310 373 374
f 310 374 375
f 310 375 316
f 313 369 368
f 313 368 314
f 314 367 376
f 314 376 315
f 314 368 367
f 315 376 377
f 315 377 378
f 315 378 379
f 315 379 380
f 315 380 381
f 315 381 371
f 315 371 370
f 316 375 317
f 317 375 382
f 317 382 324
f 318 319 322
f 318 322 383
f 318 383 320
f 320 383 384
f 320 384 327
f 321 385 386
f 321 386 387
f 321 387 383
f 321 383 322
f 321 323 388
f 321 388 385
f 323 326 388
f 324 389 390
f 324 390 391
f 324 391 325
f 324 382 392
f 324 392 393
f 324 393 389
f 325 391 394
f 325 394 326
f 326 395 388
f 326 394 396
f 326 396 395
f 328 397 353
f 328 353 398
f 328 329 399
f 328 399 400
f 328 400 401
f 328 401 402
f 328 402 397
f 330 333 403
f 330 403 404
f 330 404 405
f 330 405 335
f 334 336 337
f 335 406 407
f 335 407 336
f 335 405 408
f 335 408 409
f 335 409 406
f 336 407 410
f 336 410 411
f 336 411 412
f 336 412 337
f 337 412 413
f 337 413 343
f 337 343 342
f 339 341 340
f 340 341 414
f 340 414 347
f 341 415 414
f 341 345 416
f 341 416 417
f 341 417 415
f 343 413 418
f 343 418 344
f 344 418 345
f 345 418 417
f 345 417 416
f 346 347 419
f 346 419 420
f 346 420 348
f 347 421 419
f 347 414 421
f 348 420 422
f 348 422 351
f 349 351 423
f 351 422 424
f 351 424 423
f 353 397 358
f 353 357 398
f 358 397 425
f 358 425 402
f 358 402 359
f 359 426 427
f 359 427 360
f 359 402 428
f 359 428 426
f 360 427 429
f 360 429 430
f 360 430 363
f 360 363 362
f 360 362 361
f 363 430 365
f 364 365 430
f 364 430 431
f 364 431 367
f 364 367 366
f 367 428 402
f 367 402 432
f 367 432 376
f 367 431 427
f 367 427 428
f 371 381 433
f 371 433 434
f 371 434 372
f 372 435 373
f 372 434 418
f 372 418 435
f 373 435 374
f 374 435 375
f 375 435 382
f 376 436 377
f 376 432 436
f 377 436 437
f 377 437 438
f 377 438 439
f 377 439 378
f 378 439 440
f 378 440 441
f 378 441 442
f 378 442 443
f 378 443 444
f 378 444 445
f 378 445 421
f 378 421 446
f 378 446 379
f 379 446 447
f 379 447 381
f 379 381 380
f 381 447 448
f 381 448 449
f 381 449 433
f 382 435 450
f 382 450 412
f 382 412 410
f 382 410 392
f 385 388 395
f 385 395 396
f 385 396 394
f 385 394 451
f 389 393 452
f 389 452 390
f 390 452 453
f 390 453 391
f 391 453 394
f 392 410 407
f 392 407 393
f 393 454 452
f 393 407 455
f 393 455 456
f 393 456 457
f 393 457 454
f 394 458 451
f 394 453 458
f 397 402 425
f 399 459 401
f 399 401 400
f 401 459 460
f 401 460 432
f 401 432 402
f 404 457 409
f 404 409 461
f 404 461 405
f 404 462 457
f 405 461 408
f 406 409 456
f 406 456 407
f 407 456 455
f 408 461 409
f 409 457 463
f 409 463 456
f 410 412 411
f 412 435 464
f 412 464 413
f 412 450 435
f 413 464 418
f 414 415 465
f 414 465 421
f 415 446 465
f 415 417 447
f 415 447 446
f 417 418 448
f 417 448 466
f 417 466 447
f 418 464 435
f 418 434 433
f 418 433 449
f 418 449 448
f 419 421 467
f 419 467 420
f 420 467 468
f 420 468 469
f 420 469 470
f 420 470 422
f 421 445 467
f 421 465 446
f 422 470 471
f 422 471 424
f 426 428 427
f 427 431 430
f 427 430 429
f 432 472 473
f 432 473 436
f 432 460 474
f 432 474 472
f 436 475 476
f 436 476 437
f 436 473 475
f 437 476 477
f 437 477 478
f 437 478 438
f 438 478 439
f 439 478 479
f 439 479 440
f 440 479 441
f 441 480 481
f 441 481 442
f 442 481 443
f 443 481 482
f 443 482 483
f 443 483 484
f 443 484 444
f 444 484 485
f 444 485 445
f 445 485 467
f 447 466 448
f 452 454 453
f 453 454 458
f 454 457 486
f 454 486 487
f 454 487 488
f 454 488 489
f 454 489 490
f 454 490 491
f 454 491 492
f 454 492 493
f 454 493 458
f 456 463 457
f 457 462 494
f 457 494 488
f 457 488 486
f 467 485 468
f 468 485 469
f 469 485 495
f 469 495 503
f 469 503 496
f 469 496 497
f 469 497 470
f 470 498 471
f 470 497 498
f 475 477 476
f 480 499 481
f 481 499 482
f 482 499 500
f 482 500 501
f 482 501 483
f 483 501 502
f 483 502 503
f 483 503 495
f 483 495 484
f 484 495 485
f 486 488 487

