# https://github.com/mikedh/trimesh
v 0.00224762 -0.00027108 -0.03031974 0.77647059 0.86666667 0.97647059
v 0.00224762 -0.03015782 -0.03031974 0.77647059 0.86666667 0.97647059
v 0.00224762 -0.00027108 -0.05444052 0.77647059 0.86666667 0.97647059
v -0.02915398 -0.00027108 -0.03031974 0.77647059 0.86666667 0.97647059
v 0.00184613 -0.03017020 -0.03031974 0.77647059 0.86666667 0.97647059
v 0.00224762 -0.03145858 -0.03915807 0.77647059 0.86666667 0.97647059
v 0.00224762 -0.01260361 -0.05815392 0.77647059 0.86666667 0.97647059
v -0.01145891 -0.00027108 -0.05863039 0.77647059 0.86666667 0.97647059
v -0.03083233 -0.00027108 -0.04040580 0.77647059 0.86666667 0.97647059
v -0.02916385 -0.00060556 -0.03031974 0.77647059 0.86666667 0.97647059
v 0.00107935 -0.03017330 -0.03031974 0.77647059 0.86666667 0.97647059
v 0.00060217 -0.03148646 -0.03919976 0.77647059 0.86666667 0.97647059
v 0.00180664 -0.03147097 -0.03919976 0.77647059 0.86666667 0.97647059
v 0.00060217 -0.03165370 -0.04040580 0.77647059 0.86666667 0.97647059
v 0.00224762 -0.03156079 -0.03995912 0.77647059 0.86666667 0.97647059
v 0.00224762 -0.01387032 -0.05849043 0.77647059 0.86666667 0.97647059
v -0.01317346 -0.00027108 -0.05912173 0.77647059 0.86666667 0.97647059
v -0.01257122 -0.00027108 -0.05895200 0.77647059 0.86666667 0.97647059
v -0.03099687 -0.00027108 -0.04161184 0.77647059 0.86666667 0.97647059
v -0.03123382 -0.00301818 -0.04281788 0.77647059 0.86666667 0.97647059
v -0.02914740 -0.00137673 -0.03031974 0.77647059 0.86666667 0.97647059
v -0.03101991 -0.00422294 -0.04161184 0.77647059 0.86666667 0.97647059
v 0.00057585 -0.03017330 -0.03031974 0.77647059 0.86666667 0.97647059
v -0.00060558 -0.03166918 -0.04040580 0.77647059 0.86666667 0.97647059
v 0.00060217 -0.03178687 -0.04161184 0.77647059 0.86666667 0.97647059
v 0.00224762 -0.03161653 -0.04040580 0.77647059 0.86666667 0.97647059
v -0.00060558 -0.03180546 -0.04161184 0.77647059 0.86666667 0.97647059
v 0.00224762 -0.01507817 -0.05872270 0.77647059 0.86666667 0.97647059
v -0.01387112 -0.00027108 -0.05926169 0.77647059 0.86666667 0.97647059
v 0.00224762 -0.02327302 -0.06024439 0.77647059 0.86666667 0.97647059
v -0.03109231 -0.00027108 -0.04248436 0.77647059 0.86666667 0.97647059
v -0.03121736 -0.00422294 -0.04281788 0.77647059 0.86666667 0.97647059
v -0.03112851 -0.00027108 -0.04281788 0.77647059 0.86666667 0.97647059
v -0.03122065 -0.00027108 -0.04369039 0.77647059 0.86666667 0.97647059
v -0.03133583 -0.00301818 -0.04384226 0.77647059 0.86666667 0.97647059
v -0.02913423 -0.00181032 -0.03031974 0.77647059 0.86666667 0.97647059
v -0.03092776 -0.00542770 -0.04161184 0.77647059 0.86666667 0.97647059
v -0.02908487 -0.00258149 -0.03031974 0.77647059 0.86666667 0.97647059
v -0.00002967 -0.03016711 -0.03031974 0.77647059 0.86666667 0.97647059
v -0.00060558 -0.03148956 -0.03919976 0.77647059 0.86666667 0.97647059
v -0.00181004 -0.03165061 -0.04040580 0.77647059 0.86666667 0.97647059
v -0.00181004 -0.03178997 -0.04161184 0.77647059 0.86666667 0.97647059
v 0.00060217 -0.03187049 -0.04281788 0.77647059 0.86666667 0.97647059
v 0.00224762 -0.03172803 -0.04161184 0.77647059 0.86666667 0.97647059
v 0.00224762 -0.03169396 -0.04117111 0.77647059 0.86666667 0.97647059
v -0.00060558 -0.03188598 -0.04281788 0.77647059 0.86666667 0.97647059
v -0.01507559 -0.00027108 -0.05948503 0.77647059 0.86666667 0.97647059
v 0.00224762 -0.02349292 -0.06028013 0.77647059 0.86666667 0.97647059
v -0.01952815 -0.00027108 -0.06026226 0.77647059 0.86666667 0.97647059
v -0.01540467 -0.00027108 -0.05954459 0.77647059 0.86666667 0.97647059
v -0.03109231 -0.00542770 -0.04281788 0.77647059 0.86666667 0.97647059
v -0.03132925 -0.00425391 -0.04401498 0.77647059 0.86666667 0.97647059
v -0.03125027 -0.00027108 -0.04402392 0.77647059 0.86666667 0.97647059
v -0.03132925 -0.00027108 -0.04522996 0.77647059 0.86666667 0.97647059
v -0.03135887 -0.00237399 -0.04459865 0.77647059 0.86666667 0.97647059
v -0.03136545 -0.00301818 -0.04444678 0.77647059 0.86666667 0.97647059
v -0.03136545 -0.00387297 -0.04441104 0.77647059 0.86666667 0.97647059
v -0.02897956 -0.00392562 -0.03031974 0.77647059 0.86666667 0.97647059
v -0.02904867 -0.00304915 -0.03031974 0.77647059 0.86666667 0.97647059
v -0.03071056 -0.00663556 -0.04161184 0.77647059 0.86666667 0.97647059
v -0.03053286 -0.00663556 -0.04040580 0.77647059 0.86666667 0.97647059
v -0.02877882 -0.00542770 -0.03031974 0.77647059 0.86666667 0.97647059
v -0.00080632 -0.03013923 -0.03031974 0.77647059 0.86666667 0.97647059
v -0.00301779 -0.03157008 -0.04040580 0.77647059 0.86666667 0.97647059
v -0.00181004 -0.03007729 -0.03031974 0.77647059 0.86666667 0.97647059
v -0.00181004 -0.03185501 -0.04281788 0.77647059 0.86666667 0.97647059
v -0.00301779 -0.03170944 -0.04161184 0.77647059 0.86666667 0.97647059
v -0.00301779 -0.03177758 -0.04281788 0.77647059 0.86666667 0.97647059
v 0.00060217 -0.03189837 -0.04402392 0.77647059 0.86666667 0.97647059
v 0.00180664 -0.03181165 -0.04281788 0.77647059 0.86666667 0.97647059
v 0.00224762 -0.03177139 -0.04237715 0.77647059 0.86666667 0.97647059
v -0.00060558 -0.03191076 -0.04402392 0.77647059 0.86666667 0.97647059
v 0.00224762 -0.02387695 -0.06033968 0.77647059 0.86666667 0.97647059
v -0.02039365 -0.00027108 -0.06040817 0.77647059 0.86666667 0.97647059
v -0.03118116 -0.00542770 -0.04402392 0.77647059 0.86666667 0.97647059
v -0.03081916 -0.00663556 -0.04281788 0.77647059 0.86666667 0.97647059
v -0.03132267 -0.00443354 -0.04522996 0.77647059 0.86666667 0.97647059
v -0.03134570 -0.00027108 -0.04580468 0.77647059 0.86666667 0.97647059
v -0.03136545 -0.00027108 -0.04664147 0.77647059 0.86666667 0.97647059
v -0.03137203 -0.00301818 -0.04522996 0.77647059 0.86666667 0.97647059
v -0.03136545 -0.00382961 -0.04522996 0.77647059 0.86666667 0.97647059
v -0.03028933 -0.00766688 -0.04040580 0.77647059 0.86666667 0.97647059
v -0.03021364 -0.00745628 -0.03961666 0.77647059 0.86666667 0.97647059
v -0.02855833 -0.00663556 -0.03031974 0.77647059 0.86666667 0.97647059
v -0.00301779 -0.03141832 -0.03944097 0.77647059 0.86666667 0.97647059
v -0.00380102 -0.03138116 -0.03965240 0.77647059 0.86666667 0.97647059
v -0.00421238 -0.03142761 -0.04043260 0.77647059 0.86666667 0.97647059
v -0.00258340 -0.03000296 -0.03031974 0.77647059 0.86666667 0.97647059
v -0.00181004 -0.03187049 -0.04402392 0.77647059 0.86666667 0.97647059
v -0.00422226 -0.03155769 -0.04161184 0.77647059 0.86666667 0.97647059
v -0.00422226 -0.03163821 -0.04281788 0.77647059 0.86666667 0.97647059
v -0.00301779 -0.03177758 -0.04402392 0.77647059 0.86666667 0.97647059
v 0.00060217 -0.03188908 -0.04522996 0.77647059 0.86666667 0.97647059
v 0.00180664 -0.03182714 -0.04402392 0.77647059 0.86666667 0.97647059
v 0.00224762 -0.03178068 -0.04281788 0.77647059 0.86666667 0.97647059
v -0.00060558 -0.03189837 -0.04522996 0.77647059 0.86666667 0.97647059
v 0.00224762 -0.02423621 -0.06037839 0.77647059 0.86666667 0.97647059
v -0.02230894 -0.00027108 -0.06067320 0.77647059 0.86666667 0.97647059
v -0.02110448 -0.00027108 -0.06051836 0.77647059 0.86666667 0.97647059
v -0.03114496 -0.00542770 -0.04522996 0.77647059 0.86666667 0.97647059
v -0.03084549 -0.00663556 -0.04402392 0.77647059 0.86666667 0.97647059
v -0.03015112 -0.00845044 -0.04215977 0.77647059 0.86666667 0.97647059
v -0.03032224 -0.00793323 -0.04169820 0.77647059 0.86666667 0.97647059
v -0.03126672 -0.00411764 -0.04632879 0.77647059 0.86666667 0.97647059
v -0.03112851 -0.00422294 -0.04763905 0.77647059 0.86666667 0.97647059
v -0.03135887 -0.00364689 -0.04586126 0.77647059 0.86666667 0.97647059
v -0.03136545 -0.00027108 -0.04741274 0.77647059 0.86666667 0.97647059
v -0.03136545 -0.00060556 -0.04740380 0.77647059 0.86666667 0.97647059
v -0.03009846 -0.00827081 -0.04040580 0.77647059 0.86666667 0.97647059
v -0.02775206 -0.00965520 -0.03031974 0.77647059 0.86666667 0.97647059
v -0.00378786 -0.02985120 -0.03031974 0.77647059 0.86666667 0.97647059
v -0.00460400 -0.03132851 -0.04004845 0.77647059 0.86666667 0.97647059
v -0.00301779 -0.02995650 -0.03031974 0.77647059 0.86666667 0.97647059
v -0.00493638 -0.03137496 -0.04085248 0.77647059 0.86666667 0.97647059
v -0.00181004 -0.03185191 -0.04522996 0.77647059 0.86666667 0.97647059
v -0.00516016 -0.03141213 -0.04161184 0.77647059 0.86666667 0.97647059
v -0.00550899 -0.03144310 -0.04282681 0.77647059 0.86666667 0.97647059
v -0.00607831 -0.03136567 -0.04323478 0.77647059 0.86666667 0.97647059
v -0.00422226 -0.03163821 -0.04402392 0.77647059 0.86666667 0.97647059
v -0.00301779 -0.03173732 -0.04522996 0.77647059 0.86666667 0.97647059
v 0.00060217 -0.03185191 -0.04643301 0.77647059 0.86666667 0.97647059
v 0.00180664 -0.03181784 -0.04522996 0.77647059 0.86666667 0.97647059
v 0.00224762 -0.03178687 -0.04402392 0.77647059 0.86666667 0.97647059
v 0.00224762 -0.03178997 -0.04358319 0.77647059 0.86666667 0.97647059
v -0.00060558 -0.03185501 -0.04643301 0.77647059 0.86666667 0.97647059
v 0.00224762 -0.02472245 -0.06041711 0.77647059 0.86666667 0.97647059
v -0.02264132 -0.00027108 -0.06069405 0.77647059 0.86666667 0.97647059
v -0.03102649 -0.00542770 -0.04643301 0.77647059 0.86666667 0.97647059
v -0.03068424 -0.00663556 -0.04643301 0.77647059 0.86666667 0.97647059
v -0.03078626 -0.00663556 -0.04522996 0.77647059 0.86666667 0.97647059
v -0.03034528 -0.00794562 -0.04274343 0.77647059 0.86666667 0.97647059
v -0.03038806 -0.00775980 -0.04402392 0.77647059 0.86666667 0.97647059
v -0.02649165 -0.01679086 -0.04281788 0.77647059 0.86666667 0.97647059
v -0.02646204 -0.01673201 -0.04161184 0.77647059 0.86666667 0.97647059
v -0.02979241 -0.00904818 -0.04040580 0.77647059 0.86666667 0.97647059
v -0.03013137 -0.00839470 -0.04135574 0.77647059 0.86666667 0.97647059
v -0.03015112 -0.00845044 -0.04229079 0.77647059 0.86666667 0.97647059
v -0.03115812 -0.00301818 -0.04884509 0.77647059 0.86666667 0.97647059
v -0.03102978 -0.00301818 -0.05005113 0.77647059 0.86666667 0.97647059
v -0.03099358 -0.00422294 -0.04884509 0.77647059 0.86666667 0.97647059
v -0.03134570 -0.00060556 -0.04800533 0.77647059 0.86666667 0.97647059
v -0.03132925 -0.00180722 -0.04757652 0.77647059 0.86666667 0.97647059
v -0.03124369 -0.00181032 -0.04884509 0.77647059 0.86666667 0.97647059
v -0.03135229 -0.00027108 -0.04780879 0.77647059 0.86666667 0.97647059
v -0.02685036 -0.01210189 -0.03031974 0.77647059 0.86666667 0.97647059
v -0.02710047 -0.01145770 -0.03031974 0.77647059 0.86666667 0.97647059
v -0.02725514 -0.01105198 -0.03031974 0.77647059 0.86666667 0.97647059
v -0.02755461 -0.01021268 -0.03031974 0.77647059 0.86666667 0.97647059
v -0.02773890 -0.00969546 -0.03031974 0.77647059 0.86666667 0.97647059
v -0.00422226 -0.02978617 -0.03031974 0.77647059 0.86666667 0.97647059
v -0.00537407 -0.03125418 -0.04043260 0.77647059 0.86666667 0.97647059
v -0.00576239 -0.03130993 -0.04161184 0.77647059 0.86666667 0.97647059
v -0.00255049 -0.03137496 -0.05322257 0.77647059 0.86666667 0.97647059
v -0.00181004 -0.03178997 -0.04643301 0.77647059 0.86666667 0.97647059
v -0.00060558 -0.03179307 -0.04763905 0.77647059 0.86666667 0.97647059
v -0.00596313 -0.03134399 -0.04243075 0.77647059 0.86666667 0.97647059
v -0.00607831 -0.03136567 -0.04359510 0.77647059 0.86666667 0.97647059
v -0.00654233 -0.03124798 -0.04282681 0.77647059 0.86666667 0.97647059
v -0.00784223 -0.03093518 -0.04281788 0.77647059 0.86666667 0.97647059
v -0.00550570 -0.03144310 -0.04400605 0.77647059 0.86666667 0.97647059
v -0.00422226 -0.03157627 -0.04522996 0.77647059 0.86666667 0.97647059
v 0.00060217 -0.03179926 -0.04763905 0.77647059 0.86666667 0.97647059
v 0.00180664 -0.03178068 -0.04643301 0.77647059 0.86666667 0.97647059
v 0.00224762 -0.03174971 -0.04599229 0.77647059 0.86666667 0.97647059
v 0.00224762 -0.03177139 -0.04522996 0.77647059 0.86666667 0.97647059
v 0.00224762 -0.03178068 -0.04478923 0.77647059 0.86666667 0.97647059
v 0.00224762 -0.02516224 -0.06042902 0.77647059 0.86666667 0.97647059
v -0.02351670 -0.00027108 -0.06073872 0.77647059 0.86666667 0.97647059
v -0.03088827 -0.00542770 -0.04763905 0.77647059 0.86666667 0.97647059
v -0.03054931 -0.00663556 -0.04763905 0.77647059 0.86666667 0.97647059
v -0.03020048 -0.00736027 -0.04860686 0.77647059 0.86666667 0.97647059
v -0.03025971 -0.00749035 -0.04763905 0.77647059 0.86666667 0.97647059
v -0.03032224 -0.00759875 -0.04643301 0.77647059 0.86666667 0.97647059
v -0.03036173 -0.00767617 -0.04522996 0.77647059 0.86666667 0.97647059
v -0.03013795 -0.00841947 -0.04309482 0.77647059 0.86666667 0.97647059
v -0.02645874 -0.01671343 -0.04402392 0.77647059 0.86666667 0.97647059
v -0.02615598 -0.01748770 -0.04281788 0.77647059 0.86666667 0.97647059
v -0.02606713 -0.01748770 -0.04161184 0.77647059 0.86666667 0.97647059
v -0.02638305 -0.01660813 -0.04040580 0.77647059 0.86666667 0.97647059
v -0.02668582 -0.01600730 -0.04040580 0.77647059 0.86666667 0.97647059
v -0.02894665 -0.01085996 -0.03979236 0.77647059 0.86666667 0.97647059
v -0.03112192 -0.00181032 -0.05005113 0.77647059 0.86666667 0.97647059
v -0.03086524 -0.00301818 -0.05125717 0.77647059 0.86666667 0.97647059
v -0.03084220 -0.00422294 -0.05005113 0.77647059 0.86666667 0.97647059
v -0.03134570 -0.00027108 -0.04794280 0.77647059 0.86666667 0.97647059
v -0.03127331 -0.00027108 -0.04884509 0.77647059 0.86666667 0.97647059
v -0.03127660 -0.00060556 -0.04884509 0.77647059 0.86666667 0.97647059
v -0.02670227 -0.01246115 -0.03031974 0.77647059 0.86666667 0.97647059
v -0.00499561 -0.02964370 -0.03031974 0.77647059 0.86666667 0.97647059
v -0.00543001 -0.02956318 -0.03031974 0.77647059 0.86666667 0.97647059
v -0.00663447 -0.03100022 -0.04040580 0.77647059 0.86666667 0.97647059
v -0.00663447 -0.03114268 -0.04161184 0.77647059 0.86666667 0.97647059
v -0.00297830 -0.03127276 -0.05364245 0.77647059 0.86666667 0.97647059
v -0.00301779 -0.03081130 -0.05728736 0.77647059 0.86666667 0.97647059
v -0.00205686 -0.03132541 -0.05402659 0.77647059 0.86666667 0.97647059
v -0.00125059 -0.03135948 -0.05429460 0.77647059 0.86666667 0.97647059
v -0.00171790 -0.03138735 -0.05364245 0.77647059 0.86666667 0.97647059
v -0.00181004 -0.03145858 -0.05246321 0.77647059 0.86666667 0.97647059
v -0.00330410 -0.03131302 -0.05246321 0.77647059 0.86666667 0.97647059
v -0.00422226 -0.03109932 -0.05366925 0.77647059 0.86666667 0.97647059
v -0.00060558 -0.03172493 -0.04884509 0.77647059 0.86666667 0.97647059
v 0.00060217 -0.03173422 -0.04884509 0.77647059 0.86666667 0.97647059
v -0.00595655 -0.03134399 -0.04439913 0.77647059 0.86666667 0.97647059
v -0.00654233 -0.03124489 -0.04400605 0.77647059 0.86666667 0.97647059
v -0.00784223 -0.03086085 -0.04161184 0.77647059 0.86666667 0.97647059
v -0.00784223 -0.03091660 -0.04402392 0.77647059 0.86666667 0.97647059
v -0.00904669 -0.03047371 -0.04161184 0.77647059 0.86666667 0.97647059
v -0.00904669 -0.03054185 -0.04281788 0.77647059 0.86666667 0.97647059
v -0.00422226 -0.03117675 -0.05246321 0.77647059 0.86666667 0.97647059
v 0.00180664 -0.03153291 -0.05125717 0.77647059 0.86666667 0.97647059
v 0.00180664 -0.03172493 -0.04763905 0.77647059 0.86666667 0.97647059
v 0.00224762 -0.03169706 -0.04719833 0.77647059 0.86666667 0.97647059
v 0.00224762 -0.03173113 -0.04643301 0.77647059 0.86666667 0.97647059
v 0.00224762 -0.02592722 -0.06044093 0.77647059 0.86666667 0.97647059
v -0.02384908 -0.00027108 -0.06074170 0.77647059 0.86666667 0.97647059
v -0.01748780 -0.01627984 -0.06073574 0.77647059 0.86666667 0.97647059
v -0.03073360 -0.00542770 -0.04884509 0.77647059 0.86666667 0.97647059
v -0.03028275 -0.00648071 -0.05005113 0.77647059 0.86666667 0.97647059
v -0.03034857 -0.00674705 -0.04894336 0.77647059 0.86666667 0.97647059
v -0.03010504 -0.00708463 -0.05005113 0.77647059 0.86666667 0.97647059
v -0.03014453 -0.00722400 -0.04941089 0.77647059 0.86666667 0.97647059
v -0.02849251 -0.01025294 -0.05487529 0.77647059 0.86666667 0.97647059
v -0.02776523 -0.01213286 -0.05566442 0.77647059 0.86666667 0.97647059
v -0.02702149 -0.01387032 -0.05608133 0.77647059 0.86666667 0.97647059
v -0.02664633 -0.01468485 -0.05608133 0.77647059 0.86666667 0.97647059
v -0.02607371 -0.01748770 -0.04402392 0.77647059 0.86666667 0.97647059
v -0.02554388 -0.01846947 -0.04402392 0.77647059 0.86666667 0.97647059
v -0.02559324 -0.01852212 -0.04281788 0.77647059 0.86666667 0.97647059
v -0.02553401 -0.01840753 -0.04161184 0.77647059 0.86666667 0.97647059
v -0.02586310 -0.01748770 -0.04040580 0.77647059 0.86666667 0.97647059
v -0.02516872 -0.01540956 -0.03031974 0.77647059 0.86666667 0.97647059
v -0.02538921 -0.01502552 -0.03031974 0.77647059 0.86666667 0.97647059
v -0.02551426 -0.01480563 -0.03031974 0.77647059 0.86666667 0.97647059
v -0.02660354 -0.01581528 -0.03919976 0.77647059 0.86666667 0.97647059
v -0.02695238 -0.01507817 -0.03919976 0.77647059 0.86666667 0.97647059
v -0.02778497 -0.01336859 -0.03945288 0.77647059 0.86666667 0.97647059
v -0.02772903 -0.01324781 -0.03864886 0.77647059 0.86666667 0.97647059
v -0.03114167 -0.00060556 -0.05005113 0.77647059 0.86666667 0.97647059
v -0.03098371 -0.00060556 -0.05125717 0.77647059 0.86666667 0.97647059
v -0.03095080 -0.00181032 -0.05125717 0.77647059 0.86666667 0.97647059
v -0.03077309 -0.00181032 -0.05246321 0.77647059 0.86666667 0.97647059
v -0.03068424 -0.00301818 -0.05246321 0.77647059 0.86666667 0.97647059
v -0.03067766 -0.00422294 -0.05125717 0.77647059 0.86666667 0.97647059
v -0.03057235 -0.00542770 -0.05005113 0.77647059 0.86666667 0.97647059
v -0.03113838 -0.00027108 -0.05005113 0.77647059 0.86666667 0.97647059
v -0.02660683 -0.01268104 -0.03031974 0.77647059 0.86666667 0.97647059
v -0.00663447 -0.02929683 -0.03031974 0.77647059 0.86666667 0.97647059
v -0.00784223 -0.03069670 -0.04040580 0.77647059 0.86666667 0.97647059
v -0.00422226 -0.03096305 -0.05487529 0.77647059 0.86666667 0.97647059
v -0.00181004 -0.03090731 -0.05728736 0.77647059 0.86666667 0.97647059
v -0.00422226 -0.03065954 -0.05728736 0.77647059 0.86666667 0.97647059
v -0.00422226 -0.03041177 -0.05840407 0.77647059 0.86666667 0.97647059
v -0.00060558 -0.03143691 -0.05366925 0.77647059 0.86666667 0.97647059
v -0.00060558 -0.03137806 -0.05443456 0.77647059 0.86666667 0.97647059
v -0.00543001 -0.03085156 -0.05366925 0.77647059 0.86666667 0.97647059
v -0.00543001 -0.03075864 -0.05487529 0.77647059 0.86666667 0.97647059
v 0.00060217 -0.03144310 -0.05366925 0.77647059 0.86666667 0.97647059
v 0.00144464 -0.03136567 -0.05438394 0.77647059 0.86666667 0.97647059
v 0.00224762 -0.03135019 -0.05403851 0.77647059 0.86666667 0.97647059
v -0.00663447 -0.03114268 -0.04522996 0.77647059 0.86666667 0.97647059
v -0.00909934 -0.03031267 -0.04045047 0.77647059 0.86666667 0.97647059
v -0.00784223 -0.03082988 -0.04522996 0.77647059 0.86666667 0.97647059
v -0.00904669 -0.03052327 -0.04402392 0.77647059 0.86666667 0.97647059
v -0.00969828 -0.03016711 -0.04088524 0.77647059 0.86666667 0.97647059
v -0.00977397 -0.03020117 -0.04161184 0.77647059 0.86666667 0.97647059
v -0.00984308 -0.03023524 -0.04281788 0.77647059 0.86666667 0.97647059
v -0.00982005 -0.03023214 -0.04402392 0.77647059 0.86666667 0.97647059
v 0.00224762 -0.02694305 -0.06036053 0.77647059 0.86666667 0.97647059
v -0.00608490 -0.02654353 -0.06030395 0.77647059 0.86666667 0.97647059
v -0.01145891 -0.02351769 -0.06046178 0.77647059 0.86666667 0.97647059
v -0.01025444 -0.02351769 -0.06047369 0.77647059 0.86666667 0.97647059
v -0.01748780 -0.01748770 -0.06072681 0.77647059 0.86666667 0.97647059
v -0.02472116 -0.00027108 -0.06072383 0.77647059 0.86666667 0.97647059
v -0.01869226 -0.01627984 -0.06073872 0.77647059 0.86666667 0.97647059
v -0.03019719 -0.00619577 -0.05125717 0.77647059 0.86666667 0.97647059
v -0.02890387 -0.00828630 -0.05634636 0.77647059 0.86666667 0.97647059
v -0.02875578 -0.00894288 -0.05599795 0.77647059 0.86666667 0.97647059
v -0.02833784 -0.01025294 -0.05608133 0.77647059 0.86666667 0.97647059
v -0.02791332 -0.01151964 -0.05607239 0.77647059 0.86666667 0.97647059
v -0.02770599 -0.01196562 -0.05646845 0.77647059 0.86666667 0.97647059
v -0.02753486 -0.01258813 -0.05607239 0.77647059 0.86666667 0.97647059
v -0.02659038 -0.01457645 -0.05686450 0.77647059 0.86666667 0.97647059
v -0.02630078 -0.01528878 -0.05608133 0.77647059 0.86666667 0.97647059
v -0.02518517 -0.01907340 -0.04402392 0.77647059 0.86666667 0.97647059
v -0.02520821 -0.01912605 -0.04281788 0.77647059 0.86666667 0.97647059
v -0.02511936 -0.01901146 -0.04161184 0.77647059 0.86666667 0.97647059
v -0.02416829 -0.01695500 -0.03031974 0.77647059 0.86666667 0.97647059
v -0.02432954 -0.01671653 -0.03031974 0.77647059 0.86666667 0.97647059
v -0.02461585 -0.01627984 -0.03031974 0.77647059 0.86666667 0.97647059
v -0.02481660 -0.01596703 -0.03031974 0.77647059 0.86666667 0.97647059
v -0.02602435 -0.01387032 -0.03031974 0.77647059 0.86666667 0.97647059
v -0.02643900 -0.01306508 -0.03031974 0.77647059 0.86666667 0.97647059
v -0.02617573 -0.01357919 -0.03031974 0.77647059 0.86666667 0.97647059
v -0.03098042 -0.00027108 -0.05125717 0.77647059 0.86666667 0.97647059
v -0.03081258 -0.00060556 -0.05246321 0.77647059 0.86666667 0.97647059
v -0.03058880 -0.00181032 -0.05366925 0.77647059 0.86666667 0.97647059
v -0.03049008 -0.00301818 -0.05366925 0.77647059 0.86666667 0.97647059
v -0.03049666 -0.00422294 -0.05246321 0.77647059 0.86666667 0.97647059
v -0.03039793 -0.00542770 -0.05125717 0.77647059 0.86666667 0.97647059
v -0.03015112 -0.00603782 -0.05186763 0.77647059 0.86666667 0.97647059
v -0.00761516 -0.02904597 -0.03031974 0.77647059 0.86666667 0.97647059
v -0.00783235 -0.02898712 -0.03031974 0.77647059 0.86666667 0.97647059
v -0.00821739 -0.02888182 -0.03031974 0.77647059 0.86666667 0.97647059
v -0.00869127 -0.03023214 -0.03919976 0.77647059 0.86666667 0.97647059
v -0.00181004 -0.03056663 -0.05849340 0.77647059 0.86666667 0.97647059
v -0.00060558 -0.03095067 -0.05728736 0.77647059 0.86666667 0.97647059
v 0.00060217 -0.03118295 -0.05608133 0.77647059 0.86666667 0.97647059
v -0.00060558 -0.03113649 -0.05608133 0.77647059 0.86666667 0.97647059
v -0.00060558 -0.03129134 -0.05503907 0.77647059 0.86666667 0.97647059
v -0.00543001 -0.03028170 -0.05818073 0.77647059 0.86666667 0.97647059
v -0.00615730 -0.03018569 -0.05799014 0.77647059 0.86666667 0.97647059
v -0.00422226 -0.03008348 -0.05900857 0.77647059 0.86666667 0.97647059
v -0.00361015 -0.03014852 -0.05909493 0.77647059 0.86666667 0.97647059
v -0.00313297 -0.03043036 -0.05861252 0.77647059 0.86666667 0.97647059
v -0.00543001 -0.02996579 -0.05878226 0.77647059 0.86666667 0.97647059
v 0.00060217 -0.03138116 -0.05450305 0.77647059 0.86666667 0.97647059
v 0.00060217 -0.03131612 -0.05510458 0.77647059 0.86666667 0.97647059
v -0.00663447 -0.03044275 -0.05487529 0.77647059 0.86666667 0.97647059
v 0.00182967 -0.03130683 -0.05482168 0.77647059 0.86666667 0.97647059
v 0.00224762 -0.03126966 -0.05483955 0.77647059 0.86666667 0.97647059
v -0.00953374 -0.03011136 -0.04008121 0.77647059 0.86666667 0.97647059
v -0.01025444 -0.02930302 -0.05487529 0.77647059 0.86666667 0.97647059
v -0.00904669 -0.02969325 -0.05487529 0.77647059 0.86666667 0.97647059
v -0.00741770 -0.03020737 -0.05487529 0.77647059 0.86666667 0.97647059
v -0.01106729 -0.02902119 -0.05487529 0.77647059 0.86666667 0.97647059
v -0.01016230 -0.02993483 -0.04045047 0.77647059 0.86666667 0.97647059
v -0.01037950 -0.02996270 -0.04161184 0.77647059 0.86666667 0.97647059
v -0.01145891 -0.02947026 -0.04161184 0.77647059 0.86666667 0.97647059
v -0.01044531 -0.02995960 -0.04281788 0.77647059 0.86666667 0.97647059
v -0.01145891 -0.02946097 -0.04281788 0.77647059 0.86666667 0.97647059
v -0.01042228 -0.02993483 -0.04402392 0.77647059 0.86666667 0.97647059
v -0.01266666 -0.02834293 -0.05487529 0.77647059 0.86666667 0.97647059
v -0.01166952 -0.02878891 -0.05487529 0.77647059 0.86666667 0.97647059
v 0.00224762 -0.02727134 -0.06030990 0.77647059 0.86666667 0.97647059
v 0.00224762 -0.02753459 -0.06026821 0.77647059 0.86666667 0.97647059
v -0.00654562 -0.02702048 -0.06022057 0.77647059 0.86666667 0.97647059
v -0.01145891 -0.02451805 -0.06036351 0.77647059 0.86666667 0.97647059
v -0.01387112 -0.02330709 -0.06036351 0.77647059 0.86666667 0.97647059
v -0.01869226 -0.01748770 -0.06068810 0.77647059 0.86666667 0.97647059
v -0.02472116 -0.00542770 -0.06068511 0.77647059 0.86666667 0.97647059
v -0.02592891 -0.00422294 -0.06058089 0.77647059 0.86666667 0.97647059
v -0.02505354 -0.00027108 -0.06068810 0.77647059 0.86666667 0.97647059
v -0.01989673 -0.01627984 -0.06065831 0.77647059 0.86666667 0.97647059
v -0.02936789 -0.00663556 -0.05608133 0.77647059 0.86666667 0.97647059
v -0.02900918 -0.00748416 -0.05691811 0.77647059 0.86666667 0.97647059
v -0.02847606 -0.00904818 -0.05728736 0.77647059 0.86666667 0.97647059
v -0.02783433 -0.01116038 -0.05708487 0.77647059 0.86666667 0.97647059
v -0.02763359 -0.01151964 -0.05740648 0.77647059 0.86666667 0.97647059
v -0.02725843 -0.01266556 -0.05728736 0.77647059 0.86666667 0.97647059
v -0.02676809 -0.01389509 -0.05727545 0.77647059 0.86666667 0.97647059
v -0.02644558 -0.01431010 -0.05766853 0.77647059 0.86666667 0.97647059
v -0.02616257 -0.01501933 -0.05727545 0.77647059 0.86666667 0.97647059
v -0.02553072 -0.01597942 -0.05728736 0.77647059 0.86666667 0.97647059
v -0.02526416 -0.01680015 -0.05630466 0.77647059 0.86666667 0.97647059
v -0.02562615 -0.01635107 -0.05597412 0.77647059 0.86666667 0.97647059
v -0.02532997 -0.01688996 -0.05550064 0.77647059 0.86666667 0.97647059
v -0.02280587 -0.02034629 -0.05608133 0.77647059 0.86666667 0.97647059
v -0.02449738 -0.01998703 -0.04395840 0.77647059 0.86666667 0.97647059
v -0.02413209 -0.02051663 -0.04351470 0.77647059 0.86666667 0.97647059
v -0.02413209 -0.02051663 -0.04328838 0.77647059 0.86666667 0.97647059
v -0.02451713 -0.01999942 -0.04285957 0.77647059 0.86666667 0.97647059
v -0.02409260 -0.02046708 -0.04248436 0.77647059 0.86666667 0.97647059
v -0.02451713 -0.01977953 -0.04161184 0.77647059 0.86666667 0.97647059
v -0.02314483 -0.01838894 -0.03031974 0.77647059 0.86666667 0.97647059
v -0.02374706 -0.01755893 -0.03031974 0.77647059 0.86666667 0.97647059
v -0.03085537 -0.00027108 -0.05212969 0.77647059 0.86666667 0.97647059
v -0.03080600 -0.00027108 -0.05246321 0.77647059 0.86666667 0.97647059
v -0.03062171 -0.00060556 -0.05366925 0.77647059 0.86666667 0.97647059
v -0.03035844 -0.00181032 -0.05487529 0.77647059 0.86666667 0.97647059
v -0.03016757 -0.00262485 -0.05556317 0.77647059 0.86666667 0.97647059
v -0.03025642 -0.00302128 -0.05493782 0.77647059 0.86666667 0.97647059
v -0.03013466 -0.00342699 -0.05538152 0.77647059 0.86666667 0.97647059
v -0.02989443 -0.00422294 -0.05608133 0.77647059 0.86666667 0.97647059
v -0.02966077 -0.00542770 -0.05608133 0.77647059 0.86666667 0.97647059
v -0.00874064 -0.02871148 -0.03031974 0.77647059 0.86666667 0.97647059
v -0.00280718 -0.03018259 -0.05912471 0.77647059 0.86666667 0.97647059
v -0.00181004 -0.03021047 -0.05914853 0.77647059 0.86666667 0.97647059
v -0.00084252 -0.03019808 -0.05913662 0.77647059 0.86666667 0.97647059
v -0.00050685 -0.03046133 -0.05860954 0.77647059 0.86666667 0.97647059
v 0.00224762 -0.03045514 -0.05842789 0.77647059 0.86666667 0.97647059
v 0.00060217 -0.03094757 -0.05728736 0.77647059 0.86666667 0.97647059
v 0.00180664 -0.03113959 -0.05608133 0.77647059 0.86666667 0.97647059
v -0.00659169 -0.02986669 -0.05843384 0.77647059 0.86666667 0.97647059
v -0.00731569 -0.03017330 -0.05558402 0.77647059 0.86666667 0.97647059
v -0.01097186 -0.02898712 -0.05563762 0.77647059 0.86666667 0.97647059
v -0.01335445 -0.02777927 -0.05798121 0.77647059 0.86666667 0.97647059
v -0.00784223 -0.02947646 -0.05849340 0.77647059 0.86666667 0.97647059
v -0.00784223 -0.02909862 -0.05922000 0.77647059 0.86666667 0.97647059
v -0.00663447 -0.02925037 -0.05933316 0.77647059 0.86666667 0.97647059
v -0.00543001 -0.02936187 -0.05940463 0.77647059 0.86666667 0.97647059
v -0.00422226 -0.02947956 -0.05943739 0.77647059 0.86666667 0.97647059
v -0.00855306 -0.02898712 -0.05913662 0.77647059 0.86666667 0.97647059
v 0.00224762 -0.03110861 -0.05608133 0.77647059 0.86666667 0.97647059
v -0.00904669 -0.02860928 -0.03031974 0.77647059 0.86666667 0.97647059
v -0.01025444 -0.02817879 -0.03031974 0.77647059 0.86666667 0.97647059
v -0.01025444 -0.02968706 -0.03919976 0.77647059 0.86666667 0.97647059
v -0.01145891 -0.02938974 -0.04040580 0.77647059 0.86666667 0.97647059
v -0.01227175 -0.02905526 -0.04161184 0.77647059 0.86666667 0.97647059
v -0.01222239 -0.02902738 -0.04040580 0.77647059 0.86666667 0.97647059
v -0.01523355 -0.02752221 -0.04040580 0.77647059 0.86666667 0.97647059
v -0.01225530 -0.02904906 -0.04281788 0.77647059 0.86666667 0.97647059
v -0.01357165 -0.02789386 -0.05487529 0.77647059 0.86666667 0.97647059
v 0.00224762 -0.02830886 -0.06005976 0.77647059 0.86666667 0.97647059
v -0.00301779 -0.02833983 -0.05997341 0.77647059 0.86666667 0.97647059
v -0.00422226 -0.02833983 -0.05995554 0.77647059 0.86666667 0.97647059
v -0.00784223 -0.02713507 -0.06011634 0.77647059 0.86666667 0.97647059
v -0.01145891 -0.02512198 -0.06026524 0.77647059 0.86666667 0.97647059
v -0.00543001 -0.02833983 -0.05992874 0.77647059 0.86666667 0.97647059
v -0.01245275 -0.02430745 -0.06033372 0.77647059 0.86666667 0.97647059
v -0.01325573 -0.02411233 -0.06030097 0.77647059 0.86666667 0.97647059
v -0.01463790 -0.02304384 -0.06033968 0.77647059 0.86666667 0.97647059
v -0.01869226 -0.01869246 -0.06052729 0.77647059 0.86666667 0.97647059
v -0.01989673 -0.01748770 -0.06055409 0.77647059 0.86666667 0.97647059
v -0.02472116 -0.00663556 -0.06064343 0.77647059 0.86666667 0.97647059
v -0.02592891 -0.00542770 -0.06056302 0.77647059 0.86666667 0.97647059
v -0.02680758 -0.00422294 -0.06040222 0.77647059 0.86666667 0.97647059
v -0.02592891 -0.00027108 -0.06058983 0.77647059 0.86666667 0.97647059
v -0.02472116 -0.00784032 -0.06057493 0.77647059 0.86666667 0.97647059
v -0.02556692 -0.00904818 -0.06036351 0.77647059 0.86666667 0.97647059
v -0.02910461 -0.00662627 -0.05730523 0.77647059 0.86666667 0.97647059
v -0.02889400 -0.00701960 -0.05772213 0.77647059 0.86666667 0.97647059
v -0.02880514 -0.00786819 -0.05730523 0.77647059 0.86666667 0.97647059
v -0.02938763 -0.00542770 -0.05728736 0.77647059 0.86666667 0.97647059
v -0.02773890 -0.01085377 -0.05788889 0.77647059 0.86666667 0.97647059
v -0.02801533 -0.01037372 -0.05740648 0.77647059 0.86666667 0.97647059
v -0.02663974 -0.01350796 -0.05807948 0.77647059 0.86666667 0.97647059
v -0.02560641 -0.01507817 -0.05823433 0.77647059 0.86666667 0.97647059
v -0.02538263 -0.01575953 -0.05795738 0.77647059 0.86666667 0.97647059
v -0.02296383 -0.01938310 -0.05795441 0.77647059 0.86666667 0.97647059
v -0.02271372 -0.02018834 -0.05728736 0.77647059 0.86666667 0.97647059
v -0.02211149 -0.02094403 -0.05728736 0.77647059 0.86666667 0.97647059
v -0.02220034 -0.02105862 -0.05608133 0.77647059 0.86666667 0.97647059
v -0.02166393 -0.02166255 -0.05608133 0.77647059 0.86666667 0.97647059
v -0.02296054 -0.02175236 -0.04370826 0.77647059 0.86666667 0.97647059
v -0.02295725 -0.02175236 -0.04281788 0.77647059 0.86666667 0.97647059
v -0.02292763 -0.02172139 -0.04215083 0.77647059 0.86666667 0.97647059
v -0.02401362 -0.02038036 -0.04161184 0.77647059 0.86666667 0.97647059
v -0.02156850 -0.02033390 -0.03031974 0.77647059 0.86666667 0.97647059
v -0.02206542 -0.01972998 -0.03031974 0.77647059 0.86666667 0.97647059
v -0.02228262 -0.01946363 -0.03031974 0.77647059 0.86666667 0.97647059
v -0.02266765 -0.01898978 -0.03031974 0.77647059 0.86666667 0.97647059
v -0.02297370 -0.01860574 -0.03031974 0.77647059 0.86666667 0.97647059
v -0.03061513 -0.00027108 -0.05366925 0.77647059 0.86666667 0.97647059
v -0.03038477 -0.00027108 -0.05487529 0.77647059 0.86666667 0.97647059
v -0.03038806 -0.00060556 -0.05487529 0.77647059 0.86666667 0.97647059
v -0.03019061 -0.00181032 -0.05565847 0.77647059 0.86666667 0.97647059
v -0.03004910 -0.00302128 -0.05600986 0.77647059 0.86666667 0.97647059
v -0.02961141 -0.00422294 -0.05728736 0.77647059 0.86666667 0.97647059
v -0.00313297 -0.02966848 -0.05939570 0.77647059 0.86666667 0.97647059
v -0.00181004 -0.02954769 -0.05949992 0.77647059 0.86666667 0.97647059
v 0.00224762 -0.02949504 -0.05947908 0.77647059 0.86666667 0.97647059
v 0.00224762 -0.03009587 -0.05903240 0.77647059 0.86666667 0.97647059
v 0.00224762 -0.03088563 -0.05728736 0.77647059 0.86666667 0.97647059
v 0.00180664 -0.03090421 -0.05728736 0.77647059 0.86666667 0.97647059
v -0.01398301 -0.02750053 -0.05728736 0.77647059 0.86666667 0.97647059
v -0.01517760 -0.02684085 -0.05731714 0.77647059 0.86666667 0.97647059
v -0.01564820 -0.02651256 -0.05774298 0.77647059 0.86666667 0.97647059
v -0.01484522 -0.02676652 -0.05824028 0.77647059 0.86666667 0.97647059
v -0.01295626 -0.02753150 -0.05878523 0.77647059 0.86666667 0.97647059
v -0.01215328 -0.02778236 -0.05913960 0.77647059 0.86666667 0.97647059
v -0.01259755 -0.02789076 -0.05842789 0.77647059 0.86666667 0.97647059
v -0.01025444 -0.02805800 -0.05938378 0.77647059 0.86666667 0.97647059
v -0.00899074 -0.02839248 -0.05943441 0.77647059 0.86666667 0.97647059
v -0.00784223 -0.02833983 -0.05967860 0.77647059 0.86666667 0.97647059
v -0.00663447 -0.02833983 -0.05983940 0.77647059 0.86666667 0.97647059
v -0.01145891 -0.02787527 -0.05923489 0.77647059 0.86666667 0.97647059
v -0.01109691 -0.02784740 -0.03031974 0.77647059 0.86666667 0.97647059
v -0.01213683 -0.02897783 -0.03964049 0.77647059 0.86666667 0.97647059
v -0.01456221 -0.02777927 -0.03955115 0.77647059 0.86666667 0.97647059
v -0.01628005 -0.02696473 -0.04040580 0.77647059 0.86666667 0.97647059
v -0.01628005 -0.02695854 -0.04161184 0.77647059 0.86666667 0.97647059
v -0.01417388 -0.02757486 -0.05487529 0.77647059 0.86666667 0.97647059
v -0.00904669 -0.02713507 -0.06002105 0.77647059 0.86666667 0.97647059
v -0.01025444 -0.02592722 -0.06018781 0.77647059 0.86666667 0.97647059
v -0.01145891 -0.02592722 -0.06007763 0.77647059 0.86666667 0.97647059
v -0.01277855 -0.02471626 -0.06021461 0.77647059 0.86666667 0.97647059
v -0.01266666 -0.02592722 -0.05987514 0.77647059 0.86666667 0.97647059
v -0.01602665 -0.02190722 -0.06035457 0.77647059 0.86666667 0.97647059
v -0.01682963 -0.02165635 -0.06029204 0.77647059 0.86666667 0.97647059
v -0.01979471 -0.01861503 -0.06037542 0.77647059 0.86666667 0.97647059
v -0.02056149 -0.01816286 -0.06032480 0.77647059 0.86666667 0.97647059
v -0.02075894 -0.01748770 -0.06038137 0.77647059 0.86666667 0.97647059
v -0.02541225 -0.00978528 -0.06032480 0.77647059 0.86666667 0.97647059
v -0.02579399 -0.00784032 -0.06041413 0.77647059 0.86666667 0.97647059
v -0.02604080 -0.00674086 -0.06044986 0.77647059 0.86666667 0.97647059
v -0.02673847 -0.00542770 -0.06038733 0.77647059 0.86666667 0.97647059
v -0.02676809 -0.00027108 -0.06038733 0.77647059 0.86666667 0.97647059
v -0.02740981 -0.00422294 -0.06015506 0.77647059 0.86666667 0.97647059
v -0.02738677 -0.00301818 -0.06016994 0.77647059 0.86666667 0.97647059
v -0.02737361 -0.00027108 -0.06015803 0.77647059 0.86666667 0.97647059
v -0.02639622 -0.00784032 -0.06026226 0.77647059 0.86666667 0.97647059
v -0.02651798 -0.00721161 -0.06029799 0.77647059 0.86666667 0.97647059
v -0.02898614 -0.00621745 -0.05796334 0.77647059 0.86666667 0.97647059
v -0.02798571 -0.00899243 -0.05853211 0.77647059 0.86666667 0.97647059
v -0.02786395 -0.01005163 -0.05815690 0.77647059 0.86666667 0.97647059
v -0.02907500 -0.00542770 -0.05812117 0.77647059 0.86666667 0.97647059
v -0.02765992 -0.00935788 -0.05896093 0.77647059 0.86666667 0.97647059
v -0.02754145 -0.01037372 -0.05853211 0.77647059 0.86666667 0.97647059
v -0.02676809 -0.01258194 -0.05848447 0.77647059 0.86666667 0.97647059
v -0.02638964 -0.01293190 -0.05888350 0.77647059 0.86666667 0.97647059
v -0.02601448 -0.01398181 -0.05857976 0.77647059 0.86666667 0.97647059
v -0.02531352 -0.01445876 -0.05908302 0.77647059 0.86666667 0.97647059
v -0.02191075 -0.02071794 -0.05811224 0.77647059 0.86666667 0.97647059
v -0.02151913 -0.02154796 -0.05728736 0.77647059 0.86666667 0.97647059
v -0.02172646 -0.02293235 -0.04356532 0.77647059 0.86666667 0.97647059
v -0.02105841 -0.02221073 -0.05608133 0.77647059 0.86666667 0.97647059
v -0.02051870 -0.02413401 -0.04237418 0.77647059 0.86666667 0.97647059
v -0.02173962 -0.02294474 -0.04281788 0.77647059 0.86666667 0.97647059
v -0.02234185 -0.02235629 -0.04281788 0.77647059 0.86666667 0.97647059
v -0.02051870 -0.02413401 -0.04190665 0.77647059 0.86666667 0.97647059
v -0.02049567 -0.02411543 -0.04110262 0.77647059 0.86666667 0.97647059
v -0.02331924 -0.02117631 -0.04169224 0.77647059 0.86666667 0.97647059
v -0.02043972 -0.02405658 -0.04040580 0.77647059 0.86666667 0.97647059
v -0.02098601 -0.02345575 -0.04040580 0.77647059 0.86666667 0.97647059
v -0.02096626 -0.02100287 -0.03031974 0.77647059 0.86666667 0.97647059
v -0.03024984 -0.00027108 -0.05547384 0.77647059 0.86666667 0.97647059
v -0.03020377 -0.00060556 -0.05570313 0.77647059 0.86666667 0.97647059
v -0.03005897 -0.00181032 -0.05626297 0.77647059 0.86666667 0.97647059
v -0.02974305 -0.00301818 -0.05728736 0.77647059 0.86666667 0.97647059
v -0.02919018 -0.00422294 -0.05831175 0.77647059 0.86666667 0.97647059
v -0.01507559 -0.02699261 -0.05608133 0.77647059 0.86666667 0.97647059
v -0.01571731 -0.02656211 -0.05693895 0.77647059 0.86666667 0.97647059
v -0.01618461 -0.02615020 -0.05731714 0.77647059 0.86666667 0.97647059
v -0.01704682 -0.02546885 -0.05728736 0.77647059 0.86666667 0.97647059
v -0.01696126 -0.02539762 -0.05799014 0.77647059 0.86666667 0.97647059
v -0.01439766 -0.02646611 -0.05904431 0.77647059 0.86666667 0.97647059
v -0.01359469 -0.02672626 -0.05923787 0.77647059 0.86666667 0.97647059
v -0.01259755 -0.02713197 -0.05935103 0.77647059 0.86666667 0.97647059
v -0.01145891 -0.02713507 -0.05965180 0.77647059 0.86666667 0.97647059
v -0.01025444 -0.02713507 -0.05988109 0.77647059 0.86666667 0.97647059
v -0.01131411 -0.02775139 -0.03031974 0.77647059 0.86666667 0.97647059
v -0.01266666 -0.02711649 -0.03031974 0.77647059 0.86666667 0.97647059
v -0.01500648 -0.02749743 -0.03916998 0.77647059 0.86666667 0.97647059
v -0.01691190 -0.02654663 -0.03971791 0.77647059 0.86666667 0.97647059
v -0.01696126 -0.02657760 -0.04040580 0.77647059 0.86666667 0.97647059
v -0.01697772 -0.02658689 -0.04161184 0.77647059 0.86666667 0.97647059
v -0.01507559 -0.02705145 -0.05487529 0.77647059 0.86666667 0.97647059
v -0.01394681 -0.02601084 -0.05945228 0.77647059 0.86666667 0.97647059
v -0.01748780 -0.02230984 -0.05979771 0.77647059 0.86666667 0.97647059
v -0.01757666 -0.02119489 -0.06021461 0.77647059 0.86666667 0.97647059
v -0.02012709 -0.01896810 -0.06019377 0.77647059 0.86666667 0.97647059
v -0.02102221 -0.01861503 -0.05993172 0.77647059 0.86666667 0.97647059
v -0.02136117 -0.01748770 -0.06015803 0.77647059 0.86666667 0.97647059
v -0.02483634 -0.01398181 -0.05960117 0.77647059 0.86666667 0.97647059
v -0.02461585 -0.01256645 -0.06010145 0.77647059 0.86666667 0.97647059
v -0.02617244 -0.00904818 -0.06018483 0.77647059 0.86666667 0.97647059
v -0.02661671 -0.00640638 -0.06034266 0.77647059 0.86666667 0.97647059
v -0.02734070 -0.00542770 -0.06005381 0.77647059 0.86666667 0.97647059
v -0.02821937 -0.00422294 -0.05955352 0.77647059 0.86666667 0.97647059
v -0.02829506 -0.00301818 -0.05956543 0.77647059 0.86666667 0.97647059
v -0.02845631 -0.00184749 -0.05947908 0.77647059 0.86666667 0.97647059
v -0.02834113 -0.00060556 -0.05957735 0.77647059 0.86666667 0.97647059
v -0.02834113 -0.00027108 -0.05958033 0.77647059 0.86666667 0.97647059
v -0.02720907 -0.00899243 -0.05950290 0.77647059 0.86666667 0.97647059
v -0.02776523 -0.00855265 -0.05912471 0.77647059 0.86666667 0.97647059
v -0.02882160 -0.00422294 -0.05891328 0.77647059 0.86666667 0.97647059
v -0.02868996 -0.00542770 -0.05872567 0.77647059 0.86666667 0.97647059
v -0.02688985 -0.01025294 -0.05942845 0.77647059 0.86666667 0.97647059
v -0.02655747 -0.01212667 -0.05912173 0.77647059 0.86666667 0.97647059
v -0.02558337 -0.01365662 -0.05933018 0.77647059 0.86666667 0.97647059
v -0.02176266 -0.01938310 -0.05913960 0.77647059 0.86666667 0.97647059
v -0.02143686 -0.02018524 -0.05891626 0.77647059 0.86666667 0.97647059
v -0.02223654 -0.01978263 -0.05843384 0.77647059 0.86666667 0.97647059
v -0.01570085 -0.02534497 -0.05910982 0.77647059 0.86666667 0.97647059
v -0.01650712 -0.02497022 -0.05879417 0.77647059 0.86666667 0.97647059
v -0.02047263 -0.02409685 -0.04317820 0.77647059 0.86666667 0.97647059
v -0.02036403 -0.02281156 -0.05608133 0.77647059 0.86666667 0.97647059
v -0.02000204 -0.02449637 -0.04279108 0.77647059 0.86666667 0.97647059
v -0.01915957 -0.02523037 -0.04161184 0.77647059 0.86666667 0.97647059
v -0.02001520 -0.02453353 -0.04154633 0.77647059 0.86666667 0.97647059
v -0.01912995 -0.02520250 -0.04040580 0.77647059 0.86666667 0.97647059
v -0.01983749 -0.02459857 -0.04040580 0.77647059 0.86666667 0.97647059
v -0.02039036 -0.02160370 -0.03031974 0.77647059 0.86666667 0.97647059
v -0.02075894 -0.02121967 -0.03031974 0.77647059 0.86666667 0.97647059
v -0.01966637 -0.02445611 -0.03919976 0.77647059 0.86666667 0.97647059
v -0.03020048 -0.00027108 -0.05569122 0.77647059 0.86666667 0.97647059
v -0.03009517 -0.00027108 -0.05612897 0.77647059 0.86666667 0.97647059
v -0.03005897 -0.00060556 -0.05630466 0.77647059 0.86666667 0.97647059
v -0.02979241 -0.00181032 -0.05728736 0.77647059 0.86666667 0.97647059
v -0.02925600 -0.00301818 -0.05842789 0.77647059 0.86666667 0.97647059
v -0.02889729 -0.00301818 -0.05902942 0.77647059 0.86666667 0.97647059
v -0.01757995 -0.02623383 -0.04161184 0.77647059 0.86666667 0.97647059
v -0.01576009 -0.02658999 -0.05608133 0.77647059 0.86666667 0.97647059
v -0.01353874 -0.02668290 -0.03031974 0.77647059 0.86666667 0.97647059
v -0.01633599 -0.02679749 -0.03926825 0.77647059 0.86666667 0.97647059
v -0.01738249 -0.02615949 -0.03926825 0.77647059 0.86666667 0.97647059
v -0.01852772 -0.02561751 -0.04040580 0.77647059 0.86666667 0.97647059
v -0.01756349 -0.02622144 -0.04040580 0.77647059 0.86666667 0.97647059
v -0.01414097 -0.02634532 -0.03031974 0.77647059 0.86666667 0.97647059
v -0.01473992 -0.02599225 -0.03031974 0.77647059 0.86666667 0.97647059
v -0.01507559 -0.02578475 -0.03031974 0.77647059 0.86666667 0.97647059
v -0.01550669 -0.02551531 -0.03031974 0.77647059 0.86666667 0.97647059
v -0.02063388 -0.02060645 -0.05916938 0.77647059 0.86666667 0.97647059
v -0.01979471 -0.01978882 -0.05995554 0.77647059 0.86666667 0.97647059
v -0.02106499 -0.01982908 -0.05934210 0.77647059 0.86666667 0.97647059
v -0.02199631 -0.01869246 -0.05931827 0.77647059 0.86666667 0.97647059
v -0.02596182 -0.01258194 -0.05942548 0.77647059 0.86666667 0.97647059
v -0.02585981 -0.01021268 -0.06005678 0.77647059 0.86666667 0.97647059
v -0.02808773 -0.00542770 -0.05945228 0.77647059 0.86666667 0.97647059
v -0.02893349 -0.00227488 -0.05908302 0.77647059 0.86666667 0.97647059
v -0.02895981 -0.00146964 -0.05911280 0.77647059 0.86666667 0.97647059
v -0.02896311 -0.00060556 -0.05911876 0.77647059 0.86666667 0.97647059
v -0.02896640 -0.00027108 -0.05911876 0.77647059 0.86666667 0.97647059
v -0.01855734 -0.02562990 -0.04161184 0.77647059 0.86666667 0.97647059
v -0.01895883 -0.02506004 -0.03919976 0.77647059 0.86666667 0.97647059
v -0.01835659 -0.02551221 -0.03919976 0.77647059 0.86666667 0.97647059
v -0.02000533 -0.02195058 -0.03031974 0.77647059 0.86666667 0.97647059
v -0.01825129 -0.02350221 -0.03031974 0.77647059 0.86666667 0.97647059
v -0.01872188 -0.02309030 -0.03031974 0.77647059 0.86666667 0.97647059
v -0.03005568 -0.00027108 -0.05629275 0.77647059 0.86666667 0.97647059
v -0.02979570 -0.00060556 -0.05728736 0.77647059 0.86666667 0.97647059
v -0.02930536 -0.00060556 -0.05849340 0.77647059 0.86666667 0.97647059
v -0.02922309 -0.00184749 -0.05860656 0.77647059 0.86666667 0.97647059
v -0.01573705 -0.02536664 -0.03031974 0.77647059 0.86666667 0.97647059
v -0.02930207 -0.00027108 -0.05849340 0.77647059 0.86666667 0.97647059
v -0.01718833 -0.02434461 -0.03031974 0.77647059 0.86666667 0.97647059
v -0.01779385 -0.02388625 -0.03031974 0.77647059 0.86666667 0.97647059
v -0.01595425 -0.02522418 -0.03031974 0.77647059 0.86666667 0.97647059
v -0.01634257 -0.02494854 -0.03031974 0.77647059 0.86666667 0.97647059
v -0.02986481 -0.00027108 -0.05700446 0.77647059 0.86666667 0.97647059
v -0.02978583 -0.00027108 -0.05728736 0.77647059 0.86666667 0.97647059
f 1 2 6
f 1 6 15
f 1 15 26
f 1 26 45
f 1 45 44
f 1 44 71
f 1 71 95
f 1 95 124
f 1 124 123
f 1 123 166
f 1 166 165
f 1 165 164
f 1 164 213
f 1 213 212
f 1 212 259
f 1 259 320
f 1 320 393
f 1 393 453
f 1 453 380
f 1 380 452
f 1 452 451
f 1 451 403
f 1 403 335
f 1 335 334
f 1 334 268
f 1 268 214
f 1 214 167
f 1 167 126
f 1 126 97
f 1 97 73
f 1 73 48
f 1 48 30
f 1 30 28
f 1 28 16
f 1 16 7
f 1 7 3
f 1 3 8
f 1 8 18
f 1 18 17
f 1 17 29
f 1 29 47
f 1 47 50
f 1 50 49
f 1 49 74
f 1 74 99
f 1 99 98
f 1 98 127
f 1 127 168
f 1 168 215
f 1 215 273
f 1 273 342
f 1 342 417
f 1 417 487
f 1 487 490
f 1 490 553
f 1 553 603
f 1 603 615
f 1 615 621
f 1 621 620
f 1 620 610
f 1 610 577
f 1 577 576
f 1 576 516
f 1 516 444
f 1 444 443
f 1 443 367
f 1 367 366
f 1 366 294
f 1 294 245
f 1 245 186
f 1 186 185
f 1 185 144
f 1 144 107
f 1 107 79
f 1 79 78
f 1 78 54
f 1 54 53
f 1 53 34
f 1 34 33
f 1 33 31
f 1 31 19
f 1 19 9
f 1 9 4
f 1 4 10
f 1 10 21
f 1 21 36
f 1 36 38
f 1 38 59
f 1 59 58
f 1 58 62
f 1 62 84
f 1 84 110
f 1 110 149
f 1 149 148
f 1 148 147
f 1 147 146
f 1 146 145
f 1 145 188
f 1 188 246
f 1 246 292
f 1 292 293
f 1 293 291
f 1 291 233
f 1 233 232
f 1 232 231
f 1 231 290
f 1 290 289
f 1 289 288
f 1 288 287
f 1 287 365
f 1 365 364
f 1 364 442
f 1 442 441
f 1 441 440
f 1 440 439
f 1 439 438
f 1 438 515
f 1 515 574
f 1 574 573
f 1 573 607
f 1 607 609
f 1 609 608
f 1 608 617
f 1 617 616
f 1 616 619
f 1 619 618
f 1 618 614
f 1 614 592
f 1 592 591
f 1 591 590
f 1 590 589
f 1 589 584
f 1 584 532
f 1 532 531
f 1 531 467
f 1 467 395
f 1 395 394
f 1 394 375
f 1 375 303
f 1 303 302
f 1 302 301
f 1 301 247
f 1 247 190
f 1 190 189
f 1 189 150
f 1 150 111
f 1 111 113
f 1 113 88
f 1 88 65
f 1 65 63
f 1 63 39
f 1 39 23
f 1 23 11
f 1 11 5
f 1 5 2
f 2 5 6
f 3 7 8
f 4 9 10
f 5 11 12
f 5 12 13
f 5 13 6
f 6 13 14
f 6 14 15
f 7 16 17
f 7 17 18
f 7 18 8
f 9 19 20
f 9 20 10
f 10 20 22
f 10 22 21
f 11 23 24
f 11 24 12
f 12 14 13
f 12 24 14
f 14 25 26
f 14 26 15
f 14 24 27
f 14 27 25
f 16 28 17
f 17 28 30
f 17 30 29
f 19 31 20
f 20 32 22
f 20 31 33
f 20 33 34
f 20 34 35
f 20 35 32
f 21 22 36
f 22 32 37
f 22 37 38
f 22 38 36
f 23 39 40
f 23 40 24
f 24 40 41
f 24 41 42
f 24 42 27
f 25 43 44
f 25 44 45
f 25 45 26
f 25 27 43
f 27 46 43
f 27 42 46
f 29 30 47
f 30 48 49
f 30 49 50
f 30 50 47
f 32 51 37
f 32 35 52
f 32 52 51
f 34 53 35
f 35 54 55
f 35 55 56
f 35 56 57
f 35 57 52
f 35 53 54
f 37 58 59
f 37 59 38
f 37 51 60
f 37 60 61
f 37 61 62
f 37 62 58
f 39 63 41
f 39 41 40
f 41 64 67
f 41 67 42
f 41 63 65
f 41 65 64
f 42 66 46
f 42 67 68
f 42 68 66
f 43 69 70
f 43 70 71
f 43 71 44
f 43 46 69
f 46 72 69
f 46 66 72
f 48 73 74
f 48 74 49
f 51 52 75
f 51 75 76
f 51 76 60
f 52 57 77
f 52 77 75
f 54 78 55
f 55 79 56
f 55 78 79
f 56 79 80
f 56 80 57
f 57 80 81
f 57 81 77
f 60 76 82
f 60 82 61
f 61 82 83
f 61 83 84
f 61 84 62
f 64 65 85
f 64 85 86
f 64 86 87
f 64 87 67
f 65 88 86
f 65 86 85
f 66 89 72
f 66 68 89
f 67 87 90
f 67 90 91
f 67 91 68
f 68 92 89
f 68 91 119
f 68 119 92
f 69 93 122
f 69 122 94
f 69 94 70
f 69 72 93
f 70 94 95
f 70 95 71
f 72 96 93
f 72 89 96
f 73 97 98
f 73 98 99
f 73 99 74
f 75 100 101
f 75 101 76
f 75 77 100
f 76 102 103
f 76 103 82
f 76 101 102
f 77 104 105
f 77 105 100
f 77 81 106
f 77 106 104
f 79 107 80
f 80 107 108
f 80 108 81
f 81 108 106
f 82 109 83
f 82 103 109
f 83 109 110
f 83 110 84
f 86 111 112
f 86 112 87
f 86 88 113
f 86 113 111
f 87 112 114
f 87 114 90
f 89 115 96
f 89 92 115
f 90 114 116
f 90 116 117
f 90 117 91
f 91 117 118
f 91 118 157
f 91 157 119
f 92 120 115
f 92 119 120
f 93 121 163
f 93 163 122
f 93 96 121
f 94 122 123
f 94 123 124
f 94 124 95
f 96 125 121
f 96 115 125
f 97 126 98
f 98 126 127
f 100 105 128
f 100 128 129
f 100 129 130
f 100 130 101
f 101 131 102
f 101 130 132
f 101 132 131
f 102 133 134
f 102 134 135
f 102 135 136
f 102 136 103
f 102 131 137
f 102 137 133
f 103 136 109
f 104 106 138
f 104 138 105
f 105 138 139
f 105 139 140
f 105 140 128
f 106 108 141
f 106 141 142
f 106 142 143
f 106 143 138
f 107 144 141
f 107 141 108
f 109 136 135
f 109 135 145
f 109 145 146
f 109 146 147
f 109 147 148
f 109 148 149
f 109 149 110
f 111 150 112
f 112 151 114
f 112 150 151
f 114 151 152
f 114 152 116
f 115 153 154
f 115 154 155
f 115 155 125
f 115 120 153
f 116 152 156
f 116 156 117
f 117 156 118
f 118 156 158
f 118 158 159
f 118 159 157
f 119 157 160
f 119 160 161
f 119 161 120
f 120 161 153
f 121 162 163
f 121 125 162
f 122 163 164
f 122 164 165
f 122 165 166
f 122 166 123
f 125 155 162
f 126 167 168
f 126 168 127
f 128 140 169
f 128 169 170
f 128 170 129
f 129 170 171
f 129 171 172
f 129 172 173
f 129 173 130
f 130 173 174
f 130 174 132
f 131 132 137
f 132 174 133
f 132 133 175
f 132 175 137
f 133 176 177
f 133 177 134
f 133 137 175
f 133 174 176
f 134 177 178
f 134 178 179
f 134 179 180
f 134 180 181
f 134 181 135
f 135 181 145
f 138 143 182
f 138 182 139
f 139 182 183
f 139 183 243
f 139 243 184
f 139 184 140
f 140 184 169
f 141 185 186
f 141 186 187
f 141 187 143
f 141 143 142
f 141 144 185
f 143 187 182
f 145 181 188
f 150 189 151
f 151 189 190
f 151 190 191
f 151 191 192
f 151 192 152
f 152 192 156
f 153 193 194
f 153 194 195
f 153 195 196
f 153 196 197
f 153 197 198
f 153 198 155
f 153 155 154
f 153 161 199
f 153 199 200
f 153 200 193
f 155 201 202
f 155 202 162
f 155 198 201
f 156 192 158
f 157 203 160
f 157 159 204
f 157 204 203
f 158 192 205
f 158 205 159
f 159 206 204
f 159 205 207
f 159 207 208
f 159 208 263
f 159 263 206
f 160 203 209
f 160 209 161
f 161 209 199
f 162 202 210
f 162 210 211
f 162 211 163
f 163 211 212
f 163 212 213
f 163 213 164
f 167 214 168
f 168 214 216
f 168 216 215
f 169 184 217
f 169 217 170
f 170 217 218
f 170 218 219
f 170 219 220
f 170 220 221
f 170 221 171
f 171 221 222
f 171 222 223
f 171 223 172
f 172 223 173
f 173 223 224
f 173 224 174
f 174 224 176
f 176 224 225
f 176 225 177
f 177 226 227
f 177 227 228
f 177 228 178
f 177 225 226
f 178 228 229
f 178 229 179
f 179 229 230
f 179 230 231
f 179 231 232
f 179 232 233
f 179 233 234
f 179 234 180
f 180 234 235
f 180 235 236
f 180 236 181
f 181 236 237
f 181 237 188
f 182 238 239
f 182 239 295
f 182 295 240
f 182 240 183
f 182 187 238
f 183 240 241
f 183 241 242
f 183 242 298
f 183 298 243
f 184 243 244
f 184 244 217
f 186 245 238
f 186 238 187
f 188 237 246
f 190 247 191
f 191 247 248
f 191 248 205
f 191 205 192
f 193 200 249
f 193 249 194
f 194 250 196
f 194 196 195
f 194 249 251
f 194 251 252
f 194 252 250
f 196 253 197
f 196 250 254
f 196 254 253
f 197 253 198
f 198 253 201
f 199 209 200
f 200 209 203
f 200 203 255
f 200 255 256
f 200 256 249
f 201 253 202
f 202 257 258
f 202 258 259
f 202 259 210
f 202 253 257
f 203 204 255
f 204 206 260
f 204 260 255
f 205 248 261
f 205 261 207
f 206 262 255
f 206 255 260
f 206 263 262
f 207 261 264
f 207 264 265
f 207 265 208
f 208 265 266
f 208 266 267
f 208 267 263
f 210 259 211
f 211 259 212
f 214 268 269
f 214 269 270
f 214 270 271
f 214 271 272
f 214 272 216
f 215 216 274
f 215 274 273
f 216 272 274
f 217 244 218
f 218 275 276
f 218 276 220
f 218 220 219
f 218 244 275
f 220 276 277
f 220 277 278
f 220 278 221
f 221 278 222
f 222 278 223
f 223 278 279
f 223 279 280
f 223 280 281
f 223 281 224
f 224 281 282
f 224 282 225
f 225 282 283
f 225 283 227
f 225 227 226
f 227 283 284
f 227 284 228
f 228 285 229
f 228 284 285
f 229 285 286
f 229 286 287
f 229 287 288
f 229 288 289
f 229 289 290
f 229 290 231
f 229 231 230
f 233 291 234
f 234 292 237
f 234 237 235
f 234 291 293
f 234 293 292
f 235 237 236
f 237 292 246
f 238 245 294
f 238 294 239
f 239 294 295
f 240 295 241
f 241 295 296
f 241 296 242
f 242 296 297
f 242 297 298
f 243 298 299
f 243 299 244
f 244 299 300
f 244 300 275
f 247 301 248
f 248 301 302
f 248 302 303
f 248 303 304
f 248 304 261
f 249 256 251
f 250 252 305
f 250 305 306
f 250 306 307
f 250 307 308
f 250 308 309
f 250 309 254
f 251 310 252
f 251 256 311
f 251 311 310
f 252 312 313
f 252 313 314
f 252 314 305
f 252 310 315
f 252 315 312
f 253 254 316
f 253 316 257
f 254 309 307
f 254 307 317
f 254 317 316
f 255 262 318
f 255 318 256
f 256 318 311
f 257 316 258
f 258 316 319
f 258 319 259
f 259 319 320
f 261 321 264
f 261 304 321
f 262 263 322
f 262 322 323
f 262 323 324
f 262 324 318
f 263 267 325
f 263 325 322
f 264 321 326
f 264 326 327
f 264 327 265
f 265 327 266
f 266 327 328
f 266 328 329
f 266 329 267
f 267 329 330
f 267 330 331
f 267 331 332
f 267 332 333
f 267 333 325
f 268 334 269
f 269 334 335
f 269 335 336
f 269 336 337
f 269 337 270
f 270 337 338
f 270 338 339
f 270 339 272
f 270 272 271
f 272 339 274
f 273 340 341
f 273 341 342
f 273 274 340
f 274 339 343
f 274 343 340
f 275 300 276
f 276 300 344
f 276 344 345
f 276 345 346
f 276 346 278
f 276 278 277
f 278 346 280
f 278 280 279
f 280 346 347
f 280 347 348
f 280 348 349
f 280 349 282
f 280 282 281
f 282 349 350
f 282 350 351
f 282 351 352
f 282 352 353
f 282 353 354
f 282 354 283
f 283 355 284
f 283 354 355
f 284 356 357
f 284 357 358
f 284 358 359
f 284 359 285
f 284 355 356
f 285 359 360
f 285 360 361
f 285 361 362
f 285 362 363
f 285 363 286
f 286 363 364
f 286 364 365
f 286 365 287
f 294 366 295
f 295 367 443
f 295 443 368
f 295 368 296
f 295 366 367
f 296 368 369
f 296 369 370
f 296 370 371
f 296 371 297
f 297 371 372
f 297 372 373
f 297 373 298
f 298 373 374
f 298 374 299
f 299 374 344
f 299 344 300
f 303 375 321
f 303 321 304
f 305 314 376
f 305 376 377
f 305 377 378
f 305 378 379
f 305 379 380
f 305 380 381
f 305 381 306
f 306 381 307
f 307 381 454
f 307 454 382
f 307 382 317
f 307 309 308
f 310 311 383
f 310 383 315
f 311 318 384
f 311 384 385
f 311 385 386
f 311 386 387
f 311 387 383
f 312 315 388
f 312 388 313
f 313 388 389
f 313 389 390
f 313 390 391
f 313 391 376
f 313 376 314
f 315 383 392
f 315 392 388
f 316 317 319
f 317 382 319
f 318 324 384
f 319 393 320
f 319 382 393
f 321 375 394
f 321 394 395
f 321 395 326
f 322 325 385
f 322 385 323
f 323 385 384
f 323 384 324
f 325 333 385
f 326 395 396
f 326 396 397
f 326 397 327
f 327 397 328
f 328 398 330
f 328 330 329
f 328 397 399
f 328 399 400
f 328 400 398
f 330 398 401
f 330 401 402
f 330 402 331
f 331 402 332
f 332 402 386
f 332 386 333
f 333 386 385
f 335 403 404
f 335 404 405
f 335 405 336
f 336 406 407
f 336 407 337
f 336 405 408
f 336 408 406
f 337 407 409
f 337 409 338
f 338 409 410
f 338 410 411
f 338 411 339
f 339 412 413
f 339 413 343
f 339 411 412
f 340 343 414
f 340 414 415
f 340 415 341
f 341 415 416
f 341 416 417
f 341 417 342
f 343 418 414
f 343 413 419
f 343 419 418
f 344 374 345
f 345 420 421
f 345 421 422
f 345 422 346
f 345 374 423
f 345 423 420
f 346 422 421
f 346 421 424
f 346 424 425
f 346 425 347
f 347 424 348
f 347 425 424
f 348 424 349
f 349 424 426
f 349 426 350
f 350 426 351
f 351 426 427
f 351 427 428
f 351 428 352
f 352 428 353
f 353 428 429
f 353 429 430
f 353 430 354
f 354 430 357
f 354 357 356
f 354 356 355
f 357 430 431
f 357 431 432
f 357 432 359
f 357 359 358
f 359 432 433
f 359 433 434
f 359 434 360
f 360 434 435
f 360 435 436
f 360 436 362
f 360 362 361
f 362 437 363
f 362 436 437
f 363 437 438
f 363 438 439
f 363 439 440
f 363 440 441
f 363 441 442
f 363 442 364
f 368 443 444
f 368 444 445
f 368 445 369
f 369 445 446
f 369 446 370
f 370 446 447
f 370 447 371
f 371 447 372
f 372 447 373
f 373 447 448
f 373 448 423
f 373 423 374
f 376 391 449
f 376 449 377
f 377 449 450
f 377 450 451
f 377 451 378
f 378 451 452
f 378 452 380
f 378 380 379
f 380 453 454
f 380 454 381
f 382 454 453
f 382 453 393
f 383 387 392
f 386 402 455
f 386 455 456
f 386 456 457
f 386 457 458
f 386 458 459
f 386 459 460
f 386 460 461
f 386 461 387
f 387 461 460
f 387 460 392
f 388 392 462
f 388 462 463
f 388 463 464
f 388 464 389
f 389 464 465
f 389 465 390
f 390 465 391
f 391 465 408
f 391 408 449
f 392 460 466
f 392 466 462
f 395 467 396
f 396 467 397
f 397 468 399
f 397 467 468
f 398 400 401
f 399 468 469
f 399 469 400
f 400 469 470
f 400 470 536
f 400 536 471
f 400 471 401
f 401 472 402
f 401 471 472
f 402 472 455
f 403 451 450
f 403 450 404
f 404 450 405
f 405 450 408
f 406 408 465
f 406 465 473
f 406 473 474
f 406 474 407
f 407 474 473
f 407 473 475
f 407 475 476
f 407 476 410
f 407 410 409
f 408 450 449
f 410 476 477
f 410 477 411
f 411 478 412
f 411 477 479
f 411 479 478
f 412 479 480
f 412 480 413
f 412 478 479
f 413 480 481
f 413 481 482
f 413 482 483
f 413 483 419
f 414 418 415
f 415 419 484
f 415 484 485
f 415 485 486
f 415 486 416
f 415 418 419
f 416 487 417
f 416 486 488
f 416 488 489
f 416 489 490
f 416 490 487
f 419 483 491
f 419 491 492
f 419 492 484
f 420 423 421
f 421 423 493
f 421 493 494
f 421 494 495
f 421 495 424
f 423 448 496
f 423 496 493
f 424 495 497
f 424 497 498
f 424 498 499
f 424 499 426
f 426 499 500
f 426 500 501
f 426 501 427
f 427 501 502
f 427 502 428
f 428 502 429
f 429 503 430
f 429 502 503
f 430 503 431
f 431 503 504
f 431 504 433
f 431 433 432
f 433 505 434
f 433 504 506
f 433 506 505
f 434 505 507
f 434 507 508
f 434 508 509
f 434 509 435
f 435 509 510
f 435 510 511
f 435 511 436
f 436 512 437
f 436 511 513
f 436 513 514
f 436 514 512
f 437 512 438
f 438 512 514
f 438 514 515
f 444 516 517
f 444 517 445
f 445 517 518
f 445 518 446
f 446 518 447
f 447 518 519
f 447 519 448
f 448 519 520
f 448 520 496
f 455 472 521
f 455 521 456
f 456 521 522
f 456 522 457
f 457 522 523
f 457 523 524
f 457 524 525
f 457 525 458
f 458 526 460
f 458 460 459
f 458 525 526
f 460 526 527
f 460 527 528
f 460 528 529
f 460 529 466
f 462 530 464
f 462 464 463
f 462 466 529
f 462 529 530
f 464 530 465
f 465 530 473
f 467 531 468
f 468 532 533
f 468 533 469
f 468 531 532
f 469 533 470
f 470 533 534
f 470 534 535
f 470 535 536
f 471 536 472
f 472 537 521
f 472 536 537
f 473 530 475
f 475 477 476
f 475 530 477
f 477 530 529
f 477 529 528
f 477 528 527
f 477 527 538
f 477 538 479
f 479 539 540
f 479 540 541
f 479 541 481
f 479 481 480
f 479 538 539
f 481 541 542
f 481 542 543
f 481 543 544
f 481 544 545
f 481 545 482
f 482 545 483
f 483 546 491
f 483 545 546
f 484 492 485
f 485 492 547
f 485 547 486
f 486 547 488
f 488 548 549
f 488 549 550
f 488 550 551
f 488 551 552
f 488 552 553
f 488 553 489
f 488 547 548
f 489 553 490
f 491 546 554
f 491 554 492
f 492 554 548
f 492 548 547
f 493 496 555
f 493 555 497
f 493 497 494
f 494 497 495
f 496 520 556
f 496 556 557
f 496 557 555
f 497 555 558
f 497 558 559
f 497 559 499
f 497 499 498
f 499 559 500
f 500 560 502
f 500 502 501
f 500 559 560
f 502 561 562
f 502 562 563
f 502 563 503
f 502 560 561
f 503 562 564
f 503 564 565
f 503 565 525
f 503 525 504
f 503 563 562
f 504 525 506
f 505 506 566
f 505 566 507
f 506 525 524
f 506 524 567
f 506 567 566
f 507 568 569
f 507 569 510
f 507 510 508
f 507 566 522
f 507 522 568
f 508 510 509
f 510 569 570
f 510 570 511
f 511 570 571
f 511 571 572
f 511 572 513
f 513 573 574
f 513 574 515
f 513 515 514
f 513 572 575
f 513 575 573
f 516 576 517
f 517 576 577
f 517 577 578
f 517 578 518
f 518 578 579
f 518 579 519
f 519 579 580
f 519 580 520
f 520 581 556
f 520 580 581
f 521 537 536
f 521 536 582
f 521 582 583
f 521 583 522
f 522 583 569
f 522 569 568
f 522 566 524
f 522 524 523
f 524 566 567
f 525 565 564
f 525 564 526
f 526 564 527
f 527 564 538
f 532 584 533
f 533 584 585
f 533 585 534
f 534 586 587
f 534 587 588
f 534 588 535
f 534 585 589
f 534 589 590
f 534 590 591
f 534 591 592
f 534 592 586
f 535 588 582
f 535 582 536
f 538 564 539
f 539 593 594
f 539 594 541
f 539 541 540
f 539 564 593
f 541 594 595
f 541 595 542
f 542 595 561
f 542 561 596
f 542 596 560
f 542 560 543
f 543 560 544
f 544 560 545
f 545 560 597
f 545 597 598
f 545 598 546
f 546 598 597
f 546 597 558
f 546 558 554
f 548 599 549
f 548 554 599
f 549 599 556
f 549 556 581
f 549 581 600
f 549 600 601
f 549 601 550
f 550 601 551
f 551 601 552
f 552 601 602
f 552 602 553
f 553 602 603
f 554 558 555
f 554 555 599
f 555 557 556
f 555 556 599
f 558 597 559
f 559 597 560
f 560 596 561
f 561 595 562
f 562 595 593
f 562 593 564
f 569 604 587
f 569 587 571
f 569 571 570
f 569 583 604
f 571 605 575
f 571 575 572
f 571 587 606
f 571 606 605
f 573 575 607
f 575 605 608
f 575 608 609
f 575 609 607
f 577 610 578
f 578 610 611
f 578 611 579
f 579 611 612
f 579 612 613
f 579 613 580
f 580 613 600
f 580 600 581
f 582 588 604
f 582 604 583
f 584 589 585
f 586 606 587
f 586 592 614
f 586 614 606
f 587 604 588
f 593 595 594
f 600 613 601
f 601 603 602
f 601 613 612
f 601 612 603
f 603 612 615
f 605 606 616
f 605 616 617
f 605 617 608
f 606 614 618
f 606 618 619
f 606 619 616
f 610 620 611
f 611 620 621
f 611 621 615
f 611 615 612

