# https://github.com/mikedh/trimesh
v 0.03038332 0.00082570 -0.03031974 0.56470588 0.92549020 0.07058824
v 0.03131262 0.00082570 -0.03923135 0.56470588 0.92549020 0.07058824
v 0.00224762 0.00082570 -0.03031974 0.56470588 0.92549020 0.07058824
v 0.03041182 0.00060220 -0.03031974 0.56470588 0.92549020 0.07058824
v 0.03130407 0.00082570 -0.04035090 0.56470588 0.92549020 0.07058824
v 0.03132688 0.00058305 -0.03924031 0.56470588 0.92549020 0.07058824
v 0.03136108 0.00016798 -0.03967022 0.56470588 0.92549020 0.07058824
v 0.03136108 0.00016798 -0.03988815 0.56470588 0.92549020 0.07058824
v 0.00224762 0.00082570 -0.05467515 0.56470588 0.92549020 0.07058824
v 0.00224762 -0.03015761 -0.03031974 0.56470588 0.92549020 0.07058824
v 0.03043178 0.00016798 -0.03031974 0.56470588 0.92549020 0.07058824
v 0.03077101 0.00082570 -0.05366905 0.56470588 0.92549020 0.07058824
v 0.03046314 -0.00060469 -0.03031974 0.56470588 0.92549020 0.07058824
v 0.03134113 -0.00060469 -0.03893280 0.56470588 0.92549020 0.07058824
v 0.03136964 -0.00060469 -0.03953587 0.56470588 0.92549020 0.07058824
v 0.03136964 -0.00060469 -0.03994786 0.56470588 0.92549020 0.07058824
v 0.02305435 0.00082570 -0.06027886 0.56470588 0.92549020 0.07058824
v 0.00224762 -0.01387094 -0.05849057 0.56470588 0.92549020 0.07058824
v 0.00224762 -0.03146029 -0.03915970 0.56470588 0.92549020 0.07058824
v 0.00311421 -0.03143794 -0.03908208 0.56470588 0.92549020 0.07058824
v 0.00422310 -0.03144752 -0.03932390 0.56470588 0.92549020 0.07058824
v 0.00243576 -0.03015123 -0.03031974 0.56470588 0.92549020 0.07058824
v 0.03066838 0.00082570 -0.05487518 0.56470588 0.92549020 0.07058824
v 0.03136679 -0.00148911 -0.03990905 0.56470588 0.92549020 0.07058824
v 0.03125276 -0.00301528 -0.04040464 0.56470588 0.92549020 0.07058824
v 0.03117009 -0.00422218 -0.04040464 0.56470588 0.92549020 0.07058824
v 0.03105892 -0.00542907 -0.04040464 0.56470588 0.92549020 0.07058824
v 0.03003554 -0.00422218 -0.05608131 0.56470588 0.92549020 0.07058824
v 0.03043178 -0.00181158 -0.03031974 0.56470588 0.92549020 0.07058824
v 0.03132973 -0.00185948 -0.03918358 0.56470588 0.92549020 0.07058824
v 0.03136679 -0.00148911 -0.03957468 0.56470588 0.92549020 0.07058824
v 0.00224762 -0.01507783 -0.05872344 0.56470588 0.92549020 0.07058824
v 0.02345344 0.00082570 -0.06033858 0.56470588 0.92549020 0.07058824
v 0.00224762 -0.02387730 -0.06033858 0.56470588 0.92549020 0.07058824
v 0.00224762 -0.02349416 -0.06028185 0.56470588 0.92549020 0.07058824
v 0.00224762 -0.02327385 -0.06024603 0.56470588 0.92549020 0.07058824
v 0.00224762 -0.03156246 -0.03995980 0.56470588 0.92549020 0.07058824
v 0.00422310 -0.03158481 -0.04040464 0.56470588 0.92549020 0.07058824
v 0.00542892 -0.03142198 -0.03952393 0.56470588 0.92549020 0.07058824
v 0.00269802 -0.03012888 -0.03031974 0.56470588 0.92549020 0.07058824
v 0.00618434 -0.03138366 -0.03967022 0.56470588 0.92549020 0.07058824
v 0.03046599 0.00082570 -0.05608131 0.56470588 0.92549020 0.07058824
v 0.03015242 -0.00242461 -0.05668735 0.56470588 0.92549020 0.07058824
v 0.03126416 -0.00301528 -0.03919851 0.56470588 0.92549020 0.07058824
v 0.03115869 -0.00422218 -0.03919851 0.56470588 0.92549020 0.07058824
v 0.03091924 -0.00663596 -0.04040464 0.56470588 0.92549020 0.07058824
v 0.02988446 -0.00542907 -0.05608131 0.56470588 0.92549020 0.07058824
v 0.02985880 -0.00422218 -0.05728743 0.56470588 0.92549020 0.07058824
v 0.03028640 -0.00306956 -0.03031974 0.56470588 0.92549020 0.07058824
v 0.02365299 0.00082570 -0.06036544 0.56470588 0.92549020 0.07058824
v 0.00224762 -0.02423490 -0.06038037 0.56470588 0.92549020 0.07058824
v 0.00224762 -0.03161674 -0.04040464 0.56470588 0.92549020 0.07058824
v 0.00224762 -0.03169337 -0.04117190 0.56470588 0.92549020 0.07058824
v 0.00224762 -0.03172849 -0.04161076 0.56470588 0.92549020 0.07058824
v 0.00224762 -0.03177000 -0.04237803 0.56470588 0.92549020 0.07058824
v 0.00422310 -0.03164228 -0.04161076 0.56470588 0.92549020 0.07058824
v 0.00542892 -0.03152096 -0.04040464 0.56470588 0.92549020 0.07058824
v 0.00299733 -0.03009695 -0.03031974 0.56470588 0.92549020 0.07058824
v 0.00631832 -0.03141559 -0.04040464 0.56470588 0.92549020 0.07058824
v 0.00691980 -0.03129107 -0.04040464 0.56470588 0.92549020 0.07058824
v 0.00784055 -0.03088877 -0.03919851 0.56470588 0.92549020 0.07058824
v 0.00660623 -0.03120806 -0.03924031 0.56470588 0.92549020 0.07058824
v 0.00663474 -0.02952543 -0.03031974 0.56470588 0.92549020 0.07058824
v 0.00542892 -0.02978086 -0.03031974 0.56470588 0.92549020 0.07058824
v 0.00465640 -0.02989580 -0.03031974 0.56470588 0.92549020 0.07058824
v 0.00422310 -0.02995966 -0.03031974 0.56470588 0.92549020 0.07058824
v 0.00347339 -0.03004587 -0.03031974 0.56470588 0.92549020 0.07058824
v 0.03021513 -0.00060469 -0.05689932 0.56470588 0.92549020 0.07058824
v 0.03024649 0.00082570 -0.05695007 0.56470588 0.92549020 0.07058824
v 0.03017522 -0.00181158 -0.05677990 0.56470588 0.92549020 0.07058824
v 0.03000419 -0.00290353 -0.05716801 0.56470588 0.92549020 0.07058824
v 0.03100761 -0.00542907 -0.03919851 0.56470588 0.92549020 0.07058824
v 0.03084797 -0.00663596 -0.03919851 0.56470588 0.92549020 0.07058824
v 0.03073395 -0.00783966 -0.04040464 0.56470588 0.92549020 0.07058824
v 0.03064558 -0.00783966 -0.04161076 0.56470588 0.92549020 0.07058824
v 0.02943691 -0.00904656 -0.05487518 0.56470588 0.92549020 0.07058824
v 0.02969062 -0.00663596 -0.05608131 0.56470588 0.92549020 0.07058824
v 0.02970772 -0.00542907 -0.05728743 0.56470588 0.92549020 0.07058824
v 0.02926587 -0.00542907 -0.05840101 0.56470588 0.92549020 0.07058824
v 0.02947967 -0.00301528 -0.05849356 0.56470588 0.92549020 0.07058824
v 0.03002129 -0.00181158 -0.05738297 0.56470588 0.92549020 0.07058824
v 0.03017522 -0.00374006 -0.03031974 0.56470588 0.92549020 0.07058824
v 0.03065413 -0.00783966 -0.03919851 0.56470588 0.92549020 0.07058824
v 0.02472197 0.00082570 -0.06040425 0.56470588 0.92549020 0.07058824
v 0.02231034 -0.01146034 -0.06080729 0.56470588 0.92549020 0.07058824
v 0.02110452 -0.01266405 -0.06080431 0.56470588 0.92549020 0.07058824
v 0.00422310 -0.02472340 -0.06056547 0.56470588 0.92549020 0.07058824
v 0.00224762 -0.02472340 -0.06041619 0.56470588 0.92549020 0.07058824
v 0.00224762 -0.03177958 -0.04281689 0.56470588 0.92549020 0.07058824
v 0.00224762 -0.03179235 -0.04358416 0.56470588 0.92549020 0.07058824
v 0.00542892 -0.03155608 -0.04161076 0.56470588 0.92549020 0.07058824
v 0.00633542 -0.03142837 -0.04161076 0.56470588 0.92549020 0.07058824
v 0.00693690 -0.03128150 -0.04161076 0.56470588 0.92549020 0.07058824
v 0.00784055 -0.03104203 -0.04161076 0.56470588 0.92549020 0.07058824
v 0.00784055 -0.03104523 -0.04040464 0.56470588 0.92549020 0.07058824
v 0.00904637 -0.03065570 -0.04040464 0.56470588 0.92549020 0.07058824
v 0.00904637 -0.03049605 -0.03919851 0.56470588 0.92549020 0.07058824
v 0.00934853 -0.02885813 -0.03031974 0.56470588 0.92549020 0.07058824
v 0.00874705 -0.02902735 -0.03031974 0.56470588 0.92549020 0.07058824
v 0.00707088 -0.02942326 -0.03031974 0.56470588 0.92549020 0.07058824
v 0.03002699 -0.00060469 -0.05750238 0.56470588 0.92549020 0.07058824
v 0.03000704 0.00082570 -0.05755314 0.56470588 0.92549020 0.07058824
v 0.03000989 0.00060220 -0.05754717 0.56470588 0.92549020 0.07058824
v 0.03048879 -0.00904656 -0.04040464 0.56470588 0.92549020 0.07058824
v 0.03041753 -0.00904656 -0.04161076 0.56470588 0.92549020 0.07058824
v 0.02930008 -0.01025345 -0.05366905 0.56470588 0.92549020 0.07058824
v 0.02920886 -0.01025345 -0.05487518 0.56470588 0.92549020 0.07058824
v 0.02948537 -0.00783966 -0.05608131 0.56470588 0.92549020 0.07058824
v 0.02949677 -0.00663596 -0.05728743 0.56470588 0.92549020 0.07058824
v 0.02914900 -0.00663596 -0.05821889 0.56470588 0.92549020 0.07058824
v 0.02893520 -0.00477454 -0.05908766 0.56470588 0.92549020 0.07058824
v 0.02928583 -0.00431477 -0.05860700 0.56470588 0.92549020 0.07058824
v 0.02898651 -0.00397314 -0.05913842 0.56470588 0.92549020 0.07058824
v 0.02903212 -0.00301528 -0.05918021 0.56470588 0.92549020 0.07058824
v 0.02952528 -0.00181158 -0.05849356 0.56470588 0.92549020 0.07058824
v 0.02972482 -0.00586330 -0.03031974 0.56470588 0.92549020 0.07058824
v 0.03040042 -0.00904656 -0.03919851 0.56470588 0.92549020 0.07058824
v 0.02538332 0.00082570 -0.06035648 0.56470588 0.92549020 0.07058824
v 0.02592779 -0.00181158 -0.06038933 0.56470588 0.92549020 0.07058824
v 0.02351616 -0.01025345 -0.06072370 0.56470588 0.92549020 0.07058824
v 0.02231034 -0.01266405 -0.06081923 0.56470588 0.92549020 0.07058824
v 0.01748708 -0.01869213 -0.06077744 0.56470588 0.92549020 0.07058824
v 0.00422310 -0.02592710 -0.06057741 0.56470588 0.92549020 0.07058824
v 0.00301729 -0.02592710 -0.06050875 0.56470588 0.92549020 0.07058824
v 0.00224762 -0.02516082 -0.06042814 0.56470588 0.92549020 0.07058824
v 0.00224762 -0.03177958 -0.04479028 0.56470588 0.92549020 0.07058824
v 0.00422310 -0.03164228 -0.04281689 0.56470588 0.92549020 0.07058824
v 0.00542892 -0.03151777 -0.04281689 0.56470588 0.92549020 0.07058824
v 0.00224762 -0.03177319 -0.04522914 0.56470588 0.92549020 0.07058824
v 0.00301729 -0.03169337 -0.04522914 0.56470588 0.92549020 0.07058824
v 0.00618434 -0.03139324 -0.04281689 0.56470588 0.92549020 0.07058824
v 0.00678582 -0.03125276 -0.04281689 0.56470588 0.92549020 0.07058824
v 0.00904637 -0.03066208 -0.04161076 0.56470588 0.92549020 0.07058824
v 0.00673166 -0.03030768 -0.05732624 0.56470588 0.92549020 0.07058824
v 0.00784055 -0.03096221 -0.04281689 0.56470588 0.92549020 0.07058824
v 0.01110737 -0.02903693 -0.05728743 0.56470588 0.92549020 0.07058824
v 0.01122710 -0.02907844 -0.05608131 0.56470588 0.92549020 0.07058824
v 0.01001273 -0.03029810 -0.04040464 0.56470588 0.92549020 0.07058824
v 0.00983314 -0.03021828 -0.03919851 0.56470588 0.92549020 0.07058824
v 0.01025218 -0.02855481 -0.03031974 0.56470588 0.92549020 0.07058824
v 0.00968206 -0.02874638 -0.03031974 0.56470588 0.92549020 0.07058824
v 0.02933999 0.00082570 -0.05852938 0.56470588 0.92549020 0.07058824
v 0.02948822 -0.00060469 -0.05849356 0.56470588 0.92549020 0.07058824
v 0.03020658 -0.00987989 -0.03919851 0.56470588 0.92549020 0.07058824
v 0.03024934 -0.01004272 -0.04040464 0.56470588 0.92549020 0.07058824
v 0.03021513 -0.00989585 -0.04161076 0.56470588 0.92549020 0.07058824
v 0.02905778 -0.01126239 -0.05366905 0.56470588 0.92549020 0.07058824
v 0.02900932 -0.01111232 -0.05487518 0.56470588 0.92549020 0.07058824
v 0.02896371 -0.01093672 -0.05556482 0.56470588 0.92549020 0.07058824
v 0.02925447 -0.00904656 -0.05608131 0.56470588 0.92549020 0.07058824
v 0.02903212 -0.01018640 -0.05601264 0.56470588 0.92549020 0.07058824
v 0.02896656 -0.00974260 -0.05674408 0.56470588 0.92549020 0.07058824
v 0.02918035 -0.00792268 -0.05737700 0.56470588 0.92549020 0.07058824
v 0.02892665 -0.00837925 -0.05783676 0.56470588 0.92549020 0.07058824
v 0.02902927 -0.00757785 -0.05803977 0.56470588 0.92549020 0.07058824
v 0.02885538 -0.00542907 -0.05900407 0.56470588 0.92549020 0.07058824
v 0.02767807 -0.01060147 -0.05901303 0.56470588 0.92549020 0.07058824
v 0.02845629 -0.00431477 -0.05944891 0.56470588 0.92549020 0.07058824
v 0.02776644 -0.00979688 -0.05912349 0.56470588 0.92549020 0.07058824
v 0.02721912 -0.01022152 -0.05944592 0.56470588 0.92549020 0.07058824
v 0.02834227 -0.00301528 -0.05965192 0.56470588 0.92549020 0.07058824
v 0.02834227 -0.00181158 -0.05968774 0.56470588 0.92549020 0.07058824
v 0.02905207 -0.00181158 -0.05920111 0.56470588 0.92549020 0.07058824
v 0.02946827 -0.00707019 -0.03031974 0.56470588 0.92549020 0.07058824
v 0.02929153 -0.00783966 -0.03031974 0.56470588 0.92549020 0.07058824
v 0.02556861 0.00082570 -0.06033858 0.56470588 0.92549020 0.07058824
v 0.02666895 -0.00181158 -0.06033260 0.56470588 0.92549020 0.07058824
v 0.02351616 -0.01146034 -0.06072967 0.56470588 0.92549020 0.07058824
v 0.02351616 -0.01266405 -0.06066399 0.56470588 0.92549020 0.07058824
v 0.02231034 -0.01387094 -0.06074758 0.56470588 0.92549020 0.07058824
v 0.01869289 -0.01869213 -0.06074161 0.56470588 0.92549020 0.07058824
v 0.01869289 -0.01748523 -0.06078340 0.56470588 0.92549020 0.07058824
v 0.01748708 -0.01989902 -0.06068489 0.56470588 0.92549020 0.07058824
v 0.00542892 -0.02592710 -0.06054756 0.56470588 0.92549020 0.07058824
v 0.00422310 -0.02713399 -0.06044605 0.56470588 0.92549020 0.07058824
v 0.00300018 -0.02719466 -0.06039231 0.56470588 0.92549020 0.07058824
v 0.00224762 -0.02694242 -0.06035947 0.56470588 0.92549020 0.07058824
v 0.00224762 -0.02592710 -0.06044008 0.56470588 0.92549020 0.07058824
v 0.00301729 -0.03164548 -0.04643229 0.56470588 0.92549020 0.07058824
v 0.00279779 -0.03142517 -0.05125680 0.56470588 0.92549020 0.07058824
v 0.00301729 -0.03119848 -0.05487518 0.56470588 0.92549020 0.07058824
v 0.00422310 -0.03102288 -0.05487518 0.56470588 0.92549020 0.07058824
v 0.00224762 -0.03174765 -0.04599342 0.56470588 0.92549020 0.07058824
v 0.00224762 -0.03173169 -0.04643229 0.56470588 0.92549020 0.07058824
v 0.00542892 -0.03072913 -0.05608131 0.56470588 0.92549020 0.07058824
v 0.01000418 -0.03029810 -0.04161076 0.56470588 0.92549020 0.07058824
v 0.01183143 -0.02885813 -0.05608131 0.56470588 0.92549020 0.07058824
v 0.00719916 -0.03013846 -0.05775615 0.56470588 0.92549020 0.07058824
v 0.00729608 -0.03017038 -0.05695007 0.56470588 0.92549020 0.07058824
v 0.00542892 -0.03064293 -0.05728743 0.56470588 0.92549020 0.07058824
v 0.01087647 -0.02895072 -0.05789945 0.56470588 0.92549020 0.07058824
v 0.01171170 -0.02881024 -0.05728743 0.56470588 0.92549020 0.07058824
v 0.01061421 -0.03005225 -0.04040464 0.56470588 0.92549020 0.07058824
v 0.01043462 -0.02999159 -0.03919851 0.56470588 0.92549020 0.07058824
v 0.01068833 -0.02838878 -0.03031974 0.56470588 0.92549020 0.07058824
v 0.02888104 0.00082570 -0.05904288 0.56470588 0.92549020 0.07058824
v 0.02900932 -0.00060469 -0.05915932 0.56470588 0.92549020 0.07058824
v 0.02896086 0.00009774 -0.05911155 0.56470588 0.92549020 0.07058824
v 0.03003269 -0.01048334 -0.03919851 0.56470588 0.92549020 0.07058824
v 0.02986450 -0.01146034 -0.04040464 0.56470588 0.92549020 0.07058824
v 0.03009541 -0.01064298 -0.04040464 0.56470588 0.92549020 0.07058824
v 0.02904637 -0.00879113 -0.03031974 0.56470588 0.92549020 0.07058824
v 0.02893520 -0.00917746 -0.03031974 0.56470588 0.92549020 0.07058824
v 0.03005550 -0.01049930 -0.04161076 0.56470588 0.92549020 0.07058824
v 0.02861023 -0.01266405 -0.05487518 0.56470588 0.92549020 0.07058824
v 0.02885538 -0.01171577 -0.05487518 0.56470588 0.92549020 0.07058824
v 0.02835367 -0.01266405 -0.05608131 0.56470588 0.92549020 0.07058824
v 0.02872710 -0.01138691 -0.05601264 0.56470588 0.92549020 0.07058824
v 0.02886964 -0.01054719 -0.05637089 0.56470588 0.92549020 0.07058824
v 0.02867579 -0.01018640 -0.05720384 0.56470588 0.92549020 0.07058824
v 0.02827956 -0.01146034 -0.05728743 0.56470588 0.92549020 0.07058824
v 0.02788332 -0.01146034 -0.05818606 0.56470588 0.92549020 0.07058824
v 0.02754980 -0.01146034 -0.05878912 0.56470588 0.92549020 0.07058824
v 0.02660624 -0.01345906 -0.05916230 0.56470588 0.92549020 0.07058824
v 0.02674592 -0.01266405 -0.05927575 0.56470588 0.92549020 0.07058824
v 0.02694831 -0.01146034 -0.05941009 0.56470588 0.92549020 0.07058824
v 0.02713360 -0.00904656 -0.05964296 0.56470588 0.92549020 0.07058824
v 0.02606462 -0.01025345 -0.06011466 0.56470588 0.92549020 0.07058824
v 0.02727328 -0.00301528 -0.06016840 0.56470588 0.92549020 0.07058824
v 0.02727328 -0.00181158 -0.06018333 0.56470588 0.92549020 0.07058824
v 0.02834227 -0.00060469 -0.05959818 0.56470588 0.92549020 0.07058824
v 0.02605892 0.00082570 -0.06028483 0.56470588 0.92549020 0.07058824
v 0.02657488 -0.00106446 -0.06031171 0.56470588 0.92549020 0.07058824
v 0.02667180 -0.00301528 -0.06033559 0.56470588 0.92549020 0.07058824
v 0.02472197 -0.01025345 -0.06053561 0.56470588 0.92549020 0.07058824
v 0.02447397 -0.01266405 -0.06042217 0.56470588 0.92549020 0.07058824
v 0.02358742 -0.01391245 -0.06048785 0.56470588 0.92549020 0.07058824
v 0.02478754 -0.01141565 -0.06044605 0.56470588 0.92549020 0.07058824
v 0.01997853 -0.01874960 -0.06049083 0.56470588 0.92549020 0.07058824
v 0.01880407 -0.02001077 -0.06050875 0.56470588 0.92549020 0.07058824
v 0.01748708 -0.02115381 -0.06044904 0.56470588 0.92549020 0.07058824
v 0.00570543 -0.02760654 -0.06027588 0.56470588 0.92549020 0.07058824
v 0.00535480 -0.02717550 -0.06038635 0.56470588 0.92549020 0.07058824
v 0.00490155 -0.02775341 -0.06030573 0.56470588 0.92549020 0.07058824
v 0.00422310 -0.02779811 -0.06032066 0.56470588 0.92549020 0.07058824
v 0.00339072 -0.02779811 -0.06032365 0.56470588 0.92549020 0.07058824
v 0.00258399 -0.02763527 -0.06028483 0.56470588 0.92549020 0.07058824
v 0.00224762 -0.02753310 -0.06026991 0.56470588 0.92549020 0.07058824
v 0.00224762 -0.03169656 -0.04719955 0.56470588 0.92549020 0.07058824
v 0.00225047 -0.03134854 -0.05403328 0.56470588 0.92549020 0.07058824
v 0.00224762 -0.03126872 -0.05483935 0.56470588 0.92549020 0.07058824
v 0.00422310 -0.03080895 -0.05728743 0.56470588 0.92549020 0.07058824
v 0.00422310 -0.03093667 -0.05608131 0.56470588 0.92549020 0.07058824
v 0.00224762 -0.03134854 -0.05403925 0.56470588 0.92549020 0.07058824
v 0.01060851 -0.03004587 -0.04161076 0.56470588 0.92549020 0.07058824
v 0.01266381 -0.02846541 -0.05608131 0.56470588 0.92549020 0.07058824
v 0.01628411 -0.02689134 -0.05366905 0.56470588 0.92549020 0.07058824
v 0.01712505 -0.02666145 -0.05005067 0.56470588 0.92549020 0.07058824
v 0.01145800 -0.02965953 -0.04161076 0.56470588 0.92549020 0.07058824
v 0.00639528 -0.03025340 -0.05807560 0.56470588 0.92549020 0.07058824
v 0.00542892 -0.03037153 -0.05828756 0.56470588 0.92549020 0.07058824
v 0.00835937 -0.02890921 -0.05905781 0.56470588 0.92549020 0.07058824
v 0.01132402 -0.02829619 -0.05843683 0.56470588 0.92549020 0.07058824
v 0.01266381 -0.02793540 -0.05810246 0.56470588 0.92549020 0.07058824
v 0.01327385 -0.02774063 -0.05789348 0.56470588 0.92549020 0.07058824
v 0.00673166 -0.02986068 -0.05848460 0.56470588 0.92549020 0.07058824
v 0.01266381 -0.02831854 -0.05728743 0.56470588 0.92549020 0.07058824
v 0.01672026 -0.02644115 -0.05608131 0.56470588 0.92549020 0.07058824
v 0.01684854 -0.02651458 -0.05523940 0.56470588 0.92549020 0.07058824
v 0.01145800 -0.02968188 -0.04040464 0.56470588 0.92549020 0.07058824
v 0.01145800 -0.02956375 -0.03919851 0.56470588 0.92549020 0.07058824
v 0.01171170 -0.02798968 -0.03031974 0.56470588 0.92549020 0.07058824
v 0.01145800 -0.02809504 -0.03031974 0.56470588 0.92549020 0.07058824
v 0.02836507 0.00082570 -0.05938920 0.56470588 0.92549020 0.07058824
v 0.02973908 -0.01146034 -0.03919851 0.56470588 0.92549020 0.07058824
v 0.02932289 -0.01266405 -0.03919851 0.56470588 0.92549020 0.07058824
v 0.02944546 -0.01266405 -0.04040464 0.56470588 0.92549020 0.07058824
v 0.02819689 -0.01387094 -0.05487518 0.56470588 0.92549020 0.07058824
v 0.02886393 -0.00939458 -0.03031974 0.56470588 0.92549020 0.07058824
v 0.02778925 -0.01458294 -0.05561557 0.56470588 0.92549020 0.07058824
v 0.02794888 -0.01384540 -0.05604249 0.56470588 0.92549020 0.07058824
v 0.02780635 -0.01342394 -0.05683364 0.56470588 0.92549020 0.07058824
v 0.02792038 -0.01260657 -0.05725758 0.56470588 0.92549020 0.07058824
v 0.02777500 -0.01216596 -0.05796812 0.56470588 0.92549020 0.07058824
v 0.02736450 -0.01260657 -0.05841892 0.56470588 0.92549020 0.07058824
v 0.02683999 -0.01386455 -0.05853237 0.56470588 0.92549020 0.07058824
v 0.02642095 -0.01426366 -0.05896228 0.56470588 0.92549020 0.07058824
v 0.02557716 -0.01507783 -0.05926978 0.56470588 0.92549020 0.07058824
v 0.02598195 -0.01386455 -0.05943697 0.56470588 0.92549020 0.07058824
v 0.02592779 -0.01266405 -0.05978328 0.56470588 0.92549020 0.07058824
v 0.02583087 -0.01141565 -0.06005197 0.56470588 0.92549020 0.07058824
v 0.02523223 -0.01178601 -0.06026991 0.56470588 0.92549020 0.07058824
v 0.02536336 -0.01098142 -0.06031469 0.56470588 0.92549020 0.07058824
v 0.02546028 -0.01025345 -0.06034753 0.56470588 0.92549020 0.07058824
v 0.02703953 -0.00063981 -0.06015945 0.56470588 0.92549020 0.07058824
v 0.02698537 0.00082570 -0.06006093 0.56470588 0.92549020 0.07058824
v 0.02713360 0.00082570 -0.06000420 0.56470588 0.92549020 0.07058824
v 0.02813132 0.00082570 -0.05951459 0.56470588 0.92549020 0.07058824
v 0.02617009 0.00082570 -0.06026394 0.56470588 0.92549020 0.07058824
v 0.02507545 -0.01266405 -0.06020721 0.56470588 0.92549020 0.07058824
v 0.02428012 -0.01353888 -0.06035947 0.56470588 0.92549020 0.07058824
v 0.02403497 -0.01434348 -0.06027289 0.56470588 0.92549020 0.07058824
v 0.02323109 -0.01484795 -0.06040724 0.56470588 0.92549020 0.07058824
v 0.01963075 -0.01968510 -0.06040127 0.56470588 0.92549020 0.07058824
v 0.01928012 -0.02048650 -0.06029678 0.56470588 0.92549020 0.07058824
v 0.01847624 -0.02078663 -0.06038933 0.56470588 0.92549020 0.07058824
v 0.01708514 -0.02181792 -0.06033858 0.56470588 0.92549020 0.07058824
v 0.01025218 -0.02713399 -0.05963997 0.56470588 0.92549020 0.07058824
v 0.00663474 -0.02834089 -0.05980716 0.56470588 0.92549020 0.07058824
v 0.00535480 -0.02822914 -0.06006690 0.56470588 0.92549020 0.07058824
v 0.00422310 -0.02839836 -0.06010272 0.56470588 0.92549020 0.07058824
v 0.00300018 -0.02825787 -0.06013258 0.56470588 0.92549020 0.07058824
v 0.00224762 -0.02830896 -0.06006093 0.56470588 0.92549020 0.07058824
v 0.00224762 -0.03110908 -0.05608131 0.56470588 0.92549020 0.07058824
v 0.00301729 -0.03105480 -0.05608131 0.56470588 0.92549020 0.07058824
v 0.00422310 -0.03044178 -0.05842489 0.56470588 0.92549020 0.07058824
v 0.00224762 -0.03088558 -0.05728743 0.56470588 0.92549020 0.07058824
v 0.01638388 -0.02677640 -0.05485129 0.56470588 0.92549020 0.07058824
v 0.01690270 -0.02654332 -0.05443333 0.56470588 0.92549020 0.07058824
v 0.01772938 -0.02632940 -0.05005067 0.56470588 0.92549020 0.07058824
v 0.01776359 -0.02635175 -0.04884454 0.56470588 0.92549020 0.07058824
v 0.01716211 -0.02668061 -0.04884454 0.56470588 0.92549020 0.07058824
v 0.01249848 -0.02916145 -0.04161076 0.56470588 0.92549020 0.07058824
v 0.01253554 -0.02917741 -0.04040464 0.56470588 0.92549020 0.07058824
v 0.00542892 -0.02998201 -0.05889063 0.56470588 0.92549020 0.07058824
v 0.00422310 -0.03009695 -0.05902796 0.56470588 0.92549020 0.07058824
v 0.00755549 -0.02905289 -0.05918917 0.56470588 0.92549020 0.07058824
v 0.01097054 -0.02779172 -0.05913543 0.56470588 0.92549020 0.07058824
v 0.01177442 -0.02756184 -0.05897422 0.56470588 0.92549020 0.07058824
v 0.01784911 -0.02398266 -0.05897720 0.56470588 0.92549020 0.07058824
v 0.01704238 -0.02541944 -0.05800394 0.56470588 0.92549020 0.07058824
v 0.01589358 -0.02664549 -0.05691723 0.56470588 0.92549020 0.07058824
v 0.01784626 -0.02517359 -0.05760986 0.56470588 0.92549020 0.07058824
v 0.01746142 -0.02559824 -0.05723966 0.56470588 0.92549020 0.07058824
v 0.01817408 -0.02538751 -0.05680677 0.56470588 0.92549020 0.07058824
v 0.01748708 -0.02600692 -0.05608131 0.56470588 0.92549020 0.07058824
v 0.01737875 -0.02624639 -0.05485129 0.56470588 0.92549020 0.07058824
v 0.01242721 -0.02911994 -0.03919851 0.56470588 0.92549020 0.07058824
v 0.01217636 -0.02779172 -0.03031974 0.56470588 0.92549020 0.07058824
v 0.02895515 -0.01328665 -0.03857455 0.56470588 0.92549020 0.07058824
v 0.02901502 -0.01341117 -0.03919851 0.56470588 0.92549020 0.07058824
v 0.02906918 -0.01353250 -0.04040464 0.56470588 0.92549020 0.07058824
v 0.02903782 -0.01347503 -0.04161076 0.56470588 0.92549020 0.07058824
v 0.02784056 -0.01468831 -0.05487518 0.56470588 0.92549020 0.07058824
v 0.02852471 -0.01025345 -0.03031974 0.56470588 0.92549020 0.07058824
v 0.02645800 -0.01673172 -0.05644852 0.56470588 0.92549020 0.07058824
v 0.02664615 -0.01592713 -0.05697097 0.56470588 0.92549020 0.07058824
v 0.02686564 -0.01514169 -0.05733818 0.56470588 0.92549020 0.07058824
v 0.02763531 -0.01422854 -0.05641866 0.56470588 0.92549020 0.07058824
v 0.02754980 -0.01529175 -0.05487518 0.56470588 0.92549020 0.07058824
v 0.02658058 -0.01696480 -0.05564244 0.56470588 0.92549020 0.07058824
v 0.02745857 -0.01384540 -0.05725758 0.56470588 0.92549020 0.07058824
v 0.02763246 -0.01297056 -0.05763972 0.56470588 0.92549020 0.07058824
v 0.02667465 -0.01478090 -0.05815919 0.56470588 0.92549020 0.07058824
v 0.02563987 -0.01620490 -0.05847565 0.56470588 0.92549020 0.07058824
v 0.02537191 -0.01575471 -0.05913543 0.56470588 0.92549020 0.07058824
v 0.02545173 -0.01707016 -0.05806365 0.56470588 0.92549020 0.07058824
v 0.02472197 -0.01507783 -0.05975044 0.56470588 0.92549020 0.07058824
v 0.02469917 -0.01391245 -0.06010272 0.56470588 0.92549020 0.07058824
v 0.02043463 -0.01919021 -0.06027886 0.56470588 0.92549020 0.07058824
v 0.01989871 -0.02110591 -0.05974148 0.56470588 0.92549020 0.07058824
v 0.01932573 -0.02294180 -0.05911454 0.56470588 0.92549020 0.07058824
v 0.01869289 -0.02230961 -0.05968177 0.56470588 0.92549020 0.07058824
v 0.01880407 -0.02115381 -0.06016542 0.56470588 0.92549020 0.07058824
v 0.01789187 -0.02158803 -0.06026095 0.56470588 0.92549020 0.07058824
v 0.01997853 -0.02001077 -0.06018632 0.56470588 0.92549020 0.07058824
v 0.02110452 -0.01989902 -0.05972357 0.56470588 0.92549020 0.07058824
v 0.01140669 -0.02714996 -0.05933844 0.56470588 0.92549020 0.07058824
v 0.01025218 -0.02793540 -0.05923992 0.56470588 0.92549020 0.07058824
v 0.00904637 -0.02816847 -0.05938024 0.56470588 0.92549020 0.07058824
v 0.01748708 -0.02225534 -0.06007585 0.56470588 0.92549020 0.07058824
v 0.00791182 -0.02843987 -0.05946980 0.56470588 0.92549020 0.07058824
v 0.00663474 -0.02919338 -0.05929963 0.56470588 0.92549020 0.07058824
v 0.00542892 -0.02937856 -0.05942502 0.56470588 0.92549020 0.07058824
v 0.00422310 -0.02949350 -0.05949966 0.56470588 0.92549020 0.07058824
v 0.00301729 -0.02949670 -0.05949966 0.56470588 0.92549020 0.07058824
v 0.00224762 -0.02949350 -0.05947876 0.56470588 0.92549020 0.07058824
v 0.00224762 -0.03045774 -0.05842788 0.56470588 0.92549020 0.07058824
v 0.01863588 -0.02569083 -0.05125680 0.56470588 0.92549020 0.07058824
v 0.01880407 -0.02565252 -0.05002081 0.56470588 0.92549020 0.07058824
v 0.01869289 -0.02593987 -0.04281689 0.56470588 0.92549020 0.07058824
v 0.01784911 -0.02640603 -0.04281689 0.56470588 0.92549020 0.07058824
v 0.01951387 -0.02546414 -0.04281689 0.56470588 0.92549020 0.07058824
v 0.01628411 -0.02726809 -0.04161076 0.56470588 0.92549020 0.07058824
v 0.01554295 -0.02766720 -0.04161076 0.56470588 0.92549020 0.07058824
v 0.01494147 -0.02797052 -0.04161076 0.56470588 0.92549020 0.07058824
v 0.01387248 -0.02851969 -0.04040464 0.56470588 0.92549020 0.07058824
v 0.01387248 -0.02842071 -0.03919851 0.56470588 0.92549020 0.07058824
v 0.01302869 -0.02882939 -0.03919851 0.56470588 0.92549020 0.07058824
v 0.00301729 -0.03010014 -0.05903094 0.56470588 0.92549020 0.07058824
v 0.01746142 -0.02355482 -0.05941308 0.56470588 0.92549020 0.07058824
v 0.01869289 -0.02313337 -0.05924589 0.56470588 0.92549020 0.07058824
v 0.01845914 -0.02437219 -0.05817411 0.56470588 0.92549020 0.07058824
v 0.01926302 -0.02409761 -0.05783974 0.56470588 0.92549020 0.07058824
v 0.01831946 -0.02549288 -0.05608131 0.56470588 0.92549020 0.07058824
v 0.01948252 -0.02427640 -0.05703665 0.56470588 0.92549020 0.07058824
v 0.01892094 -0.02503311 -0.05608131 0.56470588 0.92549020 0.07058824
v 0.01843919 -0.02558228 -0.05487518 0.56470588 0.92549020 0.07058824
v 0.01277784 -0.02749798 -0.03031974 0.56470588 0.92549020 0.07058824
v 0.02720487 -0.01302484 -0.03031974 0.56470588 0.92549020 0.07058824
v 0.02681148 -0.01377835 -0.03031974 0.56470588 0.92549020 0.07058824
v 0.02611878 -0.01507783 -0.03031974 0.56470588 0.92549020 0.07058824
v 0.02867294 -0.01401462 -0.03919851 0.56470588 0.92549020 0.07058824
v 0.02797169 -0.01143161 -0.03031974 0.56470588 0.92549020 0.07058824
v 0.02877557 -0.01413594 -0.04040464 0.56470588 0.92549020 0.07058824
v 0.02875276 -0.01407847 -0.04161076 0.56470588 0.92549020 0.07058824
v 0.02629267 -0.01631027 -0.05733818 0.56470588 0.92549020 0.07058824
v 0.02648081 -0.01558230 -0.05777406 0.56470588 0.92549020 0.07058824
v 0.02615299 -0.01741499 -0.05606041 0.56470588 0.92549020 0.07058824
v 0.02537477 -0.01815892 -0.05678886 0.56470588 0.92549020 0.07058824
v 0.02562847 -0.01747885 -0.05722772 0.56470588 0.92549020 0.07058824
v 0.02702813 -0.01628153 -0.05487518 0.56470588 0.92549020 0.07058824
v 0.02661194 -0.01701589 -0.05487518 0.56470588 0.92549020 0.07058824
v 0.02622140 -0.01761933 -0.05487518 0.56470588 0.92549020 0.07058824
v 0.02561992 -0.01847501 -0.05487518 0.56470588 0.92549020 0.07058824
v 0.02550874 -0.01833134 -0.05608131 0.56470588 0.92549020 0.07058824
v 0.02507260 -0.01655931 -0.05886674 0.56470588 0.92549020 0.07058824
v 0.02288617 -0.01925407 -0.05906975 0.56470588 0.92549020 0.07058824
v 0.02469061 -0.01620490 -0.05933546 0.56470588 0.92549020 0.07058824
v 0.02516952 -0.01787476 -0.05759195 0.56470588 0.92549020 0.07058824
v 0.02436564 -0.01837604 -0.05817411 0.56470588 0.92549020 0.07058824
v 0.02471912 -0.01748204 -0.05852043 0.56470588 0.92549020 0.07058824
v 0.02241296 -0.01878791 -0.05950862 0.56470588 0.92549020 0.07058824
v 0.02098765 -0.02099097 -0.05924589 0.56470588 0.92549020 0.07058824
v 0.02171741 -0.02051205 -0.05910259 0.56470588 0.92549020 0.07058824
v 0.02054010 -0.02294818 -0.05793229 0.56470588 0.92549020 0.07058824
v 0.01979609 -0.02317807 -0.05839802 0.56470588 0.92549020 0.07058824
v 0.02199392 -0.01989902 -0.05926082 0.56470588 0.92549020 0.07058824
v 0.00224762 -0.03009695 -0.05903094 0.56470588 0.92549020 0.07058824
v 0.01924021 -0.02528534 -0.05125680 0.56470588 0.92549020 0.07058824
v 0.01928012 -0.02531408 -0.05040295 0.56470588 0.92549020 0.07058824
v 0.01930293 -0.02533323 -0.04959986 0.56470588 0.92549020 0.07058824
v 0.01869289 -0.02595264 -0.04161076 0.56470588 0.92549020 0.07058824
v 0.01952243 -0.02547372 -0.04161076 0.56470588 0.92549020 0.07058824
v 0.01786051 -0.02640922 -0.04161076 0.56470588 0.92549020 0.07058824
v 0.02011536 -0.02505546 -0.04281689 0.56470588 0.92549020 0.07058824
v 0.01554580 -0.02766720 -0.04040464 0.56470588 0.92549020 0.07058824
v 0.01494147 -0.02798010 -0.04040464 0.56470588 0.92549020 0.07058824
v 0.01485310 -0.02793220 -0.03919851 0.56470588 0.92549020 0.07058824
v 0.01317693 -0.02730002 -0.03031974 0.56470588 0.92549020 0.07058824
v 0.01989016 -0.02376874 -0.05737700 0.56470588 0.92549020 0.07058824
v 0.01904352 -0.02512570 -0.05487518 0.56470588 0.92549020 0.07058824
v 0.02068263 -0.02309505 -0.05728743 0.56470588 0.92549020 0.07058824
v 0.02025789 -0.02389965 -0.05608131 0.56470588 0.92549020 0.07058824
v 0.01965355 -0.02442966 -0.05608131 0.56470588 0.92549020 0.07058824
v 0.02556576 -0.01602291 -0.03031974 0.56470588 0.92549020 0.07058824
v 0.02777214 -0.01572279 -0.03969111 0.56470588 0.92549020 0.07058824
v 0.02823965 -0.01507783 -0.04040464 0.56470588 0.92549020 0.07058824
v 0.02821114 -0.01507783 -0.04161076 0.56470588 0.92549020 0.07058824
v 0.02502129 -0.01893159 -0.05608131 0.56470588 0.92549020 0.07058824
v 0.02424307 -0.01942648 -0.05690231 0.56470588 0.92549020 0.07058824
v 0.02289187 -0.02047373 -0.05783974 0.56470588 0.92549020 0.07058824
v 0.02470487 -0.01866978 -0.05724862 0.56470588 0.92549020 0.07058824
v 0.02779780 -0.01576749 -0.04161076 0.56470588 0.92549020 0.07058824
v 0.02533486 -0.01930834 -0.04115697 0.56470588 0.92549020 0.07058824
v 0.02738161 -0.01637093 -0.04161076 0.56470588 0.92549020 0.07058824
v 0.02514671 -0.01907846 -0.05487518 0.56470588 0.92549020 0.07058824
v 0.02426302 -0.02068127 -0.04161076 0.56470588 0.92549020 0.07058824
v 0.02321399 -0.01966914 -0.05826666 0.56470588 0.92549020 0.07058824
v 0.02264671 -0.02000119 -0.05859805 0.56470588 0.92549020 0.07058824
v 0.02195116 -0.02099097 -0.05838310 0.56470588 0.92549020 0.07058824
v 0.02317123 -0.01845266 -0.05924589 0.56470588 0.92549020 0.07058824
v 0.02172311 -0.02172532 -0.05790841 0.56470588 0.92549020 0.07058824
v 0.01989871 -0.02476491 -0.05125680 0.56470588 0.92549020 0.07058824
v 0.02088502 -0.02445520 -0.04281689 0.56470588 0.92549020 0.07058824
v 0.01869289 -0.02591433 -0.04040464 0.56470588 0.92549020 0.07058824
v 0.01724192 -0.02673489 -0.04040464 0.56470588 0.92549020 0.07058824
v 0.01628411 -0.02726490 -0.04040464 0.56470588 0.92549020 0.07058824
v 0.02012676 -0.02506184 -0.04161076 0.56470588 0.92549020 0.07058824
v 0.02008685 -0.02503949 -0.04040464 0.56470588 0.92549020 0.07058824
v 0.01948537 -0.02544817 -0.04040464 0.56470588 0.92549020 0.07058824
v 0.02090783 -0.02445839 -0.04161076 0.56470588 0.92549020 0.07058824
v 0.01628411 -0.02716592 -0.03919851 0.56470588 0.92549020 0.07058824
v 0.01545743 -0.02761611 -0.03919851 0.56470588 0.92549020 0.07058824
v 0.01519232 -0.02629109 -0.03031974 0.56470588 0.92549020 0.07058824
v 0.01497567 -0.02639964 -0.03031974 0.56470588 0.92549020 0.07058824
v 0.01387248 -0.02695200 -0.03031974 0.56470588 0.92549020 0.07058824
v 0.01976758 -0.02452225 -0.05487518 0.56470588 0.92549020 0.07058824
v 0.02055150 -0.02416146 -0.05223603 0.56470588 0.92549020 0.07058824
v 0.02087647 -0.02329620 -0.05608131 0.56470588 0.92549020 0.07058824
v 0.02128697 -0.02246287 -0.05728743 0.56470588 0.92549020 0.07058824
v 0.02324250 -0.02084729 -0.05608131 0.56470588 0.92549020 0.07058824
v 0.02266382 -0.02145074 -0.05608131 0.56470588 0.92549020 0.07058824
v 0.02037191 -0.02400182 -0.05487518 0.56470588 0.92549020 0.07058824
v 0.02418035 -0.01818766 -0.03031974 0.56470588 0.92549020 0.07058824
v 0.02780350 -0.01577387 -0.04040464 0.56470588 0.92549020 0.07058824
v 0.02630122 -0.01773108 -0.03919851 0.56470588 0.92549020 0.07058824
v 0.02569689 -0.01860911 -0.03919851 0.56470588 0.92549020 0.07058824
v 0.02532060 -0.01928600 -0.03997473 0.56470588 0.92549020 0.07058824
v 0.02454238 -0.01976811 -0.05487518 0.56470588 0.92549020 0.07058824
v 0.02399791 -0.02037156 -0.05487518 0.56470588 0.92549020 0.07058824
v 0.02441696 -0.01959889 -0.05608131 0.56470588 0.92549020 0.07058824
v 0.02306861 -0.02066530 -0.05703665 0.56470588 0.92549020 0.07058824
v 0.02636108 -0.01784283 -0.04040464 0.56470588 0.92549020 0.07058824
v 0.02533486 -0.01930834 -0.04077782 0.56470588 0.92549020 0.07058824
v 0.02427157 -0.02068765 -0.04040464 0.56470588 0.92549020 0.07058824
v 0.02377556 -0.02128471 -0.04161076 0.56470588 0.92549020 0.07058824
v 0.02317123 -0.02201907 -0.04161076 0.56470588 0.92549020 0.07058824
v 0.02266667 -0.02261932 -0.04161076 0.56470588 0.92549020 0.07058824
v 0.02203953 -0.02329301 -0.04281689 0.56470588 0.92549020 0.07058824
v 0.02404352 -0.02040987 -0.05366905 0.56470588 0.92549020 0.07058824
v 0.02185139 -0.02185942 -0.05728743 0.56470588 0.92549020 0.07058824
v 0.02059141 -0.02420297 -0.05125680 0.56470588 0.92549020 0.07058824
v 0.02148936 -0.02389646 -0.04281689 0.56470588 0.92549020 0.07058824
v 0.02151217 -0.02392200 -0.04161076 0.56470588 0.92549020 0.07058824
v 0.01775789 -0.02634536 -0.03919851 0.56470588 0.92549020 0.07058824
v 0.01715355 -0.02668380 -0.03919851 0.56470588 0.92549020 0.07058824
v 0.02088502 -0.02443604 -0.04040464 0.56470588 0.92549020 0.07058824
v 0.01984170 -0.02502672 -0.03910894 0.56470588 0.92549020 0.07058824
v 0.01939985 -0.02539070 -0.03944929 0.56470588 0.92549020 0.07058824
v 0.02077670 -0.02435623 -0.03919851 0.56470588 0.92549020 0.07058824
v 0.01624705 -0.02568764 -0.03031974 0.56470588 0.92549020 0.07058824
v 0.02049734 -0.02411676 -0.05303912 0.56470588 0.92549020 0.07058824
v 0.02171741 -0.02292583 -0.05313465 0.56470588 0.92549020 0.07058824
v 0.02175162 -0.02296095 -0.05246292 0.56470588 0.92549020 0.07058824
v 0.02119574 -0.02362187 -0.05125680 0.56470588 0.92549020 0.07058824
v 0.02279780 -0.02159442 -0.05487518 0.56470588 0.92549020 0.07058824
v 0.02098480 -0.02339837 -0.05487518 0.56470588 0.92549020 0.07058824
v 0.02339358 -0.02099097 -0.05487518 0.56470588 0.92549020 0.07058824
v 0.02391239 -0.01857399 -0.03031974 0.56470588 0.92549020 0.07058824
v 0.02376131 -0.01879110 -0.03031974 0.56470588 0.92549020 0.07058824
v 0.02526074 -0.01920937 -0.03919851 0.56470588 0.92549020 0.07058824
v 0.02473908 -0.01989902 -0.03919851 0.56470588 0.92549020 0.07058824
v 0.02420031 -0.02060145 -0.03919851 0.56470588 0.92549020 0.07058824
v 0.02496142 -0.01978408 -0.04038673 0.56470588 0.92549020 0.07058824
v 0.02567693 -0.01880707 -0.04038673 0.56470588 0.92549020 0.07058824
v 0.02180293 -0.02301842 -0.05125680 0.56470588 0.92549020 0.07058824
v 0.02377271 -0.02129110 -0.04040464 0.56470588 0.92549020 0.07058824
v 0.02317123 -0.02200949 -0.04040464 0.56470588 0.92549020 0.07058824
v 0.02265242 -0.02261293 -0.04040464 0.56470588 0.92549020 0.07058824
v 0.02206234 -0.02331855 -0.04161076 0.56470588 0.92549020 0.07058824
v 0.02148651 -0.02389965 -0.04040464 0.56470588 0.92549020 0.07058824
v 0.02204808 -0.02329620 -0.04040464 0.56470588 0.92549020 0.07058824
v 0.01880407 -0.02569722 -0.03910894 0.56470588 0.92549020 0.07058824
v 0.01708514 -0.02512570 -0.03031974 0.56470588 0.92549020 0.07058824
v 0.01684569 -0.02530131 -0.03031974 0.56470588 0.92549020 0.07058824
v 0.01928012 -0.02531727 -0.03864620 0.56470588 0.92549020 0.07058824
v 0.02138103 -0.02379109 -0.03919851 0.56470588 0.92549020 0.07058824
v 0.01996997 -0.02282047 -0.03031974 0.56470588 0.92549020 0.07058824
v 0.01958514 -0.02317487 -0.03031974 0.56470588 0.92549020 0.07058824
v 0.01885538 -0.02377832 -0.03031974 0.56470588 0.92549020 0.07058824
v 0.01863588 -0.02394754 -0.03031974 0.56470588 0.92549020 0.07058824
v 0.01663189 -0.02544179 -0.03031974 0.56470588 0.92549020 0.07058824
v 0.02315698 -0.01954781 -0.03031974 0.56470588 0.92549020 0.07058824
v 0.02413474 -0.02052162 -0.03856261 0.56470588 0.92549020 0.07058824
v 0.02369860 -0.02120489 -0.03919851 0.56470588 0.92549020 0.07058824
v 0.02309711 -0.02192009 -0.03919851 0.56470588 0.92549020 0.07058824
v 0.02256405 -0.02252353 -0.03919851 0.56470588 0.92549020 0.07058824
v 0.02195971 -0.02318764 -0.03919851 0.56470588 0.92549020 0.07058824
v 0.02142379 -0.02142200 -0.03031974 0.56470588 0.92549020 0.07058824
v 0.02120715 -0.02163593 -0.03031974 0.56470588 0.92549020 0.07058824
v 0.02082231 -0.02201268 -0.03031974 0.56470588 0.92549020 0.07058824
v 0.02018662 -0.02261613 -0.03031974 0.56470588 0.92549020 0.07058824
v 0.02199107 -0.02081856 -0.03031974 0.56470588 0.92549020 0.07058824
v 0.02163189 -0.02120489 -0.03031974 0.56470588 0.92549020 0.07058824
f 1 2 5
f 1 5 12
f 1 12 23
f 1 23 42
f 1 42 69
f 1 69 102
f 1 102 142
f 1 142 196
f 1 196 264
f 1 264 288
f 1 288 287
f 1 287 286
f 1 286 289
f 1 289 222
f 1 222 166
f 1 166 118
f 1 118 84
f 1 84 50
f 1 50 33
f 1 33 17
f 1 17 9
f 1 9 3
f 1 3 10
f 1 10 22
f 1 22 40
f 1 40 58
f 1 58 67
f 1 67 66
f 1 66 65
f 1 65 64
f 1 64 63
f 1 63 100
f 1 100 99
f 1 99 98
f 1 98 141
f 1 141 140
f 1 140 195
f 1 195 263
f 1 263 262
f 1 262 329
f 1 329 389
f 1 389 430
f 1 430 467
f 1 467 466
f 1 466 465
f 1 465 502
f 1 502 533
f 1 533 526
f 1 526 525
f 1 525 532
f 1 532 531
f 1 531 530
f 1 530 529
f 1 529 543
f 1 543 542
f 1 542 541
f 1 541 540
f 1 540 545
f 1 545 544
f 1 544 534
f 1 534 511
f 1 511 510
f 1 510 475
f 1 475 436
f 1 436 392
f 1 392 391
f 1 391 390
f 1 390 394
f 1 394 335
f 1 335 269
f 1 269 203
f 1 203 202
f 1 202 165
f 1 165 164
f 1 164 116
f 1 116 82
f 1 82 49
f 1 49 29
f 1 29 13
f 1 13 11
f 1 11 4
f 1 4 2
f 2 4 6
f 2 6 7
f 2 7 8
f 2 8 5
f 3 9 18
f 3 18 32
f 3 32 36
f 3 36 35
f 3 35 34
f 3 34 51
f 3 51 88
f 3 88 125
f 3 125 178
f 3 178 177
f 3 177 238
f 3 238 303
f 3 303 367
f 3 367 419
f 3 419 368
f 3 368 307
f 3 307 304
f 3 304 241
f 3 241 244
f 3 244 239
f 3 239 184
f 3 184 183
f 3 183 129
f 3 129 126
f 3 126 90
f 3 90 89
f 3 89 55
f 3 55 54
f 3 54 53
f 3 53 52
f 3 52 37
f 3 37 19
f 3 19 10
f 4 11 6
f 5 8 12
f 6 11 13
f 6 13 14
f 6 14 7
f 7 14 15
f 7 15 16
f 7 16 8
f 8 16 12
f 9 17 18
f 10 19 20
f 10 20 21
f 10 21 22
f 12 16 24
f 12 24 25
f 12 25 26
f 12 26 27
f 12 27 28
f 12 28 23
f 13 29 14
f 14 29 30
f 14 30 31
f 14 31 15
f 15 31 24
f 15 24 16
f 17 32 18
f 17 33 34
f 17 34 35
f 17 35 36
f 17 36 32
f 19 37 20
f 20 37 38
f 20 38 21
f 21 38 39
f 21 39 22
f 22 39 41
f 22 41 40
f 23 28 43
f 23 43 42
f 24 31 44
f 24 44 26
f 24 26 25
f 26 44 45
f 26 45 27
f 27 45 46
f 27 46 28
f 28 46 47
f 28 47 78
f 28 78 48
f 28 48 43
f 29 49 45
f 29 45 44
f 29 44 30
f 30 44 31
f 33 50 51
f 33 51 34
f 37 52 38
f 38 52 53
f 38 53 54
f 38 54 55
f 38 55 56
f 38 56 57
f 38 57 39
f 39 57 41
f 40 41 58
f 41 57 59
f 41 59 60
f 41 60 61
f 41 61 62
f 41 62 63
f 41 63 64
f 41 64 65
f 41 65 66
f 41 66 67
f 41 67 58
f 42 68 69
f 42 43 70
f 42 70 68
f 43 48 71
f 43 71 70
f 45 49 72
f 45 72 46
f 46 72 73
f 46 73 74
f 46 74 75
f 46 75 76
f 46 76 47
f 47 76 77
f 47 77 78
f 48 78 79
f 48 79 80
f 48 80 81
f 48 81 71
f 49 82 83
f 49 83 73
f 49 73 72
f 50 84 85
f 50 85 86
f 50 86 87
f 50 87 88
f 50 88 51
f 55 89 56
f 56 89 90
f 56 90 91
f 56 91 57
f 57 91 59
f 59 92 60
f 59 91 92
f 60 92 93
f 60 93 94
f 60 94 95
f 60 95 61
f 61 95 96
f 61 96 97
f 61 97 98
f 61 98 99
f 61 99 62
f 62 100 63
f 62 99 100
f 68 101 69
f 68 70 81
f 68 81 101
f 69 101 103
f 69 103 102
f 70 71 81
f 73 83 74
f 74 83 104
f 74 104 105
f 74 105 75
f 75 105 106
f 75 106 76
f 76 106 107
f 76 107 108
f 76 108 77
f 77 108 78
f 78 108 109
f 78 109 110
f 78 110 79
f 79 110 111
f 79 111 112
f 79 112 80
f 80 113 114
f 80 114 115
f 80 115 101
f 80 101 81
f 80 112 113
f 82 116 117
f 82 117 83
f 83 117 104
f 84 118 119
f 84 119 120
f 84 120 85
f 85 120 121
f 85 121 86
f 86 121 122
f 86 122 123
f 86 123 87
f 87 123 124
f 87 124 88
f 88 124 125
f 90 126 127
f 90 127 91
f 91 128 92
f 91 127 129
f 91 129 130
f 91 130 128
f 92 131 132
f 92 132 93
f 92 128 131
f 93 132 94
f 94 133 95
f 94 132 134
f 94 134 135
f 94 135 136
f 94 136 137
f 94 137 133
f 95 133 96
f 96 133 138
f 96 138 139
f 96 139 97
f 97 139 140
f 97 140 141
f 97 141 98
f 101 115 103
f 102 103 115
f 102 115 143
f 102 143 142
f 104 117 144
f 104 144 145
f 104 145 146
f 104 146 105
f 105 146 106
f 106 146 147
f 106 147 148
f 106 148 107
f 107 148 149
f 107 149 150
f 107 150 108
f 108 150 109
f 109 150 151
f 109 151 152
f 109 152 153
f 109 153 154
f 109 154 155
f 109 155 110
f 110 156 111
f 110 155 157
f 110 157 156
f 111 158 113
f 111 113 112
f 111 156 157
f 111 157 159
f 111 159 160
f 111 160 158
f 113 161 114
f 113 158 161
f 114 161 162
f 114 162 163
f 114 163 115
f 115 163 143
f 116 164 117
f 117 164 165
f 117 165 144
f 118 166 167
f 118 167 119
f 119 167 120
f 120 168 121
f 120 167 168
f 121 168 169
f 121 169 170
f 121 170 171
f 121 171 172
f 121 172 122
f 122 172 171
f 122 171 173
f 122 173 174
f 122 174 123
f 123 174 175
f 123 175 176
f 123 176 124
f 124 176 177
f 124 177 178
f 124 178 125
f 126 129 127
f 128 130 179
f 128 179 180
f 128 180 181
f 128 181 182
f 128 182 131
f 129 183 130
f 130 183 184
f 130 184 179
f 131 182 185
f 131 185 132
f 132 185 134
f 133 186 138
f 133 137 187
f 133 187 186
f 134 188 136
f 134 136 189
f 134 189 135
f 134 185 190
f 134 190 188
f 135 189 136
f 136 191 192
f 136 192 187
f 136 187 137
f 136 188 191
f 138 186 193
f 138 193 194
f 138 194 139
f 139 194 140
f 140 194 195
f 142 143 197
f 142 197 198
f 142 198 196
f 143 163 197
f 144 199 200
f 144 200 201
f 144 201 145
f 144 165 202
f 144 202 203
f 144 203 199
f 145 201 146
f 146 201 204
f 146 204 205
f 146 205 147
f 147 206 148
f 147 205 206
f 148 206 149
f 149 206 205
f 149 205 207
f 149 207 208
f 149 208 209
f 149 209 151
f 149 151 150
f 151 209 152
f 152 209 210
f 152 210 154
f 152 154 153
f 154 210 211
f 154 211 212
f 154 212 157
f 154 157 155
f 157 212 213
f 157 213 214
f 157 214 215
f 157 215 216
f 157 216 159
f 158 160 217
f 158 217 218
f 158 218 161
f 159 216 160
f 160 216 218
f 160 218 217
f 161 219 162
f 161 218 219
f 162 220 221
f 162 221 197
f 162 197 163
f 162 219 220
f 166 222 223
f 166 223 167
f 167 223 220
f 167 220 224
f 167 224 168
f 168 225 169
f 168 224 225
f 169 226 227
f 169 227 170
f 169 225 228
f 169 228 226
f 170 227 229
f 170 229 171
f 171 229 230
f 171 230 173
f 173 230 231
f 173 231 232
f 173 232 233
f 173 233 174
f 174 233 175
f 175 233 234
f 175 234 235
f 175 235 236
f 175 236 176
f 176 236 237
f 176 237 238
f 176 238 177
f 179 184 239
f 179 239 240
f 179 240 180
f 180 240 181
f 181 241 242
f 181 242 243
f 181 243 182
f 181 240 244
f 181 244 241
f 182 243 190
f 182 190 185
f 186 245 193
f 186 187 245
f 187 192 246
f 187 246 247
f 187 247 248
f 187 248 249
f 187 249 245
f 188 190 250
f 188 250 191
f 190 243 242
f 190 242 251
f 190 251 250
f 191 252 253
f 191 253 254
f 191 254 255
f 191 255 192
f 191 250 256
f 191 256 252
f 192 255 257
f 192 257 258
f 192 258 259
f 192 259 246
f 193 245 260
f 193 260 261
f 193 261 194
f 194 261 262
f 194 262 263
f 194 263 195
f 196 198 264
f 197 221 198
f 198 221 264
f 199 265 200
f 199 203 265
f 200 265 266
f 200 266 267
f 200 267 268
f 200 268 205
f 200 205 201
f 201 205 204
f 203 269 265
f 205 268 207
f 207 268 270
f 207 270 271
f 207 271 272
f 207 272 273
f 207 273 211
f 207 211 209
f 207 209 208
f 209 211 210
f 211 273 274
f 211 274 212
f 212 274 213
f 213 274 275
f 213 275 214
f 214 276 277
f 214 277 278
f 214 278 279
f 214 279 280
f 214 280 215
f 214 275 276
f 215 280 216
f 216 281 218
f 216 280 281
f 218 281 282
f 218 282 283
f 218 283 284
f 218 284 219
f 219 224 220
f 219 284 224
f 220 223 285
f 220 285 286
f 220 286 287
f 220 287 221
f 221 287 288
f 221 288 264
f 222 289 223
f 223 289 286
f 223 286 285
f 224 284 225
f 225 284 228
f 226 290 291
f 226 291 227
f 226 228 283
f 226 283 282
f 226 282 290
f 227 292 293
f 227 293 229
f 227 291 292
f 228 284 283
f 229 294 230
f 229 293 294
f 230 294 295
f 230 295 296
f 230 296 231
f 231 296 297
f 231 297 232
f 232 298 299
f 232 299 300
f 232 300 234
f 232 234 233
f 232 297 298
f 234 300 301
f 234 301 235
f 235 301 236
f 236 301 302
f 236 302 303
f 236 303 237
f 237 303 238
f 239 244 240
f 241 304 305
f 241 305 242
f 242 306 251
f 242 305 304
f 242 304 307
f 242 307 306
f 245 249 260
f 246 259 308
f 246 308 247
f 247 308 309
f 247 309 248
f 248 309 310
f 248 310 311
f 248 311 312
f 248 312 313
f 248 313 249
f 249 314 260
f 249 313 314
f 250 251 315
f 250 315 256
f 251 306 316
f 251 316 315
f 252 256 315
f 252 315 317
f 252 317 318
f 252 318 253
f 253 318 319
f 253 319 254
f 254 319 320
f 254 320 321
f 254 321 255
f 255 322 257
f 255 321 323
f 255 323 324
f 255 324 325
f 255 325 322
f 257 322 258
f 258 322 326
f 258 326 259
f 259 326 327
f 259 327 309
f 259 309 308
f 260 314 328
f 260 328 261
f 261 328 329
f 261 329 262
f 265 269 266
f 266 330 331
f 266 331 267
f 266 269 330
f 267 331 332
f 267 332 333
f 267 333 268
f 268 333 334
f 268 334 270
f 269 335 330
f 270 336 337
f 270 337 338
f 270 338 339
f 270 339 271
f 270 334 340
f 270 340 341
f 270 341 336
f 271 339 342
f 271 342 272
f 272 342 343
f 272 343 273
f 273 343 274
f 274 343 276
f 274 276 275
f 276 343 344
f 276 344 277
f 277 345 346
f 277 346 278
f 277 344 347
f 277 347 345
f 278 346 348
f 278 348 279
f 279 349 280
f 279 348 349
f 280 349 290
f 280 290 281
f 281 290 282
f 290 349 291
f 291 349 292
f 292 349 348
f 292 348 350
f 292 350 293
f 293 350 294
f 294 350 295
f 295 351 352
f 295 352 353
f 295 353 354
f 295 354 355
f 295 355 296
f 295 350 356
f 295 356 357
f 295 357 351
f 296 355 297
f 297 355 298
f 298 358 318
f 298 318 359
f 298 359 360
f 298 360 299
f 298 355 361
f 298 361 358
f 299 360 362
f 299 362 317
f 299 317 363
f 299 363 364
f 299 364 300
f 300 364 365
f 300 365 301
f 301 365 366
f 301 366 367
f 301 367 302
f 302 367 303
f 306 307 368
f 306 368 316
f 309 327 310
f 310 327 369
f 310 369 370
f 310 370 311
f 311 371 372
f 311 372 312
f 311 370 373
f 311 373 371
f 312 372 374
f 312 374 375
f 312 375 376
f 312 376 313
f 313 376 314
f 314 376 377
f 314 377 378
f 314 378 379
f 314 379 328
f 315 316 364
f 315 364 363
f 315 363 317
f 316 380 365
f 316 365 364
f 316 368 380
f 317 362 360
f 317 360 359
f 317 359 318
f 318 358 381
f 318 381 382
f 318 382 319
f 319 382 352
f 319 352 320
f 320 352 321
f 321 352 383
f 321 383 384
f 321 384 323
f 322 325 326
f 323 325 324
f 323 384 325
f 325 385 326
f 325 384 386
f 325 386 387
f 325 387 385
f 326 385 327
f 327 385 388
f 327 388 369
f 328 379 329
f 329 379 378
f 329 378 389
f 330 390 391
f 330 391 392
f 330 392 393
f 330 393 331
f 330 335 394
f 330 394 390
f 331 393 395
f 331 395 332
f 332 395 396
f 332 396 334
f 332 334 333
f 334 396 340
f 336 397 398
f 336 398 337
f 336 341 399
f 336 399 400
f 336 400 401
f 336 401 397
f 337 398 338
f 338 398 344
f 338 344 342
f 338 342 339
f 340 402 341
f 340 396 395
f 340 395 402
f 341 403 404
f 341 404 405
f 341 405 406
f 341 406 399
f 341 402 403
f 342 344 343
f 344 398 347
f 345 347 346
f 346 347 407
f 346 407 408
f 346 408 409
f 346 409 348
f 347 401 410
f 347 410 411
f 347 411 408
f 347 408 412
f 347 412 407
f 347 398 397
f 347 397 401
f 348 409 413
f 348 413 357
f 348 357 350
f 350 357 356
f 351 357 414
f 351 414 352
f 352 382 353
f 352 414 415
f 352 415 416
f 352 416 417
f 352 417 384
f 352 384 383
f 353 382 381
f 353 381 361
f 353 361 355
f 353 355 354
f 357 413 408
f 357 408 418
f 357 418 415
f 357 415 414
f 358 361 381
f 365 380 366
f 366 380 419
f 366 419 367
f 368 419 380
f 369 388 420
f 369 420 421
f 369 421 370
f 370 421 422
f 370 422 373
f 371 423 372
f 371 373 424
f 371 424 423
f 372 423 425
f 372 425 374
f 373 422 426
f 373 426 424
f 374 427 375
f 374 425 427
f 375 427 428
f 375 428 377
f 375 377 376
f 377 428 429
f 377 429 378
f 378 429 430
f 378 430 389
f 384 417 416
f 384 416 431
f 384 431 386
f 385 387 432
f 385 432 388
f 386 431 433
f 386 433 434
f 386 434 435
f 386 435 387
f 387 435 432
f 388 432 420
f 392 436 393
f 393 436 437
f 393 437 395
f 395 437 438
f 395 438 439
f 395 439 402
f 399 406 400
f 400 406 440
f 400 440 441
f 400 441 442
f 400 442 443
f 400 443 410
f 400 410 401
f 402 439 403
f 403 439 444
f 403 444 404
f 404 445 405
f 404 444 446
f 404 446 445
f 405 447 406
f 405 445 448
f 405 448 447
f 406 447 440
f 407 412 408
f 408 411 449
f 408 449 442
f 408 442 450
f 408 450 451
f 408 451 415
f 408 415 418
f 408 413 452
f 408 452 409
f 409 452 413
f 410 443 442
f 410 442 411
f 411 442 449
f 415 451 453
f 415 453 416
f 416 453 433
f 416 433 431
f 420 432 454
f 420 454 421
f 421 426 422
f 421 454 455
f 421 455 426
f 423 424 456
f 423 456 457
f 423 457 458
f 423 458 425
f 424 426 459
f 424 459 460
f 424 460 461
f 424 461 456
f 425 458 427
f 426 455 462
f 426 462 459
f 427 458 463
f 427 463 464
f 427 464 429
f 427 429 428
f 429 464 465
f 429 465 466
f 429 466 467
f 429 467 430
f 432 435 468
f 432 468 469
f 432 469 454
f 433 470 434
f 433 453 471
f 433 471 472
f 433 472 473
f 433 473 470
f 434 474 435
f 434 470 474
f 435 474 468
f 436 475 437
f 437 476 438
f 437 475 477
f 437 477 478
f 437 478 479
f 437 479 476
f 438 476 444
f 438 444 439
f 440 447 480
f 440 480 481
f 440 481 482
f 440 482 483
f 440 483 441
f 441 483 442
f 442 483 453
f 442 453 450
f 444 476 446
f 445 484 485
f 445 485 486
f 445 486 448
f 445 446 484
f 446 476 484
f 447 448 487
f 447 487 488
f 447 488 489
f 447 489 490
f 447 490 491
f 447 491 480
f 448 486 487
f 450 453 451
f 453 492 471
f 453 483 492
f 454 469 493
f 454 493 455
f 455 493 494
f 455 494 495
f 455 495 462
f 456 496 457
f 456 461 496
f 457 496 497
f 457 497 463
f 457 463 458
f 459 462 498
f 459 498 460
f 460 499 500
f 460 500 461
f 460 498 501
f 460 501 499
f 461 500 496
f 462 495 498
f 463 497 465
f 463 465 464
f 465 497 496
f 465 496 502
f 468 474 503
f 468 503 469
f 469 503 504
f 469 504 505
f 469 505 506
f 469 506 493
f 470 507 508
f 470 508 474
f 470 473 481
f 470 481 509
f 470 509 507
f 471 492 483
f 471 483 482
f 471 482 472
f 472 482 481
f 472 481 473
f 474 508 504
f 474 504 503
f 475 510 478
f 475 478 477
f 476 479 484
f 478 510 511
f 478 511 512
f 478 512 479
f 479 512 513
f 479 513 514
f 479 514 486
f 479 486 515
f 479 515 485
f 479 485 516
f 479 516 484
f 480 491 481
f 481 491 517
f 481 517 505
f 481 505 504
f 481 504 509
f 484 516 485
f 485 515 486
f 486 514 518
f 486 518 488
f 486 488 487
f 488 519 489
f 488 518 519
f 489 519 520
f 489 520 521
f 489 521 490
f 490 521 495
f 490 495 494
f 490 494 491
f 491 494 517
f 493 506 494
f 494 506 517
f 495 522 498
f 495 521 523
f 495 523 522
f 496 500 524
f 496 524 502
f 498 522 501
f 499 525 526
f 499 526 527
f 499 527 500
f 499 501 525
f 500 502 524
f 500 527 502
f 501 522 528
f 501 528 529
f 501 529 530
f 501 530 531
f 501 531 532
f 501 532 525
f 502 527 533
f 504 508 507
f 504 507 509
f 505 517 506
f 511 534 535
f 511 535 513
f 511 513 512
f 513 535 514
f 514 535 536
f 514 536 518
f 518 536 519
f 519 537 520
f 519 536 537
f 520 537 538
f 520 538 523
f 520 523 521
f 522 523 539
f 522 539 528
f 523 538 539
f 526 533 527
f 528 539 540
f 528 540 541
f 528 541 542
f 528 542 543
f 528 543 529
f 534 544 539
f 534 539 538
f 534 538 537
f 534 537 535
f 535 537 536
f 539 544 545
f 539 545 540

