# https://github.com/mikedh/trimesh
v 0.00202097 -0.01814492 0.04490291 0.56470588 0.92549020 0.07058824
v 0.00202097 -0.03682200 0.04916391 0.56470588 0.92549020 0.07058824
v 0.00202097 -0.01814492 0.03684163 0.56470588 0.92549020 0.07058824
v -0.02932765 -0.01814492 0.05078515 0.56470588 0.92549020 0.07058824
v 0.00202097 -0.03739354 0.04928271 0.56470588 0.92549020 0.07058824
v 0.00202097 -0.03900257 0.03684163 0.56470588 0.92549020 0.07058824
v -0.03462433 -0.01814492 0.03684163 0.56470588 0.92549020 0.07058824
v -0.03474760 -0.01814492 0.05163996 0.56470588 0.92549020 0.07058824
v 0.00202097 -0.03785949 0.04937254 0.56470588 0.92549020 0.07058824
v 0.00202097 -0.04137594 0.04616484 0.56470588 0.92549020 0.07058824
v 0.00131217 -0.04152972 0.04652414 0.56470588 0.92549020 0.07058824
v 0.00051864 -0.04155268 0.04642707 0.56470588 0.92549020 0.07058824
v -0.00052144 -0.04158022 0.04641983 0.56470588 0.92549020 0.07058824
v 0.00155486 -0.03900716 0.03684163 0.56470588 0.92549020 0.07058824
v -0.03462048 -0.01815410 0.03684163 0.56470588 0.92549020 0.07058824
v -0.03462818 -0.01814492 0.03685032 0.56470588 0.92549020 0.07058824
v -0.03578382 -0.01814492 0.05142988 0.56470588 0.92549020 0.07058824
v -0.03474760 -0.01815410 0.05163996 0.56470588 0.92549020 0.07058824
v 0.00202097 -0.03889698 0.04950438 0.56470588 0.92549020 0.07058824
v 0.00202097 -0.03843103 0.04944788 0.56470588 0.92549020 0.07058824
v 0.00202097 -0.04136676 0.04719350 0.56470588 0.92549020 0.07058824
v 0.00131217 -0.04152972 0.04684434 0.56470588 0.92549020 0.07058824
v 0.00051864 -0.04155268 0.04705731 0.56470588 0.92549020 0.07058824
v -0.00052144 -0.03899109 0.03684163 0.56470588 0.92549020 0.07058824
v -0.00155766 -0.04159399 0.04719495 0.56470588 0.92549020 0.07058824
v -0.00155766 -0.04158481 0.04648213 0.56470588 0.92549020 0.07058824
v -0.00155766 -0.03897961 0.03684163 0.56470588 0.92549020 0.07058824
v -0.03430460 -0.01879450 0.03684163 0.56470588 0.92549020 0.07058824
v -0.03644639 -0.02002020 0.04926967 0.56470588 0.92549020 0.07058824
v -0.03685086 -0.01919159 0.04926967 0.56470588 0.92549020 0.07058824
v -0.03722837 -0.01839740 0.04926967 0.56470588 0.92549020 0.07058824
v -0.03733237 -0.01814492 0.04926967 0.56470588 0.92549020 0.07058824
v -0.03662744 -0.01814492 0.05104014 0.56470588 0.92549020 0.07058824
v -0.03578382 -0.01815410 0.05142988 0.56470588 0.92549020 0.07058824
v -0.03474760 -0.01919159 0.05148928 0.56470588 0.92549020 0.07058824
v -0.03371138 -0.02126427 0.05136758 0.56470588 0.92549020 0.07058824
v -0.03267130 -0.02126427 0.05141973 0.56470588 0.92549020 0.07058824
v 0.00155486 -0.03889698 0.04951018 0.56470588 0.92549020 0.07058824
v 0.00202097 -0.03946852 0.04935226 0.56470588 0.92549020 0.07058824
v -0.03059886 -0.02333925 0.05122269 0.56470588 0.92549020 0.07058824
v 0.00202097 -0.04118542 0.04762236 0.56470588 0.92549020 0.07058824
v 0.00051864 -0.04145398 0.04757599 0.56470588 0.92549020 0.07058824
v -0.00015163 -0.04148841 0.04770784 0.56470588 0.92549020 0.07058824
v -0.00050603 -0.04156186 0.04729492 0.56470588 0.92549020 0.07058824
v -0.00259388 -0.04151595 0.04775710 0.56470588 0.92549020 0.07058824
v -0.00326801 -0.04151366 0.04775130 0.56470588 0.92549020 0.07058824
v -0.00326801 -0.04151366 0.04745429 0.56470588 0.92549020 0.07058824
v -0.00267093 -0.04154120 0.04714280 0.56470588 0.92549020 0.07058824
v -0.00237816 -0.04154120 0.04657920 0.56470588 0.92549020 0.07058824
v -0.00467018 -0.03891535 0.03684163 0.56470588 0.92549020 0.07058824
v -0.03429305 -0.01881515 0.03684163 0.56470588 0.92549020 0.07058824
v -0.03618830 -0.02053894 0.04926967 0.56470588 0.92549020 0.07058824
v -0.03641942 -0.01998348 0.05008971 0.56470588 0.92549020 0.07058824
v -0.03723993 -0.01814492 0.05029255 0.56470588 0.92549020 0.07058824
v -0.03663514 -0.01814492 0.05103579 0.56470588 0.92549020 0.07058824
v -0.03663129 -0.01815410 0.05103579 0.56470588 0.92549020 0.07058824
v -0.03645024 -0.01896665 0.05092423 0.56470588 0.92549020 0.07058824
v -0.03586086 -0.01926504 0.05109375 0.56470588 0.92549020 0.07058824
v -0.03473219 -0.02120918 0.05101117 0.56470588 0.92549020 0.07058824
v -0.03474760 -0.02022908 0.05126906 0.56470588 0.92549020 0.07058824
v -0.03267130 -0.02230176 0.05129803 0.56470588 0.92549020 0.07058824
v -0.03369982 -0.02229028 0.05104304 0.56470588 0.92549020 0.07058824
v -0.02852256 -0.02852669 0.05069532 0.56470588 0.92549020 0.07058824
v -0.01430050 -0.03642262 0.04980574 0.56470588 0.92549020 0.07058824
v -0.01473964 -0.03642262 0.04980574 0.56470588 0.92549020 0.07058824
v -0.00570640 -0.03889698 0.04947106 0.56470588 0.92549020 0.07058824
v -0.00052144 -0.03993447 0.04924505 0.56470588 0.92549020 0.07058824
v 0.00051864 -0.03993447 0.04924505 0.56470588 0.92549020 0.07058824
v 0.00155486 -0.03993447 0.04923345 0.56470588 0.92549020 0.07058824
v 0.00202097 -0.03993447 0.04922041 0.56470588 0.92549020 0.07058824
v 0.00202097 -0.04092146 0.04823231 0.56470588 0.92549020 0.07058824
v 0.00202097 -0.04075620 0.04849165 0.56470588 0.92549020 0.07058824
v 0.00202097 -0.04052896 0.04882343 0.56470588 0.92549020 0.07058824
v -0.00050603 -0.04120149 0.04813089 0.56470588 0.92549020 0.07058824
v -0.00052144 -0.04061159 0.04887414 0.56470588 0.92549020 0.07058824
v -0.00467018 -0.04054732 0.04882633 0.56470588 0.92549020 0.07058824
v -0.00570640 -0.04049224 0.04878287 0.56470588 0.92549020 0.07058824
v -0.00624955 -0.04045781 0.04875679 0.56470588 0.92549020 0.07058824
v -0.00881892 -0.04058175 0.04787735 0.56470588 0.92549020 0.07058824
v -0.00941600 -0.04049683 0.04776869 0.56470588 0.92549020 0.07058824
v -0.00306770 -0.04148152 0.04676175 0.56470588 0.92549020 0.07058824
v -0.00941600 -0.04049683 0.04752529 0.56470588 0.92549020 0.07058824
v -0.00883433 -0.04058405 0.04718626 0.56470588 0.92549020 0.07058824
v -0.00569100 -0.03870877 0.03684163 0.56470588 0.92549020 0.07058824
v -0.03399643 -0.01932472 0.03684163 0.56470588 0.92549020 0.07058824
v -0.03532927 -0.02186335 0.04945223 0.56470588 0.92549020 0.07058824
v -0.03532927 -0.02186335 0.04990281 0.56470588 0.92549020 0.07058824
v -0.03326453 -0.02499418 0.04862784 0.56470588 0.92549020 0.07058824
v -0.03608043 -0.02028876 0.05038382 0.56470588 0.92549020 0.07058824
v -0.03625763 -0.01965983 0.05078225 0.56470588 0.92549020 0.07058824
v -0.03665055 -0.01926504 0.05038382 0.56470588 0.92549020 0.07058824
v -0.03717059 -0.01821837 0.05036644 0.56470588 0.92549020 0.07058824
v -0.03718214 -0.01814492 0.05040555 0.56470588 0.92549020 0.07058824
v -0.03532157 -0.02082816 0.05085759 0.56470588 0.92549020 0.07058824
v -0.03437394 -0.02193680 0.05090395 0.56470588 0.92549020 0.07058824
v -0.03334928 -0.02304544 0.05090540 0.56470588 0.92549020 0.07058824
v -0.02960501 -0.02856112 0.05028675 0.56470588 0.92549020 0.07058824
v -0.02856108 -0.02961467 0.05023169 0.56470588 0.92549020 0.07058824
v -0.02744781 -0.03059937 0.05010275 0.56470588 0.92549020 0.07058824
v -0.02748634 -0.02956418 0.05052146 0.56470588 0.92549020 0.07058824
v -0.01874201 -0.03528873 0.04979850 0.56470588 0.92549020 0.07058824
v -0.01507093 -0.03678987 0.04964347 0.56470588 0.92549020 0.07058824
v -0.01397692 -0.03678987 0.04972605 0.56470588 0.92549020 0.07058824
v -0.00674263 -0.03889698 0.04945512 0.56470588 0.92549020 0.07058824
v -0.00467018 -0.03993447 0.04914797 0.56470588 0.92549020 0.07058824
v 0.00202097 -0.04026959 0.04900019 0.56470588 0.92549020 0.07058824
v 0.00155486 -0.04054503 0.04883358 0.56470588 0.92549020 0.07058824
v -0.00570640 -0.03993447 0.04911755 0.56470588 0.92549020 0.07058824
v -0.00665403 -0.03997808 0.04899150 0.56470588 0.92549020 0.07058824
v -0.01044067 -0.03943638 0.04877562 0.56470588 0.92549020 0.07058824
v -0.01579898 -0.03845628 0.04781650 0.56470588 0.92549020 0.07058824
v -0.01320650 -0.03931932 0.04719495 0.56470588 0.92549020 0.07058824
v -0.01260942 -0.03946163 0.04661542 0.56470588 0.92549020 0.07058824
v -0.00919258 -0.04041419 0.04683275 0.56470588 0.92549020 0.07058824
v -0.00772492 -0.03827495 0.03684163 0.56470588 0.92549020 0.07058824
v -0.03225142 -0.02192762 0.03684163 0.56470588 0.92549020 0.07058824
v -0.03326453 -0.02499418 0.04905959 0.56470588 0.92549020 0.07058824
v -0.03317978 -0.02487941 0.04975069 0.56470588 0.92549020 0.07058824
v -0.03506733 -0.02151905 0.05059535 0.56470588 0.92549020 0.07058824
v -0.03552573 -0.02120918 0.05027226 0.56470588 0.92549020 0.07058824
v -0.03014045 -0.02497122 0.03703722 0.56470588 0.92549020 0.07058824
v -0.02989007 -0.02523060 0.03684163 0.56470588 0.92549020 0.07058824
v -0.03010578 -0.02906839 0.04870173 0.56470588 0.92549020 0.07058824
v -0.03026372 -0.02823748 0.05002741 0.56470588 0.92549020 0.07058824
v -0.02928528 -0.02930251 0.05003610 0.56470588 0.92549020 0.07058824
v -0.02824135 -0.03025277 0.04997091 0.56470588 0.92549020 0.07058824
v -0.02707416 -0.03119386 0.04986369 0.56470588 0.92549020 0.07058824
v -0.02510572 -0.03225660 0.04987673 0.56470588 0.92549020 0.07058824
v -0.02645011 -0.03059937 0.05029834 0.56470588 0.92549020 0.07058824
v -0.02179674 -0.03527496 0.04876258 0.56470588 0.92549020 0.07058824
v -0.01914648 -0.03576156 0.04930010 0.56470588 0.92549020 0.07058824
v -0.01814878 -0.03653050 0.04899729 0.56470588 0.92549020 0.07058824
v -0.01504396 -0.03760242 0.04909726 0.56470588 0.92549020 0.07058824
v -0.01587217 -0.03747388 0.04892485 0.56470588 0.92549020 0.07058824
v -0.01579898 -0.03845628 0.04751080 0.56470588 0.92549020 0.07058824
v -0.01886142 -0.03639048 0.04886255 0.56470588 0.92549020 0.07058824
v -0.01994002 -0.03643869 0.04795269 0.56470588 0.92549020 0.07058824
v -0.01295611 -0.03692759 0.03684163 0.56470588 0.92549020 0.07058824
v -0.01208938 -0.03723057 0.03684163 0.56470588 0.92549020 0.07058824
v -0.01156934 -0.03738436 0.03684163 0.56470588 0.92549020 0.07058824
v -0.03010578 -0.02906839 0.04882488 0.56470588 0.92549020 0.07058824
v -0.03098792 -0.02783121 0.04926967 0.56470588 0.92549020 0.07058824
v -0.02997866 -0.02892837 0.04951598 0.56470588 0.92549020 0.07058824
v -0.02917357 -0.02610053 0.03684163 0.56470588 0.92549020 0.07058824
v -0.02873057 -0.02661009 0.03684163 0.56470588 0.92549020 0.07058824
v -0.02821439 -0.02717933 0.03684163 0.56470588 0.92549020 0.07058824
v -0.02590311 -0.03005079 0.03847011 0.56470588 0.92549020 0.07058824
v -0.02803334 -0.03114336 0.04866696 0.56470588 0.92549020 0.07058824
v -0.02893474 -0.02999111 0.04947106 0.56470588 0.92549020 0.07058824
v -0.02776754 -0.03094596 0.04948989 0.56470588 0.92549020 0.07058824
v -0.02617276 -0.03237366 0.04902193 0.56470588 0.92549020 0.07058824
v -0.02579911 -0.03205690 0.04971301 0.56470588 0.92549020 0.07058824
v -0.02561805 -0.03299569 0.04823231 0.56470588 0.92549020 0.07058824
v -0.02192386 -0.03534611 0.04823231 0.56470588 0.92549020 0.07058824
v -0.01296767 -0.03692300 0.03684163 0.56470588 0.92549020 0.07058824
v -0.01994002 -0.03643869 0.04738620 0.56470588 0.92549020 0.07058824
v -0.01711641 -0.03777686 0.04719495 0.56470588 0.92549020 0.07058824
v -0.02195468 -0.03536218 0.04749921 0.56470588 0.92549020 0.07058824
v -0.02803334 -0.03114336 0.04879881 0.56470588 0.92549020 0.07058824
v -0.03040625 -0.02856112 0.04921027 0.56470588 0.92549020 0.07058824
v -0.02501327 -0.03020228 0.03684163 0.56470588 0.92549020 0.07058824
v -0.02470895 -0.03094826 0.03786160 0.56470588 0.92549020 0.07058824
v -0.02485533 -0.03108369 0.03852082 0.56470588 0.92549020 0.07058824
v -0.02509802 -0.03332851 0.04758324 0.56470588 0.92549020 0.07058824
v -0.02628833 -0.03247695 0.04823231 0.56470588 0.92549020 0.07058824
v -0.01704322 -0.03507067 0.03684163 0.56470588 0.92549020 0.07058824
v -0.02257487 -0.03307832 0.03993632 0.56470588 0.92549020 0.07058824
v -0.02322203 -0.03242416 0.03889896 0.56470588 0.92549020 0.07058824
v -0.02436997 -0.03077382 0.03684163 0.56470588 0.92549020 0.07058824
v -0.02399246 -0.03123747 0.03710676 0.56470588 0.92549020 0.07058824
v -0.02418892 -0.03140274 0.03786160 0.56470588 0.92549020 0.07058824
v -0.02374207 -0.03208215 0.03889896 0.56470588 0.92549020 0.07058824
v -0.01811796 -0.03451520 0.03684163 0.56470588 0.92549020 0.07058824
v -0.02226285 -0.03294290 0.03892649 0.56470588 0.92549020 0.07058824
v -0.02336071 -0.03194902 0.03780365 0.56470588 0.92549020 0.07058824
v -0.02302942 -0.03227037 0.03810935 0.56470588 0.92549020 0.07058824
v -0.02067577 -0.03315407 0.03684163 0.56470588 0.92549020 0.07058824
v -0.02428907 -0.03084497 0.03684163 0.56470588 0.92549020 0.07058824
v -0.02349553 -0.03143946 0.03684163 0.56470588 0.92549020 0.07058824
v -0.02339538 -0.03150373 0.03684163 0.56470588 0.92549020 0.07058824
f 1 2 5
f 1 5 9
f 1 9 20
f 1 20 19
f 1 19 39
f 1 39 70
f 1 70 106
f 1 106 73
f 1 73 72
f 1 72 71
f 1 71 41
f 1 41 21
f 1 21 10
f 1 10 6
f 1 6 3
f 1 3 7
f 1 7 16
f 1 16 32
f 1 32 54
f 1 54 93
f 1 93 55
f 1 55 33
f 1 33 17
f 1 17 8
f 1 8 4
f 1 4 2
f 2 4 5
f 3 6 14
f 3 14 24
f 3 24 27
f 3 27 50
f 3 50 84
f 3 84 115
f 3 115 140
f 3 140 139
f 3 139 138
f 3 138 155
f 3 155 166
f 3 166 173
f 3 173 177
f 3 177 180
f 3 180 179
f 3 179 178
f 3 178 169
f 3 169 161
f 3 161 146
f 3 146 145
f 3 145 144
f 3 144 122
f 3 122 116
f 3 116 85
f 3 85 51
f 3 51 28
f 3 28 15
f 3 15 7
f 4 8 9
f 4 9 5
f 6 10 11
f 6 11 12
f 6 12 13
f 6 13 14
f 7 15 16
f 8 17 34
f 8 34 18
f 8 18 19
f 8 19 20
f 8 20 9
f 10 21 22
f 10 22 11
f 11 22 23
f 11 23 12
f 12 23 13
f 13 24 14
f 13 23 25
f 13 25 26
f 13 26 27
f 13 27 24
f 15 28 16
f 16 28 29
f 16 29 30
f 16 30 31
f 16 31 32
f 17 33 34
f 18 34 35
f 18 35 36
f 18 36 37
f 18 37 19
f 19 38 39
f 19 37 40
f 19 40 38
f 21 41 42
f 21 42 22
f 22 42 43
f 22 43 23
f 23 43 44
f 23 44 25
f 25 44 43
f 25 43 45
f 25 45 46
f 25 46 47
f 25 47 48
f 25 48 26
f 26 48 49
f 26 49 50
f 26 50 27
f 28 51 52
f 28 52 29
f 29 52 53
f 29 53 30
f 30 53 31
f 31 53 54
f 31 54 32
f 33 55 56
f 33 56 57
f 33 57 34
f 34 57 58
f 34 58 59
f 34 59 60
f 34 60 36
f 34 36 35
f 36 61 37
f 36 60 59
f 36 59 62
f 36 62 63
f 36 63 61
f 37 61 63
f 37 63 40
f 38 64 65
f 38 65 66
f 38 66 67
f 38 67 68
f 38 68 69
f 38 69 39
f 38 40 63
f 38 63 64
f 39 69 70
f 41 71 42
f 42 71 43
f 43 71 72
f 43 72 73
f 43 73 74
f 43 74 45
f 45 74 75
f 45 75 46
f 46 75 76
f 46 76 77
f 46 77 78
f 46 78 79
f 46 79 80
f 46 80 82
f 46 82 47
f 47 81 49
f 47 49 48
f 47 82 83
f 47 83 81
f 49 81 50
f 50 81 83
f 50 83 84
f 51 85 52
f 52 86 87
f 52 87 53
f 52 85 88
f 52 88 86
f 53 87 89
f 53 89 90
f 53 90 91
f 53 91 54
f 54 91 92
f 54 92 93
f 55 93 57
f 55 57 56
f 57 90 94
f 57 94 59
f 57 59 58
f 57 93 90
f 59 95 62
f 59 94 95
f 62 95 96
f 62 96 63
f 63 96 97
f 63 97 98
f 63 98 99
f 63 99 100
f 63 100 101
f 63 101 65
f 63 65 64
f 65 102 103
f 65 103 104
f 65 104 66
f 65 101 102
f 66 104 67
f 67 75 68
f 67 104 105
f 67 105 76
f 67 76 75
f 68 75 69
f 69 75 70
f 70 75 106
f 73 106 107
f 73 107 74
f 74 107 75
f 75 107 106
f 76 105 108
f 76 108 77
f 77 108 78
f 78 108 109
f 78 109 110
f 78 110 79
f 79 110 80
f 80 110 111
f 80 111 112
f 80 112 82
f 82 112 113
f 82 113 83
f 83 113 114
f 83 114 115
f 83 115 84
f 85 116 88
f 86 88 117
f 86 117 87
f 87 117 118
f 87 118 119
f 87 119 120
f 87 120 90
f 87 90 89
f 88 116 121
f 88 121 122
f 88 122 123
f 88 123 141
f 88 141 117
f 90 93 92
f 90 92 91
f 90 120 119
f 90 119 94
f 94 119 95
f 95 119 124
f 95 124 97
f 95 97 96
f 97 124 125
f 97 125 98
f 98 126 99
f 98 125 126
f 99 127 128
f 99 128 129
f 99 129 100
f 99 126 127
f 100 129 101
f 101 129 128
f 101 128 130
f 101 130 131
f 101 131 132
f 101 132 133
f 101 133 102
f 102 133 110
f 102 110 109
f 102 109 108
f 102 108 104
f 102 104 103
f 104 108 105
f 110 133 134
f 110 134 111
f 111 135 112
f 111 134 136
f 111 136 130
f 111 130 137
f 111 137 156
f 111 156 135
f 112 135 113
f 113 135 138
f 113 138 139
f 113 139 140
f 113 140 114
f 114 140 115
f 116 122 121
f 117 141 142
f 117 142 118
f 118 142 143
f 118 143 124
f 118 124 119
f 122 144 123
f 123 144 145
f 123 145 146
f 123 146 147
f 123 147 148
f 123 148 159
f 123 159 141
f 124 143 125
f 125 143 149
f 125 149 126
f 126 149 150
f 126 150 127
f 127 150 151
f 127 151 130
f 127 130 152
f 127 152 128
f 128 152 130
f 130 136 131
f 130 151 153
f 130 153 154
f 130 154 137
f 131 136 132
f 132 136 134
f 132 134 133
f 135 155 138
f 135 156 157
f 135 157 155
f 137 154 158
f 137 158 156
f 141 159 149
f 141 149 143
f 141 143 160
f 141 160 142
f 142 160 143
f 146 161 162
f 146 162 163
f 146 163 147
f 147 163 148
f 148 163 164
f 148 164 165
f 148 165 153
f 148 153 159
f 149 159 150
f 150 159 151
f 151 159 153
f 153 158 154
f 153 165 164
f 153 164 158
f 155 157 166
f 156 158 167
f 156 167 166
f 156 166 157
f 158 164 168
f 158 168 167
f 161 169 170
f 161 170 162
f 162 170 171
f 162 171 163
f 163 171 172
f 163 172 164
f 164 172 168
f 166 167 173
f 167 168 174
f 167 174 173
f 168 172 175
f 168 175 176
f 168 176 177
f 168 177 173
f 168 173 174
f 169 178 170
f 170 178 179
f 170 179 180
f 170 180 175
f 170 175 171
f 171 175 172
f 175 180 177
f 175 177 176

