# https://github.com/mikedh/trimesh
v 0.02492702 -0.02236871 0.03684018 0.79607843 0.45882353 0.78039216
v 0.03180845 -0.02236871 0.03684018 0.79607843 0.45882353 0.78039216
v 0.02492702 -0.02236871 0.04664192 0.79607843 0.45882353 0.78039216
v 0.02492702 -0.00013246 0.03684018 0.79607843 0.45882353 0.78039216
v 0.03185626 -0.02228164 0.03684018 0.79607843 0.45882353 0.78039216
v 0.03313230 -0.02167437 0.03851674 0.79607843 0.45882353 0.78039216
v 0.03230139 -0.02236871 0.03783520 0.79607843 0.45882353 0.78039216
v 0.02537545 -0.02236871 0.04699475 0.79607843 0.45882353 0.78039216
v 0.02492702 -0.00013246 0.04611522 0.79607843 0.45882353 0.78039216
v 0.03851841 -0.00013246 0.03684018 0.79607843 0.45882353 0.78039216
v 0.03186450 -0.02226641 0.03684018 0.79607843 0.45882353 0.78039216
v 0.03347522 -0.02130217 0.03887719 0.79607843 0.45882353 0.78039216
v 0.03328068 -0.02189856 0.03920844 0.79607843 0.45882353 0.78039216
v 0.03427316 -0.01771511 0.03684018 0.79607843 0.45882353 0.78039216
v 0.03636694 -0.01360132 0.03684018 0.79607843 0.45882353 0.78039216
v 0.03284709 -0.02226641 0.03887719 0.79607843 0.45882353 0.78039216
v 0.03276631 -0.02236871 0.03887972 0.79607843 0.45882353 0.78039216
v 0.02611074 -0.02236871 0.04755064 0.79607843 0.45882353 0.78039216
v 0.03679064 -0.00013246 0.04850886 0.79607843 0.45882353 0.78039216
v 0.02666468 -0.02236871 0.04791235 0.79607843 0.45882353 0.78039216
v 0.02754341 -0.02236871 0.04843017 0.79607843 0.45882353 0.78039216
v 0.02755660 -0.02236871 0.04843779 0.79607843 0.45882353 0.78039216
v 0.02807592 -0.02236871 0.04872081 0.79607843 0.45882353 0.78039216
v 0.02851446 -0.02236871 0.04887818 0.79607843 0.45882353 0.78039216
v 0.02949540 -0.02236871 0.04916882 0.79607843 0.45882353 0.78039216
v 0.02956300 -0.02230123 0.04917771 0.79607843 0.45882353 0.78039216
v 0.04157334 -0.00013246 0.04649216 0.79607843 0.45882353 0.78039216
v 0.04158653 -0.00051990 0.04645662 0.79607843 0.45882353 0.78039216
v 0.04160467 -0.00155596 0.04640205 0.79607843 0.45882353 0.78039216
v 0.03842938 -0.00259421 0.03684018 0.79607843 0.45882353 0.78039216
v 0.03643783 -0.01992437 0.04542733 0.79607843 0.45882353 0.78039216
v 0.03621691 -0.02062306 0.04615837 0.79607843 0.45882353 0.78039216
v 0.03526729 -0.02178320 0.04563928 0.79607843 0.45882353 0.78039216
v 0.03738744 -0.01778041 0.04554663 0.79607843 0.45882353 0.78039216
v 0.03645761 -0.01328354 0.03684018 0.79607843 0.45882353 0.78039216
v 0.04009451 -0.00985538 0.04512146 0.79607843 0.45882353 0.78039216
v 0.03487492 -0.02236871 0.04615837 0.79607843 0.45882353 0.78039216
v 0.03786060 -0.00013246 0.04869289 0.79607843 0.45882353 0.78039216
v 0.03059999 -0.02126299 0.04928559 0.79607843 0.45882353 0.78039216
v 0.03630099 -0.01554721 0.04978944 0.79607843 0.45882353 0.78039216
v 0.02956300 -0.02236871 0.04918152 0.79607843 0.45882353 0.78039216
v 0.04167556 -0.00013246 0.04695667 0.79607843 0.45882353 0.78039216
v 0.04174975 -0.00051990 0.04719527 0.79607843 0.45882353 0.78039216
v 0.04176788 -0.00155596 0.04719527 0.79607843 0.45882353 0.78039216
v 0.04156180 -0.00259421 0.04647820 0.79607843 0.45882353 0.78039216
v 0.03840301 -0.00307306 0.03684018 0.79607843 0.45882353 0.78039216
v 0.03690274 -0.01918868 0.04615837 0.79607843 0.45882353 0.78039216
v 0.03650707 -0.02010503 0.04615837 0.79607843 0.45882353 0.78039216
v 0.03622680 -0.02056865 0.04719527 0.79607843 0.45882353 0.78039216
v 0.03580145 -0.02126299 0.04719527 0.79607843 0.45882353 0.78039216
v 0.03506946 -0.02236871 0.04719527 0.79607843 0.45882353 0.78039216
v 0.03575034 -0.02126299 0.04615837 0.79607843 0.45882353 0.78039216
v 0.03531840 -0.02185503 0.04615837 0.79607843 0.45882353 0.78039216
v 0.04011924 -0.00985538 0.04615837 0.79607843 0.45882353 0.78039216
v 0.03652191 -0.01304846 0.03684018 0.79607843 0.45882353 0.78039216
v 0.03727039 -0.00999686 0.03684018 0.79607843 0.45882353 0.78039216
v 0.03738250 -0.00953324 0.03684018 0.79607843 0.45882353 0.78039216
v 0.03802382 -0.00674283 0.03684018 0.79607843 0.45882353 0.78039216
v 0.04045886 -0.00730439 0.04459349 0.79607843 0.45882353 0.78039216
v 0.04069791 -0.00674283 0.04512146 0.79607843 0.45882353 0.78039216
v 0.04046216 -0.00837746 0.04557836 0.79607843 0.45882353 0.78039216
v 0.04063856 -0.00778107 0.04615837 0.79607843 0.45882353 0.78039216
v 0.03889760 -0.00013246 0.04872588 0.79607843 0.45882353 0.78039216
v 0.03053405 -0.02236871 0.04927797 0.79607843 0.45882353 0.78039216
v 0.03616580 -0.01663987 0.04980467 0.79607843 0.45882353 0.78039216
v 0.03619878 -0.01607613 0.04980214 0.79607843 0.45882353 0.78039216
v 0.03630758 -0.01554721 0.04978944 0.79607843 0.45882353 0.78039216
v 0.04172337 -0.00013246 0.04719527 0.79607843 0.45882353 0.78039216
v 0.04165413 -0.00051990 0.04789205 0.79607843 0.45882353 0.78039216
v 0.04164094 -0.00013246 0.04788316 0.79607843 0.45882353 0.78039216
v 0.04165248 -0.00155596 0.04787681 0.79607843 0.45882353 0.78039216
v 0.04162445 -0.00259421 0.04786920 0.79607843 0.45882353 0.78039216
v 0.04169699 -0.00259421 0.04719527 0.79607843 0.45882353 0.78039216
v 0.04148267 -0.00405036 0.04678153 0.79607843 0.45882353 0.78039216
v 0.04136562 -0.00367598 0.04621675 0.79607843 0.45882353 0.78039216
v 0.04081167 -0.00570676 0.04512146 0.79607843 0.45882353 0.78039216
v 0.03816890 -0.00570676 0.03684018 0.79607843 0.45882353 0.78039216
v 0.03678899 -0.01918868 0.04719527 0.79607843 0.45882353 0.78039216
v 0.03644772 -0.02005062 0.04719527 0.79607843 0.45882353 0.78039216
v 0.03655488 -0.01928880 0.04832864 0.79607843 0.45882353 0.78039216
v 0.03629934 -0.01970236 0.04873985 0.79607843 0.45882353 0.78039216
v 0.03532170 -0.02187679 0.04781336 0.79607843 0.45882353 0.78039216
v 0.03505956 -0.02236871 0.04728031 0.79607843 0.45882353 0.78039216
v 0.04048029 -0.00837093 0.04675488 0.79607843 0.45882353 0.78039216
v 0.03738250 -0.01673346 0.04884773 0.79607843 0.45882353 0.78039216
v 0.03700166 -0.01815044 0.04823345 0.79607843 0.45882353 0.78039216
v 0.04087102 -0.00674283 0.04615837 0.79607843 0.45882353 0.78039216
v 0.04150905 -0.00418966 0.04747322 0.79607843 0.45882353 0.78039216
v 0.04150905 -0.00418966 0.04773594 0.79607843 0.45882353 0.78039216
v 0.03926030 -0.00013246 0.04866750 0.79607843 0.45882353 0.78039216
v 0.03059999 -0.02236871 0.04927670 0.79607843 0.45882353 0.78039216
v 0.03635045 -0.01663987 0.04980467 0.79607843 0.45882353 0.78039216
v 0.03634056 -0.01607613 0.04980214 0.79607843 0.45882353 0.78039216
v 0.03990657 -0.00013246 0.04855835 0.79607843 0.45882353 0.78039216
v 0.04097159 -0.00051990 0.04822964 0.79607843 0.45882353 0.78039216
v 0.04097159 -0.00013246 0.04822330 0.79607843 0.45882353 0.78039216
v 0.04155851 -0.00363245 0.04779939 0.79607843 0.45882353 0.78039216
v 0.04097159 -0.00259421 0.04817380 0.79607843 0.45882353 0.78039216
v 0.04155521 -0.00367598 0.04715466 0.79607843 0.45882353 0.78039216
v 0.03646585 -0.01901237 0.04892007 0.79607843 0.45882353 0.78039216
v 0.03435560 -0.02236871 0.04883630 0.79607843 0.45882353 0.78039216
v 0.03475951 -0.02236871 0.04829818 0.79607843 0.45882353 0.78039216
v 0.03481392 -0.02236871 0.04819411 0.79607843 0.45882353 0.78039216
v 0.03744350 -0.01607613 0.04898480 0.79607843 0.45882353 0.78039216
v 0.03685988 -0.01607613 0.04950261 0.79607843 0.45882353 0.78039216
v 0.03267563 -0.02236871 0.04911806 0.79607843 0.45882353 0.78039216
v 0.03364338 -0.02236871 0.04903810 0.79607843 0.45882353 0.78039216
v 0.03370933 -0.02236871 0.04902541 0.79607843 0.45882353 0.78039216
v 0.03432262 -0.02236871 0.04884773 0.79607843 0.45882353 0.78039216
f 1 2 7
f 1 7 17
f 1 17 37
f 1 37 51
f 1 51 83
f 1 83 103
f 1 103 102
f 1 102 101
f 1 101 109
f 1 109 108
f 1 108 107
f 1 107 106
f 1 106 91
f 1 91 64
f 1 64 41
f 1 41 25
f 1 25 24
f 1 24 23
f 1 23 22
f 1 22 21
f 1 21 20
f 1 20 18
f 1 18 8
f 1 8 3
f 1 3 9
f 1 9 4
f 1 4 10
f 1 10 30
f 1 30 46
f 1 46 77
f 1 77 58
f 1 58 57
f 1 57 56
f 1 56 55
f 1 55 35
f 1 35 15
f 1 15 14
f 1 14 11
f 1 11 5
f 1 5 2
f 2 5 6
f 2 6 7
f 3 8 9
f 4 9 19
f 4 19 38
f 4 38 63
f 4 63 90
f 4 90 94
f 4 94 96
f 4 96 70
f 4 70 68
f 4 68 42
f 4 42 27
f 4 27 10
f 5 11 6
f 6 12 13
f 6 13 7
f 6 11 14
f 6 14 15
f 6 15 12
f 7 13 16
f 7 16 17
f 8 18 9
f 9 18 20
f 9 20 21
f 9 21 22
f 9 22 23
f 9 23 24
f 9 24 25
f 9 25 26
f 9 26 19
f 10 27 28
f 10 28 29
f 10 29 30
f 12 31 13
f 12 15 31
f 13 31 32
f 13 32 33
f 13 33 17
f 13 17 16
f 15 34 31
f 15 35 36
f 15 36 34
f 17 33 37
f 19 26 39
f 19 39 40
f 19 40 38
f 25 41 26
f 26 41 39
f 27 42 43
f 27 43 28
f 28 43 29
f 29 43 44
f 29 44 45
f 29 45 46
f 29 46 30
f 31 47 48
f 31 48 32
f 31 34 47
f 32 48 49
f 32 49 50
f 32 50 51
f 32 51 52
f 32 52 33
f 33 53 37
f 33 52 53
f 34 36 54
f 34 54 47
f 35 55 36
f 36 56 57
f 36 57 58
f 36 58 59
f 36 59 60
f 36 60 61
f 36 61 62
f 36 62 54
f 36 55 56
f 37 53 51
f 38 40 63
f 39 41 64
f 39 64 65
f 39 65 66
f 39 66 40
f 40 66 93
f 40 93 67
f 40 67 63
f 42 68 43
f 43 69 44
f 43 68 70
f 43 70 69
f 44 71 72
f 44 72 73
f 44 73 45
f 44 69 71
f 45 73 74
f 45 74 75
f 45 75 76
f 45 76 77
f 45 77 46
f 47 78 79
f 47 79 49
f 47 49 48
f 47 54 78
f 49 79 80
f 49 80 81
f 49 81 82
f 49 82 50
f 50 82 83
f 50 83 51
f 51 53 52
f 54 62 84
f 54 84 85
f 54 85 86
f 54 86 78
f 58 77 59
f 59 77 60
f 60 87 61
f 60 77 76
f 60 76 75
f 60 75 74
f 60 74 87
f 61 87 62
f 62 87 88
f 62 88 89
f 62 89 84
f 63 67 90
f 64 91 92
f 64 92 65
f 65 92 93
f 65 93 66
f 67 93 94
f 67 94 90
f 69 95 71
f 69 70 96
f 69 96 95
f 71 95 72
f 72 97 73
f 72 95 98
f 72 98 92
f 72 92 97
f 73 97 89
f 73 89 88
f 73 88 99
f 73 99 74
f 74 99 88
f 74 88 87
f 78 86 80
f 78 80 79
f 80 86 85
f 80 85 81
f 81 85 100
f 81 100 101
f 81 101 102
f 81 102 103
f 81 103 82
f 82 103 83
f 84 89 85
f 85 104 92
f 85 92 100
f 85 89 104
f 89 97 105
f 89 105 104
f 91 106 92
f 92 106 107
f 92 107 108
f 92 108 109
f 92 109 101
f 92 101 100
f 92 104 105
f 92 105 97
f 92 98 95
f 92 95 94
f 92 94 93
f 94 95 96

