# https://github.com/mikedh/trimesh
v 0.00317225 0.04149927 0.04688667 0.94117647 0.52156863 0.41176471
v 0.00317225 0.04149927 0.04666173 0.94117647 0.52156863 0.41176471
v 0.00303400 0.04149927 0.04688667 0.94117647 0.52156863 0.41176471
v 0.00265191 0.04146023 0.04721837 0.94117647 0.52156863 0.41176471
v 0.00356440 0.04139517 0.04721837 0.94117647 0.52156863 0.41176471
v 0.00674426 0.04095494 0.04719559 0.94117647 0.52156863 0.41176471
v 0.00674426 0.04101132 0.04615777 0.94117647 0.52156863 0.41176471
v 0.00466792 0.03946724 0.03814421 0.94117647 0.52156863 0.41176471
v 0.00202097 0.03944555 0.03684018 0.94117647 0.52156863 0.41176471
v 0.00303400 0.04149927 0.04666173 0.94117647 0.52156863 0.41176471
v 0.00202097 0.04139951 0.04720556 0.94117647 0.52156863 0.41176471
v 0.00202097 0.03995735 0.05030763 0.94117647 0.52156863 0.41176471
v 0.00466792 0.03978820 0.05028058 0.94117647 0.52156863 0.41176471
v 0.00570609 0.03970145 0.05021652 0.94117647 0.52156863 0.41176471
v 0.00570609 0.04071205 0.04810386 0.94117647 0.52156863 0.41176471
v 0.00674426 0.04063831 0.04798428 0.94117647 0.52156863 0.41176471
v 0.00754363 0.04053856 0.04782341 0.94117647 0.52156863 0.41176471
v 0.00784779 0.04067735 0.04727389 0.94117647 0.52156863 0.41176471
v 0.00952194 0.04048434 0.04677990 0.94117647 0.52156863 0.41176471
v 0.00777992 0.04083349 0.04615777 0.94117647 0.52156863 0.41176471
v 0.00941887 0.04046916 0.04559972 0.94117647 0.52156863 0.41176471
v 0.00881809 0.04052337 0.04540468 0.94117647 0.52156863 0.41176471
v 0.00520838 0.03942603 0.03834637 0.94117647 0.52156863 0.41176471
v 0.00466792 0.03915278 0.03684018 0.94117647 0.52156863 0.41176471
v 0.00202097 0.01934641 0.03684018 0.94117647 0.52156863 0.41176471
v 0.00202097 0.03952145 0.05091551 0.94117647 0.52156863 0.41176471
v 0.00570609 0.03933278 0.05073614 0.94117647 0.52156863 0.41176471
v 0.00674426 0.03929158 0.05064930 0.94117647 0.52156863 0.41176471
v 0.00777992 0.03924386 0.05053825 0.94117647 0.52156863 0.41176471
v 0.00259410 0.03949326 0.05089416 0.94117647 0.52156863 0.41176471
v 0.00341357 0.03944989 0.05085572 0.94117647 0.52156863 0.41176471
v 0.00777992 0.03953447 0.05002006 0.94117647 0.52156863 0.41176471
v 0.00856421 0.03946724 0.04989762 0.94117647 0.52156863 0.41176471
v 0.00925548 0.03939567 0.04971682 0.94117647 0.52156863 0.41176471
v 0.00881809 0.04037374 0.04750025 0.94117647 0.52156863 0.41176471
v 0.00986380 0.04024796 0.04715431 0.94117647 0.52156863 0.41176471
v 0.01267164 0.03951278 0.04685108 0.94117647 0.52156863 0.41176471
v 0.01089192 0.04013085 0.04615777 0.94117647 0.52156863 0.41176471
v 0.01005485 0.04037808 0.04615777 0.94117647 0.52156863 0.41176471
v 0.00953702 0.04049084 0.04615777 0.94117647 0.52156863 0.41176471
v 0.01258617 0.03947808 0.04553708 0.94117647 0.52156863 0.41176471
v 0.00869743 0.03826146 0.03684018 0.94117647 0.52156863 0.41176471
v 0.00793075 0.03848700 0.03684018 0.94117647 0.52156863 0.41176471
v 0.00785031 0.03850869 0.03684018 0.94117647 0.52156863 0.41176471
v 0.00780255 0.03851953 0.03684018 0.94117647 0.52156863 0.41176471
v 0.00672667 0.03875592 0.03684018 0.94117647 0.52156863 0.41176471
v 0.00202097 0.01934641 0.04551715 0.94117647 0.52156863 0.41176471
v 0.02770123 0.01934641 0.03684018 0.94117647 0.52156863 0.41176471
v 0.00202097 0.03916363 0.05108350 0.94117647 0.52156863 0.41176471
v 0.00777992 0.03872556 0.05110343 0.94117647 0.52156863 0.41176471
v 0.00466792 0.03937832 0.05079878 0.94117647 0.52156863 0.41176471
v 0.00881809 0.03858025 0.05099239 0.94117647 0.52156863 0.41176471
v 0.00887340 0.03915061 0.05026919 0.94117647 0.52156863 0.41176471
v 0.01880011 0.03638557 0.04887119 0.94117647 0.52156863 0.41176471
v 0.01323723 0.03930459 0.04615777 0.94117647 0.52156863 0.41176471
v 0.01271940 0.03953663 0.04615777 0.94117647 0.52156863 0.41176471
v 0.01193009 0.03980772 0.04615777 0.94117647 0.52156863 0.41176471
v 0.01911685 0.03651569 0.04615777 0.94117647 0.52156863 0.41176471
v 0.01296826 0.03688220 0.03684018 0.94117647 0.52156863 0.41176471
v 0.01459716 0.03840893 0.04455905 0.94117647 0.52156863 0.41176471
v 0.01414720 0.03646581 0.03684018 0.94117647 0.52156863 0.41176471
v 0.01820436 0.01934641 0.04681548 0.94117647 0.52156863 0.41176471
v 0.00202097 0.02884948 0.04884272 0.94117647 0.52156863 0.41176471
v 0.02770123 0.02683046 0.03684018 0.94117647 0.52156863 0.41176471
v 0.02770123 0.01934641 0.04757143 0.94117647 0.52156863 0.41176471
v 0.00202097 0.03889688 0.05120451 0.94117647 0.52156863 0.41176471
v 0.00674426 0.03786026 0.05138246 0.94117647 0.52156863 0.41176471
v 0.00777992 0.03786026 0.05132694 0.94117647 0.52156863 0.41176471
v 0.00881809 0.03786026 0.05111909 0.94117647 0.52156863 0.41176471
v 0.02126357 0.03370944 0.04911748 0.94117647 0.52156863 0.41176471
v 0.01815157 0.03578485 0.04935380 0.94117647 0.52156863 0.41176471
v 0.00943144 0.03843496 0.05086711 0.94117647 0.52156863 0.41176471
v 0.01916461 0.03574798 0.04902779 0.94117647 0.52156863 0.41176471
v 0.02179145 0.03423860 0.04876300 0.94117647 0.52156863 0.41176471
v 0.02192468 0.03432968 0.04823341 0.94117647 0.52156863 0.41176471
v 0.02214840 0.03449884 0.04719559 0.94117647 0.52156863 0.41176471
v 0.02142948 0.03501715 0.04719559 0.94117647 0.52156863 0.41176471
v 0.02091165 0.03537931 0.04719559 0.94117647 0.52156863 0.41176471
v 0.01963467 0.03626630 0.04615777 0.94117647 0.52156863 0.41176471
v 0.01741505 0.03723352 0.04512138 0.94117647 0.52156863 0.41176471
v 0.01469771 0.03846315 0.04512138 0.94117647 0.52156863 0.41176471
v 0.01675394 0.03740918 0.04451919 0.94117647 0.52156863 0.41176471
v 0.01491892 0.03611666 0.03684018 0.94117647 0.52156863 0.41176471
v 0.00202097 0.02956297 0.04909185 0.94117647 0.52156863 0.41176471
v 0.02770123 0.02703648 0.03729716 0.94117647 0.52156863 0.41176471
v 0.02730658 0.02732491 0.03684018 0.94117647 0.52156863 0.41176471
v 0.02770123 0.02022906 0.04781202 0.94117647 0.52156863 0.41176471
v 0.00570609 0.03370944 0.05066495 0.94117647 0.52156863 0.41176471
v 0.00202097 0.03370944 0.05048700 0.94117647 0.52156863 0.41176471
v 0.00202097 0.03786026 0.05136253 0.94117647 0.52156863 0.41176471
v 0.00570609 0.03786026 0.05137819 0.94117647 0.52156863 0.41176471
v 0.00570609 0.03682147 0.05130131 0.94117647 0.52156863 0.41176471
v 0.00674426 0.03682147 0.05128138 0.94117647 0.52156863 0.41176471
v 0.01885290 0.02895574 0.04980509 0.94117647 0.52156863 0.41176471
v 0.01903389 0.02956297 0.04983071 0.94117647 0.52156863 0.41176471
v 0.01926516 0.03057573 0.04984780 0.94117647 0.52156863 0.41176471
v 0.01974779 0.03090537 0.04979797 0.94117647 0.52156863 0.41176471
v 0.01974779 0.03118729 0.04979797 0.94117647 0.52156863 0.41176471
v 0.02126357 0.03267283 0.04924276 0.94117647 0.52156863 0.41176471
v 0.02770123 0.02645094 0.04824195 0.94117647 0.52156863 0.41176471
v 0.02748757 0.02748973 0.04816793 0.94117647 0.52156863 0.41176471
v 0.02770123 0.02747021 0.04810102 0.94117647 0.52156863 0.41176471
v 0.02197496 0.03370944 0.04885980 0.94117647 0.52156863 0.41176471
v 0.02126357 0.03437956 0.04888116 0.94117647 0.52156863 0.41176471
v 0.02770123 0.02831599 0.04784049 0.94117647 0.52156863 0.41176471
v 0.02613518 0.03033067 0.04785330 0.94117647 0.52156863 0.41176471
v 0.02584610 0.03102031 0.04761983 0.94117647 0.52156863 0.41176471
v 0.02483307 0.03209162 0.04764119 0.94117647 0.52156863 0.41176471
v 0.02507187 0.03230632 0.04695073 0.94117647 0.52156863 0.41176471
v 0.02394572 0.03325836 0.04686389 0.94117647 0.52156863 0.41176471
v 0.02223638 0.03456173 0.04615777 0.94117647 0.52156863 0.41176471
v 0.02150740 0.03508004 0.04615777 0.94117647 0.52156863 0.41176471
v 0.02098957 0.03543136 0.04615777 0.94117647 0.52156863 0.41176471
v 0.02022540 0.03591497 0.04615777 0.94117647 0.52156863 0.41176471
v 0.01897105 0.03646364 0.04512138 0.94117647 0.52156863 0.41176471
v 0.01815157 0.03687569 0.04512138 0.94117647 0.52156863 0.41176471
v 0.01913193 0.03402390 0.03684018 0.94117647 0.52156863 0.41176471
v 0.02770123 0.02975598 0.04408498 0.94117647 0.52156863 0.41176471
v 0.02770123 0.02979501 0.04418321 0.94117647 0.52156863 0.41176471
v 0.02682143 0.02785406 0.03684018 0.94117647 0.52156863 0.41176471
v 0.02770123 0.02035701 0.04784334 0.94117647 0.52156863 0.41176471
v 0.01815157 0.02894056 0.04981221 0.94117647 0.52156863 0.41176471
v 0.00570609 0.03436221 0.05080162 0.94117647 0.52156863 0.41176471
v 0.00202097 0.03625112 0.05112763 0.94117647 0.52156863 0.41176471
v 0.00202097 0.03578485 0.05102655 0.94117647 0.52156863 0.41176471
v 0.00202097 0.03538582 0.05093544 0.94117647 0.52156863 0.41176471
v 0.00202097 0.03459426 0.05074183 0.94117647 0.52156863 0.41176471
v 0.00202097 0.03682147 0.05123867 0.94117647 0.52156863 0.41176471
v 0.00674426 0.03484148 0.05090982 0.94117647 0.52156863 0.41176471
v 0.02770123 0.02123748 0.04802414 0.94117647 0.52156863 0.41176471
v 0.02770123 0.02230229 0.04819070 0.94117647 0.52156863 0.41176471
v 0.02770123 0.02333891 0.04832595 0.94117647 0.52156863 0.41176471
v 0.01955172 0.02956297 0.04977377 0.94117647 0.52156863 0.41176471
v 0.02770123 0.02437770 0.04835869 0.94117647 0.52156863 0.41176471
v 0.02770123 0.02541432 0.04830602 0.94117647 0.52156863 0.41176471
v 0.02770123 0.02871502 0.04760417 0.94117647 0.52156863 0.41176471
v 0.02770123 0.02894056 0.04745469 0.94117647 0.52156863 0.41176471
v 0.02770123 0.02941333 0.04706177 0.94117647 0.52156863 0.41176471
v 0.02712559 0.03022007 0.04686389 0.94117647 0.52156863 0.41176471
v 0.02608993 0.03129790 0.04692795 0.94117647 0.52156863 0.41176471
v 0.02515734 0.03237138 0.04615777 0.94117647 0.52156863 0.41176471
v 0.02770123 0.03001405 0.04615777 0.94117647 0.52156863 0.41176471
v 0.02623321 0.03141284 0.04615777 0.94117647 0.52156863 0.41176471
v 0.02567768 0.03193114 0.04615777 0.94117647 0.52156863 0.41176471
v 0.02451382 0.03289186 0.04615777 0.94117647 0.52156863 0.41176471
v 0.02399600 0.03329740 0.04615777 0.94117647 0.52156863 0.41176471
v 0.02395075 0.03326704 0.04540753 0.94117647 0.52156863 0.41176471
v 0.02087897 0.03535546 0.04548013 0.94117647 0.52156863 0.41176471
v 0.01949139 0.03614051 0.04512138 0.94117647 0.52156863 0.41176471
v 0.02002682 0.03349041 0.03684018 0.94117647 0.52156863 0.41176471
v 0.02770123 0.03005308 0.04484804 0.94117647 0.52156863 0.41176471
v 0.02631114 0.02834201 0.03684018 0.94117647 0.52156863 0.41176471
v 0.02619551 0.03132392 0.04430565 0.94117647 0.52156863 0.41176471
v 0.00674426 0.03432318 0.05080447 0.94117647 0.52156863 0.41176471
v 0.02631114 0.03143235 0.04512138 0.94117647 0.52156863 0.41176471
v 0.02770123 0.03005959 0.04587305 0.94117647 0.52156863 0.41176471
v 0.02682897 0.03098561 0.04512138 0.94117647 0.52156863 0.41176471
v 0.02562489 0.03195066 0.04512138 0.94117647 0.52156863 0.41176471
v 0.02004944 0.03347523 0.03684018 0.94117647 0.52156863 0.41176471
v 0.02770123 0.03015501 0.04512138 0.94117647 0.52156863 0.41176471
v 0.02573550 0.02886683 0.03684018 0.94117647 0.52156863 0.41176471
v 0.02521767 0.02932008 0.03684018 0.94117647 0.52156863 0.41176471
v 0.02174621 0.03212632 0.03684018 0.94117647 0.52156863 0.41176471
v 0.02737445 0.03046730 0.04512138 0.94117647 0.52156863 0.41176471
f 1 2 10
f 1 10 3
f 1 3 4
f 1 4 5
f 1 5 6
f 1 6 7
f 1 7 2
f 2 8 9
f 2 9 10
f 2 7 8
f 3 10 11
f 3 11 4
f 4 11 12
f 4 12 13
f 4 13 5
f 5 13 14
f 5 14 15
f 5 15 16
f 5 16 6
f 6 16 17
f 6 17 18
f 6 18 19
f 6 19 20
f 6 20 7
f 7 20 21
f 7 21 22
f 7 22 8
f 8 23 24
f 8 24 9
f 8 22 23
f 9 25 47
f 9 47 63
f 9 63 84
f 9 84 89
f 9 89 127
f 9 127 126
f 9 126 125
f 9 125 124
f 9 124 128
f 9 128 90
f 9 90 66
f 9 66 49
f 9 49 26
f 9 26 12
f 9 12 11
f 9 11 10
f 9 24 46
f 9 46 45
f 9 45 44
f 9 44 43
f 9 43 42
f 9 42 59
f 9 59 61
f 9 61 83
f 9 83 117
f 9 117 150
f 9 150 159
f 9 159 163
f 9 163 162
f 9 162 161
f 9 161 152
f 9 152 120
f 9 120 86
f 9 86 64
f 9 64 48
f 9 48 25
f 12 26 13
f 13 27 28
f 13 28 29
f 13 29 14
f 13 26 30
f 13 30 31
f 13 31 27
f 14 29 32
f 14 32 15
f 15 32 16
f 16 32 33
f 16 33 17
f 17 33 34
f 17 34 35
f 17 35 18
f 18 35 19
f 19 35 34
f 19 34 36
f 19 36 37
f 19 37 38
f 19 38 39
f 19 39 40
f 19 40 20
f 20 40 21
f 21 40 39
f 21 39 38
f 21 38 41
f 21 41 42
f 21 42 43
f 21 43 44
f 21 44 45
f 21 45 46
f 21 46 24
f 21 24 23
f 21 23 22
f 25 48 65
f 25 65 62
f 25 62 47
f 26 49 50
f 26 50 30
f 27 31 51
f 27 51 50
f 27 50 28
f 28 50 29
f 29 50 52
f 29 52 53
f 29 53 33
f 29 33 32
f 30 50 31
f 31 50 51
f 33 53 34
f 34 37 36
f 34 53 54
f 34 54 37
f 37 55 56
f 37 56 57
f 37 57 38
f 37 54 58
f 37 58 55
f 38 57 41
f 41 59 42
f 41 57 56
f 41 56 60
f 41 60 61
f 41 61 59
f 47 62 63
f 48 64 85
f 48 85 118
f 48 118 119
f 48 119 151
f 48 151 160
f 48 160 156
f 48 156 142
f 48 142 138
f 48 138 137
f 48 137 136
f 48 136 105
f 48 105 102
f 48 102 100
f 48 100 135
f 48 135 134
f 48 134 132
f 48 132 131
f 48 131 130
f 48 130 121
f 48 121 87
f 48 87 65
f 49 66 50
f 50 67 68
f 50 68 52
f 50 66 67
f 52 69 70
f 52 70 71
f 52 71 72
f 52 72 54
f 52 54 53
f 52 68 69
f 54 71 73
f 54 73 74
f 54 74 75
f 54 75 76
f 54 76 77
f 54 77 78
f 54 78 79
f 54 79 58
f 54 72 71
f 55 58 80
f 55 80 81
f 55 81 60
f 55 60 56
f 58 79 80
f 60 81 80
f 60 80 82
f 60 82 83
f 60 83 61
f 62 65 84
f 62 84 63
f 64 86 85
f 65 87 88
f 65 88 89
f 65 89 84
f 66 90 91
f 66 91 67
f 67 91 92
f 67 92 93
f 67 93 68
f 68 93 94
f 68 94 95
f 68 95 96
f 68 96 97
f 68 97 98
f 68 98 69
f 69 98 70
f 70 98 99
f 70 99 100
f 70 100 101
f 70 101 102
f 70 102 103
f 70 103 74
f 70 74 104
f 70 104 71
f 71 104 74
f 71 74 73
f 74 103 105
f 74 105 106
f 74 106 107
f 74 107 108
f 74 108 109
f 74 109 110
f 74 110 75
f 75 110 76
f 76 110 77
f 77 110 111
f 77 111 112
f 77 112 78
f 78 113 114
f 78 114 79
f 78 112 113
f 79 114 115
f 79 115 116
f 79 116 80
f 80 116 82
f 82 116 115
f 82 115 117
f 82 117 83
f 85 86 118
f 86 119 118
f 86 120 119
f 87 121 122
f 87 122 88
f 88 123 124
f 88 124 125
f 88 125 126
f 88 126 127
f 88 127 89
f 88 122 123
f 90 128 92
f 90 92 91
f 92 128 124
f 92 124 123
f 92 123 129
f 92 129 122
f 92 122 94
f 92 94 93
f 94 122 121
f 94 121 130
f 94 130 131
f 94 131 132
f 94 132 133
f 94 133 95
f 95 133 96
f 96 133 97
f 97 133 132
f 97 132 134
f 97 134 98
f 98 134 135
f 98 135 100
f 98 100 99
f 100 102 101
f 102 105 103
f 105 136 106
f 106 136 137
f 106 137 107
f 107 137 138
f 107 138 139
f 107 139 140
f 107 140 108
f 108 140 109
f 109 141 110
f 109 140 142
f 109 142 143
f 109 143 144
f 109 144 141
f 110 141 145
f 110 145 146
f 110 146 111
f 111 146 147
f 111 147 112
f 112 147 113
f 113 148 114
f 113 147 148
f 114 148 149
f 114 149 115
f 115 149 150
f 115 150 117
f 119 120 151
f 120 152 153
f 120 153 151
f 122 129 154
f 122 154 123
f 123 154 129
f 138 142 139
f 139 142 140
f 141 144 155
f 141 155 145
f 142 156 143
f 143 156 157
f 143 157 144
f 144 157 155
f 145 155 146
f 146 155 147
f 147 155 158
f 147 158 153
f 147 153 159
f 147 159 148
f 148 159 150
f 148 150 149
f 151 153 160
f 152 161 153
f 153 161 162
f 153 162 163
f 153 163 159
f 153 158 155
f 153 155 157
f 153 157 164
f 153 164 160
f 156 160 164
f 156 164 157

