# https://github.com/mikedh/trimesh
v -0.01876464 0.02054739 0.03684018 0.67843137 0.35686275 0.43529412
v 0.00202097 0.02054739 0.03684018 0.67843137 0.35686275 0.43529412
v -0.01876464 0.02054739 0.04605293 0.67843137 0.35686275 0.43529412
v -0.01876464 0.03527199 0.03684018 0.67843137 0.35686275 0.43529412
v 0.00202097 0.02054739 0.04556555 0.67843137 0.35686275 0.43529412
v 0.00202097 0.03944692 0.03684018 0.67843137 0.35686275 0.43529412
v -0.00466884 0.02054739 0.04622258 0.67843137 0.35686275 0.43529412
v -0.00674415 0.02311213 0.04757257 0.67843137 0.35686275 0.43529412
v -0.00777977 0.02365023 0.04781266 0.67843137 0.35686275 0.43529412
v -0.01876464 0.02956317 0.05023662 0.67843137 0.35686275 0.43529412
v -0.01872395 0.03529261 0.03684018 0.67843137 0.35686275 0.43529412
v -0.01876464 0.03746976 0.04734973 0.67843137 0.35686275 0.43529412
v -0.00052027 0.02054739 0.04591203 0.67843137 0.35686275 0.43529412
v 0.00202097 0.02884982 0.04884205 0.67843137 0.35686275 0.43529412
v -0.00259354 0.02852614 0.04939844 0.67843137 0.35686275 0.43529412
v 0.00178902 0.03948403 0.03684018 0.67843137 0.35686275 0.43529412
v 0.00202097 0.04139934 0.04720452 0.67843137 0.35686275 0.43529412
v -0.00364543 0.02054739 0.04621826 0.67843137 0.35686275 0.43529412
v -0.00674415 0.02362962 0.04781698 0.67843137 0.35686275 0.43529412
v -0.00674415 0.02437801 0.04815052 0.67843137 0.35686275 0.43529412
v -0.00777977 0.02437801 0.04813615 0.67843137 0.35686275 0.43529412
v -0.01815223 0.02956317 0.05024093 0.67843137 0.35686275 0.43529412
v -0.01876464 0.02998788 0.05040052 0.67843137 0.35686275 0.43529412
v -0.01668934 0.03636263 0.03708890 0.67843137 0.35686275 0.43529412
v -0.01663847 0.03633377 0.03684018 0.67843137 0.35686275 0.43529412
v -0.01876464 0.03746976 0.04787305 0.67843137 0.35686275 0.43529412
v -0.01350924 0.03942836 0.04767321 0.67843137 0.35686275 0.43529412
v -0.01711457 0.03808208 0.04719589 0.67843137 0.35686275 0.43529412
v -0.01618882 0.03651725 0.03684018 0.67843137 0.35686275 0.43529412
v -0.01626207 0.03648839 0.03684018 0.67843137 0.35686275 0.43529412
v -0.00155792 0.02054739 0.04604142 0.67843137 0.35686275 0.43529412
v 0.00202097 0.02915289 0.04894844 0.67843137 0.35686275 0.43529412
v -0.00153554 0.02959615 0.04964860 0.67843137 0.35686275 0.43529412
v -0.00259354 0.02931164 0.04969604 0.67843137 0.35686275 0.43529412
v -0.00570649 0.02541504 0.04847688 0.67843137 0.35686275 0.43529412
v -0.00570649 0.02437801 0.04806426 0.67843137 0.35686275 0.43529412
v 0.00163439 0.03950671 0.03684018 0.67843137 0.35686275 0.43529412
v 0.00155911 0.03951496 0.03684018 0.67843137 0.35686275 0.43529412
v 0.00051739 0.03962423 0.03684018 0.67843137 0.35686275 0.43529412
v -0.00155792 0.04151686 0.04661938 0.67843137 0.35686275 0.43529412
v -0.00363119 0.04160757 0.04719589 0.67843137 0.35686275 0.43529412
v -0.00363119 0.04153747 0.04786586 0.67843137 0.35686275 0.43529412
v -0.00284379 0.04151480 0.04778535 0.67843137 0.35686275 0.43529412
v -0.00363119 0.04133955 0.04838487 0.67843137 0.35686275 0.43529412
v 0.00013285 0.04046952 0.04981825 0.67843137 0.35686275 0.43529412
v 0.00202097 0.03995822 0.05030706 0.67843137 0.35686275 0.43529412
v -0.00259354 0.02054739 0.04613344 0.67843137 0.35686275 0.43529412
v -0.00570649 0.02372033 0.04777816 0.67843137 0.35686275 0.43529412
v -0.00674415 0.02541504 0.04853295 0.67843137 0.35686275 0.43529412
v -0.01447975 0.03111150 0.05082895 0.67843137 0.35686275 0.43529412
v -0.01503927 0.03110119 0.05083182 0.67843137 0.35686275 0.43529412
v -0.01607692 0.03058783 0.05063486 0.67843137 0.35686275 0.43529412
v -0.01815223 0.03060020 0.05064061 0.67843137 0.35686275 0.43529412
v -0.01876464 0.03060020 0.05063054 0.67843137 0.35686275 0.43529412
v -0.01876464 0.03746563 0.04805995 0.67843137 0.35686275 0.43529412
v -0.01350924 0.03942836 0.04775947 0.67843137 0.35686275 0.43529412
v -0.01192834 0.03988400 0.04719589 0.67843137 0.35686275 0.43529412
v -0.01293548 0.03956650 0.04727497 0.67843137 0.35686275 0.43529412
v -0.01577987 0.03844288 0.04655900 0.67843137 0.35686275 0.43529412
v -0.01371473 0.03744089 0.03684018 0.67843137 0.35686275 0.43529412
v -0.01614610 0.03653375 0.03684018 0.67843137 0.35686275 0.43529412
v 0.00202097 0.02956317 0.04909221 0.67843137 0.35686275 0.43529412
v -0.00186921 0.02996314 0.04982544 0.67843137 0.35686275 0.43529412
v -0.00259354 0.02983119 0.04988151 0.67843137 0.35686275 0.43529412
v -0.00363119 0.03222275 0.05080307 0.67843137 0.35686275 0.43529412
v -0.00052027 0.03964690 0.03684018 0.67843137 0.35686275 0.43529412
v -0.00363119 0.04156221 0.04648424 0.67843137 0.35686275 0.43529412
v -0.00259354 0.04154572 0.04651874 0.67843137 0.35686275 0.43529412
v -0.00445114 0.04154778 0.04655756 0.67843137 0.35686275 0.43529412
v -0.00474616 0.04156221 0.04714414 0.67843137 0.35686275 0.43529412
v -0.00528736 0.04151686 0.04780404 0.67843137 0.35686275 0.43529412
v -0.00466884 0.04153747 0.04788024 0.67843137 0.35686275 0.43529412
v -0.00466884 0.04136223 0.04839924 0.67843137 0.35686275 0.43529412
v 0.00202097 0.03971082 0.05065211 0.67843137 0.35686275 0.43529412
v -0.00011538 0.04046952 0.04981825 0.67843137 0.35686275 0.43529412
v 0.00155504 0.03954382 0.05093246 0.67843137 0.35686275 0.43529412
v 0.00202097 0.03952114 0.05091521 0.67843137 0.35686275 0.43529412
v -0.00363119 0.03274023 0.05098566 0.67843137 0.35686275 0.43529412
v -0.01408096 0.03156507 0.05096840 0.67843137 0.35686275 0.43529412
v -0.01503927 0.03163517 0.05101153 0.67843137 0.35686275 0.43529412
v -0.01607692 0.03110531 0.05083038 0.67843137 0.35686275 0.43529412
v -0.01744011 0.03112387 0.05082463 0.67843137 0.35686275 0.43529412
v -0.01876464 0.03089090 0.05070099 0.67843137 0.35686275 0.43529412
v -0.01876464 0.03729039 0.04861346 0.67843137 0.35686275 0.43529412
v -0.01863036 0.03732544 0.04870691 0.67843137 0.35686275 0.43529412
v -0.01823157 0.03760170 0.04831011 0.67843137 0.35686275 0.43529412
v -0.01566796 0.03841814 0.04885212 0.67843137 0.35686275 0.43529412
v -0.01293141 0.03955825 0.04815627 0.67843137 0.35686275 0.43529412
v -0.01192834 0.03985307 0.04823247 0.67843137 0.35686275 0.43529412
v -0.00959057 0.04053755 0.04799525 0.67843137 0.35686275 0.43529412
v -0.00953767 0.04051900 0.04719589 0.67843137 0.35686275 0.43529412
v -0.00985304 0.03872739 0.03684018 0.67843137 0.35686275 0.43529412
v -0.01063026 0.03848411 0.03684018 0.67843137 0.35686275 0.43529412
v -0.01296600 0.03770685 0.03684018 0.67843137 0.35686275 0.43529412
v 0.00202097 0.03371129 0.05048678 0.67843137 0.35686275 0.43529412
v -0.00181631 0.03306186 0.05087208 0.67843137 0.35686275 0.43529412
v -0.00259354 0.03289486 0.05092527 0.67843137 0.35686275 0.43529412
v -0.00155792 0.03965515 0.03684018 0.67843137 0.35686275 0.43529412
v -0.00259354 0.03963659 0.03684018 0.67843137 0.35686275 0.43529412
v -0.00514291 0.04147975 0.04676459 0.67843137 0.35686275 0.43529412
v -0.00364747 0.03956856 0.03684018 0.67843137 0.35686275 0.43529412
v -0.00471360 0.03948197 0.03684018 0.67843137 0.35686275 0.43529412
v -0.00586316 0.03938301 0.03684018 0.67843137 0.35686275 0.43529412
v -0.00665869 0.03930466 0.03684018 0.67843137 0.35686275 0.43529412
v -0.00757630 0.03917478 0.03684018 0.67843137 0.35686275 0.43529412
v -0.00777977 0.03914591 0.03684018 0.67843137 0.35686275 0.43529412
v -0.00528736 0.04151686 0.04745612 0.67843137 0.35686275 0.43529412
v -0.00777977 0.04090247 0.04823247 0.67843137 0.35686275 0.43529412
v -0.00674415 0.04111483 0.04823247 0.67843137 0.35686275 0.43529412
v -0.00566377 0.04133131 0.04818359 0.67843137 0.35686275 0.43529412
v -0.00674415 0.04075403 0.04916410 0.67843137 0.35686275 0.43529412
v -0.00570649 0.04082001 0.04920435 0.67843137 0.35686275 0.43529412
v -0.00466884 0.04084475 0.04920723 0.67843137 0.35686275 0.43529412
v -0.00570649 0.04037674 0.04972336 0.67843137 0.35686275 0.43529412
v 0.00051739 0.03953351 0.05091377 0.67843137 0.35686275 0.43529412
v 0.00051739 0.03889645 0.05122575 0.67843137 0.35686275 0.43529412
v 0.00155504 0.03889645 0.05123725 0.67843137 0.35686275 0.43529412
v 0.00202097 0.03916447 0.05108342 0.67843137 0.35686275 0.43529412
v -0.00363119 0.03371129 0.05128326 0.67843137 0.35686275 0.43529412
v -0.00466884 0.03371129 0.05134077 0.67843137 0.35686275 0.43529412
v -0.01607692 0.03163517 0.05098853 0.67843137 0.35686275 0.43529412
v -0.01400161 0.03267426 0.05126169 0.67843137 0.35686275 0.43529412
v -0.01503927 0.03267426 0.05126313 0.67843137 0.35686275 0.43529412
v -0.01607692 0.03267426 0.05120131 0.67843137 0.35686275 0.43529412
v -0.01876464 0.03153415 0.05079876 0.67843137 0.35686275 0.43529412
v -0.01876464 0.03719143 0.04884205 0.67843137 0.35686275 0.43529412
v -0.01876464 0.03692547 0.04933662 0.67843137 0.35686275 0.43529412
v -0.01823157 0.03717699 0.04931937 0.67843137 0.35686275 0.43529412
v -0.01751946 0.03728833 0.04969892 0.67843137 0.35686275 0.43529412
v -0.01793859 0.03746151 0.04900739 0.67843137 0.35686275 0.43529412
v -0.01459369 0.03840783 0.04983119 0.67843137 0.35686275 0.43529412
v -0.01528545 0.03826557 0.04954365 0.67843137 0.35686275 0.43529412
v -0.01235358 0.03937888 0.04963710 0.67843137 0.35686275 0.43529412
v -0.01197514 0.03958299 0.04928343 0.67843137 0.35686275 0.43529412
v -0.00887642 0.04064270 0.04829717 0.67843137 0.35686275 0.43529412
v -0.01089069 0.03987575 0.04927049 0.67843137 0.35686275 0.43529412
v -0.00881538 0.03895830 0.03684018 0.67843137 0.35686275 0.43529412
v 0.00202097 0.03459370 0.05074125 0.67843137 0.35686275 0.43529412
v -0.00856920 0.04052724 0.04890819 0.67843137 0.35686275 0.43529412
v -0.00777977 0.04063651 0.04906202 0.67843137 0.35686275 0.43529412
v -0.01166181 0.03949846 0.04988870 0.67843137 0.35686275 0.43529412
v -0.01089069 0.03957474 0.04997064 0.67843137 0.35686275 0.43529412
v -0.00777977 0.04030252 0.04958103 0.67843137 0.35686275 0.43529412
v -0.00674415 0.04035406 0.04968311 0.67843137 0.35686275 0.43529412
v -0.00777977 0.03978504 0.05007128 0.67843137 0.35686275 0.43529412
v -0.00985304 0.03964278 0.05000659 0.67843137 0.35686275 0.43529412
v -0.01089069 0.03889645 0.05036026 0.67843137 0.35686275 0.43529412
v -0.01453875 0.03735018 0.05083038 0.67843137 0.35686275 0.43529412
v -0.00777977 0.03682238 0.05129907 0.67843137 0.35686275 0.43529412
v -0.00052027 0.03785942 0.05141121 0.67843137 0.35686275 0.43529412
v 0.00202097 0.03889645 0.05120562 0.67843137 0.35686275 0.43529412
v 0.00051739 0.03785942 0.05141265 0.67843137 0.35686275 0.43529412
v 0.00155504 0.03785942 0.05137815 0.67843137 0.35686275 0.43529412
v 0.00202097 0.03785942 0.05136233 0.67843137 0.35686275 0.43529412
v 0.00202097 0.03538745 0.05093534 0.67843137 0.35686275 0.43529412
v 0.00202097 0.03578535 0.05102735 0.67843137 0.35686275 0.43529412
v 0.00202097 0.03624924 0.05112799 0.67843137 0.35686275 0.43529412
v 0.00202097 0.03682238 0.05123869 0.67843137 0.35686275 0.43529412
v -0.00363119 0.03474832 0.05145003 0.67843137 0.35686275 0.43529412
v -0.00466884 0.03474832 0.05152623 0.67843137 0.35686275 0.43529412
v -0.01400161 0.03371129 0.05137240 0.67843137 0.35686275 0.43529412
v -0.01503927 0.03371129 0.05133502 0.67843137 0.35686275 0.43529412
v -0.01607692 0.03371129 0.05121713 0.67843137 0.35686275 0.43529412
v -0.01711457 0.03267426 0.05106904 0.67843137 0.35686275 0.43529412
v -0.01876464 0.03204544 0.05083470 0.67843137 0.35686275 0.43529412
v -0.01876464 0.03173619 0.05082032 0.67843137 0.35686275 0.43529412
v -0.01876464 0.03664714 0.04977512 0.67843137 0.35686275 0.43529412
v -0.01682769 0.03743471 0.04989588 0.67843137 0.35686275 0.43529412
v -0.01876464 0.03649045 0.04998646 0.67843137 0.35686275 0.43529412
v -0.01400161 0.03851503 0.04998071 0.67843137 0.35686275 0.43529412
v -0.01296600 0.03872533 0.05015323 0.67843137 0.35686275 0.43529412
v -0.01607692 0.03758521 0.05004397 0.67843137 0.35686275 0.43529412
v -0.01815223 0.03662859 0.05010435 0.67843137 0.35686275 0.43529412
v -0.01876464 0.03621212 0.05017767 0.67843137 0.35686275 0.43529412
v -0.01876464 0.03583483 0.05037176 0.67843137 0.35686275 0.43529412
v -0.01815223 0.03578535 0.05053853 0.67843137 0.35686275 0.43529412
v -0.01876464 0.03517303 0.05059460 0.67843137 0.35686275 0.43529412
v -0.01503927 0.03474832 0.05122000 0.67843137 0.35686275 0.43529412
v -0.01400161 0.03474832 0.05132783 0.67843137 0.35686275 0.43529412
v -0.00777977 0.03578535 0.05145866 0.67843137 0.35686275 0.43529412
v -0.00674415 0.03578535 0.05150610 0.67843137 0.35686275 0.43529412
v -0.00466884 0.03682238 0.05142415 0.67843137 0.35686275 0.43529412
v -0.00570649 0.03578535 0.05152623 0.67843137 0.35686275 0.43529412
v -0.00466884 0.03578535 0.05152623 0.67843137 0.35686275 0.43529412
v -0.01876464 0.03220213 0.05083470 0.67843137 0.35686275 0.43529412
v -0.01876464 0.03474832 0.05064780 0.67843137 0.35686275 0.43529412
f 1 2 5
f 1 5 13
f 1 13 31
f 1 31 47
f 1 47 18
f 1 18 7
f 1 7 3
f 1 3 10
f 1 10 23
f 1 23 54
f 1 54 83
f 1 83 125
f 1 125 166
f 1 166 165
f 1 165 185
f 1 185 186
f 1 186 177
f 1 177 175
f 1 175 174
f 1 174 169
f 1 169 167
f 1 167 127
f 1 127 126
f 1 126 84
f 1 84 55
f 1 55 26
f 1 26 12
f 1 12 4
f 1 4 11
f 1 11 25
f 1 25 30
f 1 30 29
f 1 29 61
f 1 61 60
f 1 60 94
f 1 94 93
f 1 93 92
f 1 92 137
f 1 137 106
f 1 106 105
f 1 105 104
f 1 104 103
f 1 103 102
f 1 102 101
f 1 101 99
f 1 99 98
f 1 98 66
f 1 66 39
f 1 39 38
f 1 38 37
f 1 37 16
f 1 16 6
f 1 6 2
f 2 6 17
f 2 17 46
f 2 46 74
f 2 74 77
f 2 77 118
f 2 118 151
f 2 151 154
f 2 154 158
f 2 158 157
f 2 157 156
f 2 156 155
f 2 155 138
f 2 138 95
f 2 95 62
f 2 62 32
f 2 32 14
f 2 14 5
f 3 7 8
f 3 8 9
f 3 9 10
f 4 12 11
f 5 14 15
f 5 15 13
f 6 16 17
f 7 18 8
f 8 18 19
f 8 19 9
f 9 19 20
f 9 20 21
f 9 21 10
f 10 22 23
f 10 21 20
f 10 20 22
f 11 12 24
f 11 24 25
f 12 26 56
f 12 56 27
f 12 27 28
f 12 28 29
f 12 29 30
f 12 30 24
f 13 15 31
f 14 32 33
f 14 33 15
f 15 33 34
f 15 34 35
f 15 35 36
f 15 36 31
f 16 37 17
f 17 37 38
f 17 38 39
f 17 39 40
f 17 40 41
f 17 41 42
f 17 42 43
f 17 43 44
f 17 44 45
f 17 45 46
f 18 47 48
f 18 48 20
f 18 20 19
f 20 48 36
f 20 36 35
f 20 35 49
f 20 49 50
f 20 50 51
f 20 51 52
f 20 52 22
f 22 52 53
f 22 53 23
f 23 53 54
f 24 30 25
f 26 55 56
f 27 56 57
f 27 57 58
f 27 58 28
f 28 59 60
f 28 60 61
f 28 61 29
f 28 58 59
f 31 36 47
f 32 62 33
f 33 62 63
f 33 63 64
f 33 64 34
f 34 64 65
f 34 65 35
f 35 65 49
f 36 48 47
f 39 66 67
f 39 67 68
f 39 68 40
f 40 68 41
f 41 68 67
f 41 67 69
f 41 69 70
f 41 70 71
f 41 71 72
f 41 72 42
f 42 72 73
f 42 73 44
f 42 44 43
f 44 73 45
f 45 74 46
f 45 73 75
f 45 75 76
f 45 76 77
f 45 77 74
f 49 65 78
f 49 78 50
f 50 78 79
f 50 79 80
f 50 80 51
f 51 80 81
f 51 81 53
f 51 53 52
f 53 81 82
f 53 82 54
f 54 82 83
f 55 84 85
f 55 85 86
f 55 86 87
f 55 87 88
f 55 88 56
f 56 88 89
f 56 89 90
f 56 90 57
f 57 90 91
f 57 91 92
f 57 92 93
f 57 93 58
f 58 93 94
f 58 94 59
f 59 94 60
f 62 95 96
f 62 96 63
f 63 96 97
f 63 97 64
f 64 97 78
f 64 78 65
f 66 98 67
f 67 98 99
f 67 99 69
f 69 100 70
f 69 99 101
f 69 101 102
f 69 102 103
f 69 103 104
f 69 104 105
f 69 105 106
f 69 106 100
f 70 100 107
f 70 107 71
f 71 73 72
f 71 107 90
f 71 90 108
f 71 108 109
f 71 109 110
f 71 110 73
f 73 110 111
f 73 111 112
f 73 112 113
f 73 113 75
f 75 113 112
f 75 112 114
f 75 114 115
f 75 115 76
f 76 115 116
f 76 116 117
f 76 117 118
f 76 118 77
f 78 97 119
f 78 119 120
f 78 120 79
f 79 120 80
f 80 121 82
f 80 82 81
f 80 120 122
f 80 122 123
f 80 123 121
f 82 121 123
f 82 123 124
f 82 124 83
f 83 124 125
f 84 126 85
f 85 126 127
f 85 127 128
f 85 128 129
f 85 129 130
f 85 130 131
f 85 131 132
f 85 132 133
f 85 133 87
f 85 87 86
f 87 133 88
f 88 133 89
f 89 133 134
f 89 134 90
f 90 135 108
f 90 107 91
f 90 134 136
f 90 136 135
f 91 107 100
f 91 100 92
f 92 100 137
f 95 138 96
f 96 138 119
f 96 119 97
f 100 106 137
f 108 135 139
f 108 139 109
f 109 139 140
f 109 140 110
f 110 140 111
f 111 140 141
f 111 141 142
f 111 142 143
f 111 143 144
f 111 144 112
f 112 144 114
f 114 144 115
f 115 144 145
f 115 145 146
f 115 146 142
f 115 142 147
f 115 147 116
f 116 147 148
f 116 148 149
f 116 149 150
f 116 150 117
f 117 151 118
f 117 150 152
f 117 152 153
f 117 153 154
f 117 154 151
f 119 138 155
f 119 155 156
f 119 156 157
f 119 157 158
f 119 158 159
f 119 159 160
f 119 160 120
f 120 160 122
f 122 160 123
f 123 160 161
f 123 161 162
f 123 162 124
f 124 162 163
f 124 163 164
f 124 164 165
f 124 165 166
f 124 166 125
f 127 129 128
f 127 167 129
f 129 168 131
f 129 131 130
f 129 167 169
f 129 169 168
f 131 168 170
f 131 170 141
f 131 141 133
f 131 133 132
f 133 141 134
f 134 141 136
f 135 136 139
f 136 141 139
f 139 141 140
f 141 170 171
f 141 171 148
f 141 148 142
f 142 146 144
f 142 144 143
f 142 148 147
f 144 146 145
f 148 171 170
f 148 170 172
f 148 172 168
f 148 168 173
f 148 173 174
f 148 174 175
f 148 175 176
f 148 176 177
f 148 177 178
f 148 178 179
f 148 179 149
f 149 179 180
f 149 180 181
f 149 181 182
f 149 182 150
f 150 182 181
f 150 181 183
f 150 183 152
f 152 183 184
f 152 184 160
f 152 160 153
f 153 160 154
f 154 160 159
f 154 159 158
f 160 184 183
f 160 183 161
f 161 179 162
f 161 183 181
f 161 181 179
f 162 179 178
f 162 178 163
f 163 185 165
f 163 165 164
f 163 178 177
f 163 177 186
f 163 186 185
f 168 169 173
f 168 172 170
f 169 174 173
f 175 177 176
f 179 181 180

