# https://github.com/mikedh/trimesh
v 0.02770123 -0.00013246 0.03684018 0.38039216 0.78823529 0.52549020
v 0.03851893 -0.00013246 0.03684018 0.38039216 0.78823529 0.52549020
v 0.02770123 -0.00013246 0.04609719 0.38039216 0.78823529 0.52549020
v 0.02770123 0.02682801 0.03684018 0.38039216 0.78823529 0.52549020
v 0.03857521 0.00050197 0.03684018 0.38039216 0.78823529 0.52549020
v 0.04157303 -0.00013246 0.04649297 0.38039216 0.78823529 0.52549020
v 0.03615389 -0.00013246 0.04833993 0.38039216 0.78823529 0.52549020
v 0.03673863 0.00147141 0.04898127 0.38039216 0.78823529 0.52549020
v 0.03682236 0.00259501 0.04930129 0.38039216 0.78823529 0.52549020
v 0.03371198 0.00778017 0.04940971 0.38039216 0.78823529 0.52549020
v 0.03377375 0.00886820 0.04964090 0.38039216 0.78823529 0.52549020
v 0.03346765 0.00985542 0.04972450 0.38039216 0.78823529 0.52549020
v 0.03328372 0.01061141 0.04977021 0.38039216 0.78823529 0.52549020
v 0.03221993 0.01365017 0.04976760 0.38039216 0.78823529 0.52549020
v 0.03211424 0.01434389 0.04980940 0.38039216 0.78823529 0.52549020
v 0.02770123 0.02333862 0.04832687 0.38039216 0.78823529 0.52549020
v 0.02770123 0.02703257 0.03729735 0.38039216 0.78823529 0.52549020
v 0.03020217 0.02710965 0.04408434 0.38039216 0.78823529 0.52549020
v 0.03009785 0.02698810 0.04353835 0.38039216 0.78823529 0.52549020
v 0.03107241 0.02587339 0.04369118 0.38039216 0.78823529 0.52549020
v 0.02979175 0.02426063 0.03684018 0.38039216 0.78823529 0.52549020
v 0.03857658 0.00051976 0.03684018 0.38039216 0.78823529 0.52549020
v 0.04167598 -0.00013246 0.04695667 0.38039216 0.78823529 0.52549020
v 0.04153460 0.00259501 0.04656742 0.38039216 0.78823529 0.52549020
v 0.03679079 -0.00013246 0.04850843 0.38039216 0.78823529 0.52549020
v 0.03702826 0.00080437 0.04883498 0.38039216 0.78823529 0.52549020
v 0.03786007 -0.00013246 0.04869260 0.38039216 0.78823529 0.52549020
v 0.03786007 0.00155739 0.04917198 0.38039216 0.78823529 0.52549020
v 0.03786007 0.00259501 0.04938750 0.38039216 0.78823529 0.52549020
v 0.03682236 0.00363264 0.04947371 0.38039216 0.78823529 0.52549020
v 0.03416083 0.00924767 0.04980548 0.38039216 0.78823529 0.52549020
v 0.03398651 0.00985542 0.04984075 0.38039216 0.78823529 0.52549020
v 0.03371198 0.01296830 0.05004974 0.38039216 0.78823529 0.52549020
v 0.03260976 0.01399999 0.04991128 0.38039216 0.78823529 0.52549020
v 0.03267565 0.01503762 0.04996223 0.38039216 0.78823529 0.52549020
v 0.03208679 0.01503762 0.04981724 0.38039216 0.78823529 0.52549020
v 0.02770123 0.02437328 0.04835822 0.38039216 0.78823529 0.52549020
v 0.02770123 0.02975411 0.04408434 0.38039216 0.78823529 0.52549020
v 0.02820225 0.02925605 0.04408434 0.38039216 0.78823529 0.52549020
v 0.02911779 0.02808205 0.04345214 0.38039216 0.78823529 0.52549020
v 0.02975469 0.02762846 0.04408434 0.38039216 0.78823529 0.52549020
v 0.03087887 0.02667978 0.04512146 0.38039216 0.78823529 0.52549020
v 0.03119183 0.02602459 0.04438346 0.38039216 0.78823529 0.52549020
v 0.03077318 0.02640110 0.04405561 0.38039216 0.78823529 0.52549020
v 0.03215954 0.02489803 0.04459376 0.38039216 0.78823529 0.52549020
v 0.03038473 0.02349871 0.03684018 0.38039216 0.78823529 0.52549020
v 0.03852579 0.00163447 0.03684018 0.38039216 0.78823529 0.52549020
v 0.04172265 -0.00013246 0.04719570 0.38039216 0.78823529 0.52549020
v 0.04150852 0.00327095 0.04661575 0.38039216 0.78823529 0.52549020
v 0.03889778 -0.00013246 0.04872526 0.38039216 0.78823529 0.52549020
v 0.03889778 0.00259501 0.04916675 0.38039216 0.78823529 0.52549020
v 0.03786007 0.00363264 0.04951812 0.38039216 0.78823529 0.52549020
v 0.03926015 -0.00013246 0.04866778 0.38039216 0.78823529 0.52549020
v 0.03990666 -0.00013246 0.04855806 0.38039216 0.78823529 0.52549020
v 0.03889778 0.00155739 0.04902699 0.38039216 0.78823529 0.52549020
v 0.03682236 0.00467026 0.04960433 0.38039216 0.78823529 0.52549020
v 0.03513128 0.00810925 0.04981854 0.38039216 0.78823529 0.52549020
v 0.03477028 0.00886820 0.04985773 0.38039216 0.78823529 0.52549020
v 0.03474832 0.00985542 0.04995439 0.38039216 0.78823529 0.52549020
v 0.03371198 0.01400592 0.05012289 0.38039216 0.78823529 0.52549020
v 0.03371198 0.01503762 0.05012419 0.38039216 0.78823529 0.52549020
v 0.03267565 0.01607524 0.04993218 0.38039216 0.78823529 0.52549020
v 0.03210051 0.01678973 0.04980810 0.38039216 0.78823529 0.52549020
v 0.03207581 0.01607524 0.04981593 0.38039216 0.78823529 0.52549020
v 0.02770123 0.02541091 0.04830597 0.38039216 0.78823529 0.52549020
v 0.02770123 0.03005057 0.04484716 0.38039216 0.78823529 0.52549020
v 0.02789478 0.02996757 0.04512146 0.38039216 0.78823529 0.52549020
v 0.02923583 0.02820953 0.04408434 0.38039216 0.78823529 0.52549020
v 0.03125086 0.02609574 0.04615858 0.38039216 0.78823529 0.52549020
v 0.03224464 0.02501661 0.04582420 0.38039216 0.78823529 0.52549020
v 0.03130164 0.02616393 0.04512146 0.38039216 0.78823529 0.52549020
v 0.02830519 0.02938353 0.04615858 0.38039216 0.78823529 0.52549020
v 0.03222405 0.02498696 0.04512146 0.38039216 0.78823529 0.52549020
v 0.03312587 0.02376553 0.04512146 0.38039216 0.78823529 0.52549020
v 0.03298723 0.02356394 0.04408434 0.38039216 0.78823529 0.52549020
v 0.03182050 0.02550578 0.04512146 0.38039216 0.78823529 0.52549020
v 0.03099143 0.02263897 0.03684018 0.38039216 0.78823529 0.52549020
v 0.04123399 0.00467026 0.04615858 0.38039216 0.78823529 0.52549020
v 0.04135341 0.00362374 0.04622520 0.38039216 0.78823529 0.52549020
v 0.03798635 0.00570789 0.03684018 0.38039216 0.78823529 0.52549020
v 0.04161970 0.00051976 0.04786839 0.38039216 0.78823529 0.52549020
v 0.04164029 -0.00013246 0.04788276 0.38039216 0.78823529 0.52549020
v 0.04156068 0.00259501 0.04719570 0.38039216 0.78823529 0.52549020
v 0.04150578 0.00319683 0.04773647 0.38039216 0.78823529 0.52549020
v 0.04143577 0.00381348 0.04719570 0.38039216 0.78823529 0.52549020
v 0.04151538 0.00329467 0.04719570 0.38039216 0.78823529 0.52549020
v 0.04107889 0.00570789 0.04615858 0.38039216 0.78823529 0.52549020
v 0.03889778 0.00363264 0.04926080 0.38039216 0.78823529 0.52549020
v 0.03786007 0.00467026 0.04961739 0.38039216 0.78823529 0.52549020
v 0.04097182 -0.00013246 0.04822368 0.38039216 0.78823529 0.52549020
v 0.03578603 0.00881780 0.04992173 0.38039216 0.78823529 0.52549020
v 0.03578603 0.00985542 0.04999227 0.38039216 0.78823529 0.52549020
v 0.03474832 0.01296830 0.05014117 0.38039216 0.78823529 0.52549020
v 0.03474832 0.01400592 0.05018428 0.38039216 0.78823529 0.52549020
v 0.03474832 0.01503762 0.05014509 0.38039216 0.78823529 0.52549020
v 0.03371198 0.01607524 0.05005627 0.38039216 0.78823529 0.52549020
v 0.03264407 0.01712769 0.04985381 0.38039216 0.78823529 0.52549020
v 0.03227621 0.01748049 0.04977413 0.38039216 0.78823529 0.52549020
v 0.02770123 0.02644853 0.04824197 0.38039216 0.78823529 0.52549020
v 0.02770123 0.03015434 0.04512146 0.38039216 0.78823529 0.52549020
v 0.02782477 0.02990234 0.04615858 0.38039216 0.78823529 0.52549020
v 0.03112320 0.02593565 0.04668237 0.38039216 0.78823529 0.52549020
v 0.03291723 0.02334752 0.04726885 0.38039216 0.78823529 0.52549020
v 0.03333314 0.02300955 0.04697234 0.38039216 0.78823529 0.52549020
v 0.02814047 0.02919972 0.04683258 0.38039216 0.78823529 0.52549020
v 0.03349922 0.02324672 0.04512146 0.38039216 0.78823529 0.52549020
v 0.03427888 0.02184741 0.04680123 0.38039216 0.78823529 0.52549020
v 0.03433790 0.02193931 0.04615858 0.38039216 0.78823529 0.52549020
v 0.03429260 0.02188595 0.04445138 0.38039216 0.78823529 0.52549020
v 0.03335235 0.02304512 0.04408434 0.38039216 0.78823529 0.52549020
v 0.03134694 0.02213498 0.03684018 0.38039216 0.78823529 0.52549020
v 0.03731239 0.00978131 0.03684018 0.38039216 0.78823529 0.52549020
v 0.04031021 0.00570789 0.04863644 0.38039216 0.78823529 0.52549020
v 0.04030747 0.00467026 0.04865995 0.38039216 0.78823529 0.52549020
v 0.04030061 0.00363264 0.04867954 0.38039216 0.78823529 0.52549020
v 0.04110634 0.00570789 0.04719570 0.38039216 0.78823529 0.52549020
v 0.04061631 0.00674255 0.04798856 0.38039216 0.78823529 0.52549020
v 0.04073436 0.00570789 0.04811788 0.38039216 0.78823529 0.52549020
v 0.04025256 0.00674255 0.04850713 0.38039216 0.78823529 0.52549020
v 0.04082632 0.00674255 0.04615858 0.38039216 0.78823529 0.52549020
v 0.04086613 0.00674255 0.04719570 0.38039216 0.78823529 0.52549020
v 0.03728219 0.00996215 0.03684018 0.38039216 0.78823529 0.52549020
v 0.03889778 0.00467026 0.04934309 0.38039216 0.78823529 0.52549020
v 0.03972822 0.00259501 0.04888331 0.38039216 0.78823529 0.52549020
v 0.03786007 0.00570789 0.04966311 0.38039216 0.78823529 0.52549020
v 0.03736180 0.00707755 0.04979373 0.38039216 0.78823529 0.52549020
v 0.03978175 0.00363264 0.04891335 0.38039216 0.78823529 0.52549020
v 0.03578603 0.01089305 0.05003929 0.38039216 0.78823529 0.52549020
v 0.03578603 0.01296830 0.05013073 0.38039216 0.78823529 0.52549020
v 0.03578603 0.01400592 0.05011505 0.38039216 0.78823529 0.52549020
v 0.03474832 0.01607524 0.05004582 0.38039216 0.78823529 0.52549020
v 0.03371198 0.01711287 0.04992304 0.38039216 0.78823529 0.52549020
v 0.03296802 0.01775620 0.04981593 0.38039216 0.78823529 0.52549020
v 0.02770123 0.02746837 0.04810090 0.38039216 0.78823529 0.52549020
v 0.02770123 0.03005650 0.04587383 0.38039216 0.78823529 0.52549020
v 0.02770123 0.03001204 0.04615858 0.38039216 0.78823529 0.52549020
v 0.03219385 0.02389894 0.04775998 0.38039216 0.78823529 0.52549020
v 0.03316705 0.02278720 0.04766332 0.38039216 0.78823529 0.52549020
v 0.03413613 0.02167249 0.04749352 0.38039216 0.78823529 0.52549020
v 0.03534266 0.01984034 0.04794154 0.38039216 0.78823529 0.52549020
v 0.02770123 0.02941021 0.04706247 0.38039216 0.78823529 0.52549020
v 0.03401808 0.02248777 0.04512146 0.38039216 0.78823529 0.52549020
v 0.03470028 0.02126337 0.04615858 0.38039216 0.78823529 0.52549020
v 0.03473596 0.02126337 0.04512146 0.38039216 0.78823529 0.52549020
v 0.03434888 0.02196896 0.04512146 0.38039216 0.78823529 0.52549020
v 0.03192619 0.02122187 0.03684018 0.38039216 0.78823529 0.52549020
v 0.03135518 0.02212312 0.03684018 0.38039216 0.78823529 0.52549020
v 0.03534816 0.01986999 0.04438346 0.38039216 0.78823529 0.52549020
v 0.03450673 0.02128412 0.04409610 0.38039216 0.78823529 0.52549020
v 0.03443810 0.01697353 0.03684018 0.38039216 0.78823529 0.52549020
v 0.03959919 0.00778017 0.04888461 0.38039216 0.78823529 0.52549020
v 0.03973371 0.00674255 0.04894731 0.38039216 0.78823529 0.52549020
v 0.03979136 0.00570789 0.04896952 0.38039216 0.78823529 0.52549020
v 0.03978861 0.00467026 0.04894601 0.38039216 0.78823529 0.52549020
v 0.04049964 0.00734141 0.04782137 0.38039216 0.78823529 0.52549020
v 0.03845716 0.01163124 0.04894862 0.38039216 0.78823529 0.52549020
v 0.03856423 0.01089305 0.04908054 0.38039216 0.78823529 0.52549020
v 0.03947840 0.00849465 0.04881539 0.38039216 0.78823529 0.52549020
v 0.04048454 0.00737402 0.04556818 0.38039216 0.78823529 0.52549020
v 0.04056552 0.00751928 0.04615858 0.38039216 0.78823529 0.52549020
v 0.04057651 0.00749557 0.04719570 0.38039216 0.78823529 0.52549020
v 0.03631861 0.01767319 0.04877881 0.38039216 0.78823529 0.52549020
v 0.03698296 0.01089305 0.03684018 0.38039216 0.78823529 0.52549020
v 0.03889778 0.00570789 0.04937836 0.38039216 0.78823529 0.52549020
v 0.03752240 0.01089305 0.04983814 0.38039216 0.78823529 0.52549020
v 0.03682236 0.01089305 0.04995308 0.38039216 0.78823529 0.52549020
v 0.03652450 0.01400592 0.04991651 0.38039216 0.78823529 0.52549020
v 0.03585466 0.01509691 0.04995700 0.38039216 0.78823529 0.52549020
v 0.03559248 0.01607524 0.04989300 0.38039216 0.78823529 0.52549020
v 0.03541267 0.01681344 0.04983814 0.38039216 0.78823529 0.52549020
v 0.03748946 0.01161939 0.04983030 0.38039216 0.78823529 0.52549020
v 0.03469204 0.01713955 0.04987341 0.38039216 0.78823529 0.52549020
v 0.03371198 0.01774730 0.04981463 0.38039216 0.78823529 0.52549020
v 0.02770123 0.02831329 0.04784096 0.38039216 0.78823529 0.52549020
v 0.03430908 0.01766429 0.04979765 0.38039216 0.78823529 0.52549020
v 0.03499814 0.01750420 0.04975585 0.38039216 0.78823529 0.52549020
v 0.02770123 0.02893883 0.04745433 0.38039216 0.78823529 0.52549020
v 0.03415809 0.02068230 0.04869783 0.38039216 0.78823529 0.52549020
v 0.03518756 0.01962392 0.04863382 0.38039216 0.78823529 0.52549020
v 0.03609487 0.01823351 0.04823282 0.38039216 0.78823529 0.52549020
v 0.03615252 0.01832541 0.04512146 0.38039216 0.78823529 0.52549020
v 0.03574347 0.01918812 0.04512146 0.38039216 0.78823529 0.52549020
v 0.03513677 0.02045995 0.04512146 0.38039216 0.78823529 0.52549020
v 0.03505990 0.02021982 0.04405691 0.38039216 0.78823529 0.52549020
v 0.03637351 0.01778584 0.04447620 0.38039216 0.78823529 0.52549020
v 0.03491578 0.01607524 0.03684018 0.38039216 0.78823529 0.52549020
v 0.03804125 0.01089305 0.04959910 0.38039216 0.78823529 0.52549020
v 0.03641195 0.01711287 0.04893817 0.38039216 0.78823529 0.52549020
v 0.03611134 0.01607524 0.04967356 0.38039216 0.78823529 0.52549020
v 0.03624586 0.01547935 0.04975977 0.38039216 0.78823529 0.52549020
v 0.03734671 0.01557126 0.04458984 0.38039216 0.78823529 0.52549020
v 0.03737416 0.01564537 0.04512146 0.38039216 0.78823529 0.52549020
v 0.03737965 0.01566019 0.04574844 0.38039216 0.78823529 0.52549020
v 0.03633920 0.01771469 0.04823282 0.38039216 0.78823529 0.52549020
v 0.03545660 0.01893316 0.04889506 0.38039216 0.78823529 0.52549020
v 0.03579563 0.01807341 0.04904136 0.38039216 0.78823529 0.52549020
v 0.03576955 0.01713955 0.04950375 0.38039216 0.78823529 0.52549020
v 0.03660411 0.01190696 0.03684018 0.38039216 0.78823529 0.52549020
v 0.03639685 0.01479155 0.04984859 0.38039216 0.78823529 0.52549020
v 0.02776987 0.02877874 0.04752486 0.38039216 0.78823529 0.52549020
v 0.02770123 0.02871056 0.04760454 0.38039216 0.78823529 0.52549020
v 0.03235582 0.02197489 0.04883628 0.38039216 0.78823529 0.52549020
v 0.03346765 0.02096098 0.04885588 0.38039216 0.78823529 0.52549020
v 0.03449713 0.01998857 0.04888853 0.38039216 0.78823529 0.52549020
v 0.03480460 0.01924148 0.04907662 0.38039216 0.78823529 0.52549020
v 0.03672078 0.01711287 0.04512146 0.38039216 0.78823529 0.52549020
v 0.03716003 0.01616418 0.04512146 0.38039216 0.78823529 0.52549020
v 0.03521913 0.01536670 0.03684018 0.38039216 0.78823529 0.52549020
v 0.03492127 0.01606339 0.03684018 0.38039216 0.78823529 0.52549020
f 1 2 6
f 1 6 23
f 1 23 48
f 1 48 82
f 1 82 90
f 1 90 54
f 1 54 53
f 1 53 50
f 1 50 27
f 1 27 25
f 1 25 7
f 1 7 3
f 1 3 16
f 1 16 37
f 1 37 65
f 1 65 99
f 1 99 134
f 1 134 174
f 1 174 201
f 1 201 177
f 1 177 141
f 1 141 136
f 1 136 135
f 1 135 100
f 1 100 66
f 1 66 38
f 1 38 17
f 1 17 4
f 1 4 21
f 1 21 46
f 1 46 77
f 1 77 111
f 1 111 147
f 1 147 146
f 1 146 150
f 1 150 186
f 1 186 209
f 1 209 208
f 1 208 198
f 1 198 163
f 1 163 122
f 1 122 112
f 1 112 80
f 1 80 47
f 1 47 22
f 1 22 5
f 1 5 2
f 2 5 6
f 3 7 8
f 3 8 9
f 3 9 10
f 3 10 11
f 3 11 12
f 3 12 13
f 3 13 14
f 3 14 15
f 3 15 16
f 4 17 18
f 4 18 19
f 4 19 20
f 4 20 21
f 5 22 6
f 6 22 24
f 6 24 23
f 7 25 8
f 8 25 26
f 8 26 27
f 8 27 28
f 8 28 9
f 9 28 29
f 9 29 30
f 9 30 31
f 9 31 11
f 9 11 10
f 11 31 12
f 12 31 32
f 12 32 13
f 13 32 33
f 13 33 34
f 13 34 15
f 13 15 14
f 15 34 35
f 15 35 36
f 15 36 37
f 15 37 16
f 17 38 39
f 17 39 40
f 17 40 41
f 17 41 18
f 18 41 42
f 18 42 43
f 18 43 44
f 18 44 20
f 18 20 19
f 20 44 43
f 20 43 45
f 20 45 46
f 20 46 21
f 22 47 24
f 23 24 48
f 24 47 49
f 24 49 48
f 25 27 26
f 27 50 28
f 28 50 29
f 29 51 52
f 29 52 56
f 29 56 30
f 29 50 53
f 29 53 54
f 29 54 55
f 29 55 51
f 30 56 57
f 30 57 31
f 31 57 58
f 31 58 59
f 31 59 32
f 32 59 33
f 33 59 60
f 33 60 34
f 34 60 35
f 35 60 61
f 35 61 62
f 35 62 63
f 35 63 64
f 35 64 36
f 36 64 37
f 37 64 63
f 37 63 65
f 38 66 67
f 38 67 39
f 39 67 68
f 39 68 40
f 40 68 41
f 41 68 42
f 42 69 70
f 42 70 71
f 42 71 43
f 42 68 67
f 42 67 72
f 42 72 69
f 43 71 45
f 45 73 74
f 45 74 75
f 45 75 46
f 45 71 76
f 45 76 73
f 46 75 77
f 47 78 79
f 47 79 49
f 47 80 78
f 48 81 82
f 48 49 83
f 48 83 84
f 48 84 81
f 49 85 86
f 49 86 83
f 49 79 78
f 49 78 87
f 49 87 85
f 51 88 89
f 51 89 52
f 51 55 54
f 51 54 90
f 51 90 88
f 52 89 56
f 56 89 91
f 56 91 57
f 57 91 59
f 57 59 58
f 59 91 92
f 59 92 93
f 59 93 60
f 60 94 61
f 60 93 94
f 61 94 95
f 61 95 96
f 61 96 62
f 62 96 97
f 62 97 63
f 63 97 98
f 63 98 99
f 63 99 65
f 66 100 67
f 67 100 101
f 67 101 72
f 69 102 103
f 69 103 104
f 69 104 70
f 69 72 105
f 69 105 102
f 70 106 74
f 70 74 73
f 70 73 76
f 70 76 71
f 70 104 107
f 70 107 108
f 70 108 106
f 72 101 105
f 74 106 75
f 75 106 109
f 75 109 110
f 75 110 111
f 75 111 77
f 78 80 87
f 80 112 87
f 81 84 113
f 81 113 82
f 82 113 114
f 82 114 115
f 82 115 90
f 83 86 84
f 84 86 85
f 84 85 116
f 84 116 117
f 84 117 118
f 84 118 119
f 84 119 113
f 85 87 116
f 87 120 121
f 87 121 116
f 87 112 122
f 87 122 120
f 88 123 89
f 88 90 124
f 88 124 123
f 89 123 125
f 89 125 126
f 89 126 91
f 90 115 127
f 90 127 123
f 90 123 124
f 91 126 92
f 92 128 93
f 92 126 128
f 93 128 129
f 93 129 94
f 94 130 95
f 94 129 130
f 95 131 96
f 95 130 131
f 96 131 132
f 96 132 133
f 96 133 97
f 97 133 98
f 98 133 99
f 99 133 134
f 100 135 101
f 101 135 136
f 101 136 105
f 102 105 137
f 102 137 138
f 102 138 103
f 103 138 104
f 104 138 139
f 104 139 140
f 104 140 107
f 105 136 141
f 105 141 137
f 106 108 142
f 106 142 109
f 107 140 108
f 108 140 143
f 108 143 144
f 108 144 145
f 108 145 142
f 109 146 147
f 109 147 111
f 109 111 110
f 109 142 145
f 109 145 144
f 109 144 148
f 109 148 149
f 109 149 150
f 109 150 146
f 113 119 151
f 113 151 152
f 113 152 153
f 113 153 114
f 114 153 115
f 115 153 154
f 115 154 127
f 116 121 117
f 117 119 118
f 117 121 155
f 117 155 156
f 117 156 119
f 119 156 157
f 119 157 158
f 119 158 151
f 120 159 160
f 120 160 121
f 120 122 159
f 121 160 161
f 121 161 162
f 121 162 155
f 122 163 159
f 123 127 154
f 123 154 164
f 123 164 125
f 125 164 165
f 125 165 126
f 126 165 166
f 126 166 129
f 126 129 128
f 129 166 165
f 129 165 130
f 130 167 168
f 130 168 169
f 130 169 170
f 130 170 131
f 130 165 171
f 130 171 167
f 131 170 172
f 131 172 132
f 132 172 173
f 132 173 133
f 133 173 134
f 134 173 175
f 134 175 176
f 134 176 174
f 137 141 177
f 137 177 178
f 137 178 179
f 137 179 138
f 138 179 139
f 139 179 140
f 140 179 162
f 140 162 180
f 140 180 181
f 140 181 182
f 140 182 183
f 140 183 143
f 143 183 144
f 144 183 148
f 148 184 149
f 148 183 185
f 148 185 186
f 148 186 184
f 149 184 186
f 149 186 150
f 151 158 187
f 151 187 152
f 152 187 153
f 153 164 154
f 153 187 171
f 153 171 164
f 155 162 156
f 156 187 157
f 156 162 188
f 156 188 189
f 156 189 190
f 156 190 187
f 157 187 158
f 159 163 191
f 159 191 160
f 160 191 192
f 160 192 193
f 160 193 161
f 161 193 162
f 162 193 194
f 162 194 180
f 162 179 195
f 162 195 196
f 162 196 197
f 162 197 189
f 162 189 188
f 163 198 191
f 164 171 165
f 167 199 168
f 167 171 199
f 168 199 169
f 169 199 170
f 170 199 190
f 170 190 189
f 170 189 197
f 170 197 195
f 170 195 176
f 170 176 172
f 171 187 199
f 172 176 175
f 172 175 173
f 174 200 201
f 174 176 202
f 174 202 203
f 174 203 204
f 174 204 178
f 174 178 200
f 176 195 205
f 176 205 204
f 176 204 202
f 177 201 200
f 177 200 178
f 178 204 195
f 178 195 179
f 180 194 181
f 181 194 206
f 181 206 185
f 181 185 182
f 182 185 183
f 185 206 207
f 185 207 191
f 185 191 208
f 185 208 209
f 185 209 186
f 187 190 199
f 191 207 192
f 191 198 208
f 192 207 193
f 193 207 206
f 193 206 194
f 195 204 205
f 195 197 196
f 202 204 203

