# https://github.com/mikedh/trimesh
v 0.00202097 0.02054739 0.04556631 0.77647059 0.86666667 0.97647059
v 0.00202097 0.01815138 0.04549457 0.77647059 0.86666667 0.97647059
v 0.00202097 0.02054739 0.03684018 0.77647059 0.86666667 0.97647059
v -0.00052007 0.02054739 0.04591188 0.77647059 0.86666667 0.97647059
v 0.00202097 0.01343243 0.04513081 0.77647059 0.86666667 0.97647059
v -0.00155665 0.02054739 0.04604122 0.77647059 0.86666667 0.97647059
v -0.01740960 0.00646360 0.04716179 0.77647059 0.86666667 0.97647059
v 0.00202097 0.00646360 0.03684018 0.77647059 0.86666667 0.97647059
v -0.01740960 0.02054739 0.03684018 0.77647059 0.86666667 0.97647059
v 0.00202097 0.01296646 0.04509343 0.77647059 0.86666667 0.97647059
v -0.00259322 0.02054739 0.04613418 0.77647059 0.86666667 0.97647059
v 0.00202097 0.00646360 0.04455688 0.77647059 0.86666667 0.97647059
v -0.00364501 0.02054739 0.04621905 0.77647059 0.86666667 0.97647059
v -0.00466827 0.02054739 0.04622310 0.77647059 0.86666667 0.97647059
v -0.01740960 0.02054739 0.04560269 0.77647059 0.86666667 0.97647059
v -0.01740960 0.00646360 0.03684018 0.77647059 0.86666667 0.97647059
f 1 2 5
f 1 5 10
f 1 10 12
f 1 12 8
f 1 8 3
f 1 3 9
f 1 9 15
f 1 15 14
f 1 14 13
f 1 13 11
f 1 11 6
f 1 6 4
f 1 4 2
f 2 4 6
f 2 6 7
f 2 7 5
f 3 8 16
f 3 16 9
f 5 7 10
f 6 11 7
f 7 12 10
f 7 11 13
f 7 13 14
f 7 14 15
f 7 15 9
f 7 9 16
f 7 16 8
f 7 8 12

