# https://github.com/mikedh/trimesh
v 0.03506966 -0.02236871 0.04719526 0.43529412 0.89019608 0.96078431
v 0.03505672 -0.02236871 0.04727985 0.43529412 0.89019608 0.96078431
v 0.03501790 -0.02244685 0.04719526 0.43529412 0.89019608 0.96078431
v 0.03487556 -0.02236871 0.04615776 0.43529412 0.89019608 0.96078431
v 0.03481410 -0.02236871 0.04819419 0.43529412 0.89019608 0.96078431
v 0.03439355 -0.02307948 0.04823276 0.43529412 0.89019608 0.96078431
v 0.03405064 -0.02359861 0.04823276 0.43529412 0.89019608 0.96078431
v 0.03449707 -0.02319484 0.04719526 0.43529412 0.89019608 0.96078431
v 0.03410563 -0.02371397 0.04719526 0.43529412 0.89019608 0.96078431
v 0.03096446 -0.02775161 0.04719526 0.43529412 0.89019608 0.96078431
v 0.03276311 -0.02236871 0.03888034 0.43529412 0.89019608 0.96078431
v 0.03475910 -0.02236871 0.04829869 0.43529412 0.89019608 0.96078431
v 0.03424150 -0.02285248 0.04876270 0.43529412 0.89019608 0.96078431
v 0.03218405 -0.02598584 0.04878634 0.43529412 0.89019608 0.96078431
v 0.03221640 -0.02603235 0.04823276 0.43529412 0.89019608 0.96078431
v 0.03089652 -0.02775161 0.04823276 0.43529412 0.89019608 0.96078431
v 0.03044362 -0.02839726 0.04719526 0.43529412 0.89019608 0.96078431
v 0.03111003 -0.02384794 0.03737385 0.43529412 0.89019608 0.96078431
v 0.03218728 -0.02285806 0.03829939 0.43529412 0.89019608 0.96078431
v 0.03136236 -0.02317065 0.03684018 0.43529412 0.89019608 0.96078431
v 0.03205141 -0.02261431 0.03760897 0.43529412 0.89019608 0.96078431
v 0.03229727 -0.02236871 0.03783538 0.43529412 0.89019608 0.96078431
v 0.03435473 -0.02236871 0.04883610 0.43529412 0.89019608 0.96078431
v 0.03231668 -0.02541461 0.04888461 0.43529412 0.89019608 0.96078431
v 0.03163410 -0.02541461 0.04908117 0.43529412 0.89019608 0.96078431
v 0.02748684 -0.02956390 0.04927399 0.43529412 0.89019608 0.96078431
v 0.02849939 -0.02950436 0.04893935 0.43529412 0.89019608 0.96078431
v 0.02813383 -0.03021885 0.04882366 0.43529412 0.89019608 0.96078431
v 0.02882612 -0.02980951 0.04840692 0.43529412 0.89019608 0.96078431
v 0.02904287 -0.03008302 0.04771525 0.43529412 0.89019608 0.96078431
v 0.03013630 -0.02496433 0.03722582 0.43529412 0.89019608 0.96078431
v 0.02904287 -0.03008302 0.04771276 0.43529412 0.89019608 0.96078431
v 0.02926932 -0.02616632 0.03786151 0.43529412 0.89019608 0.96078431
v 0.02978692 -0.02560254 0.03786151 0.43529412 0.89019608 0.96078431
v 0.03042745 -0.02440055 0.03685760 0.43529412 0.89019608 0.96078431
v 0.03099357 -0.02368978 0.03684018 0.43529412 0.89019608 0.96078431
v 0.03180556 -0.02236871 0.03684018 0.43529412 0.89019608 0.96078431
v 0.03191231 -0.02236871 0.03705539 0.43529412 0.89019608 0.96078431
v 0.03432238 -0.02236871 0.04884854 0.43529412 0.89019608 0.96078431
v 0.03370773 -0.02236871 0.04902519 0.43529412 0.89019608 0.96078431
v 0.03364303 -0.02236871 0.04903763 0.43529412 0.89019608 0.96078431
v 0.02748684 -0.02852565 0.04944317 0.43529412 0.89019608 0.96078431
v 0.02644840 -0.02956390 0.04944815 0.43529412 0.89019608 0.96078431
v 0.02644840 -0.03060029 0.04923791 0.43529412 0.89019608 0.96078431
v 0.02744802 -0.03057982 0.04893189 0.43529412 0.89019608 0.96078431
v 0.02707599 -0.03120686 0.04880624 0.43529412 0.89019608 0.96078431
v 0.02672662 -0.03194927 0.04823276 0.43529412 0.89019608 0.96078431
v 0.02728303 -0.03143386 0.04823276 0.43529412 0.89019608 0.96078431
v 0.02849939 -0.03035282 0.04812950 0.43529412 0.89019608 0.96078431
v 0.02582082 -0.03309916 0.04719526 0.43529412 0.89019608 0.96078431
v 0.03003601 -0.02485083 0.03684018 0.43529412 0.89019608 0.96078431
v 0.02913345 -0.02602677 0.03718104 0.43529412 0.89019608 0.96078431
v 0.02954106 -0.02539043 0.03684018 0.43529412 0.89019608 0.96078431
v 0.02636753 -0.03258003 0.04719526 0.43529412 0.89019608 0.96078431
v 0.02688836 -0.03206649 0.04719526 0.43529412 0.89019608 0.96078431
v 0.02875819 -0.02668545 0.03786151 0.43529412 0.89019608 0.96078431
v 0.03042421 -0.02439311 0.03684018 0.43529412 0.89019608 0.96078431
v 0.00202097 -0.02236871 0.03684018 0.43529412 0.89019608 0.96078431
v 0.03267253 -0.02236871 0.04911849 0.43529412 0.89019608 0.96078431
v 0.02644840 -0.02852565 0.04954891 0.43529412 0.89019608 0.96078431
v 0.02541321 -0.03060029 0.04939839 0.43529412 0.89019608 0.96078431
v 0.02637077 -0.03158644 0.04891322 0.43529412 0.89019608 0.96078431
v 0.02541321 -0.03163854 0.04917074 0.43529412 0.89019608 0.96078431
v 0.02597286 -0.03218371 0.04877639 0.43529412 0.89019608 0.96078431
v 0.02620901 -0.03239024 0.04823276 0.43529412 0.89019608 0.96078431
v 0.02515441 -0.03339872 0.04794788 0.43529412 0.89019608 0.96078431
v 0.02530322 -0.03351967 0.04719526 0.43529412 0.89019608 0.96078431
v 0.02403510 -0.03434022 0.04644512 0.43529412 0.89019608 0.96078431
v 0.02511235 -0.03337082 0.04615776 0.43529412 0.89019608 0.96078431
v 0.02563319 -0.03290007 0.04615776 0.43529412 0.89019608 0.96078431
v 0.02810149 -0.02706502 0.03716113 0.43529412 0.89019608 0.96078431
v 0.02801414 -0.02698130 0.03684018 0.43529412 0.89019608 0.96078431
v 0.02850262 -0.02648263 0.03684018 0.43529412 0.89019608 0.96078431
v 0.02854792 -0.02643612 0.03684018 0.43529412 0.89019608 0.96078431
v 0.02903963 -0.02592630 0.03684018 0.43529412 0.89019608 0.96078431
v 0.02824059 -0.02719713 0.03786151 0.43529412 0.89019608 0.96078431
v 0.00202097 -0.03900305 0.03684018 0.43529412 0.89019608 0.96078431
v 0.00202097 -0.02236871 0.04516256 0.43529412 0.89019608 0.96078431
v 0.03059890 -0.02236871 0.04927648 0.43529412 0.89019608 0.96078431
v 0.02333634 -0.03163854 0.04939590 0.43529412 0.89019608 0.96078431
v 0.03053097 -0.02236871 0.04927896 0.43529412 0.89019608 0.96078431
v 0.00202097 -0.03889699 0.04950537 0.43529412 0.89019608 0.96078431
v 0.00467043 -0.03889699 0.04950040 0.43529412 0.89019608 0.96078431
v 0.00778249 -0.03786060 0.04949044 0.43529412 0.89019608 0.96078431
v 0.01918908 -0.03474771 0.04925035 0.43529412 0.89019608 0.96078431
v 0.02437477 -0.03163854 0.04932126 0.43529412 0.89019608 0.96078431
v 0.02022428 -0.03474771 0.04913093 0.43529412 0.89019608 0.96078431
v 0.02022428 -0.03552919 0.04887839 0.43529412 0.89019608 0.96078431
v 0.02086804 -0.03535615 0.04879256 0.43529412 0.89019608 0.96078431
v 0.02541321 -0.03234001 0.04886844 0.43529412 0.89019608 0.96078431
v 0.02401892 -0.03433092 0.04786080 0.43529412 0.89019608 0.96078431
v 0.02463357 -0.03403693 0.04719526 0.43529412 0.89019608 0.96078431
v 0.02202617 -0.03539894 0.04641029 0.43529412 0.89019608 0.96078431
v 0.01713162 -0.03470491 0.03684018 0.43529412 0.89019608 0.96078431
v 0.01833181 -0.03405368 0.03684018 0.43529412 0.89019608 0.96078431
v 0.01835121 -0.03404251 0.03684018 0.43529412 0.89019608 0.96078431
v 0.01926025 -0.03347873 0.03684018 0.43529412 0.89019608 0.96078431
v 0.02332663 -0.03090171 0.03684018 0.43529412 0.89019608 0.96078431
v 0.02420332 -0.03033421 0.03684018 0.43529412 0.89019608 0.96078431
v 0.02476944 -0.03104499 0.03964914 0.43529412 0.89019608 0.96078431
v 0.02411274 -0.03438860 0.04719526 0.43529412 0.89019608 0.96078431
v 0.02076776 -0.03631625 0.04760578 0.43529412 0.89019608 0.96078431
v 0.02066747 -0.03627345 0.04691411 0.43529412 0.89019608 0.96078431
v 0.02704688 -0.02807536 0.03719223 0.43529412 0.89019608 0.96078431
v 0.02747066 -0.02750414 0.03684018 0.43529412 0.89019608 0.96078431
v 0.02749007 -0.02748554 0.03684018 0.43529412 0.89019608 0.96078431
v 0.00202097 -0.04137539 0.04616522 0.43529412 0.89019608 0.96078431
v 0.00259356 -0.03899746 0.03684018 0.43529412 0.89019608 0.96078431
v 0.00202097 -0.03578596 0.04890327 0.43529412 0.89019608 0.96078431
v 0.02956047 -0.02236871 0.04918193 0.43529412 0.89019608 0.96078431
v 0.00881769 -0.03786060 0.04944193 0.43529412 0.89019608 0.96078431
v 0.00202097 -0.03786060 0.04937226 0.43529412 0.89019608 0.96078431
v 0.00202097 -0.03843182 0.04944815 0.43529412 0.89019608 0.96078431
v 0.00202097 -0.03947007 0.04935236 0.43529412 0.89019608 0.96078431
v 0.00467043 -0.03993524 0.04914337 0.43529412 0.89019608 0.96078431
v 0.00570562 -0.03889699 0.04946432 0.43529412 0.89019608 0.96078431
v 0.00202097 -0.03993524 0.04922049 0.43529412 0.89019608 0.96078431
v 0.00259356 -0.03993524 0.04920432 0.43529412 0.89019608 0.96078431
v 0.00674406 -0.03889699 0.04939839 0.43529412 0.89019608 0.96078431
v 0.00778249 -0.03889699 0.04929638 0.43529412 0.89019608 0.96078431
v 0.01918908 -0.03570223 0.04895801 0.43529412 0.89019608 0.96078431
v 0.02022428 -0.03604645 0.04844175 0.43529412 0.89019608 0.96078431
v 0.01089455 -0.03867185 0.04894930 0.43529412 0.89019608 0.96078431
v 0.01174859 -0.03851741 0.04886347 0.43529412 0.89019608 0.96078431
v 0.01918908 -0.03622135 0.04865945 0.43529412 0.89019608 0.96078431
v 0.02116243 -0.03572456 0.04818673 0.43529412 0.89019608 0.96078431
v 0.02076776 -0.03631625 0.04774884 0.43529412 0.89019608 0.96078431
v 0.01630670 -0.03513100 0.03684018 0.43529412 0.89019608 0.96078431
v 0.02471445 -0.02993603 0.03684018 0.43529412 0.89019608 0.96078431
v 0.02537115 -0.02937225 0.03684018 0.43529412 0.89019608 0.96078431
v 0.01561765 -0.03840391 0.04652474 0.43529412 0.89019608 0.96078431
v 0.01544619 -0.03834251 0.04583307 0.43529412 0.89019608 0.96078431
v 0.01628729 -0.03514031 0.03684018 0.43529412 0.89019608 0.96078431
v 0.02695306 -0.02799163 0.03684018 0.43529412 0.89019608 0.96078431
v 0.00202097 -0.04136795 0.04719401 0.43529412 0.89019608 0.96078431
v 0.00259356 -0.04133632 0.04615776 0.43529412 0.89019608 0.96078431
v 0.00467043 -0.04120049 0.04615776 0.43529412 0.89019608 0.96078431
v 0.00363199 -0.04127678 0.04719526 0.43529412 0.89019608 0.96078431
v 0.00261297 -0.03899561 0.03684018 0.43529412 0.89019608 0.96078431
v 0.00570562 -0.04111862 0.04615776 0.43529412 0.89019608 0.96078431
v 0.00202097 -0.03635718 0.04904758 0.43529412 0.89019608 0.96078431
v 0.00202097 -0.03682235 0.04916452 0.43529412 0.89019608 0.96078431
v 0.00202097 -0.03739543 0.04928269 0.43529412 0.89019608 0.96078431
v 0.00528508 -0.04046739 0.04876892 0.43529412 0.89019608 0.96078431
v 0.00566033 -0.04000222 0.04902394 0.43529412 0.89019608 0.96078431
v 0.00202097 -0.04027016 0.04900030 0.43529412 0.89019608 0.96078431
v 0.00674406 -0.03976964 0.04901026 0.43529412 0.89019608 0.96078431
v 0.00985612 -0.03882815 0.04902892 0.43529412 0.89019608 0.96078431
v 0.00985612 -0.03934541 0.04866442 0.43529412 0.89019608 0.96078431
v 0.01400338 -0.03850997 0.04789314 0.43529412 0.89019608 0.96078431
v 0.00933205 -0.03941425 0.04875026 0.43529412 0.89019608 0.96078431
v 0.01457921 -0.03840205 0.04774511 0.43529412 0.89019608 0.96078431
v 0.01400338 -0.03886164 0.04719526 0.43529412 0.89019608 0.96078431
v 0.01264145 -0.03947193 0.04679220 0.43529412 0.89019608 0.96078431
v 0.01561765 -0.03840391 0.04674617 0.43529412 0.89019608 0.96078431
v 0.01316228 -0.03931378 0.04615776 0.43529412 0.89019608 0.96078431
v 0.01251529 -0.03943472 0.04561662 0.43529412 0.89019608 0.96078431
v 0.01348902 -0.03631252 0.03684018 0.43529412 0.89019608 0.96078431
v 0.01393868 -0.03612646 0.03684018 0.43529412 0.89019608 0.96078431
v 0.01577616 -0.03535615 0.03684018 0.43529412 0.89019608 0.96078431
v 0.00202097 -0.04118561 0.04762195 0.43529412 0.89019608 0.96078431
v 0.00467043 -0.04118561 0.04719526 0.43529412 0.89019608 0.96078431
v 0.00566033 -0.04064788 0.04829247 0.43529412 0.89019608 0.96078431
v 0.00467043 -0.04074835 0.04823276 0.43529412 0.89019608 0.96078431
v 0.00202097 -0.04092139 0.04823276 0.43529412 0.89019608 0.96078431
v 0.00363199 -0.03889141 0.03684018 0.43529412 0.89019608 0.96078431
v 0.00645614 -0.03845973 0.03684018 0.43529412 0.89019608 0.96078431
v 0.00674406 -0.04093442 0.04615776 0.43529412 0.89019608 0.96078431
v 0.00674406 -0.04090837 0.04719526 0.43529412 0.89019608 0.96078431
v 0.00570562 -0.04107955 0.04719526 0.43529412 0.89019608 0.96078431
v 0.00364817 -0.03888955 0.03684018 0.43529412 0.89019608 0.96078431
v 0.00674406 -0.04061438 0.04801506 0.43529412 0.89019608 0.96078431
v 0.00597736 -0.04039296 0.04867811 0.43529412 0.89019608 0.96078431
v 0.00202097 -0.04053065 0.04882241 0.43529412 0.89019608 0.96078431
v 0.00202097 -0.04075765 0.04849151 0.43529412 0.89019608 0.96078431
v 0.00674406 -0.04028877 0.04853380 0.43529412 0.89019608 0.96078431
v 0.00750105 -0.04052135 0.04784338 0.43529412 0.89019608 0.96078431
v 0.00985612 -0.03966916 0.04814568 0.43529412 0.89019608 0.96078431
v 0.01068752 -0.03954264 0.04794415 0.43529412 0.89019608 0.96078431
v 0.01298113 -0.03920214 0.04716043 0.43529412 0.89019608 0.96078431
v 0.01089455 -0.03992222 0.04615776 0.43529412 0.89019608 0.96078431
v 0.01192975 -0.03965614 0.04615776 0.43529412 0.89019608 0.96078431
v 0.01264145 -0.03947193 0.04615776 0.43529412 0.89019608 0.96078431
v 0.01097543 -0.03975662 0.04728358 0.43529412 0.89019608 0.96078431
v 0.00819333 -0.04042273 0.04759832 0.43529412 0.89019608 0.96078431
v 0.00985612 -0.04009712 0.04719526 0.43529412 0.89019608 0.96078431
v 0.00782131 -0.04062182 0.04723009 0.43529412 0.89019608 0.96078431
v 0.00849742 -0.04051018 0.04690665 0.43529412 0.89019608 0.96078431
v 0.01045136 -0.03737125 0.03684018 0.43529412 0.89019608 0.96078431
v 0.01304259 -0.03647441 0.03684018 0.43529412 0.89019608 0.96078431
v 0.00837449 -0.04046925 0.04561662 0.43529412 0.89019608 0.96078431
v 0.00778249 -0.04069439 0.04615776 0.43529412 0.89019608 0.96078431
f 1 2 3
f 1 3 4
f 1 4 11
f 1 11 22
f 1 22 38
f 1 38 37
f 1 37 58
f 1 58 78
f 1 78 110
f 1 110 81
f 1 81 79
f 1 79 59
f 1 59 41
f 1 41 40
f 1 40 39
f 1 39 23
f 1 23 12
f 1 12 5
f 1 5 2
f 2 5 6
f 2 6 7
f 2 7 3
f 3 7 8
f 3 8 4
f 4 8 9
f 4 9 10
f 4 10 11
f 5 12 6
f 6 13 14
f 6 14 7
f 6 12 13
f 7 14 8
f 8 14 9
f 9 14 15
f 9 15 16
f 9 16 10
f 10 16 17
f 10 17 18
f 10 18 11
f 11 19 20
f 11 20 21
f 11 21 22
f 11 18 19
f 12 23 13
f 13 23 24
f 13 24 14
f 14 16 15
f 14 24 25
f 14 25 26
f 14 26 27
f 14 27 28
f 14 28 29
f 14 29 16
f 16 29 30
f 16 30 17
f 17 31 18
f 17 30 32
f 17 32 33
f 17 33 34
f 17 34 31
f 18 31 35
f 18 35 36
f 18 36 20
f 18 20 19
f 20 36 57
f 20 57 51
f 20 51 53
f 20 53 75
f 20 75 74
f 20 74 73
f 20 73 72
f 20 72 106
f 20 106 105
f 20 105 134
f 20 134 130
f 20 130 129
f 20 129 99
f 20 99 98
f 20 98 97
f 20 97 96
f 20 96 95
f 20 95 94
f 20 94 128
f 20 128 133
f 20 133 160
f 20 160 159
f 20 159 158
f 20 158 190
f 20 190 189
f 20 189 167
f 20 167 171
f 20 171 166
f 20 166 139
f 20 139 108
f 20 108 77
f 20 77 58
f 20 58 37
f 20 37 21
f 21 38 22
f 21 37 38
f 23 39 24
f 24 39 25
f 25 39 40
f 25 40 41
f 25 41 42
f 25 42 26
f 26 42 43
f 26 43 44
f 26 44 45
f 26 45 28
f 26 28 27
f 28 45 46
f 28 46 47
f 28 47 48
f 28 48 49
f 28 49 29
f 29 49 30
f 30 49 48
f 30 48 47
f 30 47 50
f 30 50 32
f 31 51 35
f 31 34 33
f 31 33 52
f 31 52 53
f 31 53 51
f 32 50 54
f 32 54 55
f 32 55 56
f 32 56 33
f 33 56 52
f 35 51 57
f 35 57 36
f 41 59 60
f 41 60 42
f 42 60 43
f 43 60 61
f 43 61 44
f 44 62 45
f 44 61 63
f 44 63 62
f 45 62 46
f 46 62 64
f 46 64 47
f 47 64 65
f 47 65 66
f 47 66 50
f 50 66 67
f 50 67 68
f 50 68 69
f 50 69 70
f 50 70 54
f 52 56 71
f 52 71 72
f 52 72 73
f 52 73 74
f 52 74 75
f 52 75 53
f 54 76 55
f 54 70 76
f 55 76 56
f 56 76 71
f 58 77 107
f 58 107 135
f 58 135 161
f 58 161 165
f 58 165 175
f 58 175 174
f 58 174 146
f 58 146 117
f 58 117 114
f 58 114 82
f 58 82 113
f 58 113 112
f 58 112 143
f 58 143 142
f 58 142 141
f 58 141 109
f 58 109 78
f 59 79 60
f 60 80 61
f 60 79 81
f 60 81 82
f 60 82 83
f 60 83 84
f 60 84 80
f 61 80 85
f 61 85 86
f 61 86 63
f 62 63 64
f 63 86 87
f 63 87 88
f 63 88 89
f 63 89 90
f 63 90 64
f 64 90 89
f 64 89 91
f 64 91 65
f 65 91 66
f 66 91 67
f 67 91 92
f 67 92 68
f 68 93 94
f 68 94 95
f 68 95 96
f 68 96 97
f 68 97 98
f 68 98 99
f 68 99 100
f 68 100 69
f 68 92 101
f 68 101 102
f 68 102 103
f 68 103 93
f 69 100 104
f 69 104 70
f 70 104 71
f 70 71 76
f 71 104 105
f 71 105 106
f 71 106 72
f 77 108 107
f 78 109 110
f 80 84 111
f 80 111 85
f 81 110 112
f 81 112 113
f 81 113 82
f 82 114 83
f 83 115 116
f 83 116 84
f 83 114 117
f 83 117 118
f 83 118 115
f 84 116 111
f 85 87 86
f 85 111 119
f 85 119 120
f 85 120 87
f 87 120 121
f 87 121 88
f 88 122 89
f 88 121 123
f 88 123 124
f 88 124 125
f 88 125 122
f 89 122 126
f 89 126 91
f 91 126 127
f 91 127 101
f 91 101 92
f 93 103 94
f 94 103 128
f 99 129 100
f 100 129 130
f 100 130 104
f 101 127 102
f 102 127 155
f 102 155 131
f 102 131 103
f 103 131 132
f 103 132 133
f 103 133 128
f 104 134 105
f 104 130 134
f 107 108 136
f 107 136 137
f 107 137 138
f 107 138 135
f 108 139 140
f 108 140 137
f 108 137 136
f 109 141 110
f 110 141 142
f 110 142 143
f 110 143 112
f 111 116 119
f 115 144 145
f 115 145 119
f 115 119 116
f 115 118 146
f 115 146 144
f 117 146 118
f 119 145 120
f 120 145 147
f 120 147 148
f 120 148 123
f 120 123 121
f 122 127 126
f 122 125 149
f 122 149 150
f 122 150 127
f 123 148 147
f 123 147 151
f 123 151 124
f 124 151 149
f 124 149 125
f 127 150 152
f 127 152 153
f 127 153 154
f 127 154 155
f 131 155 156
f 131 156 132
f 132 156 157
f 132 157 158
f 132 158 159
f 132 159 160
f 132 160 133
f 135 138 161
f 137 140 138
f 138 140 162
f 138 162 163
f 138 163 164
f 138 164 165
f 138 165 161
f 139 166 140
f 140 167 168
f 140 168 169
f 140 169 170
f 140 170 162
f 140 166 171
f 140 171 167
f 144 163 172
f 144 172 173
f 144 173 151
f 144 151 147
f 144 147 145
f 144 146 174
f 144 174 175
f 144 175 165
f 144 165 164
f 144 164 163
f 149 151 173
f 149 173 176
f 149 176 177
f 149 177 178
f 149 178 179
f 149 179 150
f 150 179 152
f 152 179 153
f 153 179 180
f 153 180 154
f 154 181 182
f 154 182 183
f 154 183 156
f 154 156 155
f 154 180 184
f 154 184 185
f 154 185 186
f 154 186 187
f 154 187 169
f 154 169 188
f 154 188 181
f 156 183 157
f 157 189 190
f 157 190 158
f 157 183 182
f 157 182 181
f 157 181 191
f 157 191 167
f 157 167 189
f 162 170 163
f 163 170 172
f 167 191 168
f 168 192 169
f 168 191 192
f 169 192 188
f 169 187 185
f 169 185 177
f 169 177 172
f 169 172 170
f 172 176 173
f 172 177 176
f 177 185 184
f 177 184 179
f 177 179 178
f 179 184 180
f 181 188 192
f 181 192 191
f 185 187 186

