# https://github.com/mikedh/trimesh
v 0.02770123 0.01934424 0.04757240 0.11764706 0.63921569 0.14117647
v 0.02770123 0.00612273 0.04659331 0.11764706 0.63921569 0.14117647
v 0.02770123 0.01934424 0.03684123 0.11764706 0.63921569 0.14117647
v 0.01820436 0.01934424 0.04681497 0.11764706 0.63921569 0.14117647
v 0.01400392 -0.00013056 0.04619726 0.11764706 0.63921569 0.14117647
v 0.01503957 -0.00013056 0.04626764 0.11764706 0.63921569 0.14117647
v 0.01542669 -0.00013056 0.04627185 0.11764706 0.63921569 0.14117647
v 0.02126357 0.00051956 0.04633383 0.11764706 0.63921569 0.14117647
v 0.02229923 0.00051956 0.04631177 0.11764706 0.63921569 0.14117647
v 0.02770123 0.00589967 0.04657650 0.11764706 0.63921569 0.14117647
v 0.02770123 -0.00013056 0.03684123 0.11764706 0.63921569 0.14117647
v 0.00202097 0.01934424 0.03684123 0.11764706 0.63921569 0.14117647
v 0.00202097 0.01934424 0.04551757 0.11764706 0.63921569 0.14117647
v 0.00202097 0.01918791 0.04551757 0.11764706 0.63921569 0.14117647
v 0.00202097 -0.00013056 0.04513202 0.11764706 0.63921569 0.14117647
v 0.02126357 -0.00013056 0.04625924 0.11764706 0.63921569 0.14117647
v 0.02229923 -0.00013056 0.04624348 0.11764706 0.63921569 0.14117647
v 0.02770123 -0.00013056 0.04609641 0.11764706 0.63921569 0.14117647
v 0.00202097 -0.00013056 0.03684123 0.11764706 0.63921569 0.14117647
f 1 2 10
f 1 10 18
f 1 18 11
f 1 11 3
f 1 3 12
f 1 12 13
f 1 13 4
f 1 4 5
f 1 5 6
f 1 6 7
f 1 7 8
f 1 8 9
f 1 9 2
f 2 9 10
f 3 11 19
f 3 19 12
f 4 13 14
f 4 14 5
f 5 14 15
f 5 15 19
f 5 19 11
f 5 11 18
f 5 18 17
f 5 17 16
f 5 16 7
f 5 7 6
f 7 16 8
f 8 16 17
f 8 17 9
f 9 17 18
f 9 18 10
f 12 19 15
f 12 15 14
f 12 14 13

