# https://github.com/mikedh/trimesh
v 0.02492537 -0.00013246 0.04611539 0.56470588 0.01568627 0.61568627
v 0.02492537 -0.00013246 0.03684018 0.56470588 0.01568627 0.61568627
v 0.02437608 -0.00013246 0.04614418 0.56470588 0.01568627 0.61568627
v 0.02492537 -0.02236871 0.04664214 0.56470588 0.01568627 0.61568627
v 0.02492537 -0.02236871 0.03684018 0.56470588 0.01568627 0.61568627
v 0.00202097 -0.00013246 0.03684018 0.56470588 0.01568627 0.61568627
v 0.02333803 -0.00013246 0.04619791 0.56470588 0.01568627 0.61568627
v 0.02229997 -0.00013246 0.04624300 0.56470588 0.01568627 0.61568627
v 0.02126416 -0.00013246 0.04625931 0.56470588 0.01568627 0.61568627
v 0.01542596 -0.00013246 0.04627179 0.56470588 0.01568627 0.61568627
v 0.01504034 -0.00051990 0.04627658 0.56470588 0.01568627 0.61568627
v 0.01296647 -0.02236871 0.04588032 0.56470588 0.01568627 0.61568627
v 0.00202097 -0.02236871 0.03684018 0.56470588 0.01568627 0.61568627
v 0.00202097 -0.00013246 0.04513193 0.56470588 0.01568627 0.61568627
v 0.01504034 -0.00013246 0.04626795 0.56470588 0.01568627 0.61568627
v 0.01400228 -0.00013246 0.04619695 0.56470588 0.01568627 0.61568627
v 0.01400228 -0.00051990 0.04620462 0.56470588 0.01568627 0.61568627
v 0.00202097 -0.02236871 0.04516263 0.56470588 0.01568627 0.61568627
v 0.00202097 -0.00155596 0.04516839 0.56470588 0.01568627 0.61568627
v 0.00202097 -0.00259421 0.04519334 0.56470588 0.01568627 0.61568627
v 0.00202097 -0.00363245 0.04520197 0.56470588 0.01568627 0.61568627
f 1 2 6
f 1 6 14
f 1 14 16
f 1 16 15
f 1 15 10
f 1 10 9
f 1 9 8
f 1 8 7
f 1 7 3
f 1 3 4
f 1 4 5
f 1 5 2
f 2 5 13
f 2 13 6
f 3 7 4
f 4 7 8
f 4 8 9
f 4 9 10
f 4 10 11
f 4 11 12
f 4 12 18
f 4 18 13
f 4 13 5
f 6 13 18
f 6 18 21
f 6 21 20
f 6 20 19
f 6 19 14
f 10 15 11
f 11 15 16
f 11 16 17
f 11 17 18
f 11 18 12
f 14 19 16
f 16 19 20
f 16 20 17
f 17 20 21
f 17 21 18

