# https://github.com/mikedh/trimesh
v -0.03940544 -0.00155466 0.03683577 0.54117647 0.42352941 0.64313725
v -0.03782531 -0.00155466 0.00674275 0.54117647 0.42352941 0.64313725
v -0.03935200 -0.00256335 0.03683136 0.54117647 0.42352941 0.64313725
v -0.03935200 -0.00256335 0.03683577 0.54117647 0.42352941 0.64313725
v -0.03935964 0.00157152 0.03683577 0.54117647 0.42352941 0.64313725
v -0.03935964 0.00154842 0.03682253 0.54117647 0.42352941 0.64313725
v -0.03893216 0.00258791 0.02540916 0.54117647 0.42352941 0.64313725
v -0.03785585 -0.00051517 0.00674275 0.54117647 0.42352941 0.64313725
v -0.03774898 -0.00155466 0.00570598 0.54117647 0.42352941 0.64313725
v -0.03774898 -0.00258645 0.00674275 0.54117647 0.42352941 0.64313725
v -0.03880239 -0.00258645 0.02645035 0.54117647 0.42352941 0.64313725
v -0.03921460 -0.00362594 0.03682253 0.54117647 0.42352941 0.64313725
v -0.03897033 -0.00466544 0.03267101 0.54117647 0.42352941 0.64313725
v -0.03921460 -0.00362594 0.03683577 0.54117647 0.42352941 0.64313725
v -0.03932147 0.00258791 0.03683577 0.54117647 0.42352941 0.64313725
v -0.03932147 0.00258791 0.03682253 0.54117647 0.42352941 0.64313725
v -0.03910773 0.00466689 0.03370779 0.54117647 0.42352941 0.64313725
v -0.03888636 0.00466689 0.02852390 0.54117647 0.42352941 0.64313725
v -0.03774898 0.00569869 0.00570598 0.54117647 0.42352941 0.64313725
v -0.03781768 0.00466689 0.00570598 0.54117647 0.42352941 0.64313725
v -0.03751998 0.00362740 0.00155887 0.54117647 0.42352941 0.64313725
v -0.03744364 0.00362740 0.00052209 0.54117647 0.42352941 0.64313725
v -0.03704670 0.00051663 -0.00362943 0.54117647 0.42352941 0.64313725
v -0.03699327 -0.00051517 -0.00362943 0.54117647 0.42352941 0.64313725
v -0.03701617 -0.00155466 -0.00259265 0.54117647 0.42352941 0.64313725
v -0.03722227 -0.00258645 0.00052209 0.54117647 0.42352941 0.64313725
v -0.03767264 -0.00258645 0.00570598 0.54117647 0.42352941 0.64313725
v -0.03693220 -0.00466544 0.00052209 0.54117647 0.42352941 0.64313725
v -0.03756578 -0.00362594 0.00674275 0.54117647 0.42352941 0.64313725
v -0.03879476 -0.00570493 0.03267101 0.54117647 0.42352941 0.64313725
v -0.03864972 -0.00777621 0.03682253 0.54117647 0.42352941 0.64313725
v -0.03860393 -0.00805341 0.03683577 0.54117647 0.42352941 0.64313725
v -0.03864972 -0.00777621 0.03683577 0.54117647 0.42352941 0.64313725
v -0.03911536 0.00466689 0.03578575 0.54117647 0.42352941 0.64313725
v -0.03912300 0.00466689 0.03474457 0.54117647 0.42352941 0.64313725
v -0.03907720 0.00468229 0.03683577 0.54117647 0.42352941 0.64313725
v -0.03891689 0.00569869 0.03370779 0.54117647 0.42352941 0.64313725
v -0.03836729 0.00824737 0.03059746 0.54117647 0.42352941 0.64313725
v -0.03875660 0.00569869 0.02852390 0.54117647 0.42352941 0.64313725
v -0.03702380 0.00777767 -0.00051469 0.54117647 0.42352941 0.64313725
v -0.03716121 0.00673818 -0.00051469 0.54117647 0.42352941 0.64313725
v -0.03736731 0.00539839 0.00052209 0.54117647 0.42352941 0.64313725
v -0.03742838 0.00466689 0.00052209 0.54117647 0.42352941 0.64313725
v -0.03669557 0.01088845 0.00155887 0.54117647 0.42352941 0.64313725
v -0.03664976 0.01088845 0.00052209 0.54117647 0.42352941 0.64313725
v -0.03674137 0.00984896 -0.00051469 0.54117647 0.42352941 0.64313725
v -0.03659633 0.00154842 -0.00822655 0.54117647 0.42352941 0.64313725
v -0.03659633 0.00110182 -0.00822655 0.54117647 0.42352941 0.64313725
v -0.03658870 0.00051663 -0.00822655 0.54117647 0.42352941 0.64313725
v -0.03650473 -0.00051517 -0.00822655 0.54117647 0.42352941 0.64313725
v -0.03691694 -0.00258645 -0.00259265 0.54117647 0.42352941 0.64313725
v -0.03702380 -0.00258645 -0.00155588 0.54117647 0.42352941 0.64313725
v -0.03710777 -0.00362594 0.00052209 0.54117647 0.42352941 0.64313725
v -0.03665740 -0.00570493 -0.00051469 0.54117647 0.42352941 0.64313725
v -0.03674900 -0.00570493 0.00052209 0.54117647 0.42352941 0.64313725
v -0.03687877 -0.00777621 0.00778394 0.54117647 0.42352941 0.64313725
v -0.03847416 -0.00880031 0.03683577 0.54117647 0.42352941 0.64313725
v -0.03895506 0.00569869 0.03683577 0.54117647 0.42352941 0.64313725
v -0.03895506 0.00569869 0.03682253 0.54117647 0.42352941 0.64313725
v -0.03894743 0.00569869 0.03578575 0.54117647 0.42352941 0.64313725
v -0.03893216 0.00569869 0.03474457 0.54117647 0.42352941 0.64313725
v -0.03871842 0.00673818 0.03370779 0.54117647 0.42352941 0.64313725
v -0.03816882 0.00984896 0.03683577 0.54117647 0.42352941 0.64313725
v -0.03793982 0.01088845 0.03682253 0.54117647 0.42352941 0.64313725
v -0.03654290 0.01192794 0.00259564 0.54117647 0.42352941 0.64313725
v -0.03690167 0.00777767 -0.00155588 0.54117647 0.42352941 0.64313725
v -0.03702380 0.00673818 -0.00155588 0.54117647 0.42352941 0.64313725
v -0.03649710 0.00317311 -0.00822655 0.54117647 0.42352941 0.64313725
v -0.03658107 0.00214131 -0.00822655 0.54117647 0.42352941 0.64313725
v -0.03726044 0.00561399 -0.00042204 0.54117647 0.42352941 0.64313725
v -0.03733678 0.00520589 -0.00001174 0.54117647 0.42352941 0.64313725
v -0.03646657 0.01199724 0.00153681 0.54117647 0.42352941 0.64313725
v -0.03644367 0.01175854 0.00052209 0.54117647 0.42352941 0.64313725
v -0.03655817 0.01088845 -0.00051469 0.54117647 0.42352941 0.64313725
v -0.03659633 0.00984896 -0.00155588 0.54117647 0.42352941 0.64313725
v -0.03643603 -0.00106186 -0.00822655 0.54117647 0.42352941 0.64313725
v -0.03678717 -0.00362594 -0.00259265 0.54117647 0.42352941 0.64313725
v -0.03632916 -0.00534303 -0.00426915 0.54117647 0.42352941 0.64313725
v -0.03643603 -0.00683682 -0.00060292 0.54117647 0.42352941 0.64313725
v -0.03655053 -0.00673672 0.00052209 0.54117647 0.42352941 0.64313725
v -0.03629863 -0.00826901 0.00117504 0.54117647 0.42352941 0.64313725
v -0.03572612 -0.00984750 -0.00051469 0.54117647 0.42352941 0.64313725
v -0.03574902 -0.01088699 0.00466920 0.54117647 0.42352941 0.64313725
v -0.03736731 -0.01149529 0.03304160 0.54117647 0.42352941 0.64313725
v -0.03722227 -0.01207278 0.03370779 0.54117647 0.42352941 0.64313725
v -0.03845126 -0.00886961 0.03683577 0.54117647 0.42352941 0.64313725
v -0.03793982 0.01088845 0.03683577 0.54117647 0.42352941 0.64313725
v -0.03765738 0.01192794 0.03683577 0.54117647 0.42352941 0.64313725
v -0.03636733 0.01259014 0.00259564 0.54117647 0.42352941 0.64313725
v -0.03617649 0.00565249 -0.00822655 0.54117647 0.42352941 0.64313725
v -0.03633680 0.01252084 0.00186328 0.54117647 0.42352941 0.64313725
v -0.03637496 0.01158144 -0.00051469 0.54117647 0.42352941 0.64313725
v -0.03632916 0.01146594 -0.00119852 0.54117647 0.42352941 0.64313725
v -0.03640550 0.01090385 -0.00154705 0.54117647 0.42352941 0.64313725
v -0.03600092 0.00673818 -0.00822655 0.54117647 0.42352941 0.64313725
v -0.03635970 -0.00165476 -0.00822655 0.54117647 0.42352941 0.64313725
v -0.03624520 -0.00250945 -0.00822655 0.54117647 0.42352941 0.64313725
v -0.03561926 -0.00673672 -0.00822655 0.54117647 0.42352941 0.64313725
v -0.03553529 -0.00712172 -0.00822655 0.54117647 0.42352941 0.64313725
v -0.03622993 -0.00777621 -0.00060292 0.54117647 0.42352941 0.64313725
v -0.03633680 -0.00742972 -0.00031616 0.54117647 0.42352941 0.64313725
v -0.03626810 -0.00814581 0.00052209 0.54117647 0.42352941 0.64313725
v -0.03637496 -0.00762222 0.00052209 0.54117647 0.42352941 0.64313725
v -0.03600856 -0.00881571 -0.00051469 0.54117647 0.42352941 0.64313725
v -0.03563452 -0.00984750 -0.00155588 0.54117647 0.42352941 0.64313725
v -0.03524522 -0.01135669 -0.00076616 0.54117647 0.42352941 0.64313725
v -0.03539025 -0.01096399 -0.00046175 0.54117647 0.42352941 0.64313725
v -0.03691694 -0.01296598 0.03370779 0.54117647 0.42352941 0.64313725
v -0.03674900 -0.01398237 0.03683577 0.54117647 0.42352941 0.64313725
v -0.03728334 0.01329853 0.03683577 0.54117647 0.42352941 0.64313725
v -0.03633680 0.01670961 0.03682253 0.54117647 0.42352941 0.64313725
v -0.03618413 0.01723320 0.03683577 0.54117647 0.42352941 0.64313725
v -0.03589406 0.01816489 0.03683577 0.54117647 0.42352941 0.64313725
v -0.03553529 0.01918899 0.03682253 0.54117647 0.42352941 0.64313725
v -0.03526812 0.01556232 0.00310300 0.54117647 0.42352941 0.64313725
v -0.03507728 0.01597041 0.00269270 0.54117647 0.42352941 0.64313725
v -0.03429867 0.01674041 -0.00155588 0.54117647 0.42352941 0.64313725
v -0.03426050 0.01664801 -0.00217794 0.54117647 0.42352941 0.64313725
v -0.03590932 0.01192794 -0.00259265 0.54117647 0.42352941 0.64313725
v -0.03627573 0.01125805 -0.00188676 0.54117647 0.42352941 0.64313725
v -0.03577955 0.00777767 -0.00822655 0.54117647 0.42352941 0.64313725
v -0.03539789 -0.00764532 -0.00822655 0.54117647 0.42352941 0.64313725
v -0.03589406 -0.00881571 -0.00155588 0.54117647 0.42352941 0.64313725
v -0.03537498 -0.01068679 -0.00155588 0.54117647 0.42352941 0.64313725
v -0.03333686 -0.01375137 -0.00822655 0.54117647 0.42352941 0.64313725
v -0.03464218 -0.01296598 -0.00051469 0.54117647 0.42352941 0.64313725
v -0.03422234 -0.01450596 0.00110004 0.54117647 0.42352941 0.64313725
v -0.03442081 -0.01409787 0.00149269 0.54117647 0.42352941 0.64313725
v -0.03425287 -0.01455986 0.00179269 0.54117647 0.42352941 0.64313725
v -0.03638260 -0.01468306 0.03578575 0.54117647 0.42352941 0.64313725
v -0.03642076 -0.01473696 0.03683577 0.54117647 0.42352941 0.64313725
v -0.03633680 0.01670961 0.03683577 0.54117647 0.42352941 0.64313725
v -0.03553529 0.01918899 0.03683577 0.54117647 0.42352941 0.64313725
v -0.03530628 0.01976648 0.03682253 0.54117647 0.42352941 0.64313725
v -0.03464218 0.01711000 0.00363242 0.54117647 0.42352941 0.64313725
v -0.03449714 0.01720240 0.00254270 0.54117647 0.42352941 0.64313725
v -0.03414600 0.01747190 0.00052209 0.54117647 0.42352941 0.64313725
v -0.03408493 0.01736410 -0.00051469 0.54117647 0.42352941 0.64313725
v -0.03366510 0.01814950 -0.00051469 0.54117647 0.42352941 0.64313725
v -0.03328342 0.01883479 -0.00051469 0.54117647 0.42352941 0.64313725
v -0.03322999 0.01872699 -0.00119411 0.54117647 0.42352941 0.64313725
v -0.03338266 0.01793390 -0.00259265 0.54117647 0.42352941 0.64313725
v -0.03018426 0.02089068 -0.00822655 0.54117647 0.42352941 0.64313725
v -0.03057356 0.02022078 -0.00822655 0.54117647 0.42352941 0.64313725
v -0.03178727 0.01810330 -0.00822655 0.54117647 0.42352941 0.64313725
v -0.03210788 0.01754120 -0.00822655 0.54117647 0.42352941 0.64313725
v -0.03420707 0.01343713 -0.00822655 0.54117647 0.42352941 0.64313725
v -0.03438264 0.01296743 -0.00822655 0.54117647 0.42352941 0.64313725
v -0.03452767 0.01255164 -0.00822655 0.54117647 0.42352941 0.64313725
v -0.03474141 0.01192794 -0.00822655 0.54117647 0.42352941 0.64313725
v -0.03488644 0.01147364 -0.00822655 0.54117647 0.42352941 0.64313725
v -0.03506201 0.01088845 -0.00822655 0.54117647 0.42352941 0.64313725
v -0.03513835 0.01058815 -0.00822655 0.54117647 0.42352941 0.64313725
v -0.03522995 0.01021855 -0.00822655 0.54117647 0.42352941 0.64313725
v -0.03543605 0.00932536 -0.00822655 0.54117647 0.42352941 0.64313725
v -0.03564979 0.00836287 -0.00822655 0.54117647 0.42352941 0.64313725
v -0.03485591 -0.00926230 -0.00822655 0.54117647 0.42352941 0.64313725
v -0.03361166 -0.01296598 -0.00822655 0.54117647 0.42352941 0.64313725
v -0.03199337 -0.01628465 -0.00822655 0.54117647 0.42352941 0.64313725
v -0.03213078 -0.01758594 -0.00190000 0.54117647 0.42352941 0.64313725
v -0.03216894 -0.01766294 -0.00120734 0.54117647 0.42352941 0.64313725
v -0.03315366 -0.01754744 0.00778394 0.54117647 0.42352941 0.64313725
v -0.03427577 -0.01877943 0.03474457 0.54117647 0.42352941 0.64313725
v -0.03641313 -0.01475236 0.03682253 0.54117647 0.42352941 0.64313725
v -0.03641313 -0.01475236 0.03683577 0.54117647 0.42352941 0.64313725
v -0.03530628 0.01976648 0.03683577 0.54117647 0.42352941 0.64313725
v -0.03323762 0.02082908 0.01296783 0.54117647 0.42352941 0.64313725
v -0.03376433 0.01918899 0.00674275 0.54117647 0.42352941 0.64313725
v -0.03413837 0.01846519 0.00674275 0.54117647 0.42352941 0.64313725
v -0.03332923 0.02303896 0.03683577 0.54117647 0.42352941 0.64313725
v -0.03426050 0.01767980 0.00285153 0.54117647 0.42352941 0.64313725
v -0.03377197 0.01814950 0.00052209 0.54117647 0.42352941 0.64313725
v -0.03333686 0.01892719 0.00052209 0.54117647 0.42352941 0.64313725
v -0.03303152 0.01944309 0.00052209 0.54117647 0.42352941 0.64313725
v -0.03297045 0.01935069 -0.00051469 0.54117647 0.42352941 0.64313725
v -0.03314602 0.01859609 -0.00188676 0.54117647 0.42352941 0.64313725
v -0.03202391 0.02052878 -0.00155588 0.54117647 0.42352941 0.64313725
v -0.03112316 0.02179157 -0.00208971 0.54117647 0.42352941 0.64313725
v -0.03000105 0.02112167 -0.00822655 0.54117647 0.42352941 0.64313725
v -0.03029875 -0.01901043 -0.00822655 0.54117647 0.42352941 0.64313725
v -0.03187888 -0.01806334 -0.00155147 0.54117647 0.42352941 0.64313725
v -0.03226818 -0.01882563 0.00674275 0.54117647 0.42352941 0.64313725
v -0.03278725 -0.01814804 0.00778394 0.54117647 0.42352941 0.64313725
v -0.03400860 -0.01929533 0.03474457 0.54117647 0.42352941 0.64313725
v -0.03429867 -0.01881793 0.03578575 0.54117647 0.42352941 0.64313725
v -0.03614596 -0.01526826 0.03682253 0.54117647 0.42352941 0.64313725
v -0.03614596 -0.01526826 0.03683577 0.54117647 0.42352941 0.64313725
v -0.03291702 0.02134497 0.01296783 0.54117647 0.42352941 0.64313725
v -0.03302389 0.02046718 0.00674275 0.54117647 0.42352941 0.64313725
v -0.03332923 0.01994358 0.00674275 0.54117647 0.42352941 0.64313725
v -0.03294756 0.02355486 0.03683577 0.54117647 0.42352941 0.64313725
v -0.03132163 0.02307746 0.00778394 0.54117647 0.42352941 0.64313725
v -0.03239795 0.02209957 0.01296783 0.54117647 0.42352941 0.64313725
v -0.03245901 0.02015918 -0.00051469 0.54117647 0.42352941 0.64313725
v -0.03218421 0.02183007 0.00710452 0.54117647 0.42352941 0.64313725
v -0.03115370 0.02183777 -0.00155588 0.54117647 0.42352941 0.64313725
v -0.03030639 0.02311596 -0.00051469 0.54117647 0.42352941 0.64313725
v -0.02990181 0.02363185 -0.00051469 0.54117647 0.42352941 0.64313725
v -0.03022242 0.02299276 -0.00155588 0.54117647 0.42352941 0.64313725
v -0.02975678 0.02141427 -0.00822655 0.54117647 0.42352941 0.64313725
v -0.03210788 0.02067508 -0.00051469 0.54117647 0.42352941 0.64313725
v -0.03010028 -0.01930303 -0.00822655 0.54117647 0.42352941 0.64313725
v -0.03130637 -0.01891803 -0.00155588 0.54117647 0.42352941 0.64313725
v -0.03113843 -0.01974193 0.00195593 0.54117647 0.42352941 0.64313725
v -0.03206971 -0.02058122 0.01918849 0.54117647 0.42352941 0.64313725
v -0.03014608 -0.02186711 0.00803542 0.54117647 0.42352941 0.64313725
v -0.03399333 -0.01933383 0.03578575 0.54117647 0.42352941 0.64313725
v -0.03222238 -0.02188251 0.03474457 0.54117647 0.42352941 0.64313725
v -0.03223764 -0.02190561 0.03578575 0.54117647 0.42352941 0.64313725
v -0.03224528 -0.02192871 0.03683577 0.54117647 0.42352941 0.64313725
v -0.03429867 -0.01880253 0.03683577 0.54117647 0.42352941 0.64313725
v -0.03023769 0.02717383 0.03683577 0.54117647 0.42352941 0.64313725
v -0.03023769 0.02717383 0.03682253 0.54117647 0.42352941 0.64313725
v -0.02993998 0.02471755 0.00674275 0.54117647 0.42352941 0.64313725
v -0.02990181 0.02463285 0.00570598 0.54117647 0.42352941 0.64313725
v -0.03184070 0.02236906 0.00778394 0.54117647 0.42352941 0.64313725
v -0.02938274 0.02424015 -0.00051469 0.54117647 0.42352941 0.64313725
v -0.02958121 0.02437105 0.00155887 0.54117647 0.42352941 0.64313725
v -0.02910794 0.02496395 0.00155887 0.54117647 0.42352941 0.64313725
v -0.02906214 0.02491005 0.00092356 0.54117647 0.42352941 0.64313725
v -0.02977204 0.02350866 -0.00155588 0.54117647 0.42352941 0.64313725
v -0.02925297 0.02407845 -0.00155588 0.54117647 0.42352941 0.64313725
v -0.02923771 0.02196867 -0.00822655 0.54117647 0.42352941 0.64313725
v -0.02993235 -0.01952633 -0.00822655 0.54117647 0.42352941 0.64313725
v -0.02904687 -0.02179011 -0.00210294 0.54117647 0.42352941 0.64313725
v -0.02882550 -0.02249081 0.00052209 0.54117647 0.42352941 0.64313725
v -0.02907740 -0.02286040 0.00502214 0.54117647 0.42352941 0.64313725
v -0.03001632 -0.02376900 0.02437238 0.54117647 0.42352941 0.64313725
v -0.02988655 -0.02522429 0.03683577 0.54117647 0.42352941 0.64313725
v -0.02906977 -0.02389219 0.01441049 0.54117647 0.42352941 0.64313725
v -0.03399333 -0.01931843 0.03683577 0.54117647 0.42352941 0.64313725
v -0.02981022 0.02770513 0.03683577 0.54117647 0.42352941 0.64313725
v -0.02938274 0.02524114 0.00570598 0.54117647 0.42352941 0.64313725
v -0.02931404 0.02519494 0.00466920 0.54117647 0.42352941 0.64313725
v -0.02929877 0.02828262 0.03682253 0.54117647 0.42352941 0.64313725
v -0.02898581 0.02484075 0.00023091 0.54117647 0.42352941 0.64313725
v -0.02889420 0.02475605 -0.00051469 0.54117647 0.42352941 0.64313725
v -0.02880260 0.02571084 0.00466920 0.54117647 0.42352941 0.64313725
v -0.02864993 0.02555684 0.00259564 0.54117647 0.42352941 0.64313725
v -0.02700111 0.02700443 0.00194269 0.54117647 0.42352941 0.64313725
v -0.02874154 0.02459435 -0.00155588 0.54117647 0.42352941 0.64313725
v -0.02739042 0.02382435 -0.00822655 0.54117647 0.42352941 0.64313725
v -0.02801636 -0.02179011 -0.00822655 0.54117647 0.42352941 0.64313725
v -0.02830643 -0.02314530 0.00052209 0.54117647 0.42352941 0.64313725
v -0.02790185 -0.02578638 0.01918849 0.54117647 0.42352941 0.64313725
v -0.02918427 -0.02607898 0.03683577 0.54117647 0.42352941 0.64313725
v -0.02929877 0.02828262 0.03683577 0.54117647 0.42352941 0.64313725
v -0.02885604 0.02576474 0.00570598 0.54117647 0.42352941 0.64313725
v -0.02882550 0.02879852 0.03683577 0.54117647 0.42352941 0.64313725
v -0.02881787 0.02880622 0.03683577 0.54117647 0.42352941 0.64313725
v -0.02593243 0.02800542 0.00205740 0.54117647 0.42352941 0.64313725
v -0.02701638 0.02597264 -0.00223971 0.54117647 0.42352941 0.64313725
v -0.02822246 0.02507945 -0.00155588 0.54117647 0.42352941 0.64313725
v -0.02398591 0.02708913 -0.00822655 0.54117647 0.42352941 0.64313725
v -0.02394774 0.02913732 -0.00051469 0.54117647 0.42352941 0.64313725
v -0.02387141 0.02906031 -0.00110146 0.54117647 0.42352941 0.64313725
v -0.02829879 0.02932211 0.03683577 0.54117647 0.42352941 0.64313725
v -0.02693241 0.02427095 -0.00822655 0.54117647 0.42352941 0.64313725
v -0.02421491 0.02687353 -0.00822655 0.54117647 0.42352941 0.64313725
v -0.02793239 -0.02188251 -0.00822655 0.54117647 0.42352941 0.64313725
v -0.02700111 -0.02285270 -0.00822655 0.54117647 0.42352941 0.64313725
v -0.02779499 -0.02366890 0.00052209 0.54117647 0.42352941 0.64313725
v -0.02787132 -0.02372280 0.00155887 0.54117647 0.42352941 0.64313725
v -0.02738278 -0.02630228 0.01918849 0.54117647 0.42352941 0.64313725
v -0.02822246 -0.02716467 0.03683577 0.54117647 0.42352941 0.64313725
v -0.02872627 -0.02660258 0.03682253 0.54117647 0.42352941 0.64313725
v -0.02917664 -0.02608668 0.03682253 0.54117647 0.42352941 0.64313725
v -0.02872627 -0.02660258 0.03683577 0.54117647 0.42352941 0.64313725
v -0.02770339 0.02983031 0.03683577 0.54117647 0.42352941 0.64313725
v -0.02481032 0.02897561 0.00259564 0.54117647 0.42352941 0.64313725
v -0.02420728 0.02934521 0.00155887 0.54117647 0.42352941 0.64313725
v -0.02348974 0.02976871 0.00052209 0.54117647 0.42352941 0.64313725
v -0.02279509 0.03005361 -0.00093822 0.54117647 0.42352941 0.64313725
v -0.02369584 0.02734323 -0.00822655 0.54117647 0.42352941 0.64313725
v -0.02596297 -0.02492399 -0.00223971 0.54117647 0.42352941 0.64313725
v -0.02371110 -0.02580178 -0.00822655 0.54117647 0.42352941 0.64313725
v -0.02489429 -0.02593268 -0.00208088 0.54117647 0.42352941 0.64313725
v -0.02621487 -0.02516269 0.00052209 0.54117647 0.42352941 0.64313725
v -0.02629884 -0.02524739 0.00155887 0.54117647 0.42352941 0.64313725
v -0.02581793 -0.02583258 0.00259564 0.54117647 0.42352941 0.64313725
v -0.02582556 -0.02790387 0.02022527 0.54117647 0.42352941 0.64313725
v -0.02500879 -0.03019845 0.03682253 0.54117647 0.42352941 0.64313725
v -0.02500115 -0.03020615 0.03683577 0.54117647 0.42352941 0.64313725
v -0.02356607 0.02986111 0.00155887 0.54117647 0.42352941 0.64313725
v -0.02716905 0.03023071 0.03683577 0.54117647 0.42352941 0.64313725
v -0.02297066 0.03019221 0.00052209 0.54117647 0.42352941 0.64313725
v -0.02287906 0.03012291 -0.00024557 0.54117647 0.42352941 0.64313725
v -0.02238289 0.03043860 -0.00056322 0.54117647 0.42352941 0.64313725
v -0.02161955 0.03101610 -0.00051469 0.54117647 0.42352941 0.64313725
v -0.02199358 0.02870612 -0.00822655 0.54117647 0.42352941 0.64313725
v -0.02269586 0.02819022 -0.00822655 0.54117647 0.42352941 0.64313725
v -0.02304700 0.02790532 -0.00822655 0.54117647 0.42352941 0.64313725
v -0.02335233 0.02764353 -0.00822655 0.54117647 0.42352941 0.64313725
v -0.02565763 -0.02568628 0.00052209 0.54117647 0.42352941 0.64313725
v -0.02319203 -0.02624838 -0.00822655 0.54117647 0.42352941 0.64313725
v -0.02324547 -0.02629458 -0.00777654 0.54117647 0.42352941 0.64313725
v -0.02289433 -0.02806557 -0.00020145 0.54117647 0.42352941 0.64313725
v -0.02348210 -0.02766517 0.00052209 0.54117647 0.42352941 0.64313725
v -0.02574160 -0.02576328 0.00155887 0.54117647 0.42352941 0.64313725
v -0.02293249 -0.02914356 0.00882072 0.54117647 0.42352941 0.64313725
v -0.02530649 -0.02834276 0.02022527 0.54117647 0.42352941 0.64313725
v -0.02429124 -0.03084524 0.03683577 0.54117647 0.42352941 0.64313725
v -0.02179511 0.03112390 0.00095886 0.54117647 0.42352941 0.64313725
v -0.02635990 0.03082360 0.03683577 0.54117647 0.42352941 0.64313725
v -0.02588663 0.03108540 0.03578575 0.54117647 0.42352941 0.64313725
v -0.02219969 0.03076970 0.00057503 0.54117647 0.42352941 0.64313725
v -0.02171878 0.03107770 0.00026620 0.54117647 0.42352941 0.64313725
v -0.02110047 0.03132410 -0.00051469 0.54117647 0.42352941 0.64313725
v -0.02088674 0.03120090 -0.00155588 0.54117647 0.42352941 0.64313725
v -0.02162718 0.02896022 -0.00822655 0.54117647 0.42352941 0.64313725
v -0.02281799 -0.02654097 -0.00822655 0.54117647 0.42352941 0.64313725
v -0.02258136 -0.02681817 -0.00777654 0.54117647 0.42352941 0.64313725
v -0.02161955 -0.02893566 -0.00051469 0.54117647 0.42352941 0.64313725
v -0.02296303 -0.02812716 0.00052209 0.54117647 0.42352941 0.64313725
v -0.02179511 -0.03009065 0.00929720 0.54117647 0.42352941 0.64313725
v -0.02349737 -0.03143814 0.03683577 0.54117647 0.42352941 0.64313725
v -0.02536756 0.03143190 0.03578575 0.54117647 0.42352941 0.64313725
v -0.01874174 0.03427318 0.01607375 0.54117647 0.42352941 0.64313725
v -0.01870358 0.03425008 0.01545610 0.54117647 0.42352941 0.64313725
v -0.01771123 0.03324139 -0.00018380 0.54117647 0.42352941 0.64313725
v -0.02594007 0.03111620 0.03683577 0.54117647 0.42352941 0.64313725
v -0.02022263 0.03180149 -0.00051469 0.54117647 0.42352941 0.64313725
v -0.02022263 0.03156280 -0.00155588 0.54117647 0.42352941 0.64313725
v -0.01941348 0.03200169 -0.00155588 0.54117647 0.42352941 0.64313725
v -0.01735246 0.03127020 -0.00822655 0.54117647 0.42352941 0.64313725
v -0.02250502 -0.02676427 -0.00822655 0.54117647 0.42352941 0.64313725
v -0.02228365 -0.02691057 -0.00822655 0.54117647 0.42352941 0.64313725
v -0.02146688 -0.02884326 -0.00155588 0.54117647 0.42352941 0.64313725
v -0.02110047 -0.02924365 -0.00051469 0.54117647 0.42352941 0.64313725
v -0.02176458 -0.03213884 0.03228718 0.54117647 0.42352941 0.64313725
v -0.01874938 -0.03116094 0.00363242 0.54117647 0.42352941 0.64313725
v -0.01884098 -0.03122254 0.00466920 0.54117647 0.42352941 0.64313725
v -0.01936005 -0.03303973 0.02540916 0.54117647 0.42352941 0.64313725
v -0.02180275 -0.03216963 0.03297543 0.54117647 0.42352941 0.64313725
v -0.02067300 -0.03314753 0.03682253 0.54117647 0.42352941 0.64313725
v -0.02067300 -0.03314753 0.03683577 0.54117647 0.42352941 0.64313725
v -0.02549733 0.03140110 0.03683577 0.54117647 0.42352941 0.64313725
v -0.02455841 0.03194779 0.03578575 0.54117647 0.42352941 0.64313725
v -0.01873411 0.03529727 0.03617840 0.54117647 0.42352941 0.64313725
v -0.01663492 0.03632906 0.03683577 0.54117647 0.42352941 0.64313725
v -0.01814633 0.03451957 0.01607375 0.54117647 0.42352941 0.64313725
v -0.02403934 0.03226349 0.03578575 0.54117647 0.42352941 0.64313725
v -0.02206228 0.03335688 0.03474457 0.54117647 0.42352941 0.64313725
v -0.01547463 0.03419618 -0.00051469 0.54117647 0.42352941 0.64313725
v -0.01607767 0.03394978 -0.00051469 0.54117647 0.42352941 0.64313725
v -0.01716162 0.03343388 -0.00052351 0.54117647 0.42352941 0.64313725
v -0.01754329 0.03314899 -0.00087646 0.54117647 0.42352941 0.64313725
v -0.01889441 0.03227119 -0.00155588 0.54117647 0.42352941 0.64313725
v -0.01713872 0.03137800 -0.00822655 0.54117647 0.42352941 0.64313725
v -0.02150504 -0.02739567 -0.00822655 0.54117647 0.42352941 0.64313725
v -0.02077987 -0.02802707 -0.00736183 0.54117647 0.42352941 0.64313725
v -0.02029896 -0.02932835 -0.00260589 0.54117647 0.42352941 0.64313725
v -0.01933715 -0.02989045 -0.00259265 0.54117647 0.42352941 0.64313725
v -0.01868067 -0.03112244 0.00307653 0.54117647 0.42352941 0.64313725
v -0.01952799 -0.03310903 0.02748712 0.54117647 0.42352941 0.64313725
v -0.01503953 -0.03246993 0.00052209 0.54117647 0.42352941 0.64313725
v -0.01694025 -0.03233133 0.00674275 0.54117647 0.42352941 0.64313725
v -0.01758146 -0.03212343 0.00749276 0.54117647 0.42352941 0.64313725
v -0.01765016 -0.03216193 0.00818101 0.54117647 0.42352941 0.64313725
v -0.01834480 -0.03200024 0.00985750 0.54117647 0.42352941 0.64313725
v -0.01659675 -0.03423322 0.02487533 0.54117647 0.42352941 0.64313725
v -0.01452046 -0.03526501 0.02592534 0.54117647 0.42352941 0.64313725
v -0.01296324 -0.03692050 0.03682253 0.54117647 0.42352941 0.64313725
v -0.01703949 -0.03507251 0.03683577 0.54117647 0.42352941 0.64313725
v -0.02060430 -0.03310903 0.03578575 0.54117647 0.42352941 0.64313725
v -0.01811580 -0.03451042 0.03682253 0.54117647 0.42352941 0.64313725
v -0.01813107 -0.03450272 0.03683577 0.54117647 0.42352941 0.64313725
v -0.02459658 0.03196320 0.03683577 0.54117647 0.42352941 0.64313725
v -0.01923028 0.03501237 0.03683577 0.54117647 0.42352941 0.64313725
v -0.01871884 0.03528957 0.03683577 0.54117647 0.42352941 0.64313725
v -0.02333707 0.03266389 0.03578575 0.54117647 0.42352941 0.64313725
v -0.02406224 0.03227119 0.03682253 0.54117647 0.42352941 0.64313725
v -0.02406224 0.03227119 0.03683577 0.54117647 0.42352941 0.64313725
v -0.01626088 0.03648306 0.03683577 0.54117647 0.42352941 0.64313725
v -0.01614638 0.03652926 0.03683577 0.54117647 0.42352941 0.64313725
v -0.01503953 0.03562067 0.01503697 0.54117647 0.42352941 0.64313725
v -0.01523800 0.03409608 -0.00155588 0.54117647 0.42352941 0.64313725
v -0.01252813 0.03531267 -0.00022351 0.54117647 0.42352941 0.64313725
v -0.01472656 0.03429628 -0.00155588 0.54117647 0.42352941 0.64313725
v -0.01607767 0.03370338 -0.00155588 0.54117647 0.42352941 0.64313725
v -0.01674942 0.03157050 -0.00822655 0.54117647 0.42352941 0.64313725
v -0.02013866 -0.02821186 -0.00822655 0.54117647 0.42352941 0.64313725
v -0.01615401 -0.03039095 -0.00782507 0.54117647 0.42352941 0.64313725
v -0.01881808 -0.03015225 -0.00259265 0.54117647 0.42352941 0.64313725
v -0.01897838 -0.03024465 -0.00155588 0.54117647 0.42352941 0.64313725
v -0.01915395 -0.02875086 -0.00822655 0.54117647 0.42352941 0.64313725
v -0.01765780 -0.03113014 -0.00004704 0.54117647 0.42352941 0.64313725
v -0.01556623 -0.03215423 -0.00001174 0.54117647 0.42352941 0.64313725
v -0.01391742 -0.03297043 0.00059268 0.54117647 0.42352941 0.64313725
v -0.01351284 -0.03320143 0.00098974 0.54117647 0.42352941 0.64313725
v -0.01607767 -0.03270863 0.00674275 0.54117647 0.42352941 0.64313725
v -0.01512350 -0.03341703 0.00980455 0.54117647 0.42352941 0.64313725
v -0.01294797 -0.03692820 0.03683577 0.54117647 0.42352941 0.64313725
v -0.01371131 0.03743785 0.03683577 0.54117647 0.42352941 0.64313725
v -0.01371131 0.03743785 0.03682253 0.54117647 0.42352941 0.64313725
v -0.01297850 0.03769965 0.03683577 0.54117647 0.42352941 0.64313725
v -0.01400138 0.03597486 0.01503697 0.54117647 0.42352941 0.64313725
v -0.01468839 0.03326448 -0.00544269 0.54117647 0.42352941 0.64313725
v -0.01602424 0.03190929 -0.00822655 0.54117647 0.42352941 0.64313725
v -0.01048237 0.03843115 0.03507545 0.54117647 0.42352941 0.64313725
v -0.00890225 0.03642916 0.00156328 0.54117647 0.42352941 0.64313725
v -0.01198616 0.03543587 -0.00054557 0.54117647 0.42352941 0.64313725
v -0.01167319 0.03535887 -0.00155588 0.54117647 0.42352941 0.64313725
v -0.01148235 0.03528957 -0.00217794 0.54117647 0.42352941 0.64313725
v -0.01604714 -0.03035245 -0.00822655 0.54117647 0.42352941 0.64313725
v -0.01503953 -0.03080675 -0.00822655 0.54117647 0.42352941 0.64313725
v -0.01400138 -0.03251613 -0.00155588 0.54117647 0.42352941 0.64313725
v -0.01241363 -0.03318603 -0.00099999 0.54117647 0.42352941 0.64313725
v -0.01261210 -0.03323993 -0.00030733 0.54117647 0.42352941 0.64313725
v -0.00984880 -0.03375582 -0.00155588 0.54117647 0.42352941 0.64313725
v -0.00951293 -0.03429482 0.00177946 0.54117647 0.42352941 0.64313725
v -0.00858165 -0.03747489 0.02979009 0.54117647 0.42352941 0.64313725
v -0.00869615 -0.03752880 0.03059746 0.54117647 0.42352941 0.64313725
v -0.01146708 -0.03735940 0.03615194 0.54117647 0.42352941 0.64313725
v -0.01208539 -0.03722850 0.03683577 0.54117647 0.42352941 0.64313725
v -0.01296324 -0.03288573 -0.00155588 0.54117647 0.42352941 0.64313725
v -0.01062741 0.03848505 0.03683577 0.54117647 0.42352941 0.64313725
v -0.01062741 0.03848505 0.03682253 0.54117647 0.42352941 0.64313725
v -0.01054344 0.03846195 0.03578575 0.54117647 0.42352941 0.64313725
v -0.01442122 0.03316439 -0.00613535 0.54117647 0.42352941 0.64313725
v -0.01502426 0.03231739 -0.00822655 0.54117647 0.42352941 0.64313725
v -0.01527617 0.03221729 -0.00822655 0.54117647 0.42352941 0.64313725
v -0.01571890 0.03204019 -0.00822655 0.54117647 0.42352941 0.64313725
v -0.01120755 0.03519717 -0.00286619 0.54117647 0.42352941 0.64313725
v -0.00984880 0.03872374 0.03682253 0.54117647 0.42352941 0.64313725
v -0.00866562 0.03641376 0.00052209 0.54117647 0.42352941 0.64313725
v -0.00853585 0.03741475 0.01400461 0.54117647 0.42352941 0.64313725
v -0.00823814 0.03629056 -0.00194853 0.54117647 0.42352941 0.64313725
v -0.01087168 0.03538967 -0.00254854 0.54117647 0.42352941 0.64313725
v -0.01381055 -0.03123794 -0.00822655 0.54117647 0.42352941 0.64313725
v -0.01329911 -0.03139964 -0.00822655 0.54117647 0.42352941 0.64313725
v -0.00987933 -0.03240063 -0.00822655 0.54117647 0.42352941 0.64313725
v -0.00881065 -0.03380972 -0.00259265 0.54117647 0.42352941 0.64313725
v -0.00881065 -0.03399452 -0.00155588 0.54117647 0.42352941 0.64313725
v -0.00881065 -0.03451812 0.00259564 0.54117647 0.42352941 0.64313725
v -0.00777250 -0.03565001 0.01089427 0.54117647 0.42352941 0.64313725
v -0.00732977 -0.03735170 0.02577975 0.54117647 0.42352941 0.64313725
v -0.00771144 -0.03722850 0.02542680 0.54117647 0.42352941 0.64313725
v -0.00777250 -0.03795999 0.03267101 0.54117647 0.42352941 0.64313725
v -0.00881065 -0.03780599 0.03370779 0.54117647 0.42352941 0.64313725
v -0.00722290 -0.03837579 0.03635929 0.54117647 0.42352941 0.64313725
v -0.01157395 -0.03738250 0.03683577 0.54117647 0.42352941 0.64313725
v -0.00984880 0.03872374 0.03683577 0.54117647 0.42352941 0.64313725
v -0.01235256 0.03329529 -0.00822655 0.54117647 0.42352941 0.64313725
v -0.01400138 0.03271009 -0.00822655 0.54117647 0.42352941 0.64313725
v -0.01051291 0.03531267 -0.00322355 0.54117647 0.42352941 0.64313725
v -0.01147472 0.03357248 -0.00822655 0.54117647 0.42352941 0.64313725
v -0.01196326 0.03341848 -0.00822655 0.54117647 0.42352941 0.64313725
v -0.00883355 0.03895474 0.03683577 0.54117647 0.42352941 0.64313725
v -0.00784121 0.03638296 -0.00158235 0.54117647 0.42352941 0.64313725
v -0.00777250 0.03663706 0.00155887 0.54117647 0.42352941 0.64313725
v -0.00779540 0.03913954 0.03683577 0.54117647 0.42352941 0.64313725
v -0.00777250 0.03753025 0.01400461 0.54117647 0.42352941 0.64313725
v -0.00754350 0.03635986 -0.00222647 0.54117647 0.42352941 0.64313725
v -0.00777250 0.03459657 -0.00822655 0.54117647 0.42352941 0.64313725
v -0.00870378 0.03435788 -0.00822655 0.54117647 0.42352941 0.64313725
v -0.00984880 0.03566687 -0.00259265 0.54117647 0.42352941 0.64313725
v -0.00881065 -0.03267013 -0.00822655 0.54117647 0.42352941 0.64313725
v -0.00777250 -0.03399452 -0.00259265 0.54117647 0.42352941 0.64313725
v -0.00674199 -0.03471062 0.00155887 0.54117647 0.42352941 0.64313725
v -0.00777250 -0.03456432 0.00155887 0.54117647 0.42352941 0.64313725
v -0.00570385 -0.03599651 0.01089427 0.54117647 0.42352941 0.64313725
v -0.00466570 -0.03891479 0.03682253 0.54117647 0.42352941 0.64313725
v -0.00568094 -0.03870689 0.03683577 0.54117647 0.42352941 0.64313725
v -0.00771907 -0.03826799 0.03683577 0.54117647 0.42352941 0.64313725
v -0.00674199 0.03653696 -0.00155588 0.54117647 0.42352941 0.64313725
v -0.00665802 0.03930124 0.03683577 0.54117647 0.42352941 0.64313725
v -0.00674199 0.03642916 -0.00242942 0.54117647 0.42352941 0.64313725
v -0.00674199 0.03476597 -0.00822655 0.54117647 0.42352941 0.64313725
v -0.00823051 -0.03276253 -0.00822655 0.54117647 0.42352941 0.64313725
v -0.00417716 -0.03423322 -0.00313090 0.54117647 0.42352941 0.64313725
v -0.00570385 -0.03481841 0.00155887 0.54117647 0.42352941 0.64313725
v -0.00777250 -0.03283183 -0.00822655 0.54117647 0.42352941 0.64313725
v -0.00719236 -0.03291653 -0.00822655 0.54117647 0.42352941 0.64313725
v -0.00674199 -0.03297043 -0.00822655 0.54117647 0.42352941 0.64313725
v -0.00466570 -0.03607351 0.01089427 0.54117647 0.42352941 0.64313725
v -0.00466570 -0.03502631 0.00259564 0.54117647 0.42352941 0.64313725
v -0.00155126 -0.03886089 0.03474457 0.54117647 0.42352941 0.64313725
v -0.00051311 -0.03889168 0.03474457 0.54117647 0.42352941 0.64313725
v -0.00155126 -0.03897638 0.03682253 0.54117647 0.42352941 0.64313725
v -0.00466570 -0.03891479 0.03683577 0.54117647 0.42352941 0.64313725
v -0.00258941 0.03917034 0.02852390 0.54117647 0.42352941 0.64313725
v -0.00570385 0.03662166 -0.00155588 0.54117647 0.42352941 0.64313725
v -0.00658932 0.03930894 0.03683577 0.54117647 0.42352941 0.64313725
v -0.00577255 0.03645996 -0.00268089 0.54117647 0.42352941 0.64313725
v -0.00546721 0.03634446 -0.00320590 0.54117647 0.42352941 0.64313725
v -0.00570385 0.03486607 -0.00822655 0.54117647 0.42352941 0.64313725
v -0.00570385 -0.03301663 -0.00822655 0.54117647 0.42352941 0.64313725
v -0.00361992 -0.03304743 -0.00822655 0.54117647 0.42352941 0.64313725
v -0.00259704 -0.03305513 -0.00822655 0.54117647 0.42352941 0.64313725
v -0.00401686 -0.03423322 -0.00313090 0.54117647 0.42352941 0.64313725
v -0.00365045 -0.03431022 -0.00265442 0.54117647 0.42352941 0.64313725
v -0.00362755 -0.03507251 0.00259564 0.54117647 0.42352941 0.64313725
v -0.00466570 -0.03489541 0.00155887 0.54117647 0.42352941 0.64313725
v 0.00051740 -0.03796769 0.02645035 0.54117647 0.42352941 0.64313725
v 0.00155555 -0.03892249 0.03578575 0.54117647 0.42352941 0.64313725
v 0.00258606 -0.03899178 0.03682253 0.54117647 0.42352941 0.64313725
v 0.00155555 -0.03899949 0.03682253 0.54117647 0.42352941 0.64313725
v -0.00051311 -0.03899178 0.03683577 0.54117647 0.42352941 0.64313725
v 0.00155555 -0.03792919 0.02645035 0.54117647 0.42352941 0.64313725
v -0.00155126 -0.03897638 0.03683577 0.54117647 0.42352941 0.64313725
v -0.00268864 0.03950144 0.03361955 0.54117647 0.42352941 0.64313725
v -0.00155126 0.03954764 0.03370779 0.54117647 0.42352941 0.64313725
v 0.00051740 0.03783825 0.01193105 0.54117647 0.42352941 0.64313725
v -0.00051311 0.03688346 -0.00051469 0.54117647 0.42352941 0.64313725
v -0.00155126 0.03686036 -0.00051469 0.54117647 0.42352941 0.64313725
v -0.00155126 0.03677566 -0.00155588 0.54117647 0.42352941 0.64313725
v -0.00466570 0.03653696 -0.00259265 0.54117647 0.42352941 0.64313725
v -0.00570385 0.03939364 0.03683577 0.54117647 0.42352941 0.64313725
v -0.00466570 0.03638296 -0.00333384 0.54117647 0.42352941 0.64313725
v -0.00466570 0.03495077 -0.00822655 0.54117647 0.42352941 0.64313725
v -0.00200163 -0.03303973 -0.00822655 0.54117647 0.42352941 0.64313725
v -0.00096349 -0.03299353 -0.00822655 0.54117647 0.42352941 0.64313725
v -0.00051311 -0.03297043 -0.00822655 0.54117647 0.42352941 0.64313725
v -0.00332222 -0.03421012 -0.00304266 0.54117647 0.42352941 0.64313725
v -0.00258941 -0.03429482 -0.00236765 0.54117647 0.42352941 0.64313725
v -0.00051311 -0.03468751 0.00052209 0.54117647 0.42352941 0.64313725
v -0.00155126 -0.03473371 0.00052209 0.54117647 0.42352941 0.64313725
v -0.00051311 -0.03484922 0.00155887 0.54117647 0.42352941 0.64313725
v -0.00258941 -0.03518031 0.00363242 0.54117647 0.42352941 0.64313725
v -0.00051311 -0.03604271 0.01089427 0.54117647 0.42352941 0.64313725
v 0.00260896 -0.03899178 0.03683577 0.54117647 0.42352941 0.64313725
v 0.00157081 -0.03899949 0.03683577 0.54117647 0.42352941 0.64313725
v 0.00155555 -0.03899949 0.03683577 0.54117647 0.42352941 0.64313725
v 0.00258606 -0.03782139 0.02645035 0.54117647 0.42352941 0.64313725
v 0.00320437 -0.03841429 0.03202247 0.54117647 0.42352941 0.64313725
v 0.00258606 -0.03592721 0.01089427 0.54117647 0.42352941 0.64313725
v -0.00471150 0.03947834 0.03683577 0.54117647 0.42352941 0.64313725
v -0.00364282 0.03956304 0.03683577 0.54117647 0.42352941 0.64313725
v -0.00260467 0.03963234 0.03683577 0.54117647 0.42352941 0.64313725
v -0.00258941 0.03963234 0.03682253 0.54117647 0.42352941 0.64313725
v -0.00155126 0.03964774 0.03682253 0.54117647 0.42352941 0.64313725
v -0.00051311 0.03964774 0.03683577 0.54117647 0.42352941 0.64313725
v 0.00051740 0.03962464 0.03683577 0.54117647 0.42352941 0.64313725
v 0.00362421 0.03879304 0.02852390 0.54117647 0.42352941 0.64313725
v 0.00155555 0.03774585 0.01193105 0.54117647 0.42352941 0.64313725
v 0.00051740 0.03682186 -0.00051469 0.54117647 0.42352941 0.64313725
v -0.00051311 0.03678336 -0.00155588 0.54117647 0.42352941 0.64313725
v -0.00155126 0.03662936 -0.00259265 0.54117647 0.42352941 0.64313725
v -0.00362755 0.03639836 -0.00345296 0.54117647 0.42352941 0.64313725
v -0.00362755 0.03501237 -0.00822655 0.54117647 0.42352941 0.64313725
v 0.00051740 -0.03289343 -0.00822655 0.54117647 0.42352941 0.64313725
v -0.00028411 -0.03421012 -0.00198382 0.54117647 0.42352941 0.64313725
v 0.00051740 -0.03461822 0.00052209 0.54117647 0.42352941 0.64313725
v 0.00051740 -0.03477991 0.00155887 0.54117647 0.42352941 0.64313725
v 0.00362421 -0.03889168 0.03683577 0.54117647 0.42352941 0.64313725
v 0.00414328 -0.03630451 0.01555757 0.54117647 0.42352941 0.64313725
v 0.00673864 -0.03783679 0.03163423 0.54117647 0.42352941 0.64313725
v 0.00362421 -0.03575011 0.01089427 0.54117647 0.42352941 0.64313725
v 0.00155555 -0.03512641 0.00466920 0.54117647 0.42352941 0.64313725
v 0.00258606 -0.03451812 0.00155887 0.54117647 0.42352941 0.64313725
v 0.00570050 -0.03401762 0.00155887 0.54117647 0.42352941 0.64313725
v -0.00156653 0.03964774 0.03683577 0.54117647 0.42352941 0.64313725
v 0.00163188 0.03950144 0.03683577 0.54117647 0.42352941 0.64313725
v 0.00163951 0.03950144 0.03675635 0.54117647 0.42352941 0.64313725
v 0.00570050 0.03884694 0.03267101 0.54117647 0.42352941 0.64313725
v 0.00570050 0.03878534 0.03163423 0.54117647 0.42352941 0.64313725
v 0.00228836 0.03632906 -0.00337355 0.54117647 0.42352941 0.64313725
v 0.00155555 0.03668326 -0.00051469 0.54117647 0.42352941 0.64313725
v 0.00051740 0.03671406 -0.00155588 0.54117647 0.42352941 0.64313725
v -0.00051311 0.03662166 -0.00259265 0.54117647 0.42352941 0.64313725
v -0.00051311 0.03641376 -0.00353237 0.54117647 0.42352941 0.64313725
v -0.00155126 0.03642146 -0.00350590 0.54117647 0.42352941 0.64313725
v -0.00258941 0.03640606 -0.00349708 0.54117647 0.42352941 0.64313725
v -0.00258941 0.03626746 -0.00401767 0.54117647 0.42352941 0.64313725
v -0.00258941 0.03504317 -0.00822655 0.54117647 0.42352941 0.64313725
v 0.00155555 -0.03275483 -0.00822655 0.54117647 0.42352941 0.64313725
v 0.00258606 -0.03401762 -0.00155588 0.54117647 0.42352941 0.64313725
v 0.00155555 -0.03393292 -0.00259265 0.54117647 0.42352941 0.64313725
v 0.00051740 -0.03417932 -0.00179412 0.54117647 0.42352941 0.64313725
v 0.00051740 -0.03427942 -0.00127793 0.54117647 0.42352941 0.64313725
v 0.00154028 -0.03414852 -0.00148970 0.54117647 0.42352941 0.64313725
v 0.00187615 -0.03421012 -0.00092940 0.54117647 0.42352941 0.64313725
v 0.00155555 -0.03449502 0.00052209 0.54117647 0.42352941 0.64313725
v 0.00155555 -0.03465672 0.00155887 0.54117647 0.42352941 0.64313725
v 0.00627300 -0.03839889 0.03605046 0.54117647 0.42352941 0.64313725
v 0.00644094 -0.03845279 0.03682253 0.54117647 0.42352941 0.64313725
v 0.00644857 -0.03845279 0.03683577 0.54117647 0.42352941 0.64313725
v 0.00466235 -0.03554991 0.01089427 0.54117647 0.42352941 0.64313725
v 0.00566233 -0.03536511 0.01096928 0.54117647 0.42352941 0.64313725
v 0.00777679 -0.03585791 0.01815171 0.54117647 0.42352941 0.64313725
v 0.00783786 -0.03754420 0.03161217 0.54117647 0.42352941 0.64313725
v 0.00261659 -0.03417932 -0.00055439 0.54117647 0.42352941 0.64313725
v 0.00362421 -0.03402532 -0.00051469 0.54117647 0.42352941 0.64313725
v 0.00362421 -0.03385592 -0.00155588 0.54117647 0.42352941 0.64313725
v 0.00466235 -0.03384822 -0.00051469 0.54117647 0.42352941 0.64313725
v 0.00466235 -0.03366342 -0.00155588 0.54117647 0.42352941 0.64313725
v 0.00570050 -0.03382512 0.00052209 0.54117647 0.42352941 0.64313725
v 0.00857830 -0.03323993 0.00087945 0.54117647 0.42352941 0.64313725
v 0.00673864 -0.03377892 0.00155887 0.54117647 0.42352941 0.64313725
v 0.00466235 0.03914724 0.03683577 0.54117647 0.42352941 0.64313725
v 0.00466235 0.03914724 0.03682253 0.54117647 0.42352941 0.64313725
v 0.00567760 0.03895474 0.03683577 0.54117647 0.42352941 0.64313725
v 0.00672338 0.03875454 0.03683577 0.54117647 0.42352941 0.64313725
v 0.00673864 0.03863134 0.03267101 0.54117647 0.42352941 0.64313725
v 0.00681498 0.03852355 0.03156364 0.54117647 0.42352941 0.64313725
v 0.00570050 0.03706056 0.01193105 0.54117647 0.42352941 0.64313725
v 0.00362421 0.03603647 -0.00362943 0.54117647 0.42352941 0.64313725
v 0.00261659 0.03622126 -0.00368237 0.54117647 0.42352941 0.64313725
v 0.00155555 0.03625976 -0.00395149 0.54117647 0.42352941 0.64313725
v -0.00051311 0.03627516 -0.00405297 0.54117647 0.42352941 0.64313725
v 0.00051740 0.03512017 -0.00822655 0.54117647 0.42352941 0.64313725
v 0.00213569 -0.03266243 -0.00822655 0.54117647 0.42352941 0.64313725
v 0.01044849 -0.03736710 0.03683577 0.54117647 0.42352941 0.64313725
v 0.00628064 -0.03527271 0.01136634 0.54117647 0.42352941 0.64313725
v 0.01067749 -0.03537281 0.02126205 0.54117647 0.42352941 0.64313725
v 0.00881494 -0.03660480 0.02645035 0.54117647 0.42352941 0.64313725
v 0.00881494 -0.03457972 0.01089427 0.54117647 0.42352941 0.64313725
v 0.00258606 -0.03257773 -0.00822655 0.54117647 0.42352941 0.64313725
v 0.00317383 -0.03246223 -0.00822655 0.54117647 0.42352941 0.64313725
v 0.00637224 -0.03222354 -0.00646182 0.54117647 0.42352941 0.64313725
v 0.00921188 -0.03315523 0.00155887 0.54117647 0.42352941 0.64313725
v 0.00844853 -0.03116864 -0.00822655 0.54117647 0.42352941 0.64313725
v 0.00784549 0.03850815 0.03683577 0.54117647 0.42352941 0.64313725
v 0.00792946 0.03848505 0.03683577 0.54117647 0.42352941 0.64313725
v 0.00738749 0.03841575 0.03186365 0.54117647 0.42352941 0.64313725
v 0.00881494 0.03474287 -0.00362943 0.54117647 0.42352941 0.64313725
v 0.00570050 0.03696046 0.01089427 0.54117647 0.42352941 0.64313725
v 0.00466235 0.03582087 -0.00362943 0.54117647 0.42352941 0.64313725
v 0.00615850 0.03525107 -0.00506327 0.54117647 0.42352941 0.64313725
v 0.00258606 0.03594407 -0.00466621 0.54117647 0.42352941 0.64313725
v 0.00158608 0.03504317 -0.00822655 0.54117647 0.42352941 0.64313725
v 0.00546386 0.03532037 -0.00537210 0.54117647 0.42352941 0.64313725
v 0.00131128 0.03530497 -0.00740595 0.54117647 0.42352941 0.64313725
v 0.01276142 -0.03536511 0.02670182 0.54117647 0.42352941 0.64313725
v 0.01303622 -0.03647390 0.03683577 0.54117647 0.42352941 0.64313725
v 0.01089123 -0.03392522 0.01089427 0.54117647 0.42352941 0.64313725
v 0.00516616 -0.03202334 -0.00822655 0.54117647 0.42352941 0.64313725
v 0.00568523 -0.03189244 -0.00822655 0.54117647 0.42352941 0.64313725
v 0.00628827 -0.03173844 -0.00822655 0.54117647 0.42352941 0.64313725
v 0.01258585 -0.03119174 -0.00127352 0.54117647 0.42352941 0.64313725
v 0.00985308 -0.03289343 0.00155887 0.54117647 0.42352941 0.64313725
v 0.01198281 -0.03236213 0.00362801 0.54117647 0.42352941 0.64313725
v 0.00896761 -0.03095304 -0.00822655 0.54117647 0.42352941 0.64313725
v 0.00869280 0.03826175 0.03683577 0.54117647 0.42352941 0.64313725
v 0.00985308 0.03772275 0.03267101 0.54117647 0.42352941 0.64313725
v 0.00985308 0.03763035 0.03163423 0.54117647 0.42352941 0.64313725
v 0.00977675 0.03442717 -0.00362943 0.54117647 0.42352941 0.64313725
v 0.01019659 0.03417308 -0.00466621 0.54117647 0.42352941 0.64313725
v 0.00967751 0.03434248 -0.00466621 0.54117647 0.42352941 0.64313725
v 0.00881494 0.03458887 -0.00466621 0.54117647 0.42352941 0.64313725
v 0.01071566 0.03745325 0.03267101 0.54117647 0.42352941 0.64313725
v 0.01089123 0.03663706 0.02437238 0.54117647 0.42352941 0.64313725
v 0.00952485 0.03427318 -0.00533239 0.54117647 0.42352941 0.64313725
v 0.00673864 0.03490457 -0.00570299 0.54117647 0.42352941 0.64313725
v 0.00576920 0.03515097 -0.00571181 0.54117647 0.42352941 0.64313725
v 0.00466235 0.03522797 -0.00609564 0.54117647 0.42352941 0.64313725
v 0.00304406 0.03484297 -0.00822655 0.54117647 0.42352941 0.64313725
v 0.00204409 0.03498157 -0.00822655 0.54117647 0.42352941 0.64313725
v 0.00469289 0.03456577 -0.00822655 0.54117647 0.42352941 0.64313725
v 0.00362421 0.03475827 -0.00822655 0.54117647 0.42352941 0.64313725
v 0.01348660 -0.03631220 0.03683577 0.54117647 0.42352941 0.64313725
v 0.01399804 -0.03484922 0.02645035 0.54117647 0.42352941 0.64313725
v 0.01399804 -0.03498011 0.02748712 0.54117647 0.42352941 0.64313725
v 0.01260112 -0.03327073 0.01113251 0.54117647 0.42352941 0.64313725
v 0.01558579 -0.03009835 0.00096768 0.54117647 0.42352941 0.64313725
v 0.01530335 -0.03099154 0.00466920 0.54117647 0.42352941 0.64313725
v 0.01253242 -0.03219273 0.00397213 0.54117647 0.42352941 0.64313725
v 0.01082253 -0.03009835 -0.00822655 0.54117647 0.42352941 0.64313725
v 0.01241028 -0.02935146 -0.00822655 0.54117647 0.42352941 0.64313725
v 0.01363163 -0.02872006 -0.00822655 0.54117647 0.42352941 0.64313725
v 0.01472321 -0.02813486 -0.00822655 0.54117647 0.42352941 0.64313725
v 0.01482245 -0.02820416 -0.00777654 0.54117647 0.42352941 0.64313725
v 0.01295989 0.03688346 0.03683577 0.54117647 0.42352941 0.64313725
v 0.01131107 0.03731466 0.03370779 0.54117647 0.42352941 0.64313725
v 0.01308966 0.03619816 0.02748712 0.54117647 0.42352941 0.64313725
v 0.01399804 0.03587476 0.02748712 0.54117647 0.42352941 0.64313725
v 0.01089123 0.03391898 -0.00466621 0.54117647 0.42352941 0.64313725
v 0.01123473 0.03727616 0.03267101 0.54117647 0.42352941 0.64313725
v 0.00986072 0.03404218 -0.00568975 0.54117647 0.42352941 0.64313725
v 0.00881494 0.03350318 -0.00822655 0.54117647 0.42352941 0.64313725
v 0.00773099 0.03384198 -0.00822655 0.54117647 0.42352941 0.64313725
v 0.00673864 0.03408068 -0.00822655 0.54117647 0.42352941 0.64313725
v 0.01628806 -0.03513411 0.03682253 0.54117647 0.42352941 0.64313725
v 0.01628806 -0.03513411 0.03683577 0.54117647 0.42352941 0.64313725
v 0.01513542 -0.03447962 0.02741212 0.54117647 0.42352941 0.64313725
v 0.01603616 -0.03405612 0.02741212 0.54117647 0.42352941 0.64313725
v 0.01478428 -0.03123794 0.00466920 0.54117647 0.42352941 0.64313725
v 0.01668500 -0.03013685 0.00397654 0.54117647 0.42352941 0.64313725
v 0.01657050 -0.02902036 -0.00096028 0.54117647 0.42352941 0.64313725
v 0.01706667 -0.02881246 -0.00057645 0.54117647 0.42352941 0.64313725
v 0.01760101 -0.03213884 0.01981497 0.54117647 0.42352941 0.64313725
v 0.01495221 -0.02798087 -0.00822655 0.54117647 0.42352941 0.64313725
v 0.01551709 -0.02797317 -0.00709271 0.54117647 0.42352941 0.64313725
v 0.01408200 0.03648306 0.03683577 0.54117647 0.42352941 0.64313725
v 0.01192174 0.03709136 0.03370779 0.54117647 0.42352941 0.64313725
v 0.01414307 0.03645996 0.03683577 0.54117647 0.42352941 0.64313725
v 0.01447894 0.03628286 0.03643429 0.54117647 0.42352941 0.64313725
v 0.01491405 0.03611346 0.03683577 0.54117647 0.42352941 0.64313725
v 0.01640256 0.03516637 0.03370779 0.54117647 0.42352941 0.64313725
v 0.01763155 0.03422698 0.02904008 0.54117647 0.42352941 0.64313725
v 0.01716591 0.03441947 0.02862537 0.54117647 0.42352941 0.64313725
v 0.01484535 0.03545897 0.02748712 0.54117647 0.42352941 0.64313725
v 0.01456291 0.03217879 -0.00526622 0.54117647 0.42352941 0.64313725
v 0.01200571 0.03341078 -0.00467945 0.54117647 0.42352941 0.64313725
v 0.01241028 0.03317208 -0.00503239 0.54117647 0.42352941 0.64313725
v 0.01171564 0.03332608 -0.00547357 0.54117647 0.42352941 0.64313725
v 0.01396750 0.03231739 -0.00564563 0.54117647 0.42352941 0.64313725
v 0.00949431 0.03326448 -0.00822655 0.54117647 0.42352941 0.64313725
v 0.00923478 0.03335688 -0.00822655 0.54117647 0.42352941 0.64313725
v 0.01566212 -0.03427172 0.02771213 0.54117647 0.42352941 0.64313725
v 0.01711247 -0.03353252 0.02748712 0.54117647 0.42352941 0.64313725
v 0.01712774 -0.03470292 0.03683577 0.54117647 0.42352941 0.64313725
v 0.01630333 -0.03512641 0.03683577 0.54117647 0.42352941 0.64313725
v 0.01868496 -0.03009065 0.01139281 0.54117647 0.42352941 0.64313725
v 0.01976127 -0.03115324 0.02163264 0.54117647 0.42352941 0.64313725
v 0.01807429 -0.03193094 0.02018556 0.54117647 0.42352941 0.64313725
v 0.01797505 -0.02825036 -0.00051469 0.54117647 0.42352941 0.64313725
v 0.02041775 -0.02776527 0.00570598 0.54117647 0.42352941 0.64313725
v 0.01862389 -0.02900496 0.00540156 0.54117647 0.42352941 0.64313725
v 0.01763155 -0.03319373 0.02695329 0.54117647 0.42352941 0.64313725
v 0.01776895 -0.02607898 -0.00822655 0.54117647 0.42352941 0.64313725
v 0.01912770 0.03401908 0.03683577 0.54117647 0.42352941 0.64313725
v 0.02002844 0.03348778 0.03683577 0.54117647 0.42352941 0.64313725
v 0.02147116 0.03195549 0.03163423 0.54117647 0.42352941 0.64313725
v 0.01948647 0.02890632 -0.00570299 0.54117647 0.42352941 0.64313725
v 0.01592929 0.03140110 -0.00466621 0.54117647 0.42352941 0.64313725
v 0.01513542 0.03191700 -0.00466621 0.54117647 0.42352941 0.64313725
v 0.01577663 0.03128560 -0.00570299 0.54117647 0.42352941 0.64313725
v 0.01495985 0.03181689 -0.00564563 0.54117647 0.42352941 0.64313725
v 0.01429574 0.03205559 -0.00595446 0.54117647 0.42352941 0.64313725
v 0.01293699 0.03179380 -0.00822655 0.54117647 0.42352941 0.64313725
v 0.01834909 -0.03404072 0.03683577 0.54117647 0.42352941 0.64313725
v 0.01993684 -0.03023695 0.01711494 0.54117647 0.42352941 0.64313725
v 0.02281465 -0.02904346 0.02178264 0.54117647 0.42352941 0.64313725
v 0.02070782 -0.03109164 0.02518857 0.54117647 0.42352941 0.64313725
v 0.02099026 -0.03126874 0.02748712 0.54117647 0.42352941 0.64313725
v 0.01820405 -0.03293963 0.02748712 0.54117647 0.42352941 0.64313725
v 0.01849413 -0.02784227 -0.00051469 0.54117647 0.42352941 0.64313725
v 0.02108949 -0.02724937 0.00570598 0.54117647 0.42352941 0.64313725
v 0.02173833 -0.02691827 0.00652657 0.54117647 0.42352941 0.64313725
v 0.02179177 -0.02801937 0.01238988 0.54117647 0.42352941 0.64313725
v 0.01945594 -0.02468529 -0.00822655 0.54117647 0.42352941 0.64313725
v 0.02174597 0.03212489 0.03683577 0.54117647 0.42352941 0.64313725
v 0.02285281 0.03114700 0.03290925 0.54117647 0.42352941 0.64313725
v 0.02239481 0.03143190 0.03260925 0.54117647 0.42352941 0.64313725
v 0.02223450 0.03143960 0.03163423 0.54117647 0.42352941 0.64313725
v 0.02282991 0.03009211 0.02485768 0.54117647 0.42352941 0.64313725
v 0.02005135 0.02839042 -0.00570299 0.54117647 0.42352941 0.64313725
v 0.01990631 0.02819792 -0.00647947 0.54117647 0.42352941 0.64313725
v 0.01814299 0.02852132 -0.00822655 0.54117647 0.42352941 0.64313725
v 0.01539495 0.03043860 -0.00822655 0.54117647 0.42352941 0.64313725
v 0.01446367 0.03108540 -0.00821331 0.54117647 0.42352941 0.64313725
v 0.01562396 0.03117010 -0.00631182 0.54117647 0.42352941 0.64313725
v 0.02280701 0.03110850 0.03222101 0.54117647 0.42352941 0.64313725
v 0.01392933 0.03134720 -0.00822655 0.54117647 0.42352941 0.64313725
v 0.01925747 -0.03347863 0.03683577 0.54117647 0.42352941 0.64313725
v 0.02404363 -0.02707227 0.01729582 0.54117647 0.42352941 0.64313725
v 0.02408180 -0.02822726 0.02333560 0.54117647 0.42352941 0.64313725
v 0.02379936 -0.02898956 0.02622975 0.54117647 0.42352941 0.64313725
v 0.02150933 -0.03091454 0.02748712 0.54117647 0.42352941 0.64313725
v 0.02420393 -0.03032935 0.03683577 0.54117647 0.42352941 0.64313725
v 0.02332609 -0.03089915 0.03683577 0.54117647 0.42352941 0.64313725
v 0.02068492 -0.02587108 -0.00083234 0.54117647 0.42352941 0.64313725
v 0.02105132 -0.02620218 0.00155887 0.54117647 0.42352941 0.64313725
v 0.02157040 -0.02570938 0.00155887 0.54117647 0.42352941 0.64313725
v 0.02286808 -0.02597888 0.00714423 0.54117647 0.42352941 0.64313725
v 0.02502834 -0.02612518 0.01711494 0.54117647 0.42352941 0.64313725
v 0.02437950 -0.02671037 0.01701347 0.54117647 0.42352941 0.64313725
v 0.02002844 -0.02416939 -0.00822655 0.54117647 0.42352941 0.64313725
v 0.02522681 0.02930671 0.03683577 0.54117647 0.42352941 0.64313725
v 0.02517338 0.02929131 0.03578575 0.54117647 0.42352941 0.64313725
v 0.02569245 0.02882932 0.03578575 0.54117647 0.42352941 0.64313725
v 0.02512757 0.02925281 0.03474457 0.54117647 0.42352941 0.64313725
v 0.02564665 0.02877542 0.03474457 0.54117647 0.42352941 0.64313725
v 0.02619625 0.02825952 0.03474457 0.54117647 0.42352941 0.64313725
v 0.02076125 0.02698133 -0.00729565 0.54117647 0.42352941 0.64313725
v 0.02572298 0.02778982 0.02852390 0.54117647 0.42352941 0.64313725
v 0.02257801 0.02566464 -0.00570299 0.54117647 0.42352941 0.64313725
v 0.02292915 0.02501015 -0.00648829 0.54117647 0.42352941 0.64313725
v 0.02178413 0.02593414 -0.00726477 0.54117647 0.42352941 0.64313725
v 0.02047118 0.02677343 -0.00822655 0.54117647 0.42352941 0.64313725
v 0.02002081 0.02715073 -0.00822655 0.54117647 0.42352941 0.64313725
v 0.01932617 0.02767433 -0.00822655 0.54117647 0.42352941 0.64313725
v 0.01447894 0.03106230 -0.00822655 0.54117647 0.42352941 0.64313725
v 0.01445604 0.03107770 -0.00822655 0.54117647 0.42352941 0.64313725
v 0.02695197 -0.02798857 0.03683577 0.54117647 0.42352941 0.64313725
v 0.02593672 -0.02594038 0.02072381 0.54117647 0.42352941 0.64313725
v 0.02750157 -0.02747267 0.03683577 0.54117647 0.42352941 0.64313725
v 0.02537185 -0.02936685 0.03683577 0.54117647 0.42352941 0.64313725
v 0.02471537 -0.02992895 0.03683577 0.54117647 0.42352941 0.64313725
v 0.02073072 -0.02383830 -0.00721624 0.54117647 0.42352941 0.64313725
v 0.02183757 -0.02494709 -0.00017939 0.54117647 0.42352941 0.64313725
v 0.02357036 -0.02458519 0.00466920 0.54117647 0.42352941 0.64313725
v 0.02606649 -0.02195181 0.00466920 0.54117647 0.42352941 0.64313725
v 0.02725730 -0.02415399 0.01815171 0.54117647 0.42352941 0.64313725
v 0.02054752 -0.02366120 -0.00822655 0.54117647 0.42352941 0.64313725
v 0.02573062 0.02886012 0.03683577 0.54117647 0.42352941 0.64313725
v 0.02573062 0.02886012 0.03682253 0.54117647 0.42352941 0.64313725
v 0.02630312 0.02834422 0.03682253 0.54117647 0.42352941 0.64313725
v 0.02625732 0.02830572 0.03578575 0.54117647 0.42352941 0.64313725
v 0.02682219 0.02785143 0.03683577 0.54117647 0.42352941 0.64313725
v 0.02671533 0.02772053 0.03474457 0.54117647 0.42352941 0.64313725
v 0.02118873 0.02637303 -0.00762654 0.54117647 0.42352941 0.64313725
v 0.02103606 0.02621904 -0.00822655 0.54117647 0.42352941 0.64313725
v 0.02065439 0.02659633 -0.00822655 0.54117647 0.42352941 0.64313725
v 0.02803591 0.02596494 0.03305925 0.54117647 0.42352941 0.64313725
v 0.02302838 0.02514874 -0.00570299 0.54117647 0.42352941 0.64313725
v 0.02392149 0.02394755 -0.00640888 0.54117647 0.42352941 0.64313725
v 0.02335662 0.02440185 -0.00679271 0.54117647 0.42352941 0.64313725
v 0.02378409 0.02377045 -0.00710153 0.54117647 0.42352941 0.64313725
v 0.02157803 0.02564154 -0.00822655 0.54117647 0.42352941 0.64313725
v 0.02138719 0.02584944 -0.00822655 0.54117647 0.42352941 0.64313725
v 0.02801301 -0.02697217 0.03683577 0.54117647 0.42352941 0.64313725
v 0.02129559 -0.02292200 -0.00822655 0.54117647 0.42352941 0.64313725
v 0.02289861 -0.02187481 -0.00644417 0.54117647 0.42352941 0.64313725
v 0.02249404 -0.02351490 -0.00259265 0.54117647 0.42352941 0.64313725
v 0.02389096 -0.02286040 -0.00009998 0.54117647 0.42352941 0.64313725
v 0.02498254 -0.02086612 -0.00239412 0.54117647 0.42352941 0.64313725
v 0.02613519 -0.01995752 -0.00051469 0.54117647 0.42352941 0.64313725
v 0.02696723 -0.01970343 0.00207946 0.54117647 0.42352941 0.64313725
v 0.03019617 -0.01984202 0.01729582 0.54117647 0.42352941 0.64313725
v 0.02777638 -0.02345330 0.01815171 0.54117647 0.42352941 0.64313725
v 0.03099005 -0.02368430 0.03682253 0.54117647 0.42352941 0.64313725
v 0.03070761 -0.02403849 0.03683577 0.54117647 0.42352941 0.64313725
v 0.03040227 -0.02441579 0.03683577 0.54117647 0.42352941 0.64313725
v 0.03003587 -0.02484699 0.03683577 0.54117647 0.42352941 0.64313725
v 0.02954733 -0.02537828 0.03683577 0.54117647 0.42352941 0.64313725
v 0.02903589 -0.02592498 0.03683577 0.54117647 0.42352941 0.64313725
v 0.02854735 -0.02643318 0.03683577 0.54117647 0.42352941 0.64313725
v 0.02630312 0.02834422 0.03683577 0.54117647 0.42352941 0.64313725
v 0.02730310 0.02732013 0.03683577 0.54117647 0.42352941 0.64313725
v 0.02901299 0.02484845 0.03370779 0.54117647 0.42352941 0.64313725
v 0.02499017 0.02191477 -0.00748977 0.54117647 0.42352941 0.64313725
v 0.02937176 0.02433255 0.03370779 0.54117647 0.42352941 0.64313725
v 0.03134882 0.02212267 0.03683577 0.54117647 0.42352941 0.64313725
v 0.03105112 0.02168377 0.03267101 0.54117647 0.42352941 0.64313725
v 0.02696723 0.01971258 -0.00521769 0.54117647 0.42352941 0.64313725
v 0.02691380 0.01962018 -0.00591034 0.54117647 0.42352941 0.64313725
v 0.02599015 0.02082908 -0.00656329 0.54117647 0.42352941 0.64313725
v 0.02592909 0.02073668 -0.00725154 0.54117647 0.42352941 0.64313725
v 0.02403599 0.02306206 -0.00777654 0.54117647 0.42352941 0.64313725
v 0.02394439 0.02293116 -0.00822655 0.54117647 0.42352941 0.64313725
v 0.02224977 0.02487925 -0.00822655 0.54117647 0.42352941 0.64313725
v 0.02158566 -0.02262171 -0.00822655 0.54117647 0.42352941 0.64313725
v 0.02488330 -0.02072752 -0.00308237 0.54117647 0.42352941 0.64313725
v 0.02186047 -0.02232911 -0.00822655 0.54117647 0.42352941 0.64313725
v 0.02206657 -0.02210581 -0.00822655 0.54117647 0.42352941 0.64313725
v 0.02492147 -0.01871013 -0.00822655 0.54117647 0.42352941 0.64313725
v 0.02779928 -0.01629235 -0.00362943 0.54117647 0.42352941 0.64313725
v 0.02875346 -0.01599205 -0.00047939 0.54117647 0.42352941 0.64313725
v 0.02900536 -0.01545306 -0.00079705 0.54117647 0.42352941 0.64313725
v 0.03221903 -0.01672355 0.01847819 0.54117647 0.42352941 0.64313725
v 0.03135645 -0.02316840 0.03683577 0.54117647 0.42352941 0.64313725
v 0.03099768 -0.02367660 0.03683577 0.54117647 0.42352941 0.64313725
v 0.02973053 0.02433255 0.03683577 0.54117647 0.42352941 0.64313725
v 0.03037937 0.02349326 0.03683577 0.54117647 0.42352941 0.64313725
v 0.03047098 0.02337006 0.03683577 0.54117647 0.42352941 0.64313725
v 0.03099005 0.02263856 0.03683577 0.54117647 0.42352941 0.64313725
v 0.02484514 0.02170687 -0.00818243 0.54117647 0.42352941 0.64313725
v 0.02459324 0.02227666 -0.00781184 0.54117647 0.42352941 0.64313725
v 0.03192133 0.02122177 0.03683577 0.54117647 0.42352941 0.64313725
v 0.03137172 0.02116787 0.03267101 0.54117647 0.42352941 0.64313725
v 0.03130302 0.02104467 0.03163423 0.54117647 0.42352941 0.64313725
v 0.03444036 0.01695600 0.03682253 0.54117647 0.42352941 0.64313725
v 0.03528004 0.01454592 0.03310778 0.54117647 0.42352941 0.64313725
v 0.02717333 0.01923519 -0.00561916 0.54117647 0.42352941 0.64313725
v 0.02710464 0.01891179 -0.00673976 0.54117647 0.42352941 0.64313725
v 0.02681456 0.01942769 -0.00673976 0.54117647 0.42352941 0.64313725
v 0.02896719 0.01542372 -0.00673976 0.54117647 0.42352941 0.64313725
v 0.02711990 0.01798010 -0.00822655 0.54117647 0.42352941 0.64313725
v 0.02693670 0.01830349 -0.00822655 0.54117647 0.42352941 0.64313725
v 0.02569245 0.02035938 -0.00822655 0.54117647 0.42352941 0.64313725
v 0.02547108 0.02072128 -0.00822655 0.54117647 0.42352941 0.64313725
v 0.02517338 0.02117557 -0.00822655 0.54117647 0.42352941 0.64313725
v 0.02486041 0.02165297 -0.00822655 0.54117647 0.42352941 0.64313725
v 0.02888322 0.01505412 -0.00786478 0.54117647 0.42352941 0.64313725
v 0.02860842 0.01533902 -0.00822655 0.54117647 0.42352941 0.64313725
v 0.02479170 0.02175307 -0.00822655 0.54117647 0.42352941 0.64313725
v 0.02611992 -0.01684675 -0.00822655 0.54117647 0.42352941 0.64313725
v 0.02805118 -0.01564556 -0.00426473 0.54117647 0.42352941 0.64313725
v 0.02925726 -0.01277348 -0.00570299 0.54117647 0.42352941 0.64313725
v 0.02971527 -0.01192648 -0.00570299 0.54117647 0.42352941 0.64313725
v 0.03324191 -0.01772454 0.02874008 0.54117647 0.42352941 0.64313725
v 0.03001297 -0.01119499 -0.00570299 0.54117647 0.42352941 0.64313725
v 0.03321138 -0.01146449 0.01343548 0.54117647 0.42352941 0.64313725
v 0.03636398 -0.01359737 0.03683577 0.54117647 0.42352941 0.64313725
v 0.03161599 -0.02270640 0.03683577 0.54117647 0.42352941 0.64313725
v 0.03443273 0.01697140 0.03683577 0.54117647 0.42352941 0.64313725
v 0.03492126 0.01606281 0.03683577 0.54117647 0.42352941 0.64313725
v 0.02923436 0.01490012 -0.00673976 0.54117647 0.42352941 0.64313725
v 0.02777638 0.01805710 -0.00564122 0.54117647 0.42352941 0.64313725
v 0.03521897 0.01536212 0.03682253 0.54117647 0.42352941 0.64313725
v 0.03655482 0.01202034 0.03683577 0.54117647 0.42352941 0.64313725
v 0.03698229 0.01088845 0.03683577 0.54117647 0.42352941 0.64313725
v 0.03641741 0.01064205 0.03163423 0.54117647 0.42352941 0.64313725
v 0.03111982 0.01038795 -0.00625005 0.54117647 0.42352941 0.64313725
v 0.02912749 0.01472302 -0.00758242 0.54117647 0.42352941 0.64313725
v 0.02876872 0.01504642 -0.00822655 0.54117647 0.42352941 0.64313725
v 0.02902062 0.01455362 -0.00822655 0.54117647 0.42352941 0.64313725
v 0.02660083 -0.01603055 -0.00822655 0.54117647 0.42352941 0.64313725
v 0.02805881 -0.01458296 -0.00637800 0.54117647 0.42352941 0.64313725
v 0.02913512 -0.01263488 -0.00634711 0.54117647 0.42352941 0.64313725
v 0.02912749 -0.01101789 -0.00822655 0.54117647 0.42352941 0.64313725
v 0.02979924 -0.01084849 -0.00667359 0.54117647 0.42352941 0.64313725
v 0.03010457 -0.01047119 -0.00628535 0.54117647 0.42352941 0.64313725
v 0.03424952 -0.01766294 0.03618282 0.54117647 0.42352941 0.64313725
v 0.03185262 -0.02227521 0.03683577 0.54117647 0.42352941 0.64313725
v 0.03017327 -0.01067909 -0.00570299 0.54117647 0.42352941 0.64313725
v 0.03114272 -0.00942400 -0.00219559 0.54117647 0.42352941 0.64313725
v 0.03218086 -0.00330255 -0.00630741 0.54117647 0.42352941 0.64313725
v 0.03346328 -0.01088699 0.01400461 0.54117647 0.42352941 0.64313725
v 0.03487546 -0.00881571 0.01918849 0.54117647 0.42352941 0.64313725
v 0.03645559 -0.01328167 0.03683577 0.54117647 0.42352941 0.64313725
v 0.03427242 -0.01770914 0.03682253 0.54117647 0.42352941 0.64313725
v 0.03427242 -0.01770914 0.03683577 0.54117647 0.42352941 0.64313725
v 0.03521897 0.01536212 0.03683577 0.54117647 0.42352941 0.64313725
v 0.02959313 0.01399923 -0.00673976 0.54117647 0.42352941 0.64313725
v 0.03728000 0.00995676 0.03683577 0.54117647 0.42352941 0.64313725
v 0.03668459 0.00984896 0.03163423 0.54117647 0.42352941 0.64313725
v 0.03168469 0.00880946 -0.00570299 0.54117647 0.42352941 0.64313725
v 0.03124195 0.00984896 -0.00648829 0.54117647 0.42352941 0.64313725
v 0.02905879 0.01445352 -0.00822655 0.54117647 0.42352941 0.64313725
v 0.02721150 -0.01499106 -0.00822655 0.54117647 0.42352941 0.64313725
v 0.02775348 -0.01400547 -0.00822655 0.54117647 0.42352941 0.64313725
v 0.02921146 -0.01079459 -0.00822655 0.54117647 0.42352941 0.64313725
v 0.02952443 -0.00984750 -0.00822655 0.54117647 0.42352941 0.64313725
v 0.02966183 -0.00940090 -0.00822655 0.54117647 0.42352941 0.64313725
v 0.03199766 -0.00364134 -0.00668682 0.54117647 0.42352941 0.64313725
v 0.03611971 -0.00051517 0.01918849 0.54117647 0.42352941 0.64313725
v 0.03736396 -0.00216296 0.02880626 0.54117647 0.42352941 0.64313725
v 0.03823417 -0.00362594 0.03578575 0.54117647 0.42352941 0.64313725
v 0.03816547 -0.00570493 0.03682253 0.54117647 0.42352941 0.64313725
v 0.03816547 -0.00572033 0.03683577 0.54117647 0.42352941 0.64313725
v 0.03802044 -0.00675212 0.03683577 0.54117647 0.42352941 0.64313725
v 0.03640978 -0.00782241 0.02748271 0.54117647 0.42352941 0.64313725
v 0.03628002 -0.00819971 0.02713418 0.54117647 0.42352941 0.64313725
v 0.03199003 -0.00258645 -0.00681918 0.54117647 0.42352941 0.64313725
v 0.03231063 0.00154842 -0.00643535 0.54117647 0.42352941 0.64313725
v 0.03244040 0.00154842 -0.00570299 0.54117647 0.42352941 0.64313725
v 0.03632582 0.00154842 0.01958556 0.54117647 0.42352941 0.64313725
v 0.03631055 0.00097862 0.01965615 0.54117647 0.42352941 0.64313725
v 0.03637925 -0.00953180 0.02985627 0.54117647 0.42352941 0.64313725
v 0.03651665 -0.01304298 0.03683577 0.54117647 0.42352941 0.64313725
v 0.03731053 0.00977196 0.03683577 0.54117647 0.42352941 0.64313725
v 0.03797464 0.00466689 0.03474457 0.54117647 0.42352941 0.64313725
v 0.03709679 0.00777767 0.03059746 0.54117647 0.42352941 0.64313725
v 0.03190606 0.00777767 -0.00570299 0.54117647 0.42352941 0.64313725
v 0.03133355 0.00880176 -0.00683241 0.54117647 0.42352941 0.64313725
v 0.03056258 0.00989516 -0.00822655 0.54117647 0.42352941 0.64313725
v 0.02982214 -0.00884651 -0.00822655 0.54117647 0.42352941 0.64313725
v 0.03113508 -0.00420344 -0.00822655 0.54117647 0.42352941 0.64313725
v 0.03149386 -0.00362594 -0.00777654 0.54117647 0.42352941 0.64313725
v 0.03132592 -0.00304075 -0.00822655 0.54117647 0.42352941 0.64313725
v 0.03135645 -0.00258645 -0.00822655 0.54117647 0.42352941 0.64313725
v 0.03790593 0.00154842 0.03059746 0.54117647 0.42352941 0.64313725
v 0.03840211 -0.00307155 0.03683577 0.54117647 0.42352941 0.64313725
v 0.03737923 -0.00952410 0.03683577 0.54117647 0.42352941 0.64313725
v 0.03137935 -0.00206286 -0.00822655 0.54117647 0.42352941 0.64313725
v 0.03127249 0.00466689 -0.00822655 0.54117647 0.42352941 0.64313725
v 0.03123432 0.00569869 -0.00822655 0.54117647 0.42352941 0.64313725
v 0.03227246 0.00258791 -0.00637800 0.54117647 0.42352941 0.64313725
v 0.03242513 0.00258791 -0.00570299 0.54117647 0.42352941 0.64313725
v 0.03632582 0.00213361 0.01959438 0.54117647 0.42352941 0.64313725
v 0.03728000 -0.00993990 0.03683577 0.54117647 0.42352941 0.64313725
v 0.03798227 0.00569869 0.03682253 0.54117647 0.42352941 0.64313725
v 0.03798227 0.00569869 0.03683577 0.54117647 0.42352941 0.64313725
v 0.03811967 0.00466689 0.03682253 0.54117647 0.42352941 0.64313725
v 0.03852425 0.00163312 0.03683577 0.54117647 0.42352941 0.64313725
v 0.03780670 0.00362740 0.03163423 0.54117647 0.42352941 0.64313725
v 0.03768456 0.00466689 0.03163423 0.54117647 0.42352941 0.64313725
v 0.03669222 0.00258791 0.02229882 0.54117647 0.42352941 0.64313725
v 0.03218850 0.00646868 -0.00532357 0.54117647 0.42352941 0.64313725
v 0.03206636 0.00678438 -0.00568093 0.54117647 0.42352941 0.64313725
v 0.03171523 0.00673818 -0.00673976 0.54117647 0.42352941 0.64313725
v 0.03155492 0.00777767 -0.00673976 0.54117647 0.42352941 0.64313725
v 0.03076868 0.00880176 -0.00822655 0.54117647 0.42352941 0.64313725
v 0.03124959 -0.00362594 -0.00822655 0.54117647 0.42352941 0.64313725
v 0.03768456 0.00362740 0.03059746 0.54117647 0.42352941 0.64313725
v 0.03857768 0.00051663 0.03683577 0.54117647 0.42352941 0.64313725
v 0.03115798 0.00636088 -0.00822655 0.54117647 0.42352941 0.64313725
v 0.03815784 0.00438200 0.03683577 0.54117647 0.42352941 0.64313725
f 1 2 3
f 1 3 4
f 1 4 14
f 1 14 33
f 1 33 32
f 1 32 57
f 1 57 86
f 1 86 109
f 1 109 131
f 1 131 165
f 1 165 187
f 1 187 211
f 1 211 231
f 1 231 210
f 1 210 229
f 1 229 246
f 1 246 268
f 1 268 265
f 1 265 283
f 1 283 302
f 1 302 316
f 1 316 336
f 1 336 367
f 1 367 364
f 1 364 393
f 1 393 415
f 1 415 442
f 1 442 465
f 1 465 464
f 1 464 481
f 1 481 501
f 1 501 499
f 1 499 524
f 1 524 523
f 1 523 522
f 1 522 546
f 1 546 578
f 1 578 604
f 1 604 626
f 1 626 652
f 1 652 675
f 1 675 704
f 1 704 703
f 1 703 723
f 1 723 747
f 1 747 753
f 1 753 752
f 1 752 781
f 1 781 780
f 1 780 777
f 1 777 779
f 1 779 804
f 1 804 820
f 1 820 819
f 1 819 818
f 1 818 817
f 1 817 816
f 1 816 815
f 1 815 845
f 1 845 844
f 1 844 878
f 1 878 898
f 1 898 906
f 1 906 877
f 1 877 904
f 1 904 934
f 1 934 955
f 1 955 948
f 1 948 925
f 1 925 924
f 1 924 947
f 1 947 970
f 1 970 959
f 1 959 972
f 1 972 957
f 1 957 935
f 1 935 909
f 1 909 885
f 1 885 884
f 1 884 907
f 1 907 880
f 1 880 879
f 1 879 852
f 1 852 826
f 1 826 849
f 1 849 848
f 1 848 847
f 1 847 846
f 1 846 822
f 1 822 792
f 1 792 821
f 1 821 788
f 1 788 761
f 1 761 734
f 1 734 714
f 1 714 713
f 1 713 689
f 1 689 687
f 1 687 685
f 1 685 664
f 1 664 635
f 1 635 615
f 1 615 614
f 1 614 594
f 1 594 593
f 1 593 591
f 1 591 554
f 1 554 534
f 1 534 533
f 1 533 553
f 1 553 530
f 1 530 529
f 1 529 528
f 1 528 509
f 1 509 484
f 1 484 467
f 1 467 452
f 1 452 449
f 1 449 443
f 1 443 417
f 1 417 396
f 1 396 394
f 1 394 375
f 1 375 374
f 1 374 340
f 1 340 370
f 1 370 369
f 1 369 373
f 1 373 368
f 1 368 337
f 1 337 321
f 1 321 304
f 1 304 285
f 1 285 269
f 1 269 257
f 1 257 250
f 1 250 249
f 1 249 247
f 1 247 232
f 1 232 212
f 1 212 191
f 1 191 170
f 1 170 166
f 1 166 133
f 1 133 113
f 1 113 112
f 1 112 132
f 1 132 110
f 1 110 88
f 1 88 87
f 1 87 63
f 1 63 58
f 1 58 36
f 1 36 15
f 1 15 5
f 1 5 6
f 1 6 7
f 1 7 2
f 2 7 8
f 2 8 9
f 2 9 27
f 2 27 10
f 2 10 11
f 2 11 3
f 3 12 14
f 3 14 4
f 3 11 13
f 3 13 12
f 5 15 16
f 5 16 7
f 5 7 6
f 7 16 17
f 7 17 18
f 7 18 19
f 7 19 20
f 7 20 8
f 8 20 21
f 8 21 22
f 8 22 23
f 8 23 9
f 9 23 24
f 9 24 25
f 9 25 26
f 9 26 27
f 10 27 28
f 10 28 55
f 10 55 29
f 10 29 30
f 10 30 13
f 10 13 11
f 12 13 31
f 12 31 33
f 12 33 14
f 13 30 32
f 13 32 31
f 15 34 35
f 15 35 16
f 15 36 34
f 16 35 17
f 17 35 61
f 17 61 37
f 17 37 38
f 17 38 39
f 17 39 18
f 18 39 19
f 19 40 41
f 19 41 42
f 19 42 43
f 19 43 20
f 19 39 44
f 19 44 45
f 19 45 46
f 19 46 40
f 20 43 22
f 20 22 21
f 22 43 47
f 22 47 23
f 23 47 48
f 23 48 49
f 23 49 24
f 24 50 25
f 24 49 50
f 25 50 51
f 25 51 52
f 25 52 26
f 26 52 53
f 26 53 27
f 27 53 28
f 28 54 55
f 28 53 54
f 29 55 56
f 29 56 30
f 30 56 57
f 30 57 32
f 31 32 33
f 34 36 58
f 34 58 35
f 35 58 59
f 35 59 60
f 35 60 61
f 37 61 62
f 37 62 38
f 38 62 63
f 38 63 64
f 38 64 65
f 38 65 44
f 38 44 39
f 40 66 41
f 40 46 66
f 41 66 67
f 41 67 68
f 41 68 69
f 41 69 70
f 41 70 71
f 41 71 42
f 42 71 43
f 43 71 69
f 43 69 47
f 44 65 45
f 45 65 72
f 45 72 73
f 45 73 74
f 45 74 46
f 46 74 75
f 46 75 66
f 47 69 68
f 47 68 90
f 47 90 95
f 47 95 121
f 47 121 156
f 47 156 155
f 47 155 154
f 47 154 153
f 47 153 152
f 47 152 151
f 47 151 150
f 47 150 149
f 47 149 148
f 47 148 147
f 47 147 146
f 47 146 145
f 47 145 144
f 47 144 143
f 47 143 179
f 47 179 200
f 47 200 223
f 47 223 242
f 47 242 258
f 47 258 259
f 47 259 254
f 47 254 274
f 47 274 293
f 47 293 292
f 47 292 291
f 47 291 290
f 47 290 310
f 47 310 325
f 47 325 349
f 47 349 381
f 47 381 399
f 47 399 423
f 47 423 422
f 47 422 421
f 47 421 445
f 47 445 444
f 47 444 448
f 47 448 447
f 47 447 456
f 47 456 455
f 47 455 469
f 47 469 487
f 47 487 511
f 47 511 541
f 47 541 566
f 47 566 602
f 47 602 622
f 47 622 649
f 47 649 648
f 47 648 651
f 47 651 650
f 47 650 673
f 47 673 672
f 47 672 671
f 47 671 700
f 47 700 699
f 47 699 722
f 47 722 746
f 47 746 776
f 47 776 775
f 47 775 742
f 47 742 741
f 47 741 774
f 47 774 773
f 47 773 772
f 47 772 796
f 47 796 795
f 47 795 803
f 47 803 802
f 47 802 834
f 47 834 833
f 47 833 869
f 47 869 866
f 47 866 865
f 47 865 864
f 47 864 863
f 47 863 862
f 47 862 861
f 47 861 868
f 47 868 889
f 47 889 890
f 47 890 913
f 47 913 940
f 47 940 967
f 47 967 971
f 47 971 951
f 47 951 950
f 47 950 949
f 47 949 945
f 47 945 944
f 47 944 968
f 47 968 942
f 47 942 941
f 47 941 918
f 47 918 917
f 47 917 916
f 47 916 894
f 47 894 915
f 47 915 914
f 47 914 891
f 47 891 870
f 47 870 839
f 47 839 838
f 47 838 837
f 47 837 835
f 47 835 805
f 47 805 787
f 47 787 760
f 47 760 733
f 47 733 712
f 47 712 683
f 47 683 662
f 47 662 661
f 47 661 660
f 47 660 659
f 47 659 634
f 47 634 613
f 47 613 630
f 47 630 629
f 47 629 628
f 47 628 610
f 47 610 609
f 47 609 603
f 47 603 567
f 47 567 542
f 47 542 514
f 47 514 513
f 47 513 512
f 47 512 490
f 47 490 489
f 47 489 488
f 47 488 475
f 47 475 474
f 47 474 473
f 47 473 470
f 47 470 458
f 47 458 432
f 47 432 431
f 47 431 430
f 47 430 406
f 47 406 405
f 47 405 386
f 47 386 382
f 47 382 350
f 47 350 327
f 47 327 326
f 47 326 311
f 47 311 295
f 47 295 276
f 47 276 261
f 47 261 260
f 47 260 243
f 47 243 224
f 47 224 202
f 47 202 180
f 47 180 159
f 47 159 125
f 47 125 158
f 47 158 157
f 47 157 122
f 47 122 99
f 47 99 98
f 47 98 97
f 47 97 96
f 47 96 76
f 47 76 50
f 47 50 49
f 47 49 48
f 50 76 77
f 50 77 51
f 51 77 52
f 52 77 53
f 53 77 54
f 54 78 79
f 54 79 55
f 54 77 78
f 55 79 80
f 55 80 56
f 56 80 81
f 56 81 82
f 56 82 57
f 57 82 83
f 57 83 84
f 57 84 85
f 57 85 86
f 58 63 59
f 59 63 60
f 60 62 61
f 60 63 62
f 63 87 64
f 64 87 88
f 64 88 89
f 64 89 65
f 65 89 72
f 66 90 68
f 66 68 67
f 66 75 90
f 69 71 70
f 72 89 91
f 72 91 73
f 73 92 74
f 73 91 92
f 74 92 93
f 74 93 94
f 74 94 75
f 75 94 95
f 75 95 90
f 76 96 77
f 77 96 97
f 77 97 78
f 78 98 79
f 78 97 98
f 79 98 99
f 79 99 100
f 79 100 101
f 79 101 102
f 79 102 103
f 79 103 80
f 80 103 81
f 81 102 104
f 81 104 82
f 81 103 102
f 82 105 106
f 82 106 107
f 82 107 83
f 82 104 105
f 83 107 106
f 83 106 85
f 83 85 84
f 85 108 109
f 85 109 86
f 85 106 108
f 88 110 89
f 89 110 111
f 89 111 112
f 89 112 113
f 89 113 114
f 89 114 115
f 89 115 91
f 91 93 92
f 91 115 116
f 91 116 117
f 91 117 118
f 91 118 93
f 93 119 120
f 93 120 94
f 93 118 119
f 94 120 95
f 95 120 121
f 99 122 105
f 99 105 123
f 99 123 100
f 100 123 104
f 100 104 102
f 100 102 101
f 104 123 105
f 105 124 106
f 105 122 124
f 106 124 125
f 106 125 126
f 106 126 127
f 106 127 128
f 106 128 108
f 108 128 109
f 109 128 129
f 109 129 130
f 109 130 131
f 110 132 111
f 111 132 112
f 113 133 114
f 114 133 166
f 114 166 134
f 114 134 115
f 115 134 116
f 116 134 135
f 116 135 136
f 116 136 117
f 117 136 137
f 117 137 138
f 117 138 139
f 117 139 118
f 118 139 140
f 118 140 141
f 118 141 142
f 118 142 143
f 118 143 144
f 118 144 145
f 118 145 146
f 118 146 147
f 118 147 148
f 118 148 119
f 119 148 149
f 119 149 150
f 119 150 120
f 120 150 151
f 120 151 152
f 120 152 153
f 120 153 154
f 120 154 155
f 120 155 156
f 120 156 121
f 122 157 124
f 124 157 158
f 124 158 125
f 125 127 126
f 125 159 127
f 127 129 128
f 127 159 160
f 127 160 161
f 127 161 162
f 127 162 129
f 129 162 130
f 130 162 163
f 130 163 164
f 130 164 131
f 131 164 165
f 134 167 168
f 134 168 169
f 134 169 135
f 134 166 170
f 134 170 167
f 135 169 168
f 135 168 136
f 136 168 171
f 136 171 172
f 136 172 137
f 137 172 139
f 137 139 138
f 139 172 140
f 140 173 174
f 140 174 175
f 140 175 141
f 140 172 173
f 141 176 142
f 141 175 177
f 141 177 178
f 141 178 176
f 142 176 143
f 143 176 178
f 143 178 179
f 159 180 160
f 160 180 181
f 160 181 161
f 161 181 182
f 161 182 162
f 162 182 183
f 162 183 184
f 162 184 163
f 163 184 185
f 163 185 164
f 164 185 186
f 164 186 187
f 164 187 165
f 167 188 189
f 167 189 190
f 167 190 168
f 167 170 188
f 168 190 173
f 168 173 171
f 170 191 192
f 170 192 193
f 170 193 188
f 171 173 172
f 173 190 189
f 173 189 174
f 174 194 175
f 174 189 195
f 174 195 194
f 175 194 178
f 175 178 177
f 178 196 197
f 178 197 198
f 178 198 199
f 178 199 200
f 178 200 179
f 178 194 201
f 178 201 196
f 180 202 203
f 180 203 181
f 181 203 204
f 181 204 182
f 182 205 183
f 182 204 206
f 182 206 205
f 183 205 184
f 184 207 185
f 184 205 208
f 184 208 209
f 184 209 210
f 184 210 207
f 185 207 231
f 185 231 211
f 185 211 187
f 185 187 186
f 188 193 195
f 188 195 189
f 191 212 213
f 191 213 192
f 192 214 215
f 192 215 195
f 192 195 216
f 192 216 193
f 192 213 214
f 193 216 195
f 194 195 201
f 195 215 196
f 195 196 201
f 196 215 197
f 197 215 198
f 198 217 199
f 198 215 218
f 198 218 219
f 198 219 220
f 198 220 217
f 199 217 221
f 199 221 200
f 200 221 222
f 200 222 223
f 202 224 203
f 203 224 225
f 203 225 204
f 204 225 226
f 204 226 227
f 204 227 206
f 205 206 228
f 205 228 229
f 205 229 208
f 206 227 230
f 206 230 228
f 207 210 231
f 208 229 209
f 209 229 210
f 212 232 213
f 213 232 214
f 214 233 234
f 214 234 215
f 214 232 235
f 214 235 233
f 215 234 219
f 215 219 218
f 217 222 221
f 217 220 236
f 217 236 237
f 217 237 222
f 219 234 238
f 219 238 239
f 219 239 220
f 220 239 240
f 220 240 236
f 222 237 241
f 222 241 223
f 223 241 242
f 224 243 225
f 225 243 244
f 225 244 226
f 226 244 227
f 227 244 245
f 227 245 230
f 228 230 229
f 229 230 246
f 230 245 246
f 232 247 235
f 233 248 238
f 233 238 234
f 233 235 249
f 233 249 250
f 233 250 248
f 235 247 249
f 236 240 251
f 236 251 237
f 237 252 253
f 237 253 254
f 237 254 241
f 237 251 255
f 237 255 256
f 237 256 252
f 238 248 257
f 238 257 251
f 238 251 240
f 238 240 239
f 241 258 242
f 241 254 259
f 241 259 258
f 243 260 244
f 244 260 261
f 244 261 262
f 244 262 263
f 244 263 245
f 245 264 265
f 245 265 266
f 245 266 267
f 245 267 246
f 245 263 264
f 246 267 266
f 246 266 268
f 248 250 257
f 251 257 269
f 251 269 270
f 251 270 271
f 251 271 272
f 251 272 273
f 251 273 255
f 252 256 254
f 252 254 253
f 254 256 273
f 254 273 274
f 255 273 256
f 261 275 262
f 261 276 277
f 261 277 275
f 262 275 278
f 262 278 279
f 262 279 263
f 263 279 264
f 264 280 281
f 264 281 265
f 264 279 280
f 265 268 266
f 265 281 282
f 265 282 283
f 269 284 270
f 269 285 284
f 270 284 271
f 271 284 286
f 271 286 272
f 272 286 287
f 272 287 273
f 273 287 288
f 273 288 289
f 273 289 290
f 273 290 291
f 273 291 292
f 273 292 293
f 273 293 274
f 275 277 294
f 275 294 278
f 276 295 296
f 276 296 297
f 276 297 277
f 277 297 298
f 277 298 294
f 278 294 279
f 279 294 299
f 279 299 280
f 280 299 298
f 280 298 300
f 280 300 281
f 281 300 301
f 281 301 302
f 281 302 282
f 282 302 283
f 284 285 303
f 284 303 286
f 285 304 305
f 285 305 303
f 286 306 307
f 286 307 289
f 286 289 288
f 286 288 287
f 286 303 306
f 289 307 308
f 289 308 309
f 289 309 310
f 289 310 290
f 294 298 299
f 295 311 312
f 295 312 297
f 295 297 296
f 297 313 314
f 297 314 298
f 297 312 313
f 298 314 300
f 300 314 315
f 300 315 302
f 300 302 301
f 302 315 316
f 303 305 317
f 303 317 318
f 303 318 319
f 303 319 320
f 303 320 308
f 303 308 307
f 303 307 306
f 304 321 305
f 305 321 317
f 308 322 323
f 308 323 309
f 308 320 322
f 309 323 310
f 310 323 324
f 310 324 325
f 311 326 312
f 312 326 327
f 312 327 328
f 312 328 313
f 313 328 329
f 313 329 315
f 313 315 314
f 315 330 316
f 315 329 331
f 315 331 332
f 315 332 333
f 315 333 330
f 316 330 334
f 316 334 335
f 316 335 336
f 317 321 337
f 317 337 338
f 317 338 318
f 318 339 340
f 318 340 341
f 318 341 319
f 318 338 342
f 318 342 343
f 318 343 339
f 319 344 345
f 319 345 320
f 319 341 344
f 320 345 346
f 320 346 347
f 320 347 324
f 320 324 323
f 320 323 322
f 324 348 325
f 324 347 348
f 325 348 347
f 325 347 349
f 327 350 328
f 328 350 351
f 328 351 352
f 328 352 353
f 328 353 329
f 329 353 354
f 329 354 331
f 330 333 355
f 330 355 334
f 331 354 356
f 331 356 357
f 331 357 358
f 331 358 359
f 331 359 360
f 331 360 332
f 332 360 333
f 333 361 362
f 333 362 363
f 333 363 364
f 333 364 355
f 333 360 359
f 333 359 361
f 334 355 365
f 334 365 335
f 335 365 355
f 335 355 366
f 335 366 367
f 335 367 336
f 337 368 338
f 338 368 342
f 339 369 370
f 339 370 340
f 339 343 371
f 339 371 342
f 339 342 372
f 339 372 373
f 339 373 369
f 340 374 341
f 341 374 375
f 341 375 376
f 341 376 344
f 342 368 372
f 342 371 343
f 344 377 345
f 344 376 378
f 344 378 379
f 344 379 377
f 345 380 346
f 345 377 380
f 346 380 347
f 347 380 349
f 349 380 381
f 350 382 351
f 351 382 353
f 351 353 352
f 353 383 384
f 353 384 385
f 353 385 354
f 353 382 386
f 353 386 383
f 354 385 387
f 354 387 388
f 354 388 356
f 355 364 366
f 356 388 389
f 356 389 390
f 356 390 357
f 357 391 359
f 357 359 358
f 357 390 391
f 359 391 362
f 359 362 361
f 362 392 390
f 362 390 393
f 362 393 363
f 362 391 392
f 363 393 364
f 364 367 366
f 368 373 372
f 375 394 395
f 375 395 376
f 376 395 396
f 376 396 397
f 376 397 378
f 377 398 399
f 377 399 381
f 377 381 380
f 377 379 398
f 378 397 400
f 378 400 401
f 378 401 402
f 378 402 403
f 378 403 379
f 379 403 404
f 379 404 398
f 383 405 406
f 383 406 388
f 383 388 384
f 383 386 405
f 384 388 385
f 385 388 387
f 388 406 389
f 389 406 407
f 389 407 390
f 390 408 409
f 390 409 410
f 390 410 411
f 390 411 412
f 390 412 413
f 390 413 414
f 390 414 415
f 390 415 393
f 390 392 391
f 390 407 406
f 390 406 416
f 390 416 408
f 394 396 395
f 396 417 418
f 396 418 419
f 396 419 397
f 397 419 400
f 398 420 421
f 398 421 422
f 398 422 423
f 398 423 399
f 398 404 424
f 398 424 420
f 400 419 425
f 400 425 401
f 401 426 402
f 401 425 427
f 401 427 426
f 402 426 428
f 402 428 403
f 403 428 404
f 404 428 429
f 404 429 424
f 406 430 416
f 408 410 409
f 408 416 430
f 408 430 431
f 408 431 432
f 408 432 410
f 410 432 433
f 410 433 434
f 410 434 411
f 411 434 435
f 411 435 436
f 411 436 437
f 411 437 438
f 411 438 412
f 412 438 439
f 412 439 413
f 413 439 440
f 413 440 414
f 414 440 441
f 414 441 442
f 414 442 415
f 417 443 425
f 417 425 418
f 418 425 419
f 420 424 444
f 420 444 445
f 420 445 421
f 424 429 446
f 424 446 447
f 424 447 448
f 424 448 444
f 425 443 449
f 425 449 427
f 426 450 428
f 426 427 451
f 426 451 450
f 427 449 452
f 427 452 453
f 427 453 451
f 428 450 454
f 428 454 455
f 428 455 456
f 428 456 446
f 428 446 457
f 428 457 429
f 429 457 446
f 432 458 433
f 433 459 434
f 433 458 459
f 434 459 460
f 434 460 461
f 434 461 435
f 435 461 462
f 435 462 436
f 436 462 437
f 437 463 439
f 437 439 438
f 437 462 463
f 439 463 441
f 439 441 440
f 441 463 464
f 441 464 465
f 441 465 442
f 446 456 447
f 450 451 466
f 450 466 454
f 451 453 466
f 452 467 453
f 453 467 466
f 454 466 468
f 454 468 469
f 454 469 455
f 458 470 459
f 459 471 472
f 459 472 460
f 459 470 473
f 459 473 474
f 459 474 475
f 459 475 471
f 460 472 462
f 460 462 461
f 462 476 463
f 462 472 477
f 462 477 476
f 463 478 479
f 463 479 480
f 463 480 501
f 463 501 481
f 463 481 464
f 463 476 478
f 466 467 482
f 466 482 483
f 466 483 468
f 467 484 482
f 468 483 485
f 468 485 486
f 468 486 469
f 469 486 487
f 471 488 489
f 471 489 490
f 471 490 491
f 471 491 492
f 471 492 493
f 471 493 494
f 471 494 472
f 471 475 488
f 472 494 477
f 476 495 479
f 476 479 478
f 476 477 493
f 476 493 495
f 477 494 493
f 479 496 497
f 479 497 498
f 479 498 499
f 479 499 480
f 479 495 500
f 479 500 496
f 480 499 501
f 482 484 502
f 482 502 503
f 482 503 504
f 482 504 505
f 482 505 506
f 482 506 483
f 483 506 507
f 483 507 508
f 483 508 485
f 484 509 502
f 485 508 510
f 485 510 486
f 486 510 487
f 487 510 511
f 490 512 491
f 491 512 513
f 491 513 514
f 491 514 492
f 492 514 515
f 492 515 516
f 492 516 517
f 492 517 518
f 492 518 493
f 493 518 519
f 493 519 520
f 493 520 495
f 495 520 521
f 495 521 500
f 496 500 497
f 497 522 498
f 497 500 522
f 498 522 523
f 498 523 524
f 498 524 499
f 500 525 526
f 500 526 522
f 500 521 527
f 500 527 525
f 502 509 528
f 502 528 529
f 502 529 530
f 502 530 503
f 503 530 531
f 503 531 532
f 503 532 533
f 503 533 534
f 503 534 504
f 504 534 535
f 504 535 536
f 504 536 537
f 504 537 505
f 505 537 538
f 505 538 507
f 505 507 506
f 507 538 539
f 507 539 508
f 508 540 510
f 508 539 540
f 510 540 541
f 510 541 511
f 514 542 543
f 514 543 516
f 514 516 515
f 516 543 544
f 516 544 517
f 517 519 518
f 517 544 545
f 517 545 519
f 519 545 527
f 519 527 521
f 519 521 520
f 522 526 546
f 525 527 547
f 525 547 526
f 526 548 546
f 526 547 548
f 527 549 547
f 527 545 550
f 527 550 551
f 527 551 552
f 527 552 549
f 530 553 532
f 530 532 531
f 532 553 533
f 534 554 555
f 534 555 556
f 534 556 557
f 534 557 535
f 535 557 536
f 536 557 558
f 536 558 559
f 536 559 537
f 537 559 558
f 537 558 560
f 537 560 538
f 538 560 558
f 538 558 561
f 538 561 539
f 539 561 562
f 539 562 563
f 539 563 564
f 539 564 540
f 540 564 565
f 540 565 541
f 541 565 566
f 542 567 568
f 542 568 569
f 542 569 543
f 543 569 570
f 543 570 571
f 543 571 544
f 544 571 572
f 544 572 573
f 544 573 574
f 544 574 575
f 544 575 545
f 545 575 550
f 546 548 576
f 546 576 577
f 546 577 578
f 547 549 579
f 547 579 580
f 547 580 581
f 547 581 548
f 548 582 578
f 548 578 577
f 548 577 576
f 548 581 582
f 549 552 579
f 550 575 551
f 551 575 574
f 551 574 583
f 551 583 584
f 551 584 552
f 552 584 585
f 552 585 586
f 552 586 587
f 552 587 588
f 552 588 589
f 552 589 590
f 552 590 580
f 552 580 579
f 554 591 555
f 555 591 592
f 555 592 556
f 556 593 594
f 556 594 595
f 556 595 557
f 556 592 593
f 557 595 596
f 557 596 597
f 557 597 558
f 558 598 599
f 558 599 600
f 558 600 561
f 558 597 598
f 561 600 562
f 562 600 601
f 562 601 563
f 563 601 602
f 563 602 565
f 563 565 564
f 565 602 566
f 567 603 585
f 567 585 568
f 568 585 583
f 568 583 574
f 568 574 573
f 568 573 572
f 568 572 569
f 569 572 570
f 570 572 571
f 578 582 604
f 580 590 605
f 580 605 581
f 581 606 607
f 581 607 582
f 581 605 589
f 581 589 608
f 581 608 606
f 582 607 604
f 583 585 584
f 585 587 586
f 585 603 587
f 587 589 588
f 587 603 609
f 587 609 610
f 587 610 611
f 587 611 589
f 589 612 608
f 589 605 590
f 589 611 613
f 589 613 612
f 591 593 592
f 594 614 595
f 595 614 615
f 595 615 616
f 595 616 596
f 596 616 597
f 597 616 617
f 597 617 618
f 597 618 619
f 597 619 598
f 598 619 620
f 598 620 599
f 599 621 622
f 599 622 600
f 599 620 623
f 599 623 621
f 600 622 624
f 600 624 602
f 600 602 601
f 602 624 622
f 604 607 606
f 604 606 625
f 604 625 626
f 606 608 627
f 606 627 625
f 608 612 627
f 610 628 611
f 611 628 629
f 611 629 630
f 611 630 613
f 612 613 631
f 612 631 632
f 612 632 633
f 612 633 627
f 613 634 631
f 615 635 616
f 616 635 636
f 616 636 637
f 616 637 617
f 617 638 639
f 617 639 640
f 617 640 641
f 617 641 620
f 617 620 619
f 617 619 618
f 617 637 642
f 617 642 643
f 617 643 638
f 620 641 644
f 620 644 645
f 620 645 646
f 620 646 623
f 621 623 647
f 621 647 648
f 621 648 649
f 621 649 622
f 623 646 650
f 623 650 651
f 623 651 647
f 625 652 626
f 625 627 653
f 625 653 654
f 625 654 652
f 627 633 655
f 627 655 653
f 631 656 657
f 631 657 658
f 631 658 632
f 631 634 659
f 631 659 660
f 631 660 661
f 631 661 662
f 631 662 663
f 631 663 656
f 632 658 633
f 633 658 655
f 635 664 665
f 635 665 636
f 636 665 642
f 636 642 637
f 638 643 666
f 638 666 667
f 638 667 668
f 638 668 639
f 639 668 644
f 639 644 640
f 640 644 641
f 642 665 669
f 642 669 666
f 642 666 643
f 644 668 670
f 644 670 671
f 644 671 672
f 644 672 645
f 645 672 646
f 646 672 673
f 646 673 650
f 647 651 648
f 652 654 674
f 652 674 675
f 653 655 676
f 653 676 654
f 654 676 674
f 655 677 676
f 655 658 678
f 655 678 657
f 655 657 677
f 656 679 657
f 656 663 680
f 656 680 681
f 656 681 679
f 657 678 658
f 657 679 682
f 657 682 677
f 662 683 684
f 662 684 663
f 663 684 680
f 664 685 665
f 665 685 686
f 665 686 669
f 666 669 667
f 667 669 686
f 667 686 687
f 667 687 688
f 667 688 689
f 667 689 690
f 667 690 691
f 667 691 692
f 667 692 693
f 667 693 694
f 667 694 695
f 667 695 668
f 668 695 694
f 668 694 696
f 668 696 670
f 670 696 697
f 670 697 698
f 670 698 699
f 670 699 700
f 670 700 671
f 674 676 701
f 674 701 677
f 674 677 702
f 674 702 703
f 674 703 704
f 674 704 675
f 676 677 701
f 677 682 702
f 679 705 706
f 679 706 707
f 679 707 682
f 679 681 708
f 679 708 709
f 679 709 710
f 679 710 705
f 680 684 681
f 681 684 708
f 682 707 711
f 682 711 702
f 683 712 684
f 684 712 708
f 685 687 686
f 687 689 688
f 689 713 690
f 690 713 691
f 691 713 714
f 691 714 715
f 691 715 716
f 691 716 717
f 691 717 718
f 691 718 694
f 691 694 692
f 692 694 693
f 694 718 716
f 694 716 719
f 694 719 720
f 694 720 721
f 694 721 698
f 694 698 696
f 696 698 697
f 698 721 722
f 698 722 699
f 702 711 703
f 703 711 723
f 705 724 706
f 705 710 709
f 705 709 725
f 705 725 724
f 706 726 727
f 706 727 728
f 706 728 707
f 706 724 725
f 706 725 726
f 707 728 711
f 708 712 729
f 708 729 730
f 708 730 709
f 709 730 731
f 709 731 732
f 709 732 725
f 711 728 723
f 712 733 729
f 714 734 735
f 714 735 736
f 714 736 737
f 714 737 715
f 715 737 716
f 716 738 739
f 716 739 740
f 716 740 741
f 716 741 742
f 716 742 743
f 716 743 744
f 716 744 719
f 716 718 717
f 716 737 745
f 716 745 738
f 719 744 720
f 720 744 743
f 720 743 721
f 721 743 746
f 721 746 722
f 723 728 727
f 723 727 747
f 725 732 731
f 725 731 748
f 725 748 749
f 725 749 750
f 725 750 751
f 725 751 726
f 726 751 727
f 727 751 752
f 727 752 753
f 727 753 747
f 729 733 754
f 729 754 755
f 729 755 731
f 729 731 730
f 731 755 756
f 731 756 757
f 731 757 758
f 731 758 759
f 731 759 748
f 733 760 754
f 734 761 735
f 735 745 736
f 735 761 762
f 735 762 763
f 735 763 764
f 735 764 765
f 735 765 745
f 736 745 737
f 738 766 739
f 738 745 766
f 739 767 740
f 739 766 768
f 739 768 769
f 739 769 770
f 739 770 771
f 739 771 767
f 740 767 772
f 740 772 773
f 740 773 774
f 740 774 741
f 742 775 743
f 743 775 776
f 743 776 746
f 745 765 766
f 748 759 749
f 749 777 750
f 749 759 758
f 749 758 778
f 749 778 779
f 749 779 777
f 750 777 780
f 750 780 781
f 750 781 752
f 750 752 751
f 754 756 755
f 754 760 782
f 754 782 783
f 754 783 756
f 756 783 784
f 756 784 757
f 757 784 785
f 757 785 786
f 757 786 758
f 758 786 778
f 760 787 782
f 761 788 789
f 761 789 762
f 762 789 763
f 763 789 790
f 763 790 791
f 763 791 765
f 763 765 764
f 765 791 766
f 766 791 792
f 766 792 793
f 766 793 768
f 767 771 794
f 767 794 795
f 767 795 796
f 767 796 772
f 768 793 769
f 769 797 798
f 769 798 799
f 769 799 770
f 769 793 797
f 770 799 771
f 771 799 800
f 771 800 801
f 771 801 802
f 771 802 803
f 771 803 794
f 778 804 779
f 778 786 804
f 782 787 805
f 782 805 806
f 782 806 807
f 782 807 783
f 783 807 808
f 783 808 784
f 784 808 785
f 785 808 809
f 785 809 810
f 785 810 811
f 785 811 812
f 785 812 813
f 785 813 786
f 786 813 814
f 786 814 815
f 786 815 816
f 786 816 817
f 786 817 818
f 786 818 819
f 786 819 820
f 786 820 804
f 788 821 790
f 788 790 789
f 790 792 791
f 790 821 792
f 792 822 793
f 793 822 797
f 794 803 795
f 797 823 799
f 797 799 798
f 797 822 823
f 799 824 801
f 799 801 800
f 799 823 825
f 799 825 826
f 799 826 827
f 799 827 828
f 799 828 829
f 799 829 830
f 799 830 831
f 799 831 824
f 801 824 832
f 801 832 833
f 801 833 834
f 801 834 802
f 805 835 806
f 806 836 809
f 806 809 808
f 806 808 807
f 806 835 837
f 806 837 838
f 806 838 839
f 806 839 836
f 809 836 839
f 809 839 810
f 810 839 840
f 810 840 811
f 811 840 841
f 811 841 812
f 812 841 842
f 812 842 843
f 812 843 844
f 812 844 814
f 812 814 813
f 814 844 845
f 814 845 815
f 822 846 823
f 823 846 847
f 823 847 848
f 823 848 849
f 823 849 826
f 823 826 825
f 824 850 851
f 824 851 832
f 824 831 850
f 826 852 827
f 827 852 853
f 827 853 854
f 827 854 828
f 828 854 855
f 828 855 856
f 828 856 857
f 828 857 829
f 829 858 859
f 829 859 831
f 829 831 830
f 829 857 860
f 829 860 858
f 831 861 862
f 831 862 863
f 831 863 864
f 831 864 865
f 831 865 866
f 831 866 850
f 831 859 858
f 831 858 867
f 831 867 868
f 831 868 861
f 832 851 833
f 833 851 850
f 833 850 869
f 839 870 871
f 839 871 840
f 840 871 841
f 841 871 842
f 842 871 872
f 842 872 873
f 842 873 843
f 843 874 844
f 843 873 875
f 843 875 876
f 843 876 877
f 843 877 874
f 844 874 878
f 850 866 869
f 852 879 855
f 852 855 854
f 852 854 853
f 855 879 880
f 855 880 856
f 856 881 860
f 856 860 882
f 856 882 857
f 856 880 883
f 856 883 884
f 856 884 885
f 856 885 886
f 856 886 887
f 856 887 881
f 857 882 860
f 858 860 867
f 860 881 888
f 860 888 867
f 867 889 868
f 867 888 890
f 867 890 889
f 870 891 892
f 870 892 871
f 871 892 872
f 872 892 893
f 872 893 873
f 873 893 894
f 873 894 895
f 873 895 896
f 873 896 875
f 874 897 898
f 874 898 878
f 874 877 897
f 875 896 899
f 875 899 876
f 876 899 900
f 876 900 901
f 876 901 902
f 876 902 903
f 876 903 904
f 876 904 877
f 877 905 897
f 877 906 905
f 880 907 883
f 881 887 908
f 881 908 888
f 883 907 884
f 885 909 910
f 885 910 886
f 886 910 887
f 887 910 911
f 887 911 912
f 887 912 913
f 887 913 888
f 887 888 908
f 888 913 890
f 891 914 892
f 892 915 893
f 892 914 915
f 893 915 894
f 894 916 896
f 894 896 895
f 896 916 917
f 896 917 918
f 896 918 919
f 896 919 901
f 896 901 899
f 897 905 898
f 898 905 906
f 899 901 900
f 901 920 921
f 901 921 922
f 901 922 923
f 901 923 924
f 901 924 925
f 901 925 926
f 901 926 927
f 901 927 903
f 901 903 902
f 901 919 928
f 901 928 929
f 901 929 930
f 901 930 931
f 901 931 932
f 901 932 920
f 903 927 933
f 903 933 904
f 904 933 934
f 909 935 936
f 909 936 937
f 909 937 910
f 910 937 911
f 911 937 938
f 911 938 912
f 912 938 939
f 912 939 940
f 912 940 913
f 918 941 919
f 919 942 943
f 919 943 944
f 919 944 945
f 919 945 928
f 919 941 942
f 920 932 921
f 921 932 946
f 921 946 922
f 922 947 923
f 922 946 947
f 923 947 924
f 925 948 933
f 925 933 927
f 925 927 926
f 928 945 949
f 928 949 929
f 929 950 951
f 929 951 952
f 929 952 953
f 929 953 930
f 929 949 950
f 930 953 954
f 930 954 931
f 931 954 946
f 931 946 932
f 933 948 955
f 933 955 934
f 935 956 936
f 935 957 956
f 936 956 958
f 936 958 959
f 936 959 960
f 936 960 961
f 936 961 937
f 937 961 962
f 937 962 963
f 937 963 938
f 938 963 964
f 938 964 965
f 938 965 966
f 938 966 939
f 939 967 940
f 939 966 967
f 942 968 943
f 943 968 944
f 946 954 962
f 946 962 969
f 946 969 960
f 946 960 959
f 946 959 970
f 946 970 947
f 951 971 965
f 951 965 952
f 952 965 964
f 952 964 963
f 952 963 953
f 953 963 954
f 954 963 962
f 956 957 972
f 956 972 959
f 956 959 958
f 960 969 961
f 961 969 962
f 965 971 966
f 966 971 967

