# https://github.com/mikedh/trimesh
v 0.00202097 0.00646360 0.04455629 0.08627451 0.01960784 0.83137255
v 0.00202097 0.00155442 0.04505396 0.08627451 0.01960784 0.83137255
v 0.00202097 0.00646360 0.03684168 0.08627451 0.01960784 0.83137255
v -0.03845739 0.00646360 0.05193260 0.08627451 0.01960784 0.83137255
v 0.00202097 0.00051863 0.04511560 0.08627451 0.01960784 0.83137255
v -0.03889583 0.00646360 0.05201229 0.08627451 0.01960784 0.83137255
v -0.03889583 0.00466662 0.05215663 0.08627451 0.01960784 0.83137255
v 0.00202097 -0.01814492 0.03684168 0.08627451 0.01960784 0.83137255
v -0.03880127 0.00646360 0.03684168 0.08627451 0.01960784 0.83137255
v 0.00202097 -0.00155778 0.04516823 0.08627451 0.01960784 0.83137255
v -0.04000483 0.00646360 0.05199726 0.08627451 0.01960784 0.83137255
v -0.03993175 0.00362841 0.05219873 0.08627451 0.01960784 0.83137255
v -0.03474784 -0.01814492 0.05164092 0.08627451 0.01960784 0.83137255
v -0.03474784 -0.01711394 0.05164693 0.08627451 0.01960784 0.83137255
v -0.02932752 -0.01814492 0.05078541 0.08627451 0.01960784 0.83137255
v -0.02541164 -0.01088955 0.05003214 0.08627451 0.01960784 0.83137255
v 0.00202097 -0.00259357 0.04519379 0.08627451 0.01960784 0.83137255
v 0.00202097 -0.01814492 0.04490361 0.08627451 0.01960784 0.83137255
v -0.03462749 -0.01814492 0.03684168 0.08627451 0.01960784 0.83137255
v -0.03895601 0.00570482 0.03684168 0.08627451 0.01960784 0.83137255
v -0.04108803 0.00646360 0.04615755 0.08627451 0.01960784 0.83137255
v -0.04021545 0.00646360 0.05192960 0.08627451 0.01960784 0.83137255
v -0.04043897 0.00623958 0.05185743 0.08627451 0.01960784 0.83137255
v -0.04055073 0.00362841 0.05195365 0.08627451 0.01960784 0.83137255
v -0.04053354 0.00259262 0.05193862 0.08627451 0.01960784 0.83137255
v -0.03993175 0.00259262 0.05213858 0.08627451 0.01960784 0.83137255
v -0.03954920 -0.00155778 0.05198673 0.08627451 0.01960784 0.83137255
v -0.03578376 -0.01711394 0.05158529 0.08627451 0.01960784 0.83137255
v -0.03578376 -0.01814492 0.05143042 0.08627451 0.01960784 0.83137255
v -0.02931892 -0.01814492 0.05078391 0.08627451 0.01960784 0.83137255
v 0.00202097 -0.00363177 0.04520130 0.08627451 0.01960784 0.83137255
v 0.00202097 -0.00570577 0.04519228 0.08627451 0.01960784 0.83137255
v -0.03733120 -0.01814492 0.04926985 0.08627451 0.01960784 0.83137255
v -0.03614483 -0.01527119 0.03684168 0.08627451 0.01960784 0.83137255
v -0.03908066 0.00468348 0.03684168 0.08627451 0.01960784 0.83137255
v -0.04167262 0.00259262 0.04635150 0.08627451 0.01960784 0.83137255
v -0.04158235 0.00362841 0.04650035 0.08627451 0.01960784 0.83137255
v -0.04133734 0.00646360 0.04719949 0.08627451 0.01960784 0.83137255
v -0.04064100 0.00646360 0.05163190 0.08627451 0.01960784 0.83137255
v -0.04082583 0.00646360 0.05142140 0.08627451 0.01960784 0.83137255
v -0.04099347 0.00362841 0.05134472 0.08627451 0.01960784 0.83137255
v -0.04095049 0.00259262 0.05134472 0.08627451 0.01960784 0.83137255
v -0.04076135 0.00157851 0.05142591 0.08627451 0.01960784 0.83137255
v -0.04031002 -0.00674156 0.05050124 0.08627451 0.01960784 0.83137255
v -0.04047765 0.00193742 0.05188299 0.08627451 0.01960784 0.83137255
v -0.03964376 -0.00777735 0.05098839 0.08627451 0.01960784 0.83137255
v -0.03948472 -0.00219852 0.05193411 0.08627451 0.01960784 0.83137255
v -0.03689276 -0.01713321 0.05110115 0.08627451 0.01960784 0.83137255
v -0.03663486 -0.01814492 0.05103650 0.08627451 0.01960784 0.83137255
v -0.03723664 -0.01814492 0.05029376 0.08627451 0.01960784 0.83137255
v -0.03745156 -0.01791367 0.05006071 0.08627451 0.01960784 0.83137255
v -0.03743866 -0.01787754 0.04926985 0.08627451 0.01960784 0.83137255
v -0.03942024 -0.01245769 0.04769416 0.08627451 0.01960784 0.83137255
v -0.03675091 -0.01398488 0.03684168 0.08627451 0.01960784 0.83137255
v -0.03641563 -0.01475330 0.03684168 0.08627451 0.01960784 0.83137255
v -0.03932138 0.00259021 0.03684168 0.08627451 0.01960784 0.83137255
v -0.04168552 0.00155442 0.04632895 0.08627451 0.01960784 0.83137255
v -0.04189184 0.00155442 0.04719498 0.08627451 0.01960784 0.83137255
v -0.04184026 0.00259262 0.04719498 0.08627451 0.01960784 0.83137255
v -0.03936436 0.00157128 0.03684168 0.08627451 0.01960784 0.83137255
v -0.04170701 0.00362841 0.04719498 0.08627451 0.01960784 0.83137255
v -0.04152648 0.00544466 0.04756485 0.08627451 0.01960784 0.83137255
v -0.04147059 0.00608059 0.04823242 0.08627451 0.01960784 0.83137255
v -0.04138892 0.00646360 0.04823242 0.08627451 0.01960784 0.83137255
v -0.04094189 0.00646360 0.05118385 0.08627451 0.01960784 0.83137255
v -0.04141901 0.00466662 0.05041254 0.08627451 0.01960784 0.83137255
v -0.04141471 0.00362841 0.05038247 0.08627451 0.01960784 0.83137255
v -0.04128146 0.00155442 0.05030729 0.08627451 0.01960784 0.83137255
v -0.03979420 -0.00674156 0.05103650 0.08627451 0.01960784 0.83137255
v -0.04058082 -0.00570577 0.05012386 0.08627451 0.01960784 0.83137255
v -0.04093759 -0.00570577 0.04926985 0.08627451 0.01960784 0.83137255
v -0.04078284 -0.00674156 0.04926985 0.08627451 0.01960784 0.83137255
v -0.04041318 -0.00801583 0.04964724 0.08627451 0.01960784 0.83137255
v -0.03856915 -0.01400175 0.05018099 0.08627451 0.01960784 0.83137255
v -0.03825966 -0.01400175 0.05069971 0.08627451 0.01960784 0.83137255
v -0.03739998 -0.01680080 0.05087863 0.08627451 0.01960784 0.83137255
v -0.03749884 -0.01607574 0.05094930 0.08627451 0.01960784 0.83137255
v -0.03728822 -0.01749213 0.05075233 0.08627451 0.01960784 0.83137255
v -0.03718505 -0.01814492 0.05040502 0.08627451 0.01960784 0.83137255
v -0.03845310 -0.01472680 0.04998854 0.08627451 0.01960784 0.83137255
v -0.03884855 -0.01400175 0.04926985 0.08627451 0.01960784 0.83137255
v -0.04049485 -0.00943462 0.04787157 0.08627451 0.01960784 0.83137255
v -0.03942024 -0.01245769 0.04776181 0.08627451 0.01960784 0.83137255
v -0.03886144 -0.01400175 0.04823242 0.08627451 0.01960784 0.83137255
v -0.04049485 -0.00943462 0.04756034 0.08627451 0.01960784 0.83137255
v -0.03838862 -0.00935754 0.03727470 0.08627451 0.01960784 0.83137255
v -0.03845739 -0.00887577 0.03684168 0.08627451 0.01960784 0.83137255
v -0.03940305 -0.00155778 0.03684168 0.08627451 0.01960784 0.83137255
v -0.04183596 -0.00051958 0.04719498 0.08627451 0.01960784 0.83137255
v -0.04180587 0.00051863 0.04823242 0.08627451 0.01960784 0.83137255
v -0.04180587 0.00155442 0.04823242 0.08627451 0.01960784 0.83137255
v -0.04149638 0.00550248 0.04985172 0.08627451 0.01960784 0.83137255
v -0.04153507 0.00556029 0.04823242 0.08627451 0.01960784 0.83137255
v -0.04148349 0.00612395 0.04926985 0.08627451 0.01960784 0.83137255
v -0.04139752 0.00646360 0.04926985 0.08627451 0.01960784 0.83137255
v -0.04132445 0.00646360 0.05028774 0.08627451 0.01960784 0.83137255
v -0.04141041 0.00579153 0.05024113 0.08627451 0.01960784 0.83137255
v -0.04150498 0.00466662 0.04989382 0.08627451 0.01960784 0.83137255
v -0.04177578 -0.00051958 0.04823242 0.08627451 0.01960784 0.83137255
v -0.04171131 -0.00155778 0.04823242 0.08627451 0.01960784 0.83137255
v -0.04152648 -0.00155778 0.04883533 0.08627451 0.01960784 0.83137255
v -0.04149638 -0.00211181 0.04876617 0.08627451 0.01960784 0.83137255
v -0.04138033 -0.00466997 0.04832564 0.08627451 0.01960784 0.83137255
v -0.04149209 -0.00519028 0.04772122 0.08627451 0.01960784 0.83137255
v -0.04084302 -0.00777735 0.04823242 0.08627451 0.01960784 0.83137255
v -0.04058082 -0.00771231 0.04928940 0.08627451 0.01960784 0.83137255
v -0.04050774 -0.00847109 0.04895562 0.08627451 0.01960784 0.83137255
v -0.04059801 -0.00881555 0.04822340 0.08627451 0.01960784 0.83137255
v -0.04149209 -0.00519028 0.04771070 0.08627451 0.01960784 0.83137255
v -0.04058511 -0.00877942 0.04720701 0.08627451 0.01960784 0.83137255
v -0.03847459 -0.00880592 0.03684168 0.08627451 0.01960784 0.83137255
v -0.03935576 -0.00256948 0.03684168 0.08627451 0.01960784 0.83137255
v -0.04178438 -0.00155778 0.04719498 0.08627451 0.01960784 0.83137255
v -0.04137603 0.00646360 0.04983969 0.08627451 0.01960784 0.83137255
v -0.03921821 -0.00363177 0.03684168 0.08627451 0.01960784 0.83137255
v -0.03865512 -0.00777735 0.03684168 0.08627451 0.01960784 0.83137255
v -0.03860783 -0.00805437 0.03684168 0.08627451 0.01960784 0.83137255
f 1 2 5
f 1 5 10
f 1 10 17
f 1 17 31
f 1 31 32
f 1 32 18
f 1 18 8
f 1 8 3
f 1 3 9
f 1 9 21
f 1 21 38
f 1 38 64
f 1 64 95
f 1 95 114
f 1 114 96
f 1 96 65
f 1 65 40
f 1 40 39
f 1 39 22
f 1 22 11
f 1 11 6
f 1 6 4
f 1 4 2
f 2 4 6
f 2 6 7
f 2 7 5
f 3 8 19
f 3 19 34
f 3 34 55
f 3 55 54
f 3 54 87
f 3 87 111
f 3 111 117
f 3 117 116
f 3 116 115
f 3 115 112
f 3 112 88
f 3 88 60
f 3 60 56
f 3 56 35
f 3 35 20
f 3 20 9
f 5 7 10
f 6 11 7
f 7 11 12
f 7 12 13
f 7 13 14
f 7 14 15
f 7 15 16
f 7 16 17
f 7 17 10
f 8 18 30
f 8 30 15
f 8 15 13
f 8 13 29
f 8 29 49
f 8 49 79
f 8 79 50
f 8 50 33
f 8 33 19
f 9 20 21
f 11 22 12
f 12 22 23
f 12 23 24
f 12 24 25
f 12 25 26
f 12 26 27
f 12 27 13
f 13 28 29
f 13 15 14
f 13 27 28
f 15 30 31
f 15 31 17
f 15 17 16
f 18 32 30
f 19 33 34
f 20 35 36
f 20 36 37
f 20 37 21
f 21 37 38
f 22 39 23
f 23 39 24
f 24 39 40
f 24 40 41
f 24 41 25
f 25 41 42
f 25 42 43
f 25 43 44
f 25 44 45
f 25 45 27
f 25 27 26
f 27 45 46
f 27 46 47
f 27 47 28
f 28 48 29
f 28 47 48
f 29 48 49
f 30 32 31
f 33 50 51
f 33 51 52
f 33 52 53
f 33 53 54
f 33 54 55
f 33 55 34
f 35 56 36
f 36 57 58
f 36 58 59
f 36 59 37
f 36 56 60
f 36 60 57
f 37 59 61
f 37 61 38
f 38 61 62
f 38 62 63
f 38 63 64
f 40 65 66
f 40 66 41
f 41 66 67
f 41 67 42
f 42 67 68
f 42 68 44
f 42 44 43
f 44 46 69
f 44 69 45
f 44 68 70
f 44 70 71
f 44 71 72
f 44 72 73
f 44 73 74
f 44 74 75
f 44 75 76
f 44 76 46
f 45 69 46
f 46 76 77
f 46 77 47
f 47 77 48
f 48 77 76
f 48 76 49
f 49 76 78
f 49 78 79
f 50 79 51
f 51 79 78
f 51 78 80
f 51 80 81
f 51 81 82
f 51 82 83
f 51 83 53
f 51 53 84
f 51 84 52
f 52 84 53
f 53 83 82
f 53 82 85
f 53 85 54
f 54 85 86
f 54 86 87
f 57 60 88
f 57 88 58
f 58 88 89
f 58 89 90
f 58 90 91
f 58 91 92
f 58 92 59
f 59 93 62
f 59 62 61
f 59 92 94
f 59 94 93
f 62 93 63
f 63 93 94
f 63 94 64
f 64 94 95
f 65 96 97
f 65 97 66
f 66 97 92
f 66 92 98
f 66 98 91
f 66 91 90
f 66 90 67
f 67 90 99
f 67 99 100
f 67 100 101
f 67 101 68
f 68 71 70
f 68 101 71
f 71 101 102
f 71 102 103
f 71 103 104
f 71 104 72
f 72 104 105
f 72 105 106
f 72 106 73
f 73 106 107
f 73 107 80
f 73 80 74
f 74 80 78
f 74 78 76
f 74 76 75
f 80 107 81
f 81 107 108
f 81 108 82
f 82 108 105
f 82 105 104
f 82 104 109
f 82 109 85
f 85 109 110
f 85 110 87
f 85 87 86
f 87 110 111
f 88 112 89
f 89 113 99
f 89 99 90
f 89 112 113
f 91 98 92
f 92 97 96
f 92 96 114
f 92 114 94
f 94 114 95
f 99 113 100
f 100 113 104
f 100 104 103
f 100 103 102
f 100 102 101
f 104 113 109
f 105 108 107
f 105 107 106
f 109 113 112
f 109 112 115
f 109 115 116
f 109 116 117
f 109 117 111
f 109 111 110

