# https://github.com/mikedh/trimesh
v -0.01876464 0.03746972 0.04787363 0.61176471 0.61568627 0.94117647
v -0.01876464 0.03746972 0.04735039 0.61176471 0.61568627 0.94117647
v -0.01886204 0.03744156 0.04801541 0.61176471 0.61568627 0.94117647
v -0.01876464 0.03746641 0.04806071 0.61176471 0.61568627 0.94117647
v -0.01876464 0.03527305 0.03684018 0.61176471 0.61568627 0.94117647
v -0.01886204 0.03744156 0.04739570 0.61176471 0.61568627 0.94117647
v -0.01876464 0.03729081 0.04861319 0.61176471 0.61568627 0.94117647
v -0.02083439 0.03635647 0.04790140 0.61176471 0.61568627 0.94117647
v -0.02028825 0.03659337 0.04824049 0.61176471 0.61568627 0.94117647
v -0.01920120 0.03717484 0.04830918 0.61176471 0.61568627 0.94117647
v -0.01876464 0.02054904 0.03684018 0.61176471 0.61568627 0.94117647
v -0.01926034 0.03500302 0.03684018 0.61176471 0.61568627 0.94117647
v -0.02072829 0.03629352 0.04672483 0.61176471 0.61568627 0.94117647
v -0.02083439 0.03635647 0.04741616 0.61176471 0.61568627 0.94117647
v -0.01998214 0.03647575 0.04906043 0.61176471 0.61568627 0.94117647
v -0.01876464 0.03719307 0.04884266 0.61176471 0.61568627 0.94117647
v -0.02121355 0.03601190 0.04824049 0.61176471 0.61568627 0.94117647
v -0.02067437 0.03625708 0.04859273 0.61176471 0.61568627 0.94117647
v -0.02211276 0.03550498 0.04719546 0.61176471 0.61568627 0.94117647
v -0.02393378 0.03428239 0.04782394 0.61176471 0.61568627 0.94117647
v -0.02206406 0.03545693 0.04823318 0.61176471 0.61568627 0.94117647
v -0.01876464 0.02054904 0.04605251 0.61176471 0.61568627 0.94117647
v -0.03480776 0.02054904 0.03684018 0.61176471 0.61568627 0.94117647
v -0.02406945 0.03227292 0.03684018 0.61176471 0.61568627 0.94117647
v -0.02569219 0.03201945 0.03993580 0.61176471 0.61568627 0.94117647
v -0.02121355 0.03607319 0.04712092 0.61176471 0.61568627 0.94117647
v -0.02028825 0.03611792 0.04935275 0.61176471 0.61568627 0.94117647
v -0.01966037 0.03627861 0.04975322 0.61176471 0.61568627 0.94117647
v -0.01926382 0.03668945 0.04935275 0.61176471 0.61568627 0.94117647
v -0.02189187 0.03533765 0.04888358 0.61176471 0.61568627 0.94117647
v -0.02125355 0.03555301 0.04924605 0.61176471 0.61568627 0.94117647
v -0.01876464 0.03692635 0.04933667 0.61176471 0.61568627 0.94117647
v -0.02645226 0.03155560 0.03993580 0.61176471 0.61568627 0.94117647
v -0.02704188 0.03117127 0.03993580 0.61176471 0.61568627 0.94117647
v -0.02393378 0.03428239 0.04754624 0.61176471 0.61568627 0.94117647
v -0.02615658 0.03230439 0.04896397 0.61176471 0.61568627 0.94117647
v -0.02258236 0.03509082 0.04823318 0.61176471 0.61568627 0.94117647
v -0.02809066 0.03121599 0.04798617 0.61176471 0.61568627 0.94117647
v -0.02684534 0.03206749 0.04823318 0.61176471 0.61568627 0.94117647
v -0.01876464 0.02956103 0.05023700 0.61176471 0.61568627 0.94117647
v -0.02973602 0.02054904 0.05098826 0.61176471 0.61568627 0.94117647
v -0.03651573 0.02054904 0.04719546 0.61176471 0.61568627 0.94117647
v -0.03633485 0.02081410 0.04660644 0.61176471 0.61568627 0.94117647
v -0.03319893 0.02386890 0.03835438 0.61176471 0.61568627 0.94117647
v -0.03333111 0.02304059 0.03684018 0.61176471 0.61568627 0.94117647
v -0.02459993 0.03196313 0.03684018 0.61176471 0.61568627 0.94117647
v -0.02697752 0.03112322 0.03939209 0.61176471 0.61568627 0.94117647
v -0.02090222 0.03537410 0.04991838 0.61176471 0.61568627 0.94117647
v -0.02022738 0.03558780 0.05010108 0.61176471 0.61568627 0.94117647
v -0.01896814 0.03644427 0.04994761 0.61176471 0.61568627 0.94117647
v -0.01876464 0.03664638 0.04977514 0.61176471 0.61568627 0.94117647
v -0.02159271 0.03512230 0.04957491 0.61176471 0.61568627 0.94117647
v -0.02756018 0.03076705 0.03993580 0.61176471 0.61568627 0.94117647
v -0.02809066 0.03121599 0.04748924 0.61176471 0.61568627 0.94117647
v -0.02757410 0.03152247 0.04829311 0.61176471 0.61568627 0.94117647
v -0.02797587 0.03109340 0.04867750 0.61176471 0.61568627 0.94117647
v -0.02721059 0.03131208 0.04926944 0.61176471 0.61568627 0.94117647
v -0.02697404 0.03111991 0.04979268 0.61176471 0.61568627 0.94117647
v -0.03075176 0.02871285 0.04823318 0.61176471 0.61568627 0.94117647
v -0.03122484 0.02813966 0.04889235 0.61176471 0.61568627 0.94117647
v -0.02908031 0.03011269 0.04879589 0.61176471 0.61568627 0.94117647
v -0.01876464 0.02998678 0.05040070 0.61176471 0.61568627 0.94117647
v -0.03030302 0.02054904 0.05123234 0.61176471 0.61568627 0.94117647
v -0.03653313 0.02054904 0.04823318 0.61176471 0.61568627 0.94117647
v -0.03636789 0.02086711 0.04719546 0.61176471 0.61568627 0.94117647
v -0.03609135 0.02138563 0.04719546 0.61176471 0.61568627 0.94117647
v -0.03557304 0.02227523 0.04719546 0.61176471 0.61568627 0.94117647
v -0.03324067 0.02395504 0.03889808 0.61176471 0.61568627 0.94117647
v -0.03300934 0.02459781 0.03993580 0.61176471 0.61568627 0.94117647
v -0.03289455 0.02447357 0.03889808 0.61176471 0.61568627 0.94117647
v -0.03237625 0.02516438 0.03889808 0.61176471 0.61568627 0.94117647
v -0.03039521 0.02738093 0.03786182 0.61176471 0.61568627 0.94117647
v -0.03024041 0.02717882 0.03684018 0.61176471 0.61568627 0.94117647
v -0.03294847 0.02355746 0.03684018 0.61176471 0.61568627 0.94117647
v -0.02552175 0.03139159 0.03684018 0.61176471 0.61568627 0.94117647
v -0.02683838 0.03104039 0.03870077 0.61176471 0.61568627 0.94117647
v -0.02736886 0.03039431 0.03786182 0.61176471 0.61568627 0.94117647
v -0.02748365 0.03059642 0.03891708 0.61176471 0.61568627 0.94117647
v -0.02809066 0.03015410 0.03913486 0.61176471 0.61568627 0.94117647
v -0.02820719 0.03024853 0.03993580 0.61176471 0.61568627 0.94117647
v -0.02645226 0.03129717 0.05000315 0.61176471 0.61568627 0.94117647
v -0.02022738 0.03474790 0.05054393 0.61176471 0.61568627 0.94117647
v -0.01926382 0.03587440 0.05023700 0.61176471 0.61568627 0.94117647
v -0.01876464 0.03649066 0.04998707 0.61176471 0.61568627 0.94117647
v -0.02125355 0.03476612 0.05015954 0.61176471 0.61568627 0.94117647
v -0.02872550 0.02976977 0.03993580 0.61176471 0.61568627 0.94117647
v -0.03019867 0.02916013 0.04719546 0.61176471 0.61568627 0.94117647
v -0.02847504 0.03034462 0.04919344 0.61176471 0.61568627 0.94117647
v -0.02772715 0.03090455 0.04926944 0.61176471 0.61568627 0.94117647
v -0.02809588 0.03016736 0.04985553 0.61176471 0.61568627 0.94117647
v -0.03127528 0.02819433 0.04823318 0.61176471 0.61568627 0.94117647
v -0.03327024 0.02601919 0.04823318 0.61176471 0.61568627 0.94117647
v -0.03320936 0.02595127 0.04876958 0.61176471 0.61568627 0.94117647
v -0.03124919 0.02710924 0.04993738 0.61176471 0.61568627 0.94117647
v -0.03090481 0.02780171 0.04958368 0.61176471 0.61568627 0.94117647
v -0.01876464 0.03059973 0.05063017 0.61176471 0.61568627 0.94117647
v -0.03059870 0.02054904 0.05134488 0.61176471 0.61568627 0.94117647
v -0.03649486 0.02054904 0.04857811 0.61176471 0.61568627 0.94117647
v -0.03633311 0.02079753 0.04884704 0.61176471 0.61568627 0.94117647
v -0.03636789 0.02085386 0.04823318 0.61176471 0.61568627 0.94117647
v -0.03413466 0.02474194 0.04823318 0.61176471 0.61568627 0.94117647
v -0.03413292 0.02471875 0.04719546 0.61176471 0.61568627 0.94117647
v -0.03327893 0.02602913 0.04742493 0.61176471 0.61568627 0.94117647
v -0.03248930 0.02529525 0.03993580 0.61176471 0.61568627 0.94117647
v -0.03015519 0.02810653 0.03908663 0.61176471 0.61568627 0.94117647
v -0.03007692 0.02800216 0.03839530 0.61176471 0.61568627 0.94117647
v -0.02999169 0.02789945 0.03786182 0.61176471 0.61568627 0.94117647
v -0.02982994 0.02768906 0.03684018 0.61176471 0.61568627 0.94117647
v -0.02594265 0.03112157 0.03684018 0.61176471 0.61568627 0.94117647
v -0.02717580 0.03023196 0.03684018 0.61176471 0.61568627 0.94117647
v -0.02640008 0.03079853 0.03684018 0.61176471 0.61568627 0.94117647
v -0.02768541 0.02984928 0.03684018 0.61176471 0.61568627 0.94117647
v -0.02788543 0.02998513 0.03786182 0.61176471 0.61568627 0.94117647
v -0.02798630 0.03006465 0.03844207 0.61176471 0.61568627 0.94117647
v -0.02847156 0.02974657 0.03883231 0.61176471 0.61568627 0.94117647
v -0.02916554 0.02915682 0.03889808 0.61176471 0.61568627 0.94117647
v -0.02645226 0.03059973 0.05041824 0.61176471 0.61568627 0.94117647
v -0.03122310 0.02605066 0.05089910 0.61176471 0.61568627 0.94117647
v -0.01919077 0.03474790 0.05063309 0.61176471 0.61568627 0.94117647
v -0.01876464 0.03517365 0.05059363 0.61176471 0.61568627 0.94117647
v -0.01876464 0.03583464 0.05037147 0.61176471 0.61568627 0.94117647
v -0.03051348 0.02641843 0.05099118 0.61176471 0.61568627 0.94117647
v -0.03059870 0.02541452 0.05126449 0.61176471 0.61568627 0.94117647
v -0.01876464 0.03621235 0.05017708 0.61176471 0.61568627 0.94117647
v -0.02922119 0.02925125 0.03993580 0.61176471 0.61568627 0.94117647
v -0.03021432 0.02813137 0.04992130 0.61176471 0.61568627 0.94117647
v -0.03369462 0.02541452 0.04823318 0.61176471 0.61568627 0.94117647
v -0.03435903 0.02410580 0.04897712 0.61176471 0.61568627 0.94117647
v -0.03441468 0.02305882 0.05003969 0.61176471 0.61568627 0.94117647
v -0.03412074 0.02268939 0.05073102 0.61176471 0.61568627 0.94117647
v -0.03220232 0.02495730 0.05085963 0.61176471 0.61568627 0.94117647
v -0.03191360 0.02564976 0.05055271 0.61176471 0.61568627 0.94117647
v -0.01876464 0.03088799 0.05070178 0.61176471 0.61568627 0.94117647
v -0.03131529 0.02054904 0.05157873 0.61176471 0.61568627 0.94117647
v -0.03642007 0.02054904 0.04901805 0.61176471 0.61568627 0.94117647
v -0.03621658 0.02060537 0.04953983 0.61176471 0.61568627 0.94117647
v -0.02976037 0.02848258 0.03880454 0.61176471 0.61568627 0.94117647
v -0.02907509 0.02907399 0.03829006 0.61176471 0.61568627 0.94117647
v -0.02940730 0.02857203 0.03791152 0.61176471 0.61568627 0.94117647
v -0.02981429 0.02770728 0.03684018 0.61176471 0.61568627 0.94117647
v -0.02982298 0.02769734 0.03684018 0.61176471 0.61568627 0.94117647
v -0.02930294 0.02829041 0.03684018 0.61176471 0.61568627 0.94117647
v -0.02830459 0.02932248 0.03684018 0.61176471 0.61568627 0.94117647
v -0.03159531 0.02534826 0.05098826 0.61176471 0.61568627 0.94117647
v -0.01876464 0.03474790 0.05064771 0.61176471 0.61568627 0.94117647
v -0.03267366 0.02126470 0.05169273 0.61176471 0.61568627 0.94117647
v -0.03371028 0.02126470 0.05150419 0.61176471 0.61568627 0.94117647
v -0.03365114 0.02054904 0.05165912 0.61176471 0.61568627 0.94117647
v -0.03327024 0.02054904 0.05172781 0.61176471 0.61568627 0.94117647
v -0.03532433 0.02188096 0.04986722 0.61176471 0.61568627 0.94117647
v -0.03472949 0.02228518 0.05029839 0.61176471 0.61568627 0.94117647
v -0.03556957 0.02054904 0.05063017 0.61176471 0.61568627 0.94117647
v -0.03527215 0.02075612 0.05083186 0.61176471 0.61568627 0.94117647
v -0.03535041 0.02054904 0.05089764 0.61176471 0.61568627 0.94117647
v -0.03435033 0.02199858 0.05092541 0.61176471 0.61568627 0.94117647
v -0.03375028 0.02232659 0.05112418 0.61176471 0.61568627 0.94117647
v -0.01876464 0.03153407 0.05079825 0.61176471 0.61568627 0.94117647
v -0.03163531 0.02054904 0.05164450 0.61176471 0.61568627 0.94117647
v -0.03626528 0.02054904 0.04948868 0.61176471 0.61568627 0.94117647
v -0.03623223 0.02054904 0.04957783 0.61176471 0.61568627 0.94117647
v -0.02881594 0.02881390 0.03684018 0.61176471 0.61568627 0.94117647
v -0.01876464 0.03220334 0.05083479 0.61176471 0.61568627 0.94117647
v -0.03272932 0.02054904 0.05177020 0.61176471 0.61568627 0.94117647
v -0.03442686 0.02054904 0.05142527 0.61176471 0.61568627 0.94117647
v -0.03582350 0.02054904 0.05030716 0.61176471 0.61568627 0.94117647
v -0.03521475 0.02054904 0.05100433 0.61176471 0.61568627 0.94117647
v -0.03473819 0.02054904 0.05126303 0.61176471 0.61568627 0.94117647
v -0.01876464 0.03173617 0.05082017 0.61176471 0.61568627 0.94117647
v -0.03235016 0.02054904 0.05174243 0.61176471 0.61568627 0.94117647
v -0.01876464 0.03207246 0.05083479 0.61176471 0.61568627 0.94117647
f 1 2 6
f 1 6 3
f 1 3 4
f 1 4 7
f 1 7 16
f 1 16 32
f 1 32 51
f 1 51 84
f 1 84 124
f 1 124 121
f 1 121 120
f 1 120 145
f 1 145 162
f 1 162 170
f 1 170 168
f 1 168 157
f 1 157 133
f 1 133 96
f 1 96 62
f 1 62 40
f 1 40 22
f 1 22 11
f 1 11 5
f 1 5 2
f 2 5 6
f 3 7 4
f 3 6 14
f 3 14 8
f 3 8 9
f 3 9 10
f 3 10 7
f 5 11 23
f 5 23 45
f 5 45 74
f 5 74 73
f 5 73 108
f 5 108 141
f 5 141 140
f 5 140 142
f 5 142 161
f 5 161 143
f 5 143 112
f 5 112 110
f 5 110 111
f 5 111 109
f 5 109 75
f 5 75 46
f 5 46 24
f 5 24 12
f 5 12 13
f 5 13 6
f 6 13 14
f 7 10 15
f 7 15 16
f 8 17 18
f 8 18 9
f 8 14 19
f 8 19 20
f 8 20 21
f 8 21 17
f 9 18 10
f 10 18 15
f 11 22 41
f 11 41 63
f 11 63 97
f 11 97 134
f 11 134 158
f 11 158 169
f 11 169 163
f 11 163 149
f 11 149 148
f 11 148 164
f 11 164 167
f 11 167 166
f 11 166 154
f 11 154 152
f 11 152 165
f 11 165 160
f 11 160 159
f 11 159 135
f 11 135 98
f 11 98 64
f 11 64 42
f 11 42 23
f 12 24 25
f 12 25 13
f 13 26 14
f 13 25 26
f 14 26 19
f 15 27 28
f 15 28 29
f 15 29 16
f 15 18 30
f 15 30 31
f 15 31 27
f 16 29 32
f 17 21 18
f 18 21 30
f 19 33 34
f 19 34 35
f 19 35 20
f 19 26 33
f 20 36 37
f 20 37 21
f 20 35 54
f 20 54 38
f 20 38 39
f 20 39 36
f 21 37 36
f 21 36 30
f 22 40 41
f 23 42 43
f 23 43 44
f 23 44 45
f 24 46 25
f 25 33 26
f 25 46 47
f 25 47 33
f 27 31 48
f 27 48 28
f 28 48 49
f 28 49 50
f 28 50 51
f 28 51 32
f 28 32 29
f 30 36 52
f 30 52 31
f 31 52 48
f 33 47 34
f 34 47 53
f 34 53 54
f 34 54 35
f 36 48 52
f 36 39 55
f 36 55 56
f 36 56 57
f 36 57 58
f 36 58 48
f 38 56 55
f 38 55 39
f 38 54 59
f 38 59 60
f 38 60 61
f 38 61 56
f 40 62 63
f 40 63 41
f 42 64 65
f 42 65 43
f 43 65 66
f 43 66 67
f 43 67 68
f 43 68 44
f 44 68 69
f 44 69 70
f 44 70 71
f 44 71 72
f 44 72 73
f 44 73 74
f 44 74 45
f 46 75 76
f 46 76 47
f 47 76 77
f 47 77 78
f 47 78 79
f 47 79 80
f 47 80 53
f 48 81 49
f 48 58 81
f 49 82 83
f 49 83 84
f 49 84 50
f 49 81 85
f 49 85 82
f 50 84 51
f 53 80 54
f 54 80 86
f 54 86 87
f 54 87 59
f 56 61 88
f 56 88 89
f 56 89 57
f 57 89 58
f 58 89 90
f 58 90 81
f 59 87 91
f 59 91 60
f 60 91 92
f 60 92 93
f 60 93 94
f 60 94 95
f 60 95 90
f 60 90 88
f 60 88 61
f 62 96 97
f 62 97 63
f 64 98 99
f 64 99 100
f 64 100 66
f 64 66 65
f 66 100 101
f 66 101 67
f 67 101 102
f 67 102 68
f 68 102 69
f 69 103 104
f 69 104 70
f 69 102 103
f 70 104 71
f 71 104 105
f 71 105 106
f 71 106 72
f 72 106 73
f 73 106 107
f 73 107 108
f 75 109 76
f 76 110 77
f 76 109 111
f 76 111 110
f 77 112 113
f 77 113 78
f 77 110 112
f 78 113 114
f 78 114 79
f 79 114 115
f 79 115 116
f 79 116 80
f 80 116 86
f 81 117 85
f 81 90 118
f 81 118 117
f 82 119 120
f 82 120 121
f 82 121 83
f 82 85 117
f 82 117 122
f 82 122 123
f 82 123 119
f 83 121 124
f 83 124 84
f 86 116 125
f 86 125 103
f 86 103 91
f 86 91 87
f 88 90 89
f 90 95 126
f 90 126 118
f 91 103 92
f 92 103 127
f 92 127 93
f 93 127 101
f 93 101 128
f 93 128 129
f 93 129 130
f 93 130 131
f 93 131 132
f 93 132 94
f 94 118 126
f 94 126 95
f 94 132 118
f 96 133 134
f 96 134 97
f 98 135 99
f 99 135 136
f 99 136 128
f 99 128 101
f 99 101 100
f 101 127 102
f 102 127 103
f 103 125 116
f 103 116 105
f 103 105 104
f 105 116 137
f 105 137 106
f 106 137 138
f 106 138 139
f 106 139 107
f 107 140 141
f 107 141 108
f 107 139 142
f 107 142 140
f 112 143 113
f 113 143 138
f 113 138 114
f 114 138 115
f 115 138 116
f 116 138 137
f 117 118 122
f 118 132 131
f 118 131 144
f 118 144 123
f 118 123 122
f 119 145 120
f 119 123 146
f 119 146 145
f 123 144 147
f 123 147 148
f 123 148 149
f 123 149 146
f 128 136 150
f 128 150 129
f 129 150 151
f 129 151 130
f 130 151 152
f 130 152 153
f 130 153 154
f 130 154 155
f 130 155 131
f 131 156 144
f 131 155 156
f 133 157 158
f 133 158 134
f 135 159 136
f 136 159 160
f 136 160 150
f 138 142 139
f 138 143 161
f 138 161 142
f 144 156 147
f 145 146 163
f 145 163 162
f 146 149 163
f 147 156 164
f 147 164 148
f 150 160 165
f 150 165 151
f 151 165 152
f 152 154 153
f 154 166 155
f 155 166 167
f 155 167 156
f 156 167 164
f 157 168 158
f 158 168 169
f 162 163 170
f 163 169 170
f 168 170 169

