# https://github.com/mikedh/trimesh
v -0.03879978 0.00646360 0.03684018 0.26274510 0.77254902 0.45490196
v -0.04108697 0.00646360 0.04615862 0.26274510 0.77254902 0.45490196
v -0.04107993 0.00674345 0.04615862 0.26274510 0.77254902 0.45490196
v -0.04095078 0.00778016 0.04615862 0.26274510 0.77254902 0.45490196
v -0.03816576 0.00986874 0.03684018 0.26274510 0.77254902 0.45490196
v -0.01740960 0.00646360 0.03684018 0.26274510 0.77254902 0.45490196
v -0.04133824 0.00646360 0.04719977 0.26274510 0.77254902 0.45490196
v -0.04131006 0.00674345 0.04719532 0.26274510 0.77254902 0.45490196
v -0.04114803 0.00778016 0.04719532 0.26274510 0.77254902 0.45490196
v -0.04062437 0.00884168 0.04617347 0.26274510 0.77254902 0.45490196
v -0.03618618 0.01723461 0.03684018 0.26274510 0.77254902 0.45490196
v -0.03634117 0.01671625 0.03684018 0.26274510 0.77254902 0.45490196
v -0.03728751 0.01328767 0.03684018 0.26274510 0.77254902 0.45490196
v -0.03793798 0.01090821 0.03684018 0.26274510 0.77254902 0.45490196
v -0.03794267 0.01089028 0.03684018 0.26274510 0.77254902 0.45490196
v -0.01740960 0.02054739 0.03684018 0.26274510 0.77254902 0.45490196
v -0.01740960 0.00646360 0.04716264 0.26274510 0.77254902 0.45490196
v -0.04138990 0.00646360 0.04823351 0.26274510 0.77254902 0.45490196
v -0.04139695 0.00646360 0.04927021 0.26274510 0.77254902 0.45490196
v -0.04092964 0.00881825 0.05030691 0.26274510 0.77254902 0.45490196
v -0.04071830 0.00985495 0.05030691 0.26274510 0.77254902 0.45490196
v -0.04041068 0.01120874 0.04927021 0.26274510 0.77254902 0.45490196
v -0.03906044 0.01503987 0.04823351 0.26274510 0.77254902 0.45490196
v -0.03873638 0.01607658 0.04823351 0.26274510 0.77254902 0.45490196
v -0.03589970 0.01815138 0.03684018 0.26274510 0.77254902 0.45490196
v -0.01740960 0.02054739 0.04560313 0.26274510 0.77254902 0.45490196
v -0.03480776 0.02054739 0.03684018 0.26274510 0.77254902 0.45490196
v -0.03131592 0.02054739 0.05157828 0.26274510 0.77254902 0.45490196
v -0.03163528 0.02022617 0.05165848 0.26274510 0.77254902 0.45490196
v -0.02956178 0.00646360 0.05001135 0.26274510 0.77254902 0.45490196
v -0.02973555 0.02054739 0.05098864 0.26274510 0.77254902 0.45490196
v -0.03030382 0.02054739 0.05123370 0.26274510 0.77254902 0.45490196
v -0.03059970 0.02054739 0.05134510 0.26274510 0.77254902 0.45490196
v -0.04137581 0.00646360 0.04983906 0.26274510 0.77254902 0.45490196
v -0.04111516 0.00778016 0.05030691 0.26274510 0.77254902 0.45490196
v -0.04057740 0.00985495 0.05098418 0.26274510 0.77254902 0.45490196
v -0.04047643 0.01044086 0.05086685 0.26274510 0.77254902 0.45490196
v -0.04052575 0.01064765 0.05030691 0.26274510 0.77254902 0.45490196
v -0.04036606 0.01116600 0.05030691 0.26274510 0.77254902 0.45490196
v -0.03880683 0.01607658 0.04927021 0.26274510 0.77254902 0.45490196
v -0.03846868 0.01678518 0.04823351 0.26274510 0.77254902 0.45490196
v -0.03841937 0.01668041 0.04760376 0.26274510 0.77254902 0.45490196
v -0.03553807 0.01918946 0.03684018 0.26274510 0.77254902 0.45490196
v -0.03530559 0.01977261 0.03684018 0.26274510 0.77254902 0.45490196
v -0.03651494 0.02054739 0.04719532 0.26274510 0.77254902 0.45490196
v -0.03163528 0.02054739 0.05164512 0.26274510 0.77254902 0.45490196
v -0.03276244 0.02013380 0.05181592 0.26274510 0.77254902 0.45490196
v -0.03276244 0.01927769 0.05180552 0.26274510 0.77254902 0.45490196
v -0.03845694 0.00646360 0.05193326 0.26274510 0.77254902 0.45490196
v -0.04132415 0.00646360 0.05028760 0.26274510 0.77254902 0.45490196
v -0.04128893 0.00674345 0.05030691 0.26274510 0.77254902 0.45490196
v -0.04070891 0.00881825 0.05117430 0.26274510 0.77254902 0.45490196
v -0.04053749 0.00749203 0.05192880 0.26274510 0.77254902 0.45490196
v -0.03967568 0.01192975 0.05113271 0.26274510 0.77254902 0.45490196
v -0.03951835 0.01269625 0.05097824 0.26274510 0.77254902 0.45490196
v -0.03841702 0.01564922 0.05086833 0.26274510 0.77254902 0.45490196
v -0.03858140 0.01602695 0.05030246 0.26274510 0.77254902 0.45490196
v -0.03846164 0.01678243 0.04995342 0.26274510 0.77254902 0.45490196
v -0.03849921 0.01686238 0.04927021 0.26274510 0.77254902 0.45490196
v -0.03825499 0.01738074 0.04927021 0.26274510 0.77254902 0.45490196
v -0.03821742 0.01730354 0.04823351 0.26274510 0.77254902 0.45490196
v -0.03779943 0.01815138 0.04823351 0.26274510 0.77254902 0.45490196
v -0.03670515 0.02022617 0.04823351 0.26274510 0.77254902 0.45490196
v -0.03653138 0.02054739 0.04823351 0.26274510 0.77254902 0.45490196
v -0.03234915 0.02054739 0.05174166 0.26274510 0.77254902 0.45490196
v -0.03316634 0.01972574 0.05186493 0.26274510 0.77254902 0.45490196
v -0.03316634 0.01968300 0.05186493 0.26274510 0.77254902 0.45490196
v -0.03272956 0.02054739 0.05177137 0.26274510 0.77254902 0.45490196
v -0.03889606 0.00646360 0.05201346 0.26274510 0.77254902 0.45490196
v -0.04094373 0.00646360 0.05118469 0.26274510 0.77254902 0.45490196
v -0.04077466 0.00781463 0.05141788 0.26274510 0.77254902 0.45490196
v -0.04081458 0.00664971 0.05144461 0.26274510 0.77254902 0.45490196
v -0.04053749 0.00693370 0.05192880 0.26274510 0.77254902 0.45490196
v -0.04000444 0.00646360 0.05199713 0.26274510 0.77254902 0.45490196
v -0.04003026 0.00664971 0.05198969 0.26274510 0.77254902 0.45490196
v -0.03661591 0.01607658 0.05194365 0.26274510 0.77254902 0.45490196
v -0.03644684 0.01679621 0.05192286 0.26274510 0.77254902 0.45490196
v -0.03713253 0.01607658 0.05176691 0.26274510 0.77254902 0.45490196
v -0.03789571 0.01602695 0.05118915 0.26274510 0.77254902 0.45490196
v -0.03826438 0.01633989 0.05064406 0.26274510 0.77254902 0.45490196
v -0.03754112 0.01711467 0.05103320 0.26274510 0.77254902 0.45490196
v -0.03807417 0.01712294 0.05030246 0.26274510 0.77254902 0.45490196
v -0.03737674 0.01871798 0.04984797 0.26274510 0.77254902 0.45490196
v -0.03783231 0.01815138 0.04927021 0.26274510 0.77254902 0.45490196
v -0.03649615 0.02054739 0.04857808 0.26274510 0.77254902 0.45490196
v -0.03320626 0.01972574 0.05186493 0.26274510 0.77254902 0.45490196
v -0.03578463 0.01607658 0.05196444 0.26274510 0.77254902 0.45490196
v -0.03326966 0.02054739 0.05172681 0.26274510 0.77254902 0.45490196
v -0.04082632 0.00646360 0.05142084 0.26274510 0.77254902 0.45490196
v -0.04064316 0.00646360 0.05163324 0.26274510 0.77254902 0.45490196
v -0.04021578 0.00646360 0.05192880 0.26274510 0.77254902 0.45490196
v -0.03577759 0.01713121 0.05193326 0.26274510 0.77254902 0.45490196
v -0.03542770 0.01790736 0.05190058 0.26274510 0.77254902 0.45490196
v -0.03515061 0.01859804 0.05185305 0.26274510 0.77254902 0.45490196
v -0.03577759 0.01821203 0.05172978 0.26274510 0.77254902 0.45490196
v -0.03680377 0.01713121 0.05158571 0.26274510 0.77254902 0.45490196
v -0.03737674 0.01768817 0.05086833 0.26274510 0.77254902 0.45490196
v -0.03681082 0.01808107 0.05113865 0.26274510 0.77254902 0.45490196
v -0.03645858 0.01890271 0.05100646 0.26274510 0.77254902 0.45490196
v -0.03754112 0.01808107 0.05024008 0.26274510 0.77254902 0.45490196
v -0.03743780 0.01882000 0.04927021 0.26274510 0.77254902 0.45490196
v -0.03715132 0.01838022 0.05054010 0.26274510 0.77254902 0.45490196
v -0.03622375 0.01959477 0.05070050 0.26274510 0.77254902 0.45490196
v -0.03582220 0.02054739 0.05030840 0.26274510 0.77254902 0.45490196
v -0.03623315 0.02054739 0.04957765 0.26274510 0.77254902 0.45490196
v -0.03626368 0.02054739 0.04948854 0.26274510 0.77254902 0.45490196
v -0.03641866 0.02054739 0.04901772 0.26274510 0.77254902 0.45490196
v -0.03445787 0.01879932 0.05188276 0.26274510 0.77254902 0.45490196
v -0.03365008 0.02054739 0.05165848 0.26274510 0.77254902 0.45490196
v -0.03442734 0.02054739 0.05142530 0.26274510 0.77254902 0.45490196
v -0.03584099 0.01922531 0.05126935 0.26274510 0.77254902 0.45490196
v -0.03546997 0.02022617 0.05099755 0.26274510 0.77254902 0.45490196
v -0.03535021 0.02054739 0.05089655 0.26274510 0.77254902 0.45490196
v -0.03556859 0.02054739 0.05062921 0.26274510 0.77254902 0.45490196
v -0.03473732 0.02054739 0.05126341 0.26274510 0.77254902 0.45490196
v -0.03521401 0.02054739 0.05100498 0.26274510 0.77254902 0.45490196
f 1 2 3
f 1 3 4
f 1 4 5
f 1 5 15
f 1 15 14
f 1 14 13
f 1 13 12
f 1 12 11
f 1 11 25
f 1 25 43
f 1 43 44
f 1 44 27
f 1 27 16
f 1 16 6
f 1 6 17
f 1 17 30
f 1 30 49
f 1 49 69
f 1 69 74
f 1 74 91
f 1 91 90
f 1 90 89
f 1 89 70
f 1 70 50
f 1 50 34
f 1 34 19
f 1 19 18
f 1 18 7
f 1 7 2
f 2 7 3
f 3 7 8
f 3 8 4
f 4 8 9
f 4 9 10
f 4 10 11
f 4 11 12
f 4 12 13
f 4 13 14
f 4 14 15
f 4 15 5
f 6 16 26
f 6 26 17
f 7 18 8
f 8 18 9
f 9 18 19
f 9 19 20
f 9 20 21
f 9 21 22
f 9 22 23
f 9 23 24
f 9 24 10
f 10 24 25
f 10 25 11
f 16 27 45
f 16 45 64
f 16 64 85
f 16 85 107
f 16 107 106
f 16 106 105
f 16 105 104
f 16 104 114
f 16 114 113
f 16 113 116
f 16 116 115
f 16 115 110
f 16 110 109
f 16 109 88
f 16 88 68
f 16 68 65
f 16 65 46
f 16 46 28
f 16 28 33
f 16 33 32
f 16 32 31
f 16 31 26
f 17 28 29
f 17 29 30
f 17 26 31
f 17 31 32
f 17 32 33
f 17 33 28
f 19 34 20
f 20 34 35
f 20 35 36
f 20 36 21
f 21 36 37
f 21 37 38
f 21 38 22
f 22 38 39
f 22 39 40
f 22 40 24
f 22 24 23
f 24 40 41
f 24 41 42
f 24 42 25
f 25 42 43
f 27 44 45
f 28 46 29
f 29 46 47
f 29 47 48
f 29 48 49
f 29 49 30
f 34 50 51
f 34 51 35
f 35 51 52
f 35 52 36
f 36 53 37
f 36 52 53
f 37 39 38
f 37 53 54
f 37 54 55
f 37 55 56
f 37 56 57
f 37 57 58
f 37 58 39
f 39 58 40
f 40 58 59
f 40 59 41
f 41 59 60
f 41 60 61
f 41 61 45
f 41 45 44
f 41 44 42
f 42 44 43
f 45 61 62
f 45 62 60
f 45 60 63
f 45 63 64
f 46 65 47
f 47 66 67
f 47 67 48
f 47 65 68
f 47 68 66
f 48 67 69
f 48 69 49
f 50 70 71
f 50 71 51
f 51 71 52
f 52 71 53
f 53 71 72
f 53 72 73
f 53 73 74
f 53 74 75
f 53 75 76
f 53 76 77
f 53 77 78
f 53 78 79
f 53 79 54
f 54 56 55
f 54 79 56
f 56 80 57
f 56 79 81
f 56 81 80
f 57 80 58
f 58 80 82
f 58 82 83
f 58 83 84
f 58 84 60
f 58 60 59
f 60 84 64
f 60 64 63
f 60 62 61
f 64 84 85
f 66 68 86
f 66 86 87
f 66 87 67
f 67 87 69
f 68 88 86
f 69 87 74
f 70 89 72
f 70 72 71
f 72 89 73
f 73 89 90
f 73 90 91
f 73 91 74
f 74 87 76
f 74 76 75
f 76 87 92
f 76 92 77
f 77 92 93
f 77 93 94
f 77 94 95
f 77 95 96
f 77 96 78
f 78 96 81
f 78 81 79
f 80 81 97
f 80 97 82
f 81 96 98
f 81 98 99
f 81 99 97
f 82 97 100
f 82 100 83
f 83 101 84
f 83 100 102
f 83 102 103
f 83 103 104
f 83 104 105
f 83 105 106
f 83 106 107
f 83 107 101
f 84 101 85
f 85 101 107
f 86 88 94
f 86 94 108
f 86 108 92
f 86 92 87
f 88 109 94
f 92 108 93
f 93 108 94
f 94 109 110
f 94 110 95
f 95 111 96
f 95 110 111
f 96 111 99
f 96 99 98
f 97 102 100
f 97 99 103
f 97 103 102
f 99 111 112
f 99 112 113
f 99 113 103
f 103 113 114
f 103 114 104
f 110 115 111
f 111 115 116
f 111 116 112
f 112 116 113

