# https://github.com/mikedh/trimesh
v -0.05529755 0.04524527 -0.03249714 0.54509804 0.71372549 0.60000000
v -0.05529755 0.04485553 -0.03362981 0.54509804 0.71372549 0.60000000
v -0.05643713 0.04466951 -0.03336209 0.54509804 0.71372549 0.60000000
v -0.05643713 0.04487324 -0.03249714 0.54509804 0.71372549 0.60000000
v -0.05643713 0.04488210 -0.03021809 0.54509804 0.71372549 0.60000000
v -0.05643713 0.04488210 -0.01539049 0.54509804 0.71372549 0.60000000
v -0.05643713 0.04487324 -0.01083238 0.54509804 0.71372549 0.60000000
v -0.05643713 0.04486439 -0.00854646 0.54509804 0.71372549 0.60000000
v -0.05643713 0.04482895 0.00056976 0.54509804 0.71372549 0.60000000
v -0.05711410 0.04455436 0.02679264 0.54509804 0.71372549 0.60000000
v -0.05710282 0.04454551 0.02907856 0.54509804 0.71372549 0.60000000
v -0.05709154 0.04453665 0.03135762 0.54509804 0.71372549 0.60000000
v -0.05709154 0.04452779 0.03249714 0.54509804 0.71372549 0.60000000
v -0.05643713 0.04461637 0.03021809 0.54509804 0.71372549 0.60000000
v -0.05529755 0.04491753 0.00056976 0.54509804 0.71372549 0.60000000
v -0.05073926 0.04505925 -0.01425097 0.54509804 0.71372549 0.60000000
v -0.01538989 0.04504154 -0.01653002 0.54509804 0.71372549 0.60000000
v 0.03705308 0.04509468 -0.02793217 0.54509804 0.71372549 0.60000000
v 0.02793649 0.04513897 -0.03135762 0.54509804 0.71372549 0.60000000
v -0.01652947 0.04520098 -0.03249714 0.54509804 0.71372549 0.60000000
v -0.04390181 0.04485553 -0.03357489 0.54509804 0.71372549 0.60000000
v -0.00056415 0.04482895 -0.03342387 0.54509804 0.71372549 0.60000000
v -0.05526370 0.04389889 -0.03419957 0.54509804 0.71372549 0.60000000
v -0.00170372 0.04518326 -0.03249714 0.54509804 0.71372549 0.60000000
v -0.05588426 0.04352687 -0.03420644 0.54509804 0.71372549 0.60000000
v -0.05633558 0.04389889 -0.03377397 0.54509804 0.71372549 0.60000000
v -0.05701255 0.04447464 -0.03308750 0.54509804 0.71372549 0.60000000
v -0.05702384 0.04448350 -0.03249714 0.54509804 0.71372549 0.60000000
v -0.05704640 0.04452779 -0.02679264 0.54509804 0.71372549 0.60000000
v -0.05706897 0.04456322 -0.01995547 0.54509804 0.71372549 0.60000000
v -0.05708025 0.04457208 -0.01766955 0.54509804 0.71372549 0.60000000
v -0.05710282 0.04458980 -0.01197191 0.54509804 0.71372549 0.60000000
v -0.05711410 0.04459865 -0.00740693 0.54509804 0.71372549 0.60000000
v -0.05712538 0.04460751 0.00056976 0.54509804 0.71372549 0.60000000
v -0.05713667 0.04459865 0.00969285 0.54509804 0.71372549 0.60000000
v -0.05713667 0.04458980 0.01425097 0.54509804 0.71372549 0.60000000
v -0.05713667 0.04458094 0.01766955 0.54509804 0.71372549 0.60000000
v -0.05712538 0.04457208 0.02109500 0.54509804 0.71372549 0.60000000
v -0.05712538 0.04456322 0.02337405 0.54509804 0.71372549 0.60000000
v -0.05711410 0.04454551 0.02793217 0.54509804 0.71372549 0.60000000
v -0.05710282 0.04453665 0.03021809 0.54509804 0.71372549 0.60000000
v -0.05705769 0.04451007 0.03321107 0.54509804 0.71372549 0.60000000
v -0.05643713 0.04458980 0.03249714 0.54509804 0.71372549 0.60000000
v -0.05735104 0.04389889 0.03249714 0.54509804 0.71372549 0.60000000
v -0.05529755 0.04459865 0.03249714 0.54509804 0.71372549 0.60000000
v -0.05529755 0.04463408 0.02907856 0.54509804 0.71372549 0.60000000
v -0.05529755 0.04471380 0.02109500 0.54509804 0.71372549 0.60000000
v -0.05301841 0.04472266 0.01995547 0.54509804 0.71372549 0.60000000
v -0.05073926 0.04473152 0.01880908 0.54509804 0.71372549 0.60000000
v -0.04161138 0.04468723 0.02223453 0.54509804 0.71372549 0.60000000
v -0.00626202 0.04466951 0.01995547 0.54509804 0.71372549 0.60000000
v 0.05073926 0.04486439 -0.00626740 0.54509804 0.71372549 0.60000000
v 0.04618096 0.04505040 -0.02451358 0.54509804 0.71372549 0.60000000
v 0.05073926 0.04511240 -0.03135762 0.54509804 0.71372549 0.60000000
v 0.01880861 0.04513012 -0.03249714 0.54509804 0.71372549 0.60000000
v 0.02679692 0.04510354 -0.03249714 0.54509804 0.71372549 0.60000000
v 0.01311074 0.04480238 -0.03336895 0.54509804 0.71372549 0.60000000
v 0.01197117 0.04480238 -0.03337582 0.54509804 0.71372549 0.60000000
v -0.05415798 0.04389889 -0.03419271 0.54509804 0.71372549 0.60000000
v -0.05485752 0.04323456 -0.03420644 0.54509804 0.71372549 0.60000000
v -0.05561347 0.04352687 -0.03420644 0.54509804 0.71372549 0.60000000
v 0.03705308 0.04473152 -0.03327971 0.54509804 0.71372549 0.60000000
v 0.04047181 0.04472266 -0.03326598 0.54509804 0.71372549 0.60000000
v 0.05643713 0.04466066 -0.03320420 0.54509804 0.71372549 0.60000000
v 0.05529755 0.04510354 -0.03135762 0.54509804 0.71372549 0.60000000
v -0.05529755 0.04161360 -0.03422703 0.54509804 0.71372549 0.60000000
v -0.05529755 0.03135635 -0.03433000 0.54509804 0.71372549 0.60000000
v -0.05529755 0.01196679 -0.03452221 0.54509804 0.71372549 0.60000000
v -0.05529755 -0.04275625 -0.03506451 0.54509804 0.71372549 0.60000000
v -0.05589555 0.04275625 -0.03421330 0.54509804 0.71372549 0.60000000
v -0.05595196 0.04047981 -0.03422703 0.54509804 0.71372549 0.60000000
v -0.05701255 0.00671416 -0.03419271 0.54509804 0.71372549 0.60000000
v -0.05702384 0.04389889 -0.03309437 0.54509804 0.71372549 0.60000000
v -0.05703512 0.04389889 -0.03249714 0.54509804 0.71372549 0.60000000
v -0.05711410 0.04389889 -0.02223453 0.54509804 0.71372549 0.60000000
v -0.05718180 0.04389889 -0.01311144 0.54509804 0.71372549 0.60000000
v -0.05720436 0.04389889 -0.00969285 0.54509804 0.71372549 0.60000000
v -0.05724950 0.04389889 -0.00284882 0.54509804 0.71372549 0.60000000
v -0.05730591 0.04389889 0.00854646 0.54509804 0.71372549 0.60000000
v -0.05731719 0.04389889 0.01083238 0.54509804 0.71372549 0.60000000
v -0.05706897 0.04455436 -0.02109500 0.54509804 0.71372549 0.60000000
v -0.05733976 0.04389889 0.01766955 0.54509804 0.71372549 0.60000000
v -0.05712538 0.04459865 -0.00398835 0.54509804 0.71372549 0.60000000
v -0.05713667 0.04459865 0.00284882 0.54509804 0.71372549 0.60000000
v -0.05713667 0.04457208 0.01880908 0.54509804 0.71372549 0.60000000
v -0.05718180 0.04389889 0.03345133 0.54509804 0.71372549 0.60000000
v -0.05639200 0.04379260 0.03392499 0.54509804 0.71372549 0.60000000
v -0.05643713 0.04452779 0.03329344 0.54509804 0.71372549 0.60000000
v -0.05735104 0.04389889 0.02337405 0.54509804 0.71372549 0.60000000
v -0.05753157 0.04275625 0.03249714 0.54509804 0.71372549 0.60000000
v -0.05415798 0.04459865 0.03249714 0.54509804 0.71372549 0.60000000
v -0.05529755 0.04452779 0.03330717 0.54509804 0.71372549 0.60000000
v 0.00056415 0.04448350 0.03422017 0.54509804 0.71372549 0.60000000
v 0.00512244 0.04448350 0.03422703 0.54509804 0.71372549 0.60000000
v -0.04161138 0.04460751 0.03021809 0.54509804 0.71372549 0.60000000
v -0.03933223 0.04461637 0.02907856 0.54509804 0.71372549 0.60000000
v -0.03135521 0.04460751 0.02907856 0.54509804 0.71372549 0.60000000
v -0.01994819 0.04457208 0.03135762 0.54509804 0.71372549 0.60000000
v 0.02450648 0.04451007 0.03249714 0.54509804 0.71372549 0.60000000
v 0.05529755 0.04467837 0.01197191 0.54509804 0.71372549 0.60000000
v 0.05415798 0.04483781 -0.00398835 0.54509804 0.71372549 0.60000000
v 0.05301841 0.04499725 -0.01995547 0.54509804 0.71372549 0.60000000
v 0.05415798 0.04508583 -0.02907856 0.54509804 0.71372549 0.60000000
v 0.05529755 0.04509468 -0.03021809 0.54509804 0.71372549 0.60000000
v 0.04276224 0.04504154 -0.03249714 0.54509804 0.71372549 0.60000000
v 0.04732053 0.04502382 -0.03249714 0.54509804 0.71372549 0.60000000
v 0.02679692 0.04476695 -0.03331403 0.54509804 0.71372549 0.60000000
v 0.02565734 0.04476695 -0.03332090 0.54509804 0.71372549 0.60000000
v 0.02793649 0.04475809 -0.03331403 0.54509804 0.71372549 0.60000000
v -0.05301841 0.04275625 -0.03419957 0.54509804 0.71372549 0.60000000
v -0.05405643 0.04280939 -0.03420644 0.54509804 0.71372549 0.60000000
v 0.00170372 0.04389889 -0.03376710 0.54509804 0.71372549 0.60000000
v -0.05526370 0.04280939 -0.03421330 0.54509804 0.71372549 0.60000000
v 0.03819266 0.04473152 -0.03327285 0.54509804 0.71372549 0.60000000
v 0.05301841 0.04499725 -0.03249714 0.54509804 0.71372549 0.60000000
v 0.05643713 0.04497068 -0.03249714 0.54509804 0.71372549 0.60000000
v 0.05713667 0.04458980 -0.03315615 0.54509804 0.71372549 0.60000000
v 0.05643713 0.04389889 -0.03334149 0.54509804 0.71372549 0.60000000
v 0.05529755 0.04389889 -0.03335522 0.54509804 0.71372549 0.60000000
v 0.03477393 0.04389889 -0.03351311 0.54509804 0.71372549 0.60000000
v 0.05643713 0.04509468 -0.03135762 0.54509804 0.71372549 0.60000000
v -0.05301841 0.04137444 -0.03421330 0.54509804 0.71372549 0.60000000
v -0.05301841 0.02337554 -0.03439178 0.54509804 0.71372549 0.60000000
v -0.01766904 -0.04389889 -0.03451534 0.54509804 0.71372549 0.60000000
v -0.05529755 -0.04389004 -0.03463891 0.54509804 0.71372549 0.60000000
v -0.05643713 -0.04371288 -0.03448102 0.54509804 0.71372549 0.60000000
v -0.05643713 -0.04275625 -0.03475561 0.54509804 0.71372549 0.60000000
v -0.05643713 -0.04161360 -0.03474874 0.54509804 0.71372549 0.60000000
v -0.05643713 -0.01652852 -0.03457026 0.54509804 0.71372549 0.60000000
v -0.05643713 -0.01083300 -0.03452907 0.54509804 0.71372549 0.60000000
v -0.05643713 -0.00170954 -0.03446043 0.54509804 0.71372549 0.60000000
v -0.05635815 0.01538587 -0.03435059 0.54509804 0.71372549 0.60000000
v -0.05629045 0.02109025 -0.03432314 0.54509804 0.71372549 0.60000000
v -0.05616634 0.02907106 -0.03428195 0.54509804 0.71372549 0.60000000
v -0.05606479 0.03477543 -0.03425449 0.54509804 0.71372549 0.60000000
v -0.04952070 0.03937259 -0.03420644 0.54509804 0.71372549 0.60000000
v -0.02450648 -0.01538587 -0.03455653 0.54509804 0.71372549 0.60000000
v -0.00740159 -0.02450933 -0.03451534 0.54509804 0.71372549 0.60000000
v 0.04732053 -0.04275625 -0.03427508 0.54509804 0.71372549 0.60000000
v 0.05529755 -0.04335857 -0.03421330 0.54509804 0.71372549 0.60000000
v 0.05187883 -0.04343829 -0.03422703 0.54509804 0.71372549 0.60000000
v 0.04846011 -0.04350915 -0.03424076 0.54509804 0.71372549 0.60000000
v 0.03933223 -0.04365973 -0.03427508 0.54509804 0.71372549 0.60000000
v 0.03591351 -0.04370402 -0.03428881 0.54509804 0.71372549 0.60000000
v 0.03363436 -0.04373945 -0.03429568 0.54509804 0.71372549 0.60000000
v 0.03021564 -0.04377488 -0.03430941 0.54509804 0.71372549 0.60000000
v 0.02336691 -0.04383689 -0.03433686 0.54509804 0.71372549 0.60000000
v 0.01994819 -0.04385460 -0.03435059 0.54509804 0.71372549 0.60000000
v 0.01425032 -0.04389004 -0.03437119 0.54509804 0.71372549 0.60000000
v 0.00855245 -0.04389889 -0.03439865 0.54509804 0.71372549 0.60000000
v -0.00284329 -0.04389889 -0.03445356 0.54509804 0.71372549 0.60000000
v 0.01142959 -0.04446579 -0.03420644 0.54509804 0.71372549 0.60000000
v 0.00855245 -0.04447464 -0.03421330 0.54509804 0.71372549 0.60000000
v -0.05701255 0.00595239 -0.03420644 0.54509804 0.71372549 0.60000000
v -0.05702384 0.00284333 -0.03422017 0.54509804 0.71372549 0.60000000
v -0.05703512 -0.00170954 -0.03423390 0.54509804 0.71372549 0.60000000
v -0.05709154 -0.01196679 -0.03363667 0.54509804 0.71372549 0.60000000
v -0.05710282 -0.01881381 -0.03363667 0.54509804 0.71372549 0.60000000
v -0.05704640 0.03477543 -0.03249714 0.54509804 0.71372549 0.60000000
v -0.05712538 0.03477543 -0.02223453 0.54509804 0.71372549 0.60000000
v -0.05731719 0.04275625 0.00398835 0.54509804 0.71372549 0.60000000
v -0.05750900 0.04275625 0.02907856 0.54509804 0.71372549 0.60000000
v -0.05727206 0.04275625 0.03361608 0.54509804 0.71372549 0.60000000
v -0.05639200 0.04277396 0.03419271 0.54509804 0.71372549 0.60000000
v -0.05598581 0.04334085 0.03420644 0.54509804 0.71372549 0.60000000
v -0.05529755 0.04392546 0.03387693 0.54509804 0.71372549 0.60000000
v -0.05073926 0.04403176 0.03389066 0.54509804 0.71372549 0.60000000
v -0.04732053 0.04410262 0.03390439 0.54509804 0.71372549 0.60000000
v -0.04390181 0.04416463 0.03391812 0.54509804 0.71372549 0.60000000
v -0.03933223 0.04423549 0.03393871 0.54509804 0.71372549 0.60000000
v -0.02793649 0.04436835 0.03400736 0.54509804 0.71372549 0.60000000
v -0.01311074 0.04446579 0.03417898 0.54509804 0.71372549 0.60000000
v -0.01142959 0.04446579 0.03420644 0.54509804 0.71372549 0.60000000
v -0.00969202 0.04447464 0.03420644 0.54509804 0.71372549 0.60000000
v -0.05753157 0.03933716 0.03135762 0.54509804 0.71372549 0.60000000
v -0.05754285 0.03706073 0.03249714 0.54509804 0.71372549 0.60000000
v -0.02222734 0.04456322 0.03249714 0.54509804 0.71372549 0.60000000
v 0.02336691 0.04448350 0.03422703 0.54509804 0.71372549 0.60000000
v 0.03933223 0.04447464 0.03420644 0.54509804 0.71372549 0.60000000
v 0.02222734 0.04450122 0.03363667 0.54509804 0.71372549 0.60000000
v -0.00855245 0.04447464 0.03421330 0.54509804 0.71372549 0.60000000
v 0.05529755 0.04389004 0.03463891 0.54509804 0.71372549 0.60000000
v 0.04846011 0.04447464 0.03325912 0.54509804 0.71372549 0.60000000
v 0.05415798 0.04451007 0.02907856 0.54509804 0.71372549 0.60000000
v 0.05073926 0.04453665 0.02679264 0.54509804 0.71372549 0.60000000
v 0.05529755 0.04459865 0.01995547 0.54509804 0.71372549 0.60000000
v 0.05588426 0.04447464 0.03215391 0.54509804 0.71372549 0.60000000
v 0.05643713 0.04507697 -0.02907856 0.54509804 0.71372549 0.60000000
v 0.05529755 0.04505040 -0.02565311 0.54509804 0.71372549 0.60000000
v 0.05415798 0.04496182 -0.01653002 0.54509804 0.71372549 0.60000000
v 0.03021564 0.04475809 -0.03330031 0.54509804 0.71372549 0.60000000
v 0.05726078 0.04472266 -0.03249714 0.54509804 0.71372549 0.60000000
v 0.05750900 0.04389889 -0.03249714 0.54509804 0.71372549 0.60000000
v 0.05719308 0.04389889 -0.03320420 0.54509804 0.71372549 0.60000000
v 0.05643713 0.04161360 -0.03336895 0.54509804 0.71372549 0.60000000
v 0.05415798 -0.02450933 -0.03404168 0.54509804 0.71372549 0.60000000
v 0.05728335 0.04474038 -0.02337405 0.54509804 0.71372549 0.60000000
v 0.05730591 0.04476695 -0.02793217 0.54509804 0.71372549 0.60000000
v 0.05731719 0.04478466 -0.03135762 0.54509804 0.71372549 0.60000000
v -0.00512244 -0.04448350 -0.03422703 0.54509804 0.71372549 0.60000000
v -0.02336691 -0.04448350 -0.03422703 0.54509804 0.71372549 0.60000000
v -0.03819266 -0.04447464 -0.03421330 0.54509804 0.71372549 0.60000000
v -0.04134059 -0.04446579 -0.03420644 0.54509804 0.71372549 0.60000000
v -0.04210783 -0.04446579 -0.03419957 0.54509804 0.71372549 0.60000000
v -0.05529755 -0.04445693 -0.03363667 0.54509804 0.71372549 0.60000000
v -0.05643713 -0.04411148 -0.03363667 0.54509804 0.71372549 0.60000000
v -0.05704640 -0.04346486 -0.03428881 0.54509804 0.71372549 0.60000000
v -0.05701255 0.00512862 -0.03421330 0.54509804 0.71372549 0.60000000
v -0.05706897 -0.04275625 -0.03433000 0.54509804 0.71372549 0.60000000
v -0.05704640 -0.01196679 -0.03426135 0.54509804 0.71372549 0.60000000
v -0.05704640 -0.00969035 -0.03425449 0.54509804 0.71372549 0.60000000
v -0.05642584 0.00854771 -0.03438492 0.54509804 0.71372549 0.60000000
v 0.05415798 -0.04185276 -0.03421330 0.54509804 0.71372549 0.60000000
v 0.05524114 -0.04277396 -0.03421330 0.54509804 0.71372549 0.60000000
v 0.05598581 -0.04316370 -0.03420644 0.54509804 0.71372549 0.60000000
v 0.05598581 -0.04334085 -0.03420644 0.54509804 0.71372549 0.60000000
v 0.05529755 -0.04392546 -0.03387693 0.54509804 0.71372549 0.60000000
v 0.05073926 -0.04403176 -0.03389066 0.54509804 0.71372549 0.60000000
v 0.04732053 -0.04410262 -0.03390439 0.54509804 0.71372549 0.60000000
v 0.04390181 -0.04416463 -0.03391812 0.54509804 0.71372549 0.60000000
v 0.04618096 -0.04355344 -0.03424763 0.54509804 0.71372549 0.60000000
v 0.04276224 -0.04360659 -0.03426135 0.54509804 0.71372549 0.60000000
v 0.03705308 -0.04369516 -0.03428195 0.54509804 0.71372549 0.60000000
v 0.03933223 -0.04423549 -0.03393871 0.54509804 0.71372549 0.60000000
v 0.01311074 -0.04446579 -0.03417898 0.54509804 0.71372549 0.60000000
v 0.05643713 -0.04452779 -0.03329344 0.54509804 0.71372549 0.60000000
v 0.00969202 -0.04447464 -0.03420644 0.54509804 0.71372549 0.60000000
v -0.00056415 -0.04448350 -0.03422017 0.54509804 0.71372549 0.60000000
v -0.05704640 -0.00854771 -0.03424763 0.54509804 0.71372549 0.60000000
v -0.05705769 -0.01881381 -0.03426822 0.54509804 0.71372549 0.60000000
v -0.05711410 -0.02793727 -0.03363667 0.54509804 0.71372549 0.60000000
v -0.05708025 0.01425208 -0.03135762 0.54509804 0.71372549 0.60000000
v -0.05713667 -0.01767116 -0.02907856 0.54509804 0.71372549 0.60000000
v -0.05747516 -0.00056689 0.01766955 0.54509804 0.71372549 0.60000000
v -0.05741874 0.03135635 0.01539049 0.54509804 0.71372549 0.60000000
v -0.05744131 0.04161360 0.01995547 0.54509804 0.71372549 0.60000000
v -0.05748644 0.04047981 0.02565311 0.54509804 0.71372549 0.60000000
v -0.05756542 0.01881381 0.03249714 0.54509804 0.71372549 0.60000000
v -0.05759927 -0.00969035 0.03249714 0.54509804 0.71372549 0.60000000
v -0.05730591 -0.00170954 0.03338954 0.54509804 0.71372549 0.60000000
v -0.05730591 -0.01083300 0.03336209 0.54509804 0.71372549 0.60000000
v -0.05730591 -0.01310944 0.03335522 0.54509804 0.71372549 0.60000000
v -0.05643713 0.04161360 0.03417211 0.54509804 0.71372549 0.60000000
v -0.05598581 0.04316370 0.03420644 0.54509804 0.71372549 0.60000000
v -0.05719308 -0.04389889 0.03320420 0.54509804 0.71372549 0.60000000
v -0.05643713 -0.01425208 0.03363667 0.54509804 0.71372549 0.60000000
v -0.05643713 -0.01994760 0.03358175 0.54509804 0.71372549 0.60000000
v -0.05529755 0.04335857 0.03421330 0.54509804 0.71372549 0.60000000
v -0.05187883 0.04343829 0.03422703 0.54509804 0.71372549 0.60000000
v -0.04846011 0.04350915 0.03424076 0.54509804 0.71372549 0.60000000
v -0.04618096 0.04355344 0.03424763 0.54509804 0.71372549 0.60000000
v -0.04276224 0.04360659 0.03426135 0.54509804 0.71372549 0.60000000
v -0.03933223 0.04365973 0.03427508 0.54509804 0.71372549 0.60000000
v -0.03705308 0.04369516 0.03428195 0.54509804 0.71372549 0.60000000
v -0.03363436 0.04373945 0.03429568 0.54509804 0.71372549 0.60000000
v -0.03021564 0.04377488 0.03430941 0.54509804 0.71372549 0.60000000
v -0.02336691 0.04383689 0.03433686 0.54509804 0.71372549 0.60000000
v -0.01994819 0.04385460 0.03435059 0.54509804 0.71372549 0.60000000
v -0.01425032 0.04389004 0.03437119 0.54509804 0.71372549 0.60000000
v -0.00855245 0.04389889 0.03439865 0.54509804 0.71372549 0.60000000
v 0.00284329 0.04389889 0.03445356 0.54509804 0.71372549 0.60000000
v 0.05529755 0.04275625 0.03506451 0.54509804 0.71372549 0.60000000
v 0.03819266 0.04447464 0.03421330 0.54509804 0.71372549 0.60000000
v 0.04134059 0.04446579 0.03420644 0.54509804 0.71372549 0.60000000
v 0.04210783 0.04446579 0.03419957 0.54509804 0.71372549 0.60000000
v 0.05529755 0.04445693 0.03363667 0.54509804 0.71372549 0.60000000
v 0.05073926 0.04446579 0.03369846 0.54509804 0.71372549 0.60000000
v 0.01766904 0.04389889 0.03451534 0.54509804 0.71372549 0.60000000
v 0.05643713 0.04371288 0.03448102 0.54509804 0.71372549 0.60000000
v 0.05529755 0.04447464 0.03229807 0.54509804 0.71372549 0.60000000
v 0.05529755 0.04451893 0.02793217 0.54509804 0.71372549 0.60000000
v 0.05643713 0.04411148 0.03363667 0.54509804 0.71372549 0.60000000
v 0.05701255 0.04446579 0.01832169 0.54509804 0.71372549 0.60000000
v 0.05701255 0.04447464 0.01766955 0.54509804 0.71372549 0.60000000
v 0.05643713 0.04482895 -0.00626740 0.54509804 0.71372549 0.60000000
v 0.05643713 0.04494410 -0.01653002 0.54509804 0.71372549 0.60000000
v 0.05643713 0.04500611 -0.02223453 0.54509804 0.71372549 0.60000000
v 0.05643713 0.04504154 -0.02565311 0.54509804 0.71372549 0.60000000
v 0.05704640 0.04450122 0.01425097 0.54509804 0.71372549 0.60000000
v 0.05710282 0.04455436 0.00626740 0.54509804 0.71372549 0.60000000
v 0.05714795 0.04459865 -0.00056976 0.54509804 0.71372549 0.60000000
v 0.05722693 0.04467837 -0.01311144 0.54509804 0.71372549 0.60000000
v 0.05763312 0.04389889 -0.03135762 0.54509804 0.71372549 0.60000000
v 0.05752029 0.04161360 -0.03249714 0.54509804 0.71372549 0.60000000
v 0.05728335 0.02223289 -0.03330717 0.54509804 0.71372549 0.60000000
v 0.05727206 0.02565198 -0.03329344 0.54509804 0.71372549 0.60000000
v 0.05724950 0.03249900 -0.03325912 0.54509804 0.71372549 0.60000000
v 0.05722693 0.03819452 -0.03323166 0.54509804 0.71372549 0.60000000
v 0.05720436 0.04275625 -0.03321107 0.54509804 0.71372549 0.60000000
v 0.05643713 -0.04161360 -0.03417211 0.54509804 0.71372549 0.60000000
v 0.05639200 -0.04277396 -0.03419271 0.54509804 0.71372549 0.60000000
v 0.05643713 0.01425208 -0.03363667 0.54509804 0.71372549 0.60000000
v 0.05643713 0.01994760 -0.03358175 0.54509804 0.71372549 0.60000000
v 0.05643713 0.02907106 -0.03349251 0.54509804 0.71372549 0.60000000
v 0.05559091 -0.04241079 -0.03420644 0.54509804 0.71372549 0.60000000
v 0.05529755 -0.02679462 -0.03405541 0.54509804 0.71372549 0.60000000
v 0.05731719 0.04477581 -0.03021809 0.54509804 0.71372549 0.60000000
v 0.05529755 -0.04459865 -0.03249714 0.54509804 0.71372549 0.60000000
v -0.03933223 -0.04447464 -0.03420644 0.54509804 0.71372549 0.60000000
v 0.05415798 -0.04459865 -0.03249714 0.54509804 0.71372549 0.60000000
v -0.05073926 -0.04446579 -0.03369846 0.54509804 0.71372549 0.60000000
v -0.05187883 -0.04446579 -0.03353370 0.54509804 0.71372549 0.60000000
v -0.05529755 -0.04447464 -0.03229807 0.54509804 0.71372549 0.60000000
v -0.05588426 -0.04447464 -0.03215391 0.54509804 0.71372549 0.60000000
v -0.05701255 -0.04446579 -0.01832169 0.54509804 0.71372549 0.60000000
v -0.05706897 -0.04354458 -0.03363667 0.54509804 0.71372549 0.60000000
v -0.05712538 -0.04275625 -0.03363667 0.54509804 0.71372549 0.60000000
v -0.05712538 -0.03819452 -0.03363667 0.54509804 0.71372549 0.60000000
v -0.05706897 -0.03819452 -0.03431627 0.54509804 0.71372549 0.60000000
v -0.05705769 -0.01994760 -0.03427508 0.54509804 0.71372549 0.60000000
v 0.05529755 -0.03933716 -0.03417898 0.54509804 0.71372549 0.60000000
v 0.05639200 -0.04379260 -0.03392499 0.54509804 0.71372549 0.60000000
v 0.02793649 -0.04436835 -0.03400736 0.54509804 0.71372549 0.60000000
v 0.05643713 -0.04458980 -0.03249714 0.54509804 0.71372549 0.60000000
v 0.05529755 -0.04452779 -0.03330717 0.54509804 0.71372549 0.60000000
v 0.05705769 -0.04451007 -0.03321107 0.54509804 0.71372549 0.60000000
v -0.05713667 -0.03933716 -0.03249714 0.54509804 0.71372549 0.60000000
v -0.05721565 -0.03933716 -0.02223453 0.54509804 0.71372549 0.60000000
v -0.05743002 -0.02109025 0.00854646 0.54509804 0.71372549 0.60000000
v -0.05763312 -0.04389889 0.03135762 0.54509804 0.71372549 0.60000000
v -0.05757670 -0.01196679 0.02907856 0.54509804 0.71372549 0.60000000
v -0.05758799 -0.01881381 0.03249714 0.54509804 0.71372549 0.60000000
v -0.05755414 -0.03249900 0.03249714 0.54509804 0.71372549 0.60000000
v -0.05754285 -0.03591808 0.03249714 0.54509804 0.71372549 0.60000000
v -0.05752029 -0.04161360 0.03249714 0.54509804 0.71372549 0.60000000
v -0.05728335 -0.02223289 0.03330717 0.54509804 0.71372549 0.60000000
v -0.05727206 -0.02565198 0.03329344 0.54509804 0.71372549 0.60000000
v -0.05724950 -0.03249900 0.03325912 0.54509804 0.71372549 0.60000000
v -0.05722693 -0.03819452 0.03323166 0.54509804 0.71372549 0.60000000
v -0.05720436 -0.04275625 0.03321107 0.54509804 0.71372549 0.60000000
v -0.05559091 0.04241079 0.03420644 0.54509804 0.71372549 0.60000000
v -0.05524114 0.04277396 0.03421330 0.54509804 0.71372549 0.60000000
v -0.05750900 -0.04389889 0.03249714 0.54509804 0.71372549 0.60000000
v -0.05713667 -0.04458980 0.03315615 0.54509804 0.71372549 0.60000000
v -0.05643713 -0.04389889 0.03334149 0.54509804 0.71372549 0.60000000
v -0.05643713 -0.04161360 0.03336895 0.54509804 0.71372549 0.60000000
v -0.05643713 -0.02907106 0.03349251 0.54509804 0.71372549 0.60000000
v -0.04732053 0.04275625 0.03427508 0.54509804 0.71372549 0.60000000
v -0.03591351 0.04370402 0.03428881 0.54509804 0.71372549 0.60000000
v 0.00740159 0.02450933 0.03451534 0.54509804 0.71372549 0.60000000
v 0.02450648 0.01538587 0.03455653 0.54509804 0.71372549 0.60000000
v 0.04952070 -0.03937259 0.03420644 0.54509804 0.71372549 0.60000000
v 0.05301841 -0.02337554 0.03439178 0.54509804 0.71372549 0.60000000
v 0.05529755 -0.01196679 0.03452221 0.54509804 0.71372549 0.60000000
v 0.05588426 -0.04352687 0.03420644 0.54509804 0.71372549 0.60000000
v 0.05589555 -0.04275625 0.03421330 0.54509804 0.71372549 0.60000000
v 0.05595196 -0.04047981 0.03422703 0.54509804 0.71372549 0.60000000
v 0.05606479 -0.03477543 0.03425449 0.54509804 0.71372549 0.60000000
v 0.05616634 -0.02907106 0.03428195 0.54509804 0.71372549 0.60000000
v 0.05629045 -0.02109025 0.03432314 0.54509804 0.71372549 0.60000000
v 0.05635815 -0.01538587 0.03435059 0.54509804 0.71372549 0.60000000
v 0.05643713 0.00170954 0.03446043 0.54509804 0.71372549 0.60000000
v 0.05643713 0.01083300 0.03452907 0.54509804 0.71372549 0.60000000
v 0.05643713 0.01652852 0.03457026 0.54509804 0.71372549 0.60000000
v 0.05643713 0.04161360 0.03474874 0.54509804 0.71372549 0.60000000
v 0.05643713 0.04275625 0.03475561 0.54509804 0.71372549 0.60000000
v 0.05187883 0.04446579 0.03353370 0.54509804 0.71372549 0.60000000
v 0.05704640 0.04346486 0.03428881 0.54509804 0.71372549 0.60000000
v 0.05706897 0.04354458 0.03363667 0.54509804 0.71372549 0.60000000
v 0.05737361 0.04389889 -0.00398835 0.54509804 0.71372549 0.60000000
v 0.05741874 0.04389889 -0.00854646 0.54509804 0.71372549 0.60000000
v 0.05750900 0.04389889 -0.01766955 0.54509804 0.71372549 0.60000000
v 0.05743002 0.04275625 -0.00512788 0.54509804 0.71372549 0.60000000
v 0.05750900 0.04275625 -0.01539049 0.54509804 0.71372549 0.60000000
v 0.05747516 0.00056689 -0.01766955 0.54509804 0.71372549 0.60000000
v 0.05757670 0.01196679 -0.02907856 0.54509804 0.71372549 0.60000000
v 0.05756542 -0.01881381 -0.03249714 0.54509804 0.71372549 0.60000000
v 0.05759927 0.00969035 -0.03249714 0.54509804 0.71372549 0.60000000
v 0.05758799 0.01881381 -0.03249714 0.54509804 0.71372549 0.60000000
v 0.05755414 0.03249900 -0.03249714 0.54509804 0.71372549 0.60000000
v 0.05754285 0.03591808 -0.03249714 0.54509804 0.71372549 0.60000000
v 0.05714795 0.04275625 0.03135762 0.54509804 0.71372549 0.60000000
v 0.05719308 0.04275625 0.02565311 0.54509804 0.71372549 0.60000000
v 0.05730591 0.01310944 -0.03335522 0.54509804 0.71372549 0.60000000
v 0.05727206 -0.04275625 -0.03361608 0.54509804 0.71372549 0.60000000
v 0.05718180 -0.04389889 -0.03345133 0.54509804 0.71372549 0.60000000
v 0.05643713 -0.04461637 -0.03021809 0.54509804 0.71372549 0.60000000
v 0.05529755 -0.04463408 -0.02907856 0.54509804 0.71372549 0.60000000
v -0.02222734 -0.04450122 -0.03363667 0.54509804 0.71372549 0.60000000
v -0.04846011 -0.04447464 -0.03325912 0.54509804 0.71372549 0.60000000
v 0.04161138 -0.04460751 -0.03021809 0.54509804 0.71372549 0.60000000
v 0.02222734 -0.04456322 -0.03249714 0.54509804 0.71372549 0.60000000
v -0.05415798 -0.04451007 -0.02907856 0.54509804 0.71372549 0.60000000
v -0.05529755 -0.04451893 -0.02793217 0.54509804 0.71372549 0.60000000
v -0.05529755 -0.04459865 -0.01995547 0.54509804 0.71372549 0.60000000
v -0.05529755 -0.04467837 -0.01197191 0.54509804 0.71372549 0.60000000
v -0.05643713 -0.04507697 0.02907856 0.54509804 0.71372549 0.60000000
v -0.05643713 -0.04504154 0.02565311 0.54509804 0.71372549 0.60000000
v -0.05643713 -0.04500611 0.02223453 0.54509804 0.71372549 0.60000000
v -0.05643713 -0.04494410 0.01653002 0.54509804 0.71372549 0.60000000
v -0.05643713 -0.04482895 0.00626740 0.54509804 0.71372549 0.60000000
v -0.05701255 -0.04447464 -0.01766955 0.54509804 0.71372549 0.60000000
v -0.05704640 -0.04450122 -0.01425097 0.54509804 0.71372549 0.60000000
v -0.05714795 -0.04275625 -0.03135762 0.54509804 0.71372549 0.60000000
v -0.05737361 -0.04389889 0.00398835 0.54509804 0.71372549 0.60000000
v -0.05741874 -0.04389889 0.00854646 0.54509804 0.71372549 0.60000000
v -0.05750900 -0.04389889 0.01766955 0.54509804 0.71372549 0.60000000
v 0.05709154 -0.04452779 -0.03249714 0.54509804 0.71372549 0.60000000
v 0.05735104 -0.04389889 -0.03249714 0.54509804 0.71372549 0.60000000
v -0.05714795 -0.04161360 -0.03135762 0.54509804 0.71372549 0.60000000
v -0.05743002 -0.04275625 0.00512788 0.54509804 0.71372549 0.60000000
v -0.05750900 -0.04275625 0.01539049 0.54509804 0.71372549 0.60000000
v -0.05710282 -0.04455436 -0.00626740 0.54509804 0.71372549 0.60000000
v -0.05714795 -0.04459865 0.00056976 0.54509804 0.71372549 0.60000000
v -0.05722693 -0.04467837 0.01311144 0.54509804 0.71372549 0.60000000
v -0.05728335 -0.04474038 0.02337405 0.54509804 0.71372549 0.60000000
v -0.05730591 -0.04476695 0.02793217 0.54509804 0.71372549 0.60000000
v -0.05731719 -0.04477581 0.03021809 0.54509804 0.71372549 0.60000000
v -0.05731719 -0.04478466 0.03135762 0.54509804 0.71372549 0.60000000
v -0.05726078 -0.04472266 0.03249714 0.54509804 0.71372549 0.60000000
v -0.05719308 -0.04275625 -0.02565311 0.54509804 0.71372549 0.60000000
v -0.05529755 0.02679462 0.03405541 0.54509804 0.71372549 0.60000000
v -0.05529755 0.03933716 0.03417898 0.54509804 0.71372549 0.60000000
v -0.05415798 0.04185276 0.03421330 0.54509804 0.71372549 0.60000000
v -0.05643713 -0.04497068 0.03249714 0.54509804 0.71372549 0.60000000
v -0.05643713 -0.04466066 0.03320420 0.54509804 0.71372549 0.60000000
v -0.05529755 -0.04389889 0.03335522 0.54509804 0.71372549 0.60000000
v -0.05415798 0.02450933 0.03404168 0.54509804 0.71372549 0.60000000
v 0.05301841 -0.04275625 0.03419957 0.54509804 0.71372549 0.60000000
v 0.05301841 -0.04137444 0.03421330 0.54509804 0.71372549 0.60000000
v -0.03477393 -0.04389889 0.03351311 0.54509804 0.71372549 0.60000000
v 0.05529755 -0.03135635 0.03433000 0.54509804 0.71372549 0.60000000
v 0.05529755 -0.04161360 0.03422703 0.54509804 0.71372549 0.60000000
v 0.05561347 -0.04352687 0.03420644 0.54509804 0.71372549 0.60000000
v 0.05526370 -0.04389889 0.03419957 0.54509804 0.71372549 0.60000000
v 0.05643713 -0.04466951 0.03336209 0.54509804 0.71372549 0.60000000
v 0.05633558 -0.04389889 0.03377397 0.54509804 0.71372549 0.60000000
v 0.05701255 -0.00671416 0.03419271 0.54509804 0.71372549 0.60000000
v 0.05701255 -0.00595239 0.03420644 0.54509804 0.71372549 0.60000000
v 0.05642584 -0.00854771 0.03438492 0.54509804 0.71372549 0.60000000
v 0.05701255 -0.00512862 0.03421330 0.54509804 0.71372549 0.60000000
v 0.05702384 -0.00284333 0.03422017 0.54509804 0.71372549 0.60000000
v 0.05703512 0.00170954 0.03423390 0.54509804 0.71372549 0.60000000
v 0.05704640 0.00969035 0.03425449 0.54509804 0.71372549 0.60000000
v 0.05704640 0.01196679 0.03426135 0.54509804 0.71372549 0.60000000
v 0.05706897 0.04275625 0.03433000 0.54509804 0.71372549 0.60000000
v 0.05712538 0.04275625 0.03363667 0.54509804 0.71372549 0.60000000
v 0.05714795 0.04161360 0.03135762 0.54509804 0.71372549 0.60000000
v 0.05713667 0.03933716 0.03249714 0.54509804 0.71372549 0.60000000
v 0.05743002 0.02109025 -0.00854646 0.54509804 0.71372549 0.60000000
v 0.05721565 0.03933716 0.02223453 0.54509804 0.71372549 0.60000000
v 0.05713667 0.01767116 0.02907856 0.54509804 0.71372549 0.60000000
v 0.05712538 -0.03477543 0.02223453 0.54509804 0.71372549 0.60000000
v 0.05741874 -0.03135635 -0.01539049 0.54509804 0.71372549 0.60000000
v 0.05744131 -0.04161360 -0.01995547 0.54509804 0.71372549 0.60000000
v 0.05753157 -0.03933716 -0.03135762 0.54509804 0.71372549 0.60000000
v 0.05754285 -0.03706073 -0.03249714 0.54509804 0.71372549 0.60000000
v 0.05748644 -0.04047981 -0.02565311 0.54509804 0.71372549 0.60000000
v 0.05730591 0.00170954 -0.03338954 0.54509804 0.71372549 0.60000000
v 0.05730591 0.01083300 -0.03336209 0.54509804 0.71372549 0.60000000
v 0.05753157 -0.04275625 -0.03249714 0.54509804 0.71372549 0.60000000
v 0.05529755 -0.04524527 0.03249714 0.54509804 0.71372549 0.60000000
v 0.05529755 -0.04491753 -0.00056976 0.54509804 0.71372549 0.60000000
v 0.05529755 -0.04471380 -0.02109500 0.54509804 0.71372549 0.60000000
v 0.05301841 -0.04472266 -0.01995547 0.54509804 0.71372549 0.60000000
v 0.03933223 -0.04461637 -0.02907856 0.54509804 0.71372549 0.60000000
v -0.02450648 -0.04451007 -0.03249714 0.54509804 0.71372549 0.60000000
v 0.01994819 -0.04457208 -0.03135762 0.54509804 0.71372549 0.60000000
v -0.05073926 -0.04453665 -0.02679264 0.54509804 0.71372549 0.60000000
v -0.05073926 -0.04486439 0.00626740 0.54509804 0.71372549 0.60000000
v -0.05415798 -0.04483781 0.00398835 0.54509804 0.71372549 0.60000000
v -0.05529755 -0.04505040 0.02565311 0.54509804 0.71372549 0.60000000
v -0.05529755 -0.04509468 0.03021809 0.54509804 0.71372549 0.60000000
v -0.05643713 -0.04509468 0.03135762 0.54509804 0.71372549 0.60000000
v 0.05710282 -0.04453665 -0.03021809 0.54509804 0.71372549 0.60000000
v 0.05709154 -0.04453665 -0.03135762 0.54509804 0.71372549 0.60000000
v 0.05735104 -0.04389889 -0.02337405 0.54509804 0.71372549 0.60000000
v 0.05713667 -0.04459865 -0.00969285 0.54509804 0.71372549 0.60000000
v 0.05713667 -0.04458980 -0.01425097 0.54509804 0.71372549 0.60000000
v 0.05713667 -0.04458094 -0.01766955 0.54509804 0.71372549 0.60000000
v 0.05713667 -0.04457208 -0.01880908 0.54509804 0.71372549 0.60000000
v 0.05712538 -0.04456322 -0.02337405 0.54509804 0.71372549 0.60000000
v 0.05711410 -0.04454551 -0.02793217 0.54509804 0.71372549 0.60000000
v -0.05301841 -0.04499725 0.03249714 0.54509804 0.71372549 0.60000000
v -0.00170372 -0.04389889 0.03376710 0.54509804 0.71372549 0.60000000
v -0.04047181 -0.04472266 0.03326598 0.54509804 0.71372549 0.60000000
v 0.05415798 -0.04389889 0.03419271 0.54509804 0.71372549 0.60000000
v 0.05405643 -0.04280939 0.03420644 0.54509804 0.71372549 0.60000000
v 0.05485752 -0.04323456 0.03420644 0.54509804 0.71372549 0.60000000
v 0.05526370 -0.04280939 0.03421330 0.54509804 0.71372549 0.60000000
v 0.05529755 -0.04485553 0.03362981 0.54509804 0.71372549 0.60000000
v -0.03705308 -0.04473152 0.03327971 0.54509804 0.71372549 0.60000000
v -0.01197117 -0.04480238 0.03337582 0.54509804 0.71372549 0.60000000
v 0.00056415 -0.04482895 0.03342387 0.54509804 0.71372549 0.60000000
v 0.05643713 -0.04487324 0.03249714 0.54509804 0.71372549 0.60000000
v 0.05701255 -0.04447464 0.03308750 0.54509804 0.71372549 0.60000000
v 0.05702384 -0.04389889 0.03309437 0.54509804 0.71372549 0.60000000
v 0.05709154 0.01196679 0.03363667 0.54509804 0.71372549 0.60000000
v 0.05704640 0.00854771 0.03424763 0.54509804 0.71372549 0.60000000
v 0.05705769 0.01994760 0.03427508 0.54509804 0.71372549 0.60000000
v 0.05706897 0.03819452 0.03431627 0.54509804 0.71372549 0.60000000
v 0.05712538 0.03819452 0.03363667 0.54509804 0.71372549 0.60000000
v 0.05711410 0.02793727 0.03363667 0.54509804 0.71372549 0.60000000
v 0.05708025 -0.01425208 0.03135762 0.54509804 0.71372549 0.60000000
v 0.05704640 -0.03477543 0.03249714 0.54509804 0.71372549 0.60000000
v 0.05711410 -0.04389889 0.02223453 0.54509804 0.71372549 0.60000000
v 0.05731719 -0.04275625 -0.00398835 0.54509804 0.71372549 0.60000000
v 0.05750900 -0.04275625 -0.02907856 0.54509804 0.71372549 0.60000000
v 0.05733976 -0.04389889 -0.01766955 0.54509804 0.71372549 0.60000000
v 0.05720436 -0.04389889 0.00969285 0.54509804 0.71372549 0.60000000
v 0.05724950 -0.04389889 0.00284882 0.54509804 0.71372549 0.60000000
v 0.05730591 -0.04389889 -0.00854646 0.54509804 0.71372549 0.60000000
v 0.05731719 -0.04389889 -0.01083238 0.54509804 0.71372549 0.60000000
v 0.05073926 -0.04505925 0.01425097 0.54509804 0.71372549 0.60000000
v 0.05710282 -0.04454551 -0.02907856 0.54509804 0.71372549 0.60000000
v 0.05711410 -0.04455436 -0.02679264 0.54509804 0.71372549 0.60000000
v 0.05643713 -0.04482895 -0.00056976 0.54509804 0.71372549 0.60000000
v 0.05643713 -0.04486439 0.00854646 0.54509804 0.71372549 0.60000000
v 0.05643713 -0.04487324 0.01083238 0.54509804 0.71372549 0.60000000
v 0.05643713 -0.04488210 0.01539049 0.54509804 0.71372549 0.60000000
v 0.05643713 -0.04488210 0.03021809 0.54509804 0.71372549 0.60000000
v 0.01652947 -0.04520098 0.03249714 0.54509804 0.71372549 0.60000000
v -0.02793649 -0.04513897 0.03135762 0.54509804 0.71372549 0.60000000
v -0.03705308 -0.04509468 0.02793217 0.54509804 0.71372549 0.60000000
v 0.01538989 -0.04504154 0.01653002 0.54509804 0.71372549 0.60000000
v 0.04161138 -0.04468723 -0.02223453 0.54509804 0.71372549 0.60000000
v 0.05073926 -0.04473152 -0.01880908 0.54509804 0.71372549 0.60000000
v 0.03135521 -0.04460751 -0.02907856 0.54509804 0.71372549 0.60000000
v 0.00626202 -0.04466951 -0.01995547 0.54509804 0.71372549 0.60000000
v -0.04618096 -0.04505040 0.02451358 0.54509804 0.71372549 0.60000000
v -0.05301841 -0.04499725 0.01995547 0.54509804 0.71372549 0.60000000
v -0.05415798 -0.04496182 0.01653002 0.54509804 0.71372549 0.60000000
v -0.05415798 -0.04508583 0.02907856 0.54509804 0.71372549 0.60000000
v -0.05073926 -0.04511240 0.03135762 0.54509804 0.71372549 0.60000000
v -0.05529755 -0.04510354 0.03135762 0.54509804 0.71372549 0.60000000
v 0.05712538 -0.04459865 0.00398835 0.54509804 0.71372549 0.60000000
v 0.05713667 -0.04459865 -0.00284882 0.54509804 0.71372549 0.60000000
v 0.05712538 -0.04460751 -0.00056976 0.54509804 0.71372549 0.60000000
v 0.05712538 -0.04457208 -0.02109500 0.54509804 0.71372549 0.60000000
v -0.04732053 -0.04502382 0.03249714 0.54509804 0.71372549 0.60000000
v -0.03021564 -0.04475809 0.03330031 0.54509804 0.71372549 0.60000000
v -0.03819266 -0.04473152 0.03327285 0.54509804 0.71372549 0.60000000
v 0.04390181 -0.04485553 0.03357489 0.54509804 0.71372549 0.60000000
v 0.00170372 -0.04518326 0.03249714 0.54509804 0.71372549 0.60000000
v -0.02793649 -0.04475809 0.03331403 0.54509804 0.71372549 0.60000000
v -0.02565734 -0.04476695 0.03332090 0.54509804 0.71372549 0.60000000
v -0.01311074 -0.04480238 0.03336895 0.54509804 0.71372549 0.60000000
v -0.02679692 -0.04510354 0.03249714 0.54509804 0.71372549 0.60000000
v -0.01880861 -0.04513012 0.03249714 0.54509804 0.71372549 0.60000000
v 0.05710282 -0.04458980 0.01197191 0.54509804 0.71372549 0.60000000
v 0.05708025 -0.04457208 0.01766955 0.54509804 0.71372549 0.60000000
v 0.05706897 -0.04456322 0.01995547 0.54509804 0.71372549 0.60000000
v 0.05704640 -0.04452779 0.02679264 0.54509804 0.71372549 0.60000000
v 0.05702384 -0.04448350 0.03249714 0.54509804 0.71372549 0.60000000
v 0.05703512 -0.04389889 0.03249714 0.54509804 0.71372549 0.60000000
v 0.05710282 0.01881381 0.03363667 0.54509804 0.71372549 0.60000000
v 0.05705769 0.01881381 0.03426822 0.54509804 0.71372549 0.60000000
v 0.05718180 -0.04389889 0.01311144 0.54509804 0.71372549 0.60000000
v 0.05706897 -0.04455436 0.02109500 0.54509804 0.71372549 0.60000000
v 0.05711410 -0.04459865 0.00740693 0.54509804 0.71372549 0.60000000
v -0.04276224 -0.04504154 0.03249714 0.54509804 0.71372549 0.60000000
v -0.02679692 -0.04476695 0.03331403 0.54509804 0.71372549 0.60000000
f 1 2 3
f 1 3 4
f 1 4 5
f 1 5 6
f 1 6 7
f 1 7 8
f 1 8 9
f 1 9 10
f 1 10 11
f 1 11 12
f 1 12 13
f 1 13 14
f 1 14 15
f 1 15 16
f 1 16 17
f 1 17 18
f 1 18 19
f 1 19 20
f 1 20 2
f 2 21 22
f 2 22 23
f 2 23 3
f 2 20 24
f 2 24 21
f 3 25 26
f 3 26 27
f 3 27 4
f 3 23 25
f 4 27 28
f 4 28 29
f 4 29 30
f 4 30 31
f 4 31 32
f 4 32 5
f 5 32 33
f 5 33 34
f 5 34 6
f 6 34 35
f 6 35 36
f 6 36 7
f 7 36 37
f 7 37 38
f 7 38 10
f 7 10 8
f 8 10 9
f 10 38 39
f 10 39 40
f 10 40 41
f 10 41 11
f 11 41 13
f 11 13 12
f 13 42 43
f 13 43 14
f 13 41 44
f 13 44 42
f 14 43 45
f 14 45 46
f 14 46 47
f 14 47 15
f 15 47 48
f 15 48 49
f 15 49 50
f 15 50 16
f 16 50 51
f 16 51 17
f 17 51 52
f 17 52 53
f 17 53 18
f 18 53 54
f 18 54 19
f 19 54 20
f 20 54 24
f 21 24 22
f 22 24 55
f 22 55 56
f 22 56 57
f 22 57 58
f 22 58 23
f 23 59 60
f 23 60 61
f 23 61 25
f 23 58 62
f 23 62 63
f 23 63 64
f 23 64 59
f 24 54 65
f 24 65 55
f 25 61 66
f 25 66 67
f 25 67 68
f 25 68 69
f 25 69 70
f 25 70 71
f 25 71 72
f 25 72 26
f 26 72 73
f 26 73 27
f 27 73 28
f 28 73 74
f 28 74 75
f 28 75 76
f 28 76 77
f 28 77 78
f 28 78 29
f 29 78 79
f 29 79 80
f 29 80 81
f 29 81 30
f 30 81 31
f 31 81 32
f 32 81 80
f 32 80 82
f 32 82 83
f 32 83 33
f 33 83 34
f 34 83 84
f 34 84 35
f 35 84 89
f 35 89 44
f 35 44 36
f 36 44 37
f 37 85 39
f 37 39 38
f 37 44 85
f 39 85 44
f 39 44 40
f 40 44 41
f 42 44 86
f 42 86 87
f 42 87 88
f 42 88 43
f 43 88 45
f 44 89 90
f 44 90 86
f 45 91 46
f 45 88 92
f 45 92 93
f 45 93 94
f 45 94 178
f 45 178 91
f 46 48 47
f 46 91 95
f 46 95 96
f 46 96 48
f 48 96 97
f 48 97 98
f 48 98 50
f 48 50 49
f 50 98 51
f 51 98 99
f 51 99 52
f 52 99 100
f 52 100 101
f 52 101 102
f 52 102 53
f 53 102 103
f 53 103 54
f 54 103 104
f 54 104 65
f 55 65 56
f 56 65 105
f 56 105 57
f 57 105 106
f 57 106 107
f 57 107 108
f 57 108 58
f 58 108 109
f 58 109 62
f 59 110 111
f 59 111 60
f 59 64 112
f 59 112 110
f 60 66 113
f 60 113 61
f 60 111 66
f 61 113 66
f 62 109 108
f 62 108 107
f 62 107 191
f 62 191 114
f 62 114 63
f 63 114 115
f 63 115 64
f 64 115 116
f 64 116 117
f 64 117 118
f 64 118 119
f 64 119 120
f 64 120 112
f 65 104 188
f 65 188 121
f 65 121 116
f 65 116 115
f 65 115 106
f 65 106 105
f 66 111 67
f 67 111 110
f 67 110 122
f 67 122 123
f 67 123 68
f 68 123 69
f 69 124 125
f 69 125 126
f 69 126 127
f 69 127 128
f 69 128 129
f 69 129 130
f 69 130 131
f 69 131 132
f 69 132 133
f 69 133 134
f 69 134 135
f 69 135 71
f 69 71 70
f 69 123 136
f 69 136 137
f 69 137 138
f 69 138 139
f 69 139 140
f 69 140 141
f 69 141 142
f 69 142 143
f 69 143 144
f 69 144 145
f 69 145 146
f 69 146 147
f 69 147 148
f 69 148 149
f 69 149 150
f 69 150 151
f 69 151 152
f 69 152 153
f 69 153 124
f 71 135 154
f 71 154 72
f 72 154 155
f 72 155 73
f 73 155 156
f 73 156 157
f 73 157 158
f 73 158 74
f 74 158 231
f 74 231 159
f 74 159 160
f 74 160 75
f 75 160 161
f 75 161 162
f 75 162 76
f 76 162 90
f 76 90 77
f 77 90 78
f 78 90 79
f 79 90 80
f 80 90 82
f 82 90 89
f 82 89 83
f 83 89 84
f 86 90 163
f 86 163 164
f 86 164 87
f 87 164 165
f 87 165 166
f 87 166 88
f 88 166 167
f 88 167 168
f 88 168 169
f 88 169 170
f 88 170 171
f 88 171 172
f 88 172 173
f 88 173 174
f 88 174 92
f 90 162 175
f 90 175 176
f 90 176 163
f 91 177 95
f 91 178 179
f 91 179 180
f 91 180 177
f 92 174 93
f 93 174 181
f 93 181 94
f 94 181 182
f 94 182 178
f 95 177 98
f 95 98 96
f 96 98 97
f 98 177 180
f 98 180 99
f 99 180 183
f 99 183 184
f 99 184 185
f 99 185 100
f 100 186 187
f 100 187 188
f 100 188 189
f 100 189 190
f 100 190 101
f 100 185 184
f 100 184 186
f 101 190 102
f 102 190 189
f 102 189 103
f 103 189 104
f 104 189 188
f 106 115 191
f 106 191 107
f 110 136 122
f 110 112 120
f 110 120 136
f 114 191 115
f 116 121 192
f 116 192 117
f 117 192 193
f 117 193 194
f 117 194 118
f 118 195 119
f 118 194 195
f 119 195 296
f 119 296 196
f 119 196 139
f 119 139 138
f 119 138 136
f 119 136 120
f 121 188 197
f 121 197 198
f 121 198 199
f 121 199 192
f 122 136 123
f 124 153 125
f 125 200 201
f 125 201 202
f 125 202 203
f 125 203 204
f 125 204 205
f 125 205 126
f 125 153 200
f 126 205 206
f 126 206 207
f 126 207 127
f 127 156 155
f 127 155 208
f 127 208 128
f 127 207 209
f 127 209 210
f 127 210 211
f 127 211 156
f 128 208 129
f 129 208 130
f 130 208 131
f 131 208 212
f 131 212 132
f 132 212 154
f 132 154 133
f 133 154 134
f 134 154 135
f 136 138 137
f 139 196 213
f 139 213 214
f 139 214 140
f 140 214 215
f 140 215 216
f 140 216 217
f 140 217 141
f 141 217 218
f 141 218 219
f 141 219 142
f 142 219 220
f 142 220 221
f 142 221 222
f 142 222 143
f 143 222 152
f 143 152 223
f 143 223 145
f 143 145 144
f 145 223 152
f 145 152 146
f 146 152 147
f 147 152 148
f 148 152 149
f 149 152 150
f 150 152 151
f 152 222 221
f 152 221 220
f 152 220 224
f 152 224 225
f 152 225 226
f 152 226 227
f 152 227 153
f 153 227 228
f 153 228 200
f 154 208 155
f 154 212 208
f 156 211 229
f 156 229 157
f 157 229 158
f 158 229 230
f 158 230 231
f 159 231 232
f 159 232 160
f 160 232 233
f 160 233 234
f 160 234 235
f 160 235 161
f 161 235 236
f 161 236 162
f 162 236 237
f 162 237 175
f 163 176 238
f 163 238 239
f 163 239 240
f 163 240 241
f 163 241 242
f 163 242 243
f 163 243 164
f 164 244 165
f 164 243 245
f 164 245 246
f 164 246 247
f 164 247 244
f 165 244 248
f 165 248 166
f 166 248 249
f 166 249 167
f 167 249 250
f 167 250 168
f 168 250 169
f 169 250 251
f 169 251 173
f 169 173 170
f 170 173 172
f 170 172 171
f 173 181 174
f 173 251 252
f 173 252 253
f 173 253 254
f 173 254 255
f 173 255 256
f 173 256 257
f 173 257 258
f 173 258 259
f 173 259 260
f 173 260 261
f 173 261 262
f 173 262 181
f 175 238 176
f 175 237 238
f 178 182 263
f 178 263 179
f 179 263 264
f 179 264 265
f 179 265 266
f 179 266 267
f 179 267 183
f 179 183 180
f 181 262 268
f 181 268 182
f 182 268 262
f 182 262 269
f 182 269 266
f 182 266 265
f 182 265 264
f 182 264 263
f 183 267 270
f 183 270 184
f 184 270 271
f 184 271 186
f 186 271 187
f 187 271 270
f 187 270 266
f 187 266 272
f 187 272 273
f 187 273 274
f 187 274 275
f 187 275 276
f 187 276 277
f 187 277 278
f 187 278 188
f 188 278 274
f 188 274 279
f 188 279 280
f 188 280 281
f 188 281 282
f 188 282 197
f 192 199 283
f 192 283 193
f 193 283 284
f 193 284 285
f 193 285 286
f 193 286 287
f 193 287 288
f 193 288 289
f 193 289 194
f 194 289 290
f 194 290 291
f 194 291 292
f 194 292 293
f 194 293 294
f 194 294 195
f 195 294 295
f 195 295 296
f 196 296 213
f 197 282 283
f 197 283 198
f 198 283 297
f 198 297 199
f 199 297 283
f 200 228 298
f 200 298 300
f 200 300 201
f 201 299 202
f 201 300 299
f 202 299 203
f 203 299 204
f 204 299 205
f 205 301 302
f 205 302 303
f 205 303 304
f 205 304 206
f 205 299 301
f 206 305 306
f 206 306 207
f 206 304 305
f 207 306 307
f 207 307 209
f 209 307 308
f 209 308 309
f 209 309 310
f 209 310 210
f 210 310 211
f 211 310 229
f 213 296 311
f 213 311 214
f 214 311 295
f 214 295 215
f 215 291 216
f 215 295 293
f 215 293 291
f 216 291 312
f 216 312 217
f 217 312 226
f 217 226 218
f 218 226 219
f 219 226 220
f 220 226 224
f 224 226 313
f 224 313 225
f 225 313 226
f 226 314 298
f 226 298 315
f 226 315 227
f 226 312 316
f 226 316 314
f 227 315 228
f 228 315 298
f 229 310 230
f 230 310 309
f 230 309 308
f 230 308 231
f 231 308 317
f 231 317 318
f 231 318 233
f 231 233 232
f 233 318 402
f 233 402 319
f 233 319 234
f 234 320 321
f 234 321 235
f 234 319 402
f 234 402 320
f 235 321 236
f 236 321 238
f 236 238 237
f 238 321 320
f 238 320 239
f 239 320 322
f 239 322 242
f 239 242 241
f 239 241 240
f 242 322 323
f 242 323 324
f 242 324 325
f 242 325 326
f 242 326 327
f 242 327 243
f 243 327 328
f 243 328 329
f 243 329 330
f 243 330 245
f 244 331 332
f 244 332 248
f 244 247 331
f 245 330 333
f 245 333 334
f 245 334 335
f 245 335 336
f 245 336 337
f 245 337 247
f 245 247 246
f 247 337 331
f 248 332 338
f 248 338 262
f 248 262 249
f 249 262 250
f 250 253 252
f 250 252 251
f 250 262 253
f 253 339 255
f 253 255 254
f 253 262 339
f 255 339 262
f 255 262 256
f 256 262 257
f 257 262 258
f 258 262 259
f 259 262 260
f 260 262 261
f 262 338 340
f 262 340 341
f 262 341 342
f 262 342 343
f 262 343 344
f 262 344 345
f 262 345 346
f 262 346 347
f 262 347 348
f 262 348 349
f 262 349 350
f 262 350 351
f 262 351 352
f 262 352 353
f 262 353 354
f 262 354 355
f 262 355 356
f 262 356 269
f 266 269 272
f 266 270 357
f 266 357 267
f 267 357 270
f 269 356 358
f 269 358 272
f 272 358 359
f 272 359 273
f 273 359 279
f 273 279 274
f 274 278 277
f 274 277 276
f 274 276 275
f 279 359 360
f 279 360 361
f 279 361 362
f 279 362 283
f 279 283 280
f 280 283 281
f 281 283 282
f 283 363 364
f 283 364 440
f 283 440 365
f 283 365 366
f 283 366 367
f 283 367 368
f 283 368 369
f 283 369 370
f 283 370 371
f 283 371 284
f 283 362 372
f 283 372 373
f 283 373 363
f 284 371 374
f 284 374 285
f 285 374 286
f 286 374 290
f 286 290 287
f 287 290 288
f 288 290 289
f 290 374 375
f 290 375 291
f 291 375 376
f 291 376 312
f 291 293 292
f 293 295 294
f 295 311 296
f 298 314 377
f 298 377 378
f 298 378 300
f 299 379 380
f 299 380 301
f 299 300 379
f 300 378 381
f 300 381 382
f 300 382 379
f 301 380 303
f 301 303 302
f 303 383 384
f 303 384 304
f 303 380 383
f 304 384 385
f 304 385 386
f 304 386 387
f 304 387 388
f 304 388 389
f 304 389 390
f 304 390 391
f 304 391 392
f 304 392 305
f 305 392 393
f 305 393 306
f 306 394 307
f 306 393 395
f 306 395 396
f 306 396 397
f 306 397 394
f 307 394 400
f 307 400 317
f 307 317 308
f 312 376 316
f 314 316 398
f 314 398 377
f 316 376 399
f 316 399 398
f 317 400 401
f 317 401 402
f 317 402 318
f 320 397 393
f 320 393 403
f 320 403 404
f 320 404 405
f 320 405 406
f 320 406 407
f 320 407 408
f 320 408 409
f 320 409 410
f 320 410 333
f 320 333 325
f 320 325 324
f 320 324 323
f 320 323 322
f 320 402 401
f 320 401 411
f 320 411 394
f 320 394 397
f 325 333 326
f 326 333 327
f 327 333 328
f 328 333 329
f 329 333 330
f 331 337 336
f 331 336 412
f 331 412 413
f 331 413 332
f 332 413 414
f 332 414 338
f 333 410 334
f 334 410 415
f 334 415 416
f 334 416 335
f 335 416 417
f 335 417 336
f 336 417 418
f 336 418 412
f 338 414 418
f 338 418 417
f 338 417 340
f 340 342 341
f 340 417 342
f 342 419 420
f 342 420 343
f 342 417 421
f 342 421 419
f 343 422 344
f 343 420 422
f 344 422 345
f 345 347 346
f 345 422 423
f 345 423 424
f 345 424 425
f 345 425 426
f 345 426 427
f 345 427 428
f 345 428 347
f 347 428 429
f 347 429 348
f 348 429 349
f 349 429 350
f 350 429 351
f 351 430 352
f 351 429 430
f 352 431 353
f 352 430 431
f 353 431 354
f 354 431 355
f 355 431 356
f 356 431 432
f 356 432 433
f 356 433 434
f 356 434 435
f 356 435 436
f 356 436 358
f 358 436 437
f 358 437 359
f 359 437 372
f 359 372 362
f 359 362 361
f 359 361 360
f 363 373 438
f 363 438 439
f 363 439 441
f 363 441 364
f 364 441 442
f 364 442 440
f 365 440 442
f 365 442 443
f 365 443 444
f 365 444 366
f 366 444 445
f 366 445 367
f 367 446 447
f 367 447 375
f 367 375 368
f 367 445 448
f 367 448 446
f 368 375 449
f 368 449 450
f 368 450 374
f 368 374 369
f 369 374 370
f 370 374 371
f 372 437 492
f 372 492 439
f 372 439 438
f 372 438 373
f 374 450 375
f 375 450 449
f 375 447 451
f 375 451 376
f 376 451 399
f 377 452 453
f 377 453 454
f 377 454 378
f 377 398 452
f 378 454 455
f 378 455 456
f 378 456 381
f 379 457 380
f 379 382 458
f 379 458 457
f 380 457 383
f 381 456 458
f 381 458 382
f 383 459 386
f 383 386 385
f 383 385 384
f 383 457 459
f 386 459 457
f 386 457 460
f 386 460 461
f 386 461 522
f 386 522 462
f 386 462 387
f 387 392 388
f 387 462 463
f 387 463 525
f 387 525 464
f 387 464 406
f 387 406 405
f 387 405 404
f 387 404 403
f 387 403 393
f 387 393 392
f 388 392 389
f 389 392 390
f 390 392 391
f 393 397 396
f 393 396 395
f 394 411 400
f 398 465 505
f 398 505 466
f 398 466 452
f 398 399 465
f 399 451 467
f 399 467 527
f 399 527 468
f 399 468 469
f 399 469 470
f 399 470 471
f 399 471 472
f 399 472 473
f 399 473 465
f 400 411 401
f 406 464 407
f 407 409 408
f 407 464 409
f 409 464 410
f 410 464 415
f 412 418 414
f 412 414 413
f 415 464 525
f 415 525 474
f 415 474 416
f 416 475 421
f 416 421 417
f 416 474 476
f 416 476 425
f 416 425 477
f 416 477 475
f 419 477 478
f 419 478 422
f 419 422 420
f 419 421 475
f 419 475 477
f 422 478 423
f 423 478 479
f 423 479 480
f 423 480 424
f 424 480 479
f 424 479 425
f 425 481 426
f 425 479 477
f 425 476 482
f 425 482 483
f 425 483 484
f 425 484 481
f 426 485 486
f 426 486 427
f 426 481 452
f 426 452 485
f 427 486 487
f 427 487 428
f 428 487 432
f 428 432 429
f 429 432 431
f 429 431 430
f 432 487 433
f 433 487 488
f 433 488 489
f 433 489 434
f 434 489 490
f 434 490 435
f 435 490 436
f 436 490 491
f 436 491 492
f 436 492 437
f 439 492 493
f 439 493 441
f 441 493 442
f 442 493 494
f 442 494 443
f 443 494 495
f 443 495 545
f 443 545 496
f 443 496 497
f 443 497 444
f 444 497 445
f 445 498 448
f 445 497 498
f 446 451 447
f 446 448 498
f 446 498 451
f 451 499 467
f 451 498 548
f 451 548 500
f 451 500 501
f 451 501 502
f 451 502 503
f 451 503 499
f 452 504 453
f 452 466 505
f 452 505 506
f 452 506 507
f 452 507 508
f 452 508 509
f 452 509 510
f 452 510 511
f 452 511 485
f 452 481 512
f 452 512 513
f 452 513 514
f 452 514 515
f 452 515 504
f 453 504 516
f 453 516 517
f 453 517 455
f 453 455 454
f 455 517 516
f 455 516 458
f 455 458 518
f 455 518 456
f 456 518 458
f 457 458 519
f 457 519 460
f 458 516 519
f 460 520 521
f 460 521 461
f 460 519 515
f 460 515 520
f 461 521 522
f 462 522 521
f 462 521 523
f 462 523 463
f 463 523 524
f 463 524 525
f 465 473 506
f 465 506 505
f 467 499 526
f 467 526 527
f 468 527 528
f 468 528 510
f 468 510 509
f 468 509 469
f 469 509 470
f 470 509 529
f 470 529 472
f 470 472 471
f 472 529 506
f 472 506 473
f 474 525 530
f 474 530 531
f 474 531 532
f 474 532 476
f 476 532 531
f 476 531 552
f 476 552 536
f 476 536 535
f 476 535 482
f 477 479 478
f 481 484 533
f 481 533 534
f 481 534 512
f 482 535 483
f 483 535 536
f 483 536 552
f 483 552 537
f 483 537 484
f 484 534 533
f 484 537 538
f 484 538 539
f 484 539 534
f 485 511 540
f 485 540 541
f 485 541 542
f 485 542 543
f 485 543 544
f 485 544 486
f 486 544 487
f 487 544 545
f 487 545 546
f 487 546 488
f 488 546 489
f 489 546 547
f 489 547 490
f 490 547 491
f 491 547 492
f 492 547 493
f 493 547 546
f 493 546 545
f 493 545 495
f 493 495 494
f 496 548 498
f 496 498 497
f 496 545 544
f 496 544 548
f 499 503 540
f 499 540 526
f 500 548 544
f 500 544 501
f 501 544 543
f 501 543 502
f 502 543 503
f 503 543 549
f 503 549 540
f 504 515 519
f 504 519 516
f 506 529 509
f 506 509 508
f 506 508 507
f 510 528 511
f 511 528 550
f 511 550 540
f 512 534 524
f 512 524 513
f 513 524 514
f 514 524 520
f 514 520 515
f 520 524 523
f 520 523 521
f 524 534 525
f 525 539 538
f 525 538 551
f 525 551 530
f 525 534 539
f 526 540 550
f 526 550 528
f 526 528 527
f 530 551 537
f 530 537 552
f 530 552 531
f 537 551 538
f 540 549 541
f 541 549 542
f 542 549 543

