# https://github.com/mikedh/trimesh
v 0.02165441 -0.00171181 0.03888601 0.08627451 0.01960784 0.83137255
v 0.02158319 0.00458141 0.04041189 0.08627451 0.01960784 0.83137255
v 0.02159995 0.00458141 0.04193778 0.08627451 0.01960784 0.83137255
v 0.02159576 0.00458141 0.04345801 0.08627451 0.01960784 0.83137255
v 0.02162508 -0.00171181 0.04041189 0.08627451 0.01960784 0.83137255
v 0.02160833 -0.00171181 0.03734883 0.08627451 0.01960784 0.83137255
v 0.02144496 0.00458141 0.03910077 0.08627451 0.01960784 0.83137255
v 0.02154549 0.00458141 0.04424355 0.08627451 0.01960784 0.83137255
v 0.02152874 -0.00171181 0.04193778 0.08627451 0.01960784 0.83137255
v 0.02154131 -0.00171181 0.03681195 0.08627451 0.01960784 0.83137255
v 0.02146172 -0.00171181 0.03624680 0.08627451 0.01960784 0.83137255
v 0.02023019 0.00458141 0.03279379 0.08627451 0.01960784 0.83137255
v 0.02148685 0.00458141 0.04496129 0.08627451 0.01960784 0.83137255
v 0.02139888 -0.00171181 0.04316978 0.08627451 0.01960784 0.83137255
v 0.01847924 -0.00171181 0.02861174 0.08627451 0.01960784 0.83137255
v 0.01942593 0.00458141 0.02980419 0.08627451 0.01960784 0.83137255
v 0.01974009 0.00458141 0.03078189 0.08627451 0.01960784 0.83137255
v 0.01994954 0.00458141 0.03148831 0.08627451 0.01960784 0.83137255
v 0.02138213 0.00458141 0.04571857 0.08627451 0.01960784 0.83137255
v 0.02119363 -0.00171181 0.04498389 0.08627451 0.01960784 0.83137255
v 0.02134862 -0.00171181 0.04364450 0.08627451 0.01960784 0.83137255
v 0.01078429 -0.00171181 0.01086065 0.08627451 0.01960784 0.83137255
v 0.01869288 0.00458141 0.02813703 0.08627451 0.01960784 0.83137255
v 0.02124390 0.00458141 0.04661715 0.08627451 0.01960784 0.83137255
v 0.02098000 -0.00171181 0.04650977 0.08627451 0.01960784 0.83137255
v 0.01069633 -0.00171181 0.01067416 0.08627451 0.01960784 0.83137255
v 0.01810224 0.00458141 0.02709151 0.08627451 0.01960784 0.83137255
v 0.02109728 0.00458141 0.04744790 0.08627451 0.01960784 0.83137255
v 0.02070353 -0.00171181 0.04803565 0.08627451 0.01960784 0.83137255
v 0.01049945 -0.00171181 0.01053287 0.08627451 0.01960784 0.83137255
v 0.01065863 -0.00155654 0.01070241 0.08627451 0.01960784 0.83137255
v 0.01085551 0.00458141 0.01470361 0.08627451 0.01960784 0.83137255
v 0.02097581 0.00458141 0.04803565 0.08627451 0.01960784 0.83137255
v 0.02079988 0.00458141 0.04879294 0.08627451 0.01960784 0.83137255
v 0.02032653 -0.00171181 0.04956153 0.08627451 0.01960784 0.83137255
v 0.00979572 -0.00171181 0.01005250 0.08627451 0.01960784 0.83137255
v 0.00961141 -0.00076234 0.01031812 0.08627451 0.01960784 0.83137255
v 0.00927630 0.00015570 0.01056113 0.08627451 0.01960784 0.83137255
v 0.00985855 0.00458141 0.01351682 0.08627451 0.01960784 0.83137255
v 0.01027325 0.00458141 0.01389546 0.08627451 0.01960784 0.83137255
v 0.01044500 0.00458141 0.01405370 0.08627451 0.01960784 0.83137255
v 0.02060719 0.00458141 0.04956153 0.08627451 0.01960784 0.83137255
v 0.02015479 0.00458141 0.05115523 0.08627451 0.01960784 0.83137255
v 0.01996629 -0.00171181 0.05070312 0.08627451 0.01960784 0.83137255
v 0.00867311 -0.00171181 0.00937433 0.08627451 0.01960784 0.83137255
v 0.00832543 -0.00084306 0.00960039 0.08627451 0.01960784 0.83137255
v 0.00838407 0.00039291 0.01036898 0.08627451 0.01960784 0.83137255
v 0.00877783 0.00458141 0.01349421 0.08627451 0.01960784 0.83137255
v 0.00685933 -0.00048693 0.00943650 0.08627451 0.01960784 0.83137255
v 0.00685933 0.00055989 0.01019944 0.08627451 0.01960784 0.83137255
v 0.01988251 0.00458141 0.05196339 0.08627451 0.01960784 0.83137255
v 0.01978617 -0.00171181 0.05117784 0.08627451 0.01960784 0.83137255
v 0.00828773 -0.00171181 0.00919349 0.08627451 0.01960784 0.83137255
v 0.00778088 -0.00140559 0.00909741 0.08627451 0.01960784 0.83137255
v -0.00320233 0.00458141 0.01372592 0.08627451 0.01960784 0.83137255
v 0.00685933 -0.00124971 0.00900699 0.08627451 0.01960784 0.83137255
v 0.00533458 -0.00123431 0.00899569 0.08627451 0.01960784 0.83137255
v 0.00533458 -0.00047214 0.00944780 0.08627451 0.01960784 0.83137255
v 0.00533458 0.00050197 0.01021074 0.08627451 0.01960784 0.83137255
v 0.01931283 -0.00171181 0.05219509 0.08627451 0.01960784 0.83137255
v 0.01967307 -0.00171181 0.05146606 0.08627451 0.01960784 0.83137255
v 0.01948876 0.00458141 0.05266416 0.08627451 0.01960784 0.83137255
v 0.01910338 -0.00171181 0.05261330 0.08627451 0.01960784 0.83137255
v 0.00794424 -0.00171181 0.00906916 0.08627451 0.01960784 0.83137255
v 0.00685933 -0.00171181 0.00887136 0.08627451 0.01960784 0.83137255
v -0.00322747 0.00458141 0.01373157 0.08627451 0.01960784 0.83137255
v 0.00438789 -0.00138526 0.00908611 0.08627451 0.01960784 0.83137255
v 0.00602574 -0.00171181 0.00886005 0.08627451 0.01960784 0.83137255
v 0.00533458 -0.00171181 0.00887701 0.08627451 0.01960784 0.83137255
v 0.01865518 0.00458141 0.05407136 0.08627451 0.01960784 0.83137255
v 0.01849181 -0.00171181 0.05368142 0.08627451 0.01960784 0.83137255
v -0.00375108 0.00458141 0.01385025 0.08627451 0.01960784 0.83137255
v 0.00473138 -0.00171181 0.00896178 0.08627451 0.01960784 0.83137255
v 0.00431249 -0.00171181 0.00905785 0.08627451 0.01960784 0.83137255
v -0.00533447 0.00381247 0.01435323 0.08627451 0.01960784 0.83137255
v -0.00538473 0.00458141 0.01452842 0.08627451 0.01960784 0.83137255
v 0.01841641 0.00458141 0.05445566 0.08627451 0.01960784 0.83137255
v 0.01798915 -0.00171181 0.05444435 0.08627451 0.01960784 0.83137255
v 0.00359201 -0.00171181 0.00943650 0.08627451 0.01960784 0.83137255
v -0.00533447 0.00228753 0.01440409 0.08627451 0.01960784 0.83137255
v -0.00630628 0.00228753 0.01499749 0.08627451 0.01960784 0.83137255
v -0.00625602 0.00381247 0.01504270 0.08627451 0.01960784 0.83137255
v 0.00310191 -0.00171181 0.00970211 0.08627451 0.01960784 0.83137255
v -0.00618062 0.00458141 0.01513312 0.08627451 0.01960784 0.83137255
v 0.01821116 0.00458141 0.05475518 0.08627451 0.01960784 0.83137255
v 0.01722677 -0.00171181 0.05549552 0.08627451 0.01960784 0.83137255
v 0.01327667 0.00458141 0.06193248 0.08627451 0.01960784 0.83137255
v 0.01294994 0.00458141 0.06239024 0.08627451 0.01960784 0.83137255
v 0.01259388 0.00458141 0.06288192 0.08627451 0.01960784 0.83137255
v -0.00622670 -0.00171181 0.01512747 0.08627451 0.01960784 0.83137255
v -0.01036949 0.00458141 0.01858049 0.08627451 0.01960784 0.83137255
v -0.01008883 0.00458141 0.01834878 0.08627451 0.01960784 0.83137255
v 0.01661939 -0.00171181 0.05625281 0.08627451 0.01960784 0.83137255
v 0.01177706 0.00458141 0.06363921 0.08627451 0.01960784 0.83137255
v 0.01347774 -0.00171181 0.05923676 0.08627451 0.01960784 0.83137255
v 0.01585701 -0.00171181 0.05699314 0.08627451 0.01960784 0.83137255
v 0.01614604 -0.00171181 0.05671622 0.08627451 0.01960784 0.83137255
v -0.01044907 -0.00171181 0.02012897 0.08627451 0.01960784 0.83137255
v -0.01112767 0.00458141 0.01933778 0.08627451 0.01960784 0.83137255
v -0.01071297 0.00458141 0.01891392 0.08627451 0.01960784 0.83137255
v 0.01099793 0.00458141 0.06427781 0.08627451 0.01960784 0.83137255
v 0.01179381 -0.00171181 0.06070612 0.08627451 0.01960784 0.83137255
v 0.01271536 -0.00171181 0.05994318 0.08627451 0.01960784 0.83137255
v -0.01213300 0.00458141 0.02062630 0.08627451 0.01960784 0.83137255
v -0.01157588 0.00458141 0.01988596 0.08627451 0.01960784 0.83137255
v -0.01624228 -0.00171181 0.02828961 0.08627451 0.01960784 0.83137255
v -0.01560557 0.00458141 0.02536218 0.08627451 0.01960784 0.83137255
v -0.01507777 0.00458141 0.02462185 0.08627451 0.01960784 0.83137255
v 0.00994233 0.00458141 0.06470167 0.08627451 0.01960784 0.83137255
v 0.00990882 -0.00171181 0.06179119 0.08627451 0.01960784 0.83137255
v 0.01103144 -0.00171181 0.06125996 0.08627451 0.01960784 0.83137255
v -0.01646429 -0.00171181 0.02862870 0.08627451 0.01960784 0.83137255
v -0.01638889 0.00458141 0.02655463 0.08627451 0.01960784 0.83137255
v 0.00839245 0.00458141 0.06505206 0.08627451 0.01960784 0.83137255
v 0.00843434 -0.00171181 0.06217549 0.08627451 0.01960784 0.83137255
v 0.00896214 -0.00171181 0.06203985 0.08627451 0.01960784 0.83137255
v -0.01686223 0.00458141 0.02728931 0.08627451 0.01960784 0.83137255
v -0.01714707 -0.00171181 0.02972507 0.08627451 0.01960784 0.83137255
v 0.00685933 0.00458141 0.06533463 0.08627451 0.01960784 0.83137255
v 0.00749603 -0.00171181 0.06219810 0.08627451 0.01960784 0.83137255
v 0.00076033 0.00458141 0.06623886 0.08627451 0.01960784 0.83137255
v -0.00076022 0.00458141 0.06645361 0.08627451 0.01960784 0.83137255
v -0.00533447 0.00458141 0.06659490 0.08627451 0.01960784 0.83137255
v -0.01798066 -0.00171181 0.03117183 0.08627451 0.01960784 0.83137255
v -0.01816497 -0.00171181 0.03149397 0.08627451 0.01960784 0.83137255
v -0.01837860 -0.00171181 0.03187826 0.08627451 0.01960784 0.83137255
v -0.01850008 -0.00171181 0.03212127 0.08627451 0.01960784 0.83137255
v -0.01879330 -0.00171181 0.03274293 0.08627451 0.01960784 0.83137255
v -0.01907814 -0.00171181 0.03336458 0.08627451 0.01960784 0.83137255
v -0.01727693 0.00458141 0.02819919 0.08627451 0.01960784 0.83137255
v -0.00076022 -0.00171181 0.06229417 0.08627451 0.01960784 0.83137255
v -0.00583713 0.00458141 0.06657794 0.08627451 0.01960784 0.83137255
v -0.01946352 -0.00171181 0.03431402 0.08627451 0.01960784 0.83137255
v -0.01994105 0.00458141 0.03480004 0.08627451 0.01960784 0.83137255
v -0.00838396 -0.00171181 0.06203421 0.08627451 0.01960784 0.83137255
v -0.00685922 0.00458141 0.06653838 0.08627451 0.01960784 0.83137255
v -0.01958918 -0.00171181 0.03465876 0.08627451 0.01960784 0.83137255
v -0.02030129 0.00458141 0.03583990 0.08627451 0.01960784 0.83137255
v -0.00991709 -0.00171181 0.06179684 0.08627451 0.01960784 0.83137255
v -0.00749592 0.00458141 0.06644796 0.08627451 0.01960784 0.83137255
v -0.01978187 -0.00171181 0.03522390 0.08627451 0.01960784 0.83137255
v -0.02069504 0.00458141 0.03736578 0.08627451 0.01960784 0.83137255
v -0.01987821 -0.00171181 0.03551212 0.08627451 0.01960784 0.83137255
v -0.01076324 -0.00171181 0.06146341 0.08627451 0.01960784 0.83137255
v -0.00838396 0.00458141 0.06628406 0.08627451 0.01960784 0.83137255
v -0.00918823 0.00458141 0.06606931 0.08627451 0.01960784 0.83137255
v -0.01000505 0.00458141 0.06581500 0.08627451 0.01960784 0.83137255
v -0.01098944 0.00274163 0.06425521 0.08627451 0.01960784 0.83137255
v -0.01073392 -0.00004516 0.06255413 0.08627451 0.01960784 0.83137255
v -0.01998712 -0.00171181 0.03598684 0.08627451 0.01960784 0.83137255
v -0.02008766 -0.00171181 0.03650677 0.08627451 0.01960784 0.83137255
v -0.02083746 0.00458141 0.03812872 0.08627451 0.01960784 0.83137255
v -0.01110254 -0.00171181 0.06131647 0.08627451 0.01960784 0.83137255
v -0.01064595 0.00458141 0.06551547 0.08627451 0.01960784 0.83137255
v -0.01151724 0.00458141 0.06496729 0.08627451 0.01960784 0.83137255
v -0.01200733 0.00329677 0.06391047 0.08627451 0.01960784 0.83137255
v -0.01228799 0.00140338 0.06259935 0.08627451 0.01960784 0.83137255
v -0.02021332 -0.00171181 0.03736578 0.08627451 0.01960784 0.83137255
v -0.02029291 -0.00076234 0.03736578 0.08627451 0.01960784 0.83137255
v -0.02096313 0.00458141 0.03888601 0.08627451 0.01960784 0.83137255
v -0.01186910 -0.00171181 0.06077394 0.08627451 0.01960784 0.83137255
v -0.01213300 0.00458141 0.06452648 0.08627451 0.01960784 0.83137255
v -0.01296658 0.00458141 0.06389352 0.08627451 0.01960784 0.83137255
v -0.01251000 0.00458141 0.06424956 0.08627451 0.01960784 0.83137255
v -0.01327656 0.00458141 0.06363921 0.08627451 0.01960784 0.83137255
v -0.01368707 0.00458141 0.06328316 0.08627451 0.01960784 0.83137255
v -0.01364937 0.00315197 0.06245806 0.08627451 0.01960784 0.83137255
v -0.01335615 0.00228753 0.06216984 0.08627451 0.01960784 0.83137255
v -0.01243879 -0.00035569 0.06124866 0.08627451 0.01960784 0.83137255
v -0.01205341 -0.00137232 0.06087001 0.08627451 0.01960784 0.83137255
v -0.02025521 -0.00171181 0.03793658 0.08627451 0.01960784 0.83137255
v -0.02110555 0.00458141 0.04047406 0.08627451 0.01960784 0.83137255
v -0.02103853 0.00458141 0.03965461 0.08627451 0.01960784 0.83137255
v -0.01219164 -0.00171181 0.06045746 0.08627451 0.01960784 0.83137255
v -0.01411433 0.00458141 0.06289322 0.08627451 0.01960784 0.83137255
v -0.01398867 0.00416922 0.06276889 0.08627451 0.01960784 0.83137255
v -0.01457511 0.00367754 0.06185901 0.08627451 0.01960784 0.83137255
v -0.01411014 0.00228753 0.06140690 0.08627451 0.01960784 0.83137255
v -0.01381274 0.00139660 0.06110172 0.08627451 0.01960784 0.83137255
v -0.02030967 -0.00171181 0.03888601 0.08627451 0.01960784 0.83137255
v -0.02112231 0.00458141 0.04119744 0.08627451 0.01960784 0.83137255
v -0.01263147 -0.00171181 0.05994884 0.08627451 0.01960784 0.83137255
v -0.01486833 0.00458141 0.06214158 0.08627451 0.01960784 0.83137255
v -0.01545896 0.00420310 0.06125431 0.08627451 0.01960784 0.83137255
v -0.01516155 0.00318648 0.06089262 0.08627451 0.01960784 0.83137255
v -0.01493116 0.00215691 0.06032182 0.08627451 0.01960784 0.83137255
v -0.01522438 0.00156172 0.05944021 0.08627451 0.01960784 0.83137255
v -0.02032223 -0.00171181 0.03946246 0.08627451 0.01960784 0.83137255
v -0.02113906 0.00458141 0.04193778 0.08627451 0.01960784 0.83137255
v -0.01500237 -0.00171181 0.05669927 0.08627451 0.01960784 0.83137255
v -0.01524114 0.00458141 0.06173468 0.08627451 0.01960784 0.83137255
v -0.01551760 0.00458141 0.06141255 0.08627451 0.01960784 0.83137255
v -0.01678683 0.00458141 0.05967756 0.08627451 0.01960784 0.83137255
v -0.01682453 0.00447729 0.05955323 0.08627451 0.01960784 0.83137255
v -0.01600351 0.00383157 0.06022010 0.08627451 0.01960784 0.83137255
v -0.01553436 0.00257835 0.05987536 0.08627451 0.01960784 0.83137255
v -0.01606635 0.00221545 0.05877334 0.08627451 0.01960784 0.83137255
v -0.01627579 -0.00171181 0.05491908 0.08627451 0.01960784 0.83137255
v -0.01581920 -0.00171181 0.05556334 0.08627451 0.01960784 0.83137255
v -0.02033061 -0.00171181 0.04041189 0.08627451 0.01960784 0.83137255
v -0.02113069 0.00458141 0.04270072 0.08627451 0.01960784 0.83137255
v -0.01684966 0.00458141 0.05958714 0.08627451 0.01960784 0.83137255
v -0.01708424 0.00390613 0.05865466 0.08627451 0.01960784 0.83137255
v -0.01655225 0.00346066 0.05912373 0.08627451 0.01960784 0.83137255
v -0.01807281 0.00458141 0.05750742 0.08627451 0.01960784 0.83137255
v -0.01659414 0.00185316 0.05763741 0.08627451 0.01960784 0.83137255
v -0.01698371 -0.00171181 0.05379444 0.08627451 0.01960784 0.83137255
v -0.02030548 -0.00171181 0.04098834 0.08627451 0.01960784 0.83137255
v -0.02110136 0.00458141 0.04351452 0.08627451 0.01960784 0.83137255
v -0.01687061 0.00286978 0.05810647 0.08627451 0.01960784 0.83137255
v -0.01789688 0.00381679 0.05716834 0.08627451 0.01960784 0.83137255
v -0.01829901 0.00458141 0.05706661 0.08627451 0.01960784 0.83137255
v -0.01840373 0.00432818 0.05664841 0.08627451 0.01960784 0.83137255
v -0.01818172 0.00331155 0.05616804 0.08627451 0.01960784 0.83137255
v -0.01731044 -0.00171181 0.05316713 0.08627451 0.01960784 0.83137255
v -0.02025940 -0.00171181 0.04193778 0.08627451 0.01960784 0.83137255
v -0.02106785 0.00458141 0.04423225 0.08627451 0.01960784 0.83137255
v -0.01844143 0.00458141 0.05676709 0.08627451 0.01960784 0.83137255
v -0.01895248 0.00458141 0.05559159 0.08627451 0.01960784 0.83137255
v -0.01862155 0.00381679 0.05565941 0.08627451 0.01960784 0.83137255
v -0.01799741 -0.00171181 0.05169212 0.08627451 0.01960784 0.83137255
v -0.01759528 -0.00171181 0.05257374 0.08627451 0.01960784 0.83137255
v -0.02020914 -0.00171181 0.04250857 0.08627451 0.01960784 0.83137255
v -0.02085422 0.00458141 0.04727836 0.08627451 0.01960784 0.83137255
v -0.02096732 0.00458141 0.04575248 0.08627451 0.01960784 0.83137255
v -0.01927083 0.00458141 0.05477214 0.08627451 0.01960784 0.83137255
v -0.01839954 -0.00171181 0.05069182 0.08627451 0.01960784 0.83137255
v -0.01827388 -0.00171181 0.05100830 0.08627451 0.01960784 0.83137255
v -0.02012536 -0.00171181 0.04345801 0.08627451 0.01960784 0.83137255
v -0.02077463 0.00458141 0.04803565 0.08627451 0.01960784 0.83137255
v -0.01950959 0.00458141 0.05413353 0.08627451 0.01960784 0.83137255
v -0.01858386 -0.00171181 0.05009277 0.08627451 0.01960784 0.83137255
v -0.01979444 0.00458141 0.05326321 0.08627451 0.01960784 0.83137255
v -0.02003739 -0.00171181 0.04413053 0.08627451 0.01960784 0.83137255
v -0.02067829 0.00458141 0.04880424 0.08627451 0.01960784 0.83137255
v -0.01874303 -0.00171181 0.04956153 0.08627451 0.01960784 0.83137255
v -0.01982376 0.00458141 0.05313888 0.08627451 0.01960784 0.83137255
v -0.01979863 -0.00171181 0.04561685 0.08627451 0.01960784 0.83137255
v -0.01994105 -0.00171181 0.04484260 0.08627451 0.01960784 0.83137255
v -0.02055262 0.00458141 0.04956153 0.08627451 0.01960784 0.83137255
v -0.02008347 0.00458141 0.05194078 0.08627451 0.01960784 0.83137255
v -0.02041858 0.00458141 0.05033013 0.08627451 0.01960784 0.83137255
f 1 2 3
f 1 3 4
f 1 4 5
f 1 5 9
f 1 9 14
f 1 14 21
f 1 21 20
f 1 20 25
f 1 25 29
f 1 29 35
f 1 35 44
f 1 44 52
f 1 52 61
f 1 61 60
f 1 60 63
f 1 63 71
f 1 71 78
f 1 78 86
f 1 86 93
f 1 93 97
f 1 97 96
f 1 96 95
f 1 95 103
f 1 103 102
f 1 102 111
f 1 111 110
f 1 110 116
f 1 116 115
f 1 115 120
f 1 120 131
f 1 131 135
f 1 135 139
f 1 139 144
f 1 144 153
f 1 153 161
f 1 161 174
f 1 174 182
f 1 182 190
f 1 190 199
f 1 199 198
f 1 198 207
f 1 207 215
f 1 215 222
f 1 222 221
f 1 221 228
f 1 228 227
f 1 227 232
f 1 232 236
f 1 236 238
f 1 238 239
f 1 239 234
f 1 234 229
f 1 229 223
f 1 223 216
f 1 216 208
f 1 208 200
f 1 200 188
f 1 188 180
f 1 180 171
f 1 171 158
f 1 158 151
f 1 151 150
f 1 150 143
f 1 143 141
f 1 141 137
f 1 137 133
f 1 133 129
f 1 129 128
f 1 128 127
f 1 127 126
f 1 126 125
f 1 125 124
f 1 124 118
f 1 118 112
f 1 112 106
f 1 106 98
f 1 98 90
f 1 90 83
f 1 83 79
f 1 79 74
f 1 74 73
f 1 73 69
f 1 69 68
f 1 68 65
f 1 65 64
f 1 64 53
f 1 53 45
f 1 45 36
f 1 36 30
f 1 30 26
f 1 26 22
f 1 22 15
f 1 15 11
f 1 11 10
f 1 10 6
f 1 6 2
f 2 7 12
f 2 12 18
f 2 18 17
f 2 17 16
f 2 16 23
f 2 23 27
f 2 27 32
f 2 32 41
f 2 41 40
f 2 40 39
f 2 39 48
f 2 48 55
f 2 55 66
f 2 66 72
f 2 72 76
f 2 76 84
f 2 84 92
f 2 92 91
f 2 91 100
f 2 100 99
f 2 99 105
f 2 105 104
f 2 104 108
f 2 108 107
f 2 107 113
f 2 113 117
f 2 117 130
f 2 130 134
f 2 134 138
f 2 138 142
f 2 142 152
f 2 152 160
f 2 160 173
f 2 173 172
f 2 172 181
f 2 181 189
f 2 189 201
f 2 201 209
f 2 209 217
f 2 217 225
f 2 225 224
f 2 224 230
f 2 230 235
f 2 235 240
f 2 240 242
f 2 242 241
f 2 241 237
f 2 237 233
f 2 233 231
f 2 231 226
f 2 226 219
f 2 219 218
f 2 218 212
f 2 212 205
f 2 205 202
f 2 202 193
f 2 193 192
f 2 192 191
f 2 191 183
f 2 183 175
f 2 175 166
f 2 166 165
f 2 165 163
f 2 163 164
f 2 164 162
f 2 162 155
f 2 155 154
f 2 154 147
f 2 147 146
f 2 146 145
f 2 145 140
f 2 140 136
f 2 136 132
f 2 132 123
f 2 123 122
f 2 122 121
f 2 121 119
f 2 119 114
f 2 114 109
f 2 109 101
f 2 101 94
f 2 94 89
f 2 89 88
f 2 88 87
f 2 87 85
f 2 85 77
f 2 77 70
f 2 70 62
f 2 62 51
f 2 51 43
f 2 43 42
f 2 42 34
f 2 34 33
f 2 33 28
f 2 28 24
f 2 24 19
f 2 19 13
f 2 13 8
f 2 8 4
f 2 4 3
f 2 6 7
f 4 8 9
f 4 9 5
f 6 10 7
f 7 10 11
f 7 11 12
f 8 13 9
f 9 13 14
f 11 15 16
f 11 16 17
f 11 17 18
f 11 18 12
f 13 19 20
f 13 20 21
f 13 21 14
f 15 22 16
f 16 22 23
f 19 24 25
f 19 25 20
f 22 26 23
f 23 26 27
f 24 28 25
f 25 28 29
f 26 30 31
f 26 31 32
f 26 32 27
f 28 33 29
f 29 33 34
f 29 34 35
f 30 36 31
f 31 36 37
f 31 37 38
f 31 38 39
f 31 39 40
f 31 40 41
f 31 41 32
f 34 42 35
f 35 42 43
f 35 43 44
f 36 45 37
f 37 45 38
f 38 45 46
f 38 46 47
f 38 47 39
f 39 47 49
f 39 49 50
f 39 50 48
f 43 51 44
f 44 51 52
f 45 53 46
f 46 53 54
f 46 54 47
f 47 54 49
f 48 50 55
f 49 54 56
f 49 56 57
f 49 57 58
f 49 58 50
f 50 58 59
f 50 59 55
f 51 60 61
f 51 61 52
f 51 62 63
f 51 63 60
f 53 64 54
f 54 64 65
f 54 65 56
f 55 59 58
f 55 58 57
f 55 57 67
f 55 67 66
f 56 65 68
f 56 68 57
f 57 68 69
f 57 69 67
f 62 70 71
f 62 71 63
f 66 67 72
f 67 69 73
f 67 73 74
f 67 74 75
f 67 75 76
f 67 76 72
f 70 77 71
f 71 77 78
f 74 79 75
f 75 80 81
f 75 81 82
f 75 82 76
f 75 79 83
f 75 83 80
f 76 82 84
f 77 85 78
f 78 85 87
f 78 87 88
f 78 88 89
f 78 89 86
f 80 90 81
f 80 83 90
f 81 91 82
f 81 90 91
f 82 91 92
f 82 92 84
f 86 89 93
f 89 94 95
f 89 95 96
f 89 96 97
f 89 97 93
f 90 98 99
f 90 99 100
f 90 100 91
f 94 101 102
f 94 102 103
f 94 103 95
f 98 104 105
f 98 105 99
f 98 106 107
f 98 107 108
f 98 108 104
f 101 109 110
f 101 110 111
f 101 111 102
f 106 112 113
f 106 113 107
f 109 114 115
f 109 115 116
f 109 116 110
f 112 117 113
f 112 118 117
f 114 119 115
f 115 119 121
f 115 121 122
f 115 122 123
f 115 123 120
f 117 118 124
f 117 124 125
f 117 125 126
f 117 126 127
f 117 127 128
f 117 128 129
f 117 129 130
f 120 123 131
f 123 132 131
f 129 133 130
f 130 133 134
f 131 132 135
f 132 136 135
f 133 137 134
f 134 137 138
f 135 136 140
f 135 140 139
f 137 141 138
f 138 141 143
f 138 143 142
f 139 140 145
f 139 145 146
f 139 146 147
f 139 147 148
f 139 148 149
f 139 149 144
f 142 150 151
f 142 151 152
f 142 143 150
f 144 149 148
f 144 148 153
f 147 154 148
f 148 154 155
f 148 155 156
f 148 156 157
f 148 157 153
f 151 158 159
f 151 159 160
f 151 160 152
f 153 157 161
f 155 162 156
f 156 163 157
f 156 162 164
f 156 164 163
f 157 163 165
f 157 165 166
f 157 166 167
f 157 167 168
f 157 168 169
f 157 169 170
f 157 170 161
f 158 171 172
f 158 172 173
f 158 173 160
f 158 160 159
f 161 170 174
f 166 175 176
f 166 176 167
f 167 177 178
f 167 178 168
f 167 176 177
f 168 178 179
f 168 179 169
f 169 179 174
f 169 174 170
f 171 180 172
f 172 180 181
f 174 179 182
f 175 183 176
f 176 183 177
f 177 184 185
f 177 185 178
f 177 183 184
f 178 185 179
f 179 185 186
f 179 186 187
f 179 187 182
f 180 188 189
f 180 189 181
f 182 187 190
f 183 191 184
f 184 191 192
f 184 192 193
f 184 193 194
f 184 194 195
f 184 195 185
f 185 195 196
f 185 196 187
f 185 187 186
f 187 196 197
f 187 197 198
f 187 198 199
f 187 199 190
f 188 200 189
f 189 200 201
f 193 202 194
f 194 203 204
f 194 204 195
f 194 202 205
f 194 205 203
f 195 204 196
f 196 204 197
f 197 204 206
f 197 206 198
f 198 206 207
f 200 208 209
f 200 209 201
f 203 210 204
f 203 205 211
f 203 211 210
f 204 210 206
f 205 212 213
f 205 213 211
f 206 210 207
f 207 211 214
f 207 214 215
f 207 210 211
f 208 216 217
f 208 217 209
f 211 213 214
f 212 218 213
f 213 218 219
f 213 219 220
f 213 220 214
f 214 220 221
f 214 221 222
f 214 222 215
f 216 223 224
f 216 224 225
f 216 225 217
f 219 226 227
f 219 227 228
f 219 228 220
f 220 228 221
f 223 229 224
f 224 229 230
f 226 231 227
f 227 231 233
f 227 233 232
f 229 234 235
f 229 235 230
f 232 233 236
f 233 237 238
f 233 238 236
f 234 239 235
f 235 239 240
f 237 241 238
f 238 241 242
f 238 242 239
f 239 242 240

