# https://github.com/mikedh/trimesh
v 0.00686138 -0.00381263 0.00853884 0.77647059 0.86666667 0.97647059
v 0.00686138 -0.00533715 0.00865649 0.77647059 0.86666667 0.97647059
v 0.00533702 -0.00381263 0.00862683 0.77647059 0.86666667 0.97647059
v 0.00533702 -0.00228810 0.00873261 0.77647059 0.86666667 0.97647059
v 0.00686138 -0.00228810 0.00869801 0.77647059 0.86666667 0.97647059
v 0.00838573 -0.00381263 0.00882159 0.77647059 0.86666667 0.97647059
v 0.00850475 -0.00543264 0.00891748 0.77647059 0.86666667 0.97647059
v 0.00533702 -0.00533715 0.00878402 0.77647059 0.86666667 0.97647059
v 0.00807459 -0.00655690 0.00902030 0.77647059 0.86666667 0.97647059
v 0.00686138 -0.00662598 0.00896098 0.77647059 0.86666667 0.97647059
v 0.00298785 -0.00467885 0.00913300 0.77647059 0.86666667 0.97647059
v 0.00298785 -0.00446009 0.00913300 0.77647059 0.86666667 0.97647059
v 0.00418436 -0.00228810 0.00901140 0.77647059 0.86666667 0.97647059
v 0.00431592 -0.00171243 0.00905787 0.77647059 0.86666667 0.97647059
v 0.00473355 -0.00171243 0.00895703 0.77647059 0.86666667 0.97647059
v 0.00533702 -0.00171243 0.00887596 0.77647059 0.86666667 0.97647059
v 0.00602820 -0.00171243 0.00886014 0.77647059 0.86666667 0.97647059
v 0.00686138 -0.00171243 0.00886706 0.77647059 0.86666667 0.97647059
v 0.00794304 -0.00171243 0.00906874 0.77647059 0.86666667 0.97647059
v 0.00832726 -0.00243101 0.00900844 0.77647059 0.86666667 0.97647059
v 0.00915625 -0.00303513 0.00914586 0.77647059 0.86666667 0.97647059
v 0.00926275 -0.00381263 0.00909049 0.77647059 0.86666667 0.97647059
v 0.00929407 -0.00498903 0.00907468 0.77647059 0.86666667 0.97647059
v 0.00909152 -0.00600493 0.00916860 0.77647059 0.86666667 0.97647059
v 0.00533702 -0.00631038 0.00904403 0.77647059 0.86666667 0.97647059
v 0.00446418 -0.00613632 0.00913004 0.77647059 0.86666667 0.97647059
v 0.00344725 -0.00569474 0.00922198 0.77647059 0.86666667 0.97647059
v 0.00850475 -0.00698426 0.00924867 0.77647059 0.86666667 0.97647059
v 0.00838573 -0.00838755 0.00968070 0.77647059 0.86666667 0.97647059
v 0.00686138 -0.00738858 0.00927141 0.77647059 0.86666667 0.97647059
v 0.00240108 -0.00524639 0.00938708 0.77647059 0.86666667 0.97647059
v 0.00067209 -0.00532902 0.01019973 0.77647059 0.86666667 0.97647059
v 0.00240108 -0.00389661 0.00952648 0.77647059 0.86666667 0.97647059
v 0.00342010 -0.00228810 0.00931788 0.77647059 0.86666667 0.97647059
v 0.00359133 -0.00171243 0.00943651 0.77647059 0.86666667 0.97647059
v 0.00828967 -0.00171243 0.00919331 0.77647059 0.86666667 0.97647059
v 0.00879709 -0.00201855 0.00929217 0.77647059 0.86666667 0.97647059
v 0.00990799 -0.00229623 0.00989227 0.77647059 0.86666667 0.97647059
v 0.01090612 -0.00257391 0.01049236 0.77647059 0.86666667 0.97647059
v 0.01112538 -0.00381263 0.01031837 0.77647059 0.86666667 0.97647059
v 0.01002701 -0.00381263 0.00955614 0.77647059 0.86666667 0.97647059
v 0.01123188 -0.00533715 0.01021950 0.77647059 0.86666667 0.97647059
v 0.00984743 -0.00543264 0.00940587 0.77647059 0.86666667 0.97647059
v 0.00991217 -0.00686235 0.00965401 0.77647059 0.86666667 0.97647059
v 0.00228623 -0.00828460 0.01034506 0.77647059 0.86666667 0.97647059
v 0.00228623 -0.00686235 0.00976078 0.77647059 0.86666667 0.97647059
v 0.00991217 -0.00838755 0.01010285 0.77647059 0.86666667 0.97647059
v 0.00863004 -0.00863136 0.00983097 0.77647059 0.86666667 0.97647059
v 0.00838573 -0.00863136 0.00978253 0.77647059 0.86666667 0.97647059
v 0.00710569 -0.00863136 0.00986854 0.77647059 0.86666667 0.97647059
v 0.00228623 -0.00863136 0.01052005 0.77647059 0.86666667 0.97647059
v 0.00076397 -0.00686235 0.01018095 0.77647059 0.86666667 0.97647059
v -0.00012558 -0.00583155 0.01057640 0.77647059 0.86666667 0.97647059
v -0.00622925 -0.00171243 0.01512506 0.77647059 0.86666667 0.97647059
v 0.00310061 -0.00171243 0.00969850 0.77647059 0.86666667 0.97647059
v 0.00867389 -0.00171243 0.00937126 0.77647059 0.86666667 0.97647059
v 0.00979523 -0.00171243 0.01005243 0.77647059 0.86666667 0.97647059
v 0.01050102 -0.00171243 0.01053092 0.77647059 0.86666667 0.97647059
v 0.01069522 -0.00171243 0.01066933 0.77647059 0.86666667 0.97647059
v 0.01186041 -0.00386003 0.01145528 0.77647059 0.86666667 0.97647059
v 0.01199405 -0.00533715 0.01121505 0.77647059 0.86666667 0.97647059
v 0.01189591 -0.00686235 0.01128623 0.77647059 0.86666667 0.97647059
v 0.01113373 -0.00686235 0.01030650 0.77647059 0.86666667 0.97647059
v 0.01015021 -0.00863136 0.01027388 0.77647059 0.86666667 0.97647059
v 0.01086854 -0.00838755 0.01053389 0.77647059 0.86666667 0.97647059
v 0.01081425 -0.00863136 0.01057343 0.77647059 0.86666667 0.97647059
v 0.00076397 -0.00863136 0.01075633 0.77647059 0.86666667 0.97647059
v 0.00076397 -0.00797509 0.01051214 0.77647059 0.86666667 0.97647059
v 0.00988920 -0.00863136 0.01017996 0.77647059 0.86666667 0.97647059
v -0.00000029 -0.00762698 0.01067526 0.77647059 0.86666667 0.97647059
v -0.00009426 -0.00686235 0.01060111 0.77647059 0.86666667 0.97647059
v -0.00085852 -0.00686235 0.01108653 0.77647059 0.86666667 0.97647059
v -0.00201536 -0.00686235 0.01184975 0.77647059 0.86666667 0.97647059
v -0.00371094 -0.00533715 0.01313891 0.77647059 0.86666667 0.97647059
v -0.00622716 -0.00228810 0.01512605 0.77647059 0.86666667 0.97647059
v -0.00905661 -0.00171243 0.01863863 0.77647059 0.86666667 0.97647059
v 0.01078710 -0.00171243 0.01085717 0.77647059 0.86666667 0.97647059
v 0.01227595 -0.00440049 0.01197530 0.77647059 0.86666667 0.97647059
v 0.01115044 -0.00215468 0.01130106 0.77647059 0.86666667 0.97647059
v 0.01226969 -0.00533715 0.01197728 0.77647059 0.86666667 0.97647059
v 0.01225925 -0.00776717 0.01207021 0.77647059 0.86666667 0.97647059
v 0.01162445 -0.00832050 0.01151263 0.77647059 0.86666667 0.97647059
v 0.01146575 -0.00863136 0.01152548 0.77647059 0.86666667 0.97647059
v 0.00069089 -0.00863136 0.01078500 0.77647059 0.86666667 0.97647059
v -0.00064971 -0.00863136 0.01131391 0.77647059 0.86666667 0.97647059
v -0.00061003 -0.00823652 0.01115375 0.77647059 0.86666667 0.97647059
v -0.00188380 -0.00838755 0.01193180 0.77647059 0.86666667 0.97647059
v -0.00277753 -0.00686235 0.01240634 0.77647059 0.86666667 0.97647059
v -0.00363785 -0.00686235 0.01316956 0.77647059 0.86666667 0.97647059
v -0.00615616 -0.00381263 0.01519624 0.77647059 0.86666667 0.97647059
v -0.00611440 -0.00462060 0.01523381 0.77647059 0.86666667 0.97647059
v -0.00900231 -0.00228810 0.01863863 0.77647059 0.86666667 0.97647059
v 0.01100218 -0.00171243 0.01863863 0.77647059 0.86666667 0.97647059
v 0.01103768 -0.00171243 0.01147110 0.77647059 0.86666667 0.97647059
v 0.01227595 -0.00440049 0.01239349 0.77647059 0.86666667 0.97647059
v 0.01113373 -0.00171243 0.01237273 0.77647059 0.86666667 0.97647059
v 0.01118176 -0.00171243 0.01296294 0.77647059 0.86666667 0.97647059
v 0.01225925 -0.00776717 0.01237965 0.77647059 0.86666667 0.97647059
v 0.01175391 -0.00863136 0.01292636 0.77647059 0.86666667 0.97647059
v 0.01154301 -0.00863136 0.01179537 0.77647059 0.86666667 0.97647059
v -0.00183578 -0.00863136 0.01196739 0.77647059 0.86666667 0.97647059
v -0.00264598 -0.00838755 0.01253388 0.77647059 0.86666667 0.97647059
v -0.00347498 -0.00838755 0.01329709 0.77647059 0.86666667 0.97647059
v -0.00423715 -0.00838755 0.01417697 0.77647059 0.86666667 0.97647059
v -0.00624178 -0.00863136 0.01656944 0.77647059 0.86666667 0.97647059
v -0.00879976 -0.00381263 0.01863863 0.77647059 0.86666667 0.97647059
v -0.00880185 -0.00380179 0.01863863 0.77647059 0.86666667 0.97647059
v 0.01085601 -0.00378215 0.01863863 0.77647059 0.86666667 0.97647059
v 0.01225925 -0.00686235 0.01243205 0.77647059 0.86666667 0.97647059
v 0.01226969 -0.00533715 0.01244193 0.77647059 0.86666667 0.97647059
v 0.01173094 -0.00863136 0.01322492 0.77647059 0.86666667 0.97647059
v 0.01050311 -0.00862662 0.01863863 0.77647059 0.86666667 0.97647059
v -0.00241837 -0.00863136 0.01242809 0.77647059 0.86666667 0.97647059
v -0.00257916 -0.00863136 0.01256650 0.77647059 0.86666667 0.97647059
v -0.00343321 -0.00863136 0.01333763 0.77647059 0.86666667 0.97647059
v -0.00756775 -0.00863136 0.01863863 0.77647059 0.86666667 0.97647059
v -0.00846984 -0.00533715 0.01863863 0.77647059 0.86666667 0.97647059
v 0.01046135 -0.00863136 0.01863863 0.77647059 0.86666667 0.97647059
f 1 2 3
f 1 3 4
f 1 4 5
f 1 5 6
f 1 6 7
f 1 7 2
f 2 8 3
f 2 7 9
f 2 9 10
f 2 10 8
f 3 8 11
f 3 11 12
f 3 12 4
f 4 12 13
f 4 13 14
f 4 14 15
f 4 15 16
f 4 16 17
f 4 17 5
f 5 18 19
f 5 19 20
f 5 20 6
f 5 17 18
f 6 20 21
f 6 21 22
f 6 22 23
f 6 23 7
f 7 23 24
f 7 24 9
f 8 10 25
f 8 25 26
f 8 26 27
f 8 27 11
f 9 24 28
f 9 28 29
f 9 29 10
f 10 29 30
f 10 30 25
f 11 27 31
f 11 31 12
f 12 31 32
f 12 32 33
f 12 33 34
f 12 34 13
f 13 34 14
f 14 34 35
f 14 35 55
f 14 55 54
f 14 54 76
f 14 76 93
f 14 93 97
f 14 97 96
f 14 96 94
f 14 94 77
f 14 77 59
f 14 59 58
f 14 58 57
f 14 57 56
f 14 56 36
f 14 36 19
f 14 19 18
f 14 18 17
f 14 17 16
f 14 16 15
f 19 36 20
f 20 36 37
f 20 37 21
f 21 37 38
f 21 38 39
f 21 39 40
f 21 40 41
f 21 41 22
f 22 41 42
f 22 42 23
f 23 43 44
f 23 44 24
f 23 42 43
f 24 44 28
f 25 30 45
f 25 45 46
f 25 46 26
f 26 46 27
f 27 46 31
f 28 44 47
f 28 47 29
f 29 47 48
f 29 48 49
f 29 49 30
f 30 49 50
f 30 50 51
f 30 51 45
f 31 46 52
f 31 52 53
f 31 53 32
f 32 53 54
f 32 54 33
f 33 54 34
f 34 54 55
f 34 55 35
f 36 56 37
f 37 57 38
f 37 56 57
f 38 57 58
f 38 58 39
f 39 59 60
f 39 60 40
f 39 58 59
f 40 60 61
f 40 61 42
f 40 42 41
f 42 61 62
f 42 62 63
f 42 63 43
f 43 63 44
f 44 64 47
f 44 63 65
f 44 65 66
f 44 66 64
f 45 51 67
f 45 67 46
f 46 67 68
f 46 68 52
f 47 64 69
f 47 69 48
f 48 69 64
f 48 64 66
f 48 66 83
f 48 83 100
f 48 100 99
f 48 99 111
f 48 111 118
f 48 118 116
f 48 116 105
f 48 105 115
f 48 115 114
f 48 114 113
f 48 113 101
f 48 101 85
f 48 85 84
f 48 84 67
f 48 67 51
f 48 51 50
f 48 50 49
f 52 68 70
f 52 70 71
f 52 71 53
f 53 71 72
f 53 72 73
f 53 73 54
f 54 74 75
f 54 75 76
f 54 73 74
f 59 77 60
f 60 78 61
f 60 77 79
f 60 79 78
f 61 78 80
f 61 80 81
f 61 81 62
f 62 81 63
f 63 81 65
f 65 81 66
f 66 81 82
f 66 82 83
f 67 84 70
f 67 70 68
f 70 85 86
f 70 86 87
f 70 87 71
f 70 84 85
f 71 87 72
f 72 87 73
f 73 87 88
f 73 88 74
f 74 88 75
f 75 88 89
f 75 89 90
f 75 90 76
f 76 90 91
f 76 91 92
f 76 92 107
f 76 107 106
f 76 106 117
f 76 117 116
f 76 116 118
f 76 118 112
f 76 112 108
f 76 108 93
f 77 94 79
f 78 95 98
f 78 98 81
f 78 81 80
f 78 79 94
f 78 94 96
f 78 96 97
f 78 97 95
f 81 98 99
f 81 99 100
f 81 100 83
f 81 83 82
f 85 101 86
f 86 101 87
f 87 101 102
f 87 102 88
f 88 102 89
f 89 102 103
f 89 103 91
f 89 91 90
f 91 104 105
f 91 105 106
f 91 106 107
f 91 107 92
f 91 103 104
f 93 108 98
f 93 98 109
f 93 109 110
f 93 110 95
f 93 95 97
f 95 110 98
f 98 111 99
f 98 110 109
f 98 108 112
f 98 112 111
f 101 113 102
f 102 113 114
f 102 114 115
f 102 115 103
f 103 115 105
f 103 105 104
f 105 116 117
f 105 117 106
f 111 112 118

