# https://github.com/mikedh/trimesh
v 0.02166729 -0.00228810 0.03889011 0.79607843 0.45882353 0.78039216
v 0.02165084 -0.00171243 0.03889011 0.79607843 0.45882353 0.78039216
v 0.02162207 -0.00171243 0.04041569 0.79607843 0.45882353 0.78039216
v 0.02163029 -0.00228810 0.04041569 0.79607843 0.45882353 0.78039216
v 0.02165084 -0.00381263 0.03889011 0.79607843 0.45882353 0.78039216
v 0.02166729 -0.00381263 0.03736451 0.79607843 0.45882353 0.78039216
v 0.02166729 -0.00228810 0.03736451 0.79607843 0.45882353 0.78039216
v 0.02160973 -0.00171243 0.03734742 0.79607843 0.45882353 0.78039216
v 0.02152749 -0.00171243 0.04193701 0.79607843 0.45882353 0.78039216
v 0.02153161 -0.00863136 0.04041569 0.79607843 0.45882353 0.78039216
v 0.02152749 -0.00228810 0.04193701 0.79607843 0.45882353 0.78039216
v 0.02146582 -0.00863136 0.04193701 0.79607843 0.45882353 0.78039216
v 0.02128902 -0.00863136 0.03727904 0.79607843 0.45882353 0.78039216
v 0.02133014 -0.00731679 0.03682179 0.79607843 0.45882353 0.78039216
v 0.02150694 -0.00381263 0.03617224 0.79607843 0.45882353 0.78039216
v 0.02147816 -0.00863136 0.03913368 0.79607843 0.45882353 0.78039216
v 0.02146171 -0.00863136 0.03889011 0.79607843 0.45882353 0.78039216
v 0.02138359 -0.00863136 0.03805252 0.79607843 0.45882353 0.78039216
v 0.02150283 -0.00228810 0.03615515 0.79607843 0.45882353 0.78039216
v 0.02153983 -0.00171243 0.03681325 0.79607843 0.45882353 0.78039216
v 0.02140003 -0.00171243 0.04316774 0.79607843 0.45882353 0.78039216
v 0.02139181 -0.00533715 0.04305236 0.79607843 0.45882353 0.78039216
v 0.02138770 -0.00686235 0.04299681 0.79607843 0.45882353 0.78039216
v 0.02137948 -0.00863136 0.04293270 0.79607843 0.45882353 0.78039216
v 0.02046258 -0.00863136 0.03279201 0.79607843 0.45882353 0.78039216
v 0.02141648 -0.00533715 0.03637309 0.79607843 0.45882353 0.78039216
v 0.02013776 -0.00863136 0.03158692 0.79607843 0.45882353 0.78039216
v 0.02007609 -0.00863136 0.03136898 0.79607843 0.45882353 0.78039216
v 0.02121090 -0.00228810 0.03539449 0.79607843 0.45882353 0.78039216
v 0.02146171 -0.00171243 0.03624489 0.79607843 0.45882353 0.78039216
v 0.02007197 -0.00838755 0.03136044 0.79607843 0.45882353 0.78039216
v 0.01978416 -0.00838755 0.03059550 0.79607843 0.45882353 0.78039216
v 0.01974305 -0.00686235 0.03075789 0.79607843 0.45882353 0.78039216
v 0.02131780 -0.00171243 0.04393267 0.79607843 0.45882353 0.78039216
v 0.02119034 -0.00171243 0.04498819 0.79607843 0.45882353 0.78039216
v 0.02125613 -0.00863136 0.04391131 0.79607843 0.45882353 0.78039216
v 0.01983350 -0.00863136 0.03072798 0.79607843 0.45882353 0.78039216
v 0.01848078 -0.00171243 0.02861266 0.79607843 0.45882353 0.78039216
v 0.01978005 -0.00863136 0.03060832 0.79607843 0.45882353 0.78039216
v 0.01938533 -0.00838755 0.02974083 0.79607843 0.45882353 0.78039216
v 0.01930721 -0.00686235 0.02974083 0.79607843 0.45882353 0.78039216
v 0.02114922 -0.00533715 0.04498819 0.79607843 0.45882353 0.78039216
v 0.02098065 -0.00171243 0.04650951 0.79607843 0.45882353 0.78039216
v 0.02107521 -0.00863136 0.04523177 0.79607843 0.45882353 0.78039216
v 0.01834098 -0.00171243 0.02832635 0.79607843 0.45882353 0.78039216
v 0.01944290 -0.00863136 0.02988613 0.79607843 0.45882353 0.78039216
v 0.01937300 -0.00863136 0.02974083 0.79607843 0.45882353 0.78039216
v 0.01876448 -0.00863136 0.02860412 0.79607843 0.45882353 0.78039216
v 0.01865757 -0.00838755 0.02838617 0.79607843 0.45882353 0.78039216
v 0.01809839 -0.00171243 0.02785201 0.79607843 0.45882353 0.78039216
v 0.02070106 -0.00171243 0.04803510 0.79607843 0.45882353 0.78039216
v 0.02088608 -0.00863136 0.04650951 0.79607843 0.45882353 0.78039216
v 0.01865346 -0.00863136 0.02839899 0.79607843 0.45882353 0.78039216
v 0.01825875 -0.00863136 0.02775799 0.79607843 0.45882353 0.78039216
v 0.01818885 -0.00838755 0.02762552 0.79607843 0.45882353 0.78039216
v 0.01688957 -0.00171243 0.02576233 0.79607843 0.45882353 0.78039216
v 0.01744875 -0.00171243 0.02668965 0.79607843 0.45882353 0.78039216
v 0.01786814 -0.00171243 0.02742894 0.79607843 0.45882353 0.78039216
v 0.02046669 -0.00171243 0.04898806 0.79607843 0.45882353 0.78039216
v 0.02058182 -0.00863136 0.04803510 0.79607843 0.45882353 0.78039216
v 0.02084085 -0.00863136 0.04675310 0.79607843 0.45882353 0.78039216
v 0.01818063 -0.00863136 0.02763406 0.79607843 0.45882353 0.78039216
v 0.01749398 -0.00838755 0.02668965 0.79607843 0.45882353 0.78039216
v 0.01689368 -0.00686235 0.02578797 0.79607843 0.45882353 0.78039216
v 0.01100171 -0.00171243 0.01864290 0.79607843 0.45882353 0.78039216
v 0.02032278 -0.00171243 0.04956069 0.79607843 0.45882353 0.78039216
v 0.02052015 -0.00863136 0.04827868 0.79607843 0.45882353 0.78039216
v 0.01759677 -0.00863136 0.02685204 0.79607843 0.45882353 0.78039216
v 0.01691013 -0.00863136 0.02596745 0.79607843 0.45882353 0.78039216
v 0.01684023 -0.00838755 0.02585207 0.79607843 0.45882353 0.78039216
v 0.01618237 -0.00838755 0.02508714 0.79607843 0.45882353 0.78039216
v 0.01085369 -0.00378215 0.01864290 0.79607843 0.45882353 0.78039216
v -0.00905484 -0.00171243 0.01864290 0.79607843 0.45882353 0.78039216
v 0.01996507 -0.00171243 0.05070595 0.79607843 0.45882353 0.78039216
v 0.01990751 -0.00863136 0.05052220 0.79607843 0.45882353 0.78039216
v 0.02019121 -0.00863136 0.04956069 0.79607843 0.45882353 0.78039216
v 0.01682790 -0.00863136 0.02586489 0.79607843 0.45882353 0.78039216
v 0.01619471 -0.00863136 0.02512560 0.79607843 0.45882353 0.78039216
v 0.01050420 -0.00862662 0.01864290 0.79607843 0.45882353 0.78039216
v -0.00968803 -0.00171243 0.01927536 0.79607843 0.45882353 0.78039216
v -0.00900139 -0.00228810 0.01864290 0.79607843 0.45882353 0.78039216
v -0.00967158 -0.00228810 0.01930528 0.79607843 0.45882353 0.78039216
v 0.01978416 -0.00171243 0.05118030 0.79607843 0.45882353 0.78039216
v 0.01967315 -0.00171243 0.05147089 0.79607843 0.45882353 0.78039216
v 0.01955802 -0.00863136 0.05128286 0.79607843 0.45882353 0.78039216
v 0.01050420 -0.00863136 0.01866000 0.79607843 0.45882353 0.78039216
v 0.01045898 -0.00863136 0.01864290 0.79607843 0.45882353 0.78039216
v -0.01043635 -0.00228810 0.02014286 0.79607843 0.45882353 0.78039216
v -0.01044868 -0.00171243 0.02012576 0.79607843 0.45882353 0.78039216
v -0.00879992 -0.00381263 0.01864290 0.79607843 0.45882353 0.78039216
v -0.00960169 -0.00381263 0.01939929 0.79607843 0.45882353 0.78039216
v -0.01036234 -0.00381263 0.02022832 0.79607843 0.45882353 0.78039216
v 0.01931132 -0.00171243 0.05219736 0.79607843 0.45882353 0.78039216
v 0.01908930 -0.00228810 0.05261188 0.79607843 0.45882353 0.78039216
v 0.01886727 -0.00863136 0.05261188 0.79607843 0.45882353 0.78039216
v -0.00756643 -0.00863136 0.01864290 0.79607843 0.45882353 0.78039216
v -0.01573213 -0.00863136 0.02690332 0.79607843 0.45882353 0.78039216
v -0.01574447 -0.00838755 0.02689477 0.79607843 0.45882353 0.78039216
v -0.01650923 -0.00686235 0.02783491 0.79607843 0.45882353 0.78039216
v -0.01646812 -0.00533715 0.02788192 0.79607843 0.45882353 0.78039216
v -0.01636532 -0.00381263 0.02802721 0.79607843 0.45882353 0.78039216
v -0.01624198 -0.00171243 0.02828789 0.79607843 0.45882353 0.78039216
v -0.01650512 -0.00838755 0.02785201 0.79607843 0.45882353 0.78039216
v -0.00847099 -0.00533715 0.01864290 0.79607843 0.45882353 0.78039216
v -0.00945367 -0.00533715 0.01954031 0.79607843 0.45882353 0.78039216
v -0.01503727 -0.00863136 0.02614266 0.79607843 0.45882353 0.78039216
v -0.01562523 -0.00863136 0.02678366 0.79607843 0.45882353 0.78039216
v 0.01910163 -0.00171243 0.05261188 0.79607843 0.45882353 0.78039216
v 0.01849311 -0.00171243 0.05368449 0.79607843 0.45882353 0.78039216
v 0.01848489 -0.00228810 0.05366740 0.79607843 0.45882353 0.78039216
v 0.01836976 -0.00863136 0.05347509 0.79607843 0.45882353 0.78039216
v -0.00820373 -0.00863136 0.01918990 0.79607843 0.45882353 0.78039216
v -0.01637355 -0.00863136 0.02771098 0.79607843 0.45882353 0.78039216
v -0.01698618 -0.00686235 0.02859984 0.79607843 0.45882353 0.78039216
v -0.01696973 -0.00533715 0.02864685 0.79607843 0.45882353 0.78039216
v -0.01688339 -0.00381263 0.02878787 0.79607843 0.45882353 0.78039216
v -0.01646400 -0.00171243 0.02862976 0.79607843 0.45882353 0.78039216
v -0.01649690 -0.00863136 0.02787337 0.79607843 0.45882353 0.78039216
v -0.01696973 -0.00838755 0.02861694 0.79607843 0.45882353 0.78039216
v -0.00925220 -0.00686235 0.01972834 0.79607843 0.45882353 0.78039216
v -0.00947011 -0.00863136 0.02040780 0.79607843 0.45882353 0.78039216
v 0.01799149 -0.00171243 0.05444515 0.79607843 0.45882353 0.78039216
v 0.01797916 -0.00228810 0.05443233 0.79607843 0.45882353 0.78039216
v 0.01795037 -0.00381263 0.05437678 0.79607843 0.45882353 0.78039216
v 0.01718972 -0.00381263 0.05541520 0.79607843 0.45882353 0.78039216
v 0.01714860 -0.00533715 0.05534683 0.79607843 0.45882353 0.78039216
v 0.01776535 -0.00863136 0.05423575 0.79607843 0.45882353 0.78039216
v -0.00914941 -0.00762766 0.01982663 0.79607843 0.45882353 0.78039216
v -0.01844992 -0.00381263 0.03174077 0.79607843 0.45882353 0.78039216
v -0.01840470 -0.00228810 0.03182623 0.79607843 0.45882353 0.78039216
v -0.01838003 -0.00171243 0.03187751 0.79607843 0.45882353 0.78039216
v -0.01816622 -0.00171243 0.03149291 0.79607843 0.45882353 0.78039216
v -0.01714653 -0.00171243 0.02972374 0.79607843 0.45882353 0.78039216
v -0.01798120 -0.00171243 0.03116813 0.79607843 0.45882353 0.78039216
v -0.01695740 -0.00863136 0.02863403 0.79607843 0.45882353 0.78039216
v -0.01842936 -0.00533715 0.03175786 0.79607843 0.45882353 0.78039216
v 0.01751454 -0.00171243 0.05509898 0.79607843 0.45882353 0.78039216
v 0.01721850 -0.00228810 0.05547930 0.79607843 0.45882353 0.78039216
v 0.01660587 -0.00228810 0.05623996 0.79607843 0.45882353 0.78039216
v 0.01646196 -0.00533715 0.05611176 0.79607843 0.45882353 0.78039216
v 0.01708282 -0.00686235 0.05526564 0.79607843 0.45882353 0.78039216
v 0.01700059 -0.00863136 0.05516307 0.79607843 0.45882353 0.78039216
v -0.01890220 -0.00381263 0.03279201 0.79607843 0.45882353 0.78039216
v -0.01885698 -0.00228810 0.03279201 0.79607843 0.45882353 0.78039216
v -0.01850337 -0.00171243 0.03212109 0.79607843 0.45882353 0.78039216
v -0.01730689 -0.00863136 0.02957844 0.79607843 0.45882353 0.78039216
v -0.01881997 -0.00533715 0.03279201 0.79607843 0.45882353 0.78039216
v 0.01722673 -0.00171243 0.05549213 0.79607843 0.45882353 0.78039216
v 0.01662232 -0.00171243 0.05625705 0.79607843 0.45882353 0.78039216
v 0.01584522 -0.00228810 0.05697925 0.79607843 0.45882353 0.78039216
v 0.01577121 -0.00381263 0.05691943 0.79607843 0.45882353 0.78039216
v 0.01553273 -0.00863136 0.05668012 0.79607843 0.45882353 0.78039216
v 0.01638795 -0.00686235 0.05602630 0.79607843 0.45882353 0.78039216
v 0.01569720 -0.00533715 0.05684678 0.79607843 0.45882353 0.78039216
v 0.01629750 -0.00863136 0.05592801 0.79607843 0.45882353 0.78039216
v -0.01944905 -0.00381263 0.03431760 0.79607843 0.45882353 0.78039216
v -0.01947783 -0.00228810 0.03431760 0.79607843 0.45882353 0.78039216
v -0.01907900 -0.00171243 0.03336464 0.79607843 0.45882353 0.78039216
v -0.01879119 -0.00171243 0.03274073 0.79607843 0.45882353 0.78039216
v -0.01736445 -0.00863136 0.02974083 0.79607843 0.45882353 0.78039216
v -0.01856916 -0.00696394 0.03265954 0.79607843 0.45882353 0.78039216
v -0.01929281 -0.00533715 0.03431760 0.79607843 0.45882353 0.78039216
v 0.01585755 -0.00171243 0.05699208 0.79607843 0.45882353 0.78039216
v 0.01347692 -0.00171243 0.05923986 0.79607843 0.45882353 0.78039216
v 0.01495710 -0.00381263 0.05768008 0.79607843 0.45882353 0.78039216
v 0.01271626 -0.00171243 0.05994497 0.79607843 0.45882353 0.78039216
v 0.01539705 -0.00863136 0.05679977 0.79607843 0.45882353 0.78039216
v -0.01976154 -0.00381263 0.03546714 0.79607843 0.45882353 0.78039216
v -0.01978621 -0.00228810 0.03522356 0.79607843 0.45882353 0.78039216
v -0.01958884 -0.00171243 0.03465520 0.79607843 0.45882353 0.78039216
v -0.01946139 -0.00171243 0.03431760 0.79607843 0.45882353 0.78039216
v -0.01812922 -0.00863136 0.03212964 0.79607843 0.45882353 0.78039216
v -0.01846637 -0.00838755 0.03305696 0.79607843 0.45882353 0.78039216
v -0.01828546 -0.00753961 0.03206127 0.79607843 0.45882353 0.78039216
v -0.01908312 -0.00686235 0.03431760 0.79607843 0.45882353 0.78039216
v 0.01179115 -0.00171243 0.06070563 0.79607843 0.45882353 0.78039216
v 0.01450894 -0.00863136 0.05755188 0.79607843 0.45882353 0.78039216
v -0.01965874 -0.00523624 0.03594576 0.79607843 0.45882353 0.78039216
v -0.01983555 -0.00466124 0.03652266 0.79607843 0.45882353 0.78039216
v -0.01988077 -0.00381263 0.03622780 0.79607843 0.45882353 0.78039216
v -0.01996300 -0.00228810 0.03598422 0.79607843 0.45882353 0.78039216
v -0.01987666 -0.00171243 0.03550987 0.79607843 0.45882353 0.78039216
v -0.01978209 -0.00171243 0.03522356 0.79607843 0.45882353 0.78039216
v -0.01998767 -0.00171243 0.03598422 0.79607843 0.45882353 0.78039216
v -0.01840881 -0.00863136 0.03302277 0.79607843 0.45882353 0.78039216
v -0.01844170 -0.00863136 0.03312961 0.79607843 0.45882353 0.78039216
v -0.01872129 -0.00863136 0.03409966 0.79607843 0.45882353 0.78039216
v -0.01882819 -0.00838755 0.03431760 0.79607843 0.45882353 0.78039216
v -0.01914479 -0.00838755 0.03583892 0.79607843 0.45882353 0.78039216
v -0.01939560 -0.00686235 0.03583892 0.79607843 0.45882353 0.78039216
v 0.01154856 -0.00863136 0.05992360 0.79607843 0.45882353 0.78039216
v 0.01165135 -0.00863136 0.05984668 0.79607843 0.45882353 0.78039216
v 0.01271626 -0.00863136 0.05901338 0.79607843 0.45882353 0.78039216
v 0.01282317 -0.00863136 0.05892791 0.79607843 0.45882353 0.78039216
v 0.01373184 -0.00863136 0.05818862 0.79607843 0.45882353 0.78039216
v 0.01103049 -0.00171243 0.06126116 0.79607843 0.45882353 0.78039216
v -0.01976154 -0.00567714 0.03706110 0.79607843 0.45882353 0.78039216
v -0.01983143 -0.00614038 0.03807816 0.79607843 0.45882353 0.78039216
v -0.01987666 -0.00523624 0.03748844 0.79607843 0.45882353 0.78039216
v -0.02002057 -0.00381263 0.03736451 0.79607843 0.45882353 0.78039216
v -0.02016859 -0.00228810 0.03736451 0.79607843 0.45882353 0.78039216
v -0.02021381 -0.00171243 0.03736451 0.79607843 0.45882353 0.78039216
v -0.02008636 -0.00171243 0.03650557 0.79607843 0.45882353 0.78039216
v -0.01877885 -0.00863136 0.03430478 0.79607843 0.45882353 0.78039216
v -0.01910367 -0.00863136 0.03583892 0.79607843 0.45882353 0.78039216
v -0.01932159 -0.00863136 0.03736451 0.79607843 0.45882353 0.78039216
v -0.01965052 -0.00673435 0.03748844 0.79607843 0.45882353 0.78039216
v 0.01017939 -0.00863136 0.06079109 0.79607843 0.45882353 0.78039216
v 0.00991213 -0.00171243 0.06179106 0.79607843 0.45882353 0.78039216
v -0.01946550 -0.00863136 0.03889011 0.79607843 0.45882353 0.78039216
v -0.01953128 -0.00863136 0.04041569 0.79607843 0.45882353 0.78039216
v -0.01983555 -0.00620066 0.03889011 0.79607843 0.45882353 0.78039216
v -0.01994245 -0.00533715 0.03889011 0.79607843 0.45882353 0.78039216
v -0.02011103 -0.00381263 0.03889011 0.79607843 0.45882353 0.78039216
v -0.02025493 -0.00228810 0.03889011 0.79607843 0.45882353 0.78039216
v -0.02025493 -0.00171243 0.03794142 0.79607843 0.45882353 0.78039216
v 0.01006015 -0.00863136 0.06084238 0.79607843 0.45882353 0.78039216
v 0.00896234 -0.00171243 0.06204319 0.79607843 0.45882353 0.78039216
v 0.00838671 -0.00863136 0.06141928 0.79607843 0.45882353 0.78039216
v 0.00941873 -0.00863136 0.06110305 0.79607843 0.45882353 0.78039216
v -0.01953128 -0.00863136 0.04193701 0.79607843 0.45882353 0.78039216
v -0.01974509 -0.00695784 0.04041569 0.79607843 0.45882353 0.78039216
v -0.01983555 -0.00619592 0.04041569 0.79607843 0.45882353 0.78039216
v -0.01993422 -0.00533715 0.04041569 0.79607843 0.45882353 0.78039216
v -0.02010691 -0.00381263 0.04041569 0.79607843 0.45882353 0.78039216
v -0.02027138 -0.00228810 0.04041569 0.79607843 0.45882353 0.78039216
v -0.02032894 -0.00171243 0.04041569 0.79607843 0.45882353 0.78039216
v -0.02032072 -0.00171243 0.03946701 0.79607843 0.45882353 0.78039216
v -0.02030838 -0.00171243 0.03889011 0.79607843 0.45882353 0.78039216
v 0.00843605 -0.00171243 0.06217994 0.79607843 0.45882353 0.78039216
v 0.00686130 -0.00863136 0.06155603 0.79607843 0.45882353 0.78039216
v -0.01951895 -0.00863136 0.04346260 0.79607843 0.45882353 0.78039216
v -0.02030427 -0.00171243 0.04098832 0.79607843 0.45882353 0.78039216
v 0.00749449 -0.00171243 0.06219703 0.79607843 0.45882353 0.78039216
v 0.00228505 -0.00863136 0.06165004 0.79607843 0.45882353 0.78039216
v -0.01943260 -0.00863136 0.04498819 0.79607843 0.45882353 0.78039216
v -0.02025904 -0.00171243 0.04193701 0.79607843 0.45882353 0.78039216
v -0.00076167 -0.00171243 0.06229532 0.79607843 0.45882353 0.78039216
v 0.00075963 -0.00863136 0.06162868 0.79607843 0.45882353 0.78039216
v -0.01927225 -0.00863136 0.04626593 0.79607843 0.45882353 0.78039216
v -0.01925992 -0.00838755 0.04650951 0.79607843 0.45882353 0.78039216
v -0.02012336 -0.00171243 0.04346260 0.79607843 0.45882353 0.78039216
v -0.02020970 -0.00171243 0.04250964 0.79607843 0.45882353 0.78039216
v -0.00838464 -0.00171243 0.06203464 0.79607843 0.45882353 0.78039216
v -0.00076167 -0.00863136 0.06146628 0.79607843 0.45882353 0.78039216
v -0.01923936 -0.00863136 0.04650951 0.79607843 0.45882353 0.78039216
v -0.01979854 -0.00171243 0.04561638 0.79607843 0.45882353 0.78039216
v -0.01984377 -0.00171243 0.04538562 0.79607843 0.45882353 0.78039216
v -0.01994245 -0.00171243 0.04484717 0.79607843 0.45882353 0.78039216
v -0.02003702 -0.00171243 0.04413352 0.79607843 0.45882353 0.78039216
v -0.01896388 -0.00863136 0.04779152 0.79607843 0.45882353 0.78039216
v -0.01893098 -0.00838755 0.04803510 0.79607843 0.45882353 0.78039216
v -0.00991828 -0.00171243 0.06179534 0.79607843 0.45882353 0.78039216
v -0.00838464 -0.00863136 0.06011163 0.79607843 0.45882353 0.78039216
v -0.01874185 -0.00171243 0.04956069 0.79607843 0.45882353 0.78039216
v -0.01891043 -0.00863136 0.04803510 0.79607843 0.45882353 0.78039216
v -0.01850748 -0.00838755 0.04922737 0.79607843 0.45882353 0.78039216
v -0.01840058 -0.00171243 0.05068886 0.79607843 0.45882353 0.78039216
v -0.01858561 -0.00171243 0.05009486 0.79607843 0.45882353 0.78039216
v -0.01076117 -0.00171243 0.06146201 0.79607843 0.45882353 0.78039216
v -0.00991828 -0.00863136 0.05969712 0.79607843 0.45882353 0.78039216
v -0.01849515 -0.00863136 0.04920173 0.79607843 0.45882353 0.78039216
v -0.01759470 -0.00171243 0.05257342 0.79607843 0.45882353 0.78039216
v -0.01799764 -0.00171243 0.05169310 0.79607843 0.45882353 0.78039216
v -0.01811688 -0.00171243 0.05139824 0.79607843 0.45882353 0.78039216
v -0.01827312 -0.00171243 0.05100936 0.79607843 0.45882353 0.78039216
v -0.01110243 -0.00171243 0.06131672 0.79607843 0.45882353 0.78039216
v -0.01049802 -0.00863136 0.05944071 0.79607843 0.45882353 0.78039216
v -0.01817444 -0.00863136 0.04984274 0.79607843 0.45882353 0.78039216
v -0.01731100 -0.00171243 0.05316741 0.79607843 0.45882353 0.78039216
v -0.01186720 -0.00171243 0.06077400 0.79607843 0.45882353 0.78039216
v -0.01061315 -0.00863136 0.05935952 0.79607843 0.45882353 0.78039216
v -0.01810866 -0.00863136 0.04996666 0.79607843 0.45882353 0.78039216
v -0.01698618 -0.00171243 0.05379132 0.79607843 0.45882353 0.78039216
v -0.01219202 -0.00171243 0.06045777 0.79607843 0.45882353 0.78039216
v -0.01146014 -0.00863136 0.05861168 0.79607843 0.45882353 0.78039216
v -0.01128746 -0.00863136 0.05877834 0.79607843 0.45882353 0.78039216
v -0.01755359 -0.00863136 0.05088971 0.79607843 0.45882353 0.78039216
v -0.01627487 -0.00171243 0.05491949 0.79607843 0.45882353 0.78039216
v -0.01741790 -0.00863136 0.05110765 0.79607843 0.45882353 0.78039216
v -0.01263196 -0.00171243 0.05995352 0.79607843 0.45882353 0.78039216
v -0.01215912 -0.00863136 0.05789375 0.79607843 0.45882353 0.78039216
v -0.01581848 -0.00171243 0.05556477 0.79607843 0.45882353 0.78039216
v -0.01692862 -0.00863136 0.05185976 0.79607843 0.45882353 0.78039216
v -0.01685872 -0.00863136 0.05196233 0.79607843 0.45882353 0.78039216
v -0.01500437 -0.00171243 0.05669721 0.79607843 0.45882353 0.78039216
v -0.01632010 -0.00863136 0.05270589 0.79607843 0.45882353 0.78039216
v -0.01554300 -0.00863136 0.05376569 0.79607843 0.45882353 0.78039216
v -0.01495915 -0.00863136 0.05453062 0.79607843 0.45882353 0.78039216
v -0.01419849 -0.00863136 0.05544512 0.79607843 0.45882353 0.78039216
f 1 2 3
f 1 3 4
f 1 4 5
f 1 5 6
f 1 6 7
f 1 7 2
f 2 7 8
f 2 8 20
f 2 20 30
f 2 30 38
f 2 38 45
f 2 45 50
f 2 50 58
f 2 58 57
f 2 57 56
f 2 56 65
f 2 65 73
f 2 73 80
f 2 80 89
f 2 89 102
f 2 102 117
f 2 117 133
f 2 133 134
f 2 134 132
f 2 132 131
f 2 131 145
f 2 145 159
f 2 159 158
f 2 158 171
f 2 171 170
f 2 170 183
f 2 183 182
f 2 182 184
f 2 184 203
f 2 203 202
f 2 202 216
f 2 216 229
f 2 229 228
f 2 228 227
f 2 227 233
f 2 233 237
f 2 237 243
f 2 243 242
f 2 242 250
f 2 250 249
f 2 249 248
f 2 248 247
f 2 247 255
f 2 255 259
f 2 259 258
f 2 258 266
f 2 266 265
f 2 265 264
f 2 264 263
f 2 263 270
f 2 270 274
f 2 274 279
f 2 279 283
f 2 283 286
f 2 286 281
f 2 281 275
f 2 275 271
f 2 271 267
f 2 267 260
f 2 260 253
f 2 253 244
f 2 244 238
f 2 238 234
f 2 234 230
f 2 230 218
f 2 218 209
f 2 209 196
f 2 196 176
f 2 176 166
f 2 166 164
f 2 164 163
f 2 163 149
f 2 149 148
f 2 148 137
f 2 137 122
f 2 122 109
f 2 109 108
f 2 108 93
f 2 93 84
f 2 84 83
f 2 83 74
f 2 74 66
f 2 66 59
f 2 59 51
f 2 51 43
f 2 43 35
f 2 35 34
f 2 34 21
f 2 21 9
f 2 9 3
f 3 9 4
f 4 10 5
f 4 9 11
f 4 11 12
f 4 12 10
f 5 10 6
f 6 13 14
f 6 14 15
f 6 15 7
f 6 10 16
f 6 16 17
f 6 17 18
f 6 18 13
f 7 15 19
f 7 19 20
f 7 20 8
f 9 21 11
f 10 12 24
f 10 24 36
f 10 36 44
f 10 44 52
f 10 52 61
f 10 61 60
f 10 60 67
f 10 67 76
f 10 76 75
f 10 75 85
f 10 85 95
f 10 95 111
f 10 111 127
f 10 127 142
f 10 142 155
f 10 155 152
f 10 152 167
f 10 167 177
f 10 177 195
f 10 195 194
f 10 194 193
f 10 193 192
f 10 192 191
f 10 191 208
f 10 208 217
f 10 217 220
f 10 220 219
f 10 219 231
f 10 231 235
f 10 235 239
f 10 239 245
f 10 245 254
f 10 254 261
f 10 261 268
f 10 268 272
f 10 272 277
f 10 277 276
f 10 276 282
f 10 282 290
f 10 290 289
f 10 289 288
f 10 288 287
f 10 287 285
f 10 285 284
f 10 284 280
f 10 280 278
f 10 278 273
f 10 273 269
f 10 269 262
f 10 262 256
f 10 256 251
f 10 251 246
f 10 246 240
f 10 240 236
f 10 236 232
f 10 232 221
f 10 221 211
f 10 211 210
f 10 210 206
f 10 206 205
f 10 205 204
f 10 204 187
f 10 187 186
f 10 186 185
f 10 185 172
f 10 172 160
f 10 160 146
f 10 146 135
f 10 135 118
f 10 118 113
f 10 113 97
f 10 97 107
f 10 107 106
f 10 106 121
f 10 121 112
f 10 112 96
f 10 96 87
f 10 87 86
f 10 86 78
f 10 78 77
f 10 77 69
f 10 69 68
f 10 68 62
f 10 62 54
f 10 54 53
f 10 53 48
f 10 48 47
f 10 47 46
f 10 46 39
f 10 39 37
f 10 37 28
f 10 28 27
f 10 27 25
f 10 25 13
f 10 13 18
f 10 18 17
f 10 17 16
f 11 21 22
f 11 22 23
f 11 23 24
f 11 24 12
f 13 25 14
f 14 26 15
f 14 25 26
f 15 26 25
f 15 25 27
f 15 27 28
f 15 28 19
f 19 29 30
f 19 30 20
f 19 28 31
f 19 31 32
f 19 32 33
f 19 33 29
f 21 34 22
f 22 34 23
f 23 34 35
f 23 35 24
f 24 35 36
f 28 37 32
f 28 32 31
f 29 33 38
f 29 38 30
f 32 39 40
f 32 40 41
f 32 41 38
f 32 38 33
f 32 37 39
f 35 42 36
f 35 43 42
f 36 42 44
f 38 41 45
f 39 46 40
f 40 46 47
f 40 47 48
f 40 48 49
f 40 49 50
f 40 50 45
f 40 45 41
f 42 43 44
f 43 51 52
f 43 52 44
f 48 53 49
f 49 53 54
f 49 54 55
f 49 55 56
f 49 56 57
f 49 57 58
f 49 58 50
f 51 59 60
f 51 60 61
f 51 61 52
f 54 62 55
f 55 62 63
f 55 63 64
f 55 64 56
f 56 64 65
f 59 66 60
f 60 66 67
f 62 68 63
f 63 68 69
f 63 69 70
f 63 70 64
f 64 70 71
f 64 71 65
f 65 72 79
f 65 79 87
f 65 87 96
f 65 96 104
f 65 104 90
f 65 90 81
f 65 81 73
f 65 71 72
f 66 74 75
f 66 75 76
f 66 76 67
f 69 77 70
f 70 77 78
f 70 78 71
f 71 78 79
f 71 79 72
f 73 81 82
f 73 82 80
f 74 83 75
f 75 83 84
f 75 84 85
f 78 86 79
f 79 86 87
f 80 82 88
f 80 88 89
f 81 90 91
f 81 91 82
f 82 91 92
f 82 92 88
f 84 93 94
f 84 94 85
f 85 94 95
f 88 92 97
f 88 97 98
f 88 98 89
f 89 99 100
f 89 100 101
f 89 101 102
f 89 98 103
f 89 103 99
f 90 104 105
f 90 105 91
f 91 105 106
f 91 106 92
f 92 106 107
f 92 107 97
f 93 108 94
f 94 108 109
f 94 109 110
f 94 110 95
f 95 110 111
f 96 112 104
f 97 113 103
f 97 103 98
f 99 103 114
f 99 114 115
f 99 115 100
f 100 115 116
f 100 116 101
f 101 116 102
f 102 116 117
f 103 118 119
f 103 119 114
f 103 113 118
f 104 112 105
f 105 112 120
f 105 120 121
f 105 121 106
f 109 122 110
f 110 122 123
f 110 123 111
f 111 123 124
f 111 124 125
f 111 125 126
f 111 126 127
f 112 121 128
f 112 128 120
f 114 129 115
f 114 119 129
f 115 129 130
f 115 130 131
f 115 131 132
f 115 132 116
f 116 133 117
f 116 132 134
f 116 134 133
f 118 135 119
f 119 135 136
f 119 136 129
f 120 128 121
f 122 137 138
f 122 138 123
f 123 138 124
f 124 138 125
f 125 138 139
f 125 139 126
f 126 139 140
f 126 140 141
f 126 141 127
f 127 141 142
f 129 136 143
f 129 143 144
f 129 144 130
f 130 144 145
f 130 145 131
f 135 146 147
f 135 147 136
f 136 147 143
f 137 148 138
f 138 148 149
f 138 149 139
f 139 149 150
f 139 150 151
f 139 151 140
f 140 152 153
f 140 153 142
f 140 142 141
f 140 151 154
f 140 154 152
f 142 153 155
f 143 147 156
f 143 156 157
f 143 157 158
f 143 158 144
f 144 159 145
f 144 158 159
f 146 160 147
f 147 160 161
f 147 161 162
f 147 162 156
f 149 163 150
f 150 163 164
f 150 164 165
f 150 165 151
f 151 165 154
f 152 155 153
f 152 154 165
f 152 165 166
f 152 166 167
f 156 162 168
f 156 168 169
f 156 169 157
f 157 169 170
f 157 170 171
f 157 171 158
f 160 172 173
f 160 173 174
f 160 174 161
f 161 174 173
f 161 173 175
f 161 175 162
f 162 175 168
f 164 166 165
f 166 176 177
f 166 177 167
f 168 178 179
f 168 179 180
f 168 180 181
f 168 181 169
f 168 175 178
f 169 182 183
f 169 183 170
f 169 181 184
f 169 184 182
f 172 185 173
f 173 185 186
f 173 186 187
f 173 187 188
f 173 188 175
f 175 188 189
f 175 189 190
f 175 190 178
f 176 191 192
f 176 192 193
f 176 193 194
f 176 194 195
f 176 195 177
f 176 196 191
f 178 190 179
f 179 197 198
f 179 198 199
f 179 199 200
f 179 200 201
f 179 201 180
f 179 190 197
f 180 201 202
f 180 202 203
f 180 203 181
f 181 203 184
f 187 204 188
f 188 205 189
f 188 204 205
f 189 205 206
f 189 206 190
f 190 206 207
f 190 207 198
f 190 198 197
f 191 196 208
f 196 209 208
f 198 210 211
f 198 211 212
f 198 212 213
f 198 213 214
f 198 214 200
f 198 200 199
f 198 207 206
f 198 206 210
f 200 214 201
f 201 214 215
f 201 215 216
f 201 216 202
f 208 209 217
f 209 218 219
f 209 219 220
f 209 220 217
f 211 221 222
f 211 222 212
f 212 222 213
f 213 222 223
f 213 223 224
f 213 224 225
f 213 225 214
f 214 225 226
f 214 226 227
f 214 227 228
f 214 228 215
f 215 228 229
f 215 229 216
f 218 230 219
f 219 230 231
f 221 232 222
f 222 232 223
f 223 232 224
f 224 232 225
f 225 232 226
f 226 232 227
f 227 232 233
f 230 234 235
f 230 235 231
f 232 236 237
f 232 237 233
f 234 238 235
f 235 238 239
f 236 240 241
f 236 241 242
f 236 242 243
f 236 243 237
f 238 244 239
f 239 244 245
f 240 246 241
f 241 247 248
f 241 248 249
f 241 249 250
f 241 250 242
f 241 246 251
f 241 251 252
f 241 252 247
f 244 253 245
f 245 253 254
f 247 252 255
f 251 256 252
f 252 256 257
f 252 257 258
f 252 258 259
f 252 259 255
f 253 260 261
f 253 261 254
f 256 262 257
f 257 262 263
f 257 263 264
f 257 264 265
f 257 265 266
f 257 266 258
f 260 267 261
f 261 267 268
f 262 269 270
f 262 270 263
f 267 271 272
f 267 272 268
f 269 273 274
f 269 274 270
f 271 275 276
f 271 276 277
f 271 277 272
f 273 278 274
f 274 278 280
f 274 280 279
f 275 281 282
f 275 282 276
f 279 280 284
f 279 284 285
f 279 285 283
f 281 286 287
f 281 287 288
f 281 288 289
f 281 289 290
f 281 290 282
f 283 285 286
f 285 287 286

