# https://github.com/mikedh/trimesh
v 0.00686257 0.03848018 -0.04808082 0.43529412 0.89019608 0.96078431
v 0.00700533 0.03849403 -0.04808082 0.43529412 0.89019608 0.96078431
v 0.00525729 0.03852020 -0.04808082 0.43529412 0.89019608 0.96078431
v 0.00563319 0.04262377 -0.06742345 0.43529412 0.89019608 0.96078431
v 0.00626996 0.04262377 -0.06742345 0.43529412 0.89019608 0.96078431
v 0.00838670 0.03863256 -0.04808082 0.43529412 0.89019608 0.96078431
v 0.00517513 0.03854021 -0.04808082 0.43529412 0.89019608 0.96078431
v 0.00461642 0.04271305 -0.06707661 0.43529412 0.89019608 0.96078431
v 0.00583655 0.04398907 -0.07211274 0.43529412 0.89019608 0.96078431
v 0.00649180 0.04398907 -0.07211274 0.43529412 0.89019608 0.96078431
v 0.00967975 0.03908510 -0.04808082 0.43529412 0.89019608 0.96078431
v 0.00957499 0.03904508 -0.04808082 0.43529412 0.89019608 0.96078431
v 0.00375062 0.03915590 -0.04808082 0.43529412 0.89019608 0.96078431
v 0.00437917 0.04257760 -0.06605828 0.43529412 0.89019608 0.96078431
v 0.00400430 0.04331796 -0.06647449 0.43529412 0.89019608 0.96078431
v 0.00424155 0.04367968 -0.06786186 0.43529412 0.89019608 0.96078431
v 0.00444285 0.04399368 -0.06902724 0.43529412 0.89019608 0.96078431
v 0.00555822 0.04487874 -0.07254837 0.43529412 0.89019608 0.96078431
v 0.00585504 0.04531434 -0.07358057 0.43529412 0.89019608 0.96078431
v 0.00686257 0.04526970 -0.07370266 0.43529412 0.89019608 0.96078431
v 0.00462361 0.04447392 -0.07004557 0.43529412 0.89019608 0.96078431
v 0.00775301 0.04554522 -0.07348901 0.43529412 0.89019608 0.96078431
v 0.00750755 0.04436618 -0.07125812 0.43529412 0.89019608 0.96078431
v 0.00694473 0.04387516 -0.07081417 0.43529412 0.89019608 0.96078431
v 0.00977424 0.03915128 -0.04808082 0.43529412 0.89019608 0.96078431
v 0.00243908 0.04032264 -0.04808082 0.43529412 0.89019608 0.96078431
v 0.00319807 0.03975312 -0.04861079 0.43529412 0.89019608 0.96078431
v 0.00293515 0.04105069 -0.05376346 0.43529412 0.89019608 0.96078431
v 0.00348461 0.04359041 -0.06472642 0.43529412 0.89019608 0.96078431
v 0.00250584 0.04181414 -0.05421852 0.43529412 0.89019608 0.96078431
v 0.00303374 0.04418301 -0.06415759 0.43529412 0.89019608 0.96078431
v 0.00567633 0.04646876 -0.07403840 0.43529412 0.89019608 0.96078431
v 0.00595363 0.04694745 -0.07497626 0.43529412 0.89019608 0.96078431
v 0.00686257 0.04676429 -0.07514274 0.43529412 0.89019608 0.96078431
v 0.00686257 0.04600391 -0.07446571 0.43529412 0.89019608 0.96078431
v 0.00786907 0.04692129 -0.07502898 0.43529412 0.89019608 0.96078431
v 0.00392214 0.04498956 -0.06786186 0.43529412 0.89019608 0.96078431
v 0.00438431 0.04498494 -0.06947675 0.43529412 0.89019608 0.96078431
v 0.00453939 0.04549135 -0.07028142 0.43529412 0.89019608 0.96078431
v 0.00521519 0.04803722 -0.07396349 0.43529412 0.89019608 0.96078431
v 0.00825319 0.04804030 -0.07551733 0.43529412 0.89019608 0.96078431
v 0.00929974 0.04988583 -0.07500956 0.43529412 0.89019608 0.96078431
v 0.00944456 0.04651493 -0.06929362 0.43529412 0.89019608 0.96078431
v 0.00918677 0.04569299 -0.06872480 0.43529412 0.89019608 0.96078431
v 0.01102723 0.04049349 -0.04808082 0.43529412 0.89019608 0.96078431
v 0.01049112 0.03981007 -0.04808082 0.43529412 0.89019608 0.96078431
v 0.00232303 0.04043807 -0.04808082 0.43529412 0.89019608 0.96078431
v 0.00169448 0.04324562 -0.05414083 0.43529412 0.89019608 0.96078431
v 0.00303374 0.04471712 -0.06415759 0.43529412 0.89019608 0.96078431
v 0.00315596 0.04513117 -0.06472642 0.43529412 0.89019608 0.96078431
v 0.00350310 0.04498956 -0.06633853 0.43529412 0.89019608 0.96078431
v 0.00146853 0.04404294 -0.05500377 0.43529412 0.89019608 0.96078431
v 0.00138123 0.04498956 -0.05508978 0.43529412 0.89019608 0.96078431
v 0.00578622 0.04803722 -0.07527039 0.43529412 0.89019608 0.96078431
v 0.00674035 0.04804030 -0.07595297 0.43529412 0.89019608 0.96078431
v 0.00716760 0.04855132 -0.07642745 0.43529412 0.89019608 0.96078431
v 0.00794404 0.04855132 -0.07642745 0.43529412 0.89019608 0.96078431
v 0.00484031 0.04803722 -0.07243739 0.43529412 0.89019608 0.96078431
v 0.00522032 0.04956259 -0.07396349 0.43529412 0.89019608 0.96078431
v 0.00932131 0.05108797 -0.07500123 0.43529412 0.89019608 0.96078431
v 0.00970132 0.05108797 -0.07396349 0.43529412 0.89019608 0.96078431
v 0.01071707 0.05167749 -0.07032859 0.43529412 0.89019608 0.96078431
v 0.01003716 0.04803722 -0.06938796 0.43529412 0.89019608 0.96078431
v 0.00972391 0.04651339 -0.06786186 0.43529412 0.89019608 0.96078431
v 0.01104880 0.04055967 -0.04808082 0.43529412 0.89019608 0.96078431
v 0.01032474 0.04803722 -0.06786186 0.43529412 0.89019608 0.96078431
v 0.00161334 0.04193882 -0.04808082 0.43529412 0.89019608 0.96078431
v 0.00305120 0.04573454 -0.06404661 0.43529412 0.89019608 0.96078431
v 0.00139047 0.04608549 -0.05505094 0.43529412 0.89019608 0.96078431
v 0.00127852 0.04498956 -0.05414083 0.43529412 0.89019608 0.96078431
v 0.00580266 0.04956259 -0.07518714 0.43529412 0.89019608 0.96078431
v 0.00716760 0.04910237 -0.07642745 0.43529412 0.89019608 0.96078431
v 0.00794404 0.04910237 -0.07642745 0.43529412 0.89019608 0.96078431
v 0.00575952 0.05072163 -0.07396349 0.43529412 0.89019608 0.96078431
v 0.00597520 0.05046458 -0.07486527 0.43529412 0.89019608 0.96078431
v 0.00291563 0.04651339 -0.06313650 0.43529412 0.89019608 0.96078431
v 0.00295569 0.04758008 -0.06283405 0.43529412 0.89019608 0.96078431
v 0.00497897 0.04956259 -0.07243739 0.43529412 0.89019608 0.96078431
v 0.00135144 0.05042148 -0.04808082 0.43529412 0.89019608 0.96078431
v 0.00155891 0.05108797 -0.04808082 0.43529412 0.89019608 0.96078431
v 0.00452296 0.05193454 -0.06419089 0.43529412 0.89019608 0.96078431
v 0.00922785 0.05199919 -0.07480978 0.43529412 0.89019608 0.96078431
v 0.00949283 0.05255023 -0.07395793 0.43529412 0.89019608 0.96078431
v 0.01003614 0.05261334 -0.07243739 0.43529412 0.89019608 0.96078431
v 0.01071707 0.05218389 -0.07032859 0.43529412 0.89019608 0.96078431
v 0.01099848 0.05108797 -0.06786186 0.43529412 0.89019608 0.96078431
v 0.01078896 0.05113722 -0.06923812 0.43529412 0.89019608 0.96078431
v 0.01060923 0.04921781 -0.06786186 0.43529412 0.89019608 0.96078431
v 0.01146578 0.04193882 -0.04808082 0.43529412 0.89019608 0.96078431
v 0.00126517 0.04907466 -0.04808082 0.43529412 0.89019608 0.96078431
v 0.00135041 0.04656111 -0.05412418 0.43529412 0.89019608 0.96078431
v 0.00674035 0.04959184 -0.07593909 0.43529412 0.89019608 0.96078431
v 0.00838670 0.05213618 -0.07495406 0.43529412 0.89019608 0.96078431
v 0.00742333 0.05208230 -0.07494574 0.43529412 0.89019608 0.96078431
v 0.00838670 0.05108797 -0.07545907 0.43529412 0.89019608 0.96078431
v 0.00763696 0.05337064 -0.07313939 0.43529412 0.89019608 0.96078431
v 0.00717684 0.05240093 -0.07396349 0.43529412 0.89019608 0.96078431
v 0.00147469 0.04742000 -0.05360530 0.43529412 0.89019608 0.96078431
v 0.00128777 0.04956259 -0.04808082 0.43529412 0.89019608 0.96078431
v 0.00171604 0.05144661 -0.04808082 0.43529412 0.89019608 0.96078431
v 0.00505291 0.05278419 -0.06328910 0.43529412 0.89019608 0.96078431
v 0.00607585 0.05340142 -0.06567815 0.43529412 0.89019608 0.96078431
v 0.00932953 0.05351686 -0.07344461 0.43529412 0.89019608 0.96078431
v 0.01062463 0.05320132 -0.06992071 0.43529412 0.89019608 0.96078431
v 0.01080847 0.05266105 -0.06940183 0.43529412 0.89019608 0.96078431
v 0.01099848 0.05261334 -0.06786186 0.43529412 0.89019608 0.96078431
v 0.01110221 0.05108797 -0.06633853 0.43529412 0.89019608 0.96078431
v 0.01168454 0.04498956 -0.05109140 0.43529412 0.89019608 0.96078431
v 0.01147400 0.04198192 -0.04808082 0.43529412 0.89019608 0.96078431
v 0.00865373 0.05351686 -0.07344461 0.43529412 0.89019608 0.96078431
v 0.00824189 0.05357689 -0.07255392 0.43529412 0.89019608 0.96078431
v 0.00596801 0.05348762 -0.06481243 0.43529412 0.89019608 0.96078431
v 0.00581498 0.05360614 -0.06328910 0.43529412 0.89019608 0.96078431
v 0.00686257 0.05392168 -0.06481243 0.43529412 0.89019608 0.96078431
v 0.00686257 0.05407560 -0.06328910 0.43529412 0.89019608 0.96078431
v 0.00243292 0.05211617 -0.04808082 0.43529412 0.89019608 0.96078431
v 0.00947742 0.05360922 -0.07243739 0.43529412 0.89019608 0.96078431
v 0.01070782 0.05340296 -0.06890238 0.43529412 0.89019608 0.96078431
v 0.01074274 0.05344144 -0.06786186 0.43529412 0.89019608 0.96078431
v 0.01103853 0.05261334 -0.06328910 0.43529412 0.89019608 0.96078431
v 0.01175746 0.04651339 -0.05109140 0.43529412 0.89019608 0.96078431
v 0.01167222 0.04503112 -0.04808082 0.43529412 0.89019608 0.96078431
v 0.01159108 0.04350575 -0.04808082 0.43529412 0.89019608 0.96078431
v 0.00838670 0.05373389 -0.07091406 0.43529412 0.89019608 0.96078431
v 0.00838670 0.05412332 -0.06633853 0.43529412 0.89019608 0.96078431
v 0.00247092 0.05215157 -0.04808082 0.43529412 0.89019608 0.96078431
v 0.00249660 0.05217158 -0.04808082 0.43529412 0.89019608 0.96078431
v 0.00838670 0.05419258 -0.06328910 0.43529412 0.89019608 0.96078431
v 0.00838670 0.05420336 -0.06481243 0.43529412 0.89019608 0.96078431
v 0.00381532 0.05247789 -0.04808082 0.43529412 0.89019608 0.96078431
v 0.00385538 0.05248712 -0.04808082 0.43529412 0.89019608 0.96078431
v 0.00968591 0.05365385 -0.07091406 0.43529412 0.89019608 0.96078431
v 0.00991186 0.05381393 -0.06633853 0.43529412 0.89019608 0.96078431
v 0.01077047 0.05346915 -0.06328910 0.43529412 0.89019608 0.96078431
v 0.01076534 0.05346145 -0.06238177 0.43529412 0.89019608 0.96078431
v 0.01158081 0.04803722 -0.04956530 0.43529412 0.89019608 0.96078431
v 0.01172768 0.04651339 -0.04956530 0.43529412 0.89019608 0.96078431
v 0.01163216 0.04651339 -0.04808082 0.43529412 0.89019608 0.96078431
v 0.00991186 0.05381701 -0.06328910 0.43529412 0.89019608 0.96078431
v 0.00533843 0.05256870 -0.04808082 0.43529412 0.89019608 0.96078431
v 0.00538054 0.05256562 -0.04808082 0.43529412 0.89019608 0.96078431
v 0.00686257 0.05232088 -0.04808082 0.43529412 0.89019608 0.96078431
v 0.00991186 0.05382317 -0.06481243 0.43529412 0.89019608 0.96078431
v 0.00688824 0.05231319 -0.04808082 0.43529412 0.89019608 0.96078431
v 0.00789885 0.05197764 -0.04808082 0.43529412 0.89019608 0.96078431
v 0.00864038 0.05159129 -0.04808082 0.43529412 0.89019608 0.96078431
v 0.00866092 0.05158052 -0.04808082 0.43529412 0.89019608 0.96078431
v 0.00869173 0.05155897 -0.04808082 0.43529412 0.89019608 0.96078431
v 0.00962634 0.05081860 -0.04808082 0.43529412 0.89019608 0.96078431
v 0.01038944 0.04990892 -0.04808082 0.43529412 0.89019608 0.96078431
v 0.01040587 0.04988737 -0.04808082 0.43529412 0.89019608 0.96078431
v 0.01090912 0.04914547 -0.04808082 0.43529412 0.89019608 0.96078431
v 0.01104983 0.04929015 -0.04956530 0.43529412 0.89019608 0.96078431
v 0.01135794 0.04803722 -0.04808082 0.43529412 0.89019608 0.96078431
v 0.01162908 0.04655495 -0.04808082 0.43529412 0.89019608 0.96078431
f 1 2 6
f 1 6 12
f 1 12 11
f 1 11 25
f 1 25 46
f 1 46 45
f 1 45 65
f 1 65 89
f 1 89 109
f 1 109 123
f 1 123 122
f 1 122 138
f 1 138 155
f 1 155 154
f 1 154 152
f 1 152 151
f 1 151 150
f 1 150 149
f 1 149 148
f 1 148 147
f 1 147 146
f 1 146 145
f 1 145 144
f 1 144 142
f 1 142 141
f 1 141 140
f 1 140 131
f 1 131 130
f 1 130 127
f 1 127 126
f 1 126 116
f 1 116 100
f 1 100 80
f 1 80 79
f 1 79 99
f 1 99 90
f 1 90 67
f 1 67 47
f 1 47 26
f 1 26 13
f 1 13 7
f 1 7 3
f 1 3 4
f 1 4 5
f 1 5 2
f 2 5 6
f 3 7 8
f 3 8 4
f 4 8 9
f 4 9 10
f 4 10 5
f 5 10 11
f 5 11 12
f 5 12 6
f 7 13 14
f 7 14 8
f 8 14 15
f 8 15 16
f 8 16 17
f 8 17 9
f 9 18 19
f 9 19 20
f 9 20 10
f 9 17 21
f 9 21 18
f 10 20 22
f 10 22 23
f 10 23 24
f 10 24 11
f 11 24 23
f 11 23 25
f 13 26 27
f 13 27 28
f 13 28 14
f 14 29 15
f 14 28 30
f 14 30 29
f 15 29 31
f 15 31 16
f 16 31 17
f 17 31 21
f 18 21 19
f 19 32 33
f 19 33 34
f 19 34 35
f 19 35 20
f 19 21 32
f 20 35 36
f 20 36 22
f 21 31 37
f 21 37 38
f 21 38 39
f 21 39 40
f 21 40 32
f 22 36 41
f 22 41 42
f 22 42 43
f 22 43 44
f 22 44 23
f 23 44 45
f 23 45 46
f 23 46 25
f 26 47 28
f 26 28 27
f 28 47 30
f 29 30 31
f 30 47 48
f 30 48 31
f 31 49 50
f 31 50 51
f 31 51 37
f 31 48 52
f 31 52 53
f 31 53 49
f 32 40 33
f 33 54 55
f 33 55 34
f 33 40 54
f 34 36 35
f 34 55 56
f 34 56 57
f 34 57 36
f 36 57 41
f 37 40 38
f 37 51 40
f 38 40 39
f 40 58 59
f 40 59 54
f 40 51 58
f 41 57 42
f 42 57 60
f 42 60 61
f 42 61 62
f 42 62 63
f 42 63 43
f 43 63 64
f 43 64 45
f 43 45 44
f 45 64 66
f 45 66 65
f 47 67 48
f 48 67 52
f 49 68 50
f 49 53 69
f 49 69 68
f 50 68 59
f 50 59 58
f 50 58 51
f 52 67 70
f 52 70 53
f 53 70 69
f 54 59 71
f 54 71 72
f 54 72 56
f 54 56 55
f 56 72 73
f 56 73 57
f 57 73 60
f 59 74 75
f 59 75 71
f 59 68 76
f 59 76 77
f 59 77 78
f 59 78 79
f 59 79 80
f 59 80 81
f 59 81 74
f 60 73 82
f 60 82 83
f 60 83 61
f 61 83 84
f 61 84 85
f 61 85 62
f 62 85 106
f 62 106 86
f 62 86 87
f 62 87 88
f 62 88 63
f 63 88 66
f 63 66 64
f 65 66 89
f 66 88 89
f 67 90 70
f 68 69 76
f 69 70 91
f 69 91 77
f 69 77 76
f 70 90 91
f 71 92 72
f 71 75 92
f 72 93 73
f 72 92 94
f 72 94 93
f 73 93 95
f 73 95 82
f 74 96 97
f 74 97 75
f 74 81 96
f 75 97 94
f 75 94 92
f 77 91 98
f 77 98 79
f 77 79 78
f 79 98 91
f 79 91 99
f 80 100 81
f 81 101 102
f 81 102 96
f 81 100 101
f 82 95 93
f 82 93 103
f 82 103 83
f 83 103 84
f 84 103 104
f 84 104 85
f 85 104 105
f 85 105 106
f 86 88 87
f 86 106 107
f 86 107 108
f 86 108 109
f 86 109 89
f 86 89 88
f 90 99 91
f 93 94 110
f 93 110 103
f 94 97 96
f 94 96 110
f 96 111 110
f 96 102 112
f 96 112 113
f 96 113 114
f 96 114 115
f 96 115 111
f 100 116 113
f 100 113 101
f 101 113 112
f 101 112 102
f 103 110 117
f 103 117 118
f 103 118 104
f 104 118 105
f 105 118 106
f 106 118 119
f 106 119 120
f 106 120 121
f 106 121 107
f 107 121 108
f 108 121 122
f 108 122 123
f 108 123 109
f 110 111 124
f 110 124 117
f 111 115 125
f 111 125 124
f 113 115 114
f 113 116 126
f 113 126 127
f 113 127 115
f 115 128 129
f 115 129 125
f 115 127 130
f 115 130 131
f 115 131 128
f 117 132 118
f 117 124 125
f 117 125 132
f 118 132 133
f 118 133 119
f 119 133 134
f 119 134 120
f 120 134 135
f 120 135 136
f 120 136 121
f 121 136 137
f 121 137 122
f 122 137 138
f 125 129 132
f 128 139 129
f 128 131 140
f 128 140 141
f 128 141 142
f 128 142 139
f 129 143 133
f 129 133 132
f 129 139 143
f 133 143 134
f 134 143 139
f 134 139 135
f 135 139 142
f 135 142 144
f 135 144 145
f 135 145 146
f 135 146 147
f 135 147 148
f 135 148 149
f 135 149 150
f 135 150 151
f 135 151 152
f 135 152 153
f 135 153 136
f 136 153 152
f 136 152 154
f 136 154 155
f 136 155 137
f 137 155 138

