# https://github.com/mikedh/trimesh
v 0.02216303 -0.02516287 0.03888483 0.38039216 0.78823529 0.52549020
v 0.02212629 -0.02668726 0.03888483 0.38039216 0.78823529 0.52549020
v 0.02207731 -0.02668726 0.03735853 0.38039216 0.78823529 0.52549020
v 0.02204058 -0.02516287 0.03735853 0.38039216 0.78823529 0.52549020
v 0.02212221 -0.02363659 0.03888483 0.38039216 0.78823529 0.52549020
v 0.02214670 -0.02516287 0.04041114 0.38039216 0.78823529 0.52549020
v 0.02214262 -0.02668726 0.04041114 0.38039216 0.78823529 0.52549020
v 0.02210180 -0.02783385 0.04002956 0.38039216 0.78823529 0.52549020
v 0.02208548 -0.02783385 0.03888483 0.38039216 0.78823529 0.52549020
v 0.02201609 -0.02783385 0.03735853 0.38039216 0.78823529 0.52549020
v 0.02163241 -0.02783385 0.03575489 0.38039216 0.78823529 0.52549020
v 0.02169772 -0.02668726 0.03594052 0.38039216 0.78823529 0.52549020
v 0.02046097 -0.00863324 0.03278995 0.38039216 0.78823529 0.52549020
v 0.02207323 -0.02783385 0.03850841 0.38039216 0.78823529 0.52549020
v 0.02128955 -0.00863324 0.03727603 0.38039216 0.78823529 0.52549020
v 0.02138343 -0.00863324 0.03804949 0.38039216 0.78823529 0.52549020
v 0.02146098 -0.00863324 0.03888483 0.38039216 0.78823529 0.52549020
v 0.02147731 -0.00863324 0.03912718 0.38039216 0.78823529 0.52549020
v 0.02153037 -0.00863324 0.04041114 0.38039216 0.78823529 0.52549020
v 0.02209364 -0.02363659 0.04041114 0.38039216 0.78823529 0.52549020
v 0.02207731 -0.02516287 0.04193743 0.38039216 0.78823529 0.52549020
v 0.02209772 -0.02668726 0.04193743 0.38039216 0.78823529 0.52549020
v 0.02210588 -0.02783385 0.04041114 0.38039216 0.78823529 0.52549020
v 0.02208139 -0.02783385 0.04155586 0.38039216 0.78823529 0.52549020
v 0.02135078 -0.02783385 0.03507424 0.38039216 0.78823529 0.52549020
v 0.01983240 -0.00863324 0.03073254 0.38039216 0.78823529 0.52549020
v 0.02007322 -0.00863324 0.03137193 0.38039216 0.78823529 0.52549020
v 0.02013852 -0.00863324 0.03158850 0.38039216 0.78823529 0.52549020
v 0.02146506 -0.00863324 0.04193743 0.38039216 0.78823529 0.52549020
v 0.02197119 -0.02516287 0.04345858 0.38039216 0.78823529 0.52549020
v 0.02199976 -0.02783385 0.04308216 0.38039216 0.78823529 0.52549020
v 0.02206915 -0.02783385 0.04193743 0.38039216 0.78823529 0.52549020
v 0.02197935 -0.02668726 0.04345858 0.38039216 0.78823529 0.52549020
v 0.02197119 -0.02783385 0.04345858 0.38039216 0.78823529 0.52549020
v 0.01977933 -0.00863324 0.03060878 0.38039216 0.78823529 0.52549020
v 0.01787320 -0.02783385 0.02905670 0.38039216 0.78823529 0.52549020
v 0.01146498 -0.00863324 0.01153004 0.38039216 0.78823529 0.52549020
v 0.02137935 -0.00863324 0.04293262 0.38039216 0.78823529 0.52549020
v 0.02184057 -0.02516287 0.04498488 0.38039216 0.78823529 0.52549020
v 0.02184466 -0.02668726 0.04498488 0.38039216 0.78823529 0.52549020
v 0.02184057 -0.02783385 0.04498488 0.38039216 0.78823529 0.52549020
v 0.02187323 -0.02783385 0.04460846 0.38039216 0.78823529 0.52549020
v 0.01449766 -0.02783385 0.02343105 0.38039216 0.78823529 0.52549020
v 0.01141192 -0.02783385 0.01886246 0.38039216 0.78823529 0.52549020
v 0.01081192 -0.00863324 0.01057610 0.38039216 0.78823529 0.52549020
v 0.01383235 -0.02783385 0.02243586 0.38039216 0.78823529 0.52549020
v 0.02125690 -0.00863324 0.04391234 0.38039216 0.78823529 0.52549020
v 0.02166914 -0.02516287 0.04651118 0.38039216 0.78823529 0.52549020
v 0.02169772 -0.02668726 0.04651118 0.38039216 0.78823529 0.52549020
v 0.02168955 -0.02783385 0.04651118 0.38039216 0.78823529 0.52549020
v 0.01085273 -0.02783385 0.01808384 0.38039216 0.78823529 0.52549020
v 0.01015069 -0.00863324 0.01027703 0.38039216 0.78823529 0.52549020
v 0.01070988 -0.02783385 0.01789821 0.38039216 0.78823529 0.52549020
v 0.00935884 -0.02058780 0.01337603 0.38039216 0.78823529 0.52549020
v 0.00913027 -0.01826644 0.01221584 0.38039216 0.78823529 0.52549020
v 0.00896292 -0.01906153 0.01233444 0.38039216 0.78823529 0.52549020
v 0.00790577 -0.02025511 0.01208177 0.38039216 0.78823529 0.52549020
v 0.02107730 -0.00863324 0.04522723 0.38039216 0.78823529 0.52549020
v 0.02144465 -0.02521362 0.04812514 0.38039216 0.78823529 0.52549020
v 0.02151404 -0.02668726 0.04803748 0.38039216 0.78823529 0.52549020
v 0.02150996 -0.02783385 0.04803748 0.38039216 0.78823529 0.52549020
v 0.00988946 -0.00863324 0.01018421 0.38039216 0.78823529 0.52549020
v 0.00976293 -0.02783385 0.01697521 0.38039216 0.78823529 0.52549020
v 0.00909354 -0.02568353 0.01531485 0.38039216 0.78823529 0.52549020
v 0.00921599 -0.02154266 0.01360807 0.38039216 0.78823529 0.52549020
v 0.00840374 -0.02069306 0.01254585 0.38039216 0.78823529 0.52549020
v 0.00795475 -0.02363659 0.01344307 0.38039216 0.78823529 0.52549020
v 0.00770577 -0.02452191 0.01366479 0.38039216 0.78823529 0.52549020
v 0.00686087 -0.02363659 0.01293258 0.38039216 0.78823529 0.52549020
v 0.00723230 -0.02127200 0.01222615 0.38039216 0.78823529 0.52549020
v 0.00838741 -0.00863324 0.00978201 0.38039216 0.78823529 0.52549020
v 0.00862823 -0.00863324 0.00983357 0.38039216 0.78823529 0.52549020
v 0.02088547 -0.00863324 0.04651118 0.38039216 0.78823529 0.52549020
v 0.02133037 -0.02473807 0.04869234 0.38039216 0.78823529 0.52549020
v 0.02135486 -0.02575496 0.04883672 0.38039216 0.78823529 0.52549020
v 0.02137935 -0.02668726 0.04891923 0.38039216 0.78823529 0.52549020
v 0.02141200 -0.02783385 0.04869750 0.38039216 0.78823529 0.52549020
v 0.00933435 -0.02783385 0.01662458 0.38039216 0.78823529 0.52549020
v 0.00844863 -0.02207649 0.01317493 0.38039216 0.78823529 0.52549020
v 0.00686087 -0.02559707 0.01389683 0.38039216 0.78823529 0.52549020
v 0.00686087 -0.02483393 0.01346885 0.38039216 0.78823529 0.52549020
v 0.00807720 -0.02639780 0.01493327 0.38039216 0.78823529 0.52549020
v 0.00533432 -0.02363659 0.01255101 0.38039216 0.78823529 0.52549020
v 0.00540779 -0.02528316 0.01325744 0.38039216 0.78823529 0.52549020
v 0.00366084 -0.02348434 0.01237053 0.38039216 0.78823529 0.52549020
v 0.00710577 -0.00863324 0.00986967 0.38039216 0.78823529 0.52549020
v 0.00305267 -0.02287534 0.01220037 0.38039216 0.78823529 0.52549020
v 0.00304859 -0.02287534 0.01220037 0.38039216 0.78823529 0.52549020
v 0.02084057 -0.00863324 0.04675353 0.38039216 0.78823529 0.52549020
v 0.02109363 -0.02363659 0.04956378 0.38039216 0.78823529 0.52549020
v 0.02120383 -0.02521362 0.04942971 0.38039216 0.78823529 0.52549020
v 0.02137526 -0.02783385 0.04891407 0.38039216 0.78823529 0.52549020
v 0.02084057 -0.02516287 0.05108492 0.38039216 0.78823529 0.52549020
v 0.02087322 -0.02668726 0.05108492 0.38039216 0.78823529 0.52549020
v 0.00848537 -0.02783385 0.01606253 0.38039216 0.78823529 0.52549020
v 0.00596698 -0.02587337 0.01376277 0.38039216 0.78823529 0.52549020
v 0.00749761 -0.02741468 0.01527875 0.38039216 0.78823529 0.52549020
v 0.00796292 -0.02783385 0.01576861 0.38039216 0.78823529 0.52549020
v 0.00381186 -0.02516287 0.01307180 0.38039216 0.78823529 0.52549020
v 0.00495065 -0.02603502 0.01361839 0.38039216 0.78823529 0.52549020
v 0.00243634 -0.02348434 0.01253554 0.38039216 0.78823529 0.52549020
v 0.00228532 -0.00863324 0.01052453 0.38039216 0.78823529 0.52549020
v 0.00076286 -0.02211220 0.01277273 0.38039216 0.78823529 0.52549020
v 0.00076286 -0.00863324 0.01075657 0.38039216 0.78823529 0.52549020
v 0.02057934 -0.00863324 0.04803748 0.38039216 0.78823529 0.52549020
v 0.02119567 -0.02783385 0.04967722 0.38039216 0.78823529 0.52549020
v 0.02075077 -0.02363659 0.05108492 0.38039216 0.78823529 0.52549020
v 0.02038342 -0.02516287 0.05261122 0.38039216 0.78823529 0.52549020
v 0.02084873 -0.02783385 0.05108492 0.38039216 0.78823529 0.52549020
v 0.02038750 -0.02668726 0.05261122 0.38039216 0.78823529 0.52549020
v 0.00716291 -0.02783385 0.01550563 0.38039216 0.78823529 0.52549020
v 0.00381186 -0.02601623 0.01363901 0.38039216 0.78823529 0.52549020
v 0.00302410 -0.02593540 0.01371636 0.38039216 0.78823529 0.52549020
v 0.00242410 -0.02516475 0.01338119 0.38039216 0.78823529 0.52549020
v 0.00693842 -0.02783385 0.01545923 0.38039216 0.78823529 0.52549020
v 0.00671393 -0.02783385 0.01542313 0.38039216 0.78823529 0.52549020
v 0.00601596 -0.02783385 0.01533547 0.38039216 0.78823529 0.52549020
v 0.00533432 -0.02783385 0.01525297 0.38039216 0.78823529 0.52549020
v 0.00115470 -0.02465912 0.01352041 0.38039216 0.78823529 0.52549020
v 0.00069347 -0.02370990 0.01324712 0.38039216 0.78823529 0.52549020
v -0.00064940 -0.00863324 0.01131862 0.38039216 0.78823529 0.52549020
v -0.00020450 -0.02325127 0.01352557 0.38039216 0.78823529 0.52549020
v -0.00038817 -0.02211220 0.01337603 0.38039216 0.78823529 0.52549020
v 0.02052220 -0.00863324 0.04827983 0.38039216 0.78823529 0.52549020
v 0.02029362 -0.02363659 0.05261122 0.38039216 0.78823529 0.52549020
v 0.02019158 -0.00863324 0.04956378 0.38039216 0.78823529 0.52549020
v 0.01992219 -0.02363659 0.05358063 0.38039216 0.78823529 0.52549020
v 0.01995893 -0.02516287 0.05364250 0.38039216 0.78823529 0.52549020
v 0.02035893 -0.02783385 0.05261122 0.38039216 0.78823529 0.52549020
v 0.01995485 -0.02668726 0.05362703 0.38039216 0.78823529 0.52549020
v 0.01994260 -0.02783385 0.05360641 0.38039216 0.78823529 0.52549020
v 0.02004872 -0.02783385 0.05335374 0.38039216 0.78823529 0.52549020
v 0.00454656 -0.02783385 0.01528907 0.38039216 0.78823529 0.52549020
v 0.00400370 -0.02783385 0.01538188 0.38039216 0.78823529 0.52549020
v 0.00350982 -0.02783385 0.01554173 0.38039216 0.78823529 0.52549020
v -0.00460861 -0.02783385 0.01826432 0.38039216 0.78823529 0.52549020
v 0.00013836 -0.02426815 0.01382464 0.38039216 0.78823529 0.52549020
v -0.00183716 -0.00863324 0.01196833 0.38039216 0.78823529 0.52549020
v -0.00466984 -0.02766468 0.01823338 0.38039216 0.78823529 0.52549020
v -0.00258002 -0.00863324 0.01256648 0.38039216 0.78823529 0.52549020
v -0.00241676 -0.00863324 0.01243241 0.38039216 0.78823529 0.52549020
v -0.00481678 -0.02668726 0.01813541 0.38039216 0.78823529 0.52549020
v -0.00500453 -0.02516287 0.01797040 0.38039216 0.78823529 0.52549020
v 0.01990587 -0.00863324 0.05051772 0.38039216 0.78823529 0.52549020
v 0.01986505 -0.02249941 0.05346718 0.38039216 0.78823529 0.52549020
v 0.01953852 -0.02363659 0.05434377 0.38039216 0.78823529 0.52549020
v 0.01955892 -0.00863324 0.05128086 0.38039216 0.78823529 0.52549020
v 0.01956301 -0.02516287 0.05440565 0.38039216 0.78823529 0.52549020
v 0.01955076 -0.02668726 0.05438503 0.38039216 0.78823529 0.52549020
v 0.01964056 -0.02783385 0.05417877 0.38039216 0.78823529 0.52549020
v -0.01173112 -0.02783385 0.02483359 0.38039216 0.78823529 0.52549020
v -0.00343309 -0.00863324 0.01333994 0.38039216 0.78823529 0.52549020
v -0.00624944 -0.01268013 0.01662973 0.38039216 0.78823529 0.52549020
v 0.01886504 -0.00863324 0.05261122 0.38039216 0.78823529 0.52549020
v 0.01878749 -0.00863324 0.05275044 0.38039216 0.78823529 0.52549020
v 0.01837116 -0.00863324 0.05347234 0.38039216 0.78823529 0.52549020
v 0.01877525 -0.02363659 0.05554522 0.38039216 0.78823529 0.52549020
v 0.01879973 -0.02516287 0.05559679 0.38039216 0.78823529 0.52549020
v 0.01878749 -0.02668726 0.05559679 0.38039216 0.78823529 0.52549020
v 0.01896708 -0.02783385 0.05529771 0.38039216 0.78823529 0.52549020
v 0.01953852 -0.02783385 0.05436956 0.38039216 0.78823529 0.52549020
v -0.01197193 -0.02783385 0.02506048 0.38039216 0.78823529 0.52549020
v -0.01562502 -0.00863324 0.02678272 0.38039216 0.78823529 0.52549020
v -0.00631475 -0.01143956 0.01655239 0.38039216 0.78823529 0.52549020
v -0.01253112 -0.02783385 0.02559159 0.38039216 0.78823529 0.52549020
v -0.01269847 -0.02783385 0.02576691 0.38039216 0.78823529 0.52549020
v -0.01329031 -0.02783385 0.02640115 0.38039216 0.78823529 0.52549020
v 0.01776299 -0.00863324 0.05423549 0.38039216 0.78823529 0.52549020
v 0.01819973 -0.02363659 0.05630837 0.38039216 0.78823529 0.52549020
v 0.01824871 -0.02516287 0.05635993 0.38039216 0.78823529 0.52549020
v 0.01824871 -0.02783385 0.05635993 0.38039216 0.78823529 0.52549020
v 0.01838340 -0.02783385 0.05616915 0.38039216 0.78823529 0.52549020
v 0.01877525 -0.02783385 0.05559679 0.38039216 0.78823529 0.52549020
v -0.01573523 -0.00863324 0.02690647 0.38039216 0.78823529 0.52549020
v -0.01567809 -0.00991328 0.02695804 0.38039216 0.78823529 0.52549020
v -0.01351889 -0.02783385 0.02666412 0.38039216 0.78823529 0.52549020
v 0.01700380 -0.00863324 0.05516365 0.38039216 0.78823529 0.52549020
v 0.01629767 -0.00863324 0.05592680 0.38039216 0.78823529 0.52549020
v 0.01617522 -0.00863324 0.05605055 0.38039216 0.78823529 0.52549020
v 0.01553440 -0.00863324 0.05667964 0.38039216 0.78823529 0.52549020
v 0.01743646 -0.02363659 0.05703543 0.38039216 0.78823529 0.52549020
v 0.01748544 -0.02516287 0.05711793 0.38039216 0.78823529 0.52549020
v 0.01748544 -0.02783385 0.05713340 0.38039216 0.78823529 0.52549020
v -0.01637605 -0.00863324 0.02771088 0.38039216 0.78823529 0.52549020
v -0.01408216 -0.02783385 0.02733446 0.38039216 0.78823529 0.52549020
v -0.01649850 -0.00863324 0.02787072 0.38039216 0.78823529 0.52549020
v 0.01539971 -0.00863324 0.05679823 0.38039216 0.78823529 0.52549020
v 0.01654257 -0.02363659 0.05779858 0.38039216 0.78823529 0.52549020
v 0.01668135 -0.02516287 0.05788108 0.38039216 0.78823529 0.52549020
v 0.01669768 -0.02668726 0.05789139 0.38039216 0.78823529 0.52549020
v 0.01670176 -0.02783385 0.05789655 0.38039216 0.78823529 0.52549020
v -0.01491482 -0.02783385 0.02844824 0.38039216 0.78823529 0.52549020
v -0.01644136 -0.00991328 0.02797385 0.38039216 0.78823529 0.52549020
v -0.01690667 -0.00991328 0.02873700 0.38039216 0.78823529 0.52549020
v -0.01695973 -0.00863324 0.02863388 0.38039216 0.78823529 0.52549020
v 0.01450990 -0.00863324 0.05755107 0.38039216 0.78823529 0.52549020
v 0.01209356 -0.01906153 0.06094399 0.38039216 0.78823529 0.52549020
v 0.01316704 -0.02668726 0.06064492 0.38039216 0.78823529 0.52549020
v 0.01322826 -0.02783385 0.06067070 0.38039216 0.78823529 0.52549020
v 0.01347316 -0.02783385 0.06047992 0.38039216 0.78823529 0.52549020
v -0.01502502 -0.02783385 0.02860294 0.38039216 0.78823529 0.52549020
v -0.01547400 -0.02783385 0.02932999 0.38039216 0.78823529 0.52549020
v -0.01579645 -0.02783385 0.02987657 0.38039216 0.78823529 0.52549020
v -0.01656381 -0.02783385 0.03134100 0.38039216 0.78823529 0.52549020
v -0.01682912 -0.02783385 0.03191336 0.38039216 0.78823529 0.52549020
v -0.01692299 -0.02783385 0.03213508 0.38039216 0.78823529 0.52549020
v -0.01719238 -0.02783385 0.03278995 0.38039216 0.78823529 0.52549020
v -0.01730667 -0.00863324 0.02958265 0.38039216 0.78823529 0.52549020
v 0.01373031 -0.00863324 0.05819047 0.38039216 0.78823529 0.52549020
v 0.01017926 -0.00863324 0.06078930 0.38039216 0.78823529 0.52549020
v 0.01098335 -0.01601462 0.06116572 0.38039216 0.78823529 0.52549020
v 0.01116702 -0.01753901 0.06122760 0.38039216 0.78823529 0.52549020
v 0.01133029 -0.01906153 0.06127400 0.38039216 0.78823529 0.52549020
v 0.01246499 -0.02783385 0.06114509 0.38039216 0.78823529 0.52549020
v 0.01265683 -0.02783385 0.06103165 0.38039216 0.78823529 0.52549020
v 0.01282418 -0.00863324 0.05892783 0.38039216 0.78823529 0.52549020
v 0.01271397 -0.00863324 0.05901549 0.38039216 0.78823529 0.52549020
v 0.01165274 -0.00863324 0.05984567 0.38039216 0.78823529 0.52549020
v 0.01154662 -0.00863324 0.05992302 0.38039216 0.78823529 0.52549020
v 0.01146907 -0.00863324 0.05997459 0.38039216 0.78823529 0.52549020
v -0.01844137 -0.00863324 0.03313027 0.38039216 0.78823529 0.52549020
v -0.01840872 -0.00863324 0.03302199 0.38039216 0.78823529 0.52549020
v -0.01813117 -0.00863324 0.03212993 0.38039216 0.78823529 0.52549020
v -0.01736381 -0.00863324 0.02974251 0.38039216 0.78823529 0.52549020
v -0.01764137 -0.02783385 0.03431625 0.38039216 0.78823529 0.52549020
v 0.01005681 -0.00863324 0.06084086 0.38039216 0.78823529 0.52549020
v 0.00942007 -0.00863324 0.06109869 0.38039216 0.78823529 0.52549020
v 0.00838741 -0.00863324 0.06141838 0.38039216 0.78823529 0.52549020
v 0.00990987 -0.01753901 0.06159886 0.38039216 0.78823529 0.52549020
v 0.00990987 -0.01906153 0.06168136 0.38039216 0.78823529 0.52549020
v 0.01143641 -0.02783385 0.06155761 0.38039216 0.78823529 0.52549020
v -0.01871893 -0.00863324 0.03409968 0.38039216 0.78823529 0.52549020
v -0.01789443 -0.02783385 0.03584255 0.38039216 0.78823529 0.52549020
v -0.01910260 -0.00863324 0.03584255 0.38039216 0.78823529 0.52549020
v -0.01877607 -0.00863324 0.03430593 0.38039216 0.78823529 0.52549020
v 0.00686087 -0.00863324 0.06155245 0.38039216 0.78823529 0.52549020
v 0.00838741 -0.01753901 0.06186183 0.38039216 0.78823529 0.52549020
v 0.00990987 -0.02058780 0.06172776 0.38039216 0.78823529 0.52549020
v 0.00990987 -0.02783385 0.06192887 0.38039216 0.78823529 0.52549020
v -0.01793933 -0.02783385 0.03621381 0.38039216 0.78823529 0.52549020
v -0.01883729 -0.01906153 0.03888483 0.38039216 0.78823529 0.52549020
v -0.01931893 -0.00863324 0.03735853 0.38039216 0.78823529 0.52549020
v 0.00228532 -0.00863324 0.06165042 0.38039216 0.78823529 0.52549020
v 0.00686087 -0.01753901 0.06199590 0.38039216 0.78823529 0.52549020
v 0.00838741 -0.01906153 0.06190308 0.38039216 0.78823529 0.52549020
v 0.00876700 -0.02783385 0.06206809 0.38039216 0.78823529 0.52549020
v -0.01806994 -0.02783385 0.03735853 0.38039216 0.78823529 0.52549020
v -0.01873525 -0.02058780 0.03888483 0.38039216 0.78823529 0.52549020
v -0.01889444 -0.02058780 0.04041114 0.38039216 0.78823529 0.52549020
v -0.01946587 -0.00863324 0.03888483 0.38039216 0.78823529 0.52549020
v 0.00076286 -0.00863324 0.06162979 0.38039216 0.78823529 0.52549020
v 0.00228532 -0.02058780 0.06216606 0.38039216 0.78823529 0.52549020
v 0.00381186 -0.02058780 0.06217122 0.38039216 0.78823529 0.52549020
v 0.00381186 -0.01906153 0.06210419 0.38039216 0.78823529 0.52549020
v 0.00378737 -0.02783385 0.06245998 0.38039216 0.78823529 0.52549020
v 0.00526493 -0.02783385 0.06240841 0.38039216 0.78823529 0.52549020
v 0.00686087 -0.02783385 0.06225888 0.38039216 0.78823529 0.52549020
v 0.00724046 -0.02783385 0.06222279 0.38039216 0.78823529 0.52549020
v 0.00838741 -0.02783385 0.06210934 0.38039216 0.78823529 0.52549020
v -0.01810259 -0.02783385 0.03775042 0.38039216 0.78823529 0.52549020
v -0.01876382 -0.02211220 0.04041114 0.38039216 0.78823529 0.52549020
v -0.01885770 -0.02211220 0.04193743 0.38039216 0.78823529 0.52549020
v -0.01896791 -0.02058780 0.04193743 0.38039216 0.78823529 0.52549020
v -0.01898423 -0.01906153 0.04041114 0.38039216 0.78823529 0.52549020
v -0.01818015 -0.02783385 0.03891062 0.38039216 0.78823529 0.52549020
v -0.01953118 -0.00863324 0.04041114 0.38039216 0.78823529 0.52549020
v -0.00075960 -0.00863324 0.06146479 0.38039216 0.78823529 0.52549020
v -0.00075960 -0.02363659 0.06211966 0.38039216 0.78823529 0.52549020
v 0.00076286 -0.02211220 0.06216606 0.38039216 0.78823529 0.52549020
v 0.00076286 -0.02363659 0.06222279 0.38039216 0.78823529 0.52549020
v 0.00228532 -0.02783385 0.06241357 0.38039216 0.78823529 0.52549020
v -0.01869444 -0.02363659 0.04193743 0.38039216 0.78823529 0.52549020
v -0.01868627 -0.02363659 0.04345858 0.38039216 0.78823529 0.52549020
v -0.01883321 -0.02211220 0.04345858 0.38039216 0.78823529 0.52549020
v -0.01819647 -0.02783385 0.03934891 0.38039216 0.78823529 0.52549020
v -0.01892301 -0.02058780 0.04345858 0.38039216 0.78823529 0.52549020
v -0.01951893 -0.00863324 0.04345858 0.38039216 0.78823529 0.52549020
v -0.01953526 -0.00863324 0.04193743 0.38039216 0.78823529 0.52549020
v -0.00380861 -0.02211220 0.06158854 0.38039216 0.78823529 0.52549020
v -0.00380861 -0.02363659 0.06166074 0.38039216 0.78823529 0.52549020
v -0.00228614 -0.02363659 0.06190824 0.38039216 0.78823529 0.52549020
v -0.00838415 -0.00863324 0.06011381 0.38039216 0.78823529 0.52549020
v -0.00075960 -0.02783385 0.06218154 0.38039216 0.78823529 0.52549020
v 0.00076286 -0.02783385 0.06233622 0.38039216 0.78823529 0.52549020
v -0.01821280 -0.02783385 0.04041114 0.38039216 0.78823529 0.52549020
v -0.01822096 -0.02783385 0.04096803 0.38039216 0.78823529 0.52549020
v -0.01821688 -0.02783385 0.04249948 0.38039216 0.78823529 0.52549020
v -0.01820055 -0.02783385 0.04345858 0.38039216 0.78823529 0.52549020
v -0.01818015 -0.02783385 0.04390203 0.38039216 0.78823529 0.52549020
v -0.01812709 -0.02783385 0.04498488 0.38039216 0.78823529 0.52549020
v -0.01832301 -0.02613464 0.04498488 0.38039216 0.78823529 0.52549020
v -0.01843321 -0.02516287 0.04498488 0.38039216 0.78823529 0.52549020
v -0.01859240 -0.02363659 0.04498488 0.38039216 0.78823529 0.52549020
v -0.01871076 -0.02211220 0.04498488 0.38039216 0.78823529 0.52549020
v -0.01879648 -0.02058780 0.04498488 0.38039216 0.78823529 0.52549020
v -0.01943322 -0.00863324 0.04498488 0.38039216 0.78823529 0.52549020
v -0.00533515 -0.02211220 0.06131010 0.38039216 0.78823529 0.52549020
v -0.00533515 -0.02363659 0.06134619 0.38039216 0.78823529 0.52549020
v -0.00380861 -0.02783385 0.06170199 0.38039216 0.78823529 0.52549020
v -0.00228614 -0.02783385 0.06195980 0.38039216 0.78823529 0.52549020
v -0.00991478 -0.00863324 0.05969614 0.38039216 0.78823529 0.52549020
v -0.00632699 -0.02211220 0.06107806 0.38039216 0.78823529 0.52549020
v -0.01829852 -0.02593916 0.04576350 0.38039216 0.78823529 0.52549020
v -0.01802096 -0.02783385 0.04648024 0.38039216 0.78823529 0.52549020
v -0.01834341 -0.02516287 0.04612960 0.38039216 0.78823529 0.52549020
v -0.01841688 -0.02377193 0.04665556 0.38039216 0.78823529 0.52549020
v -0.01854341 -0.02211220 0.04651118 0.38039216 0.78823529 0.52549020
v -0.01862505 -0.02058780 0.04651118 0.38039216 0.78823529 0.52549020
v -0.01927403 -0.00863324 0.04626882 0.38039216 0.78823529 0.52549020
v -0.00635148 -0.02363659 0.06108837 0.38039216 0.78823529 0.52549020
v -0.00533515 -0.02516287 0.06135650 0.38039216 0.78823529 0.52549020
v -0.00533515 -0.02783385 0.06136682 0.38039216 0.78823529 0.52549020
v -0.00711067 -0.02363659 0.06081508 0.38039216 0.78823529 0.52549020
v -0.01049845 -0.00863324 0.05943832 0.38039216 0.78823529 0.52549020
v -0.00935151 -0.02783385 0.05987146 0.38039216 0.78823529 0.52549020
v -0.00838415 -0.02783385 0.06029428 0.38039216 0.78823529 0.52549020
v -0.00838415 -0.02363659 0.06029944 0.38039216 0.78823529 0.52549020
v -0.01817198 -0.02654441 0.04636680 0.38039216 0.78823529 0.52549020
v -0.01783729 -0.02783385 0.04803748 0.38039216 0.78823529 0.52549020
v -0.01825770 -0.02516287 0.04689275 0.38039216 0.78823529 0.52549020
v -0.01829443 -0.02436966 0.04725370 0.38039216 0.78823529 0.52549020
v -0.01833525 -0.02335277 0.04748574 0.38039216 0.78823529 0.52549020
v -0.01837198 -0.02211220 0.04772809 0.38039216 0.78823529 0.52549020
v -0.01924138 -0.00863324 0.04651118 0.38039216 0.78823529 0.52549020
v -0.00635148 -0.02516287 0.06109353 0.38039216 0.78823529 0.52549020
v -0.00634332 -0.02668726 0.06109353 0.38039216 0.78823529 0.52549020
v -0.00632699 -0.02783385 0.06108321 0.38039216 0.78823529 0.52549020
v -0.00806578 -0.02783385 0.06042319 0.38039216 0.78823529 0.52549020
v -0.00711475 -0.02516287 0.06080993 0.38039216 0.78823529 0.52549020
v -0.01054743 -0.00867084 0.05941254 0.38039216 0.78823529 0.52549020
v -0.01023315 -0.02783385 0.05944347 0.38039216 0.78823529 0.52549020
v -0.00966171 -0.02783385 0.05973223 0.38039216 0.78823529 0.52549020
v -0.01061274 -0.00863324 0.05936097 0.38039216 0.78823529 0.52549020
v -0.01795157 -0.02668726 0.04803748 0.38039216 0.78823529 0.52549020
v -0.01758422 -0.02783385 0.04956378 0.38039216 0.78823529 0.52549020
v -0.01809443 -0.02516287 0.04803748 0.38039216 0.78823529 0.52549020
v -0.01821280 -0.02377193 0.04801169 0.38039216 0.78823529 0.52549020
v -0.01824545 -0.02211220 0.04849124 0.38039216 0.78823529 0.52549020
v -0.01891076 -0.00863324 0.04803748 0.38039216 0.78823529 0.52549020
v -0.00690251 -0.02783385 0.06087180 0.38039216 0.78823529 0.52549020
v -0.00709026 -0.02783385 0.06079961 0.38039216 0.78823529 0.52549020
v -0.01301684 -0.02783385 0.05767998 0.38039216 0.78823529 0.52549020
v -0.01244133 -0.02783385 0.05811827 0.38039216 0.78823529 0.52549020
v -0.01143724 -0.02783385 0.05874736 0.38039216 0.78823529 0.52549020
v -0.01117601 -0.02783385 0.05890205 0.38039216 0.78823529 0.52549020
v -0.01042090 -0.02783385 0.05934034 0.38039216 0.78823529 0.52549020
v -0.01128622 -0.00863324 0.05877830 0.38039216 0.78823529 0.52549020
v -0.01320460 -0.02783385 0.05753045 0.38039216 0.78823529 0.52549020
v -0.01769851 -0.02668726 0.04956378 0.38039216 0.78823529 0.52549020
v -0.01720871 -0.02783385 0.05108492 0.38039216 0.78823529 0.52549020
v -0.01781280 -0.02516287 0.04956378 0.38039216 0.78823529 0.52549020
v -0.01789851 -0.02363659 0.04956378 0.38039216 0.78823529 0.52549020
v -0.01797606 -0.02211220 0.04956378 0.38039216 0.78823529 0.52549020
v -0.01855566 -0.00863324 0.04903782 0.38039216 0.78823529 0.52549020
v -0.01743728 -0.02363659 0.05108492 0.38039216 0.78823529 0.52549020
v -0.01146173 -0.00863324 0.05861329 0.38039216 0.78823529 0.52549020
v -0.01406991 -0.02783385 0.05676729 0.38039216 0.78823529 0.52549020
v -0.01730259 -0.02668726 0.05108492 0.38039216 0.78823529 0.52549020
v -0.01686585 -0.02783385 0.05210073 0.38039216 0.78823529 0.52549020
v -0.01738422 -0.02516287 0.05108492 0.38039216 0.78823529 0.52549020
v -0.01849444 -0.00863324 0.04920283 0.38039216 0.78823529 0.52549020
v -0.01694340 -0.02516287 0.05224511 0.38039216 0.78823529 0.52549020
v -0.01697197 -0.02363659 0.05226574 0.38039216 0.78823529 0.52549020
v -0.01746994 -0.02211220 0.05108492 0.38039216 0.78823529 0.52549020
v -0.01215969 -0.00863324 0.05789655 0.38039216 0.78823529 0.52549020
v -0.01480869 -0.02668726 0.05590101 0.38039216 0.78823529 0.52549020
v -0.01483318 -0.02783385 0.05592164 0.38039216 0.78823529 0.52549020
v -0.01690667 -0.02668726 0.05219355 0.38039216 0.78823529 0.52549020
v -0.01658422 -0.02783385 0.05286389 0.38039216 0.78823529 0.52549020
v -0.01817606 -0.00863324 0.04984222 0.38039216 0.78823529 0.52549020
v -0.01660871 -0.02516287 0.05300827 0.38039216 0.78823529 0.52549020
v -0.01660054 -0.02363659 0.05302889 0.38039216 0.78823529 0.52549020
v -0.01660871 -0.02668726 0.05295670 0.38039216 0.78823529 0.52549020
v -0.01495971 -0.00863324 0.05452941 0.38039216 0.78823529 0.52549020
v -0.01542094 -0.02668726 0.05513786 0.38039216 0.78823529 0.52549020
v -0.01542910 -0.02783385 0.05515849 0.38039216 0.78823529 0.52549020
v -0.01600462 -0.02783385 0.05413752 0.38039216 0.78823529 0.52549020
v -0.01810668 -0.00863324 0.04996598 0.38039216 0.78823529 0.52549020
v -0.01601686 -0.02668726 0.05413752 0.38039216 0.78823529 0.52549020
v -0.01554339 -0.00863324 0.05376626 0.38039216 0.78823529 0.52549020
v -0.01631891 -0.00863324 0.05270403 0.38039216 0.78823529 0.52549020
v -0.01685769 -0.00863324 0.05196151 0.38039216 0.78823529 0.52549020
v -0.01692707 -0.00863324 0.05185838 0.38039216 0.78823529 0.52549020
v -0.01742096 -0.00863324 0.05110554 0.38039216 0.78823529 0.52549020
v -0.01755565 -0.00863324 0.05088898 0.38039216 0.78823529 0.52549020
v -0.01598421 -0.02516287 0.05413752 0.38039216 0.78823529 0.52549020
f 1 2 3
f 1 3 4
f 1 4 5
f 1 5 6
f 1 6 7
f 1 7 2
f 2 7 23
f 2 23 8
f 2 8 9
f 2 9 3
f 3 10 11
f 3 11 12
f 3 12 13
f 3 13 4
f 3 9 14
f 3 14 10
f 4 15 16
f 4 16 5
f 4 13 15
f 5 16 17
f 5 17 18
f 5 18 19
f 5 19 20
f 5 20 6
f 6 20 21
f 6 21 22
f 6 22 7
f 7 22 24
f 7 24 23
f 8 23 24
f 8 24 32
f 8 32 31
f 8 31 34
f 8 34 42
f 8 42 41
f 8 41 50
f 8 50 61
f 8 61 77
f 8 77 92
f 8 92 106
f 8 106 109
f 8 109 129
f 8 129 132
f 8 132 131
f 8 131 150
f 8 150 161
f 8 161 160
f 8 160 173
f 8 173 172
f 8 172 171
f 8 171 183
f 8 183 191
f 8 191 200
f 8 200 199
f 8 199 215
f 8 215 214
f 8 214 231
f 8 231 239
f 8 239 246
f 8 246 259
f 8 259 258
f 8 258 257
f 8 257 256
f 8 256 255
f 8 255 271
f 8 271 284
f 8 284 283
f 8 283 300
f 8 300 299
f 8 299 312
f 8 312 327
f 8 327 340
f 8 340 341
f 8 341 328
f 8 328 316
f 8 316 315
f 8 315 332
f 8 332 331
f 8 331 346
f 8 346 345
f 8 345 344
f 8 344 343
f 8 343 342
f 8 342 348
f 8 348 357
f 8 357 367
f 8 367 376
f 8 376 377
f 8 377 369
f 8 369 359
f 8 359 350
f 8 350 335
f 8 335 319
f 8 319 304
f 8 304 290
f 8 290 289
f 8 289 288
f 8 288 287
f 8 287 286
f 8 286 285
f 8 285 275
f 8 275 265
f 8 265 260
f 8 260 247
f 8 247 240
f 8 240 233
f 8 233 225
f 8 225 207
f 8 207 206
f 8 206 205
f 8 205 204
f 8 204 203
f 8 203 202
f 8 202 201
f 8 201 192
f 8 192 185
f 8 185 176
f 8 176 167
f 8 167 166
f 8 166 165
f 8 165 162
f 8 162 151
f 8 151 136
f 8 136 135
f 8 135 134
f 8 134 133
f 8 133 118
f 8 118 117
f 8 117 116
f 8 116 115
f 8 115 111
f 8 111 98
f 8 98 95
f 8 95 78
f 8 78 63
f 8 63 53
f 8 53 51
f 8 51 44
f 8 44 46
f 8 46 43
f 8 43 36
f 8 36 25
f 8 25 11
f 8 11 10
f 8 10 14
f 8 14 9
f 11 25 26
f 11 26 27
f 11 27 12
f 12 27 28
f 12 28 13
f 13 28 27
f 13 27 26
f 13 26 35
f 13 35 37
f 13 37 45
f 13 45 52
f 13 52 62
f 13 62 72
f 13 72 71
f 13 71 86
f 13 86 102
f 13 102 104
f 13 104 121
f 13 121 138
f 13 138 141
f 13 141 140
f 13 140 152
f 13 152 163
f 13 163 174
f 13 174 184
f 13 184 186
f 13 186 195
f 13 195 208
f 13 208 224
f 13 224 223
f 13 223 222
f 13 222 221
f 13 221 232
f 13 232 235
f 13 235 234
f 13 234 242
f 13 242 250
f 13 250 266
f 13 266 278
f 13 278 277
f 13 277 296
f 13 296 309
f 13 309 324
f 13 324 339
f 13 339 354
f 13 354 361
f 13 361 370
f 13 370 378
f 13 378 385
f 13 385 384
f 13 384 383
f 13 383 382
f 13 382 381
f 13 381 380
f 13 380 374
f 13 374 365
f 13 365 356
f 13 356 347
f 13 347 333
f 13 333 314
f 13 314 301
f 13 301 282
f 13 282 267
f 13 267 251
f 13 251 243
f 13 243 236
f 13 236 228
f 13 228 227
f 13 227 226
f 13 226 210
f 13 210 220
f 13 220 219
f 13 219 218
f 13 218 217
f 13 217 216
f 13 216 209
f 13 209 196
f 13 196 187
f 13 187 180
f 13 180 179
f 13 179 178
f 13 178 177
f 13 177 168
f 13 168 156
f 13 156 155
f 13 155 154
f 13 154 147
f 13 147 144
f 13 144 126
f 13 126 124
f 13 124 105
f 13 105 89
f 13 89 73
f 13 73 58
f 13 58 47
f 13 47 38
f 13 38 29
f 13 29 19
f 13 19 18
f 13 18 17
f 13 17 16
f 13 16 15
f 19 29 20
f 20 29 21
f 21 29 30
f 21 30 22
f 22 31 32
f 22 32 24
f 22 30 33
f 22 33 34
f 22 34 31
f 25 35 26
f 25 36 37
f 25 37 35
f 29 38 39
f 29 39 30
f 30 39 33
f 33 39 40
f 33 40 41
f 33 41 42
f 33 42 34
f 36 43 37
f 37 44 45
f 37 43 46
f 37 46 44
f 38 47 48
f 38 48 39
f 39 48 49
f 39 49 40
f 40 49 41
f 41 49 50
f 44 51 45
f 45 51 53
f 45 53 54
f 45 54 55
f 45 55 56
f 45 56 57
f 45 57 52
f 47 58 48
f 48 59 60
f 48 60 49
f 48 58 59
f 49 60 61
f 49 61 50
f 52 57 62
f 53 63 64
f 53 64 65
f 53 65 54
f 54 65 56
f 54 56 55
f 56 66 57
f 56 65 66
f 57 66 67
f 57 67 68
f 57 68 69
f 57 69 70
f 57 70 71
f 57 71 72
f 57 72 62
f 58 73 59
f 59 73 74
f 59 74 75
f 59 75 76
f 59 76 60
f 60 76 77
f 60 77 61
f 63 78 64
f 64 68 67
f 64 67 79
f 64 79 65
f 64 78 68
f 65 79 66
f 66 79 67
f 68 80 81
f 68 81 69
f 68 78 82
f 68 82 80
f 69 83 70
f 69 81 84
f 69 84 83
f 70 83 85
f 70 85 71
f 71 85 87
f 71 87 88
f 71 88 86
f 73 89 74
f 74 90 75
f 74 89 90
f 75 90 91
f 75 91 76
f 76 92 77
f 76 91 93
f 76 93 94
f 76 94 92
f 78 95 82
f 80 96 81
f 80 82 97
f 80 97 96
f 81 96 84
f 82 95 98
f 82 98 97
f 83 84 99
f 83 99 85
f 84 96 100
f 84 100 99
f 85 88 87
f 85 99 101
f 85 101 88
f 86 88 102
f 88 101 103
f 88 103 104
f 88 104 102
f 89 105 90
f 90 105 93
f 90 93 91
f 92 94 106
f 93 105 107
f 93 107 125
f 93 125 108
f 93 108 94
f 94 109 106
f 94 108 110
f 94 110 109
f 96 97 100
f 97 111 100
f 97 98 111
f 99 100 112
f 99 112 113
f 99 113 114
f 99 114 101
f 100 111 115
f 100 115 116
f 100 116 117
f 100 117 118
f 100 118 112
f 101 114 119
f 101 119 120
f 101 120 103
f 103 121 104
f 103 120 122
f 103 122 123
f 103 123 121
f 105 124 107
f 107 124 126
f 107 126 144
f 107 144 125
f 108 125 127
f 108 127 128
f 108 128 110
f 109 110 129
f 110 128 130
f 110 130 131
f 110 131 132
f 110 132 129
f 112 118 133
f 112 133 134
f 112 134 113
f 113 134 135
f 113 135 136
f 113 136 114
f 114 136 119
f 119 137 120
f 119 136 137
f 120 137 122
f 121 123 138
f 122 137 136
f 122 136 139
f 122 139 123
f 123 140 141
f 123 141 138
f 123 139 142
f 123 142 143
f 123 143 140
f 125 144 127
f 127 145 146
f 127 146 128
f 127 144 147
f 127 147 145
f 128 146 148
f 128 148 130
f 130 148 149
f 130 149 150
f 130 150 131
f 136 151 139
f 139 151 142
f 140 143 153
f 140 153 152
f 142 151 143
f 143 151 153
f 145 147 146
f 146 147 154
f 146 154 155
f 146 155 156
f 146 156 157
f 146 157 148
f 148 157 158
f 148 158 159
f 148 159 160
f 148 160 149
f 149 160 161
f 149 161 150
f 151 162 153
f 152 153 164
f 152 164 163
f 153 162 165
f 153 165 166
f 153 166 167
f 153 167 164
f 156 168 169
f 156 169 157
f 157 169 170
f 157 170 158
f 158 170 171
f 158 171 172
f 158 172 159
f 159 172 173
f 159 173 160
f 163 164 174
f 164 167 175
f 164 175 174
f 167 176 175
f 168 177 169
f 169 177 178
f 169 178 179
f 169 179 180
f 169 180 181
f 169 181 182
f 169 182 170
f 170 182 183
f 170 183 171
f 174 175 184
f 175 176 185
f 175 185 186
f 175 186 184
f 180 187 181
f 181 187 188
f 181 188 189
f 181 189 182
f 182 189 190
f 182 190 191
f 182 191 183
f 185 192 193
f 185 193 186
f 186 193 194
f 186 194 195
f 187 196 188
f 188 196 189
f 189 196 197
f 189 197 198
f 189 198 199
f 189 199 200
f 189 200 190
f 190 200 191
f 192 201 193
f 193 201 202
f 193 202 194
f 194 202 203
f 194 203 204
f 194 204 205
f 194 205 206
f 194 206 207
f 194 207 195
f 195 207 208
f 196 209 197
f 197 210 211
f 197 211 212
f 197 212 213
f 197 213 214
f 197 214 215
f 197 215 199
f 197 199 198
f 197 209 216
f 197 216 217
f 197 217 218
f 197 218 219
f 197 219 220
f 197 220 210
f 207 221 222
f 207 222 223
f 207 223 224
f 207 224 208
f 207 225 221
f 210 226 211
f 211 227 212
f 211 226 227
f 212 227 228
f 212 228 229
f 212 229 213
f 213 229 230
f 213 230 231
f 213 231 214
f 221 225 232
f 225 233 234
f 225 234 235
f 225 235 232
f 228 236 244
f 228 244 237
f 228 237 230
f 228 230 229
f 230 237 238
f 230 238 231
f 231 238 239
f 233 240 241
f 233 241 242
f 233 242 234
f 236 243 244
f 237 244 245
f 237 245 239
f 237 239 238
f 239 245 246
f 240 247 248
f 240 248 241
f 241 248 249
f 241 249 242
f 242 249 250
f 243 251 252
f 243 252 253
f 243 253 254
f 243 254 244
f 244 254 253
f 244 253 255
f 244 255 256
f 244 256 245
f 245 256 257
f 245 257 258
f 245 258 259
f 245 259 246
f 247 260 249
f 247 249 248
f 249 261 262
f 249 262 263
f 249 263 264
f 249 264 250
f 249 260 265
f 249 265 261
f 250 264 266
f 251 267 268
f 251 268 269
f 251 269 252
f 252 269 270
f 252 270 271
f 252 271 255
f 252 255 253
f 261 265 262
f 262 272 273
f 262 273 274
f 262 274 263
f 262 265 275
f 262 275 272
f 263 274 276
f 263 276 277
f 263 277 278
f 263 278 266
f 263 266 264
f 267 279 280
f 267 280 281
f 267 281 268
f 267 282 279
f 268 281 283
f 268 283 284
f 268 284 270
f 268 270 269
f 270 284 271
f 272 275 285
f 272 285 286
f 272 286 287
f 272 287 273
f 273 288 289
f 273 289 290
f 273 290 291
f 273 291 292
f 273 292 293
f 273 293 274
f 273 287 288
f 274 293 294
f 274 294 276
f 276 294 295
f 276 295 296
f 276 296 277
f 279 282 297
f 279 297 280
f 280 297 298
f 280 298 299
f 280 299 300
f 280 300 281
f 281 300 283
f 282 301 302
f 282 302 297
f 290 303 291
f 290 304 303
f 291 303 292
f 292 303 293
f 293 303 305
f 293 305 306
f 293 306 294
f 294 306 307
f 294 307 295
f 295 307 308
f 295 308 296
f 296 308 309
f 297 302 298
f 298 302 310
f 298 310 311
f 298 311 299
f 299 311 312
f 301 313 310
f 301 310 302
f 301 314 315
f 301 315 316
f 301 316 317
f 301 317 313
f 303 318 305
f 303 304 318
f 304 319 320
f 304 320 318
f 305 318 320
f 305 320 321
f 305 321 306
f 306 321 322
f 306 322 307
f 307 322 323
f 307 323 308
f 308 323 324
f 308 324 309
f 310 313 325
f 310 325 312
f 310 312 311
f 312 325 326
f 312 326 327
f 313 317 316
f 313 316 328
f 313 328 329
f 313 329 326
f 313 326 325
f 314 330 331
f 314 331 332
f 314 332 315
f 314 333 330
f 319 334 321
f 319 321 320
f 319 335 349
f 319 349 334
f 321 334 336
f 321 336 337
f 321 337 322
f 322 337 338
f 322 338 323
f 323 338 324
f 324 338 339
f 326 329 340
f 326 340 327
f 328 341 329
f 329 341 340
f 330 333 342
f 330 342 343
f 330 343 344
f 330 344 345
f 330 345 346
f 330 346 331
f 333 347 348
f 333 348 342
f 334 349 336
f 335 350 349
f 336 349 337
f 337 349 351
f 337 351 338
f 338 351 352
f 338 352 353
f 338 353 339
f 339 353 355
f 339 355 354
f 347 356 357
f 347 357 348
f 349 350 358
f 349 358 351
f 350 359 358
f 351 358 352
f 352 358 360
f 352 360 353
f 353 360 355
f 354 355 361
f 355 360 362
f 355 362 363
f 355 363 364
f 355 364 361
f 356 365 357
f 357 366 367
f 357 365 366
f 358 359 368
f 358 368 360
f 359 369 368
f 360 368 362
f 361 364 363
f 361 363 371
f 361 371 372
f 361 372 370
f 362 368 373
f 362 373 363
f 363 373 371
f 365 374 366
f 366 374 375
f 366 375 367
f 367 375 376
f 368 369 373
f 369 377 373
f 370 372 378
f 371 373 377
f 371 377 379
f 371 379 372
f 372 379 378
f 374 380 375
f 375 380 381
f 375 381 382
f 375 382 383
f 375 383 384
f 375 384 385
f 375 385 386
f 375 386 379
f 375 379 376
f 376 379 377
f 378 379 386
f 378 386 385

