# https://github.com/mikedh/trimesh
v 0.02091431 -0.00437754 0.03580797 0.54117647 0.42352941 0.64313725
v 0.02074547 -0.00262688 0.03580797 0.54117647 0.42352941 0.64313725
v 0.02080335 -0.00607188 0.03580797 0.54117647 0.42352941 0.64313725
v 0.01654372 -0.00786948 -0.06385158 0.54117647 0.42352941 0.64313725
v 0.02013281 0.00087444 0.01486405 0.54117647 0.42352941 0.64313725
v 0.02018105 0.00087444 0.01661140 0.54117647 0.42352941 0.64313725
v 0.02004115 0.00262041 0.01486405 0.54117647 0.42352941 0.64313725
v 0.02007975 0.00262041 0.01661140 0.54117647 0.42352941 0.64313725
v 0.01932720 0.00437108 0.03580797 0.54117647 0.42352941 0.64313725
v 0.01930308 0.00709328 0.01588334 0.54117647 0.42352941 0.64313725
v 0.01995915 -0.00747992 0.03580797 0.54117647 0.42352941 0.64313725
v 0.01394356 -0.01741129 -0.06385158 0.54117647 0.42352941 0.64313725
v 0.01431501 -0.01653831 -0.06385158 0.54117647 0.42352941 0.64313725
v 0.01559338 -0.01361428 -0.06209210 0.54117647 0.42352941 0.64313725
v 0.01592142 -0.01274130 -0.06209210 0.54117647 0.42352941 0.64313725
v 0.01589730 -0.01266151 -0.06385158 0.54117647 0.42352941 0.64313725
v 0.01615780 -0.01137080 -0.06385158 0.54117647 0.42352941 0.64313725
v 0.01640382 -0.00962014 -0.06385158 0.54117647 0.42352941 0.64313725
v 0.01626392 -0.00962014 -0.06734628 0.54117647 0.42352941 0.64313725
v 0.01575258 -0.00712791 -0.07706590 0.54117647 0.42352941 0.64313725
v 0.01575258 -0.00692140 -0.07706590 0.54117647 0.42352941 0.64313725
v 0.01653890 -0.00437754 -0.06385158 0.54117647 0.42352941 0.64313725
v 0.01664020 -0.00437754 -0.06209210 0.54117647 0.42352941 0.64313725
v 0.01930308 0.00709328 0.01562851 0.54117647 0.42352941 0.64313725
v 0.01640865 -0.00262688 -0.06385158 0.54117647 0.42352941 0.64313725
v 0.01882067 0.00613582 0.03580797 0.54117647 0.42352941 0.64313725
v 0.01614332 0.01095131 0.03580797 0.54117647 0.42352941 0.64313725
v 0.01708884 0.00966530 0.03580797 0.54117647 0.42352941 0.64313725
v 0.01712743 0.00960429 0.03580797 0.54117647 0.42352941 0.64313725
v 0.01800541 0.00805075 0.03580797 0.54117647 0.42352941 0.64313725
v 0.01804882 0.00796627 0.03580797 0.54117647 0.42352941 0.64313725
v 0.01879173 0.00621091 0.03580797 0.54117647 0.42352941 0.64313725
v 0.01186922 -0.01542126 0.03580797 0.54117647 0.42352941 0.64313725
v 0.01033035 -0.02257880 -0.07084097 0.54117647 0.42352941 0.64313725
v 0.01246740 -0.01953743 -0.06385158 0.54117647 0.42352941 0.64313725
v 0.01329714 -0.01836407 -0.06385158 0.54117647 0.42352941 0.64313725
v 0.01093818 -0.02170112 -0.07084097 0.54117647 0.42352941 0.64313725
v 0.01233715 -0.01937785 -0.08247783 0.54117647 0.42352941 0.64313725
v 0.01404969 -0.01585306 -0.08133720 0.54117647 0.42352941 0.64313725
v 0.01501450 -0.01486743 -0.06385158 0.54117647 0.42352941 0.64313725
v 0.01556444 -0.01353918 -0.06385158 0.54117647 0.42352941 0.64313725
v 0.01399662 -0.01574511 -0.08397036 0.54117647 0.42352941 0.64313725
v 0.01432466 -0.01486743 -0.08308455 0.54117647 0.42352941 0.64313725
v 0.01497590 -0.01311677 -0.07958985 0.54117647 0.42352941 0.64313725
v 0.01538595 -0.01137080 -0.07958985 0.54117647 0.42352941 0.64313725
v 0.01597931 -0.01149283 -0.06728561 0.54117647 0.42352941 0.64313725
v 0.01549208 -0.00962014 -0.07958985 0.54117647 0.42352941 0.64313725
v 0.01538113 -0.00786948 -0.08133720 0.54117647 0.42352941 0.64313725
v 0.01529912 -0.00611882 -0.08133720 0.54117647 0.42352941 0.64313725
v 0.01604684 0.01082928 0.01136935 0.54117647 0.42352941 0.64313725
v 0.01699718 0.00989528 0.01661140 0.54117647 0.42352941 0.64313725
v 0.01598895 -0.00107804 -0.06385158 0.54117647 0.42352941 0.64313725
v 0.01566092 -0.00020036 -0.06385158 0.54117647 0.42352941 0.64313725
v 0.01390014 0.00324464 -0.06734628 0.54117647 0.42352941 0.64313725
v 0.01341774 0.00437108 -0.06734628 0.54117647 0.42352941 0.64313725
v 0.01264106 0.00591053 -0.06734628 0.54117647 0.42352941 0.64313725
v 0.01208630 0.00678821 -0.06734628 0.54117647 0.42352941 0.64313725
v 0.01495178 -0.00437754 -0.08133720 0.54117647 0.42352941 0.64313725
v 0.01588283 -0.00136903 -0.06559893 0.54117647 0.42352941 0.64313725
v 0.01369753 0.01363597 0.03580797 0.54117647 0.42352941 0.64313725
v 0.01611920 0.01089968 0.01661140 0.54117647 0.42352941 0.64313725
v 0.01099606 -0.01607835 0.03580797 0.54117647 0.42352941 0.64313725
v 0.01000713 -0.01717193 0.03060232 0.54117647 0.42352941 0.64313725
v 0.01114561 -0.01629894 0.03060232 0.54117647 0.42352941 0.64313725
v 0.00945719 -0.02324527 -0.07084097 0.54117647 0.42352941 0.64313725
v 0.00938966 -0.02325935 -0.07258832 0.54117647 0.42352941 0.64313725
v 0.00906162 -0.02302468 -0.08133720 0.54117647 0.42352941 0.64313725
v 0.00993477 -0.02220801 -0.08133720 0.54117647 0.42352941 0.64313725
v 0.01079346 -0.02133034 -0.08133720 0.54117647 0.42352941 0.64313725
v 0.01043648 -0.01744884 0.02010610 0.54117647 0.42352941 0.64313725
v 0.01072592 -0.02120831 -0.08244143 0.54117647 0.42352941 0.64313725
v 0.01171967 -0.01894136 -0.08364273 0.54117647 0.42352941 0.64313725
v 0.01236127 -0.01777269 -0.08406743 0.54117647 0.42352941 0.64313725
v 0.01403039 -0.01241745 -0.08574198 0.54117647 0.42352941 0.64313725
v 0.01416547 -0.01486743 -0.08429798 0.54117647 0.42352941 0.64313725
v 0.01471541 -0.01311677 -0.08308455 0.54117647 0.42352941 0.64313725
v 0.01520746 -0.01137080 -0.08133720 0.54117647 0.42352941 0.64313725
v 0.01534253 -0.00962014 -0.08133720 0.54117647 0.42352941 0.64313725
v 0.01505309 -0.00962014 -0.08308455 0.54117647 0.42352941 0.64313725
v 0.01503862 -0.00786948 -0.08308455 0.54117647 0.42352941 0.64313725
v 0.01494214 -0.00611882 -0.08308455 0.54117647 0.42352941 0.64313725
v 0.01472505 -0.00437754 -0.08308455 0.54117647 0.42352941 0.64313725
v 0.01236127 0.01408185 0.01661140 0.54117647 0.42352941 0.64313725
v 0.01432948 0.01249546 0.01661140 0.54117647 0.42352941 0.64313725
v 0.01520264 0.01177736 0.01661140 0.54117647 0.42352941 0.64313725
v 0.01121315 0.00764711 -0.06734628 0.54117647 0.42352941 0.64313725
v 0.01034964 0.00862805 -0.06559893 0.54117647 0.42352941 0.64313725
v 0.00860816 0.01041156 -0.06209210 0.54117647 0.42352941 0.64313725
v 0.01404486 -0.00160840 -0.08244143 0.54117647 0.42352941 0.64313725
v 0.01383260 0.00298650 -0.06909363 0.54117647 0.42352941 0.64313725
v 0.01325372 0.00437108 -0.06909363 0.54117647 0.42352941 0.64313725
v 0.01253976 0.00570402 -0.06909363 0.54117647 0.42352941 0.64313725
v 0.01085617 0.00393458 -0.08308455 0.54117647 0.42352941 0.64313725
v 0.01010844 0.00480757 -0.08308455 0.54117647 0.42352941 0.64313725
v 0.00923529 0.00575095 -0.08308455 0.54117647 0.42352941 0.64313725
v 0.01425712 -0.00258464 -0.08304814 0.54117647 0.42352941 0.64313725
v 0.01447420 -0.00262688 -0.08133720 0.54117647 0.42352941 0.64313725
v 0.01267001 0.01471078 0.03580797 0.54117647 0.42352941 0.64313725
v 0.00937518 -0.01715315 0.03580797 0.54117647 0.42352941 0.64313725
v 0.00886866 -0.01757556 0.03538326 0.54117647 0.42352941 0.64313725
v 0.00913398 -0.01772106 0.03060232 0.54117647 0.42352941 0.64313725
v 0.00924011 -0.01785717 0.02710762 0.54117647 0.42352941 0.64313725
v 0.00796656 -0.02400092 -0.06734628 0.54117647 0.42352941 0.64313725
v 0.00709341 -0.02454536 -0.06734628 0.54117647 0.42352941 0.64313725
v 0.00803892 -0.02411825 -0.07084097 0.54117647 0.42352941 0.64313725
v 0.00809199 -0.02413233 -0.07258832 0.54117647 0.42352941 0.64313725
v 0.00719954 -0.02462515 -0.07958985 0.54117647 0.42352941 0.64313725
v 0.00807752 -0.02393990 -0.07958985 0.54117647 0.42352941 0.64313725
v 0.00716095 -0.02459229 -0.08068194 0.54117647 0.42352941 0.64313725
v 0.00886866 -0.02283224 -0.08230795 0.54117647 0.42352941 0.64313725
v 0.00567032 -0.02308100 -0.08431012 0.54117647 0.42352941 0.64313725
v 0.00654829 -0.02081875 -0.08559636 0.54117647 0.42352941 0.64313725
v 0.00733944 -0.01965477 -0.08589973 0.54117647 0.42352941 0.64313725
v 0.00790385 -0.01829836 -0.08599679 0.54117647 0.42352941 0.64313725
v 0.01136752 -0.01137080 -0.08632443 0.54117647 0.42352941 0.64313725
v 0.01311865 -0.01137080 -0.08602107 0.54117647 0.42352941 0.64313725
v 0.01136752 -0.00611882 -0.08685833 0.54117647 0.42352941 0.64313725
v 0.01136752 -0.00437754 -0.08694328 0.54117647 0.42352941 0.64313725
v 0.01311865 -0.00786948 -0.08623948 0.54117647 0.42352941 0.64313725
v 0.01311865 -0.00611882 -0.08630016 0.54117647 0.42352941 0.64313725
v 0.01405451 -0.01137080 -0.08576624 0.54117647 0.42352941 0.64313725
v 0.01448385 -0.00962014 -0.08483190 0.54117647 0.42352941 0.64313725
v 0.01442596 -0.01137080 -0.08483190 0.54117647 0.42352941 0.64313725
v 0.01429571 -0.01304637 -0.08492897 0.54117647 0.42352941 0.64313725
v 0.01491802 -0.01137080 -0.08308455 0.54117647 0.42352941 0.64313725
v 0.01447903 -0.00786948 -0.08483190 0.54117647 0.42352941 0.64313725
v 0.01439220 -0.00611882 -0.08483190 0.54117647 0.42352941 0.64313725
v 0.01401592 -0.00515666 -0.08574198 0.54117647 0.42352941 0.64313725
v 0.01422818 -0.00449488 -0.08486830 0.54117647 0.42352941 0.64313725
v 0.01414135 -0.00313847 -0.08429798 0.54117647 0.42352941 0.64313725
v 0.00977076 0.01617514 0.02366146 0.54117647 0.42352941 0.64313725
v 0.01045577 0.01571518 0.02311542 0.54117647 0.42352941 0.64313725
v 0.01051366 0.01575742 0.02428032 0.54117647 0.42352941 0.64313725
v 0.01118903 0.01600148 0.03580797 0.54117647 0.42352941 0.64313725
v 0.00833319 0.00662394 -0.08308455 0.54117647 0.42352941 0.64313725
v 0.00745521 0.00741244 -0.08308455 0.54117647 0.42352941 0.64313725
v 0.00730084 0.00897536 -0.07609516 0.54117647 0.42352941 0.64313725
v 0.01011809 0.00852010 -0.06734628 0.54117647 0.42352941 0.64313725
v 0.00947649 0.00929452 -0.06559893 0.54117647 0.42352941 0.64313725
v 0.00841520 0.01030361 -0.06385158 0.54117647 0.42352941 0.64313725
v 0.00753722 0.01076357 -0.06385158 0.54117647 0.42352941 0.64313725
v 0.00773501 0.01085275 -0.06209210 0.54117647 0.42352941 0.64313725
v 0.00787008 0.01679467 0.01835875 0.54117647 0.42352941 0.64313725
v 0.01390497 -0.00196980 -0.08360633 0.54117647 0.42352941 0.64313725
v 0.01316206 -0.00087622 -0.08483190 0.54117647 0.42352941 0.64313725
v 0.01362517 -0.00096539 -0.08304814 0.54117647 0.42352941 0.64313725
v 0.01270860 0.00102464 -0.08323017 0.54117647 0.42352941 0.64313725
v 0.01238057 0.00193986 -0.08273265 0.54117647 0.42352941 0.64313725
v 0.01309453 0.00087444 -0.08133720 0.54117647 0.42352941 0.64313725
v 0.01375542 -0.00059930 -0.08133720 0.54117647 0.42352941 0.64313725
v 0.01182580 0.00256409 -0.08323017 0.54117647 0.42352941 0.64313725
v 0.01069215 0.00373276 -0.08445573 0.54117647 0.42352941 0.64313725
v 0.00901338 0.00552567 -0.08438292 0.54117647 0.42352941 0.64313725
v 0.00819329 -0.01780085 0.03580797 0.54117647 0.42352941 0.64313725
v 0.00787008 -0.01816225 0.03410915 0.54117647 0.42352941 0.64313725
v 0.00787008 -0.01834060 0.03236181 0.54117647 0.42352941 0.64313725
v 0.00702587 -0.01925582 0.02637956 0.54117647 0.42352941 0.64313725
v 0.00771089 -0.01880525 0.02702268 0.54117647 0.42352941 0.64313725
v 0.00901821 -0.01767882 0.03236181 0.54117647 0.42352941 0.64313725
v 0.00697763 -0.02447965 -0.06488300 0.54117647 0.42352941 0.64313725
v 0.00628779 -0.02487390 -0.06552612 0.54117647 0.42352941 0.64313725
v 0.00487917 -0.02604727 -0.07433568 0.54117647 0.42352941 0.64313725
v 0.00611895 -0.02531978 -0.07433568 0.54117647 0.42352941 0.64313725
v 0.00611895 -0.02522591 -0.07958985 0.54117647 0.42352941 0.64313725
v 0.00464762 -0.02596278 -0.07958985 0.54117647 0.42352941 0.64313725
v 0.00369246 -0.02629133 -0.08057274 0.54117647 0.42352941 0.64313725
v 0.00603694 -0.02486451 -0.08128866 0.54117647 0.42352941 0.64313725
v 0.00656759 -0.02427783 -0.08184685 0.54117647 0.42352941 0.64313725
v 0.00477787 -0.02424967 -0.08352139 0.54117647 0.42352941 0.64313725
v 0.00361045 -0.02454066 -0.08403103 0.54117647 0.42352941 0.64313725
v 0.00426652 -0.02364421 -0.08452854 0.54117647 0.42352941 0.64313725
v 0.00437265 -0.02208598 -0.08548715 0.54117647 0.42352941 0.64313725
v 0.00538087 -0.02105812 -0.08572984 0.54117647 0.42352941 0.64313725
v 0.00602729 -0.02018982 -0.08591185 0.54117647 0.42352941 0.64313725
v 0.00262152 -0.00786948 -0.08808391 0.54117647 0.42352941 0.64313725
v 0.01136752 -0.00262688 -0.08684621 0.54117647 0.42352941 0.64313725
v 0.00262152 -0.00611882 -0.08815671 0.54117647 0.42352941 0.64313725
v 0.00701623 0.00177090 -0.08746506 0.54117647 0.42352941 0.64313725
v 0.01285815 -0.00262688 -0.08614241 0.54117647 0.42352941 0.64313725
v 0.01319583 -0.00449488 -0.08613028 0.54117647 0.42352941 0.64313725
v 0.01405451 -0.00611882 -0.08577838 0.54117647 0.42352941 0.64313725
v 0.01408828 -0.00786948 -0.08580265 0.54117647 0.42352941 0.64313725
v 0.01261212 -0.00087622 -0.08598467 0.54117647 0.42352941 0.64313725
v 0.01383260 -0.00399737 -0.08547501 0.54117647 0.42352941 0.64313725
v 0.01373130 -0.00258464 -0.08486830 0.54117647 0.42352941 0.64313725
v 0.00787008 0.01713261 0.02361293 0.54117647 0.42352941 0.64313725
v 0.00785561 0.01792111 0.03580797 0.54117647 0.42352941 0.64313725
v 0.00958262 0.01697772 0.03580797 0.54117647 0.42352941 0.64313725
v 0.00960674 0.01696364 0.03580797 0.54117647 0.42352941 0.64313725
v 0.00724778 0.00720593 -0.08424945 0.54117647 0.42352941 0.64313725
v 0.00607071 0.00836991 -0.08323017 0.54117647 0.42352941 0.64313725
v 0.00611895 0.00965592 -0.07609516 0.54117647 0.42352941 0.64313725
v 0.00544841 0.00884395 -0.08274479 0.54117647 0.42352941 0.64313725
v 0.00485988 0.01029892 -0.07609516 0.54117647 0.42352941 0.64313725
v 0.00398672 0.01070725 -0.07609516 0.54117647 0.42352941 0.64313725
v 0.00262152 0.01117660 -0.07609516 0.54117647 0.42352941 0.64313725
v 0.00176284 0.01225140 -0.06655754 0.54117647 0.42352941 0.64313725
v 0.00583433 0.01770990 0.01835875 0.54117647 0.42352941 0.64313725
v 0.00671231 0.01737667 0.01835875 0.54117647 0.42352941 0.64313725
v 0.01249152 0.00052243 -0.08483190 0.54117647 0.42352941 0.64313725
v 0.01222620 0.00170988 -0.08389756 0.54117647 0.42352941 0.64313725
v 0.01233715 0.00014696 -0.08580265 0.54117647 0.42352941 0.64313725
v 0.01113114 0.00275183 -0.08495324 0.54117647 0.42352941 0.64313725
v 0.01038824 0.00342300 -0.08562063 0.54117647 0.42352941 0.64313725
v 0.00799068 -0.01788533 0.03580797 0.54117647 0.42352941 0.64313725
v 0.00633121 -0.01903054 0.03236181 0.54117647 0.42352941 0.64313725
v 0.00545323 -0.01930276 0.03236181 0.54117647 0.42352941 0.64313725
v 0.00296402 -0.02085630 0.02010610 0.54117647 0.42352941 0.64313725
v 0.00020949 -0.02805138 -0.07853416 0.54117647 0.42352941 0.64313725
v 0.00262152 -0.02702351 -0.07433568 0.54117647 0.42352941 0.64313725
v 0.00400120 -0.02647907 -0.07433568 0.54117647 0.42352941 0.64313725
v 0.00602247 -0.02490675 -0.06385158 0.54117647 0.42352941 0.64313725
v 0.00020949 -0.02805138 -0.07886179 0.54117647 0.42352941 0.64313725
v 0.00377446 -0.02636642 -0.07958985 0.54117647 0.42352941 0.64313725
v 0.00431476 -0.02569995 -0.08122799 0.54117647 0.42352941 0.64313725
v 0.00262152 -0.02646029 -0.08096103 0.54117647 0.42352941 0.64313725
v 0.00169048 -0.02622562 -0.08218661 0.54117647 0.42352941 0.64313725
v 0.00262152 -0.02472371 -0.08421305 0.54117647 0.42352941 0.64313725
v 0.00262152 -0.02361605 -0.08498965 0.54117647 0.42352941 0.64313725
v 0.00087039 -0.02361605 -0.08503819 0.54117647 0.42352941 0.64313725
v 0.00437265 -0.02120831 -0.08575411 0.54117647 0.42352941 0.64313725
v 0.00087039 -0.00786948 -0.08813245 0.54117647 0.42352941 0.64313725
v 0.00962121 0.00087444 -0.08684621 0.54117647 0.42352941 0.64313725
v 0.01136752 -0.00087622 -0.08656711 0.54117647 0.42352941 0.64313725
v -0.00880665 0.00528630 -0.08746506 0.54117647 0.42352941 0.64313725
v -0.00860404 0.00528630 -0.08746506 0.54117647 0.42352941 0.64313725
v -0.00437335 0.00612174 -0.08740438 0.54117647 0.42352941 0.64313725
v -0.00262705 0.00612174 -0.08738011 0.54117647 0.42352941 0.64313725
v -0.00087592 0.00612174 -0.08729517 0.54117647 0.42352941 0.64313725
v 0.00087039 0.00612174 -0.08712530 0.54117647 0.42352941 0.64313725
v 0.00437265 0.00437108 -0.08708890 0.54117647 0.42352941 0.64313725
v 0.00611895 0.00437108 -0.08666418 0.54117647 0.42352941 0.64313725
v 0.00770606 0.00246084 -0.08697968 0.54117647 0.42352941 0.64313725
v 0.00972734 0.00275183 -0.08616668 0.54117647 0.42352941 0.64313725
v 0.01137234 0.00078527 -0.08609387 0.54117647 0.42352941 0.64313725
v 0.00619614 0.01863451 0.03580797 0.54117647 0.42352941 0.64313725
v 0.00835249 0.00503285 -0.08554783 0.54117647 0.42352941 0.64313725
v 0.00611895 0.00758140 -0.08449213 0.54117647 0.42352941 0.64313725
v 0.00516379 0.00873130 -0.08390968 0.54117647 0.42352941 0.64313725
v 0.00373587 0.01060869 -0.07745420 0.54117647 0.42352941 0.64313725
v 0.00276141 0.01088560 -0.07795172 0.54117647 0.42352941 0.64313725
v 0.00087039 0.01154269 -0.07784250 0.54117647 0.42352941 0.64313725
v 0.00156023 0.01220916 -0.06772245 0.54117647 0.42352941 0.64313725
v 0.00210052 0.01411471 -0.04073561 0.54117647 0.42352941 0.64313725
v 0.00566067 0.01765827 0.01712104 0.54117647 0.42352941 0.64313725
v 0.00437265 0.01800090 0.01835875 0.54117647 0.42352941 0.64313725
v 0.00437265 0.01911325 0.03580797 0.54117647 0.42352941 0.64313725
v 0.00610930 0.01866267 0.03580797 0.54117647 0.42352941 0.64313725
v 0.01201394 0.00139542 -0.08483190 0.54117647 0.42352941 0.64313725
v 0.01078863 0.00225902 -0.08592399 0.54117647 0.42352941 0.64313725
v 0.00922082 0.00386418 -0.08585119 0.54117647 0.42352941 0.64313725
v 0.00787491 -0.01793227 0.03580797 0.54117647 0.42352941 0.64313725
v 0.00598870 -0.01892259 0.03399995 0.54117647 0.42352941 0.64313725
v 0.00532298 -0.01926052 0.03334469 0.54117647 0.42352941 0.64313725
v 0.00437265 -0.01971109 0.03060232 0.54117647 0.42352941 0.64313725
v 0.00209087 -0.02107689 0.02010610 0.54117647 0.42352941 0.64313725
v -0.00087592 -0.02775099 -0.07084097 0.54117647 0.42352941 0.64313725
v -0.00095793 -0.02787303 -0.07245484 0.54117647 0.42352941 0.64313725
v -0.00183590 -0.02798567 -0.07178745 0.54117647 0.42352941 0.64313725
v -0.00159953 -0.02801383 -0.07295236 0.54117647 0.42352941 0.64313725
v -0.01136822 -0.02840808 -0.07784250 0.54117647 0.42352941 0.64313725
v -0.01136822 -0.02837992 -0.07958985 0.54117647 0.42352941 0.64313725
v -0.01136822 -0.02810300 -0.08060914 0.54117647 0.42352941 0.64313725
v -0.00868605 -0.02799975 -0.08048779 0.54117647 0.42352941 0.64313725
v -0.00262705 -0.02719717 -0.08133720 0.54117647 0.42352941 0.64313725
v -0.00087592 -0.02702351 -0.08133720 0.54117647 0.42352941 0.64313725
v -0.00087592 -0.02642744 -0.08262344 0.54117647 0.42352941 0.64313725
v 0.00052306 -0.02633357 -0.08241716 0.54117647 0.42352941 0.64313725
v 0.00101028 -0.02591116 -0.08303601 0.54117647 0.42352941 0.64313725
v 0.00087039 -0.02496308 -0.08439506 0.54117647 0.42352941 0.64313725
v -0.00087592 -0.02509919 -0.08445573 0.54117647 0.42352941 0.64313725
v -0.00437335 -0.02516020 -0.08446787 0.54117647 0.42352941 0.64313725
v -0.00611966 -0.02517428 -0.08445573 0.54117647 0.42352941 0.64313725
v -0.00787079 -0.02361605 -0.08485616 0.54117647 0.42352941 0.64313725
v 0.00335477 -0.02121300 -0.08574198 0.54117647 0.42352941 0.64313725
v -0.00880665 0.00522998 -0.08746506 0.54117647 0.42352941 0.64313725
v -0.00961709 -0.02361605 -0.08471056 0.54117647 0.42352941 0.64313725
v -0.01136822 -0.02186539 -0.08475909 0.54117647 0.42352941 0.64313725
v -0.01927484 -0.00703874 -0.08572984 0.54117647 0.42352941 0.64313725
v -0.01836792 -0.00437754 -0.08606960 0.54117647 0.42352941 0.64313725
v -0.00948202 0.00597155 -0.08702822 0.54117647 0.42352941 0.64313725
v -0.00796245 0.00597155 -0.08730731 0.54117647 0.42352941 0.64313725
v -0.01661679 -0.00087622 -0.08633656 0.54117647 0.42352941 0.64313725
v -0.01666985 0.00088852 -0.08609387 0.54117647 0.42352941 0.64313725
v -0.01493802 0.00268612 -0.08616668 0.54117647 0.42352941 0.64313725
v -0.00611966 0.00612174 -0.08733157 0.54117647 0.42352941 0.64313725
v -0.00437335 0.00783016 -0.08655498 0.54117647 0.42352941 0.64313725
v -0.00262705 0.00783485 -0.08651858 0.54117647 0.42352941 0.64313725
v -0.00087592 0.00774098 -0.08644577 0.54117647 0.42352941 0.64313725
v 0.00087039 0.00752978 -0.08627589 0.54117647 0.42352941 0.64313725
v 0.00279518 0.00629540 -0.08651858 0.54117647 0.42352941 0.64313725
v 0.00437265 0.00593869 -0.08628802 0.54117647 0.42352941 0.64313725
v 0.00611895 0.00558199 -0.08596039 0.54117647 0.42352941 0.64313725
v 0.00718507 0.00534732 -0.08575411 0.54117647 0.42352941 0.64313725
v 0.00780737 0.00441801 -0.08605747 0.54117647 0.42352941 0.64313725
v 0.00611895 0.00645497 -0.08537794 0.54117647 0.42352941 0.64313725
v 0.00039281 0.01064154 -0.08240503 0.54117647 0.42352941 0.64313725
v -0.00087592 0.01174920 -0.07958985 0.54117647 0.42352941 0.64313725
v 0.00087039 0.01118129 -0.07958985 0.54117647 0.42352941 0.64313725
v -0.00087592 0.00861397 -0.08552355 0.54117647 0.42352941 0.64313725
v -0.00087592 0.01197449 -0.07784250 0.54117647 0.42352941 0.64313725
v 0.00093792 0.01238282 -0.06722493 0.54117647 0.42352941 0.64313725
v 0.00262152 0.01822618 0.01835875 0.54117647 0.42352941 0.64313725
v 0.00262152 0.01938547 0.03580797 0.54117647 0.42352941 0.64313725
v -0.00153199 0.01404431 -0.05106196 0.54117647 0.42352941 0.64313725
v 0.00611895 -0.01859874 0.03580797 0.54117647 0.42352941 0.64313725
v 0.00386130 -0.01934031 0.03580797 0.54117647 0.42352941 0.64313725
v 0.00382753 -0.01934969 0.03580797 0.54117647 0.42352941 0.64313725
v 0.00440159 -0.01941071 0.03399995 0.54117647 0.42352941 0.64313725
v 0.00437265 -0.01957498 0.03236181 0.54117647 0.42352941 0.64313725
v 0.00262152 -0.02007249 0.03060232 0.54117647 0.42352941 0.64313725
v 0.00186897 -0.02101587 0.02114965 0.54117647 0.42352941 0.64313725
v -0.00341337 -0.02799506 -0.06989449 0.54117647 0.42352941 0.64313725
v -0.00306121 -0.02800914 -0.07084097 0.54117647 0.42352941 0.64313725
v -0.01408899 -0.02800914 -0.07485745 0.54117647 0.42352941 0.64313725
v -0.01311935 -0.02825789 -0.07784250 0.54117647 0.42352941 0.64313725
v -0.00359668 -0.02799506 -0.06989449 0.54117647 0.42352941 0.64313725
v -0.00437335 -0.02756326 -0.06385158 0.54117647 0.42352941 0.64313725
v -0.00387165 -0.02108628 0.02186558 0.54117647 0.42352941 0.64313725
v -0.01319654 -0.02821096 -0.07960199 0.54117647 0.42352941 0.64313725
v -0.01266107 -0.02814055 -0.08065768 0.54117647 0.42352941 0.64313725
v -0.00262705 -0.02650253 -0.08274479 0.54117647 0.42352941 0.64313725
v -0.00087592 -0.02597217 -0.08349712 0.54117647 0.42352941 0.64313725
v -0.00262705 -0.02513673 -0.08445573 0.54117647 0.42352941 0.64313725
v -0.00262705 -0.02600972 -0.08361846 0.54117647 0.42352941 0.64313725
v -0.00437335 -0.02603319 -0.08367913 0.54117647 0.42352941 0.64313725
v -0.00611966 -0.02605196 -0.08366699 0.54117647 0.42352941 0.64313725
v -0.00787079 -0.02505225 -0.08440720 0.54117647 0.42352941 0.64313725
v -0.00961709 -0.02479881 -0.08424945 0.54117647 0.42352941 0.64313725
v -0.01136340 -0.02369584 -0.08434652 0.54117647 0.42352941 0.64313725
v -0.01311935 -0.02312793 -0.08418877 0.54117647 0.42352941 0.64313725
v -0.01311935 -0.02186539 -0.08445573 0.54117647 0.42352941 0.64313725
v -0.01940026 -0.00611882 -0.08579051 0.54117647 0.42352941 0.64313725
v -0.01409381 -0.02283224 -0.08403103 0.54117647 0.42352941 0.64313725
v -0.02097290 -0.01221563 -0.08395822 0.54117647 0.42352941 0.64313725
v -0.02126717 -0.01105165 -0.08410383 0.54117647 0.42352941 0.64313725
v -0.02150355 -0.00962014 -0.08423731 0.54117647 0.42352941 0.64313725
v -0.01949192 -0.00437754 -0.08586332 0.54117647 0.42352941 0.64313725
v -0.01850781 -0.00250485 -0.08603320 0.54117647 0.42352941 0.64313725
v -0.00787079 0.00753447 -0.08640937 0.54117647 0.42352941 0.64313725
v -0.01611991 0.00214637 -0.08592399 0.54117647 0.42352941 0.64313725
v -0.01440255 0.00387357 -0.08593613 0.54117647 0.42352941 0.64313725
v -0.01259353 0.00549751 -0.08591185 0.54117647 0.42352941 0.64313725
v -0.01124280 0.00609827 -0.08619094 0.54117647 0.42352941 0.64313725
v -0.00961709 0.00725756 -0.08609387 0.54117647 0.42352941 0.64313725
v -0.00611966 0.00770813 -0.08649431 0.54117647 0.42352941 0.64313725
v -0.01803506 -0.00087622 -0.08597253 0.54117647 0.42352941 0.64313725
v -0.01768773 0.00031592 -0.08583905 0.54117647 0.42352941 0.64313725
v -0.00437335 0.00870784 -0.08565704 0.54117647 0.42352941 0.64313725
v -0.00262705 0.00870784 -0.08565704 0.54117647 0.42352941 0.64313725
v -0.00087592 0.01074480 -0.08255064 0.54117647 0.42352941 0.64313725
v -0.00262705 0.01151453 -0.08133720 0.54117647 0.42352941 0.64313725
v -0.00087592 0.01125169 -0.08133720 0.54117647 0.42352941 0.64313725
v -0.00272353 0.01209182 -0.07943210 0.54117647 0.42352941 0.64313725
v -0.00262705 0.00935553 -0.08478336 0.54117647 0.42352941 0.64313725
v -0.00262705 0.01023321 -0.08359419 0.54117647 0.42352941 0.64313725
v -0.00336513 0.01224671 -0.07874045 0.54117647 0.42352941 0.64313725
v 0.00087039 0.01855942 0.02010610 0.54117647 0.42352941 0.64313725
v 0.00130938 0.01949342 0.03580797 0.54117647 0.42352941 0.64313725
v -0.00262705 0.01469670 -0.04109964 0.54117647 0.42352941 0.64313725
v -0.00087592 0.01852656 0.01835875 0.54117647 0.42352941 0.64313725
v 0.00262152 -0.01960314 0.03580797 0.54117647 0.42352941 0.64313725
v 0.00262152 -0.01975802 0.03410915 0.54117647 0.42352941 0.64313725
v 0.00087039 -0.01978619 0.03580797 0.54117647 0.42352941 0.64313725
v 0.00087039 -0.01993638 0.03410915 0.54117647 0.42352941 0.64313725
v -0.00092898 -0.01987536 0.03580797 0.54117647 0.42352941 0.64313725
v -0.00087592 -0.02059815 0.02710762 0.54117647 0.42352941 0.64313725
v -0.00262705 -0.02122238 0.02010610 0.54117647 0.42352941 0.64313725
v -0.01474988 -0.02781201 -0.07429926 0.54117647 0.42352941 0.64313725
v -0.01574846 -0.02799036 -0.07870405 0.54117647 0.42352941 0.64313725
v -0.00437335 -0.01987536 0.03410915 0.54117647 0.42352941 0.64313725
v -0.00611966 -0.01954213 0.03410915 0.54117647 0.42352941 0.64313725
v -0.00705070 -0.01926521 0.03509204 0.54117647 0.42352941 0.64313725
v -0.01574846 -0.02799036 -0.07871618 0.54117647 0.42352941 0.64313725
v -0.00262705 -0.01991291 0.03580797 0.54117647 0.42352941 0.64313725
v -0.00268011 -0.01990822 0.03580797 0.54117647 0.42352941 0.64313725
v -0.01737416 -0.02617399 -0.08037859 0.54117647 0.42352941 0.64313725
v -0.01620674 -0.02644152 -0.08070622 0.54117647 0.42352941 0.64313725
v -0.01486566 -0.02676537 -0.08105811 0.54117647 0.42352941 0.64313725
v -0.01342327 -0.02617868 -0.08217447 0.54117647 0.42352941 0.64313725
v -0.01077969 -0.02459699 -0.08406743 0.54117647 0.42352941 0.64313725
v -0.01194711 -0.02432946 -0.08384902 0.54117647 0.42352941 0.64313725
v -0.01486566 -0.02580790 -0.08193179 0.54117647 0.42352941 0.64313725
v -0.02160968 -0.00786948 -0.08437080 0.54117647 0.42352941 0.64313725
v -0.02027342 -0.00611882 -0.08530514 0.54117647 0.42352941 0.64313725
v -0.01836792 -0.02502409 -0.08094891 0.54117647 0.42352941 0.64313725
v -0.01947745 -0.02467678 -0.08069408 0.54117647 0.42352941 0.64313725
v -0.02008045 -0.02355035 -0.08099744 0.54117647 0.42352941 0.64313725
v -0.02011422 -0.02186539 -0.08161630 0.54117647 0.42352941 0.64313725
v -0.02092949 -0.01905400 -0.08219874 0.54117647 0.42352941 0.64313725
v -0.02179299 -0.01842977 -0.08198032 0.54117647 0.42352941 0.64313725
v -0.02350553 -0.01486274 -0.08204100 0.54117647 0.42352941 0.64313725
v -0.02237670 -0.00962014 -0.08371553 0.54117647 0.42352941 0.64313725
v -0.02550751 -0.00611882 -0.08188325 0.54117647 0.42352941 0.64313725
v -0.02680035 -0.00611882 -0.08100957 0.54117647 0.42352941 0.64313725
v -0.02551716 -0.00437754 -0.08178617 0.54117647 0.42352941 0.64313725
v -0.01940026 -0.00300705 -0.08582692 0.54117647 0.42352941 0.64313725
v -0.02685342 -0.00786948 -0.08097317 0.54117647 0.42352941 0.64313725
v -0.00611966 0.00916780 -0.08457707 0.54117647 0.42352941 0.64313725
v -0.00611966 0.00858581 -0.08545075 0.54117647 0.42352941 0.64313725
v -0.00787079 0.01107334 -0.08102171 0.54117647 0.42352941 0.64313725
v -0.01728733 0.00147990 -0.08551143 0.54117647 0.42352941 0.64313725
v -0.01556997 0.00331035 -0.08555996 0.54117647 0.42352941 0.64313725
v -0.01376095 0.00503755 -0.08551143 0.54117647 0.42352941 0.64313725
v -0.01174450 0.00666149 -0.08532941 0.54117647 0.42352941 0.64313725
v -0.01057708 0.00704635 -0.08579051 0.54117647 0.42352941 0.64313725
v -0.01311935 0.00923350 -0.08113092 0.54117647 0.42352941 0.64313725
v -0.01189887 0.01037402 -0.08024510 0.54117647 0.42352941 0.64313725
v -0.01073145 0.01057114 -0.08056060 0.54117647 0.42352941 0.64313725
v -0.00961709 0.01078704 -0.08071834 0.54117647 0.42352941 0.64313725
v -0.01918801 -0.00184307 -0.08568130 0.54117647 0.42352941 0.64313725
v -0.02458612 -0.00337783 -0.08225941 0.54117647 0.42352941 0.64313725
v -0.00437335 0.00937900 -0.08478336 0.54117647 0.42352941 0.64313725
v -0.00262705 0.01081989 -0.08272051 0.54117647 0.42352941 0.64313725
v -0.00787079 0.01189470 -0.07958985 0.54117647 0.42352941 0.64313725
v -0.00611966 0.01196041 -0.07958985 0.54117647 0.42352941 0.64313725
v -0.00437335 0.01076357 -0.08268411 0.54117647 0.42352941 0.64313725
v -0.00437335 0.01143474 -0.08133720 0.54117647 0.42352941 0.64313725
v -0.00422381 0.01205428 -0.07943210 0.54117647 0.42352941 0.64313725
v -0.00354844 0.01224671 -0.07874045 0.54117647 0.42352941 0.64313725
v -0.00437335 0.01025668 -0.08355779 0.54117647 0.42352941 0.64313725
v 0.00087039 0.01952627 0.03580797 0.54117647 0.42352941 0.64313725
v -0.00437335 0.01453243 -0.04285913 0.54117647 0.42352941 0.64313725
v -0.00262705 0.01846085 0.01835875 0.54117647 0.42352941 0.64313725
v -0.00087592 0.01954035 0.03580797 0.54117647 0.42352941 0.64313725
v -0.01661679 -0.02723941 -0.07609516 0.54117647 0.42352941 0.64313725
v -0.01644312 -0.02754918 -0.07801238 0.54117647 0.42352941 0.64313725
v -0.01790963 -0.02664334 -0.07784250 0.54117647 0.42352941 0.64313725
v -0.00808305 -0.01897891 0.03410915 0.54117647 0.42352941 0.64313725
v -0.01063014 -0.01755210 0.03544393 0.54117647 0.42352941 0.64313725
v -0.00437335 -0.01970170 0.03580797 0.54117647 0.42352941 0.64313725
v -0.00442642 -0.01969232 0.03580797 0.54117647 0.42352941 0.64313725
v -0.00599906 -0.01934969 0.03580797 0.54117647 0.42352941 0.64313725
v -0.00673714 -0.01918073 0.03580797 0.54117647 0.42352941 0.64313725
v -0.00773571 -0.01884749 0.03580797 0.54117647 0.42352941 0.64313725
v -0.01778903 -0.02653539 -0.07921369 0.54117647 0.42352941 0.64313725
v -0.02677623 -0.00962014 -0.08087609 0.54117647 0.42352941 0.64313725
v -0.01957393 -0.02482227 -0.07958985 0.54117647 0.42352941 0.64313725
v -0.02113210 -0.02292611 -0.08065768 0.54117647 0.42352941 0.64313725
v -0.02191842 -0.02013820 -0.08124012 0.54117647 0.42352941 0.64313725
v -0.02326433 -0.01836407 -0.08105811 0.54117647 0.42352941 0.64313725
v -0.02372743 -0.01668850 -0.08133720 0.54117647 0.42352941 0.64313725
v -0.02498169 -0.01486743 -0.08113092 0.54117647 0.42352941 0.64313725
v -0.02655433 -0.01137080 -0.08073048 0.54117647 0.42352941 0.64313725
v -0.02764939 -0.00962014 -0.07995389 0.54117647 0.42352941 0.64313725
v -0.02823310 -0.00828250 -0.07910447 0.54117647 0.42352941 0.64313725
v -0.02660257 -0.00437754 -0.08091249 0.54117647 0.42352941 0.64313725
v -0.02639031 -0.00328866 -0.08068194 0.54117647 0.42352941 0.64313725
v -0.01753818 0.00705104 -0.08052420 0.54117647 0.42352941 0.64313725
v -0.01426265 0.00893312 -0.08077902 0.54117647 0.42352941 0.64313725
v -0.01249705 0.01065093 -0.07908021 0.54117647 0.42352941 0.64313725
v -0.00961709 0.01139250 -0.07958985 0.54117647 0.42352941 0.64313725
v -0.00961709 0.01157554 -0.07784250 0.54117647 0.42352941 0.64313725
v -0.01136822 0.01322764 -0.04984852 0.54117647 0.42352941 0.64313725
v -0.00961709 0.01359843 -0.04984852 0.54117647 0.42352941 0.64313725
v -0.00437335 0.01918834 0.03580797 0.54117647 0.42352941 0.64313725
v -0.00262705 0.01940893 0.03580797 0.54117647 0.42352941 0.64313725
v -0.01780833 -0.02653539 -0.07609516 0.54117647 0.42352941 0.64313725
v -0.01107878 -0.01727518 0.03580797 0.54117647 0.42352941 0.64313725
v -0.01130069 -0.01715315 0.03580797 0.54117647 0.42352941 0.64313725
v -0.01878761 -0.02568587 -0.07784250 0.54117647 0.42352941 0.64313725
v -0.02044708 -0.02387419 -0.07958985 0.54117647 0.42352941 0.64313725
v -0.00976181 -0.01793696 0.03580797 0.54117647 0.42352941 0.64313725
v -0.01003679 -0.01780554 0.03580797 0.54117647 0.42352941 0.64313725
v -0.02118999 -0.02300121 -0.07958985 0.54117647 0.42352941 0.64313725
v -0.02308101 -0.01976741 -0.07958985 0.54117647 0.42352941 0.64313725
v -0.02296524 -0.01957029 -0.08077902 0.54117647 0.42352941 0.64313725
v -0.02471636 -0.01615345 -0.08087609 0.54117647 0.42352941 0.64313725
v -0.02635172 -0.01246438 -0.08059700 0.54117647 0.42352941 0.64313725
v -0.02819450 -0.00962014 -0.07908021 0.54117647 0.42352941 0.64313725
v -0.02835852 -0.00776622 -0.07791531 0.54117647 0.42352941 0.64313725
v -0.01766843 0.00716838 -0.07958985 0.54117647 0.42352941 0.64313725
v -0.02818003 -0.00674774 -0.07738140 0.54117647 0.42352941 0.64313725
v -0.02639514 -0.00328866 -0.07958985 0.54117647 0.42352941 0.64313725
v -0.01923142 0.00698064 -0.04810117 0.54117647 0.42352941 0.64313725
v -0.01349080 0.01015812 -0.07784250 0.54117647 0.42352941 0.64313725
v -0.01261283 0.01070256 -0.07784250 0.54117647 0.42352941 0.64313725
v -0.01136822 0.01107334 -0.07784250 0.54117647 0.42352941 0.64313725
v -0.01265624 0.01248607 -0.05159587 0.54117647 0.42352941 0.64313725
v -0.01273343 0.01253770 -0.04984852 0.54117647 0.42352941 0.64313725
v -0.00892243 0.01762072 0.03580797 0.54117647 0.42352941 0.64313725
v -0.00803481 0.01806660 0.03580797 0.54117647 0.42352941 0.64313725
v -0.00798174 0.01809007 0.03580797 0.54117647 0.42352941 0.64313725
v -0.00609071 0.01883164 0.03580797 0.54117647 0.42352941 0.64313725
v -0.00471586 0.01912733 0.03580797 0.54117647 0.42352941 0.64313725
v -0.01288780 -0.01620977 0.03580797 0.54117647 0.42352941 0.64313725
v -0.01373201 -0.01557145 0.03580797 0.54117647 0.42352941 0.64313725
v -0.01376095 -0.01554799 0.03580797 0.54117647 0.42352941 0.64313725
v -0.01463410 -0.01467500 0.03580797 0.54117647 0.42352941 0.64313725
v -0.01569057 -0.01569818 0.02010610 0.54117647 0.42352941 0.64313725
v -0.01651066 -0.01482519 0.02010610 0.54117647 0.42352941 0.64313725
v -0.02111762 -0.02289795 -0.07819441 0.54117647 0.42352941 0.64313725
v -0.01738381 -0.01384895 0.02010610 0.54117647 0.42352941 0.64313725
v -0.01794823 -0.01297128 0.02010610 0.54117647 0.42352941 0.64313725
v -0.02802084 -0.01054475 -0.07864337 0.54117647 0.42352941 0.64313725
v -0.02802084 -0.01054475 -0.07881326 0.54117647 0.42352941 0.64313725
v -0.02488038 -0.01640220 -0.07958985 0.54117647 0.42352941 0.64313725
v -0.02307619 -0.01279762 -0.03585760 0.54117647 0.42352941 0.64313725
v -0.02826686 -0.00960137 -0.07796384 0.54117647 0.42352941 0.64313725
v -0.02827169 -0.00786948 -0.07662906 0.54117647 0.42352941 0.64313725
v -0.02019141 -0.00087622 0.03580797 0.54117647 0.42352941 0.64313725
v -0.02004669 0.00081812 0.03580797 0.54117647 0.42352941 0.64313725
v -0.02004186 0.00087444 0.03580797 0.54117647 0.42352941 0.64313725
v -0.02818003 -0.00674774 -0.07672614 0.54117647 0.42352941 0.64313725
v -0.01575328 0.00875477 -0.07702950 0.54117647 0.42352941 0.64313725
v -0.01754300 0.00879701 -0.04955730 0.54117647 0.42352941 0.64313725
v -0.01574846 0.01050074 -0.04908406 0.54117647 0.42352941 0.64313725
v -0.01502003 0.01100294 -0.04973931 0.54117647 0.42352941 0.64313725
v -0.01766843 0.00911147 0.03580797 0.54117647 0.42352941 0.64313725
v -0.01716191 0.00995630 0.03580797 0.54117647 0.42352941 0.64313725
v -0.01625498 0.01142535 0.03580797 0.54117647 0.42352941 0.64313725
v -0.01621639 0.01148637 0.03580797 0.54117647 0.42352941 0.64313725
v -0.01573881 0.01223263 0.03580797 0.54117647 0.42352941 0.64313725
v -0.01843545 0.00786771 -0.04810117 0.54117647 0.42352941 0.64313725
v -0.01353422 0.01194633 -0.05159587 0.54117647 0.42352941 0.64313725
v -0.01360658 0.01199796 -0.04984852 0.54117647 0.42352941 0.64313725
v -0.01173003 0.01545234 0.02010610 0.54117647 0.42352941 0.64313725
v -0.00965569 0.01716077 0.03580797 0.54117647 0.42352941 0.64313725
v -0.01548314 -0.01374100 0.03580797 0.54117647 0.42352941 0.64313725
v -0.01577740 -0.01403669 0.03162161 0.54117647 0.42352941 0.64313725
v -0.01622122 -0.01283986 0.03580797 0.54117647 0.42352941 0.64313725
v -0.01707025 -0.01168057 0.03580797 0.54117647 0.42352941 0.64313725
v -0.01711367 -0.01161487 0.03580797 0.54117647 0.42352941 0.64313725
v -0.01764431 -0.01076535 0.03580797 0.54117647 0.42352941 0.64313725
v -0.01817978 -0.00965300 0.03580797 0.54117647 0.42352941 0.64313725
v -0.01819425 -0.00962014 0.03580797 0.54117647 0.42352941 0.64313725
v -0.01898057 -0.00770990 0.03580797 0.54117647 0.42352941 0.64313725
v -0.01924590 -0.00700119 0.03580797 0.54117647 0.42352941 0.64313725
v -0.01945333 -0.00633941 0.03580797 0.54117647 0.42352941 0.64313725
v -0.01946780 -0.00628778 0.03580797 0.54117647 0.42352941 0.64313725
v -0.01947745 -0.00625023 0.03580797 0.54117647 0.42352941 0.64313725
v -0.01994056 -0.00437754 0.03580797 0.54117647 0.42352941 0.64313725
v -0.02017211 -0.00267851 0.03580797 0.54117647 0.42352941 0.64313725
v -0.02017693 -0.00262688 0.03580797 0.54117647 0.42352941 0.64313725
v -0.02019141 -0.00093254 0.03580797 0.54117647 0.42352941 0.64313725
v -0.01979584 0.00262041 0.03580797 0.54117647 0.42352941 0.64313725
v -0.02102114 0.00180844 0.01931736 0.54117647 0.42352941 0.64313725
v -0.01920730 0.00512672 0.03580797 0.54117647 0.42352941 0.64313725
v -0.01890339 0.00597624 0.03580797 0.54117647 0.42352941 0.64313725
v -0.01821355 0.00781608 0.03580797 0.54117647 0.42352941 0.64313725
v -0.01769737 0.00905515 0.03580797 0.54117647 0.42352941 0.64313725
v -0.01757195 0.00882517 -0.04810117 0.54117647 0.42352941 0.64313725
v -0.01399733 0.01399737 0.03143959 0.54117647 0.42352941 0.64313725
v -0.01292639 0.01457467 0.02010610 0.54117647 0.42352941 0.64313725
v -0.01491390 0.01313377 0.03580797 0.54117647 0.42352941 0.64313725
v -0.01193746 0.01552744 0.03060232 0.54117647 0.42352941 0.64313725
v -0.01111737 0.01616575 0.03580797 0.54117647 0.42352941 0.64313725
v -0.01553138 -0.01368468 0.03580797 0.54117647 0.42352941 0.64313725
v -0.01940026 0.00441332 0.03580797 0.54117647 0.42352941 0.64313725
v -0.01404075 0.01403961 0.03580797 0.54117647 0.42352941 0.64313725
v -0.01323513 0.01463099 0.03580797 0.54117647 0.42352941 0.64313725
f 1 2 9
f 1 9 26
f 1 26 32
f 1 32 31
f 1 31 30
f 1 30 29
f 1 29 28
f 1 28 27
f 1 27 60
f 1 60 98
f 1 98 134
f 1 134 189
f 1 189 188
f 1 188 187
f 1 187 236
f 1 236 248
f 1 248 247
f 1 247 304
f 1 304 359
f 1 359 422
f 1 422 425
f 1 425 457
f 1 457 456
f 1 456 485
f 1 485 484
f 1 484 483
f 1 483 482
f 1 482 481
f 1 481 518
f 1 518 547
f 1 547 551
f 1 551 550
f 1 550 545
f 1 545 513
f 1 513 512
f 1 512 511
f 1 511 510
f 1 510 509
f 1 509 541
f 1 541 540
f 1 540 539
f 1 539 538
f 1 538 549
f 1 549 536
f 1 536 503
f 1 503 502
f 1 502 501
f 1 501 535
f 1 535 534
f 1 534 533
f 1 533 532
f 1 532 531
f 1 531 530
f 1 530 529
f 1 529 528
f 1 528 527
f 1 527 526
f 1 526 525
f 1 525 524
f 1 524 523
f 1 523 522
f 1 522 521
f 1 521 548
f 1 548 519
f 1 519 489
f 1 489 488
f 1 488 487
f 1 487 486
f 1 486 460
f 1 460 459
f 1 459 464
f 1 464 463
f 1 463 435
f 1 435 434
f 1 434 433
f 1 433 432
f 1 432 431
f 1 431 376
f 1 376 375
f 1 375 366
f 1 366 364
f 1 364 362
f 1 362 308
f 1 308 307
f 1 307 306
f 1 306 252
f 1 252 205
f 1 205 154
f 1 154 99
f 1 99 62
f 1 62 33
f 1 33 11
f 1 11 3
f 1 3 4
f 1 4 5
f 1 5 6
f 1 6 7
f 1 7 8
f 1 8 2
f 2 8 10
f 2 10 9
f 3 11 12
f 3 12 13
f 3 13 14
f 3 14 15
f 3 15 16
f 3 16 17
f 3 17 18
f 3 18 19
f 3 19 4
f 4 19 20
f 4 20 21
f 4 21 22
f 4 22 23
f 4 23 5
f 5 7 6
f 5 23 7
f 7 24 8
f 7 23 25
f 7 25 24
f 8 24 10
f 9 10 26
f 10 24 27
f 10 27 28
f 10 28 29
f 10 29 30
f 10 30 31
f 10 31 32
f 10 32 26
f 11 33 34
f 11 34 35
f 11 35 36
f 11 36 12
f 12 36 37
f 12 37 38
f 12 38 39
f 12 39 13
f 13 39 40
f 13 40 14
f 14 40 39
f 14 39 41
f 14 41 16
f 14 16 15
f 16 41 42
f 16 42 43
f 16 43 44
f 16 44 45
f 16 45 46
f 16 46 17
f 17 46 19
f 17 19 18
f 19 46 45
f 19 45 47
f 19 47 20
f 20 47 48
f 20 48 21
f 21 25 22
f 21 48 49
f 21 49 25
f 22 25 23
f 24 50 51
f 24 51 27
f 24 25 52
f 24 52 53
f 24 53 54
f 24 54 55
f 24 55 56
f 24 56 57
f 24 57 50
f 25 49 58
f 25 58 59
f 25 59 52
f 27 51 61
f 27 61 60
f 33 62 63
f 33 63 64
f 33 64 34
f 34 65 66
f 34 66 67
f 34 67 68
f 34 68 69
f 34 69 38
f 34 38 37
f 34 37 36
f 34 36 35
f 34 64 70
f 34 70 65
f 38 69 71
f 38 71 72
f 38 72 73
f 38 73 42
f 38 42 39
f 39 42 41
f 42 73 74
f 42 74 75
f 42 75 43
f 43 75 76
f 43 76 45
f 43 45 44
f 45 76 77
f 45 77 78
f 45 78 47
f 47 78 48
f 48 78 79
f 48 79 80
f 48 80 49
f 49 80 81
f 49 81 82
f 49 82 58
f 50 83 84
f 50 84 85
f 50 85 61
f 50 61 51
f 50 57 86
f 50 86 87
f 50 87 88
f 50 88 83
f 52 59 89
f 52 89 53
f 53 89 90
f 53 90 54
f 54 90 91
f 54 91 55
f 55 91 56
f 56 91 92
f 56 92 57
f 57 92 93
f 57 93 94
f 57 94 95
f 57 95 86
f 58 82 96
f 58 96 97
f 58 97 59
f 59 97 89
f 60 61 98
f 61 85 98
f 62 99 100
f 62 100 63
f 63 70 64
f 63 100 101
f 63 101 102
f 63 102 103
f 63 103 65
f 63 65 70
f 65 103 104
f 65 104 105
f 65 105 106
f 65 106 107
f 65 107 66
f 66 107 108
f 66 108 67
f 67 108 109
f 67 109 110
f 67 110 71
f 67 71 68
f 68 71 69
f 71 110 111
f 71 111 112
f 71 112 72
f 72 112 73
f 73 112 113
f 73 113 74
f 74 113 114
f 74 114 115
f 74 115 116
f 74 116 117
f 74 117 118
f 74 118 119
f 74 119 120
f 74 120 121
f 74 121 122
f 74 122 123
f 74 123 124
f 74 124 75
f 75 124 76
f 76 125 77
f 76 124 125
f 77 125 79
f 77 79 78
f 79 125 124
f 79 124 123
f 79 123 122
f 79 122 126
f 79 126 80
f 80 126 127
f 80 127 81
f 81 127 128
f 81 128 129
f 81 129 82
f 82 129 130
f 82 130 96
f 83 131 132
f 83 132 133
f 83 133 134
f 83 134 84
f 83 88 131
f 84 134 85
f 85 134 98
f 86 95 135
f 86 135 136
f 86 136 137
f 86 137 138
f 86 138 87
f 87 138 139
f 87 139 88
f 88 139 140
f 88 140 141
f 88 141 142
f 88 142 143
f 88 143 131
f 89 97 96
f 89 96 144
f 89 144 145
f 89 145 146
f 89 146 147
f 89 147 148
f 89 148 149
f 89 149 150
f 89 150 91
f 89 91 90
f 91 150 149
f 91 149 148
f 91 148 92
f 92 148 151
f 92 151 93
f 93 151 152
f 93 152 94
f 94 152 95
f 95 152 153
f 95 153 135
f 96 130 144
f 99 154 100
f 100 154 155
f 100 155 156
f 100 156 157
f 100 157 158
f 100 158 159
f 100 159 101
f 101 159 158
f 101 158 102
f 102 158 160
f 102 160 103
f 103 160 104
f 104 160 161
f 104 161 162
f 104 162 105
f 105 162 106
f 106 162 163
f 106 163 107
f 107 164 109
f 107 109 108
f 107 163 162
f 107 162 164
f 109 164 165
f 109 165 166
f 109 166 167
f 109 167 110
f 110 167 168
f 110 168 169
f 110 169 170
f 110 170 111
f 111 170 171
f 111 171 112
f 112 171 172
f 112 172 173
f 112 173 113
f 113 173 174
f 113 174 175
f 113 175 114
f 114 175 115
f 115 175 117
f 115 117 116
f 117 175 118
f 118 176 120
f 118 120 119
f 118 175 177
f 118 177 178
f 118 178 176
f 120 176 179
f 120 179 180
f 120 180 128
f 120 128 181
f 120 181 182
f 120 182 121
f 121 182 122
f 122 182 126
f 126 182 181
f 126 181 127
f 127 181 128
f 128 180 179
f 128 179 183
f 128 183 184
f 128 184 130
f 128 130 129
f 130 184 185
f 130 185 145
f 130 145 144
f 131 143 186
f 131 186 187
f 131 187 188
f 131 188 189
f 131 189 134
f 131 134 133
f 131 133 132
f 135 153 190
f 135 190 136
f 136 190 191
f 136 191 137
f 137 192 140
f 137 140 139
f 137 139 138
f 137 191 193
f 137 193 192
f 140 192 141
f 141 192 194
f 141 194 195
f 141 195 196
f 141 196 197
f 141 197 142
f 142 197 198
f 142 198 199
f 142 199 143
f 143 199 186
f 145 200 201
f 145 201 147
f 145 147 146
f 145 185 183
f 145 183 202
f 145 202 200
f 147 201 148
f 148 201 151
f 151 201 152
f 152 203 204
f 152 204 153
f 152 201 203
f 153 204 190
f 154 205 155
f 155 206 156
f 155 205 206
f 156 206 157
f 157 206 207
f 157 207 208
f 157 208 209
f 157 209 210
f 157 210 211
f 157 211 212
f 157 212 161
f 157 161 160
f 157 160 158
f 161 212 211
f 161 211 162
f 162 211 165
f 162 165 164
f 165 213 214
f 165 214 166
f 165 211 213
f 166 215 167
f 166 214 213
f 166 213 216
f 166 216 217
f 166 217 170
f 166 170 215
f 167 215 170
f 167 170 169
f 167 169 168
f 170 218 171
f 170 217 218
f 171 218 219
f 171 219 172
f 172 219 220
f 172 220 221
f 172 221 173
f 173 221 174
f 174 221 222
f 174 222 175
f 175 222 177
f 176 178 223
f 176 223 224
f 176 224 183
f 176 183 179
f 177 222 225
f 177 225 226
f 177 226 227
f 177 227 228
f 177 228 178
f 178 228 229
f 178 229 230
f 178 230 231
f 178 231 232
f 178 232 233
f 178 233 234
f 178 234 223
f 183 224 235
f 183 235 202
f 183 185 184
f 186 199 187
f 187 199 236
f 190 204 237
f 190 237 238
f 190 238 239
f 190 239 191
f 191 239 193
f 192 193 194
f 193 239 240
f 193 240 194
f 194 240 195
f 195 240 241
f 195 241 196
f 196 241 242
f 196 242 197
f 197 242 243
f 197 243 244
f 197 244 245
f 197 245 198
f 198 245 246
f 198 246 247
f 198 247 248
f 198 248 236
f 198 236 199
f 200 202 201
f 201 202 249
f 201 249 203
f 202 235 250
f 202 250 204
f 202 204 203
f 202 203 249
f 204 250 234
f 204 234 251
f 204 251 237
f 205 252 206
f 206 252 253
f 206 253 254
f 206 254 207
f 207 254 255
f 207 255 208
f 208 255 256
f 208 256 209
f 209 257 258
f 209 258 259
f 209 259 260
f 209 260 261
f 209 261 213
f 209 213 211
f 209 211 210
f 209 256 257
f 213 261 262
f 213 262 263
f 213 263 264
f 213 264 265
f 213 265 266
f 213 266 267
f 213 267 268
f 213 268 217
f 213 217 216
f 217 268 269
f 217 269 218
f 218 269 270
f 218 270 219
f 219 270 271
f 219 271 220
f 220 271 272
f 220 272 273
f 220 273 274
f 220 274 275
f 220 275 221
f 221 275 222
f 222 276 225
f 222 275 274
f 222 274 277
f 222 277 278
f 222 278 279
f 222 279 280
f 222 280 276
f 223 234 250
f 223 250 235
f 223 235 224
f 225 281 282
f 225 282 227
f 225 227 226
f 225 276 283
f 225 283 284
f 225 284 285
f 225 285 281
f 227 282 286
f 227 286 287
f 227 287 228
f 228 287 288
f 228 288 229
f 229 288 289
f 229 289 230
f 230 289 290
f 230 290 291
f 230 291 232
f 230 232 231
f 232 291 292
f 232 292 293
f 232 293 294
f 232 294 237
f 232 237 295
f 232 295 251
f 232 251 233
f 233 251 234
f 237 296 238
f 237 251 295
f 237 294 296
f 238 296 239
f 239 297 298
f 239 298 299
f 239 299 241
f 239 241 240
f 239 296 290
f 239 290 300
f 239 300 297
f 241 299 242
f 242 301 243
f 242 299 298
f 242 298 301
f 243 302 244
f 243 301 302
f 244 302 301
f 244 301 246
f 244 246 245
f 246 303 304
f 246 304 247
f 246 301 305
f 246 305 303
f 252 306 253
f 253 306 254
f 254 306 307
f 254 307 308
f 254 308 309
f 254 309 310
f 254 310 255
f 255 310 256
f 256 310 311
f 256 311 312
f 256 312 313
f 256 313 259
f 256 259 257
f 257 259 258
f 259 313 260
f 260 313 314
f 260 314 261
f 261 315 316
f 261 316 262
f 261 314 313
f 261 313 317
f 261 317 318
f 261 318 319
f 261 319 315
f 262 320 321
f 262 321 263
f 262 316 320
f 263 321 322
f 263 322 264
f 264 322 265
f 265 322 267
f 265 267 266
f 267 322 323
f 267 323 268
f 268 323 269
f 269 323 270
f 270 323 271
f 271 324 272
f 271 323 325
f 271 325 326
f 271 326 324
f 272 324 326
f 272 326 327
f 272 327 273
f 273 328 274
f 273 327 328
f 274 328 277
f 276 280 283
f 277 328 329
f 277 329 330
f 277 330 331
f 277 331 332
f 277 332 278
f 278 332 279
f 279 333 280
f 279 332 334
f 279 334 335
f 279 335 336
f 279 336 337
f 279 337 333
f 280 333 338
f 280 338 339
f 280 339 283
f 281 340 282
f 281 285 341
f 281 341 342
f 281 342 343
f 281 343 344
f 281 344 345
f 281 345 340
f 282 340 346
f 282 346 287
f 282 287 286
f 283 339 347
f 283 347 284
f 284 347 348
f 284 348 341
f 284 341 285
f 287 346 349
f 287 349 350
f 287 350 288
f 288 350 289
f 289 350 300
f 289 300 290
f 290 296 292
f 290 292 291
f 292 296 293
f 293 296 294
f 297 300 351
f 297 351 352
f 297 352 353
f 297 353 298
f 298 353 354
f 298 354 301
f 300 350 355
f 300 355 356
f 300 356 351
f 301 354 357
f 301 357 305
f 303 358 304
f 303 305 358
f 304 358 359
f 305 357 360
f 305 360 361
f 305 361 358
f 308 362 309
f 309 362 310
f 310 362 363
f 310 363 311
f 311 363 312
f 312 363 364
f 312 364 365
f 312 365 366
f 312 366 367
f 312 367 368
f 312 368 313
f 313 318 317
f 313 368 318
f 315 369 370
f 315 370 316
f 315 319 371
f 315 371 372
f 315 372 373
f 315 373 369
f 316 370 374
f 316 374 320
f 318 368 319
f 319 368 375
f 319 375 376
f 319 376 371
f 320 374 321
f 321 327 326
f 321 326 325
f 321 325 322
f 321 374 377
f 321 377 378
f 321 378 379
f 321 379 380
f 321 380 329
f 321 329 328
f 321 328 327
f 322 325 323
f 329 381 330
f 329 380 381
f 330 381 331
f 331 381 382
f 331 382 383
f 331 383 334
f 331 334 332
f 333 337 384
f 333 384 385
f 333 385 338
f 334 383 386
f 334 386 387
f 334 387 388
f 334 388 389
f 334 389 390
f 334 390 335
f 335 390 391
f 335 391 392
f 335 392 336
f 336 392 337
f 337 392 393
f 337 393 384
f 338 394 395
f 338 395 396
f 338 396 397
f 338 397 339
f 338 385 398
f 338 398 394
f 339 397 347
f 340 399 400
f 340 400 349
f 340 349 346
f 340 345 401
f 340 401 399
f 341 348 402
f 341 402 403
f 341 403 342
f 342 403 404
f 342 404 343
f 343 404 405
f 343 405 406
f 343 406 344
f 344 406 345
f 345 406 407
f 345 407 408
f 345 408 409
f 345 409 410
f 345 410 401
f 347 397 411
f 347 411 348
f 348 411 412
f 348 412 402
f 349 400 413
f 349 413 350
f 350 413 355
f 351 356 414
f 351 414 352
f 352 415 416
f 352 416 354
f 352 354 353
f 352 414 417
f 352 417 418
f 352 418 415
f 354 416 419
f 354 419 420
f 354 420 357
f 355 413 356
f 356 421 414
f 356 413 421
f 357 420 360
f 358 361 422
f 358 422 359
f 360 420 423
f 360 423 361
f 361 424 425
f 361 425 422
f 361 423 424
f 362 364 363
f 364 366 365
f 366 375 368
f 366 368 367
f 369 373 370
f 370 426 427
f 370 427 428
f 370 428 374
f 370 373 429
f 370 429 430
f 370 430 426
f 371 376 431
f 371 431 432
f 371 432 373
f 371 373 372
f 373 432 433
f 373 433 434
f 373 434 435
f 373 435 429
f 374 436 377
f 374 428 436
f 377 387 386
f 377 386 378
f 377 436 387
f 378 386 383
f 378 383 379
f 379 383 380
f 380 383 381
f 381 383 382
f 384 393 437
f 384 437 398
f 384 398 385
f 387 436 438
f 387 438 439
f 387 439 388
f 388 439 389
f 389 439 391
f 389 391 390
f 391 439 440
f 391 440 441
f 391 441 442
f 391 442 392
f 392 442 443
f 392 443 393
f 393 443 444
f 393 444 437
f 394 398 395
f 395 398 445
f 395 445 446
f 395 446 447
f 395 447 396
f 396 447 412
f 396 412 397
f 397 412 411
f 398 437 445
f 399 401 421
f 399 421 400
f 400 421 413
f 401 410 415
f 401 415 417
f 401 417 421
f 402 412 448
f 402 448 449
f 402 449 403
f 403 449 404
f 404 449 405
f 405 449 406
f 406 449 450
f 406 450 407
f 407 450 408
f 408 450 451
f 408 451 452
f 408 452 409
f 409 452 415
f 409 415 410
f 412 447 448
f 414 421 417
f 415 420 416
f 415 418 417
f 415 452 451
f 415 451 453
f 415 453 454
f 415 454 455
f 415 455 423
f 415 423 420
f 416 420 419
f 423 455 424
f 424 456 457
f 424 457 425
f 424 455 456
f 426 458 427
f 426 430 459
f 426 459 460
f 426 460 458
f 427 458 428
f 428 458 461
f 428 461 462
f 428 462 438
f 428 438 436
f 429 435 463
f 429 463 464
f 429 464 430
f 430 464 459
f 437 444 445
f 438 462 439
f 439 462 465
f 439 465 466
f 439 466 467
f 439 467 441
f 439 441 440
f 441 467 468
f 441 468 442
f 442 468 443
f 443 468 469
f 443 469 444
f 444 469 445
f 445 469 470
f 445 470 446
f 446 470 471
f 446 471 448
f 446 448 447
f 448 472 449
f 448 471 473
f 448 473 474
f 448 474 475
f 448 475 472
f 449 472 451
f 449 451 450
f 451 472 476
f 451 476 477
f 451 477 454
f 451 454 478
f 451 478 453
f 453 478 454
f 454 477 479
f 454 479 480
f 454 480 481
f 454 481 482
f 454 482 483
f 454 483 484
f 454 484 485
f 454 485 455
f 455 485 456
f 458 460 486
f 458 486 487
f 458 487 488
f 458 488 489
f 458 489 490
f 458 490 491
f 458 491 461
f 461 492 465
f 461 465 462
f 461 491 493
f 461 493 492
f 465 492 493
f 465 493 494
f 465 494 466
f 466 495 496
f 466 496 497
f 466 497 467
f 466 494 498
f 466 498 495
f 467 497 468
f 468 497 496
f 468 496 469
f 469 496 470
f 470 496 499
f 470 499 471
f 471 500 501
f 471 501 502
f 471 502 503
f 471 503 504
f 471 504 473
f 471 499 500
f 472 505 476
f 472 475 506
f 472 506 507
f 472 507 508
f 472 508 505
f 473 504 474
f 474 504 509
f 474 509 510
f 474 510 511
f 474 511 512
f 474 512 513
f 474 513 475
f 475 514 506
f 475 513 514
f 476 505 515
f 476 515 477
f 477 515 479
f 479 515 480
f 480 515 516
f 480 516 517
f 480 517 481
f 481 517 518
f 489 519 520
f 489 520 490
f 490 520 491
f 491 520 493
f 493 520 521
f 493 521 522
f 493 522 523
f 493 523 494
f 494 523 524
f 494 524 498
f 495 499 496
f 495 498 524
f 495 524 525
f 495 525 526
f 495 526 527
f 495 527 528
f 495 528 499
f 499 528 529
f 499 529 530
f 499 530 531
f 499 531 532
f 499 532 533
f 499 533 534
f 499 534 500
f 500 534 535
f 500 535 501
f 503 536 537
f 503 537 504
f 504 537 538
f 504 538 539
f 504 539 540
f 504 540 541
f 504 541 509
f 505 508 515
f 506 514 542
f 506 542 507
f 507 542 543
f 507 543 544
f 507 544 517
f 507 517 508
f 508 517 516
f 508 516 515
f 513 545 542
f 513 542 514
f 517 544 546
f 517 546 518
f 518 546 547
f 519 548 520
f 520 548 521
f 536 549 537
f 537 549 538
f 542 545 550
f 542 550 543
f 543 550 546
f 543 546 544
f 546 550 551
f 546 551 547

